<svg xmlns="http://www.w3.org/2000/svg" xmlns:xlink="http://www.w3.org/1999/xlink" version="1.1" x="0px" y="0px" viewBox="0 0 64 110" style="enable-background:new 0 0 64 88;" xml:space="preserve"><path fill="#fff" d="M63,0H1C0.448,0,0,0.448,0,1v86c0,0.552,0.448,1,1,1h62c0.552,0,1-0.448,1-1V1C64,0.448,63.552,0,63,0z M62,86H2V2h60V86z"/><path fill="#fff" d="M7.599,75.611c-0.009,0.068,0.016,0.137,0.066,0.183l1.192,1.088l0.349,1.577c0.015,0.067,0.062,0.123,0.125,0.149  l1.492,0.616l0.865,1.364c0.037,0.058,0.1,0.095,0.168,0.098l1.614,0.069l1.28,0.984c0.054,0.042,0.126,0.054,0.191,0.034  l1.54-0.489l1.54,0.489c0.021,0.006,0.042,0.01,0.063,0.01c0.046,0,0.091-0.015,0.128-0.043l1.28-0.984l1.613-0.069  c0.069-0.003,0.132-0.04,0.168-0.098l0.865-1.363l1.492-0.616c0.063-0.026,0.11-0.082,0.125-0.149l0.349-1.577l1.193-1.089  c0.051-0.046,0.076-0.115,0.066-0.183l-0.214-1.601l0.746-1.433c0.032-0.061,0.032-0.133,0-0.194l-0.746-1.432l0.213-1.601  c0.009-0.068-0.016-0.137-0.066-0.183l-1.192-1.088l-0.349-1.576c-0.015-0.067-0.062-0.123-0.125-0.149l-1.493-0.616l-0.865-1.364  c-0.037-0.058-0.1-0.095-0.168-0.098l-1.614-0.07l-1.281-0.984c-0.055-0.042-0.128-0.053-0.191-0.034l-1.54,0.489l-1.539-0.489  c-0.065-0.021-0.137-0.009-0.191,0.034l-1.281,0.984l-1.613,0.069c-0.069,0.003-0.132,0.04-0.168,0.098l-0.865,1.363l-1.493,0.616  c-0.063,0.026-0.11,0.082-0.125,0.149L8.857,68.08l-1.192,1.089c-0.051,0.046-0.076,0.115-0.066,0.183l0.213,1.601l-0.746,1.432  c-0.032,0.061-0.032,0.133,0,0.194l0.746,1.432L7.599,75.611z M7.489,72.481l0.726-1.394c0.02-0.039,0.028-0.082,0.022-0.125  l-0.208-1.558l1.161-1.06c0.032-0.029,0.054-0.068,0.063-0.11l0.339-1.535l1.453-0.6c0.04-0.017,0.074-0.045,0.097-0.082  l0.842-1.327l1.569-0.067c0.043-0.002,0.085-0.017,0.119-0.043l1.247-0.958l1.498,0.476c0.041,0.013,0.086,0.013,0.127,0  l1.499-0.476l1.247,0.958c0.034,0.026,0.076,0.042,0.119,0.043l1.57,0.068l0.842,1.327c0.023,0.037,0.057,0.065,0.097,0.082  l1.453,0.6l0.339,1.534c0.009,0.042,0.032,0.081,0.063,0.11l1.161,1.059l-0.208,1.558c-0.006,0.043,0.002,0.086,0.022,0.125  l0.726,1.394l-0.726,1.395c-0.02,0.039-0.028,0.082-0.022,0.125l0.208,1.558l-1.161,1.06c-0.032,0.029-0.054,0.068-0.063,0.11  l-0.34,1.535l-1.453,0.599c-0.04,0.017-0.074,0.045-0.097,0.082l-0.842,1.327l-1.569,0.067c-0.043,0.002-0.085,0.017-0.119,0.043  l-1.246,0.958l-1.499-0.476c-0.021-0.006-0.042-0.01-0.063-0.01s-0.043,0.003-0.063,0.01l-1.499,0.476l-1.246-0.958  c-0.034-0.026-0.076-0.042-0.119-0.043l-1.57-0.067l-0.842-1.327c-0.023-0.037-0.057-0.065-0.097-0.082l-1.453-0.6l-0.339-1.535  c-0.009-0.042-0.032-0.081-0.063-0.11l-1.16-1.059L8.237,74c0.006-0.043-0.002-0.086-0.022-0.125L7.489,72.481z"/><path fill="#fff" d="M16.481,80.423c4.379,0,7.941-3.562,7.941-7.941c0-4.378-3.562-7.941-7.941-7.941c-4.378,0-7.941,3.562-7.941,7.941  C8.541,76.86,12.103,80.423,16.481,80.423z M16.481,65.541c3.828,0,6.941,3.114,6.941,6.941c0,3.828-3.114,6.941-6.941,6.941  S9.54,76.309,9.54,72.482C9.541,68.654,12.654,65.541,16.481,65.541z"/><path fill="#fff" d="M16.481,77.381c2.702,0,4.9-2.198,4.9-4.9s-2.198-4.899-4.9-4.899s-4.899,2.198-4.899,4.899S13.78,77.381,16.481,77.381z   M16.481,67.982c2.481,0,4.5,2.018,4.5,4.499s-2.019,4.5-4.5,4.5s-4.499-2.019-4.499-4.5S14,67.982,16.481,67.982z"/><path fill="#fff" d="M47.258,74.94c-0.963-0.137-1.811,0.098-2.704-0.34c-0.529-0.259-0.323-0.617-1.083-0.5  c-0.747,0.115-1.268,0.962-1.74,1.752c0.276-1.208,0.492-2.561-0.94-2.582c-0.201-0.003-0.429,0.055-0.659,0.149  c-0.686-0.545-1.502-0.955-2.327-1.379c-0.072-0.037-0.163-0.074-0.255-0.112c1.441-1.299,2.807-2.677,4.057-4.006  c0.207-0.22-0.001-0.546-0.284-0.489c-2.265,0.457-4.697,1.567-6.05,3.507c-0.1,0.144-0.015,0.327,0.109,0.416  c0.363,0.262,0.742,0.487,1.129,0.698c-0.427,0.42-0.85,0.843-1.294,1.246c-0.885,0.801-2.389,1.499-3.008,2.473  c0.061-0.096-0.088-0.217-0.161-0.124c-0.033,0.042-0.066,0.085-0.1,0.127c-0.034,0.044-0.05,0.114,0,0.156  c0.018,0.015,0.036,0.03,0.053,0.045c0.039,0.033,0.092,0.045,0.138,0.018c1.707-0.99,3.366-2.26,4.938-3.64  c0.227,0.117,0.455,0.234,0.685,0.352c0.188,0.097,1.095,0.543,1.776,1.049c-0.437,0.315-0.772,0.732-0.798,1.123  c-0.214-0.063-0.412-0.11-0.554-0.094c-0.568,0.063-0.774,0.159-1.164,0.581c-0.145,0.157-0.113,0.498,0.141,0.534  c0.811,0.114,1.102-0.287,1.653-0.665c0.311,0.615,1.424,0.689,2.183,0.466c-0.053,0.487-0.167,1.053-0.177,1.549  c-0.006,0.289,0.353,0.414,0.551,0.228c0.965-0.903,1.165-2.549,2.629-2.217c0.242,0.055,0.584,0.522,1.049,0.608  c0.146-0.008,0.284-0.042,0.414-0.103c0.735-0.496,1.348-0.428,1.841,0.203c0.061,0.009,0.21,0.09,0.273,0.113  c0.866,0.316,2.171-0.151,3.052-0.195c1.127-0.056,2.219-0.032,3.339,0.104c0.493,0.06,0.485-0.709,0-0.771  C51.711,74.928,49.489,75.257,47.258,74.94z M36.526,71.379c-0.491-0.093-0.578-0.293-0.263-0.6c0.219-0.494,0.596-0.854,1.13-1.081  c0.97-0.668,2.057-1.151,3.188-1.474c-1.083,1.215-2.44,2.235-3.591,3.368c-0.022,0.021-0.044,0.042-0.066,0.063  C36.766,71.574,36.619,71.487,36.526,71.379z M40.025,75.133c-0.161,0.09-0.493-0.003-0.843-0.116  c0.471-0.252,0.833-0.398,1.1-0.448C40.356,74.782,40.302,74.978,40.025,75.133z"/><path fill="#fff" d="M32,20.5c3.571,0,6.476-2.905,6.476-6.476S35.571,7.548,32,7.548s-6.476,2.905-6.476,6.476S28.429,20.5,32,20.5z M32,8.548  c3.02,0,5.476,2.457,5.476,5.476c0,3.02-2.457,5.476-5.476,5.476s-5.476-2.457-5.476-5.476C26.524,11.005,28.98,8.548,32,8.548z"/><rect fill="#fff" x="12" y="23.5" width="40" height="1"/><rect fill="#fff" x="24" y="27.5" width="16" height="1"/><rect fill="#fff" x="12" y="39.5" width="40" height="1"/><rect fill="#fff" x="16" y="43.5" width="32" height="1"/><rect fill="#fff" x="24" y="47.5" width="16" height="1"/></svg>
