<svg xmlns="http://www.w3.org/2000/svg" xmlns:xlink="http://www.w3.org/1999/xlink" version="1.1" x="0px" y="0px" viewBox="0 0 38 50" style="enable-background:new 0 0 38 40;" xml:space="preserve"><path fill="#fff" d="M19,20.1c5.5,0,10-4.5,10-10S24.5,0,19,0S9,4.5,9,10S13.5,20.1,19,20.1z M19,2c4.4,0,8,3.6,8,8s-3.6,8-8,8s-8-3.6-8-8  S14.6,2,19,2z"/><path fill="#fff" d="M29.4,21.9c0.9,0,1.4-1.1,0.7-1.7c-0.1-0.1-0.1-0.1-0.2-0.2c-1.2-1.1-3.3-1.2-4.6-0.3c-3.7,2.5-8.8,2.5-12.6,0  c-1.5-1-3.4-0.8-4.7,0.4c-3.9,3.6-5.9,7.2-7.1,12.3c-0.6,2.6,0.4,5.2,2.6,6.8C4.2,39.7,5.1,40,6.1,40h16.7c0.6,0,1-0.4,1-1l0,0  c0-0.6-0.4-1-1-1h-0.5H6.1c-0.5,0-1-0.2-1.4-0.4c-1.5-1.1-2.2-2.9-1.8-4.7c1.1-4.8,3-8,6.6-11.3c0.3-0.3,0.8-0.5,1.2-0.5  c0.3,0,0.6,0.1,0.9,0.2c0.8,0.4,1.5,1,2.3,1.3c4.3,1.7,8.9,1.1,12.5-1.3c0.6-0.4,1.7-0.3,2.2,0.1c0.1,0.1,0.3,0.3,0.4,0.4L29.4,21.9  z"/><g><path fill="#fff" d="M35.7,31.8H24.4c-0.6,0-1-0.4-1-1s0.4-1,1-1h11.3c0.6,0,1,0.4,1,1S36.3,31.8,35.7,31.8z"/><path fill="#fff" d="M30.1,37.5c-0.6,0-1-0.4-1-1V25.1c0-0.6,0.4-1,1-1s1,0.4,1,1v11.3C31.1,37,30.6,37.5,30.1,37.5z"/></g></svg>
