<svg xmlns="http://www.w3.org/2000/svg" viewBox="0 0 96 120" x="0px" y="0px"><path fill="#fff" d="M48,52.23A22.89,22.89,0,1,1,70.89,29.33,22.92,22.92,0,0,1,48,52.23Zm0-40.74A17.85,17.85,0,1,0,65.85,29.33,17.87,17.87,0,0,0,48,11.48Z"/><path fill="#fff" d="M67.09,50.37l-1.44-.79-1.3,1a27.13,27.13,0,0,1-2.95,2l4.65,3A34.83,34.83,0,0,1,82.81,85.36v.33h5v-.33A39.87,39.87,0,0,0,67.09,50.37Z"/><path fill="#fff" d="M34.65,52.56a27.13,27.13,0,0,1-3-2l-1.3-1-1.44.79a39.87,39.87,0,0,0-20.76,35v.33h5v-.33A34.83,34.83,0,0,1,30,55.58Z"/></svg>
