<svg xmlns="http://www.w3.org/2000/svg" xmlns:xlink="http://www.w3.org/1999/xlink" version="1.1" x="0px" y="0px" viewBox="0 0 100 125" enable-background="new 0 0 100 100" xml:space="preserve"><path fill="#fff" d="M45.888,31.3c-6.845,0-12.412,5.567-12.412,12.411c0,6.842,5.567,12.409,12.412,12.409  c6.841,0,12.408-5.567,12.408-12.409C58.296,36.867,52.729,31.3,45.888,31.3z M45.888,54.207c-5.789,0-10.498-4.71-10.498-10.496  c0-5.789,4.709-10.498,10.498-10.498c5.786,0,10.495,4.709,10.495,10.498C56.383,49.497,51.674,54.207,45.888,54.207z"/><path fill="#fff" d="M45.888,39.878c-1.742,0-3.161,1.419-3.161,3.161c0,1.741,1.419,3.158,3.161,3.158  c1.741,0,3.158-1.417,3.158-3.158C49.046,41.297,47.629,39.878,45.888,39.878z M45.888,44.282c-0.687,0-1.247-0.557-1.247-1.243  c0-0.688,0.561-1.248,1.247-1.248c0.686,0,1.244,0.561,1.244,1.248C47.132,43.726,46.573,44.282,45.888,44.282z"/><path fill="#fff" d="M88.366,58.624l-4.898-0.599c-0.126-0.919-0.36-1.814-0.7-2.676v-0.002v-0.001l4.242-3.316  c0.237-0.187,0.28-0.531,0.094-0.769l-3.609-4.615c-0.186-0.237-0.53-0.279-0.768-0.094l-4.263,3.335l-0.002-0.002  c-0.616-0.429-1.272-0.802-1.962-1.105c2.371-2.543,3.73-4.377,3.823-4.503l0.21-0.284c0.115-0.156,0.115-0.41,0-0.566  c-0.114-0.158-0.21-0.284-0.21-0.284c-0.156-0.214-3.904-5.267-10.014-10.399c-8.146-6.842-16.594-10.456-24.422-10.456  c-7.832,0-16.276,3.614-24.422,10.456c-6.111,5.133-9.86,10.186-10.017,10.399l-0.208,0.284c-0.118,0.156-0.118,0.41,0,0.566  c0.115,0.158,0.208,0.284,0.208,0.284c0.156,0.214,3.905,5.267,10.017,10.398c8.146,6.842,16.59,10.457,24.422,10.457  c4.298,0,8.786-1.091,13.306-3.209l0.7,0.084v0.003c0.128,0.669,0.317,1.325,0.56,1.959l-4.332,3.389  c-0.239,0.186-0.28,0.53-0.095,0.768l3.608,4.615c0.187,0.237,0.53,0.279,0.769,0.094l4.313-3.372  c0.62,0.44,1.281,0.819,1.975,1.134l-0.71,5.808c-0.037,0.3,0.177,0.572,0.476,0.609l5.682,0.695  c0.301,0.036,0.573-0.178,0.609-0.476l0.699-5.715c0.796-0.121,1.564-0.32,2.303-0.59l0,0l3.363,4.302  c0.187,0.237,0.529,0.28,0.768,0.094l4.614-3.609c0.239-0.187,0.28-0.529,0.095-0.769l-3.294-4.211  c0.444-0.613,0.836-1.269,1.161-1.966l0,0l5.082,0.621c0.301,0.037,0.573-0.176,0.609-0.476l0.695-5.683  C88.88,58.935,88.666,58.66,88.366,58.624z M59.763,58.25c-0.052,0.438-0.082,0.873-0.088,1.308  c-0.005,0.164-0.002,0.331,0.006,0.495l-0.799-0.096l-2.877-0.353c-0.3-0.036-0.514-0.31-0.476-0.61l0.229-1.882  c0.036-0.298,0.31-0.51,0.61-0.475l3.599,0.439C59.88,57.461,59.812,57.852,59.763,58.25z M54.701,54.505  c-0.301-0.036-0.574,0.177-0.61,0.476l-0.694,5.682c-0.038,0.301,0.175,0.571,0.476,0.61l1.496,0.184  c-3.008,1.093-6.194,1.764-9.48,1.764c-15.557,0-28.821-15.032-32.114-19.084c-0.191-0.232-0.191-0.619,0-0.852  C17.066,39.231,30.331,24.2,45.888,24.2c15.555,0,28.822,15.031,32.114,19.084c0.188,0.232,0.188,0.619,0,0.854  c-0.355,0.438-0.829,1.007-1.409,1.668v0.001l0.274-2.24c0.035-0.3-0.177-0.572-0.478-0.609l-5.681-0.695  c-0.3-0.037-0.573,0.177-0.609,0.477l-0.637,5.2h-0.002c-0.806,0.147-1.585,0.378-2.329,0.682l-0.002,0.001l-3.347-4.279  c-0.187-0.238-0.529-0.28-0.769-0.095l-4.613,3.608c-0.239,0.187-0.28,0.529-0.095,0.769l3.423,4.378  c-0.469,0.69-0.867,1.432-1.185,2.22L54.701,54.505z M74.733,45.233l-0.347,2.836l0,0c-0.427-0.104-0.864-0.18-1.308-0.234  c-0.486-0.06-0.979-0.09-1.466-0.09c-0.064,0-0.133,0-0.198,0.002l0.352-2.876c0.037-0.3,0.31-0.514,0.609-0.477l1.882,0.23  C74.558,44.661,74.771,44.934,74.733,45.233z M65.39,49.501l-0.002,0.001c-0.892,0.548-1.706,1.21-2.426,1.967l-1.968-2.517  c-0.187-0.237-0.144-0.582,0.094-0.767l1.599-1.252c0.238-0.186,0.582-0.144,0.768,0.095L65.39,49.501z M60.731,70.147  c-0.237,0.187-0.582,0.145-0.768-0.094l-1.25-1.599c-0.187-0.237-0.144-0.582,0.094-0.769l2.496-1.952l0.002,0.001  c0.27,0.46,0.57,0.905,0.904,1.332c0.314,0.401,0.651,0.781,1.009,1.135h0.001L60.731,70.147z M71.08,75.1  c-0.037,0.3-0.31,0.514-0.61,0.477l-1.881-0.229c-0.299-0.037-0.513-0.31-0.476-0.609l0.427-3.487l0,0  c0.533,0.143,1.077,0.25,1.636,0.317c0.439,0.056,0.885,0.085,1.325,0.088L71.08,75.1z M81.901,70.618  c0.187,0.238,0.144,0.582-0.094,0.768l-1.599,1.251c-0.238,0.186-0.582,0.145-0.768-0.095L77.53,70.1l0.001-0.001  c0.911-0.52,1.747-1.152,2.489-1.886l0,0L81.901,70.618z M81.596,60.923c-0.616,5.027-4.896,8.821-9.955,8.821  c-0.407,0-0.822-0.025-1.232-0.077c-2.661-0.325-5.037-1.668-6.688-3.779c-1.195-1.525-1.909-3.322-2.087-5.203  c-0.07-0.726-0.063-1.463,0.027-2.201l0.003-0.022c0.629-5.021,4.9-8.803,9.95-8.803c0.411,0,0.824,0.027,1.234,0.077l0.024,0.003  c0.763,0.096,1.501,0.273,2.204,0.53c1.75,0.635,3.289,1.747,4.462,3.248C81.189,55.629,81.92,58.259,81.596,60.923z M81.904,53.592  L81.904,53.592c-0.258-0.433-0.545-0.852-0.859-1.253c-0.333-0.427-0.692-0.826-1.074-1.201l2.427-1.897  c0.238-0.186,0.582-0.145,0.769,0.094l1.25,1.599c0.187,0.238,0.145,0.582-0.095,0.768L81.904,53.592z M86.711,60.901l-0.231,1.882  c-0.035,0.3-0.309,0.513-0.608,0.476l-2.729-0.334v-0.001c0.159-0.571,0.279-1.162,0.353-1.77c0.049-0.396,0.076-0.792,0.085-1.188  l2.654,0.325C86.533,60.329,86.747,60.602,86.711,60.901z"/><path fill="#fff" d="M72.448,53.003c-0.066-0.008-0.135-0.014-0.2-0.021c-0.211-0.02-0.418-0.027-0.626-0.027  c-1.214,0-2.359,0.325-3.35,0.896c-0.566,0.323-1.08,0.728-1.529,1.198c-0.927,0.971-1.572,2.226-1.782,3.631  c-0.014,0.066-0.022,0.134-0.03,0.203c-0.451,3.694,2.186,7.065,5.877,7.517c0.275,0.032,0.552,0.052,0.828,0.052  c3.398,0,6.275-2.551,6.691-5.931C78.778,56.829,76.143,53.457,72.448,53.003z M76.427,60.288c-0.298,2.423-2.357,4.249-4.791,4.249  c-0.196,0-0.396-0.014-0.594-0.038c-2.646-0.322-4.536-2.74-4.211-5.385c0.12-0.981,0.53-1.867,1.138-2.57l0.003-0.003  c0.489-0.368,0.979-0.751,1.466-1.148c0.658-0.336,1.402-0.524,2.185-0.524c0.197,0,0.396,0.011,0.593,0.035  C74.859,55.226,76.749,57.644,76.427,60.288z"/></svg>
