<svg xmlns="http://www.w3.org/2000/svg" xmlns:xlink="http://www.w3.org/1999/xlink" version="1.1" x="0px" y="0px" viewBox="0 0 90 112.5" enable-background="new 0 0 90 90" xml:space="preserve"><path fill="#fff" d="M9.136,62.088c0.011,0.01,0.021,0.021,0.032,0.033c0.021,0.022,0.042,0.044,0.064,0.064  c0.352,0.355,0.778,0.544,1.281,0.567c0.032,0.002,0.064,0.002,0.097,0c0.137,0.002,0.272-0.009,0.405-0.032l0.179-0.049  c0.239-0.07,0.462-0.189,0.665-0.356l0.064-0.065c0.023-0.021,0.045-0.042,0.064-0.064l6.485-6.486  c0.379-0.38,0.569-0.84,0.567-1.377c0.002-0.539-0.188-0.998-0.567-1.378c-0.38-0.38-0.839-0.568-1.378-0.568  c-0.538,0-0.997,0.188-1.378,0.568l-3.162,3.16V25.169c0.002-0.537-0.188-0.997-0.567-1.378c-0.379-0.379-0.839-0.568-1.378-0.567  c-0.537-0.001-0.997,0.188-1.378,0.567c-0.379,0.381-0.567,0.841-0.567,1.378v30.596l-3.097-3.405  c-0.364-0.396-0.813-0.607-1.347-0.632c-0.537-0.025-1.008,0.142-1.41,0.503c-0.396,0.362-0.608,0.811-0.632,1.346  c-0.024,0.538,0.143,1.009,0.503,1.41L9.136,62.088z"/><path fill="#fff" d="M85.713,50.171c-1.672-1.806-3.029-2.979-4.069-3.519c-0.359-0.197-0.694-0.343-1.006-0.438  c-0.063-0.586-0.138-1.181-0.227-1.784l-0.016-0.016c-0.16-1.008-0.483-2.272-0.974-3.794v0.017  c-1.797-5.656-4.138-9.91-7.021-12.761c-3.187-3.161-6.241-5.247-9.16-6.259c-4.279-1.516-7.89-0.791-10.831,2.173  c-0.034,0.034-0.065,0.066-0.098,0.098c-0.186,0.204-0.38,0.458-0.583,0.762c-2.023-0.074-3.688,0.444-4.993,1.557  c-0.011-0.014-0.022-0.024-0.034-0.033c-1.433-1.188-2.68-2.465-3.746-3.826c-0.011-0.009-0.021-0.02-0.031-0.031  c-0.878-1.076-1.645-2.211-2.302-3.405c-2.876-5.257-5.983-7.224-9.323-5.902h-0.032c-0.085,0.029-0.192,0.073-0.325,0.13  c-0.016,0.004-0.032,0.01-0.049,0.016c-3.509,1.28-4.908,3.961-4.199,8.043c0.029,0.166,0.063,0.334,0.098,0.502  c-0.828-0.008-1.648,0.171-2.465,0.536c-0.053,0.021-0.107,0.049-0.162,0.081l-0.032,0.016c-0.081,0.025-0.161,0.058-0.243,0.098  c-3.617,1.796-4.816,4.834-3.599,9.111l-0.017-0.031c0.436,1.648,1.128,3.238,2.076,4.767l-0.018-0.017  c1.08,1.785,2.512,3.498,4.297,5.14l0.017,0.016c3.065,2.887,6.589,5.458,10.571,7.719c0.626,0.354,1.221,0.701,1.783,1.037  c0.012,0.005,0.022,0.01,0.033,0.017c1.994,1.244,3.68,2.439,5.058,3.584c-0.364-0.038-0.765-0.086-1.199-0.147h-0.017  c-5.24-0.7-9.602-0.322-13.085,1.135c-4.315,1.746-5.969,4.772-4.961,9.08c0.812,4.568,4.481,6.081,11.01,4.54  c4.546-1.069,8.993-0.437,13.344,1.897c4.351,2.322,8.674,3.241,12.971,2.756c1.701,2.335,4.047,3.74,7.037,4.216l0.016,0.016  c3.822,0.838,8.432-2.486,13.831-9.971c5.546-7.649,6.443-13.352,2.691-17.105L85.713,50.171z M79.893,65.023  c-4.162,5.754-7.528,8.547-10.103,8.381l0.018,0.018c-1.471-0.237-2.697-0.828-3.681-1.769c2.928-1.572,5.263-3.695,7.004-6.371  c0.295-0.456,0.387-0.948,0.276-1.476c-0.111-0.521-0.393-0.925-0.844-1.216c-0.449-0.295-0.936-0.387-1.459-0.275  c-0.52,0.107-0.925,0.383-1.217,0.826c-1.725,2.617-4.156,4.584-7.295,5.902c-3.826,0.609-7.68-0.126-11.561-2.205  c-5.248-2.812-10.615-3.563-16.102-2.254c-3.569,0.842-5.672,0.301-6.307-1.621c-0.462-2.178,0.413-3.712,2.628-4.604  c2.956-1.178,6.652-1.471,11.089-0.876h0.018c2.932,0.41,4.833,0.372,5.706-0.114c1.401-0.614,1.926-1.576,1.573-2.886  c-0.053-0.607-0.512-1.337-1.378-2.188v-0.017c-1.746-1.705-4.151-3.51-7.216-5.415c-0.011-0.003-0.021-0.009-0.032-0.016  c-0.594-0.353-1.221-0.714-1.881-1.087c-3.707-2.104-6.988-4.497-9.842-7.183l-0.017-0.017c-1.494-1.38-2.693-2.817-3.6-4.313  l-0.015-0.016c-0.739-1.197-1.279-2.439-1.621-3.729c-0.007-0.009-0.013-0.021-0.017-0.032c-0.59-2.087-0.064-3.596,1.572-4.523  c0.126-0.05,0.239-0.099,0.34-0.146c0.772-0.244,1.562-0.127,2.367,0.355c0.189,0.301,0.465,0.512,0.827,0.632  c0.851,0.76,1.731,1.799,2.643,3.113l0.017,0.017c0.978,1.392,2.091,2.716,3.34,3.973c0.017,0.017,0.032,0.032,0.048,0.048  c1.501,1.608,3.263,3.067,5.287,4.378l-0.033-0.031c1.651,1.127,3.722,2.407,6.21,3.842c0.468,0.27,0.96,0.335,1.476,0.195  c0.519-0.141,0.914-0.444,1.184-0.909c0.271-0.466,0.334-0.958,0.194-1.475c-0.142-0.519-0.443-0.913-0.908-1.184  c-2.396-1.376-4.391-2.603-5.981-3.681c-0.014-0.01-0.023-0.021-0.034-0.032c-1.758-1.141-3.288-2.411-4.588-3.811  c-0.018-0.014-0.032-0.031-0.049-0.049c-1.104-1.102-2.088-2.264-2.95-3.485c-1.183-1.71-2.33-3.039-3.438-3.99  c-0.486-1.031-0.826-2.096-1.021-3.193c-0.325-1.867,0.27-3.116,1.784-3.745c0.013-0.006,0.029-0.011,0.048-0.016  c0.062-0.022,0.11-0.039,0.146-0.049h-0.031c1.533-0.256,3.117,1.106,4.75,4.086c0.769,1.398,1.665,2.729,2.692,3.988l-0.017-0.033  c1.248,1.603,2.72,3.1,4.41,4.492c0.022,0.016,0.044,0.031,0.064,0.049c0.407,0.308,0.866,0.663,1.378,1.069l0.032,0.032  l0.048,0.033c1.023,0.837,2.938,2.763,5.74,5.771c0.37,0.392,0.824,0.597,1.362,0.616c0.535,0.021,1-0.152,1.394-0.519  c0.394-0.369,0.599-0.823,0.616-1.362c0.021-0.533-0.152-0.998-0.518-1.394c-1.873-2.011-3.375-3.567-4.508-4.671  c0.813-0.337,1.813-0.391,3-0.161c0.034,0.006,0.066,0.012,0.097,0.016c0.033,0.006,0.066,0.012,0.098,0.017  c1.492,0.385,3.702,1.683,6.631,3.892c0.426,0.322,0.901,0.447,1.428,0.372c0.534-0.076,0.967-0.33,1.297-0.761  c0.323-0.426,0.448-0.901,0.373-1.428c-0.077-0.533-0.331-0.967-0.763-1.297c-2.331-1.761-4.303-3.025-5.918-3.793  c1.652-1.073,3.582-1.22,5.788-0.439c2.441,0.892,5.01,2.675,7.702,5.352c2.478,2.51,4.504,6.234,6.08,11.171v0.017  c0.419,1.289,0.699,2.359,0.844,3.21l-0.018-0.016c0.181,1.21,0.295,2.372,0.342,3.486v0.016c-0.001,0.021-0.001,0.043,0,0.065  c-0.025,1.854-0.264,3.633-0.714,5.333l0.016-0.081c-0.12,0.394-0.229,0.799-0.324,1.216c-0.122,0.52-0.041,1.006,0.243,1.46  c0.287,0.459,0.693,0.751,1.216,0.875c0.519,0.123,1.005,0.041,1.46-0.242c0.459-0.289,0.75-0.694,0.876-1.217  c0.076-0.317,0.163-0.625,0.259-0.924c0.006-0.028,0.011-0.056,0.017-0.081c0.359-1.365,0.604-2.771,0.729-4.216  c0.617,0.506,1.343,1.209,2.174,2.107l0.016,0.017C84.89,55.422,83.899,59.486,79.893,65.023z"/></svg>
