<svg xmlns:x="http://ns.adobe.com/Extensibility/1.0/" xmlns:i="http://ns.adobe.com/AdobeIllustrator/10.0/" xmlns:graph="http://ns.adobe.com/Graphs/1.0/" xmlns="http://www.w3.org/2000/svg" xmlns:xlink="http://www.w3.org/1999/xlink" xmlns:a="http://ns.adobe.com/AdobeSVGViewerExtensions/3.0/" version="1.1" x="0px" y="0px" viewBox="0 0 100 125" enable-background="new 0 0 100 100" xml:space="preserve"><path fill="#8492A6" d="M60.696,79.393c0-1.748-0.646-3.344-1.696-4.569c2.864-0.88,4.958-3.553,4.958-6.711c0-2.144-0.962-4.05-2.479-5.341  c2.218-1.18,3.734-3.509,3.734-6.191c0-2.954-1.834-5.476-4.402-6.515l29.963-0.507c3.035-0.09,6.611-2.088,6.611-6.107  c0-3.187-2.92-6.356-6.102-6.443L48.054,36.3c4.641-3.849,8.343-8.733,8.976-14.765c0.86-8.131-6.316-9.478-7.8-6.495  c-3.997,8.032-15.895,15.54-23.388,19.235C14.138,39.031,2.614,39.954,2.614,59.671c0,10.844,3.6,17.838,12.563,21.95  c7.347,3.361,18.283,4.792,33.814,4.792h4.688C57.55,86.413,60.696,83.271,60.696,79.393z"/></svg>
