<svg xmlns="http://www.w3.org/2000/svg" xmlns:xlink="http://www.w3.org/1999/xlink" xmlns:sketch="http://www.bohemiancoding.com/sketch/ns" viewBox="0 0 32 32" version="1.1" x="0px" y="0px"><g stroke="none" stroke-width="1" fill="none" fill-rule="evenodd" sketch:type="MSPage"><g sketch:type="MSArtboardGroup" fill="#265cdc"><g sketch:type="MSLayerGroup" transform="translate(1.000000, 4.000000)"><path d="M16.07254,22.8402763 C8.96400788,23.2128187 3.40686238,18.8598436 3.01679929,11.4169967 C2.82454317,7.7485313 3.90203227,5.67859438 6.19972973,4.52609706 C8.06108414,3.59246416 10.0848982,3.3087131 15.0015844,3.0510235 C15.0184586,3.05013913 15.0184586,3.05013913 15.0353365,3.04925459 C22.859378,2.63921395 26.5322639,4.48263625 26.8302728,10.1689854 C27.1803628,16.8490998 22.350997,22.5112363 16.07254,22.8402763 L16.07254,22.8402763 Z M16.1772119,24.8375354 C23.5834339,24.4493917 29.2342104,17.8242013 28.8275319,10.0643135 C28.4558945,2.97305018 23.7114531,0.591813895 14.9306646,1.05199552 C14.9137855,1.05288012 14.9137855,1.05288012 14.8969056,1.05376479 C9.67741205,1.32732489 7.51050354,1.63113867 5.30303224,2.73837963 C2.2600409,4.26470736 0.787475762,7.09361483 1.01954022,11.5216686 C1.47085795,20.1333237 8.02202915,25.2649304 16.1772119,24.8375354 L16.1772119,24.8375354 Z" sketch:type="MSShapeGroup"></path><path d="M5.99393856,11.9223811 C5.98094356,11.8396856 5.9604906,11.6816629 5.93977069,11.4651154 C5.86756864,10.710519 5.85790619,9.91464005 5.94989358,9.17911398 C6.03939553,8.46346141 6.21972662,7.87433927 6.49458848,7.45669204 C6.81698299,6.96681986 8.1317506,6.54101976 10.0348253,6.28261191 C10.9012208,6.16496891 11.8327162,6.08660555 12.764673,6.0402987 C13.0912036,6.02407414 13.3942955,6.01302882 13.6660021,6.00621205 C13.8282139,6.00214237 13.943292,6.00038753 14.00332,5.99998898 L13.9966807,5.00001102 C13.9306947,5.00044913 13.8094964,5.00229729 13.6409213,5.00652663 C13.3613164,5.01354155 13.0500898,5.02488331 12.7150465,5.04153086 C11.7567924,5.08914435 10.7980769,5.16979766 9.90027556,5.29170506 C7.68931959,5.59191839 6.20924053,6.07125619 5.65925767,6.90694442 C5.28752759,7.47178104 5.06451065,8.2003532 4.95762345,9.0550173 C4.8552091,9.87391672 4.86570958,10.7388221 4.94431711,11.5603634 C4.96706427,11.7980981 4.99007839,11.9759086 5.00606144,12.0776189 L5.99393856,11.9223811 L5.99393856,11.9223811 Z" sketch:type="MSShapeGroup"></path></g></g></g></svg>
