<svg xmlns="http://www.w3.org/2000/svg" width="828" height="856"><clipPath id="mask"><path fill-rule="evenodd" d="M27 1.5C38.956.032 46.81 4.166 100.5 18c40.335 10.576 80.504 21 120.5 31.5C354.866 84.415 488.82 119.823 622.5 155c45.646 11.647 98.39 24.998 144.05 36.997 23.202 6.91 42.56 8.05 54.22 26.343 4.707 7.385 7.194 17.598 7.243 29.107.072 16.942-.404 35.258-.435 51.803-.833 63.994-1.14 129.506-1.973 193.5-.833 86.158-3.08 245.145-3.105 258.5-.042 23.622-.903 43.162-.983 60.197-.094 19.982-3.94 30.95-14.403 38.76-13.283 9.92-30.835 2.554-50.327-3.373-43.33-12.332-85.582-24.1-128.91-36.43-156.985-44.83-313.726-89.038-470.71-133.867-30.997-8.832-80.117-23.18-92.92-26.58-12.802-3.4-33.158-7.035-44.482-15.674-7.426-5.665-12.45-12.044-15.863-24.615-1.57-11.59.016-28.73-.086-39.544-.088-9.376-.036-19.27-.067-28.666a70900.302 70900.302 0 0 0-2.345-391.88C1.072 118.912.788 88.224.455 57.56.694 41.167-1.36 21.596 5 13 10.362 5.75 15.36 2.93 27 1.5z"/></clipPath></svg>
