<svg xmlns="http://www.w3.org/2000/svg" xmlns:xlink="http://www.w3.org/1999/xlink" version="1.1" x="0px" y="0px" viewBox="0 0 100 125" enable-background="new 0 0 100 100" xml:space="preserve"><g><path fill="#fff" d="M68.021,69.189c0,3.895,3.155,7.051,7.049,7.051c1.632,0,3.115-0.576,4.31-1.506c1.195,0.93,2.679,1.506,4.31,1.506   c3.895,0,7.051-3.156,7.051-7.051c0-3.894-3.156-7.052-7.051-7.052c-1.631,0-3.114,0.576-4.31,1.507   c-1.194-0.931-2.678-1.507-4.31-1.507C71.177,62.138,68.021,65.296,68.021,69.189 M45.143,71.853c0,0.865,0.701,1.568,1.567,1.568   h7.521c0.865,0,1.567-0.703,1.567-1.568s-0.702-1.567-1.567-1.567H46.71C45.844,70.285,45.143,70.987,45.143,71.853 M26.339,71.853   c0,0.865,0.702,1.568,1.567,1.568h12.691c0.866,0,1.568-0.703,1.568-1.568s-0.702-1.567-1.568-1.567H27.906   C27.041,70.285,26.339,70.987,26.339,71.853 M10.043,71.853c0,0.865,0.702,1.568,1.568,1.568h10.183   c0.866,0,1.567-0.703,1.567-1.568s-0.701-1.567-1.567-1.567H11.611C10.745,70.285,10.043,70.987,10.043,71.853 M96.021,25.946   v5.819H3.978v-5.819c0-6.971,6.801-7.086,7.088-7.089h77.868C95.904,18.857,96.02,25.659,96.021,25.946 M3.978,74.434V43.518   h92.043v30.916c0,6.971-6.801,7.086-7.092,7.088H11.066C4.096,81.521,3.98,74.721,3.978,74.434 M98,74.434V25.946   c0-3.137-1.895-9.066-9.066-9.066H11.066C7.93,16.88,2,18.775,2,25.946v48.487C2,77.57,3.895,83.5,11.066,83.5h77.868   C92.068,83.5,98,81.605,98,74.434"/></g></svg>
