<svg xmlns="http://www.w3.org/2000/svg" viewBox="0 0 50 50" enable-background="new 0 0 50 50">
    <path fill="#fff" d="M 9 3 C 5.7 3 3 5.7 3 9 C 3 12.3 5.7 15 9 15 C 12.3 15 15 12.3 15 9 C 15 5.7 12.3 3 9 3 z M 25 3 C 21.7 3 19 5.7 19 9 C 19 12.3 21.7 15 25 15 C 28.3 15 31 12.3 31 9 C 31 5.7 28.3 3 25 3 z M 41 3 C 37.7 3 35 5.7 35 9 C 35 12.3 37.7 15 41 15 C 44.3 15 47 12.3 47 9 C 47 5.7 44.3 3 41 3 z M 25 19 C 21.7 19 19 21.7 19 25 C 19 28.3 21.7 31 25 31 C 28.3 31 31 28.3 31 25 C 31 21.7 28.3 19 25 19 z M 41 19 C 37.7 19 35 21.7 35 25 C 35 28.3 37.7 31 41 31 C 44.3 31 47 28.3 47 25 C 47 21.7 44.3 19 41 19 z M 41 35 C 37.7 35 35 37.7 35 41 C 35 44.3 37.7 47 41 47 C 44.3 47 47 44.3 47 41 C 47 37.7 44.3 35 41 35 z"></path>
</svg>
