<svg xmlns="http://www.w3.org/2000/svg" xmlns:xlink="http://www.w3.org/1999/xlink" version="1.1" x="0px" y="0px" viewBox="0 0 100 125" enable-background="new 0 0 100 100" xml:space="preserve"><path fill="#fff" d="M53.176,53.795c0,4.045-3.303,7.35-7.366,7.35c-4.059,0-7.35-3.305-7.35-7.35c0-4.075,3.291-7.377,7.35-7.377  C49.873,46.417,53.176,49.72,53.176,53.795L53.176,53.795z M58.541,53.795c0-7.038-5.676-12.742-12.731-12.742  c-7.021,0-12.742,5.705-12.742,12.742c0,7.009,5.721,12.729,12.742,12.729C52.865,66.523,58.541,60.804,58.541,53.795L58.541,53.795  z"/><path fill="#fff" d="M98.414,49.957c0,26.11-21.158,47.285-47.283,47.285c-26.096,0-47.27-21.175-47.27-47.285  c0-26.092,21.174-47.267,47.27-47.267C77.256,2.689,98.414,23.865,98.414,49.957L98.414,49.957z M59.711,44.55h5.867v-5.23h-5.867  V44.55z M33.853,34.533h-9.098c-2.312,0-4.18,1.867-4.18,4.193v30.731c0,2.342,1.867,4.209,4.18,4.209h42.096  c2.328,0,4.209-1.867,4.209-4.209V38.726c0-2.326-1.881-4.193-4.209-4.193h-9.068l-2.992-5.201c-0.74-1.319-2.135-2.12-3.645-2.12  H40.478c-1.496,0-2.875,0.801-3.646,2.12L33.853,34.533z M60.969,29.288c-0.398,0.355-0.443,0.978-0.088,1.393  c0.371,0.4,0.979,0.444,1.379,0.089c2.074-1.793,3.199-4.49,3.023-7.216c2.844,1.926,6.549,2.015,9.482,0.251  c-0.119,3.408,1.719,6.594,4.771,8.135c-4.416,2.446-6.018,8.002-3.557,12.418c0.061,0.148,0.162,0.296,0.252,0.43  c0.281,0.459,0.889,0.607,1.35,0.311c0.473-0.296,0.592-0.889,0.324-1.349c-0.398-0.607-0.695-1.274-0.873-1.97  c-1.006-3.824,1.26-7.75,5.082-8.772c0.621-0.163,0.992-0.8,0.83-1.407c-0.121-0.43-0.445-0.756-0.875-0.83  c-0.162-0.06-0.355-0.089-0.52-0.148c-3.586-1.082-5.6-4.831-4.518-8.401c0.178-0.623-0.164-1.275-0.787-1.453  c-0.4-0.133-0.844,0-1.154,0.296c-0.193,0.208-0.4,0.371-0.623,0.563c-2.979,2.326-7.275,1.823-9.631-1.141  c-0.385-0.519-1.127-0.593-1.629-0.193c-0.402,0.311-0.549,0.859-0.357,1.333C63.918,24.323,63.148,27.376,60.969,29.288z"/></svg>
