<svg xmlns="http://www.w3.org/2000/svg" xmlns:xlink="http://www.w3.org/1999/xlink" version="1.1" x="0px" y="0px" viewBox="0 0 100 125" style="enable-background:new 0 0 100 100;" xml:space="preserve"><g><path fill="#fff" d="M54.5,56.7c-0.8,0-1.5,0.7-1.5,1.5v9.3c0,2.7-2.8,3-4,3H31.4c-1.2,0-4-0.3-4-3v-35c0-2.7,2.8-3,4-3H49c1.2,0,4,0.3,4,3v9.3   c0,0.8,0.7,1.5,1.5,1.5s1.5-0.7,1.5-1.5v-9.3c0-3.3-2.7-6-6-6H30.4c-3.3,0-6,2.7-6,6v35c0,3.3,2.7,6,6,6H50c3.3,0,6-2.7,6-6v-9.3   C56,57.4,55.3,56.7,54.5,56.7z"/><path fill="#fff" d="M62.5,37.4c-0.6-0.6-1.5-0.6-2.1,0s-0.6,1.5,0,2.1l9.1,9.1H42.8c-0.8,0-1.5,0.7-1.5,1.5s0.7,1.5,1.5,1.5h26.7l-8.9,8.9   c-0.6,0.6-0.6,1.5,0,2.1c0.3,0.3,0.7,0.4,1.1,0.4c0.4,0,0.8-0.1,1.1-0.4l12.5-12.5L62.5,37.4z"/></g></svg>
