<svg xmlns="http://www.w3.org/2000/svg" xmlns:xlink="http://www.w3.org/1999/xlink" version="1.1" x="0px" y="0px" viewBox="0 0 100 125" style="enable-background:new 0 0 100 100;" xml:space="preserve"><g><path fill="#fff" d="M54.5,56.2c-1.1,0-2,0.9-2,2v9.3c0,2.2-2.2,2.5-3.5,2.5H31.5c-1.3,0-3.5-0.3-3.5-2.5v-35c0-2.2,2.2-2.5,3.5-2.5H49   c1.3,0,3.5,0.3,3.5,2.5v9.3c0,1.1,0.9,2,2,2s2-0.9,2-2v-9.3c0-3.6-2.9-6.5-6.5-6.5H30.5c-3.6,0-6.5,2.9-6.5,6.5v35   c0,3.6,2.9,6.5,6.5,6.5H50c3.6,0,6.5-2.9,6.5-6.5v-9.3C56.5,57.1,55.7,56.2,54.5,56.2z"/><path fill="#fff" d="M63,37c-0.8-0.8-2.1-0.8-2.8,0c-0.8,0.8-0.8,2,0,2.8l8.2,8.2H42.8c-1.1,0-2,0.9-2,2s0.9,2,2,2h25.5l-8,8   c-0.8,0.8-0.8,2,0,2.8c0.4,0.4,0.9,0.6,1.4,0.6s1-0.2,1.4-0.6L76,50.1L63,37z"/></g></svg>
