<svg xmlns="http://www.w3.org/2000/svg" xmlns:xlink="http://www.w3.org/1999/xlink" version="1.1" x="0px" y="0px" viewBox="0 0 100 125" style="enable-background:new 0 0 100 100;" xml:space="preserve"><g><path fill="#fff" d="M65.9,41.9c3-0.9,5.9-2.1,8.4-3.4L72,29.9c-2.5,1.3-5.4,2.5-8.4,3.4L65.9,41.9z"/><path fill="#fff" d="M65.2,42.1c-2.8,0.7-5.7,0.5-8.6,0l2.3,8.7c2.9,0.6,5.8,0.8,8.6,0c0.2-0.1,0.5-0.1,0.7-0.2l-2.3-8.7   C65.7,42,65.4,42.1,65.2,42.1z"/><path fill="#fff" d="M62.9,33.5c0.2-0.1,0.5-0.1,0.7-0.2l-2.3-8.7c-0.2,0.1-0.5,0.1-0.7,0.2c-2.8,0.7-5.7,0.5-8.6,0l2.3,8.7   C57.2,34,60.1,34.2,62.9,33.5z"/><path fill="#fff" d="M54.3,33.4c-3.3-0.7-6.7-1.8-10-2.6l2.3,8.7c3.3,0.8,6.7,1.9,10,2.6L54.3,33.4z"/><path fill="#fff" d="M44.3,30.9L42,22.2c-3.2-0.7-6.4-1.1-9.4-0.4l2.3,8.7C37.9,29.7,41.1,30.1,44.3,30.9z"/><path fill="#fff" d="M49,48.2l-2.3-8.7c-3.2-0.7-6.4-1.1-9.4-0.4l2.3,8.7C42.6,47.1,45.8,47.5,49,48.2z"/><path fill="#fff" d="M34.4,30.5c-2.9,0.8-5.5,2.1-7.8,3.6l2.3,8.7c2.3-1.5,5-2.9,7.8-3.6c0.2,0,0.3-0.1,0.5-0.1l-2.3-8.7   C34.7,30.5,34.5,30.5,34.4,30.5z"/><path fill="#fff" d="M88.4,50.7L76.5,6.1c-0.1-0.5-0.5-0.9-1-1c-0.5-0.2-1-0.1-1.4,0.2c-0.1,0.1-7.8,5.9-16.6,8.2c-4.2,1.1-8.7-0.1-13.5-1.5   c-4.9-1.4-10-2.8-15-1.5c-9.5,2.6-16.9,11.2-17.2,11.5c-0.3,0.4-0.4,0.9-0.3,1.4l18.9,70.4c0.2,0.7,0.8,1.1,1.4,1.1   c0.1,0,0.3,0,0.4-0.1c0.8-0.2,1.3-1,1.1-1.8L14.7,23.5c1.1-1.2,3.8-3.9,7.3-6.3l2.2,8.2c2.3-1.5,5-2.9,7.8-3.6   c0.2,0,0.3-0.1,0.5-0.1l-2.2-8.3c3-0.7,6.2-0.2,9.5,0.6l2.2,8.1c3.3,0.8,6.7,1.9,10,2.6l-2.2-8.2c2.9,0.5,5.7,0.6,8.6-0.1   c0.2-0.1,0.5-0.1,0.7-0.2l2.2,8.3c3-0.9,5.9-2.1,8.4-3.4l-2.2-8.3c2.9-1.4,5.2-2.9,6.7-3.9l2.2,8.2c-1.4,0.9-3.8,2.5-6.7,4l2.3,8.7   c3-1.5,5.3-3,6.7-4l2.3,8.7c-1.4,0.9-3.8,2.5-6.7,4l2.3,8.7c3-1.5,5.3-3,6.7-4l1.9,7.2c-1.2,0.8-3.6,2.4-6.7,4l-1.9-7.2   c-2.5,1.3-5.4,2.5-8.4,3.4l1.9,7.2c-0.2,0.1-0.5,0.1-0.7,0.2c-2.7,0.7-5.6,0.4-8.6-0.2L59,50.8c-3.3-0.7-6.7-1.8-10-2.6l1.9,7.1   c-3.1-0.7-6.3-1-9.4-0.2l-1.9-7.2c-0.2,0-0.3,0.1-0.5,0.1c-2.9,0.8-5.5,2.1-7.8,3.6l1.9,7.2c-1,0.6-1.9,1.3-2.9,2   c-0.7,0.5-0.8,1.4-0.3,2.1c0.5,0.7,1.4,0.8,2.1,0.3c3.3-2.5,6.6-4.2,9.7-5.1c4.2-1.1,8.7,0.1,13.5,1.5c4.9,1.4,10.1,2.8,15,1.5   c9.4-2.5,17.3-8.5,17.6-8.7C88.4,51.9,88.6,51.2,88.4,50.7z"/></g></svg>
