<svg xmlns="http://www.w3.org/2000/svg" xmlns:xlink="http://www.w3.org/1999/xlink" version="1.1" x="0px" y="0px" viewBox="0 0 27 33.75" style="enable-background:new 0 0 27 27;" xml:space="preserve"><g><path fill="#fff" d="M12,2.162C12,0.968,11.032,0,9.838,0H2.162C0.968,0,0,0.968,0,2.162v7.676C0,11.032,0.968,12,2.162,12h7.676   C11.032,12,12,11.032,12,9.838V2.162z"/><path fill="#fff" d="M27,2.162C27,0.968,26.032,0,24.838,0h-7.676C15.968,0,15,0.968,15,2.162v7.676C15,11.032,15.968,12,17.162,12h7.676   C26.032,12,27,11.032,27,9.838V2.162z"/><path fill="#fff" d="M12,17.162C12,15.968,11.032,15,9.838,15H2.162C0.968,15,0,15.968,0,17.162v7.676C0,26.032,0.968,27,2.162,27h7.676   C11.032,27,12,26.032,12,24.838V17.162z"/><path fill="#fff" d="M27,17.162C27,15.968,26.032,15,24.838,15h-7.676C15.968,15,15,15.968,15,17.162v7.676C15,26.032,15.968,27,17.162,27   h7.676C26.032,27,27,26.032,27,24.838V17.162z"/></g></svg>
