<svg xmlns="http://www.w3.org/2000/svg" xmlns:xlink="http://www.w3.org/1999/xlink" viewBox="0 0 100 125" version="1.1" x="0px" y="0px"><g stroke="none" stroke-width="1" fill="none" fill-rule="evenodd"><g><path d="M25.9803922,16.3777778 C25.4351616,16.3777778 25,16.8204332 25,17.3664763 L25,20.3335237 C25,20.8834358 25.4389365,21.3222222 25.9803922,21.3222222 L25.9803922,23.3 C25.4322529,23.3 25,23.740703 25,24.2843376 L25,32.2045513 C25,32.7382874 25.4371266,33.1888889 25.9763497,33.1888889 L25.9803922,34.1777778 C25.4351616,34.1777778 25,34.6184807 25,35.1621154 L25,43.0823291 C25,43.6160652 25.4389365,44.0666667 25.9803922,44.0666667 L25.9803922,89.5562792 C25.9803922,92.2777832 28.1710321,94.5 30.8733234,94.5 L69.1266766,94.5 C71.8306318,94.5 74.0196078,92.2866208 74.0196078,89.5562792 L74.0196078,33.1888889 C74.5677471,33.1888889 75,32.7481859 75,32.2045513 L75,24.2843376 C75,23.7506015 74.5628734,23.3 74.0236503,23.3 L74.0196078,10.4437208 C74.0196078,7.72221681 71.8289679,5.5 69.1266766,5.5 L30.8733234,5.5 C28.1693682,5.5 25.9803922,7.71337918 25.9803922,10.4437208 L25.9803922,16.3777778 L25.9803922,16.3777778 Z" stroke="#fff" stroke-width="0.5"/><rect stroke="#fff" stroke-width="0.5" x="46.5" y="86" width="7" height="7" rx="3.5"/><rect stroke="#fff" stroke-width="0.5" x="27.5" y="15.5" width="45" height="69"/><rect fill="#fff" x="28.7828947" y="71.8947368" width="10.1842105" height="10.1052632" rx="0.925665132"/><rect fill="#fff" x="28.7828947" y="20" width="10.1842105" height="10.1052632" rx="0.925665132"/><rect fill="#fff" x="39.5328947" y="71.8947368" width="10.1842105" height="10.1052632" rx="0.925665132"/><rect fill="#fff" x="39.5328947" y="20" width="10.1842105" height="10.1052632" rx="0.925665132"/><rect fill="#fff" x="50.2828947" y="71.8947368" width="10.1842105" height="10.1052632" rx="0.925665132"/><rect fill="#fff" x="50.2828947" y="20" width="10.1842105" height="10.1052632" rx="0.925665132"/><rect fill="#fff" x="61.0328947" y="71.8947368" width="10.1842105" height="10.1052632" rx="0.925665132"/><rect fill="#fff" x="61.0328947" y="20" width="10.1842105" height="10.1052632" rx="0.925665132"/><rect fill="#fff" x="28.7828947" y="32.3508772" width="10.1842105" height="10.1052632" rx="0.925665132"/><rect fill="#fff" x="39.5328947" y="32.3508772" width="10.1842105" height="10.1052632" rx="0.925665132"/><rect fill="#fff" x="50.2828947" y="32.3508772" width="10.1842105" height="10.1052632" rx="0.925665132"/><rect fill="#fff" x="61.0328947" y="32.3508772" width="10.1842105" height="10.1052632" rx="0.925665132"/><rect fill="#fff" x="28.7828947" y="44.7017544" width="10.1842105" height="10.1052632" rx="0.925665132"/><rect fill="#FFF45F" x="39.5328947" y="44.7017544" width="10.1842105" height="10.1052632" rx="0.925665132"/><rect fill="#FFF45F" x="45.5" y="10.5" width="9" height="1" rx="0.5"/></g></g></svg>
