<svg xmlns="http://www.w3.org/2000/svg" xmlns:xlink="http://www.w3.org/1999/xlink" version="1.1" x="0px" y="0px" viewBox="0 0 100 125" enable-background="new 0 0 100 100" xml:space="preserve"><path fill="#fff" d="M93.3,30.6l-3.2-1.1l-1.3-9.3c-0.7-5.3-5.1-9.2-10.4-9.4c-0.6,0-1.2,0-1.8,0.1l-28.4,3.9l-20.1-7c-3.2-1.1-6.7,0.6-7.8,3.8  l-2.6,7.5l-3.9,0.5c-2.9,0.4-5.4,1.9-7.2,4.2c-1.7,2.3-2.5,5.2-2.1,8L7,49.8L2.9,61.6c-1.1,3.2,0.6,6.7,3.8,7.8l3.2,1.1l1.3,9.3  c0.7,5.3,5.1,9.2,10.4,9.4c0.6,0,1.2,0,1.8-0.1l28.4-3.9l20.1,7c3.2,1.1,6.7-0.6,7.8-3.8l2.6-7.5l3.9-0.5c5.9-0.8,10.1-6.3,9.3-12.2  L93,50.2l4.1-11.8C98.2,35.2,96.5,31.7,93.3,30.6z M71.1,47.2c-1.3-1-3.2-0.7-4.2,0.6L58.4,59L38.6,44c-1.3-1-3.2-0.7-4.2,0.6  L18.7,65.4l-4.8-34.7c-0.1-0.5,0.1-0.9,0.3-1.1c0.2-0.2,0.5-0.5,1-0.6l62.8-8.7c0.1,0,0.2,0,0.3,0c0.6,0,1.3,0.5,1.4,1.2l5,35.8  L71.1,47.2z M63.9,34.6c0.5,3.9-2.2,7.5-6.1,8.1c-3.9,0.5-7.5-2.2-8.1-6.1s2.2-7.5,6.1-8.1C59.8,28,63.4,30.7,63.9,34.6z"/></svg>
