<svg xmlns="http://www.w3.org/2000/svg" viewBox="0 0 50 50">
    <path fill="#fff" d="M 15 7 C 7.8324839 7 2 12.832484 2 20 C 2 34.761905 18.678418 42.033447 24.359375 46.767578 L 25 47.300781 L 25.640625 46.767578 C 31.321582 42.033447 48 34.761905 48 20 C 48 12.832484 42.167516 7 35 7 C 30.944572 7 27.383806 8.9253789 25 11.84375 C 22.616194 8.9253789 19.055428 7 15 7 z M 15 9 C 16.097798 9 17.149883 9.1760024 18.148438 9.4746094 A 1 1 0 0 0 18 10 A 1 1 0 0 0 19 11 A 1 1 0 0 0 19.978516 10.207031 C 21.672163 11.071455 23.119395 12.349276 24.166016 13.925781 L 24.884766 15.007812 A 1 1 0 0 0 24 16 A 1 1 0 0 0 25 17 A 1 1 0 0 0 26 16 A 1 1 0 0 0 25.115234 15.007812 L 25.833984 13.925781 C 27.021544 12.136982 28.719995 10.726335 30.716797 9.8789062 A 1 1 0 0 0 30.5 10.5 A 1 1 0 0 0 31.5 11.5 A 1 1 0 0 0 32.5 10.5 A 1 1 0 0 0 31.705078 9.5214844 C 32.746612 9.1938802 33.848017 9 35 9 C 35.520977 9 36.029807 9.0475343 36.53125 9.1171875 A 1 1 0 0 0 36 10 A 1 1 0 0 0 37 11 A 1 1 0 0 0 38 10 A 1 1 0 0 0 37.773438 9.3652344 C 41.883309 10.430257 45.048437 13.794052 45.814453 18.017578 A 1 1 0 0 0 45 19 A 1 1 0 0 0 46 20 C 46 21.224246 45.867821 22.391471 45.626953 23.507812 A 1 1 0 0 0 45.5 23.5 A 1 1 0 0 0 44.5 24.5 A 1 1 0 0 0 45.091797 25.412109 C 44.791078 26.285288 44.422282 27.123819 43.996094 27.931641 A 1 1 0 0 0 43 27 A 1 1 0 0 0 42 28 A 1 1 0 0 0 43 29 A 1 1 0 0 0 43.455078 28.888672 C 40.720471 33.438759 36.203526 36.949382 31.990234 39.878906 A 1 1 0 0 0 31 39 A 1 1 0 0 0 30 40 A 1 1 0 0 0 30.533203 40.882812 C 29.865845 41.33706 29.22636 41.77313 28.597656 42.201172 A 1 1 0 0 0 28 42 A 1 1 0 0 0 27 43 A 1 1 0 0 0 27.041016 43.279297 C 26.311063 43.792204 25.613082 44.293757 25 44.777344 C 24.386918 44.293757 23.688937 43.792204 22.958984 43.279297 A 1 1 0 0 0 23 43 A 1 1 0 0 0 22 42 A 1 1 0 0 0 21.400391 42.199219 C 20.77236 41.771645 20.133382 41.336533 19.466797 40.882812 A 1 1 0 0 0 20 40 A 1 1 0 0 0 19 39 A 1 1 0 0 0 18.007812 39.876953 C 13.795865 36.948233 9.2811413 33.438793 6.546875 28.890625 A 1 1 0 0 0 7 29 A 1 1 0 0 0 8 28 A 1 1 0 0 0 7 27 A 1 1 0 0 0 6.0019531 27.927734 C 5.5769111 27.12164 5.2083326 26.285221 4.9082031 25.414062 A 1 1 0 0 0 5 25 A 1 1 0 0 0 4.53125 24.152344 C 4.1925157 22.842209 4 21.463129 4 20 A 1 1 0 0 0 5 19 A 1 1 0 0 0 4.1855469 18.017578 C 4.9518198 13.792636 8.1185874 10.427111 12.230469 9.3632812 A 1 1 0 0 0 12 10 A 1 1 0 0 0 13 11 A 1 1 0 0 0 14 10 A 1 1 0 0 0 13.46875 9.1171875 C 13.970193 9.0475343 14.479023 9 15 9 z M 10 12 A 1 1 0 0 0 9 13 A 1 1 0 0 0 10 14 A 1 1 0 0 0 11 13 A 1 1 0 0 0 10 12 z M 16 12 A 1 1 0 0 0 15 13 A 1 1 0 0 0 16 14 A 1 1 0 0 0 17 13 A 1 1 0 0 0 16 12 z M 22 12 A 1 1 0 0 0 21 13 A 1 1 0 0 0 22 14 A 1 1 0 0 0 23 13 A 1 1 0 0 0 22 12 z M 34 12 A 1 1 0 0 0 33 13 A 1 1 0 0 0 34 14 A 1 1 0 0 0 35 13 A 1 1 0 0 0 34 12 z M 40 12 A 1 1 0 0 0 39 13 A 1 1 0 0 0 40 14 A 1 1 0 0 0 41 13 A 1 1 0 0 0 40 12 z M 28.5 12.5 A 1 1 0 0 0 27.5 13.5 A 1 1 0 0 0 28.5 14.5 A 1 1 0 0 0 29.5 13.5 A 1 1 0 0 0 28.5 12.5 z M 7 15 A 1 1 0 0 0 6 16 A 1 1 0 0 0 7 17 A 1 1 0 0 0 8 16 A 1 1 0 0 0 7 15 z M 13 15 A 1 1 0 0 0 12 16 A 1 1 0 0 0 13 17 A 1 1 0 0 0 14 16 A 1 1 0 0 0 13 15 z M 19 15 A 1 1 0 0 0 18 16 A 1 1 0 0 0 19 17 A 1 1 0 0 0 20 16 A 1 1 0 0 0 19 15 z M 31 15 A 1 1 0 0 0 30 16 A 1 1 0 0 0 31 17 A 1 1 0 0 0 32 16 A 1 1 0 0 0 31 15 z M 37 15 A 1 1 0 0 0 36 16 A 1 1 0 0 0 37 17 A 1 1 0 0 0 38 16 A 1 1 0 0 0 37 15 z M 43 15 A 1 1 0 0 0 42 16 A 1 1 0 0 0 43 17 A 1 1 0 0 0 44 16 A 1 1 0 0 0 43 15 z M 10 18 A 1 1 0 0 0 9 19 A 1 1 0 0 0 10 20 A 1 1 0 0 0 11 19 A 1 1 0 0 0 10 18 z M 16 18 A 1 1 0 0 0 15 19 A 1 1 0 0 0 16 20 A 1 1 0 0 0 17 19 A 1 1 0 0 0 16 18 z M 22 18 A 1 1 0 0 0 21 19 A 1 1 0 0 0 22 20 A 1 1 0 0 0 23 19 A 1 1 0 0 0 22 18 z M 28 18 A 1 1 0 0 0 27 19 A 1 1 0 0 0 28 20 A 1 1 0 0 0 29 19 A 1 1 0 0 0 28 18 z M 34 18 A 1 1 0 0 0 33 19 A 1 1 0 0 0 34 20 A 1 1 0 0 0 35 19 A 1 1 0 0 0 34 18 z M 40 18 A 1 1 0 0 0 39 19 A 1 1 0 0 0 40 20 A 1 1 0 0 0 41 19 A 1 1 0 0 0 40 18 z M 7 21 A 1 1 0 0 0 6 22 A 1 1 0 0 0 7 23 A 1 1 0 0 0 8 22 A 1 1 0 0 0 7 21 z M 13 21 A 1 1 0 0 0 12 22 A 1 1 0 0 0 13 23 A 1 1 0 0 0 14 22 A 1 1 0 0 0 13 21 z M 19 21 A 1 1 0 0 0 18 22 A 1 1 0 0 0 19 23 A 1 1 0 0 0 20 22 A 1 1 0 0 0 19 21 z M 25 21 A 1 1 0 0 0 24 22 A 1 1 0 0 0 25 23 A 1 1 0 0 0 26 22 A 1 1 0 0 0 25 21 z M 31 21 A 1 1 0 0 0 30 22 A 1 1 0 0 0 31 23 A 1 1 0 0 0 32 22 A 1 1 0 0 0 31 21 z M 37 21 A 1 1 0 0 0 36 22 A 1 1 0 0 0 37 23 A 1 1 0 0 0 38 22 A 1 1 0 0 0 37 21 z M 43 21 A 1 1 0 0 0 42 22 A 1 1 0 0 0 43 23 A 1 1 0 0 0 44 22 A 1 1 0 0 0 43 21 z M 10 24 A 1 1 0 0 0 9 25 A 1 1 0 0 0 10 26 A 1 1 0 0 0 11 25 A 1 1 0 0 0 10 24 z M 16 24 A 1 1 0 0 0 15 25 A 1 1 0 0 0 16 26 A 1 1 0 0 0 17 25 A 1 1 0 0 0 16 24 z M 22 24 A 1 1 0 0 0 21 25 A 1 1 0 0 0 22 26 A 1 1 0 0 0 23 25 A 1 1 0 0 0 22 24 z M 28 24 A 1 1 0 0 0 27 25 A 1 1 0 0 0 28 26 A 1 1 0 0 0 29 25 A 1 1 0 0 0 28 24 z M 34 24 A 1 1 0 0 0 33 25 A 1 1 0 0 0 34 26 A 1 1 0 0 0 35 25 A 1 1 0 0 0 34 24 z M 40 24 A 1 1 0 0 0 39 25 A 1 1 0 0 0 40 26 A 1 1 0 0 0 41 25 A 1 1 0 0 0 40 24 z M 13 27 A 1 1 0 0 0 12 28 A 1 1 0 0 0 13 29 A 1 1 0 0 0 14 28 A 1 1 0 0 0 13 27 z M 19 27 A 1 1 0 0 0 18 28 A 1 1 0 0 0 19 29 A 1 1 0 0 0 20 28 A 1 1 0 0 0 19 27 z M 25 27 A 1 1 0 0 0 24 28 A 1 1 0 0 0 25 29 A 1 1 0 0 0 26 28 A 1 1 0 0 0 25 27 z M 31 27 A 1 1 0 0 0 30 28 A 1 1 0 0 0 31 29 A 1 1 0 0 0 32 28 A 1 1 0 0 0 31 27 z M 37 27 A 1 1 0 0 0 36 28 A 1 1 0 0 0 37 29 A 1 1 0 0 0 38 28 A 1 1 0 0 0 37 27 z M 10 30 A 1 1 0 0 0 9 31 A 1 1 0 0 0 10 32 A 1 1 0 0 0 11 31 A 1 1 0 0 0 10 30 z M 16 30 A 1 1 0 0 0 15 31 A 1 1 0 0 0 16 32 A 1 1 0 0 0 17 31 A 1 1 0 0 0 16 30 z M 22 30 A 1 1 0 0 0 21 31 A 1 1 0 0 0 22 32 A 1 1 0 0 0 23 31 A 1 1 0 0 0 22 30 z M 28 30 A 1 1 0 0 0 27 31 A 1 1 0 0 0 28 32 A 1 1 0 0 0 29 31 A 1 1 0 0 0 28 30 z M 34 30 A 1 1 0 0 0 33 31 A 1 1 0 0 0 34 32 A 1 1 0 0 0 35 31 A 1 1 0 0 0 34 30 z M 40 30 A 1 1 0 0 0 39 31 A 1 1 0 0 0 40 32 A 1 1 0 0 0 41 31 A 1 1 0 0 0 40 30 z M 13 33 A 1 1 0 0 0 12 34 A 1 1 0 0 0 13 35 A 1 1 0 0 0 14 34 A 1 1 0 0 0 13 33 z M 19 33 A 1 1 0 0 0 18 34 A 1 1 0 0 0 19 35 A 1 1 0 0 0 20 34 A 1 1 0 0 0 19 33 z M 25 33 A 1 1 0 0 0 24 34 A 1 1 0 0 0 25 35 A 1 1 0 0 0 26 34 A 1 1 0 0 0 25 33 z M 31 33 A 1 1 0 0 0 30 34 A 1 1 0 0 0 31 35 A 1 1 0 0 0 32 34 A 1 1 0 0 0 31 33 z M 37 33 A 1 1 0 0 0 36 34 A 1 1 0 0 0 37 35 A 1 1 0 0 0 38 34 A 1 1 0 0 0 37 33 z M 16 36 A 1 1 0 0 0 15 37 A 1 1 0 0 0 16 38 A 1 1 0 0 0 17 37 A 1 1 0 0 0 16 36 z M 22 36 A 1 1 0 0 0 21 37 A 1 1 0 0 0 22 38 A 1 1 0 0 0 23 37 A 1 1 0 0 0 22 36 z M 28 36 A 1 1 0 0 0 27 37 A 1 1 0 0 0 28 38 A 1 1 0 0 0 29 37 A 1 1 0 0 0 28 36 z M 34 36 A 1 1 0 0 0 33 37 A 1 1 0 0 0 34 38 A 1 1 0 0 0 35 37 A 1 1 0 0 0 34 36 z M 25 39 A 1 1 0 0 0 24 40 A 1 1 0 0 0 25 41 A 1 1 0 0 0 26 40 A 1 1 0 0 0 25 39 z"></path>
</svg>
