<svg xmlns="http://www.w3.org/2000/svg" xmlns:xlink="http://www.w3.org/1999/xlink" version="1.1" baseProfile="tiny" x="0px" y="0px" viewBox="0 0 100 125" xml:space="preserve"><g><g><path fill="#fff"  d="M62.059,35.853c0.836,0,1.651,0.075,2.438,0.218c-1.112-0.938-2.549-1.501-4.115-1.501c-2.541,0-4.733,1.484-5.763,3.632    l0.062-0.043C56.707,36.721,59.217,35.854,62.059,35.853z"/><path fill="#fff"  d="M55.955,41.672c0.455-1.004,1.679-1.894,3.327-2.206c-0.565,0.378-0.943,1.023-0.943,1.757    c0,1.164,0.945,2.106,2.108,2.106c1.168,0,2.107-0.943,2.107-2.106c0-0.768-0.41-1.44-1.025-1.809    c1.785,0.252,3.08,1.184,3.57,2.257c0.408,0.912,1.773,0.294,1.362-0.618c-0.883-1.951-3.224-3.206-5.896-3.206    c-2.659,0-5.096,1.247-5.979,3.206C54.176,41.967,55.543,42.584,55.955,41.672z"/><path fill="#fff"  d="M20.688,40.744c-0.924,0.229-0.582,1.616,0.343,1.386c0.639-0.157,1.823,0.591,2.743,2.286    c-0.232,0.283-0.298,0.773-0.14,1.324c0.246,0.854,0.943,1.562,1.555,1.516c1.34-0.104,0.485-2.099,0.404-2.29    C24.602,42.453,22.667,40.255,20.688,40.744z"/><path fill="#fff"  d="M72.139,47.256c0.611,0.047,1.312-0.661,1.553-1.516c0.158-0.551,0.095-1.04-0.14-1.324    c0.921-1.695,2.104-2.443,2.741-2.286c0.928,0.229,1.27-1.158,0.344-1.387c-1.977-0.488-3.912,1.708-4.902,4.222    C71.65,45.157,70.797,47.151,72.139,47.256z"/><path fill="#fff"  d="M58.766,54.592c-0.727,0.201-0.422,1.284,0.301,1.083c0.836-0.237,1.748,0.835,1.834,1.603    c0.08,0.748,1.201,0.625,1.117-0.117C61.859,55.71,60.309,54.157,58.766,54.592z"/><path fill="#fff"  d="M54.568,52.574c0.998-0.025,0.961-1.527-0.039-1.499c-2.729,0.069-3.396,2.178-5.897,2.178    c-2.694,0-3.333-1.733-5.698-2.167c-0.985-0.179-1.254,1.295-0.271,1.477c0.902,0.164,1.498,0.56,2.115,0.965    c-0.043,0.264,0.061,0.541,0.38,0.689c1.051,0.485,2.173,0.629,3.508,0.639c1.181-0.01,2.305-0.15,3.354-0.639    c0.375-0.174,0.451-0.525,0.35-0.814l0.324-0.229C53.273,52.794,53.864,52.592,54.568,52.574z"/><path fill="#fff"  d="M38.029,55.675c0.722,0.201,1.026-0.882,0.304-1.083c-1.546-0.435-3.099,1.118-3.254,2.565    c-0.083,0.745,1.034,0.868,1.118,0.12C36.281,56.51,37.193,55.438,38.029,55.675z"/><path fill="#fff"  d="M55.18,60.866c0.483-0.31,0.959-0.666,1.428-1.083c0.435-0.385,0.734-0.852,1.172-1.03    c0.152-0.063,0.277-0.128,0.38-0.194c0.409-0.19,0.771-0.408,1.086-0.647c0.729-0.562-0.106-1.655-0.843-1.099    c-1.327,1.021-4.021,1.625-9.859,1.625s-8.525-0.604-9.857-1.625c-0.731-0.56-1.569,0.537-0.839,1.099    c0.323,0.248,0.69,0.466,1.114,0.663c0.095,0.062,0.216,0.119,0.36,0.182c0.435,0.182,0.74,0.646,1.169,1.03    c0.469,0.417,0.944,0.772,1.429,1.083c1.711,1.131,3.883,2.27,6.632,2.271C51.296,63.135,53.467,61.997,55.18,60.866z     M43.575,60.22l-0.229-0.112c-0.161-0.08-0.314-0.164-0.458-0.248c-0.204-0.123-0.399-0.252-0.586-0.394    c1.637,0.239,3.681,0.351,6.24,0.351c2.567,0,4.618-0.108,6.256-0.353c-0.188,0.142-0.386,0.272-0.59,0.396    c-0.146,0.084-0.295,0.168-0.457,0.248l-0.229,0.112c-1.123,0.517-2.681,0.915-4.974,0.915    C46.256,61.135,44.697,60.736,43.575,60.22z"/><path fill="#fff"  d="M38.903,41.224c0-0.734-0.374-1.379-0.942-1.757c1.648,0.312,2.875,1.202,3.33,2.206c0.411,0.912,1.779,0.294,1.365-0.618    c-0.886-1.959-3.318-3.206-5.979-3.206c-2.674,0-5.015,1.255-5.899,3.206c-0.411,0.912,0.955,1.53,1.369,0.618    c0.483-1.074,1.785-2.005,3.565-2.257c-0.614,0.369-1.022,1.041-1.022,1.809c0,1.164,0.943,2.106,2.107,2.106    C37.959,43.331,38.903,42.388,38.903,41.224z"/><path fill="#fff"  d="M42.561,38.159l0.058,0.039c-1.029-2.147-3.222-3.628-5.763-3.628c-1.567,0-3.004,0.565-4.115,1.502    c0.788-0.146,1.605-0.219,2.443-0.219C38.025,35.853,40.537,36.721,42.561,38.159z"/><path fill="#fff"  d="M46.595,41.608c0.224-2.405,1.175-2.871,2.035-2.89c0.839,0.019,1.786,0.485,2.013,2.89    c0.353,5.077,4.578,9.091,9.737,9.091c5.222,0,9.485-4.104,9.738-9.264h1.809v-2.95h-2.116c-1.092-4.188-4.896-7.276-9.431-7.276    c-4.056,0-7.536,2.479-9.001,6.005c-0.721-0.646-1.643-1-2.734-1.017h-0.052c-1.091,0.017-2.012,0.372-2.732,1.017    c-1.469-3.526-4.948-6.005-9.004-6.005c-4.528,0-8.335,3.088-9.429,7.276h-2.117v2.95h1.812c0.251,5.159,4.513,9.264,9.734,9.264    C42.02,50.699,46.246,46.685,46.595,41.608z M68.566,39.407h2.139v1.047h-2.139V39.407z M60.38,33.729    c3.99,0,7.228,3.234,7.228,7.225c0,3.991-3.234,7.226-7.228,7.226c-3.989,0-7.224-3.234-7.224-7.226    C53.156,36.963,56.391,33.729,60.38,33.729z M28.668,40.454h-2.135v-1.047h2.135V40.454z M29.631,40.954    c0-3.991,3.235-7.225,7.225-7.225c3.991,0,7.227,3.234,7.227,7.225c0,3.991-3.236,7.226-7.227,7.226    C32.867,48.18,29.631,44.945,29.631,40.954z"/></g></g><path fill="#fff"  d="M79.775,39.793c-0.371-2.376-2.025-3.83-4.381-3.395c-0.287,0.054-0.57,0.136-0.854,0.244  c0.812-2.425,1.418-4.648,1.835-6.69c0.799-3.95,0.896-7.249,0.407-10.024c-0.866-4.896-3.554-8.009-7.155-10.032  c-3.423-1.921-7.664-2.84-11.926-3.427c-4.936-0.68-9.995-0.917-14.013-1.72c-2.957-0.591-5.132-1.459-6.306-2.874  c-0.505-0.608-1.157-0.402-1.261,0.381c-0.296,2.25-3.198,3.893-5.021,4.483c-2.918,1-5.674,2.459-7.698,4.833  c-2.498,2.929-3.794,7.139-3.125,13.299c0.367,3.365,1.323,7.326,2.997,11.999c-1.048-0.529-2.172-0.708-3.323-0.354  c-3.384,1.1-2.938,6.399-0.987,10.143c2.475,4.713,4.518,7.104,7.456,6.45c0.961,7.02,3.389,11.566,6.369,14.521  c0.204,1.044,0.46,2.182,0.772,3.407c0.578,2.274,1.346,4.875,2.319,7.842l0.033,0.084l0.023,0.052l-4.285,7.979  c-0.094,0.145-0.14,0.318-0.108,0.499c0.027,0.174,0.129,0.323,0.266,0.433l6.425,5.891c0.049,0.056,0.104,0.104,0.165,0.146  c0.186,0.132,0.384,0.154,0.561,0.108c0.178-0.036,0.347-0.146,0.456-0.346c0.039-0.062,0.067-0.127,0.086-0.197  c0.236-0.592,0.47-1.16,0.711-1.717l6.735,6.732c0.919,0.922,2.431,0.95,3.383,0.021l6.774-6.772  c0.248,0.556,0.492,1.136,0.74,1.729c0.021,0.063,0.049,0.129,0.086,0.189c0.11,0.195,0.277,0.305,0.459,0.337  c0.176,0.046,0.375,0.021,0.56-0.112c0.06-0.039,0.112-0.086,0.157-0.142l6.398-5.877c0.137-0.104,0.237-0.258,0.268-0.435  c0.031-0.18-0.017-0.354-0.106-0.502l-2.013-3.736l-2.266-4.225l0.029-0.059l0.031-0.084c0.975-2.967,1.74-5.564,2.316-7.842  c0.313-1.241,0.572-2.385,0.779-3.438c2.969-2.955,5.38-7.5,6.339-14.494c2.023,0.448,3.644-0.552,5.25-2.771  C78.189,47.515,80.328,43.358,79.775,39.793z M21.698,24.707c-0.639-5.872,0.616-9.655,2.792-12.208  c1.795-2.105,4.28-3.45,7.068-4.406c2.299-0.745,4.582-2.162,5.607-4.437c1.547,1.268,3.766,1.997,6.252,2.494  c4.034,0.807,9.123,1.05,14.106,1.736c4.209,0.581,8.229,1.473,11.414,3.26c3.271,1.832,5.654,4.607,6.438,9.043  c0.449,2.54,0.373,5.649-0.402,9.479c-0.361,1.791-0.88,3.73-1.561,5.828c0.372-4.366,0.434-7.791,0.236-10.453  c-0.785-10.496-5.844-9.716-11.756-7.388c-4.162,1.641-8.664,3.901-13.231,3.901c-2.647,0-5.29-0.71-7.846-1.636  c-2.984-1.078-5.763-2.411-8.152-3.152c-2.403-0.744-4.757-1.015-6.497,0.556c-2.126,1.919-2.963,6.322-2.536,14.475  c0.037,0.659,0.078,1.348,0.131,2.062C22.644,30.357,21.983,27.331,21.698,24.707z M38.524,92.145l-5.371-4.926l3.782-7.035  c1.185,1.032,3.63,2.407,8.438,2.854c-1.286,0.729-2.351,1.646-3.263,2.723C40.593,87.546,39.513,89.75,38.524,92.145z   M45.057,94.633l-4.208-4.208c0.688-1.409,1.439-2.669,2.35-3.745c0.437-0.514,0.913-0.99,1.437-1.418  c0.022,0.066,0.05,0.131,0.09,0.192l1.338,3.573c0.216,0.505,0.455,0.855,0.713,1.102L45.057,94.633z M52.264,94.615l-1.721-4.502  c0.251-0.248,0.482-0.596,0.693-1.086l1.34-3.573c0.039-0.063,0.074-0.134,0.098-0.204c0.574,0.467,1.087,0.988,1.557,1.561  c0.858,1.043,1.57,2.256,2.237,3.604L52.264,94.615z M62.398,83.921l1.771,3.292l-5.354,4.917c-0.98-2.305-2.026-4.462-3.485-6.235  c-0.938-1.144-2.052-2.113-3.401-2.875c2.944-0.287,6.479-1.026,8.48-2.812L62.398,83.921z M62.29,71.04  c-0.563,2.166-1.299,4.626-2.207,7.39c-1.917,2.887-8.844,3.314-11.42,3.319c-2.567-0.005-9.496-0.435-11.411-3.319  c-0.907-2.766-1.644-5.226-2.21-7.39l-0.001-0.004c-0.169-0.644-0.32-1.263-0.459-1.853c1.008,0.754,2.055,1.36,3.109,1.854  c2.067,0.963,4.166,1.479,6.079,1.761c0.818,1.172,2.342,1.946,4.871,2.042c2.524-0.096,4.068-0.865,4.896-2.042  c1.91-0.276,4.018-0.798,6.088-1.761v-0.002c1.061-0.497,2.117-1.111,3.131-1.877C62.617,69.764,62.461,70.389,62.29,71.04z   M74.984,49.502c-1.57,2.162-2.74,2.571-4.137,2.114L70.787,51.6c-0.377-0.338-1.124-0.229-1.202,0.445  C68.02,65.54,61.098,69.682,55.238,71.036h-0.016c-0.347,0.078-0.688,0.147-1.023,0.21c0.01-0.072,0.01-0.143,0.002-0.206  c-0.088-0.709-1.217-0.874-1.408-0.044c-0.005,0.012-0.006,0.023-0.008,0.04h-0.001c-0.276,1.151-1.161,2.262-4.144,2.376  c-2.977-0.114-3.837-1.221-4.113-2.372v-0.004c-0.002-0.015-0.006-0.027-0.01-0.04c-0.19-0.83-1.32-0.665-1.409,0.044l0,0  c-0.009,0.063-0.008,0.134,0.002,0.206c-0.334-0.062-0.678-0.132-1.023-0.206l-0.001-0.004c-5.863-1.351-12.797-5.484-14.362-18.991  c-0.079-0.674-0.826-0.783-1.204-0.445l-0.06,0.02c-1.934,0.628-3.509-0.436-6.237-5.631c-2.063-3.95-1.561-7.549,0.206-8.122  c1.172-0.36,2.668,0.212,4.038,1.741v-1.96h1.061c-0.223-2.179-0.378-4.146-0.472-5.92c-0.435-8.274,0.518-11.941,2.066-13.34  c1.116-1.007,2.751-0.984,5.117-0.251c2.373,0.736,5.129,2.062,8.1,3.138c2.609,0.943,5.431,1.715,8.321,1.715  c4.859,0,9.344-2.262,13.761-4.002c5.57-2.196,9.13-2.845,9.802,6.183c0.229,3.042,0.102,7.109-0.445,12.478h0.988v2.042  c0.938-1.071,1.957-1.71,2.887-1.883c1.568-0.291,2.468,0.649,2.713,2.216C78.852,43.15,76.788,47.013,74.984,49.502z"/></svg>
