<svg xmlns="http://www.w3.org/2000/svg" viewBox="0 0 64 64">
    <path fill="#fff" d="M 35.134766 2.3867188 C 34.917172 2.3772656 34.697766 2.3904375 34.478516 2.4296875 L 5.3046875 7.578125 C 3.3896875 7.916125 2 9.5725781 2 11.517578 L 2 50.484375 C 2 52.428375 3.3896875 54.084875 5.3046875 54.421875 L 34.478516 59.570312 C 34.652516 59.601312 34.827953 59.615234 35.001953 59.615234 C 35.701953 59.615234 36.382734 59.372062 36.927734 58.914062 C 37.608734 58.343063 38 57.504234 38 56.615234 L 38 52 L 57 52 C 58.654 52 60 50.654 60 49 L 60 13 C 60 11.346 58.654 10 57 10 L 38 10 L 38 5.3847656 C 38 4.4957656 37.608734 3.6569375 36.927734 3.0859375 C 36.416984 2.6569375 35.787547 2.4150781 35.134766 2.3867188 z M 35.103516 4.3886719 C 35.358562 4.4146406 35.542078 4.5343906 35.642578 4.6191406 C 35.776578 4.7291406 36 4.9797656 36 5.3847656 L 36 56.615234 C 36 57.020234 35.775578 57.270813 35.642578 57.382812 C 35.508578 57.494813 35.229172 57.670563 34.826172 57.601562 L 5.6523438 52.453125 C 4.6953438 52.284125 4 51.455422 4 50.482422 L 4 11.517578 C 4 10.544578 4.6953437 9.715875 5.6523438 9.546875 L 34.824219 4.3984375 C 34.924969 4.3816875 35.0185 4.3800156 35.103516 4.3886719 z M 38 12 L 57 12 C 57.551 12 58 12.448 58 13 L 58 49 C 58 49.552 57.551 50 57 50 L 38 50 L 38 44 L 51 44 C 51.552 44 52 43.553 52 43 C 52 42.447 51.552 42 51 42 L 38 42 L 38 38 L 43.375 38 C 43.927 38 44.375 37.553 44.375 37 C 44.375 36.447 43.927 36 43.375 36 L 38 36 L 38 32 L 51 32 C 51.552 32 52 31.553 52 31 C 52 30.447 51.552 30 51 30 L 38 30 L 38 26 L 51 26 C 51.552 26 52 25.553 52 25 C 52 24.447 51.552 24 51 24 L 38 24 L 38 20 L 51 20 C 51.552 20 52 19.553 52 19 C 52 18.447 51.552 18 51 18 L 38 18 L 38 12 z M 10.154297 20.011719 C 10.025922 19.991656 9.8918125 19.996047 9.7578125 20.029297 C 9.2218125 20.162297 8.8962969 20.707187 9.0292969 21.242188 L 14.029297 41.242188 C 14.139297 41.682187 14.532328 41.994 14.986328 42 C 15.438328 41.986 15.840891 41.704578 15.962891 41.267578 L 20 26.736328 L 24.037109 41.267578 C 24.157109 41.701578 24.551 42 25 42 L 25.013672 42 C 25.467672 41.994 25.860703 41.683187 25.970703 41.242188 L 30.970703 21.242188 C 31.104703 20.707188 30.777187 20.163297 30.242188 20.029297 C 29.709187 19.895297 29.163297 20.219812 29.029297 20.757812 L 24.949219 37.080078 L 20.962891 22.732422 C 20.842891 22.300422 20.449 22 20 22 C 19.551 22 19.157109 22.300422 19.037109 22.732422 L 15.050781 37.080078 L 10.970703 20.757812 C 10.870203 20.355063 10.539422 20.071906 10.154297 20.011719 z M 47 36 C 46.448 36 46 36.447 46 37 C 46 37.553 46.448 38 47 38 L 51 38 C 51.552 38 52 37.553 52 37 C 52 36.447 51.552 36 51 36 L 47 36 z"></path>
</svg>
