<svg xmlns="http://www.w3.org/2000/svg" xmlns:xlink="http://www.w3.org/1999/xlink" version="1.1" x="0px" y="0px" viewBox="0 0 512 640" enable-background="new 0 0 512 512" xml:space="preserve"><path fill="#1f2d3d" d="M435.167,369.015c-1.333-29.333-93.333-62.083-93.333-62.083l-18.5-13.761c-2.5-3.75-18-22.755-18-22.755  l1.499-14.502c6.5-8,10.249-30.25,10.249-30.25c12.75,5.75,20.248-41.499,20.248-41.499c-1-15.5-10.504-11.997-10.504-11.997  l-4.491,3.758c0,0,10.279-28.434-6.101-61.985C300.478,81.668,259,79.236,256,79.098V79.09c0,0-0.439,0.001-0.5,0.003  c-0.061-0.002-0.5-0.003-0.5-0.003v0.008c-3,0.138-43.978,2.57-59.733,34.842c-16.379,33.552-5.826,61.985-5.826,61.985  l-4.378-3.758c0,0-9.448-3.503-10.448,11.997c0,0,7.526,47.248,20.276,41.498c0,0,3.763,22.249,10.263,30.249l1.506,14.5  c0,0-15.496,19-17.996,22.75l-18.498,13.75c0,0-91.999,32.771-93.333,62.105L64.833,433h191h0.333h191L435.167,369.015z"/></svg>
