<svg xmlns="http://www.w3.org/2000/svg" xmlns:xlink="http://www.w3.org/1999/xlink" version="1.1" x="0px" y="0px" viewBox="0 0 512 640" enable-background="new 0 0 512 512" xml:space="preserve"><g><path fill="#1f2d3d" d="M454.31,388.383c-34.757-28.107-72.597-51.543-112.259-71.94c-6.385-3.284-22.307-18.716-22.149-21.12   c10.216-2.6,20.94-4.735,31.304-8.052c10.42-3.334,20.703-7.276,30.645-11.842c10.007-4.596,10.787-11.863,3.459-20.189   c-14.57-16.555-21.155-36.806-23.871-57.969c-2.758-21.49-3.405-43.259-4.634-64.928c-1.248-21.998-3.143-43.814-11.773-64.451   c-7.509-17.956-19.603-29.883-40.092-31.103c-1.923-0.115-4.422-0.141-5.621-1.293C288.86,25.434,275.842,22,262.014,20   c-4.009,0-8.018,0-12.028,0c-16.877,3-32.675,8.75-46.808,18.774c-29.096,20.638-44.655,49.375-49.214,84.078   c-2.206,16.792-1.794,33.905-3.212,50.821c-2.29,27.305-6.935,54.01-23.342,77.093c-0.145,0.204-0.295,0.403-0.447,0.601   c-12.26,16.033-11.594,20.119,7.72,27.557c15.281,5.885,31.316,9.816,47.03,14.571c2.572,0.778,5.212,1.209,7.433,1.769   c0.199,2.462-11.325,16.717-16.896,19.795c-19.248,10.635-39.21,20.302-57.399,32.532c-23.995,16.134-46.613,34.211-69.566,51.851   C36.804,405.961,34,415.745,32,426.145C32,448.167,32,469,32,492c148,0,300,0,448,0c0-23,0-43.833,0-65.855   C478,408.692,466.768,398.457,454.31,388.383z"/></g></svg>
