<svg xmlns="http://www.w3.org/2000/svg" xmlns:xlink="http://www.w3.org/1999/xlink" version="1.1" x="0px" y="0px" viewBox="0 0 128 160" enable-background="new 0 0 128 128" xml:space="preserve"><g><path fill="#fff" d="M125.9,47c-1-1-2.3-1.6-3.7-1.6c0,0,0,0,0,0c-1.4,0-2.8,0.6-3.8,1.6l-3.7,3.7c0,0,0,0,0,0c0,0,0,0,0,0l-3,3c0,0,0,0,0,0   c0,0,0,0,0,0l-7.5,7.6V17.5c0-3.6-3-6.6-6.6-6.6H20.9c-3.6,0-6.6,3-6.6,6.6v101.3c0,3.6,3,6.6,6.6,6.6h63.3c0.1,0,0.2,0,0.3-0.1   c0,0,0,0,0,0c0.1,0,0.2-0.1,0.2-0.2l19.3-19.3c0.1-0.1,0.1-0.1,0.1-0.2c0,0,0,0,0-0.1c0-0.1,0-0.1,0-0.2c0,0,0,0,0,0V76.5   c0,0,0-0.1,0-0.1l18.1-18.2c0,0,0,0,0,0c0,0,0,0,0,0l3.7-3.7C128,52.5,128,49.1,125.9,47z M84.9,122.9v-12.3c0-2.5,2-4.5,4.5-4.5   h12.3L84.9,122.9z M102.7,104.6H89.4c-3.3,0-5.9,2.7-5.9,6v13.3H20.9c-2.8,0-5.1-2.3-5.1-5.1V17.5c0-2.8,2.3-5.1,5.1-5.1h76.7   c2.8,0,5.1,2.3,5.1,5.1v45.2c0,0,0,0.1,0,0.1L80.3,85.2c0,0,0,0.1-0.1,0.1c-0.1,0.1-0.3,0.2-0.3,0.4l-4,10.5   c-0.1,0.3,0,0.6,0.2,0.8c0.1,0.1,0.3,0.2,0.5,0.2c0.1,0,0.2,0,0.3,0l10.5-4c0.1-0.1,0.3-0.2,0.3-0.3c0.1,0,0.1-0.1,0.1-0.1   l14.9-14.9V104.6z M81,86.9l5.1,5.1l-8.2,3.1L81,86.9z M87.3,91.2l-5.4-5.4l30.4-30.4l5.4,5.4L87.3,91.2z M118.7,59.7l-5.4-5.4l2-2   l5.4,5.4L118.7,59.7z M124.9,53.5l-3.1,3.2l-5.4-5.4l3.2-3.2c0.7-0.7,1.7-1.1,2.7-1.1c1.1,0,2,0.4,2.7,1.1   C126.4,49.6,126.4,52,124.9,53.5z"/><path fill="#fff" d="M103,68.9l-2.1,2.1c-0.3,0.3-0.3,0.8,0,1c0.1,0.1,0.3,0.2,0.5,0.2c0.2,0,0.4-0.1,0.5-0.2l2.1-2.1c0.3-0.3,0.3-0.8,0-1   C103.8,68.7,103.3,68.7,103,68.9z"/><path fill="#fff" d="M108.6,63.4l-2.1,2.1c-0.3,0.3-0.3,0.8,0,1c0.1,0.1,0.3,0.2,0.5,0.2c0.2,0,0.4-0.1,0.5-0.2l2.1-2.1c0.3-0.3,0.3-0.8,0-1   C109.3,63.1,108.9,63.1,108.6,63.4z"/><path fill="#fff" d="M91.9,80.1l-2.1,2.1c-0.3,0.3-0.3,0.8,0,1c0.1,0.1,0.3,0.2,0.5,0.2c0.2,0,0.4-0.1,0.5-0.2l2.1-2.1c0.3-0.3,0.3-0.8,0-1   C92.7,79.8,92.2,79.8,91.9,80.1z"/><path fill="#fff" d="M97.5,74.5l-2.1,2.1c-0.3,0.3-0.3,0.8,0,1c0.1,0.1,0.3,0.2,0.5,0.2c0.2,0,0.4-0.1,0.5-0.2l2.1-2.1c0.3-0.3,0.3-0.8,0-1   C98.2,74.2,97.8,74.2,97.5,74.5z"/><path fill="#fff" d="M22.3,70.8h66.6c0.4,0,0.7-0.3,0.7-0.7c0-0.4-0.3-0.7-0.7-0.7H22.3c-0.4,0-0.7,0.3-0.7,0.7C21.6,70.5,21.9,70.8,22.3,70.8z   "/><path fill="#fff" d="M22.3,79.8h56.6c0.4,0,0.7-0.3,0.7-0.7c0-0.4-0.3-0.7-0.7-0.7H22.3c-0.4,0-0.7,0.3-0.7,0.7C21.6,79.5,21.9,79.8,22.3,79.8z   "/><path fill="#fff" d="M22.3,88.8h42c0.4,0,0.7-0.3,0.7-0.7c0-0.4-0.3-0.7-0.7-0.7h-42c-0.4,0-0.7,0.3-0.7,0.7C21.6,88.5,21.9,88.8,22.3,88.8z"/><path fill="#fff" d="M22.3,97.8h45c0.4,0,0.7-0.3,0.7-0.7c0-0.4-0.3-0.7-0.7-0.7h-45c-0.4,0-0.7,0.3-0.7,0.7C21.6,97.4,21.9,97.8,22.3,97.8z"/><path fill="#fff" d="M22.3,106.8h34.6c0.4,0,0.7-0.3,0.7-0.7s-0.3-0.7-0.7-0.7H22.3c-0.4,0-0.7,0.3-0.7,0.7S21.9,106.8,22.3,106.8z"/><path fill="#fff" d="M75.4,114.3H22.3c-0.4,0-0.7,0.3-0.7,0.7c0,0.4,0.3,0.7,0.7,0.7h53.1c0.4,0,0.7-0.3,0.7-0.7   C76.1,114.6,75.8,114.3,75.4,114.3z"/><path fill="#fff" d="M65.4,31.4h31.1c0.4,0,0.7-0.3,0.7-0.7s-0.3-0.7-0.7-0.7H65.4c-0.4,0-0.7,0.3-0.7,0.7S65,31.4,65.4,31.4z"/><path fill="#fff" d="M65.4,38.6h31.1c0.4,0,0.7-0.3,0.7-0.7s-0.3-0.7-0.7-0.7H65.4c-0.4,0-0.7,0.3-0.7,0.7S65,38.6,65.4,38.6z"/><path fill="#fff" d="M65.4,45.8h21.6c0.4,0,0.7-0.3,0.7-0.7s-0.3-0.7-0.7-0.7H65.4c-0.4,0-0.7,0.3-0.7,0.7S65,45.8,65.4,45.8z"/><path fill="#fff" d="M6.2,51.9c0.4,0,0.7-0.3,0.7-0.7V41c0-0.4-0.3-0.7-0.7-0.7c-0.4,0-0.7,0.3-0.7,0.7v10.1C5.5,51.6,5.8,51.9,6.2,51.9z"/><path fill="#fff" d="M6.2,58.5c0.4,0,0.7-0.3,0.7-0.7v-3.3c0-0.4-0.3-0.7-0.7-0.7c-0.4,0-0.7,0.3-0.7,0.7v3.3C5.5,58.2,5.8,58.5,6.2,58.5z"/><path fill="#fff" d="M117.9,30c0.4,0,0.7-0.3,0.7-0.7V19.1c0-0.4-0.3-0.7-0.7-0.7c-0.4,0-0.7,0.3-0.7,0.7v10.1C117.1,29.6,117.5,30,117.9,30z"/><path fill="#fff" d="M117.9,36.6c0.4,0,0.7-0.3,0.7-0.7v-3.3c0-0.4-0.3-0.7-0.7-0.7c-0.4,0-0.7,0.3-0.7,0.7v3.3   C117.1,36.2,117.5,36.6,117.9,36.6z"/><path fill="#fff" d="M107.5,3.6c0.1,0.1,0.3,0.2,0.5,0.2c0.2,0,0.4-0.1,0.5-0.2c0.3-0.3,0.3-0.8,0-1L107,1c-0.3-0.3-0.8-0.3-1,0   c-0.3,0.3-0.3,0.8,0,1L107.5,3.6z"/><path fill="#fff" d="M112.5,8.6c0.1,0.1,0.3,0.2,0.5,0.2c0.2,0,0.4-0.1,0.5-0.2c0.3-0.3,0.3-0.8,0-1L112,6c-0.3-0.3-0.8-0.3-1,0s-0.3,0.8,0,1   L112.5,8.6z"/><path fill="#fff" d="M106.5,8.8c0.2,0,0.4-0.1,0.5-0.2l1.5-1.5c0.3-0.3,0.3-0.8,0-1c-0.3-0.3-0.8-0.3-1,0l-1.5,1.5c-0.3,0.3-0.3,0.8,0,1   C106.1,8.7,106.3,8.8,106.5,8.8z"/><path fill="#fff" d="M111.4,3.8c0.2,0,0.4-0.1,0.5-0.2l1.5-1.5c0.3-0.3,0.3-0.8,0-1c-0.3-0.3-0.8-0.3-1,0l-1.5,1.5c-0.3,0.3-0.3,0.8,0,1   C111.1,3.7,111.2,3.8,111.4,3.8z"/><path fill="#fff" d="M1.8,100.9c-0.3-0.3-0.8-0.3-1,0c-0.3,0.3-0.3,0.8,0,1l1.5,1.5c0.1,0.1,0.3,0.2,0.5,0.2s0.4-0.1,0.5-0.2   c0.3-0.3,0.3-0.8,0-1L1.8,100.9z"/><path fill="#fff" d="M6.7,105.8c-0.3-0.3-0.8-0.3-1,0c-0.3,0.3-0.3,0.8,0,1l1.5,1.5c0.1,0.1,0.3,0.2,0.5,0.2c0.2,0,0.4-0.1,0.5-0.2   c0.3-0.3,0.3-0.8,0-1L6.7,105.8z"/><path fill="#fff" d="M2.3,105.8l-1.5,1.5c-0.3,0.3-0.3,0.8,0,1c0.1,0.1,0.3,0.2,0.5,0.2c0.2,0,0.4-0.1,0.5-0.2l1.5-1.5c0.3-0.3,0.3-0.8,0-1   C3,105.6,2.5,105.6,2.3,105.8z"/><path fill="#fff" d="M7.2,100.9l-1.5,1.5c-0.3,0.3-0.3,0.8,0,1c0.1,0.1,0.3,0.2,0.5,0.2s0.4-0.1,0.5-0.2l1.5-1.5c0.3-0.3,0.3-0.8,0-1   C8,100.6,7.5,100.6,7.2,100.9z"/><path fill="#fff" d="M9.3,2.6c-2.1,0-3.9,1.7-3.9,3.9c0,2.1,1.7,3.9,3.9,3.9c2.1,0,3.9-1.7,3.9-3.9C13.2,4.3,11.5,2.6,9.3,2.6z M9.3,8.8   C8,8.8,6.9,7.8,6.9,6.5c0-1.3,1.1-2.4,2.4-2.4c1.3,0,2.4,1.1,2.4,2.4C11.7,7.8,10.7,8.8,9.3,8.8z"/><path fill="#fff" d="M121.7,91.2c0-2.1-1.7-3.9-3.9-3.9c-2.1,0-3.9,1.7-3.9,3.9c0,2.1,1.7,3.9,3.9,3.9C120,95.1,121.7,93.3,121.7,91.2z    M115.5,91.2c0-1.3,1.1-2.4,2.4-2.4c1.3,0,2.4,1.1,2.4,2.4c0,1.3-1.1,2.4-2.4,2.4C116.5,93.6,115.5,92.5,115.5,91.2z"/><path fill="#fff" d="M46,5.4c0,0.4,0.3,0.7,0.7,0.7h12.1c0.4,0,0.7-0.3,0.7-0.7s-0.3-0.7-0.7-0.7H46.7C46.3,4.7,46,5,46,5.4z"/><path fill="#fff" d="M38.8,6.1h3.9c0.4,0,0.7-0.3,0.7-0.7s-0.3-0.7-0.7-0.7h-3.9c-0.4,0-0.7,0.3-0.7,0.7S38.4,6.1,38.8,6.1z"/><path fill="#fff" d="M38.8,2h8.5C47.7,2,48,1.6,48,1.2s-0.3-0.7-0.7-0.7h-8.5c-0.4,0-0.7,0.3-0.7,0.7S38.4,2,38.8,2z"/><path fill="#fff" d="M50.9,2h2.7c0.4,0,0.7-0.3,0.7-0.7s-0.3-0.7-0.7-0.7h-2.7c-0.4,0-0.7,0.3-0.7,0.7S50.5,2,50.9,2z"/><path fill="#fff" d="M121.3,126h-12.1c-0.4,0-0.7,0.3-0.7,0.7c0,0.4,0.3,0.7,0.7,0.7h12.1c0.4,0,0.7-0.3,0.7-0.7C122,126.4,121.7,126,121.3,126   z"/><path fill="#fff" d="M105.2,126h-3.9c-0.4,0-0.7,0.3-0.7,0.7c0,0.4,0.3,0.7,0.7,0.7h3.9c0.4,0,0.7-0.3,0.7-0.7C105.9,126.4,105.6,126,105.2,126   z"/><path fill="#fff" d="M101.3,123.3h8.5c0.4,0,0.7-0.3,0.7-0.7c0-0.4-0.3-0.7-0.7-0.7h-8.5c-0.4,0-0.7,0.3-0.7,0.7   C100.5,123,100.8,123.3,101.3,123.3z"/><path fill="#fff" d="M112.6,122.6c0,0.4,0.3,0.7,0.7,0.7h2.7c0.4,0,0.7-0.3,0.7-0.7c0-0.4-0.3-0.7-0.7-0.7h-2.7   C112.9,121.9,112.6,122.2,112.6,122.6z"/><path fill="#fff" d="M41.4,39.3c3.4,0,6.1-2.9,6.1-6.5c0-3.6-2.7-6.5-6.1-6.5c-3.4,0-6.1,2.9-6.1,6.5C35.3,36.4,38,39.3,41.4,39.3z M41.4,27.8   c2.6,0,4.6,2.3,4.6,5c0,2.8-2.1,5-4.6,5c-2.6,0-4.6-2.3-4.6-5C36.7,30,38.8,27.8,41.4,27.8z"/><path fill="#fff" d="M31.4,52.9c2.9,2.1,6.4,3.2,10,3.2c9.6,0,17.5-7.8,17.5-17.5S51,21.1,41.4,21.1S23.9,29,23.9,38.6   C23.9,44.3,26.7,49.7,31.4,52.9z M50.4,47.9L50.1,52c-2.5,1.6-5.5,2.6-8.7,2.6c-3.1,0-6.1-0.9-8.7-2.6l-0.3-4.1   c-0.2-2.4,0.2-4.3,1.2-5.5c0.3-0.4,0.7-0.6,1.1-0.6c0.5,0,0.9,0.1,1.2,0.3c1.4,1.2,3.7,1.7,5.4,1.7c1.7,0,4-0.5,5.4-1.7   c0.3-0.3,0.8-0.4,1.2-0.3c0.5,0.1,0.9,0.3,1.1,0.6C50.1,43.6,50.5,45.5,50.4,47.9z M41.4,22.6c8.8,0,16,7.2,16,16   c0,4.9-2.2,9.3-5.7,12.3l0.2-2.9c0.2-2.8-0.3-5-1.5-6.5c-0.5-0.7-1.3-1.1-2.2-1.2c-0.8-0.1-1.7,0.2-2.3,0.7   c-1.1,0.9-3.1,1.3-4.5,1.3c-1.4,0-3.4-0.5-4.5-1.3c-0.6-0.5-1.5-0.8-2.3-0.7c-0.9,0.1-1.6,0.5-2.2,1.2c-1.2,1.5-1.7,3.7-1.5,6.5   l0.2,2.9c-3.6-3-5.7-7.5-5.7-12.3C25.4,29.8,32.6,22.6,41.4,22.6z"/></g></svg>
