<svg xmlns:dc="http://purl.org/dc/elements/1.1/" xmlns:cc="http://creativecommons.org/ns#" xmlns:rdf="http://www.w3.org/1999/02/22-rdf-syntax-ns#" xmlns:svg="http://www.w3.org/2000/svg" xmlns="http://www.w3.org/2000/svg" xmlns:sodipodi="http://sodipodi.sourceforge.net/DTD/sodipodi-0.dtd" xmlns:inkscape="http://www.inkscape.org/namespaces/inkscape" version="1.1" x="0px" y="0px" viewBox="0 0 100 125"><g transform="translate(0,-952.36218)"><path fill="#fff" d="m 50,956.3622 c -25.3695,0 -46,20.63059 -46,46 0,25.3695 20.6305,46 46,46 25.3695,0 46,-20.6305 46,-46 0,-25.36941 -20.6305,-46 -46,-46 z m 0,6 c 22.1269,0 40,17.8732 40,40 0,22.1269 -17.8731,40 -40,40 -22.1269,0 -40,-17.8731 -40,-40 0,-22.1268 17.8731,-40 40,-40 z m -16,20 c -3.8661,0 -7,3.134 -7,7 0,3.866 3.1339,7 7,7 3.86599,0 7,-3.134 7,-7 0,-3.866 -3.13401,-7 -7,-7 z m 32,0 c -3.8661,0 -7,3.134 -7,7 0,3.866 3.1339,7 7,7 3.866,0 7,-3.134 7,-7 0,-3.866 -3.134,-7 -7,-7 z m -38.3125,29 c -0.96394,0.056 -1.84395,0.6004 -2.375,1.5625 -0.5063,0.9676 -0.438,2.1986 0.1875,3.0937 5.3626,8.0218 14.3465,13.3438 24.5,13.3438 10.1535,0 19.1374,-5.322 24.5,-13.3438 0.8754,-1.3089 0.4965,-3.2808 -0.8125,-4.1562 -1.309,-0.8754 -3.3121,-0.4965 -4.1875,0.8125 -4.3312,6.4789 -11.4317,10.6875 -19.5,10.6875 -8.0683,0 -15.1688,-4.2086 -19.5,-10.6875 -0.8122,-0.9528 -1.84856,-1.3688 -2.8125,-1.3125 z"/></g></svg>
