<svg xmlns="http://www.w3.org/2000/svg" xmlns:xlink="http://www.w3.org/1999/xlink" version="1.1" x="0px" y="0px" viewBox="0 0 90 112.5" enable-background="new 0 0 90 90" xml:space="preserve"><path fill="#265cdc" d="M26.328,21.94c-0.254,0.479-0.303,0.976-0.146,1.492c0.16,0.512,0.48,0.896,0.957,1.15c0.473,0.254,0.965,0.303,1.475,0.146  c0.514-0.155,0.896-0.469,1.152-0.94l3.955-7.393c0.046-0.086,0.084-0.173,0.115-0.26c0.141-0.376,0.157-0.766,0.048-1.168  c-0.005-0.021-0.01-0.043-0.017-0.064c-0.152-0.489-0.449-0.862-0.892-1.119l-7.458-4.28c-0.468-0.269-0.959-0.333-1.476-0.193  c-0.519,0.139-0.913,0.441-1.185,0.907c-0.269,0.467-0.333,0.959-0.193,1.476c0.141,0.518,0.443,0.912,0.908,1.184l2.854,1.637  c-7.831,2.176-13.879,7.559-18.144,16.15c-0.243,0.479-0.281,0.972-0.114,1.474c0.176,0.508,0.505,0.881,0.989,1.119  c0.479,0.244,0.972,0.282,1.476,0.114c0.507-0.177,0.88-0.506,1.119-0.99c3.881-7.809,9.437-12.592,16.668-14.349L26.328,21.94z"/><path fill="#265cdc" d="M40.872,73.451c-0.442,2.859,0.212,5.519,1.962,7.977l0.016,0.017c2.104,3.277,7.713,4.197,16.83,2.757  c9.332-1.485,13.996-4.9,13.992-10.247c0.098-2.462-0.033-4.257-0.389-5.383c-0.113-0.386-0.243-0.732-0.389-1.038  c0.364-0.443,0.721-0.902,1.069-1.378l0.017-0.016c0.612-0.827,1.283-1.957,2.011-3.39v0.017c2.721-5.261,4.066-9.914,4.037-13.96  c-0.002-4.493-0.683-8.142-2.043-10.945v-0.016c-1.969-4.072-5.039-6.093-9.209-6.063c-0.328-0.004-0.68,0.034-1.055,0.113  c-1.379-1.496-2.924-2.317-4.637-2.465c-0.178-1.867-0.167-3.667,0.032-5.399V24c0.14-1.376,0.398-2.723,0.778-4.037v0.016  c1.691-5.765,0.891-9.358-2.399-10.783c-0.075-0.043-0.156-0.087-0.243-0.128c-0.03-0.018-0.058-0.035-0.081-0.05  c-3.427-1.577-6.341-0.681-8.739,2.691l-0.017,0.032c-0.092,0.133-0.184,0.268-0.275,0.405c-0.583-0.593-1.296-1.042-2.141-1.346  c-0.087-0.036-0.178-0.074-0.275-0.112c-0.046-0.018-0.089-0.033-0.13-0.05c-3.842-1.307-6.847-0.026-9.015,3.844l0.016-0.017  c-0.85,1.477-1.482,3.087-1.896,4.831c-0.494,2.04-0.693,4.267-0.6,6.681v0.017c0.133,4.206,0.803,8.524,2.01,12.954  c0.189,0.686,0.368,1.35,0.535,1.994c0.537,2.296,0.895,4.338,1.07,6.129c-0.237-0.291-0.491-0.615-0.762-0.973h-0.017  c-3.201-4.188-6.552-7.01-10.053-8.464v0.017c-4.266-1.836-7.567-0.863-9.906,2.918l0.017-0.016  c-2.691,3.806-1.178,7.477,4.539,11.01c3.974,2.459,6.676,6.053,8.107,10.782C35.063,67.063,37.474,70.767,40.872,73.451z   M27.576,48.255c-3.123-1.927-4.226-3.791-3.307-5.594l0.016-0.016c1.207-1.883,2.898-2.358,5.074-1.427v0.017  c2.942,1.27,5.775,3.679,8.496,7.23H37.84c1.801,2.369,3.186,3.687,4.15,3.956c1.426,0.55,2.474,0.236,3.146-0.94  c0.396-0.469,0.592-1.312,0.582-2.529v-0.016c-0.037-2.425-0.465-5.381-1.279-8.869c-0.006-0.015-0.012-0.031-0.017-0.049  c-0.173-0.681-0.356-1.383-0.551-2.107c-1.127-4.126-1.754-8.146-1.882-12.063v-0.016c-0.078-2.034,0.09-3.909,0.503-5.626  c0.321-1.37,0.813-2.634,1.476-3.795l0.016-0.016c1.066-1.908,2.521-2.601,4.362-2.075c0.022,0.011,0.044,0.021,0.064,0.031  c0.057,0.03,0.11,0.057,0.163,0.081c0.86,0.408,1.39,1.208,1.589,2.4c0.003,0.011,0.008,0.022,0.016,0.032  c-0.003,0.026-0.003,0.054,0,0.081v0.049c0.004,0.029,0.009,0.058,0.017,0.081c0.1,1.208-0.009,2.673-0.324,4.395v0.015  c-0.3,1.701-0.451,3.438-0.454,5.206v0.032c-0.048,2.195,0.169,4.472,0.648,6.826c0.375,1.934,0.926,4.294,1.653,7.085  c0.134,0.518,0.431,0.912,0.892,1.184c0.465,0.274,0.957,0.345,1.476,0.21c0.518-0.133,0.912-0.43,1.184-0.891  c0.274-0.466,0.345-0.957,0.211-1.476c-0.699-2.7-1.229-4.987-1.589-6.858v-0.017c-0.426-2.076-0.62-4.081-0.584-6.015  c0-0.018,0-0.035,0-0.049c-0.001-1.55,0.129-3.067,0.39-4.557c0.371-2.038,0.496-3.784,0.372-5.236  c0.411-1.084,0.931-2.078,1.557-2.984l-0.016,0.033c1.087-1.535,2.39-2.011,3.907-1.427c0.011,0.006,0.021,0.011,0.033,0.017  c0.01,0.006,0.021,0.012,0.032,0.016c0.042,0.03,0.085,0.057,0.129,0.081c1.256,0.889,1.407,2.959,0.454,6.21v0.016  c-0.439,1.528-0.741,3.09-0.907,4.687c-0.231,2.011-0.242,4.103-0.033,6.274c0.001,0.017,0.001,0.032,0,0.049  c0.063,0.545,0.138,1.146,0.228,1.8v0.064c0.135,1.308,0.118,4.021-0.049,8.14c-0.021,0.533,0.153,0.998,0.52,1.395  c0.362,0.396,0.812,0.608,1.345,0.633c0.534,0.02,0.999-0.153,1.395-0.52c0.397-0.362,0.608-0.812,0.633-1.346  c0.109-2.76,0.153-4.932,0.13-6.518c0.778,0.322,1.492,0.938,2.14,1.848c0.068,0.127,0.149,0.247,0.243,0.356  c0.769,1.325,1.417,3.801,1.946,7.426c0.083,0.533,0.342,0.959,0.777,1.281c0.427,0.325,0.902,0.448,1.427,0.373  c0.531-0.083,0.958-0.343,1.281-0.778c0.324-0.427,0.448-0.902,0.373-1.427c-0.418-2.865-0.92-5.135-1.508-6.81  c1.911,0.394,3.37,1.631,4.377,3.713v-0.017c1.105,2.386,1.656,5.482,1.654,9.291c-0.029,3.521-1.234,7.579-3.615,12.177v0.016  c-0.607,1.195-1.164,2.136-1.67,2.821l-0.017,0.017c-0.713,0.97-1.453,1.861-2.222,2.675l-0.049,0.049  c-0.031,0.034-0.064,0.066-0.097,0.098c-1.31,1.27-2.704,2.335-4.184,3.194l-0.016,0.016c-0.292,0.178-0.584,0.345-0.876,0.503  c-0.477,0.255-0.796,0.639-0.956,1.151c-0.157,0.51-0.108,1.002,0.146,1.475c0.255,0.479,0.639,0.797,1.151,0.957  c0.51,0.155,1.002,0.107,1.476-0.146c0.356-0.188,0.713-0.388,1.07-0.599l-0.017,0.017c1.204-0.708,2.36-1.53,3.47-2.465  c0.082,0.789,0.099,1.8,0.049,3.031c-0.38,3.299-3.952,5.482-10.718,6.55c-6.998,1.11-11.349,0.716-13.052-1.184l-0.016-0.017  c-0.859-1.21-1.309-2.496-1.347-3.857c3.188,0.964,6.34,1.115,9.453,0.453c0.521-0.111,0.926-0.392,1.216-0.842  c0.294-0.45,0.387-0.937,0.275-1.461c-0.111-0.52-0.393-0.925-0.843-1.216c-0.45-0.294-0.938-0.385-1.459-0.275  c-3.049,0.63-6.146,0.301-9.291-0.988c-0.009-0.008-0.021-0.014-0.032-0.017c-3.132-2.279-5.332-5.522-6.6-9.729  C35.645,55.519,32.381,51.2,27.576,48.255z"/></svg>
