<svg xmlns="http://www.w3.org/2000/svg" xmlns:xlink="http://www.w3.org/1999/xlink" version="1.1" x="0px" y="0px" viewBox="0 0 100 125" style="enable-background:new 0 0 100 100;" xml:space="preserve"><g><path fill="#fff" d="M27.8,62.8c4.3,0,8.1-2.2,10.3-5.5l22.8,16.8c-1,1.8-1.7,3.9-1.7,6.2c0,6.9,5.6,12.5,12.5,12.5s12.5-5.6,12.5-12.5   s-5.6-12.5-12.5-12.5c-4.3,0-8.1,2.2-10.3,5.5L38.6,56.4c1-1.8,1.7-3.9,1.7-6.2c0-2.3-0.6-4.4-1.7-6.2l22.8-16.8   c2.3,3.3,6,5.5,10.3,5.5c6.9,0,12.5-5.6,12.5-12.5S78.6,7.8,71.8,7.8s-12.5,5.6-12.5,12.5c0,2.3,0.6,4.4,1.7,6.2L38.1,43.2   c-2.3-3.3-6-5.5-10.3-5.5c-6.9,0-12.5,5.6-12.5,12.5S20.9,62.8,27.8,62.8z M71.8,72.8c4.1,0,7.5,3.4,7.5,7.5s-3.4,7.5-7.5,7.5   s-7.5-3.4-7.5-7.5S67.6,72.8,71.8,72.8z M71.8,12.8c4.1,0,7.5,3.4,7.5,7.5s-3.4,7.5-7.5,7.5s-7.5-3.4-7.5-7.5S67.6,12.8,71.8,12.8z    M27.8,42.8c4.1,0,7.5,3.4,7.5,7.5s-3.4,7.5-7.5,7.5s-7.5-3.4-7.5-7.5S23.6,42.8,27.8,42.8z"/></g></svg>
