<svg xmlns="http://www.w3.org/2000/svg" xmlns:xlink="http://www.w3.org/1999/xlink" version="1.1" x="0px" y="0px" viewBox="0 0 90 112.5" enable-background="new 0 0 90 90" xml:space="preserve"><path fill="#fff" d="M7.886,62.321c0.377,0.375,0.833,0.563,1.364,0.563c0.534,0,0.989-0.188,1.364-0.563c0.376-0.377,0.563-0.831,0.562-1.364  V30.675l3.065,3.37c0.36,0.393,0.805,0.602,1.333,0.625c0.533,0.026,0.999-0.14,1.396-0.497c0.393-0.36,0.602-0.803,0.625-1.333  c0.026-0.533-0.141-0.999-0.497-1.396l-6.387-7.029c-0.01-0.01-0.021-0.02-0.031-0.032c-0.021-0.022-0.043-0.044-0.066-0.065  c-0.347-0.351-0.769-0.538-1.267-0.562c-0.033-0.001-0.063-0.001-0.097,0c-0.493-0.005-0.926,0.162-1.3,0.498  c-0.022,0.02-0.042,0.042-0.064,0.063c-0.011,0.012-0.021,0.022-0.031,0.033L1.467,30.74c-0.375,0.376-0.563,0.832-0.562,1.363  c0,0.534,0.187,0.988,0.562,1.364c0.377,0.377,0.832,0.563,1.364,0.562c0.533,0.002,0.988-0.185,1.364-0.562l3.13-3.129v30.619  C7.324,61.49,7.511,61.944,7.886,62.321z"/><path fill="#fff" d="M86.151,50.397c-1.655-1.787-2.998-2.947-4.028-3.482c-0.356-0.195-0.687-0.339-0.994-0.433  c-0.063-0.58-0.138-1.168-0.226-1.766l-0.016-0.015c-0.158-0.998-0.479-2.25-0.963-3.755v0.017  c-1.779-5.599-4.096-9.809-6.948-12.63c-3.155-3.128-6.178-5.193-9.067-6.194c-4.236-1.5-7.809-0.783-10.72,2.15  c-0.033,0.034-0.065,0.066-0.097,0.097c-0.185,0.203-0.377,0.454-0.578,0.754c-2.003-0.072-3.651,0.441-4.942,1.541  c-0.011-0.013-0.021-0.024-0.032-0.033c-1.418-1.176-2.654-2.439-3.707-3.787c-0.012-0.009-0.023-0.019-0.032-0.031  c-0.869-1.065-1.627-2.188-2.279-3.371c-1.651-2.998-3.369-4.866-5.152-5.6c-1.332-0.619-2.695-0.699-4.093-0.242h-0.015  c-0.083,0.029-0.189,0.073-0.32,0.128c-0.017,0.004-0.033,0.01-0.049,0.016c-3.473,1.267-4.858,3.92-4.156,7.96  c0.028,0.165,0.061,0.331,0.097,0.497c-0.82-0.008-1.633,0.169-2.44,0.531c-0.053,0.021-0.106,0.048-0.16,0.08l-0.032,0.016  c-0.08,0.025-0.16,0.057-0.241,0.097c-3.58,1.777-4.768,4.784-3.563,9.018l-0.017-0.031c0.399,1.479,0.998,2.908,1.798,4.284  c0.07,0.193,0.182,0.386,0.336,0.578c1.057,1.706,2.441,3.349,4.156,4.927l0.017,0.015c3.035,2.857,6.522,5.403,10.464,7.64  c0.619,0.352,1.206,0.694,1.765,1.026c0.01,0.005,0.021,0.01,0.032,0.017c1.974,1.231,3.642,2.415,5.006,3.548  c-0.361-0.038-0.756-0.085-1.187-0.146h-0.017c-5.187-0.692-9.503-0.318-12.949,1.123c-4.273,1.729-5.91,4.724-4.911,8.987  c0.804,4.521,4.437,6.019,10.895,4.493c4.5-1.058,8.902-0.432,13.208,1.879c4.307,2.299,8.587,3.209,12.839,2.728  c1.685,2.311,4.008,3.701,6.965,4.172l0.016,0.016c3.782,0.83,8.346-2.461,13.688-9.868c5.49-7.571,6.377-13.215,2.665-16.931  L86.151,50.397z M80.391,65.099c-4.119,5.694-7.453,8.459-9.999,8.295l0.017,0.018c-1.455-0.235-2.67-0.82-3.644-1.751  c2.898-1.556,5.209-3.657,6.934-6.306c0.291-0.451,0.382-0.938,0.272-1.461c-0.109-0.515-0.388-0.915-0.834-1.203  c-0.445-0.292-0.927-0.383-1.445-0.272c-0.513,0.106-0.915,0.379-1.203,0.817c-1.709,2.593-4.121,4.539-7.237,5.843  c-3.778,0.602-7.586-0.127-11.426-2.183c-5.194-2.783-10.506-3.526-15.936-2.231c-3.533,0.833-5.614,0.298-6.243-1.604  c-0.457-2.155,0.409-3.674,2.6-4.557c2.927-1.166,6.585-1.456,10.977-0.867h0.017c2.902,0.405,4.785,0.368,5.648-0.113  c1.387-0.608,1.905-1.561,1.557-2.856c-0.051-0.601-0.505-1.323-1.363-2.166v-0.017c-1.728-1.688-4.109-3.474-7.141-5.359  c-0.012-0.003-0.022-0.009-0.033-0.016c-0.587-0.349-1.208-0.706-1.86-1.075c-3.669-2.083-6.917-4.451-9.741-7.109l-0.016-0.017  c-1.478-1.366-2.667-2.789-3.563-4.268c-0.016-0.026-0.032-0.054-0.048-0.081c-0.71-1.162-1.235-2.371-1.573-3.626L25.089,30.9  c-0.582-2.065-0.063-3.559,1.557-4.477c0.125-0.049,0.238-0.098,0.336-0.144c0.767-0.244,1.554-0.126,2.36,0.352  c0.177,0.299,0.444,0.507,0.802,0.625c0.841,0.752,1.713,1.78,2.615,3.082c0.011,0.008,0.021,0.018,0.031,0.033  c0.401,0.562,0.823,1.123,1.268,1.685l0.017,0.016c0.625,0.76,1.293,1.498,2.006,2.215c0.015,0.017,0.032,0.032,0.048,0.047  c1.482,1.592,3.227,3.036,5.23,4.333l-0.032-0.031c1.634,1.115,3.684,2.383,6.146,3.802c0.464,0.267,0.95,0.332,1.461,0.193  c0.513-0.139,0.903-0.439,1.172-0.9c0.266-0.461,0.329-0.948,0.192-1.459c-0.141-0.513-0.439-0.904-0.899-1.171  c-2.372-1.362-4.345-2.576-5.922-3.643c-0.012-0.009-0.021-0.02-0.031-0.032c-1.742-1.129-3.255-2.386-4.542-3.771  c-0.017-0.014-0.032-0.031-0.048-0.048c-0.634-0.632-1.229-1.286-1.781-1.958l-0.016-0.016c-0.406-0.504-0.79-1.006-1.156-1.509  l0.032,0.033c-1.17-1.692-2.305-3.008-3.402-3.949c-0.481-1.021-0.819-2.074-1.01-3.161c-0.323-1.848,0.266-3.084,1.765-3.707  c0.013-0.006,0.029-0.011,0.047-0.015c0.062-0.022,0.109-0.039,0.144-0.048h-0.016c0.444-0.143,0.878-0.116,1.3,0.079  c1.126,0.59,2.255,1.913,3.387,3.965c0.76,1.384,1.648,2.701,2.663,3.947l-0.016-0.033c1.238,1.586,2.692,3.068,4.366,4.446  c0.023,0.015,0.043,0.031,0.064,0.048c0.403,0.304,0.858,0.656,1.365,1.058l0.031,0.032l0.049,0.033  c1.013,0.828,2.905,2.734,5.681,5.712c0.366,0.388,0.814,0.59,1.348,0.61c0.529,0.021,0.989-0.151,1.38-0.513  c0.389-0.365,0.592-0.815,0.611-1.349c0.019-0.527-0.152-0.988-0.515-1.379c-1.853-1.99-3.341-3.531-4.462-4.623  c0.805-0.333,1.795-0.387,2.969-0.16c0.068,0.013,0.138,0.023,0.21,0.032c1.466,0.381,3.647,1.666,6.546,3.852  c0.422,0.319,0.893,0.442,1.413,0.368c0.53-0.076,0.957-0.327,1.285-0.753c0.318-0.421,0.442-0.892,0.368-1.413  c-0.076-0.528-0.328-0.957-0.754-1.284c-2.308-1.743-4.26-2.995-5.857-3.754c1.635-1.063,3.544-1.208,5.729-0.435  c2.417,0.882,4.957,2.647,7.622,5.296c2.452,2.484,4.458,6.171,6.019,11.057v0.017c0.414,1.276,0.691,2.335,0.835,3.177  l-0.017-0.016c0.178,1.198,0.291,2.348,0.337,3.451v0.016c-0.001,0.021-0.001,0.042,0,0.064c-0.023,1.836-0.26,3.596-0.706,5.278  l0.017-0.08c-0.12,0.39-0.227,0.791-0.321,1.203c-0.121,0.515-0.04,0.996,0.241,1.445c0.284,0.454,0.684,0.743,1.203,0.866  c0.513,0.121,0.994,0.04,1.443-0.24c0.455-0.286,0.745-0.687,0.867-1.204c0.076-0.314,0.162-0.618,0.257-0.914  c0.006-0.028,0.012-0.056,0.017-0.08c0.357-1.352,0.597-2.742,0.722-4.173c0.61,0.5,1.328,1.196,2.149,2.086l0.018,0.017  C85.336,55.595,84.356,59.618,80.391,65.099z"/></svg>
