<svg xmlns="http://www.w3.org/2000/svg" xmlns:xlink="http://www.w3.org/1999/xlink" version="1.1" x="0px" y="0px" viewBox="0 0 90 112.5" enable-background="new 0 0 90 90" xml:space="preserve"><path fill="#fff" d="M78.961,31.882c0.238,0.483,0.611,0.813,1.119,0.988c0.504,0.168,0.996,0.131,1.475-0.113  c0.484-0.239,0.814-0.612,0.988-1.118c0.168-0.504,0.131-0.996-0.113-1.477c-4.584-9.235-11.227-14.765-19.926-16.587l2.529-2.901  c0.357-0.407,0.518-0.877,0.486-1.411c-0.037-0.532-0.26-0.977-0.664-1.33c-0.406-0.356-0.877-0.519-1.412-0.486  c-0.531,0.039-0.975,0.26-1.33,0.666l-4.814,5.528l-0.049,0.049c-0.008,0.01-0.02,0.021-0.031,0.032l-0.098,0.146  c-0.037,0.044-0.068,0.093-0.098,0.146c-0.008,0.012-0.012,0.021-0.016,0.032c-0.045,0.072-0.084,0.147-0.113,0.228  c-0.049,0.125-0.088,0.25-0.115,0.373c-0.057,0.326-0.029,0.65,0.082,0.973c0.021,0.047,0.043,0.096,0.064,0.146l3.309,7.394  c0.223,0.489,0.584,0.829,1.086,1.021c0.502,0.19,0.998,0.174,1.492-0.049c0.488-0.217,0.83-0.573,1.021-1.07  c0.193-0.501,0.184-0.998-0.033-1.491l-1.848-4.118C69.352,19.143,75.021,23.953,78.961,31.882z"/><path fill="#fff" d="M61.92,66.189c0.365-0.443,0.721-0.902,1.07-1.378l0.016-0.016c0.613-0.827,1.283-1.957,2.012-3.39v0.017  c2.721-5.261,4.066-9.914,4.037-13.96c-0.002-4.493-0.684-8.142-2.043-10.945v-0.016c-1.969-4.072-5.039-6.093-9.211-6.063  c-0.326-0.004-0.678,0.034-1.053,0.113c-1.381-1.496-2.926-2.317-4.637-2.465c-0.178-1.867-0.168-3.667,0.031-5.399v-0.031  c0.141-1.376,0.398-2.723,0.779-4.037v0.016c1.691-5.765,0.891-9.358-2.4-10.783c-0.074-0.043-0.156-0.087-0.242-0.128  c-0.031-0.018-0.059-0.035-0.082-0.05c-3.426-1.577-6.34-0.681-8.739,2.691l-0.017,0.032c-0.092,0.133-0.184,0.268-0.275,0.405  c-0.583-0.593-1.296-1.042-2.141-1.346c-0.087-0.036-0.178-0.074-0.275-0.112c-0.046-0.018-0.09-0.033-0.13-0.05  c-3.842-1.307-6.847-0.026-9.015,3.844l0.016-0.017c-0.851,1.477-1.483,3.087-1.896,4.831c-0.495,2.04-0.694,4.267-0.6,6.681v0.017  c0.133,4.206,0.804,8.524,2.01,12.954c0.189,0.686,0.368,1.35,0.535,1.994c0.537,2.296,0.894,4.338,1.07,6.129  c-0.237-0.291-0.491-0.615-0.762-0.973h-0.017c-3.201-4.188-6.552-7.01-10.053-8.464v0.017c-4.267-1.836-7.568-0.863-9.906,2.918  l0.016-0.016c-2.69,3.806-1.177,7.477,4.54,11.01c3.974,2.459,6.676,6.053,8.107,10.782c1.422,4.718,3.833,8.421,7.231,11.105  c-0.443,2.859,0.211,5.519,1.962,7.977l0.016,0.017c2.103,3.277,7.713,4.197,16.83,2.757c9.332-1.485,13.996-4.9,13.992-10.247  c0.098-2.462-0.033-4.257-0.389-5.383C62.195,66.842,62.064,66.495,61.92,66.189z M61.547,59.655  c-0.607,1.195-1.164,2.136-1.67,2.821l-0.016,0.017c-0.713,0.97-1.453,1.861-2.223,2.675l-0.049,0.049  c-0.031,0.034-0.064,0.066-0.096,0.098c-1.311,1.27-2.705,2.335-4.184,3.194l-0.016,0.016c-0.293,0.178-0.584,0.345-0.877,0.503  c-0.477,0.255-0.795,0.639-0.955,1.151c-0.158,0.51-0.109,1.002,0.145,1.475c0.256,0.479,0.639,0.797,1.152,0.957  c0.51,0.155,1.002,0.107,1.475-0.146c0.357-0.188,0.713-0.388,1.07-0.599l-0.016,0.017c1.203-0.708,2.359-1.53,3.469-2.465  c0.082,0.789,0.1,1.8,0.049,3.031c-0.379,3.299-3.951,5.482-10.717,6.55c-6.999,1.11-11.349,0.716-13.052-1.184l-0.017-0.017  c-0.858-1.21-1.307-2.496-1.346-3.857c3.188,0.964,6.34,1.115,9.453,0.453c0.52-0.111,0.926-0.392,1.216-0.842  c0.294-0.45,0.386-0.937,0.275-1.461c-0.111-0.52-0.393-0.925-0.843-1.216c-0.45-0.294-0.938-0.385-1.459-0.275  c-3.045,0.629-6.137,0.3-9.275-0.988c-3.159-2.273-5.375-5.521-6.647-9.745c-1.725-5.691-4.989-10.01-9.792-12.955  c-3.124-1.927-4.227-3.791-3.309-5.594l0.017-0.016c1.207-1.883,2.898-2.358,5.075-1.427v0.017c2.941,1.27,5.773,3.679,8.496,7.23  h-0.017c1.801,2.369,3.185,3.687,4.15,3.956c1.425,0.55,2.474,0.236,3.146-0.94c0.398-0.469,0.593-1.312,0.584-2.529v-0.016  c-0.039-2.425-0.467-5.381-1.281-8.869c-0.006-0.015-0.011-0.031-0.016-0.049c-0.173-0.681-0.356-1.383-0.552-2.107  c-1.126-4.126-1.753-8.146-1.881-12.063v-0.016c-0.077-2.034,0.09-3.909,0.503-5.626c0.321-1.37,0.813-2.634,1.476-3.795  l0.016-0.016c1.066-1.908,2.521-2.601,4.362-2.075c0.022,0.011,0.044,0.021,0.064,0.031c0.057,0.03,0.11,0.057,0.162,0.081  c0.861,0.408,1.391,1.208,1.589,2.4c0.007,0.022,0.013,0.044,0.017,0.064v0.098c0.004,0.033,0.01,0.065,0.016,0.098  c0.099,1.202-0.009,2.662-0.324,4.378v0.015c-0.299,1.701-0.45,3.438-0.454,5.206v0.032c-0.047,2.195,0.17,4.472,0.648,6.826  c0.376,1.934,0.927,4.294,1.654,7.085c0.134,0.518,0.431,0.912,0.892,1.184c0.465,0.274,0.957,0.345,1.476,0.21  c0.518-0.133,0.912-0.43,1.184-0.891c0.274-0.466,0.345-0.957,0.211-1.476c-0.699-2.7-1.229-4.987-1.589-6.858v-0.017  c-0.426-2.076-0.62-4.081-0.584-6.015c0-0.018,0-0.035,0-0.049c-0.001-1.55,0.129-3.067,0.39-4.557  c0.372-2.042,0.496-3.793,0.372-5.254c0.413-1.073,0.932-2.063,1.557-2.967l-0.016,0.033c1.086-1.535,2.389-2.011,3.907-1.427  c0.012,0.006,0.021,0.011,0.033,0.017c0.055,0.035,0.107,0.067,0.162,0.097c1.256,0.889,1.406,2.959,0.453,6.21v0.016  c-0.439,1.528-0.742,3.09-0.908,4.687c-0.23,2.011-0.24,4.103-0.031,6.274c0,0.017,0,0.032,0,0.049  c0.063,0.541,0.131,1.13,0.211,1.767c0.006,0.035,0.012,0.068,0.016,0.098c0.135,1.306,0.119,4.02-0.049,8.14  c-0.02,0.533,0.152,0.998,0.52,1.395c0.363,0.396,0.813,0.608,1.346,0.633c0.533,0.02,0.998-0.153,1.395-0.52  c0.396-0.362,0.607-0.812,0.633-1.346c0.109-2.759,0.152-4.932,0.129-6.518c0.781,0.321,1.494,0.943,2.141,1.864  c0.068,0.12,0.15,0.233,0.242,0.34c0.77,1.325,1.418,3.801,1.945,7.426c0.084,0.533,0.344,0.959,0.779,1.281  c0.426,0.325,0.902,0.448,1.426,0.373c0.531-0.083,0.959-0.343,1.281-0.778c0.324-0.427,0.447-0.902,0.373-1.427  c-0.418-2.865-0.92-5.135-1.508-6.81c1.91,0.394,3.371,1.631,4.377,3.713v-0.017c1.105,2.386,1.656,5.482,1.654,9.291  c-0.029,3.521-1.234,7.579-3.615,12.177V59.655z"/></svg>
