<svg xmlns="http://www.w3.org/2000/svg" xmlns:xlink="http://www.w3.org/1999/xlink" version="1.1" x="0px" y="0px" viewBox="0 0 100 125" enable-background="new 0 0 100 100" xml:space="preserve"><g><path fill="#fff" d="M49.697,29.236c-13.599,0-24.663,11.063-24.663,24.662c0,13.6,11.063,24.663,24.663,24.663S74.36,67.498,74.36,53.898   C74.36,40.3,63.296,29.236,49.697,29.236z M49.697,75.562c-11.945,0-21.663-9.718-21.663-21.663   c0-11.944,9.718-21.662,21.663-21.662S71.36,41.954,71.36,53.898C71.36,65.844,61.642,75.562,49.697,75.562z"/><path fill="#fff" d="M49.697,37.722c-8.92,0-16.177,7.257-16.177,16.177c0,8.921,7.257,16.178,16.177,16.178s16.177-7.257,16.177-16.178   C65.875,44.979,58.618,37.722,49.697,37.722z M49.697,67.076c-7.266,0-13.177-5.911-13.177-13.178   c0-7.266,5.911-13.177,13.177-13.177s13.177,5.911,13.177,13.177C62.875,61.165,56.963,67.076,49.697,67.076z"/><path fill="#fff" d="M82.645,34.893c-3.44,0-6.24,2.8-6.24,6.24s2.799,6.239,6.24,6.239s6.239-2.799,6.239-6.239S86.085,34.893,82.645,34.893z    M82.645,44.372c-1.787,0-3.24-1.453-3.24-3.239c0-1.787,1.453-3.24,3.24-3.24c1.786,0,3.239,1.453,3.239,3.24   C85.884,42.919,84.431,44.372,82.645,44.372z"/><path fill="#fff" d="M81.648,28.172h-8.675l-1.244-7.393c-0.562-3.339-3.427-5.762-6.813-5.762H35.084c-3.385,0-6.25,2.423-6.813,5.762   l-1.244,7.393h-1.974v-5.077c0-0.828-0.671-1.5-1.5-1.5h-6.536c-0.829,0-1.5,0.672-1.5,1.5v5.387C9.513,29.786,5,35.134,5,41.523   v30.107c0,7.362,5.99,13.352,13.352,13.352h63.296C89.01,84.982,95,78.993,95,71.631V41.523C95,34.161,89.01,28.172,81.648,28.172z    M18.517,24.595h3.536v3.577h-3.536V24.595z M92,71.631c0,5.708-4.644,10.352-10.352,10.352H18.352   C12.644,81.982,8,77.339,8,71.631V41.523c0-5.708,4.644-10.352,10.352-10.352h5.201h4.743c0.011,0,0.021-0.003,0.033-0.003   c0.038-0.001,0.074-0.007,0.111-0.011c0.065-0.006,0.13-0.012,0.193-0.027c0.018-0.004,0.034-0.011,0.052-0.016   c0.079-0.021,0.155-0.045,0.228-0.078c0.006-0.003,0.011-0.007,0.017-0.01c0.081-0.038,0.159-0.081,0.231-0.133   c0.01-0.007,0.018-0.016,0.027-0.023c0.066-0.049,0.13-0.102,0.187-0.161c0.018-0.019,0.033-0.041,0.05-0.06   c0.045-0.052,0.089-0.104,0.127-0.161c0.02-0.03,0.034-0.064,0.052-0.096c0.029-0.053,0.059-0.105,0.082-0.161   c0.015-0.036,0.023-0.075,0.035-0.113c0.018-0.057,0.037-0.113,0.048-0.173c0.002-0.008,0.005-0.015,0.006-0.024l1.455-8.644   c0.318-1.889,1.939-3.26,3.854-3.26h29.832c1.916,0,3.536,1.371,3.854,3.26l1.455,8.644c0.001,0.006,0.005,0.01,0.006,0.016   c0.029,0.161,0.086,0.31,0.161,0.448c0.012,0.022,0.022,0.043,0.035,0.065c0.079,0.129,0.176,0.243,0.289,0.343   c0.02,0.017,0.039,0.033,0.06,0.049c0.118,0.094,0.248,0.171,0.39,0.227c0.019,0.007,0.039,0.012,0.059,0.018   c0.15,0.051,0.308,0.084,0.475,0.085c0.001,0,0.002,0,0.003,0c0,0,0.001,0,0.001,0c0,0,0.001,0,0.001,0h9.944   C87.356,31.172,92,35.815,92,41.523V71.631z"/></g></svg>
