<svg xmlns="http://www.w3.org/2000/svg" xmlns:xlink="http://www.w3.org/1999/xlink" version="1.1" x="0px" y="0px" viewBox="0 0 100 125" enable-background="new 0 0 100 100" xml:space="preserve"><g><path fill="#fff" d="M527.4,2.94c-6.42,0-11.64,5.22-11.64,11.64V53.5c0,6.42,5.22,11.64,11.64,11.64c6.42,0,11.64-5.22,11.64-11.64V14.58   C539.04,8.16,533.82,2.94,527.4,2.94z M533.04,53.5c0,3.11-2.53,5.64-5.64,5.64s-5.64-2.53-5.64-5.64V14.58   c0-3.11,2.53-5.64,5.64-5.64s5.64,2.53,5.64,5.64V53.5z"/></g><g><path fill="#fff" d="M549.5,47.51v6.35c0,11.17-8.32,20.43-19.1,21.89v6.85h8.94c1.66,0,3,1.35,3,3c0,1.66-1.34,3-3,3h-23.88   c-1.65,0-3-1.34-3-3c0-1.65,1.35-3,3-3h8.94v-6.85c-10.77-1.46-19.1-10.72-19.1-21.89v-6.35c0-1.66,1.34-3,3-3s3,1.34,3,3v6.35   c0,8.88,7.22,16.1,16.1,16.1s16.1-7.22,16.1-16.1v-6.35c0-1.66,1.35-3,3-3C548.16,44.51,549.5,45.85,549.5,47.51z"/></g><g><path fill="none" stroke="#fff" stroke-width="6" stroke-linecap="round" stroke-linejoin="round" stroke-miterlimit="10" d="   M527.403-29.274"/></g><g><path fill="#fff" d="M95,50.004c0,15.618-11.046,29.433-26.266,32.85c-0.226,0.055-0.46,0.078-0.686,0.078c-1.428,0-2.715-0.983-3.042-2.434   c-0.374-1.685,0.679-3.354,2.364-3.729c12.396-2.785,21.39-14.042,21.39-26.765c0-15.126-12.31-27.436-27.436-27.436   c-9.938,0-19.081,5.367-23.941,14.042c-0.008,0.008-0.008,0.016-0.008,0.023c-0.507,1.373-1.935,2.247-3.432,1.997   c-1.037-0.172-2.106-0.257-3.167-0.257c-10.773,0-19.534,8.76-19.534,19.534c0,10.765,8.76,19.526,19.534,19.526   c10.641,0,19.323-8.565,19.518-19.159l-3.128,3.128c-1.225,1.225-3.198,1.217-4.415,0c-1.217-1.217-1.217-3.191,0-4.408   l8.464-8.472c0.585-0.585,1.381-0.913,2.208-0.913c0.827,0,1.623,0.328,2.208,0.913l8.464,8.472c1.225,1.217,1.225,3.191,0,4.408   c-0.608,0.608-1.404,0.913-2.2,0.913c-0.803,0-1.599-0.304-2.208-0.913l-3.152-3.144c-0.187,14.042-11.67,25.416-25.759,25.416   C16.561,83.673,5,72.112,5,57.906c0-14.213,11.561-25.774,25.774-25.774c0.655,0,1.303,0.023,1.958,0.078   c6.132-9.845,16.905-15.883,28.591-15.883C79.897,16.327,95,31.43,95,50.004z"/></g></svg>
