<svg xmlns="http://www.w3.org/2000/svg" xmlns:xlink="http://www.w3.org/1999/xlink" version="1.1" x="0px" y="0px" viewBox="0 0 100 125" enable-background="new 0 0 100 100" xml:space="preserve"><path fill="#fff" d="M38.014,36.204c-0.293-0.262-0.716-0.326-1.074-0.166c-0.359,0.161-0.591,0.519-0.591,0.913v16.955  c0,0.394,0.23,0.751,0.591,0.912c0.131,0.06,0.271,0.088,0.409,0.088c0.24,0,0.479-0.088,0.665-0.254l9.516-8.479  c0.213-0.19,0.335-0.461,0.335-0.747c0-0.286-0.122-0.557-0.335-0.747L38.014,36.204z M38.349,51.675V39.18l7.012,6.247  L38.349,51.675z M75.014,54.27c-0.05-0.043-0.109-0.065-0.164-0.099c-0.043-0.024-0.082-0.058-0.129-0.075  c-0.236-0.095-0.498-0.095-0.736,0c-0.047,0.019-0.084,0.051-0.127,0.075c-0.057,0.032-0.115,0.056-0.166,0.099l-8.354,7.355  c-0.414,0.365-0.454,0.997-0.09,1.412c0.366,0.415,0.997,0.454,1.412,0.09l6.694-5.895L73.352,73.07c0,0.553,0.446,1,1,1  c0.551,0,1-0.446,1-1l0.002-15.838l6.693,5.895c0.189,0.167,0.426,0.249,0.661,0.249c0.276,0,0.554-0.114,0.751-0.339  c0.364-0.415,0.324-1.047-0.09-1.412L75.014,54.27z M75.35,44.688V24.612c0-3.502-2.926-6.352-6.521-6.352H13.62  c-3.595,0-6.521,2.849-6.521,6.352v41.631c0,3.502,2.925,6.353,6.521,6.353h44.769c3.232,5.461,9.168,9.145,15.961,9.145  c10.229,0,18.551-8.322,18.551-18.551C92.9,53.298,85.111,45.213,75.35,44.688z M64.309,20.261h4.521  c2.493,0,4.521,1.952,4.521,4.352v6.148h-9.041V20.261L64.309,20.261z M53.266,20.261h9.043v10.5h-9.043V20.261z M42.226,20.261  h9.04v10.5h-9.04V20.261z M31.184,20.261h9.042v10.5h-9.042V20.261z M20.142,20.261h9.042v10.5h-9.042V20.261z M9.101,24.612  c0-2.399,2.027-4.352,4.521-4.352h4.521v10.5H9.101V24.612z M9.101,32.761H73.35v11.928c-8.018,0.431-14.689,5.959-16.822,13.407  H9.101V32.761z M18.142,70.596H13.62c-2.493,0-4.521-1.953-4.521-4.353v-6.147h9.041L18.142,70.596L18.142,70.596z M29.184,70.596  h-9.042v-10.5h9.042V70.596z M40.226,70.596h-9.042v-10.5h9.042V70.596z M51.266,70.596h-9.04v-10.5h9.04V70.596z M53.266,70.596  v-10.5h2.813c-0.17,1.008-0.279,2.037-0.279,3.094c0,2.633,0.56,5.136,1.554,7.406H53.266z M74.35,79.739  c-9.125,0-16.551-7.425-16.551-16.552c0-9.125,7.426-16.55,16.551-16.55c9.127,0,16.551,7.425,16.551,16.55  S83.477,79.739,74.35,79.739z"/></svg>
