<svg xmlns="http://www.w3.org/2000/svg" xmlns:xlink="http://www.w3.org/1999/xlink" version="1.1" x="0px" y="0px" viewBox="0 0 100 125" enable-background="new 0 0 100 100" xml:space="preserve"><path fill="#fff" d="M94.023,89.311L75.971,71.258C87.427,64.445,95,54.811,95,50c0-7.906-20.439-28.862-45-28.862  c-7.058,0-13.771,1.735-19.76,4.389l-19.55-19.55c-1.3-1.302-3.412-1.302-4.713,0c-1.303,1.301-1.303,3.412,0,4.713l18.053,18.053  C12.573,35.555,5,45.19,5,50c0,7.907,20.439,28.861,45,28.861c7.058,0,13.771-1.735,19.76-4.389l19.551,19.551  c1.3,1.302,3.41,1.303,4.713,0C95.326,92.723,95.326,90.611,94.023,89.311z M50,27.804c21.152,0,37.824,18.438,38.337,22.119  c-0.323,2.417-7.073,10.638-17.317,16.384l-6.784-6.784c1.86-2.72,2.948-5.997,2.948-9.522c0-9.385-7.709-17.02-17.184-17.02  c-3.5,0-6.755,1.047-9.473,2.834l-5.15-5.15C39.865,28.924,44.796,27.804,50,27.804z M40.624,45.337l13.964,13.965  c-1.389,0.667-2.941,1.052-4.588,1.052c-5.798,0-10.516-4.646-10.516-10.354C39.484,48.322,39.901,46.74,40.624,45.337z   M45.412,40.699c1.389-0.667,2.942-1.052,4.588-1.052c5.799,0,10.516,4.644,10.516,10.353c0,1.678-0.417,3.26-1.14,4.663  L45.412,40.699z M50,72.195c-21.152,0-37.824-18.438-38.336-22.119c0.323-2.417,7.073-10.636,17.315-16.383l6.786,6.785  c-1.86,2.72-2.948,5.997-2.948,9.522c0,9.385,7.709,17.02,17.183,17.02c3.5,0,6.755-1.047,9.473-2.834l5.15,5.15  C60.135,71.076,55.204,72.195,50,72.195z"/></svg>
