<svg xmlns="http://www.w3.org/2000/svg" xmlns:xlink="http://www.w3.org/1999/xlink" version="1.1" x="0px" y="0px" viewBox="0 0 100 125" enable-background="new 0 0 100 100" xml:space="preserve"><g><path fill="#fff" d="M68.581,35.952H31.419c-1.328,0-2.563,0.395-3.604,1.065c1.319-2.422,3.721-4.489,6.407-5.21l22.698-6.092   c2.562-0.688,4.927-0.524,6.173,0.432c0.526,0.403,0.781,0.901,0.781,1.523v5.125h2v-5.125c0-1.25-0.541-2.325-1.564-3.11   c-1.754-1.345-4.711-1.636-7.909-0.777l-22.698,6.092c-4.938,1.325-8.954,6.252-8.954,10.982v1.763v6.049v21.362   c0,3.678,2.992,6.669,6.669,6.669h37.161c3.678,0,6.669-2.991,6.669-6.669V42.622C75.25,38.944,72.258,35.952,68.581,35.952z    M73.25,70.033c0,2.574-2.095,4.669-4.669,4.669H31.419c-2.575,0-4.669-2.095-4.669-4.669V48.671v-6.049   c0-2.575,2.095-4.669,4.669-4.669h37.161c2.575,0,4.669,2.095,4.669,4.669V70.033z"/><circle fill="#fff" cx="66.813" cy="56.327" r="3.188"/></g></svg>
