<svg xmlns="http://www.w3.org/2000/svg" viewBox="0 0 26 26">
    <path fill="#fff" d="M 6.3125 0.03125 L 8.09375 5.875 L 8.09375 9.6875 L 9.59375 9.6875 L 9.59375 5.6875 L 11.3125 0.03125 L 9.8125 0.03125 L 8.875 3.875 L 8.78125 3.875 L 7.8125 0.03125 L 6.3125 0.03125 z M 13.21875 2.375 C 12.61675 2.375 12.13825 2.548 11.78125 2.875 C 11.42425 3.201 11.25 3.6355 11.25 4.1875 L 11.25 7.875 C 11.25 8.481 11.43325 8.98675 11.78125 9.34375 C 12.13225 9.70175 12.57425 9.875 13.15625 9.875 C 13.75925 9.875 14.24875 9.69075 14.59375 9.34375 C 14.93675 8.99475 15.09375 8.51625 15.09375 7.90625 L 15.09375 4.21875 C 15.09375 3.67675 14.9125 3.24925 14.5625 2.90625 C 14.2135 2.55925 13.76975 2.375 13.21875 2.375 z M 16.21875 2.5625 L 16.21875 8.53125 C 16.21875 8.95825 16.31275 9.25675 16.46875 9.46875 C 16.62475 9.68075 16.85025 9.78125 17.15625 9.78125 C 17.40425 9.78125 17.64325 9.7125 17.90625 9.5625 C 18.17225 9.4115 18.4435 9.19725 18.6875 8.90625 L 18.6875 9.6875 L 20 9.6875 L 20 2.5625 L 18.6875 2.5625 L 18.6875 7.96875 C 18.5635 8.12275 18.43125 8.24475 18.28125 8.34375 C 18.13425 8.44375 18.00425 8.5 17.90625 8.5 C 17.78325 8.5 17.679 8.48025 17.625 8.40625 C 17.568 8.33125 17.5625 8.19725 17.5625 8.03125 L 17.5625 2.5625 L 16.21875 2.5625 z M 13.15625 3.625 C 13.33125 3.625 13.48675 3.655 13.59375 3.75 C 13.70175 3.846 13.75 3.971 13.75 4.125 L 13.75 8.03125 C 13.75 8.22325 13.69875 8.36175 13.59375 8.46875 C 13.48675 8.57875 13.33725 8.625 13.15625 8.625 C 12.98125 8.625 12.843 8.57475 12.75 8.46875 C 12.652 8.36175 12.625 8.22625 12.625 8.03125 L 12.625 4.125 C 12.625 3.971 12.68025 3.846 12.78125 3.75 C 12.88225 3.655 12.99425 3.625 13.15625 3.625 z M 13 11.15625 C 10.405 11.15325 7.862 11.17725 5.375 11.28125 C 3.636 11.28125 2.21875 12.68425 2.21875 14.40625 C 2.11475 15.76825 2.0585 17.135 2.0625 18.5 C 2.0585 19.863 2.11375 21.22875 2.21875 22.59375 C 2.21875 24.31775 3.636 25.71875 5.375 25.71875 C 7.862 25.82175 10.405 25.84875 13 25.84375 C 15.597 25.84975 18.139 25.82175 20.625 25.71875 C 22.365 25.71875 23.78125 24.31775 23.78125 22.59375 C 23.88525 21.22875 23.9425 19.863 23.9375 18.5 C 23.9435 17.135 23.88625 15.76825 23.78125 14.40625 C 23.78125 12.68425 22.365 11.28125 20.625 11.28125 C 18.139 11.17725 15.597 11.15325 13 11.15625 z M 3.75 13.375 L 8.34375 13.375 C 8.42675 13.375 8.5 13.44825 8.5 13.53125 L 8.5 14.9375 C 8.5 15.0205 8.42675 15.09375 8.34375 15.09375 L 6.9375 15.09375 L 6.9375 23.1875 C 6.9375 23.2705 6.8955 23.34375 6.8125 23.34375 L 5.3125 23.34375 C 5.2295 23.34375 5.15625 23.2705 5.15625 23.1875 L 5.15625 15.09375 L 3.75 15.09375 C 3.667 15.09375 3.625 15.0205 3.625 14.9375 L 3.625 13.53125 C 3.625 13.44825 3.667 13.375 3.75 13.375 z M 13.40625 13.375 L 14.75 13.375 C 14.833 13.375 14.90625 13.44825 14.90625 13.53125 L 14.90625 16.25 C 15.01625 16.15 15.131 16.068 15.25 16 C 15.476 15.874 15.7075 15.8125 15.9375 15.8125 C 16.4055 15.8125 16.75 15.99875 17 16.34375 C 17.239 16.67475 17.375 17.139 17.375 17.75 L 17.375 21.71875 C 17.375 22.25975 17.26025 22.67575 17.03125 22.96875 C 16.79425 23.27475 16.439 23.4375 16 23.4375 C 15.721 23.4375 15.477 23.364 15.25 23.25 C 15.129 23.188 15.01725 23.12925 14.90625 23.03125 L 14.90625 23.1875 C 14.90625 23.2705 14.833 23.34375 14.75 23.34375 L 13.40625 23.34375 C 13.32325 23.34375 13.25 23.2705 13.25 23.1875 L 13.25 13.53125 C 13.25 13.44825 13.32325 13.375 13.40625 13.375 z M 20.21875 15.71875 C 20.86675 15.71875 21.397 15.9215 21.75 16.3125 C 22.101 16.7015 22.28125 17.25675 22.28125 17.96875 L 22.28125 19.8125 C 22.28125 19.8955 22.208 19.9375 22.125 19.9375 L 19.75 19.9375 L 19.75 21.15625 C 19.75 21.59225 19.79575 21.76475 19.84375 21.84375 C 19.88275 21.90775 19.94825 22 20.15625 22 C 20.32425 22 20.441 21.955 20.5 21.875 C 20.528 21.833 20.59375 21.67725 20.59375 21.15625 L 20.59375 20.65625 C 20.59375 20.57325 20.667 20.5 20.75 20.5 L 22.125 20.5 C 22.208 20.5 22.28125 20.57325 22.28125 20.65625 L 22.28125 21.1875 C 22.28125 21.9555 22.07475 22.5415 21.71875 22.9375 C 21.36175 23.3375 20.83 23.53125 20.125 23.53125 C 19.489 23.53125 18.994 23.33125 18.625 22.90625 C 18.261 22.48725 18.0625 21.9085 18.0625 21.1875 L 18.0625 17.96875 C 18.0625 17.31275 18.25525 16.792 18.65625 16.375 C 19.05825 15.957 19.58475 15.71875 20.21875 15.71875 z M 8.34375 15.90625 L 9.65625 15.90625 C 9.73925 15.90625 9.8125 15.9795 9.8125 16.0625 L 9.8125 21.53125 C 9.8125 21.71025 9.82375 21.7845 9.84375 21.8125 C 9.85275 21.8245 9.887 21.875 10 21.875 C 10.038 21.875 10.12425 21.858 10.28125 21.75 C 10.40925 21.664 10.523 21.5605 10.625 21.4375 L 10.625 16.0625 C 10.625 15.9795 10.69825 15.90625 10.78125 15.90625 L 12.125 15.90625 C 12.208 15.90625 12.25 15.9795 12.25 16.0625 L 12.25 23.1875 C 12.25 23.2705 12.208 23.34375 12.125 23.34375 L 10.78125 23.34375 C 10.69825 23.34375 10.625 23.2705 10.625 23.1875 L 10.625 22.78125 C 10.448 22.95325 10.27775 23.0835 10.09375 23.1875 C 9.80475 23.3535 9.53 23.4375 9.25 23.4375 C 8.895 23.4375 8.6215 23.3145 8.4375 23.0625 C 8.2635 22.8235 8.1875 22.48525 8.1875 22.03125 L 8.1875 16.0625 C 8.1875 15.9795 8.26075 15.90625 8.34375 15.90625 z M 15.25 17.25 C 15.199812 17.258625 15.14825 17.285 15.09375 17.3125 C 15.03175 17.3435 14.97025 17.40375 14.90625 17.46875 L 14.90625 21.78125 C 14.98625 21.86225 15.052 21.93175 15.125 21.96875 C 15.206 22.00875 15.286 22.03125 15.375 22.03125 C 15.544 22.03125 15.609 21.9605 15.625 21.9375 C 15.666 21.8855 15.6875 21.76825 15.6875 21.53125 L 15.6875 17.84375 C 15.6875 17.63975 15.66675 17.471 15.59375 17.375 C 15.52025 17.276 15.400563 17.224125 15.25 17.25 z M 20.1875 17.28125 C 20.0285 17.28125 19.90875 17.31725 19.84375 17.40625 C 19.79675 17.47225 19.75 17.63575 19.75 17.96875 L 19.75 18.53125 L 20.59375 18.53125 L 20.59375 17.96875 C 20.59375 17.64075 20.55 17.47925 20.5 17.40625 C 20.438 17.31925 20.3405 17.28125 20.1875 17.28125 z"></path>
</svg>
