<svg xmlns="http://www.w3.org/2000/svg" xmlns:xlink="http://www.w3.org/1999/xlink" version="1.1" x="0px" y="0px" viewBox="0 0 100 125" enable-background="new 0 0 100 100" xml:space="preserve"><g><path fill="#8492A6" d="M94.732,65.408l-9.717-0.047l0.033-7.135l0.002-0.352l-0.353-0.002l-8-0.039l0.018-3.775l0.002-0.41l-0.413-0.002   l-7.887-0.037l-0.447-0.002l-0.003,0.453l-0.018,3.691l-1.534-0.007l-0.479-0.002l-0.002,0.481l-0.151,31.321l-1.034-0.005   l0.029-5.998l0.003-0.675L64.1,82.865l-0.754-0.004l0.033-7.092l0.003-0.721l-0.728-0.004l-1.209-0.006L61.6,33.52l0.002-0.885   l-0.892-0.003l-0.599-0.002l0.014-3.62l0.003-0.907L59.215,28.1h-0.842l0.007-1.969l0.003-0.923l-0.93-0.003l-0.655-0.002   l-0.946-7.255l0.004-0.818l0.002-0.962l-0.819-0.003l-0.063-6.85l-0.009-0.98l-0.987-0.004L53.793,8.33l-0.98-0.004l-0.017,0.988   l-0.11,6.786l-0.826-0.003l-0.004,1.032l-0.002,0.779l-0.986,7.159l-0.544-0.002l-1.063-0.004l-0.004,1.071l-0.007,1.801   l-0.693-0.003l-1.08-0.004l-0.004,1.088L47.46,32.42l-0.406-0.001l-1.101-0.004l-0.005,1.11L45.78,74.486l-0.664-0.004   l-1.282-0.006l-0.006,1.295l-0.03,6.442l-0.128-0.001l-1.324-0.006l-0.006,1.336l-0.024,5.273l-0.614-0.004l0.11-27.436   l0.006-1.486l-1.497-0.004l-3.576-0.011l0.009-3.219l0.004-1.515l-1.522-0.004l-5.409-0.016l-1.53-0.004l-0.003,1.537l-0.006,3.182   l-1,0.002l-1.539,0.003l0.003,1.533l0.052,27.333l-2.042,0.014L23.509,50.79L23.5,49.596l-1.181,0.008l-1.102,0.007l-0.055-7.116   l-0.009-1.123l-1.101,0.013l-6.121,0.071l-0.023-1.96l-0.012-1.004l-0.981,0.011L7.82,38.562l-0.945,0.011l0.011,0.923l0.024,2.111   l-1.023,0.012L5,41.628l0.011,0.867c0.098,7.948,0.164,15.897,0.31,23.845c0.132,7.948,0.243,15.896,0.419,23.846h0.296   c0.176-7.949,0.286-15.896,0.419-23.846c0.14-7.652,0.208-15.305,0.3-22.958l1.066,0.012l0.889,0.01l0.011-0.91l0.024-2.055   l3.168,0.037l-0.023,2.018l-0.012,1.016l1.039,0.012l6.018,0.07l-0.055,7.201l-0.009,1.166l1.183,0.008l1.07,0.008L20.87,90.186   l-0.01,1.441l1.461,0.009l4.968,0.031l1.479,0.009l0.003-1.49l0.051-27.268l1.005,0.002l1.544,0.003l-0.003-1.544l-0.006-3.191   l2.361-0.006l0.009,3.198l0.004,1.509l1.501-0.004l3.599-0.01l0.109,27.311l0.006,1.383l1.371-0.006l3.349-0.015l1.367-0.006   l-0.006-1.354l-0.024-5.316h0.11l1.33-0.006l-0.006-1.318l-0.03-6.49l0.644-0.004l1.284-0.006l-0.005-1.271l-0.169-41.147   l0.392-0.001l1.104-0.004l-0.004-1.096l-0.012-3.43l0.678-0.002l1.08-0.004L51.4,29.016l-0.006-1.82l0.396-0.001l0.934-0.003   l0.118-0.917l1.06-8.119h0.037l1.117,8.102l0.11,0.811l0.813-0.003l0.551-0.002l0.007,1.952l0.003,0.92l0.913-0.003l0.858-0.003   l0.013,3.597l0.003,0.897l0.89-0.003l0.61-0.002l0.152,41.356l0.002,0.735l0.729-0.004l1.226-0.006l0.035,7.046l0.002,0.688   l0.683-0.002l0.768-0.004l0.029,5.959l0.003,0.649l0.643-0.003l2.315-0.011l0.638-0.003l-0.003-0.633l-0.153-31.481l1.521-0.007   l0.475-0.002l-0.002-0.469l-0.02-3.718l7.023-0.034l0.019,3.752l0.002,0.395l0.392-0.002l8.043-0.039l0.033,7.096l0.002,0.316   l0.314-0.001l9.769-0.047l0.117,24.2h0.296L95,65.677v-0.268L94.732,65.408z"/></g></svg>
