<svg xmlns="http://www.w3.org/2000/svg" width="855" height="739"><path fill-rule="evenodd" d="M159.44.102c10.675-.12 21.888 2.875 31.356 4.806C725.77 115.336 800.798 130.712 826 135.696c11.828 3.283 15.294 6.52 18.467 8.91 1.044.787 4.304 4.482 4.99 5.567 2.644 4.18 4.713 8.413 5.07 13.434 1.005 14.09-2.143 20.758-4.046 27.84-6.778 25.22-16.655 65.356-18.476 71.92-4.407 15.896-36.197 136.868-114.626 438.858-5.076 17.877-8.353 23.5-16.753 29.83-3.97 2.99-7.532 4.43-12.526 5.308-11.356 1.304-17.306-.598-29.9-3.725-12.377-3.468-342.538-92.46-618.597-167.246-13.405-3.65-25.107-5.51-31.937-13.493-2.77-3.952-4.376-6.872-5.84-12.253-2.417-8.877.768-22.11 3.04-29.58 6.734-22.134 10.868-45.732 17.97-67.73 2.42-7.503 3.24-14.876 5.528-22.393 5.034-16.523 17.536-70.97 97.776-375.467.99-3.755 2.008-7.737 2.852-10.734 2.415-8.568 5.245-16.954 9.978-23.334 2.785-3.755 7.392-7.3 11.942-9.208 1.937-.812 5.002-1.577 8.528-2.1z"/></svg>