<svg xmlns="http://www.w3.org/2000/svg" xmlns:xlink="http://www.w3.org/1999/xlink" version="1.1" width="100" height="60" viewBox="0 0 70 30">
    <path fill="#265cdc" d="M59.439 19.41c-25.462-1.95-46.514 4.12-51.222 6.37-2.625 1.2-2.809 2.7-2.432 3.529.341.635 1.592 1.006 2.966.335 10.106-5.399 30.554-9.705 50.697-8.47.483-.002.873-.399.871-.887-.002-.487-.396-.88-.879-.878zm6.309-7.57c-1.067 1.2-2.625 2.1-3.115 1.65-.49-.45 0-1.87 0-1.87 2.502-1.615 7.367-5.735 7.367-8.884 0-2.92-2.625-3.82-5.399-1.12-2.244 2.413-3.863 5.346-4.716 8.54-1.444 1.42-3.727 3.22-5.775 3.22-1.067 0-1.365-.75-1.216-1.765 1.75-.026 6.606-1.376 6.606-5.435-.007-.678-.294-1.322-.793-1.778-.498-.455-1.162-.681-1.832-.622-2.205 0-5.014 2.25-6.387 5.399-.375-.07-.74-.189-1.085-.353.359-.773.652-1.576.875-2.4.306-1.65-.376-2.7-1.75-2.55-.875.071-1.899.821-2.126 2.55-.092.876.066 1.761.455 2.55-.604 1.87-3.036 4.2-3.876 4.12-.84-.079.114-3.388.954-5.858.46-.474.823-1.035 1.067-1.65.235-.481.072-1.063-.376-1.35-1.251-.457-2.64.13-3.194 1.35-.334.602-.627 1.227-.875 1.87-.682.821-1.75 1.87-2.056 1.765-.455-.3 1.067-2.32.875-3.45-.136-.93-.971-1.59-1.899-1.5-1.374.194-3.194 2.788-3.194 2.788.214-.473.341-.981.376-1.5-.079-.97-1.899-1.42-2.809.371-.623 1.716-1.081 3.489-1.365 5.294-.376.821-1.899 3.22-3.115 3.3-.989.071.227-4.27.376-4.5.534-.821 1.216-2.55 1.067-3.3.013-.364-.15-.712-.436-.935-.286-.222-.662-.292-1.008-.186-.612.161-1.133.565-1.444 1.12-.437-.546-1.137-.803-1.82-.671-4.042.432-6.606 7.402-6.317 10.711.227 1.765 1.067 2.85 2.625 2.647 1.75-.221 3.194-2.77 3.194-2.77s.376 2.1 2.284 1.87c1.413-.436 2.659-1.298 3.57-2.47-.044.119-.071.244-.079.371-.306 1.765 2.625 1.57 2.887.221.875-6.67 3.115-9.44 3.797-9.44.534 0-1.444 3.15-.306 4.35.875 1.05 2.432.221 3.727-.882-.226.832-.352 1.688-.376 2.55-.079 1.87.604 3.37 2.432 3.3 2.432-.071 5.014-3.07 6.685-5.92.44.289.929.493 1.444.6-.174.667-.239 1.359-.192 2.047.149 2.17 1.671 3 3.421 2.92 2.056-.071 4.48-1.65 6.125-3.07.008.082-.021.163-.079.221-.149 1.05.079 3 1.592 3.07 1.75.15 4.786-1.65 6.309-3.529 1.094-.812-.192-2.012-1.102-1.041v.035zm1.627-9.026c.185.019.321.183.306.371 0 1.87-4.716 5.849-4.716 5.849s3.08-6.22 4.41-6.22zm-11.375 3.891c.157-.014.311.047.416.165.105.118.149.279.118.435 0 1.05-1.444 1.87-3.036 1.87.849-1.235 1.837-2.47 2.502-2.47zm-31.499 2.929c-.149 1.12-2.126 6.176-3.194 6.176-1.365.071.682-7.12 2.887-7.058.429-.018.429.282.306.882zm-17.123 1.35c1.295 0-1.067 6.67-.761 9.59.306 2.92 3.57 2.1 3.342.371-.376-2.85 1.592-11.919 3.57-11.919 1.444 0-1.592 6.22-.989 10.12.376 2.55 3.876 1.765 3.5.15-1.067-5.091 2.511-10.04 2.047-13.631-.227-1.5-1.067-2.32-2.056-2.32-3.272 0-5.932 6.591-5.932 6.591s.315-3.758-2.345-3.9c-3.876-.229-7.831 9.37-7.752 18.06.079 2.77 3.57 2.32 3.342.071-.227-3.873 2.056-13.181 4.034-13.181z"></path>
</svg>
