<?xml version="1.0" standalone="no"?>
<!DOCTYPE svg PUBLIC "-//W3C//DTD SVG 1.1//EN" "http://www.w3.org/Graphics/SVG/1.1/DTD/svg11.dtd" >
<svg>
<metadata>
Created by FontForge 20090914 at Sat Jun 16 14:24:37 2012
 By www-data
Digitised data (c) 2004 Monotype Imaging. All Rights Reserved. Neo Sans is designed by Sebastian Lester.
</metadata>
<defs>
<font id="NeoSansPro-Medium" horiz-adv-x="630" >
  <font-face 
    font-family="Neo Sans Pro Medium"
    font-weight="500"
    font-stretch="normal"
    units-per-em="1000"
    panose-1="2 11 7 4 3 5 4 4 2 4"
    ascent="765"
    descent="-235"
    x-height="563.999"
    cap-height="743"
    bbox="-73 -216.007 1475 999.999"
    underline-thickness="71"
    underline-position="-8"
    unicode-range="U+0020-U+FB04"
  />
<missing-glyph horiz-adv-x="500" 
d="M12 665h475v-665h-475v665zM250 375l161 243h-323zM60 91l7 10l18 27l25.5 39l29.5 45l81 121l-161 242v-484zM278 333l162 -243v485zM250 290l-162 -242h323z" />
    <glyph glyph-name="f_b" unicode="fb" horiz-adv-x="972" 
d="M795 320c0 20.667 -1.49902 39.667 -4.49902 57s-8.5 32.333 -16.5 45s-19 22.667 -33 30s-31.667 11 -53 11c-12 0 -27.5 -0.666992 -46.5 -2s-35.5 -3 -49.5 -5v-349c9.33301 -2 23.166 -3.66699 41.499 -5s36.5 -2 54.5 -2c21.333 0 39 3.66699 53 11s25 17.333 33 30
s13.5 27.667 16.5 45s4.5 36.333 4.5 57v77zM592.001 564c18.667 2.66699 36.3311 4.5 52.998 5.5s31 1.5 43 1.5c80.667 0 140.667 -22.167 180 -66.5s59 -105.833 59 -184.5v-77c0 -78.667 -19.667 -140.167 -59 -184.5s-99.333 -66.5 -180 -66.5
c-32 0 -65.667 2.33301 -101 7s-68.666 11 -99.999 19c-11.333 3.33301 -18.666 6.83301 -21.999 10.5s-5 9.16699 -5 16.5v628h-115c-20 0 -35.833 -0.833008 -47.5 -2.5s-20.5 -4.66699 -26.5 -9s-10 -10.5 -12 -18.5s-3 -18 -3 -30v-49h96c5.33301 0 10 -2 14 -6
s6 -8.66699 6 -14v-60c0 -5.33301 -2 -9.83301 -6 -13.5s-8.66699 -5.5 -14 -5.5h-96v-444c0 -5.33301 -2 -10.166 -6 -14.499s-8.66699 -6.5 -14 -6.5h-91c-5.33301 0 -10.166 2.16699 -14.499 6.5s-6.5 9.16602 -6.5 14.499v444l-89 14c-5.33301 1.33301 -10 3.5 -14 6.5
s-6 7.16699 -6 12.5v46c0 5.33301 2 10 6 14s8.66699 6 14 6h89v49c0 32 3.5 58.333 10.5 79s18.333 37 34 49s36.5 20.333 62.5 25s58 7 96 7c6 0 17 -0.333008 33 -1s32.667 -1.5 50 -2.5s33.666 -2.16699 48.999 -3.5s25.333 -3 30 -5h84c5.33301 0 9.83301 -2 13.5 -6
s5.5 -8.66699 5.5 -14v-177z" />
    <glyph glyph-name="f_f_b" unicode="ffb" horiz-adv-x="1310" 
d="M1134 320c0 20.667 -1.49902 39.667 -4.49902 57s-8.5 32.333 -16.5 45s-19 22.667 -33 30s-31.667 11 -53 11c-12 0 -27.5 -0.666992 -46.5 -2s-35.5 -3 -49.5 -5v-349c9.33301 -2 23.166 -3.66699 41.499 -5s36.5 -2 54.5 -2c21.333 0 39 3.66699 53 11
s25 17.333 33 30s13.5 27.667 16.5 45s4.5 36.333 4.5 57v77zM256.001 465l-0.00390625 -443.999c0 -5.33301 -2 -10.166 -6 -14.499s-8.66699 -6.5 -14 -6.5h-91c-5.33301 0 -10.166 2.16699 -14.499 6.5s-6.5 9.16602 -6.5 14.499v444l-89 14
c-5.33301 1.33301 -10 3.5 -14 6.5s-6 7.16699 -6 12.5v46c0 5.33301 2 10 6 14s8.66699 6 14 6h89v49c0 32 4 58.333 12 79s19.333 37 34 49s32 20.333 52 25s41.667 7 65 7c13.333 0 26 -0.833008 38 -2.5s22.667 -3.5 32 -5.5c7.33301 -2 12.166 -4 14.499 -6
s3.5 -5.33301 3.5 -10v-59c0 -6 -1.66699 -10.333 -5 -13s-6.66602 -4 -9.99902 -4h-45c-24 0 -39.833 -3.83301 -47.5 -11.5s-11.5 -23.834 -11.5 -48.501v-49h207v49c0 32 3.5 58.333 10.5 79s18.333 37 34 49s36.5 20.333 62.5 25s58 7 96 7c6 0 17 -0.333008 33 -1
s32.667 -1.5 50 -2.5s33.666 -2.16699 48.999 -3.5s25.333 -3 30 -5h84c5.33301 0 9.83301 -2 13.5 -6s5.5 -8.66699 5.5 -14v-177c18.667 2.66699 36.334 4.5 53.001 5.5s31 1.5 43 1.5c80.667 0 140.667 -22.167 180 -66.5s59 -105.833 59 -184.5v-77
c0 -78.667 -19.667 -140.167 -59 -184.5s-99.333 -66.5 -180 -66.5c-32 0 -65.667 2.33301 -101 7s-68.666 11 -99.999 19c-11.333 3.33301 -18.666 6.83301 -21.999 10.5s-5 9.16699 -5 16.5v628h-115c-20 0 -35.833 -0.833008 -47.5 -2.5s-20.5 -4.66699 -26.5 -9
s-10 -10.5 -12 -18.5s-3 -18 -3 -30v-49h96c5.33301 0 10 -2 14 -6s6 -8.66699 6 -14v-60c0 -5.33301 -2 -9.83301 -6 -13.5s-8.66699 -5.5 -14 -5.5h-96v-444c0 -5.33301 -2 -10.166 -6 -14.499s-8.66699 -6.5 -14 -6.5h-91c-5.33301 0 -10.166 2.16699 -14.499 6.5
s-6.83301 9.16602 -7.5 14.499v444h-206z" />
    <glyph glyph-name="f_f_h" unicode="ffh" horiz-adv-x="1325" 
d="M256 465l-0.000976562 -443.999c0 -5.33301 -2 -10.166 -6 -14.499s-8.66699 -6.5 -14 -6.5h-91c-5.33301 0 -10.166 2.16699 -14.499 6.5s-6.5 9.16602 -6.5 14.499v444l-89 14c-5.33301 1.33301 -10 3.5 -14 6.5s-6 7.16699 -6 12.5v46c0 5.33301 2 10 6 14
s8.66699 6 14 6h89v49c0 32 4 58.333 12 79s19.333 37 34 49s32 20.333 52 25s41.667 7 65 7c13.333 0 26 -0.833008 38 -2.5s22.667 -3.5 32 -5.5c7.33301 -2 12.166 -4 14.499 -6s3.5 -5.33301 3.5 -10v-59c0 -6 -1.66699 -10.333 -5 -13s-6.66602 -4 -9.99902 -4h-45
c-24 0 -39.833 -3.83301 -47.5 -11.5s-11.5 -23.834 -11.5 -48.501v-49h207v49c0 32 3.5 58.333 10.5 79s18.333 37 34 49s36.5 20.333 62.5 25s58 7 96 7c6 0 17 -0.333008 33 -1s32.667 -1.5 50 -2.5s33.666 -2.16699 48.999 -3.5s25.333 -3 30 -5h83
c5.33301 0 9.83301 -2 13.5 -6s5.5 -8.66699 5.5 -14v-207c19.333 11.333 40.333 20.333 63 27s52 10 88 10c34.667 0 63.5 -5.66699 86.5 -17s41.333 -27 55 -47s23.334 -43.5 29.001 -70.5s8.5 -55.833 8.5 -86.5v-329c0 -5.33301 -2 -10.166 -6 -14.499
s-8.66699 -6.5 -14 -6.5h-92c-5.33301 0 -10 2.16699 -14 6.5s-6 9.16602 -6 14.499v329c0 22 -1.16699 40 -3.5 54s-6.5 25 -12.5 33s-14.333 13.667 -25 17s-24.334 5 -41.001 5c-34 0 -72.667 -11.333 -116 -34v-404c0 -5.33301 -2 -10.166 -6 -14.499
s-8.66699 -6.5 -14 -6.5h-93c-5.33301 0 -9.83301 2.16699 -13.5 6.5s-5.5 9.16602 -5.5 14.499v652h-114c-20 0 -35.833 -0.833008 -47.5 -2.5s-20.667 -4.66699 -27 -9s-10.5 -10.5 -12.5 -18.5s-3 -18 -3 -30v-49h96c5.33301 0 10 -2 14 -6s6 -8.66699 6 -14v-60
c0 -5.33301 -2 -9.83301 -6 -13.5s-8.66699 -5.5 -14 -5.5h-96v-444c0 -5.33301 -2 -10.166 -6 -14.499s-8.66699 -6.5 -14 -6.5h-91c-5.33301 0 -10.166 2.16699 -14.499 6.5s-6.5 9.16602 -6.5 14.499v444h-206z" />
    <glyph glyph-name="f_f_j" unicode="ffj" horiz-adv-x="1001" 
d="M933 -42c0 -30.667 -3.33594 -56.167 -10.0029 -76.5s-16.334 -36.5 -29.001 -48.5s-28.167 -20.5 -46.5 -25.5s-39.166 -7.5 -62.499 -7.5c-11.333 0 -22.166 0.5 -32.499 1.5s-21.5 2.5 -33.5 4.5c-12.667 2 -19 8 -19 18v65c0 10.667 7 16 21 16h45
c16 0 25.833 3.83301 29.5 11.5s5.5 21.5 5.5 41.5v507h-207v-444c0 -5.33301 -2 -10.166 -6 -14.499s-8.66699 -6.5 -14 -6.5h-91c-5.33301 0 -10.166 2.16699 -14.499 6.5s-6.5 9.16602 -6.5 14.499v444h-206v-444c0 -5.33301 -2 -10.166 -6 -14.499
s-8.66699 -6.5 -14 -6.5h-91c-5.33301 0 -10.166 2.16699 -14.499 6.5s-6.5 9.16602 -6.5 14.499v444l-89 14c-5.33301 1.33301 -10 3.5 -14 6.5s-6 7.16699 -6 12.5v46c0 5.33301 2 10 6 14s8.66699 6 14 6h89v49c0 32 4.16699 58.333 12.5 79s20 37 35 49
s33.167 20.333 54.5 25s45 7 71 7c12 0 22.667 -0.833008 32 -2.5s18.666 -3.5 27.999 -5.5c4 -1.33301 8 -3.16602 12 -5.49902s6 -5.83301 6 -10.5v-59c0 -6 -1.66699 -10.333 -5 -13s-6.66602 -4 -9.99902 -4h-45c-24 0 -39.833 -3.83301 -47.5 -11.5
s-11.5 -23.834 -11.5 -48.501v-49h206v49c0 32 4.16699 58.333 12.5 79s20 37 35 49s33.167 20.333 54.5 25s45 7 71 7c12 0 22.667 -0.833008 32 -2.5s18.666 -3.5 27.999 -5.5c4 -1.33301 8 -3.16602 12 -5.49902s6 -5.83301 6 -10.5v-59c0 -6 -1.66699 -10.333 -5 -13
s-6.66602 -4 -9.99902 -4h-45c-24 0 -39.833 -3.83301 -47.5 -11.5s-11.5 -23.834 -11.5 -48.501v-49h319c5.33301 0 10 -2 14 -6s6 -8.66699 6 -14v-586zM935.997 659c0 -5.33301 -2.16699 -10 -6.5 -14s-9.16602 -6 -14.499 -6h-96c-5.33301 0 -10 2 -14 6
s-6 8.66699 -6 14v88c0 5.33301 2 10 6 14s8.66699 6 14 6h96c5.33301 0 10.166 -2 14.499 -6s6.5 -8.66699 6.5 -14v-88z" />
    <glyph glyph-name="f_f_k" unicode="ffk" horiz-adv-x="1282" 
d="M256 465l-0.000976562 -444.003c0 -5.33301 -2 -10.166 -6 -14.499s-8.66699 -6.5 -14 -6.5h-91c-5.33301 0 -10.166 2.16699 -14.499 6.5s-6.5 9.16602 -6.5 14.499v444l-89 14c-5.33301 1.33301 -10 3.5 -14 6.5s-6 7.16699 -6 12.5v46c0 5.33301 2 10 6 14
s8.66699 6 14 6h89v49c0 32 4.16699 58.333 12.5 79s20 37 35 49s33.167 20.333 54.5 25s45 7 71 7c12 0 22.667 -0.833008 32 -2.5s18.666 -3.5 27.999 -5.5c4 -1.33301 8 -3.16602 12 -5.49902s6 -5.83301 6 -10.5v-59c0 -6 -1.66699 -10.333 -5 -13
s-6.66602 -4 -9.99902 -4h-45c-24 0 -39.833 -3.83301 -47.5 -11.5s-11.5 -23.834 -11.5 -48.501v-49h207v49c0 32 3.5 58.333 10.5 79s18.333 37 34 49s36.5 20.333 62.5 25s58 7 96 7c6 0 17 -0.333008 33 -1s32.667 -1.5 50 -2.5s33.666 -2.16699 48.999 -3.5
s25.333 -3 30 -5h83c5.33301 0 9.83301 -2 13.5 -6s5.5 -8.66699 5.5 -14v-417l171 228c3.33301 4.66699 7.16602 7.83398 11.499 9.50098s8.16602 2.5 11.499 2.5h112c10 0 15 -3.66699 15 -11c0 -3.33301 -1.33301 -6.66602 -4 -9.99902l-201 -247l203 -276
c2 -3.33301 3 -6 3 -8c0 -3.33301 -1.33301 -6.16602 -4 -8.49902s-6 -3.5 -10 -3.5h-122c-5.33301 0 -10.666 2.16699 -15.999 6.5s-9.66602 8.83301 -12.999 13.5l-157 228v-227c0 -5.33301 -2 -10.166 -6 -14.499s-8.66699 -6.5 -14 -6.5h-92
c-5.33301 0 -10 2.16699 -14 6.5s-6 9.16602 -6 14.499v652h-114c-20 0 -35.833 -0.833008 -47.5 -2.5s-20.667 -4.66699 -27 -9s-10.5 -10.5 -12.5 -18.5s-3 -18 -3 -30v-49h96c5.33301 0 10 -2 14 -6s6 -8.66699 6 -14v-60c0 -5.33301 -2 -9.83301 -6 -13.5
s-8.66699 -5.5 -14 -5.5h-96v-444c0 -5.33301 -2 -10.166 -6 -14.499s-8.66699 -6.5 -14 -6.5h-91c-5.33301 0 -10.166 2.16699 -14.499 6.5s-6.5 9.16602 -6.5 14.499v444h-206z" />
    <glyph glyph-name="f_h" unicode="fh" horiz-adv-x="987" 
d="M592 534c19.333 11.333 40.333 20.333 63 27s52 10 88 10c34.667 0 63.5 -5.66699 86.5 -17s41.333 -27 55 -47s23.334 -43.5 29.001 -70.5s8.5 -55.833 8.5 -86.5v-329c0 -5.33301 -2 -10.166 -6 -14.499s-8.66699 -6.5 -14 -6.5h-92c-5.33301 0 -10 2.16699 -14 6.5
s-6 9.16602 -6 14.499v329c0 22 -1.16699 40 -3.5 54s-6.5 25 -12.5 33s-14.333 13.667 -25 17s-24.334 5 -41.001 5c-34 0 -72.667 -11.333 -116 -34v-404c0 -5.33301 -2 -10.166 -6 -14.499s-8.66699 -6.5 -14 -6.5h-93c-5.33301 0 -9.83301 2.16699 -13.5 6.5
s-5.5 9.16602 -5.5 14.499v652h-114c-20 0 -35.833 -0.833008 -47.5 -2.5s-20.667 -4.66699 -27 -9s-10.5 -10.5 -12.5 -18.5s-3 -18 -3 -30v-49h96c5.33301 0 10 -2 14 -6s6 -8.66699 6 -14v-60c0 -5.33301 -2 -9.83301 -6 -13.5s-8.66699 -5.5 -14 -5.5h-96v-444
c0 -5.33301 -2 -10.166 -6 -14.499s-8.66699 -6.5 -14 -6.5h-91c-5.33301 0 -10.166 2.16699 -14.499 6.5s-6.5 9.16602 -6.5 14.499v444l-89 14c-5.33301 1.33301 -10 3.5 -14 6.5s-6 7.16699 -6 12.5v46c0 5.33301 2 10 6 14s8.66699 6 14 6h90v49
c0 32 3.5 58.333 10.5 79s18.333 37 34 49s36.5 20.333 62.5 25s58 7 96 7c6 0 17 -0.333008 33 -1s32.667 -1.5 50 -2.5s33.666 -2.16699 48.999 -3.5s25.333 -3 30 -5h83c5.33301 0 9.83301 -2 13.5 -6s5.5 -8.66699 5.5 -14v-207z" />
    <glyph glyph-name="f_j" unicode="fj" horiz-adv-x="663" 
d="M595 -42c0 -30.667 -3.33496 -56.167 -10.002 -76.5s-16.334 -36.5 -29.001 -48.5s-28.167 -20.5 -46.5 -25.5s-39.166 -7.5 -62.499 -7.5c-11.333 0 -22.166 0.5 -32.499 1.5s-21.5 2.5 -33.5 4.5c-12.667 2 -19 8 -19 18v65c0 10.667 7 16 21 16h45
c16 0 25.833 3.83301 29.5 11.5s5.5 21.5 5.5 41.5v507h-207v-444c0 -5.33301 -2 -10.166 -6 -14.499s-8.66699 -6.5 -14 -6.5h-91c-5.33301 0 -10.166 2.16699 -14.499 6.5s-6.5 9.16602 -6.5 14.499v444l-89 14c-5.33301 1.33301 -10 3.5 -14 6.5s-6 7.16699 -6 12.5v46
c0 5.33301 2 10 6 14s8.66699 6 14 6h89v49c0 32 4.16699 58.333 12.5 79s20 37 35 49s33.167 20.333 54.5 25s45 7 71 7c12 0 22.667 -0.833008 32 -2.5s18.666 -3.5 27.999 -5.5c4 -1.33301 8 -3.16602 12 -5.49902s6 -5.83301 6 -10.5v-59c0 -6 -1.66699 -10.333 -5 -13
s-6.66602 -4 -9.99902 -4h-45c-24 0 -39.833 -3.83301 -47.5 -11.5s-11.5 -23.834 -11.5 -48.501v-49h319c5.33301 0 10 -2 14 -6s6 -8.66699 6 -14v-586zM597.998 659c0 -5.33301 -2.16699 -10 -6.5 -14s-9.16602 -6 -14.499 -6h-96c-5.33301 0 -10 2 -14 6
s-6 8.66699 -6 14v88c0 5.33301 2 10 6 14s8.66699 6 14 6h96c5.33301 0 10.166 -2 14.499 -6s6.5 -8.66699 6.5 -14v-88z" />
    <glyph glyph-name="f_k" unicode="fk" horiz-adv-x="944" 
d="M592 324l171 227.997c3.33301 4.66699 7.16602 7.83398 11.499 9.50098s8.16602 2.5 11.499 2.5h112c10 0 15 -3.66699 15 -11c0 -3.33301 -1.33301 -6.66602 -4 -9.99902l-201 -247l203 -276c2 -3.33301 3 -6 3 -8c0 -3.33301 -1.33301 -6.16602 -4 -8.49902
s-6 -3.5 -10 -3.5h-122c-5.33301 0 -10.666 2.16699 -15.999 6.5s-9.66602 8.83301 -12.999 13.5l-157 228v-227c0 -5.33301 -2 -10.166 -6 -14.499s-8.66699 -6.5 -14 -6.5h-92c-5.33301 0 -10 2.16699 -14 6.5s-6 9.16602 -6 14.499v652h-114
c-20 0 -35.833 -0.833008 -47.5 -2.5s-20.667 -4.66699 -27 -9s-10.5 -10.5 -12.5 -18.5s-3 -18 -3 -30v-49h96c5.33301 0 10 -2 14 -6s6 -8.66699 6 -14v-60c0 -5.33301 -2 -9.83301 -6 -13.5s-8.66699 -5.5 -14 -5.5h-96v-444c0 -5.33301 -2 -10.166 -6 -14.499
s-8.66699 -6.5 -14 -6.5h-91c-5.33301 0 -10.166 2.16699 -14.499 6.5s-6.5 9.16602 -6.5 14.499v444l-89 14c-5.33301 1.33301 -10 3.5 -14 6.5s-6 7.16699 -6 12.5v46c0 5.33301 2 10 6 14s8.66699 6 14 6h90v49c0 32 3.5 58.333 10.5 79s18.333 37 34 49
s36.5 20.333 62.5 25s58 7 96 7c6 0 17 -0.333008 33 -1s32.667 -1.5 50 -2.5s33.666 -2.16699 48.999 -3.5s25.333 -3 30 -5h83c5.33301 0 9.83301 -2 13.5 -6s5.5 -8.66699 5.5 -14v-417z" />
    <glyph glyph-name="f_f" unicode="ff" horiz-adv-x="728" 
d="M708 690c0 -6 -1.66895 -10.333 -5.00195 -13s-6.66602 -4 -9.99902 -4h-45c-24 0 -39.833 -3.83301 -47.5 -11.5s-11.5 -23.834 -11.5 -48.501v-49h96c5.33301 0 10 -2 14 -6s6 -8.66699 6 -14v-60c0 -5.33301 -2 -9.83301 -6 -13.5s-8.66699 -5.5 -14 -5.5h-96v-444
c0 -5.33301 -2 -10.166 -6 -14.499s-8.66699 -6.5 -14 -6.5h-91c-5.33301 0 -10.166 2.16699 -14.499 6.5s-6.5 9.16602 -6.5 14.499v444h-201v-444c0 -5.33301 -2 -10.166 -6 -14.499s-8.66699 -6.5 -14 -6.5h-91c-5.33301 0 -10.166 2.16699 -14.499 6.5
s-6.5 9.16602 -6.5 14.499v444l-89 14c-5.33301 1.33301 -10 3.5 -14 6.5s-6 7.16699 -6 12.5v46c0 5.33301 2 10 6 14s8.66699 6 14 6h89v49c0 32 4.16699 58.333 12.5 79s20 37 35 49s33.167 20.333 54.5 25s45 7 71 7c12 0 22.667 -0.833008 32 -2.5
s18.666 -3.5 27.999 -5.5c4 -1.33301 8 -3.16602 12 -5.49902s6 -5.83301 6 -10.5v-59c0 -6 -1.66699 -10.333 -5 -13s-6.66602 -4 -9.99902 -4h-45c-24 0 -39.833 -3.83301 -47.5 -11.5s-11.5 -23.834 -11.5 -48.501v-49h201v49c0 32 4.16699 58.333 12.5 79s20 37 35 49
s33.167 20.333 54.5 25s45 7 71 7c12 0 22.667 -0.833008 32 -2.5s18.666 -3.5 27.999 -5.5c4 -1.33301 8 -3.16602 12 -5.49902s6 -5.83301 6 -10.5v-59v0z" />
    <glyph glyph-name="fi" unicode="fi" horiz-adv-x="657" 
d="M375 690c0 -6 -1.66797 -10.333 -5.00098 -13s-6.66602 -4 -9.99902 -4h-45c-24 0 -39.833 -3.83301 -47.5 -11.5s-11.5 -23.834 -11.5 -48.501v-49h313c5.33301 0 10 -2 14 -6s6 -8.66699 6 -14v-523c0 -5.33301 -2 -10.166 -6 -14.499s-8.66699 -6.5 -14 -6.5h-92
c-5.33301 0 -10 2.16699 -14 6.5s-6 9.16602 -6 14.499v444h-201v-444c0 -5.33301 -2 -10.166 -6 -14.499s-8.66699 -6.5 -14 -6.5h-91c-5.33301 0 -10.166 2.16699 -14.499 6.5s-6.5 9.16602 -6.5 14.499v444l-89 14c-5.33301 1.33301 -10 3.5 -14 6.5s-6 7.16699 -6 12.5
v46c0 5.33301 2 10 6 14s8.66699 6 14 6h89v49c0 32 4.16699 58.333 12.5 79s20 37 35 49s33.167 20.333 54.5 25s45 7 71 7c12 0 22.667 -0.833008 32 -2.5s18.666 -3.5 27.999 -5.5c4 -1.33301 8 -3.16602 12 -5.49902s6 -5.83301 6 -10.5v-59zM591.999 659
c0 -5.33301 -2 -10 -6 -14s-8.66699 -6 -14 -6h-97c-5.33301 0 -10.166 2 -14.499 6s-6.5 8.66699 -6.5 14v88c0 5.33301 2.16699 10 6.5 14s9.16602 6 14.499 6h97c5.33301 0 10 -2 14 -6s6 -8.66699 6 -14v-88z" />
    <glyph glyph-name="fl" unicode="fl" horiz-adv-x="659" 
d="M589 21c0 -5.33301 -1.83398 -10.166 -5.50098 -14.499s-8.16699 -6.5 -13.5 -6.5h-93c-5.33301 0 -10 2.16699 -14 6.5s-6 9.16602 -6 14.499v652h-112c-20 0 -35.833 -0.833008 -47.5 -2.5s-20.5 -4.66699 -26.5 -9s-10 -10.5 -12 -18.5s-3 -18 -3 -30v-49h96
c5.33301 0 10 -2 14 -6s6 -8.66699 6 -14v-60c0 -5.33301 -2 -9.83301 -6 -13.5s-8.66699 -5.5 -14 -5.5h-96v-444c0 -5.33301 -2 -10.166 -6 -14.499s-8.66699 -6.5 -14 -6.5h-91c-5.33301 0 -10.166 2.16699 -14.499 6.5s-6.5 9.16602 -6.5 14.499v444l-89 14
c-5.33301 1.33301 -10 3.5 -14 6.5s-6 7.16699 -6 12.5v46c0 5.33301 2 10 6 14s8.66699 6 14 6h89v49c0 32 3.5 58.333 10.5 79s18.333 37 34 49s36.5 20.333 62.5 25s58 7 96 7c6 0 16.833 -0.333008 32.5 -1s32 -1.5 49 -2.5s33 -2.16699 48 -3.5s24.833 -3 29.5 -5h84
c5.33301 0 9.83301 -2 13.5 -6s5.5 -8.66699 5.5 -14v-720v0z" />
    <glyph glyph-name="f_f_i" unicode="ffi" horiz-adv-x="1001" 
d="M933 21c0 -5.33301 -2.00195 -10.166 -6.00195 -14.499s-8.66699 -6.5 -14 -6.5h-92c-5.33301 0 -10 2.16699 -14 6.5s-6 9.16602 -6 14.499v444h-207v-444c0 -5.33301 -2 -10.166 -6 -14.499s-8.66699 -6.5 -14 -6.5h-91c-5.33301 0 -10.166 2.16699 -14.499 6.5
s-6.5 9.16602 -6.5 14.499v444h-206v-444c0 -5.33301 -2 -10.166 -6 -14.499s-8.66699 -6.5 -14 -6.5h-91c-5.33301 0 -10.166 2.16699 -14.499 6.5s-6.5 9.16602 -6.5 14.499v444l-89 14c-5.33301 1.33301 -10 3.5 -14 6.5s-6 7.16699 -6 12.5v46c0 5.33301 2 10 6 14
s8.66699 6 14 6h89v49c0 32 4.16699 58.333 12.5 79s20 37 35 49s33.167 20.333 54.5 25s45 7 71 7c12 0 22.667 -0.833008 32 -2.5s18.666 -3.5 27.999 -5.5c4 -1.33301 8 -3.16602 12 -5.49902s6 -5.83301 6 -10.5v-59c0 -6 -1.66699 -10.333 -5 -13
s-6.66602 -4 -9.99902 -4h-45c-24 0 -39.833 -3.83301 -47.5 -11.5s-11.5 -23.834 -11.5 -48.501v-49h206v49c0 32 4.16699 58.333 12.5 79s20 37 35 49s33.167 20.333 54.5 25s45 7 71 7c12 0 22.667 -0.833008 32 -2.5s18.666 -3.5 27.999 -5.5
c4 -1.33301 8 -3.16602 12 -5.49902s6 -5.83301 6 -10.5v-59c0 -6 -1.66699 -10.333 -5 -13s-6.66602 -4 -9.99902 -4h-45c-24 0 -39.833 -3.83301 -47.5 -11.5s-11.5 -23.834 -11.5 -48.501v-49h319c5.33301 0 10 -2 14 -6s6 -8.66699 6 -14v-523zM935.998 659
c0 -5.33301 -2 -10 -6 -14s-8.66699 -6 -14 -6h-97c-5.33301 0 -10.166 2 -14.499 6s-6.5 8.66699 -6.5 14v88c0 5.33301 2.16699 10 6.5 14s9.16602 6 14.499 6h97c5.33301 0 10 -2 14 -6s6 -8.66699 6 -14v-88z" />
    <glyph glyph-name="f_f_l" unicode="ffl" horiz-adv-x="997" 
d="M462 613c0 32 3.49805 58.333 10.498 79s18.333 37 34 49s36.5 20.333 62.5 25s58 7 96 7c6 0 16.833 -0.333008 32.5 -1s32 -1.5 49 -2.5s33 -2.16699 48 -3.5s24.833 -3 29.5 -5h84c5.33301 0 9.83301 -2 13.5 -6s5.5 -8.66699 5.5 -14v-720
c0 -5.33301 -1.83301 -10.166 -5.5 -14.499s-8.16699 -6.5 -13.5 -6.5h-93c-5.33301 0 -10 2.16699 -14 6.5s-6 9.16602 -6 14.499v652h-112c-20 0 -35.833 -0.833008 -47.5 -2.5s-20.5 -4.66699 -26.5 -9s-10 -10.5 -12 -18.5s-3 -18 -3 -30v-49h96c5.33301 0 10 -2 14 -6
s6 -8.66699 6 -14v-60c0 -5.33301 -2 -9.83301 -6 -13.5s-8.66699 -5.5 -14 -5.5h-96v-444c0 -5.33301 -2 -10.166 -6 -14.499s-8.66699 -6.5 -14 -6.5h-91c-5.33301 0 -10.166 2.16699 -14.499 6.5s-6.5 9.16602 -6.5 14.499v444h-206v-444
c0 -5.33301 -2 -10.166 -6 -14.499s-8.66699 -6.5 -14 -6.5h-91c-5.33301 0 -10.166 2.16699 -14.499 6.5s-6.5 9.16602 -6.5 14.499v444l-89 14c-5.33301 1.33301 -10 3.5 -14 6.5s-6 7.16699 -6 12.5v46c0 5.33301 2 10 6 14s8.66699 6 14 6h89v49
c0 32 4.16699 58.333 12.5 79s20 37 35 49s33.167 20.333 54.5 25s45 7 71 7c12 0 22.667 -0.833008 32 -2.5s18.666 -3.5 27.999 -5.5c4 -1.33301 8 -3.16602 12 -5.49902s6 -5.83301 6 -10.5v-59c0 -6 -1.66699 -10.333 -5 -13s-6.66602 -4 -9.99902 -4h-45
c-24 0 -39.833 -3.83301 -47.5 -11.5s-11.5 -23.834 -11.5 -48.501v-49h206v49z" />
    <glyph glyph-name=".notdef" horiz-adv-x="500" 
d="M12 665h475v-665h-475v665zM250 375l161 243h-323zM60 91l7 10l18 27l25.5 39l29.5 45l81 121l-161 242v-484zM278 333l162 -243v485zM250 290l-162 -242h323z" />
    <glyph glyph-name="space" unicode=" " horiz-adv-x="250" 
 />
    <glyph glyph-name="exclam" unicode="!" horiz-adv-x="256" 
d="M181 234c0 -5.33301 -2 -10 -6 -14s-8.66699 -6 -14 -6h-65c-5.33301 0 -10.166 2 -14.499 6s-6.5 8.66699 -6.5 14l-15 508c0 5.33301 2.16699 9.83301 6.5 13.5s9.16602 5.5 14.499 5.5h95c5.33301 0 10 -1.83301 14 -5.5s6 -8.16699 6 -13.5zM192 17
c0 -5.33301 -1.83301 -10 -5.5 -14s-8.16699 -6 -13.5 -6h-90c-5.33301 0 -9.83301 2 -13.5 6s-5.5 8.66699 -5.5 14v113c0 12.667 6.33301 19 19 19h90c12.667 0 19 -6.33301 19 -19v-113z" />
    <glyph glyph-name="quotedbl" unicode="&#x22;" horiz-adv-x="420" 
d="M407 750c0 -1.33301 -0.668945 -4 -2.00195 -8l-68 -207c-3.33301 -12.667 -9.66602 -19 -18.999 -19h-80c-6 0 -9 3.33301 -9 10c0 4 0.333008 7 1 9l51 207c2.66699 12.667 9.33398 19 20.001 19h94c8 0 12 -3.66699 12 -11zM206.998 750
c0 -1.33301 -0.668945 -4 -2.00195 -8l-68 -207c-3.33301 -12.667 -9.66602 -19 -18.999 -19h-80c-6 0 -9 3.33301 -9 10c0 4 0.333008 7 1 9l51 207c2.66699 12.667 9.33398 19 20.001 19h94c8 0 12 -3.66699 12 -11z" />
    <glyph glyph-name="numbersign" unicode="#" horiz-adv-x="684" 
d="M634 524l-4.99609 -45c-0.666992 -5.33301 -2.83398 -10 -6.50098 -14s-8.16699 -6 -13.5 -6h-13c-6.66699 0 -14.334 -0.166992 -23.001 -0.5s-17.834 -0.5 -27.501 -0.5h-25.5l-16 -177h85c5.33301 0 10 -1.66699 14 -5s6 -7.66602 6 -12.999v-2l-5 -46
c-0.666992 -5.33301 -2.83398 -10 -6.50098 -14s-8.16699 -6 -13.5 -6h-88l-15 -176c-0.666992 -5.33301 -2.5 -9.83301 -5.5 -13.5s-7.16699 -5.5 -12.5 -5.5h-79c-5.33301 0 -9.33301 1.66699 -12 5s-4 7.33301 -4 12v2l15 176h-130l-15 -176
c-0.666992 -5.33301 -2.5 -9.83301 -5.5 -13.5s-7.16699 -5.5 -12.5 -5.5h-80c-4.66699 0 -8.5 1.66699 -11.5 5s-4.5 7.33301 -4.5 12v2l15 176h-83c-5.33301 0 -10 1.66699 -14 5s-6 7.66602 -6 12.999v2l5 46c0.666992 5.33301 2.83398 10 6.50098 14s8.16699 6 13.5 6
h86l16 177l-81 1c-5.33301 0 -10 1.66699 -14 5s-6 7.66602 -6 12.999v2l5 45c0.666992 5.33301 2.83398 10 6.50098 14s8.16699 6 13.5 6h83l16 180c0.666992 5.33301 2.66699 9.83301 6 13.5s7.66602 5.5 12.999 5.5h80c4.66699 0 8.33398 -1.66699 11.001 -5
s4 -7.33301 4 -12v-2l-16 -180h130l16 180c0.666992 5.33301 2.66699 9.83301 6 13.5s7.66602 5.5 12.999 5.5h79c5.33301 0 9.16602 -1.66699 11.499 -5s3.5 -7.33301 3.5 -12v-2l-16 -180h87c5.33301 0 10 -1.66699 14 -5s6 -7.66602 6 -12.999v-2zM277.004 458l-16 -177
h130l16 177h-130z" />
    <glyph glyph-name="dollar" unicode="$" 
d="M555 201c0 -21.333 -2.99316 -42.6631 -8.99316 -63.9961s-16 -41.166 -30 -59.499s-32.5 -34.333 -55.5 -48s-51.167 -23.834 -84.5 -30.501v-91c0 -5.33301 -2 -10 -6 -14s-8.66699 -6 -14 -6h-91c-5.33301 0 -10 2 -14 6s-6 8.66699 -6 14v85
c-26 1.33301 -49.5 3.5 -70.5 6.5s-40.833 6.5 -59.5 10.5c-5.33301 1.33301 -9.83301 3.66602 -13.5 6.99902s-5.5 7.66602 -5.5 12.999v72c0 5.33301 1.83301 9.83301 5.5 13.5s8.16699 5.5 13.5 5.5h2c10 -1.33301 23.167 -2.5 39.5 -3.5l50.5 -3
c17.333 -1 33.833 -1.83301 49.5 -2.5s28.167 -1 37.5 -1c44.667 0 75.167 7.66699 91.5 23s24.5 37.666 24.5 66.999c0 10 -1.33301 18.833 -4 26.5s-7.33398 15.167 -14.001 22.5s-15.334 14.833 -26.001 22.5s-24.334 16.5 -41.001 26.5l-132 79
c-23.333 14 -42.5 28 -57.5 42s-27 28.5 -36 43.5s-15.333 30.667 -19 47s-5.5 33.166 -5.5 50.499c0 22.667 3 44.167 9 64.5s15.667 38.5 29 54.5s30.833 29.5 52.5 40.5s48.167 19.167 79.5 24.5v84c0 5.33301 2 10 6 14s8.66699 6 14 6h91c5.33301 0 10 -2 14 -6
s6 -8.66699 6 -14v-80c28 -1.33301 55.167 -3.5 81.5 -6.5s46.166 -6.16699 59.499 -9.5c5.33301 -1.33301 9.66602 -3.5 12.999 -6.5s5 -7.16699 5 -12.5v-74c0 -5.33301 -1.5 -9.66602 -4.5 -12.999s-7.16699 -5 -12.5 -5h-2c-33.333 3.33301 -66.333 5.83301 -99 7.5
s-65.334 2.5 -98.001 2.5c-37.333 0 -64.166 -6.16699 -80.499 -18.5s-24.5 -29.833 -24.5 -52.5c0 -8 1.16699 -15.5 3.5 -22.5s6.66602 -14 12.999 -21s14.833 -14.167 25.5 -21.5s24 -15.333 40 -24l120 -67c27.333 -15.333 50 -30.833 68 -46.5
s32.167 -31.834 42.5 -48.501s17.666 -34 21.999 -52s6.5 -37 6.5 -57z" />
    <glyph glyph-name="percent" unicode="%" horiz-adv-x="811" 
d="M772 162c0 -57.333 -12.333 -99.666 -37 -126.999s-59.667 -41 -105 -41s-80.5 13.667 -105.5 41s-37.5 69.666 -37.5 126.999v82c0 57.333 12.5 99.666 37.5 126.999s60.167 41 105.5 41s80.333 -13.667 105 -41s37 -69.666 37 -126.999v-82zM674 735
c0 -3.33301 -1.33301 -7.33398 -4 -12.001l-417 -705c-4 -7.33301 -7.5 -12.666 -10.5 -15.999s-7.16699 -5 -12.5 -5h-84c-6.66699 0 -10 3 -10 9c0 4.66699 1.33301 8.66699 4 12l417 705c4.66699 7.33301 8.5 12.5 11.5 15.5s7.16699 4.5 12.5 4.5h84
c6 0 9 -2.66699 9 -8zM325 498.999c0 -57.333 -12.333 -99.666 -37 -126.999s-59.667 -41 -105 -41s-80.5 13.667 -105.5 41s-37.5 69.666 -37.5 126.999v82c0 57.333 12.5 99.5 37.5 126.5s60.167 40.5 105.5 40.5s80.333 -13.5 105 -40.5s37 -69.167 37 -126.5v-82z
M687 243.999c0 35.333 -5 59.666 -15 72.999s-24 20 -42 20s-32.167 -6.66699 -42.5 -20s-15.5 -37.666 -15.5 -72.999v-82c0 -35.333 5.16699 -59.666 15.5 -72.999s24.5 -20 42.5 -20s32 6.66699 42 20s15 37.666 15 72.999v82zM240 580.999
c0 35.333 -5 59.666 -15 72.999s-24 20 -42 20s-32.167 -6.66699 -42.5 -20s-15.5 -37.666 -15.5 -72.999v-82c0 -36 5.16699 -60.667 15.5 -74s24.5 -20 42.5 -20s32 6.66699 42 20s15 38 15 74v82z" />
    <glyph glyph-name="ampersand" unicode="&#x26;" horiz-adv-x="718" 
d="M687 11c0 -7.33301 -3.66699 -10.999 -11 -10.999h-112c-3.33301 0 -6.16602 0.5 -8.49902 1.5s-5.16602 3.16699 -8.49902 6.5l-37 39c-25.333 -17.333 -53.833 -30.833 -85.5 -40.5s-66.5 -14.5 -104.5 -14.5c-36 0 -70 3.5 -102 10.5s-60.167 18.333 -84.5 34
s-43.5 35.667 -57.5 60s-21 53.5 -21 87.5v10c0 20.667 3 39.834 9 57.501s14.833 34 26.5 49s26 29.333 43 43s36.5 27.167 58.5 40.5l-7 8c-21.333 24.667 -38.333 46 -51 64s-22.167 34.167 -28.5 48.5s-10.5 27.166 -12.5 38.499s-3 22.666 -3 33.999v9
c0 49.333 19 89.166 57 119.499s95 45.5 171 45.5c66.667 0 119.167 -15 157.5 -45s57.5 -70 57.5 -120v-9c0 -24 -4.16699 -45.667 -12.5 -65s-19.5 -37 -33.5 -53s-29.833 -30.667 -47.5 -44s-35.834 -25.666 -54.501 -36.999l-24 -15l150 -160
c9.33301 20.667 16 43 20 67s6 49.333 6 76v12c0 5.33301 1.5 10 4.5 14s7.16699 6 12.5 6h73c5.33301 0 9.66602 -2 12.999 -6s5 -8.66699 5 -14v-12c0 -42.667 -5 -82.667 -15 -120s-25 -71 -45 -101l98 -104c2.66699 -2.66699 4 -6 4 -10zM414 586.001
c0 22.667 -7.99805 40.168 -23.998 52.501s-40 18.5 -72 18.5c-34 0 -60.833 -6 -80.5 -18s-29.5 -29.667 -29.5 -53v-9c0 -8 0.5 -15.833 1.5 -23.5s3.66699 -16.167 8 -25.5s11.166 -20.333 20.499 -33s22.666 -27.334 39.999 -44.001l9 -9l30 18
c18.667 11.333 34.167 21.5 46.5 30.5s22.333 18 30 27s13 18.167 16 27.5s4.5 20 4.5 32v9zM266.002 306.002c-30 -18 -49.833 -35.332 -59.5 -51.999s-14.5 -36.667 -14.5 -60v-10c0 -32 12.167 -55.667 36.5 -71s54.833 -23 91.5 -23c25.333 0 48 2.66699 68 8
s37.667 12.666 53 21.999z" />
    <glyph glyph-name="quotesingle" unicode="'" horiz-adv-x="220" 
d="M207 750c0 -1.33301 -0.668945 -4 -2.00195 -8l-68 -207c-3.33301 -12.667 -9.66602 -19 -18.999 -19h-80c-6 0 -9 3.33301 -9 10c0 4 0.333008 7 1 9l51 207c2.66699 12.667 9.33398 19 20.001 19h94c8 0 12 -3.66699 12 -11z" />
    <glyph glyph-name="parenleft" unicode="(" horiz-adv-x="333" 
d="M303 -185c0 -6.66699 -4.00098 -10.0039 -12.001 -10.0039h-71c-7.33301 0 -13.833 1 -19.5 3s-10.5 5.66699 -14.5 11c-21.333 30 -40.166 60.833 -56.499 92.5s-30 65.5 -41 101.5s-19.333 74.667 -25 116s-8.5 86.333 -8.5 135v19
c0 96.667 11.167 180.334 33.5 251.001s54.833 135.667 97.5 195c4 5.33301 8.83301 9 14.5 11s12.167 3 19.5 3h71c8 0 12 -3.33301 12 -10c0 -5.33301 -1.66699 -10.666 -5 -15.999c-14 -25.333 -27.5 -53.166 -40.5 -83.499s-24.5 -63.5 -34.5 -99.5
s-18 -74.833 -24 -116.5s-9 -86.5 -9 -134.5v-19c0 -48 3 -92.833 9 -134.5s14 -80.334 24 -116.001s21.5 -68.667 34.5 -99s26.5 -58.166 40.5 -83.499c3.33301 -5.33301 5 -10.666 5 -15.999z" />
    <glyph glyph-name="parenright" unicode=")" horiz-adv-x="333" 
d="M278 264c0 -48.667 -2.83398 -93.6631 -8.50098 -134.996s-14 -80 -25 -116s-24.667 -69.833 -41 -101.5s-35.166 -62.5 -56.499 -92.5c-4 -5.33301 -8.83301 -9 -14.5 -11s-12.167 -3 -19.5 -3h-71c-8 0 -12 3.33301 -12 10c0 5.33301 1.66699 10.666 5 15.999
c14 25.333 27.5 53.166 40.5 83.499s24.5 63.333 34.5 99s18 74.334 24 116.001s9 86.5 9 134.5v19c0 48 -3 92.833 -9 134.5s-14 80.5 -24 116.5s-21.5 69.167 -34.5 99.5s-26.5 58.166 -40.5 83.499c-3.33301 5.33301 -5 10.666 -5 15.999c0 6.66699 4 10 12 10h71
c7.33301 0 13.833 -1 19.5 -3s10.5 -5.66699 14.5 -11c42.667 -59.333 75.167 -124.333 97.5 -195s33.5 -154.334 33.5 -251.001v-19v0z" />
    <glyph glyph-name="asterisk" unicode="*" horiz-adv-x="473" 
d="M435 583c0 -7.33301 -4.99805 -12.666 -14.998 -15.999l-119 -36l74 -101c3.33301 -4.66699 5 -9.33398 5 -14.001s-2 -8.33398 -6 -11.001l-41 -30c-3.33301 -2 -6.33301 -3 -9 -3c-5.33301 0 -10.333 3.33301 -15 10l-72 102l-72 -102
c-4.66699 -6.66699 -9.66699 -10 -15 -10c-3.33301 0 -6.33301 1 -9 3l-42 30c-4 2.66699 -6 6.33398 -6 11.001s1.66699 9.33398 5 14.001l75 101l-118 36c-10.667 3.33301 -16 8.66602 -16 15.999c0 2 0.333008 3.66699 1 5l16 49c2 6.66699 6.33301 10 13 10
c2.66699 0 6 -0.666992 10 -2l119 -39l-2 125c0 5.33301 1.16699 9.83301 3.5 13.5s6.16602 5.5 11.499 5.5h52c5.33301 0 9.16602 -2 11.499 -6s3.5 -8.66699 3.5 -14l-1 -124l118 39c4 1.33301 7.33301 2 10 2c6.66699 0 11 -3.33301 13 -10l16 -49
c0.666992 -1.33301 1 -3 1 -5z" />
    <glyph glyph-name="plus" unicode="+" 
d="M548 356c0 -5.33301 -2 -9.33301 -6 -12s-8.66699 -4 -14 -4h-162v-161c0 -5.33301 -1.33301 -10 -4 -14s-6.66699 -6 -12 -6h-70c-5.33301 0 -9.33301 2 -12 6s-4 8.66699 -4 14v161h-161c-5.33301 0 -10 1.33301 -14 4s-6 6.66699 -6 12v70c0 5.33301 2 9.33301 6 12
s8.66699 4 14 4h161v162c0 5.33301 1.33301 10 4 14s6.66699 6 12 6h70c5.33301 0 9.33301 -2 12 -6s4 -8.66699 4 -14v-162h162c5.33301 0 10 -1.33301 14 -4s6 -6.66699 6 -12v-70v0z" />
    <glyph glyph-name="comma" unicode="," horiz-adv-x="259" 
d="M203 140c0 -0.666992 -0.667969 -3 -2.00098 -7l-87 -210c-2.66699 -6 -5.16699 -10.833 -7.5 -14.5s-6.16602 -5.5 -11.499 -5.5h-69c-10 0 -15 4.66699 -15 14c0 2.66699 0.333008 4.66699 1 6l61 210c4 12.667 10.667 19 20 19h96c9.33301 0 14 -4 14 -12z" />
    <glyph glyph-name="hyphen" unicode="-" horiz-adv-x="321" 
d="M278 276c0 -12 -6.33301 -17.999 -19 -17.999h-196c-5.33301 0 -10 1.66699 -14 5s-6 7.66602 -6 12.999v63c0 5.33301 2 9.83301 6 13.5s8.66699 5.5 14 5.5h196c12.667 0 19 -6.33301 19 -19v-63v0z" />
    <glyph glyph-name="period" unicode="." horiz-adv-x="259" 
d="M194 20c0 -5.33301 -2 -10 -6 -14s-8.66699 -6 -14 -6h-89c-5.33301 0 -10 2 -14 6s-6 8.66699 -6 14v113c0 5.33301 2 9.83301 6 13.5s8.66699 5.5 14 5.5h89c5.33301 0 10 -1.83301 14 -5.5s6 -8.16699 6 -13.5v-113v0z" />
    <glyph glyph-name="slash" unicode="/" horiz-adv-x="365" 
d="M234 723c1.33301 5.33301 3.5 10 6.5 14s7.16699 6 12.5 6h81c5.33301 0 9.66602 -1.5 12.999 -4.5s4 -8.16699 2 -15.5l-217 -702c-1.33301 -5.33301 -3.5 -10.166 -6.5 -14.499s-7.16699 -6.5 -12.5 -6.5h-81c-7.33301 0 -12.166 2.16699 -14.499 6.5
s-2.83301 9.16602 -1.5 14.499l218 702v0z" />
    <glyph glyph-name="zero" unicode="0" 
d="M576 334c0 -62 -6 -114.833 -18 -158.5s-29.333 -79 -52 -106s-50 -46.667 -82 -59s-68.333 -18.5 -109 -18.5s-77.167 6.16699 -109.5 18.5s-59.666 32 -81.999 59s-39.5 62.333 -51.5 106s-18 96.5 -18 158.5v74c0 62 6 114.833 18 158.5s29.167 79.167 51.5 106.5
s49.666 47.166 81.999 59.499s68.833 18.5 109.5 18.5s77 -6.16699 109 -18.5s59.333 -32.166 82 -59.499s40 -62.833 52 -106.5s18 -96.5 18 -158.5v-74zM437 408c0 45.333 -3.16699 82.833 -9.5 112.5s-15 53.167 -26 70.5s-23.833 29.5 -38.5 36.5s-30.667 10.5 -48 10.5
s-33.333 -3.5 -48 -10.5s-27.5 -19.167 -38.5 -36.5s-19.667 -40.833 -26 -70.5s-9.5 -67.167 -9.5 -112.5v-74c0 -45.333 3.16699 -82.666 9.5 -111.999s15 -52.666 26 -69.999s23.833 -29.5 38.5 -36.5s30.667 -10.5 48 -10.5s33.333 3.5 48 10.5s27.5 19.167 38.5 36.5
s19.667 40.666 26 69.999s9.5 66.666 9.5 111.999v74z" />
    <glyph glyph-name="one" unicode="1" 
d="M129 0c-5.33301 0 -9.99805 2 -13.998 6s-6 8.66699 -6 14v76c0 5.33301 2 9.66602 6 12.999s8.66699 5 14 5h134v492l-131 -40c-3.33301 -1.33301 -7.33301 -2 -12 -2c-7.33301 0 -11 4 -11 12v94c0 5.33301 2.33301 9 7 11l177 58
c3.33301 1.33301 6.66602 2.33301 9.99902 3s7.66602 1 12.999 1h66c12.667 0 19 -6.33301 19 -19v-610h134c5.33301 0 10 -1.66699 14 -5s6 -7.66602 6 -12.999v-76c0 -5.33301 -2 -10 -6 -14s-8.66699 -6 -14 -6h-406z" />
    <glyph glyph-name="two" unicode="2" 
d="M553 568c0 -42 -10.502 -77.832 -31.502 -107.499s-52.167 -58.5 -93.5 -86.5l-90 -60c-47.333 -31.333 -82.833 -61.5 -106.5 -90.5s-35.5 -64.167 -35.5 -105.5v-4h329c5.33301 0 10 -1.66699 14 -5s6 -7.66602 6 -12.999v-76c0 -5.33301 -2 -10 -6 -14
s-8.66699 -6 -14 -6h-424c-5.33301 0 -10 2 -14 6s-6 8.66699 -6 14v98c0 27.333 4 53.833 12 79.5s19 49.667 33 72s30.167 42.833 48.5 61.5s37.833 35 58.5 49l99 66c19.333 12.667 35 23.667 47 33s21.333 18.166 28 26.499s11.167 17.333 13.5 27s3.5 21.5 3.5 35.5
c0 27.333 -9 46.5 -27 57.5s-48 16.5 -90 16.5c-14.667 0 -30.5 -0.5 -47.5 -1.5s-34.333 -2.16699 -52 -3.5s-35.167 -2.83301 -52.5 -4.5s-33.333 -3.5 -48 -5.5h-2c-5.33301 0 -9.66602 2 -12.999 6s-5 8.66699 -5 14v60c0 5.33301 1.83301 9.5 5.5 12.5
s8.16699 5.16699 13.5 6.5c12.667 3.33301 27.334 6.5 44.001 9.5s33.834 5.66699 51.501 8s35.667 4.16602 54 5.49902s35.5 2 51.5 2c87.333 0 150.166 -15 188.499 -45s57.5 -76 57.5 -138z" />
    <glyph glyph-name="three" unicode="3" 
d="M546 208c0 -37.333 -6.49902 -69.501 -19.499 -96.501s-30.667 -49.333 -53 -67s-48.833 -30.834 -79.5 -39.501s-63.667 -13 -99 -13c-37.333 0 -71.5 2.33301 -102.5 7s-60.833 10.667 -89.5 18c-5.33301 1.33301 -9.83301 3.5 -13.5 6.5s-5.5 7.16699 -5.5 12.5v62
c0 5.33301 1.66699 9.66602 5 12.999s7.66602 5 12.999 5h2c40 -4 75.833 -7.33301 107.5 -10s59.5 -4 83.5 -4c40.667 0 69.5 8.83301 86.5 26.5s25.5 44.167 25.5 79.5v21c0 13.333 -1.16699 26 -3.5 38s-7 22.667 -14 32s-16.5 16.833 -28.5 22.5s-27.333 8.5 -46 8.5
h-177c-12.667 0 -19 6.33301 -19 19v63c0 12.667 6.33301 19 19 19h177c18.667 0 34 2.66699 46 8s21.5 12.5 28.5 21.5s11.667 19.333 14 31s3.5 24.167 3.5 37.5v16c0 12.667 -1.5 24.834 -4.5 36.501s-8.66699 21.834 -17 30.501s-19.833 15.667 -34.5 21
s-33.334 8 -56.001 8c-18 0 -33.833 -0.333008 -47.5 -1s-27.5 -1.5 -41.5 -2.5s-29 -2.5 -45 -4.5s-35 -4 -57 -6h-2c-5.33301 0 -9.66602 1.66699 -12.999 5s-5 7.66602 -5 12.999v62c0 5.33301 1.83301 9.5 5.5 12.5s8.16699 5.16699 13.5 6.5
c28.667 7.33301 58.5 13.333 89.5 18s65.167 7 102.5 7c36 0 69.333 -3.66699 100 -11s57.167 -19.166 79.5 -35.499s39.833 -37.5 52.5 -63.5s19 -58 19 -96v-16c0 -35.333 -7.5 -65.166 -22.5 -89.499s-36.167 -43.833 -63.5 -58.5c28 -15.333 49.333 -36.5 64 -63.5
s22 -56.5 22 -88.5v-21v0z" />
    <glyph glyph-name="four" unicode="4" 
d="M592 199c0 -5.33301 -2 -9.99902 -6 -13.999s-8.66699 -6 -14 -6h-74v-159c0 -5.33301 -1.66699 -10 -5 -14s-7.66602 -6 -12.999 -6h-103c-5.33301 0 -9.66602 2 -12.999 6s-5 8.66699 -5 14v159h-300c-5.33301 0 -10 2 -14 6s-6 8.66699 -6 14v81
c0 12 3.66699 22.667 11 32l308 413c3.33301 5.33301 7.16602 9.66602 11.499 12.999s10.166 5 17.499 5h91c5.33301 0 10 -2 14 -6s6 -8.66699 6 -14v-434h74c5.33301 0 10 -2 14 -6s6 -8.66699 6 -14v-70zM360 543.001c0 4 -1 6 -3 6s-4.33301 -2 -7 -6l-175 -243
c-2 -2 -3 -4 -3 -6c0 -3.33301 2.66699 -5 8 -5h180v254z" />
    <glyph glyph-name="five" unicode="5" 
d="M552 237c0 -75.333 -20.9971 -135 -62.9971 -179s-106.667 -66 -194 -66c-30 0 -62.333 2.33301 -97 7s-66.334 10.667 -95.001 18c-5.33301 1.33301 -9.83301 3.5 -13.5 6.5s-5.5 8.16699 -5.5 15.5v59c0 5.33301 1.66699 9.66602 5 12.999s7.66602 5 12.999 5h2
c40 -5.33301 75.833 -9 107.5 -11s59.5 -3 83.5 -3c23.333 0 42.666 3.16699 57.999 9.5s27.5 15.333 36.5 27s15.167 25.834 18.5 42.501s5 35.334 5 56.001v5c0 41.333 -13.833 70.333 -41.5 87s-72.834 25 -135.501 25h-135c-3.33301 0 -6 1.5 -8 4.5s-3 5.83301 -3 8.5
v2l32 356c0.666992 5.33301 2.83398 9.66602 6.50098 12.999s8.16699 5 13.5 5h363c5.33301 0 10 -1.83301 14 -5.5s6 -8.16699 6 -13.5v-76c0 -5.33301 -2 -9.83301 -6 -13.5s-8.66699 -5.5 -14 -5.5h-271l-15 -166h17c38 0 75.833 -2.5 113.5 -7.5s71.5 -15.333 101.5 -31
s54.333 -38 73 -67s28 -67.5 28 -115.5v-5v0z" />
    <glyph glyph-name="six" unicode="6" 
d="M580 240c0 -37.333 -5.66602 -71.1689 -16.999 -101.502s-28 -56.333 -50 -78s-49 -38.5 -81 -50.5s-68.667 -18 -110 -18c-37.333 0 -72 6 -104 18s-59.667 30.5 -83 55.5s-41.666 57 -54.999 96s-20 85.5 -20 139.5v115c0 60 5.83301 111.333 17.5 154
s29.167 77.334 52.5 104.001s52.166 46.167 86.499 58.5s74.5 18.5 120.5 18.5c44 0 81.667 -2.33301 113 -7s55.333 -8.66699 72 -12c7.33301 -1.33301 13 -3.5 17 -6.5s6 -7.83301 6 -14.5v-62c0 -14 -6.33301 -21 -19 -21h-4c-9.33301 1.33301 -21.5 2.83301 -36.5 4.5
s-31 3.16699 -48 4.5s-34.333 2.33301 -52 3s-33.834 1 -48.501 1c-25.333 0 -46.833 -3 -64.5 -9s-32 -16.167 -43 -30.5s-19.167 -33.166 -24.5 -56.499s-8.33301 -52 -9 -86c16 3.33301 36.333 6 61 8s50.667 3 78 3c32.667 0 63.667 -3.83301 93 -11.5
s55.333 -20 78 -37s40.667 -39.667 54 -68s20 -62.833 20 -103.5v-10zM444.001 249.997c0 23.333 -3.66602 42.667 -10.999 58s-17.333 27.5 -30 36.5s-27.334 15.333 -44.001 19s-34 5.5 -52 5.5c-14.667 0 -33 -1 -55 -3s-40.667 -4.66699 -56 -8v-57
c0 -42 3.16699 -76 9.5 -102s15 -46.333 26 -61s24.333 -24.667 40 -30s32.5 -8 50.5 -8c16.667 0 32.5 2.16699 47.5 6.5s28 11.833 39 22.5s19.667 25 26 43s9.5 40.667 9.5 68v10z" />
    <glyph glyph-name="seven" unicode="7" 
d="M554 649c0 -5.33301 -1.66699 -11.499 -5 -18.499l-13 -27.5l-270 -584c-3.33301 -7.33301 -7 -12.333 -11 -15s-9.33301 -4 -16 -4h-104c-4.66699 0 -8.16699 1.5 -10.5 4.5s-3.5 6.5 -3.5 10.5c0 2 0.666992 5 2 9l287 598v2c0 3.33301 -1.66699 5 -5 5h-308
c-5.33301 0 -10 1.66699 -14 5s-6 7.66602 -6 12.999v77c0 5.33301 2 9.83301 6 13.5s8.66699 5.5 14 5.5h417c11.333 0 20.833 -3.83301 28.5 -11.5s11.5 -17.167 11.5 -28.5v-54v0z" />
    <glyph glyph-name="eight" unicode="8" 
d="M577 215c0 -39.333 -6.99902 -73.166 -20.999 -101.499s-32.833 -51.5 -56.5 -69.5s-51 -31.167 -82 -39.5s-63.5 -12.5 -97.5 -12.5h-10c-34 0 -66.5 4.16699 -97.5 12.5s-58.167 21.5 -81.5 39.5s-42 41.167 -56 69.5s-21 62.166 -21 101.499v9
c0 34 8.33301 64.833 25 92.5s38.667 51.167 66 70.5c-30.667 20 -52.834 43.167 -66.501 69.5s-20.5 55.166 -20.5 86.499v4c0 37.333 6.66699 69 20 95s31.5 47 54.5 63s49.833 27.667 80.5 35s63 11 97 11h10c34 0 66.5 -3.66699 97.5 -11s58 -19 81 -35
s41.333 -37 55 -63s20.5 -57.667 20.5 -95v-4c0 -31.333 -7 -60.166 -21 -86.499s-36.333 -49.5 -67 -69.5c27.333 -19.333 49.333 -42.833 66 -70.5s25 -58.5 25 -92.5v-9zM445.001 543c0 34 -9.83398 60.167 -29.501 78.5s-51.5 27.5 -95.5 27.5h-10
c-44 0 -75.5 -9.16699 -94.5 -27.5s-28.5 -44.5 -28.5 -78.5v-4c0 -29.333 8.33301 -53.833 25 -73.5s44.334 -29.5 83.001 -29.5h41c38.667 0 66.5 9.83301 83.5 29.5s25.5 44.167 25.5 73.5v4zM442 224c0 12 -1.83496 24.5 -5.50195 37.5s-9.66699 24.833 -18 35.5
s-19.166 19.5 -32.499 26.5s-30 10.5 -50 10.5h-41c-20 0 -36.667 -3.5 -50 -10.5s-24.166 -15.833 -32.499 -26.5s-14.333 -22.5 -18 -35.5s-5.5 -25.5 -5.5 -37.5v-9c0 -34 10 -62.333 30 -85s50.333 -34 91 -34h10c40.667 0 71.167 11.333 91.5 34s30.5 51 30.5 85v9z
" />
    <glyph glyph-name="nine" unicode="9" 
d="M569 327c0 -60 -5.83203 -111.333 -17.499 -154s-29.167 -77.334 -52.5 -104.001s-52.166 -46.167 -86.499 -58.5s-74.5 -18.5 -120.5 -18.5c-44 0 -81.667 2.33301 -113 7s-55.333 8.66699 -72 12c-7.33301 1.33301 -13 3.5 -17 6.5s-6 7.83301 -6 14.5v62
c0 14 6.33301 21 19 21h4c9.33301 -1.33301 21.5 -2.83301 36.5 -4.5s31 -3.16699 48 -4.5s34.167 -2.33301 51.5 -3s33.666 -1 48.999 -1c25.333 0 46.833 3 64.5 9s32 16.167 43 30.5s19.167 33.166 24.5 56.499s8.33301 52 9 86c-16 -3.33301 -36.333 -6 -61 -8
s-50.667 -3 -78 -3c-32.667 0 -63.834 3.83301 -93.501 11.5s-55.667 20 -78 37s-40.166 39.5 -53.499 67.5s-20 62.667 -20 104v10c0 36.667 5.66699 70.334 17 101.001s28 56.834 50 78.501s49 38.5 81 50.5s68.667 18 110 18c37.333 0 72 -6 104 -18
s59.667 -30.5 83 -55.5s41.666 -57 54.999 -96s20 -85.5 20 -139.5v-115zM433.001 442c0 42 -3.16797 75.999 -9.50098 101.999s-15 46.333 -26 61s-24.333 24.667 -40 30s-32.5 8 -50.5 8c-17.333 0 -33.333 -2.16699 -48 -6.5s-27.5 -11.833 -38.5 -22.5
s-19.667 -25 -26 -43s-9.5 -40.667 -9.5 -68v-10c0 -23.333 3.66699 -42.666 11 -57.999s17.333 -27.5 30 -36.5s27.334 -15.333 44.001 -19s34 -5.5 52 -5.5c14.667 0 33 1 55 3s40.667 4.66699 56 8v57z" />
    <glyph glyph-name="colon" unicode=":" horiz-adv-x="259" 
d="M194 414c0 -5.33301 -2 -9.83301 -6 -13.5s-8.66699 -5.5 -14 -5.5h-89c-5.33301 0 -10 1.83301 -14 5.5s-6 8.16699 -6 13.5v113c0 5.33301 2 10 6 14s8.66699 6 14 6h89c5.33301 0 10 -2 14 -6s6 -8.66699 6 -14v-113zM194 20c0 -5.33301 -2 -10 -6 -14
s-8.66699 -6 -14 -6h-89c-5.33301 0 -10 2 -14 6s-6 8.66699 -6 14v113c0 5.33301 2 9.83301 6 13.5s8.66699 5.5 14 5.5h89c5.33301 0 10 -1.83301 14 -5.5s6 -8.16699 6 -13.5v-113z" />
    <glyph glyph-name="semicolon" unicode=";" horiz-adv-x="259" 
d="M194 414c0 -5.33301 -2 -9.83301 -6 -13.5s-8.66699 -5.5 -14 -5.5h-89c-5.33301 0 -10 1.83301 -14 5.5s-6 8.16699 -6 13.5v113c0 5.33301 2 10 6 14s8.66699 6 14 6h89c5.33301 0 10 -2 14 -6s6 -8.66699 6 -14v-113zM196 140c0 -0.666992 -0.667969 -3 -2.00098 -7
l-87 -210c-2.66699 -6 -5.16699 -10.833 -7.5 -14.5s-6.16602 -5.5 -11.499 -5.5h-69c-10 0 -15 4.66699 -15 14c0 2.66699 0.333008 4.66699 1 6l61 210c4 12.667 10.667 19 20 19h96c9.33301 0 14 -4 14 -12z" />
    <glyph glyph-name="less" unicode="&#x3c;" 
d="M514 153c0 -3.33301 -1.16699 -6.49805 -3.5 -9.49805s-5.16602 -4.5 -8.49902 -4.5h-110c-5.33301 0 -9.5 1 -12.5 3s-6.16699 4.66699 -9.5 8l-231 202c-8 7.33301 -13.833 13.666 -17.5 18.999s-5.5 12 -5.5 20s1.83301 14.667 5.5 20s9.5 11.666 17.5 18.999l231 202
c3.33301 3.33301 6.5 6 9.5 8s7.16699 3 12.5 3h110c3.33301 0 6.16602 -1.5 8.49902 -4.5s3.5 -6.16699 3.5 -9.5c0 -5.33301 -2 -9.33301 -6 -12l-260 -226l260 -226c4 -3.33301 6 -7.33301 6 -12z" />
    <glyph glyph-name="equal" unicode="=" 
d="M538 477c0 -5.33301 -2 -9.33301 -6 -12s-8.66699 -4 -14 -4h-405c-5.33301 0 -10 1.33301 -14 4s-6 6.66699 -6 12v70c0 5.33301 2 9.33301 6 12s8.66699 4 14 4h405c5.33301 0 10 -1.33301 14 -4s6 -6.66699 6 -12v-70zM538 235c0 -5.33301 -2 -9.33301 -6 -12
s-8.66699 -4 -14 -4h-405c-5.33301 0 -10 1.33301 -14 4s-6 6.66699 -6 12v70c0 5.33301 2 9.33301 6 12s8.66699 4 14 4h405c5.33301 0 10 -1.33301 14 -4s6 -6.66699 6 -12v-70z" />
    <glyph glyph-name="greater" unicode="&#x3e;" 
d="M514 391c0 -8 -1.83301 -14.6689 -5.5 -20.002s-9.5 -11.666 -17.5 -18.999l-231 -202c-3.33301 -3.33301 -6.5 -6 -9.5 -8s-7.16699 -3 -12.5 -3h-110c-3.33301 0 -6.16602 1.5 -8.49902 4.5s-3.5 6.16699 -3.5 9.5c0 4.66699 2 8.66699 6 12l260 226l-260 226
c-4 2.66699 -6 6.66699 -6 12c0 3.33301 1.16699 6.5 3.5 9.5s5.16602 4.5 8.49902 4.5h110c5.33301 0 9.5 -1 12.5 -3s6.16699 -4.66699 9.5 -8l231 -202c8 -7.33301 13.833 -13.666 17.5 -18.999s5.5 -12 5.5 -20z" />
    <glyph glyph-name="question" unicode="?" horiz-adv-x="437" 
d="M407 579c0 -9.33301 -0.499023 -18.832 -1.49902 -28.499s-3.83301 -20.5 -8.5 -32.5s-11.834 -25.5 -21.501 -40.5s-22.834 -32.5 -39.501 -52.5l-61 -72c-13.333 -16 -24.333 -29.667 -33 -41s-13 -25 -13 -41v-38c0 -5.33301 -2 -9.83301 -6 -13.5
s-8.66699 -5.5 -14 -5.5h-83c-12.667 0 -19 6.33301 -19 19v38c0 16 0.833008 30 2.5 42s4.83398 23.5 9.50098 34.5s10.667 22 18 33s17 23.5 29 37.5l64 74c12 14 19.833 28 23.5 42s5.5 29 5.5 45v16c0 12 -4.5 21.167 -13.5 27.5s-23.833 9.5 -44.5 9.5
c-24.667 0 -50.334 -1.16699 -77.001 -3.5s-51 -4.83301 -73 -7.5h-4c-11.333 0 -17 7.33301 -17 22v62c0 8 0.833008 14.167 2.5 18.5s6.83398 7.5 15.501 9.5c21.333 5.33301 45.666 9.66602 72.999 12.999s54 5 80 5c32 0 60.833 -2.5 86.5 -7.5
s47.334 -13.5 65.001 -25.5s31.167 -28 40.5 -48s14 -45 14 -75v-16zM233.001 19.001c0 -5.33301 -2 -9.83301 -6 -13.5s-8.66699 -5.5 -14 -5.5h-90c-5.33301 0 -10 1.83301 -14 5.5s-6 8.16699 -6 13.5v113c0 5.33301 2 10 6 14s8.66699 6 14 6h90c5.33301 0 10 -2 14 -6
s6 -8.66699 6 -14v-113z" />
    <glyph glyph-name="at" unicode="@" horiz-adv-x="772" 
d="M737 362c0 -60.667 -8.83691 -111.166 -26.5039 -151.499s-42.834 -72.5 -75.501 -96.5s-71.667 -41 -117 -51s-95.333 -15 -150 -15c-50.667 0 -91.667 11.833 -123 35.5s-47 59.5 -47 107.5c0 3.33301 0.166992 6.33301 0.5 9s0.5 5.66699 0.5 9l9 117
c4.66699 56.667 24.334 98.334 59.001 125.001s79.667 40 135 40c6.66699 0 15.334 -0.5 26.001 -1.5s22.167 -2.16699 34.5 -3.5s24.833 -2.83301 37.5 -4.5s24 -3.5 34 -5.5c15.333 -2 23 -10.667 23 -26v-4l-29 -302c26 4 47.5 12.167 64.5 24.5s30.5 28 40.5 47
s17 40.833 21 65.5s6 51.667 6 81c0 30 -4.66699 59 -14 87s-23.833 52.5 -43.5 73.5s-44.667 37.833 -75 50.5s-66.166 19 -107.499 19c-88 0 -156.667 -21.667 -206 -65s-77.666 -104.333 -84.999 -183l-15 -158c-0.666992 -6 -1.16699 -11.667 -1.5 -17
s-0.5 -10.666 -0.5 -15.999c0 -29.333 5 -56.333 15 -81s25.333 -46 46 -64s46.667 -32 78 -42s68.333 -15 111 -15c23.333 0 48.5 0.666992 75.5 2s50.167 3 69.5 5h6c4.66699 0 7 -3 7 -9v-37c0 -8 -4.33301 -12.333 -13 -13c-15.333 -2 -35.333 -4.16699 -60 -6.5
s-53 -3.5 -85 -3.5c-48 0 -92 6 -132 18s-74.333 29.167 -103 51.5s-51 50 -67 83s-24 70.5 -24 112.5v16c0 5.33301 0.333008 10.666 1 15.999l15 163c4 46.667 15.333 89.167 34 127.5s43.667 71.166 75 98.499s68.833 48.333 112.5 63s92.834 22 147.501 22
c53.333 0 99.833 -8.33301 139.5 -25s72.5 -38.834 98.5 -66.501s45.5 -59.5 58.5 -95.5s19.5 -73 19.5 -111zM445.996 397.001c-9.33301 1.33301 -18.502 2.5 -27.502 3.5s-18.167 1.5 -27.5 1.5c-25.333 0 -43.666 -6 -54.999 -18s-18.666 -32.667 -21.999 -62l-11 -112
c-0.666992 -3.33301 -1 -6.33301 -1 -9v-8c0 -20.667 5.66699 -35.167 17 -43.5s30 -12.5 56 -12.5h20h14.5c4.33301 0 8.83301 0.333008 13.5 1z" />
    <glyph glyph-name="A" unicode="A" horiz-adv-x="646" 
d="M627 17c0 -5.33301 -1.67285 -9.5 -5.00586 -12.5s-7.66602 -4.5 -12.999 -4.5h-106c-4.66699 0 -8.66699 1.66699 -12 5s-5.66602 7.33301 -6.99902 12l-46 190h-230l-46 -190c-1.33301 -4.66699 -3.66602 -8.66699 -6.99902 -12s-7.33301 -5 -12 -5h-106
c-5.33301 0 -9.66602 1.5 -12.999 4.5s-5 7.16699 -5 12.5c0 0.666992 0.166992 1.33398 0.5 2.00098s0.5 1.66699 0.5 3l164 627c6 23.333 14.667 41.666 26 54.999s23.5 23.5 36.5 30.5s26.333 11.5 40 13.5s25.834 3 36.501 3s22.834 -1 36.501 -3s27 -6.5 40 -13.5
s25.167 -17.167 36.5 -30.5s20 -31.666 26 -54.999l164 -627c0 -1.33301 0.166992 -2.33301 0.5 -3s0.5 -1.33398 0.5 -2.00098zM338.994 618c-1.33301 6 -3 10.167 -5 12.5s-5.66699 3.5 -11 3.5s-9 -1.16699 -11 -3.5s-3.66699 -6.5 -5 -12.5l-72 -297h176z" />
    <glyph glyph-name="B" unicode="B" horiz-adv-x="650" 
d="M600 208c0 -40 -7.16504 -73.668 -21.498 -101.001s-34.666 -49.5 -60.999 -66.5s-58.166 -29.333 -95.499 -37s-79.333 -11.5 -126 -11.5c-40.667 0 -75.834 1 -105.501 3s-52.167 4.66699 -67.5 8c-16.667 3.33301 -28.834 8.5 -36.501 15.5s-11.5 19.833 -11.5 38.5
v630c0 18 3.5 30.833 10.5 38.5s18.5 12.834 34.5 15.501c13.333 2 34.666 4.16699 63.999 6.5s63.666 3.5 102.999 3.5c45.333 0 86.833 -3.5 124.5 -10.5s70.167 -18.5 97.5 -34.5s48.5 -36.833 63.5 -62.5s22.5 -57.5 22.5 -95.5v-20c0 -33.333 -7.66699 -63.5 -23 -90.5
s-38.333 -47.167 -69 -60.5c30.667 -13.333 54.5 -32.5 71.5 -57.5s25.5 -56.5 25.5 -94.5v-17zM460.002 539.999c0 34.667 -12.832 59.3311 -38.499 73.998s-70.5 22 -134.5 22c-12 0 -24.5 -0.166992 -37.5 -0.5s-24.833 -0.833008 -35.5 -1.5v-203h127
c23.333 0 42.666 2.5 57.999 7.5s27.5 11.833 36.5 20.5s15.333 18.834 19 30.501s5.5 23.834 5.5 36.501v14zM464.003 222.996c0 14 -1.99902 27.332 -5.99902 39.999s-10.833 23.834 -20.5 33.501s-22.334 17.5 -38.001 23.5s-35.167 9 -58.5 9h-127v-220
c12 0 26 -0.333008 42 -1s29.333 -1 40 -1c32 0 58.667 2 80 6s38.5 10.333 51.5 19s22.333 19.5 28 32.5s8.5 28.167 8.5 45.5v13z" />
    <glyph glyph-name="C" unicode="C" horiz-adv-x="563" 
d="M518 31c0 -7.33301 -2 -12.502 -6 -15.502s-9.33301 -5.5 -16 -7.5c-4 -1.33301 -10.833 -2.83301 -20.5 -4.5s-21.5 -3.33398 -35.5 -5.00098s-29.667 -3.16699 -47 -4.5s-35.666 -2 -54.999 -2c-30 0 -61.667 4.33301 -95 13s-63.833 24.5 -91.5 47.5
s-50.667 54.167 -69 93.5s-27.5 90 -27.5 152v147c0 62.667 9.16699 113.834 27.5 153.501s41.333 70.834 69 93.501s58.167 38.167 91.5 46.5s65 12.5 95 12.5c19.333 0 37.666 -0.666992 54.999 -2s33 -2.83301 47 -4.5s25.833 -3.5 35.5 -5.5s16.5 -3.33301 20.5 -4
c6.66699 -2 12 -4.5 16 -7.5s6 -8.16699 6 -15.5v-67c0 -6 -1.5 -11 -4.5 -15s-8.16699 -6 -15.5 -6h-2l-31.5 2.5c-12.333 1 -25.5 1.83301 -39.5 2.5l-43 2c-14.667 0.666992 -28.667 1 -42 1c-21.333 0 -40.833 -3.16699 -58.5 -9.5s-32.834 -16.666 -45.501 -30.999
s-22.667 -33.5 -30 -57.5s-11 -53.667 -11 -89v-147c0 -34.667 3.66699 -64 11 -88s17.333 -43.333 30 -58s27.834 -25.167 45.501 -31.5s37.167 -9.5 58.5 -9.5c13.333 0 27.333 0.333008 42 1l43 2c14 0.666992 27.167 1.5 39.5 2.5l31.5 2.5h2c7.33301 0 12.5 -2 15.5 -6
s4.5 -9 4.5 -15v-67v0z" />
    <glyph glyph-name="D" unicode="D" horiz-adv-x="667" 
d="M612 298c0 -99.333 -27.167 -175.164 -81.5 -227.497s-131.833 -78.5 -232.5 -78.5c-18 0 -36.833 0.333008 -56.5 1s-38.667 1.66699 -57 3s-35 2.66602 -50 3.99902s-26.167 2.66602 -33.5 3.99902c-8.66699 1.33301 -15.167 4.33301 -19.5 9s-6.5 12 -6.5 22v673
c0 10 2.16699 17.333 6.5 22s10.833 7.66699 19.5 9c7.33301 1.33301 18.5 2.66602 33.5 3.99902s31.667 2.66602 50 3.99902s37.333 2.33301 57 3s38.5 1 56.5 1c100.667 0 178.167 -26.167 232.5 -78.5s81.5 -128.166 81.5 -227.499v-147zM474 445.002
c0 37.333 -4.5 68.1719 -13.5 92.5049s-21.333 43.666 -37 57.999s-34.334 24.333 -56.001 30s-44.834 8.5 -69.501 8.5c-18.667 0 -34.667 -0.333008 -48 -1s-25.333 -1.33398 -36 -2.00098v-519c10.667 -0.666992 22.667 -1.33398 36 -2.00098s29.333 -1 48 -1
c24.667 0 47.834 2.83301 69.501 8.5s40.334 15.667 56.001 30s28 33.666 37 57.999s13.5 55.166 13.5 92.499v147z" />
    <glyph glyph-name="E" unicode="E" horiz-adv-x="576" 
d="M516 27c0 -7.33301 -1.5 -12.335 -4.5 -15.002s-8.16699 -4.66699 -15.5 -6l-26.5 -4.5c-9.66699 -1.66699 -21.667 -3.16699 -36 -4.5s-31.666 -2.5 -51.999 -3.5s-45.5 -1.5 -75.5 -1.5c-32.667 0 -63 2.66699 -91 8s-52.333 15.5 -73 30.5s-37 35.833 -49 62.5
s-18 61.334 -18 104.001v349c0 42.667 6 77.334 18 104.001s28.333 47.5 49 62.5s45 25.167 73 30.5s58.333 8 91 8c30 0 55.167 -0.5 75.5 -1.5s37.666 -2.16699 51.999 -3.5s26.333 -2.83301 36 -4.5l26.5 -4.5c7.33301 -1.33301 12.5 -3.33301 15.5 -6
s4.5 -7.66699 4.5 -15v-64c0 -5.33301 -2 -10 -6 -14s-8.66699 -6 -14 -6h-204c-29.333 0 -49.833 -6 -61.5 -18s-17.5 -34.667 -17.5 -68v-108h271c5.33301 0 10 -2 14 -6s6 -8.66699 6 -14v-72c0 -5.33301 -2 -10 -6 -14s-8.66699 -6 -14 -6h-271v-129
c0 -33.333 5.83301 -56 17.5 -68s32.167 -18 61.5 -18h204c5.33301 0 10 -2 14 -6s6 -8.66699 6 -14v-64v0z" />
    <glyph glyph-name="F" unicode="F" horiz-adv-x="576" 
d="M516 652c0 -5.33301 -1.99902 -10.001 -5.99902 -14.001s-8.66699 -6 -14 -6h-204c-29.333 0 -49.833 -6 -61.5 -18s-17.5 -34.667 -17.5 -68v-108h271c5.33301 0 10 -2 14 -6s6 -8.66699 6 -14v-72c0 -5.33301 -2 -10 -6 -14s-8.66699 -6 -14 -6h-271v-306
c0 -5.33301 -2 -10 -6 -14s-8.66699 -6 -14 -6h-98c-5.33301 0 -10 2 -14 6s-6 8.66699 -6 14v526c0 42.667 6 77.334 18 104.001s28.333 47.5 49 62.5s45 25.167 73 30.5s58.333 8 91 8c30 0 55.167 -0.5 75.5 -1.5s37.666 -2.16699 51.999 -3.5s26.333 -2.83301 36 -4.5
l26.5 -4.5c7.33301 -1.33301 12.5 -3.33301 15.5 -6s4.5 -7.66699 4.5 -15v-64v0z" />
    <glyph glyph-name="G" unicode="G" horiz-adv-x="635" 
d="M560 33c0 -13.333 -6.33398 -21.3311 -19.001 -23.998c-25.333 -5.33301 -55 -9.5 -89 -12.5s-77 -4.5 -129 -4.5c-27.333 0 -56.5 5 -87.5 15s-60 26.667 -87 50s-49.333 54.666 -67 93.999s-26.5 88.666 -26.5 147.999v144c0 59.333 8.5 108.666 25.5 147.999
s38.833 70.833 65.5 94.5s55.834 40.5 87.501 50.5s62.5 15 92.5 15c24 0 47.167 -0.666992 69.5 -2s42.833 -3 61.5 -5s35.334 -4 50.001 -6s26 -3.66699 34 -5c12.667 -2.66699 19 -9.66699 19 -21v-67c0 -7.33301 -1.33301 -12.666 -4 -15.999s-8 -5 -16 -5h-3
c-23.333 2 -52.333 3.83301 -87 5.5s-76 2.5 -124 2.5c-16.667 0 -32.834 -3.16699 -48.501 -9.5s-29.667 -16.833 -42 -31.5s-22.166 -34.167 -29.499 -58.5s-11 -54.166 -11 -89.499v-144c0 -35.333 3.83301 -65 11.5 -89s17.667 -43.333 30 -58
s26.166 -25.167 41.499 -31.5s30.333 -9.5 45 -9.5c18.667 0 36 0.166992 52 0.5s31.667 1.16602 47 2.49902v255c0 5.33301 1.83301 10 5.5 14s8.16699 6 13.5 6h99c5.33301 0 10 -2 14 -6s6 -8.66699 6 -14v-336v0z" />
    <glyph glyph-name="H" unicode="H" horiz-adv-x="712" 
d="M637 20c0 -5.33301 -2 -10 -6 -14s-8.66699 -6 -14 -6h-99c-5.33301 0 -10 2 -14 6s-6 8.66699 -6 14v306h-284v-306c0 -5.33301 -2 -10 -6 -14s-8.66699 -6 -14 -6h-99c-5.33301 0 -10 2 -14 6s-6 8.66699 -6 14v704c0 5.33301 2 9.83301 6 13.5s8.66699 5.5 14 5.5h99
c5.33301 0 10 -1.83301 14 -5.5s6 -8.16699 6 -13.5v-276h284v276c0 5.33301 2 9.83301 6 13.5s8.66699 5.5 14 5.5h99c5.33301 0 10 -1.83301 14 -5.5s6 -8.16699 6 -13.5v-704v0z" />
    <glyph glyph-name="I" unicode="I" horiz-adv-x="289" 
d="M214 20c0 -5.33301 -2 -10 -6 -14s-8.66699 -6 -14 -6h-99c-5.33301 0 -10 2 -14 6s-6 8.66699 -6 14v704c0 5.33301 2 9.83301 6 13.5s8.66699 5.5 14 5.5h99c5.33301 0 10 -1.83301 14 -5.5s6 -8.16699 6 -13.5v-704v0z" />
    <glyph glyph-name="J" unicode="J" horiz-adv-x="289" 
d="M214 -21c0 -53.333 -13.165 -91 -39.498 -113s-66.5 -33 -120.5 -33c-7.33301 0 -15.333 0.333008 -24 1s-16.834 1.5 -24.501 2.5s-14.334 1.83301 -20.001 2.5s-9.5 1.33398 -11.5 2.00098c-6.66699 2 -10 6.66699 -10 14v71c0 5.33301 2 9.66602 6 12.999
s8.66699 5 14 5h66c9.33301 0 15.833 2.16699 19.5 6.5s5.5 13.833 5.5 28.5v745c0 5.33301 2 9.83301 6 13.5s8.66699 5.5 14 5.5h99c5.33301 0 10 -1.83301 14 -5.5s6 -8.16699 6 -13.5v-745v0z" />
    <glyph glyph-name="K" unicode="K" horiz-adv-x="643" 
d="M615 9c0 -6 -5 -9 -15 -9h-134c-10.667 0 -18.334 3.66699 -23.001 11l-229 341v-332c0 -5.33301 -2 -10 -6 -14s-8.66699 -6 -14 -6h-99c-5.33301 0 -10 2 -14 6s-6 8.66699 -6 14v703c0 5.33301 2 9.83301 6 13.5s8.66699 5.5 14 5.5h99c5.33301 0 10 -1.83301 14 -5.5
s6 -8.16699 6 -13.5v-318l245 329c2.66699 3.33301 5.83398 5.5 9.50098 6.5s8.16699 1.5 13.5 1.5h114c12.667 0 19 -4 19 -12c0 -4.66699 -2.33301 -10 -7 -16l-256 -331l258 -362c3.33301 -5.33301 5 -9.33301 5 -12z" />
    <glyph glyph-name="L" unicode="L" horiz-adv-x="516" 
d="M496 27c0 -7.33301 -1.49902 -12.334 -4.49902 -15.001s-8.16699 -4.66699 -15.5 -6c-7.33301 -2 -17.833 -3.83301 -31.5 -5.5s-28.5 -3.16699 -44.5 -4.5s-32.333 -2.33301 -49 -3s-31.667 -1 -45 -1c-32.667 0 -63 2.66699 -91 8s-52.333 15.5 -73 30.5
s-37 35.833 -49 62.5s-18 61.334 -18 104.001v526c0 5.33301 2 10 6 14s8.66699 6 14 6h99c5.33301 0 10 -2 14 -6s6 -8.66699 6 -14v-526c0 -33.333 5.66699 -56 17 -68s31.666 -18 60.999 -18h184c5.33301 0 10 -2 14 -6s6 -8.66699 6 -14v-64v0z" />
    <glyph glyph-name="M" unicode="M" horiz-adv-x="792" 
d="M717 15c0 -5.33301 -1.66309 -9.16602 -4.99609 -11.499s-7.33301 -3.5 -12 -3.5h-101c-4.66699 0 -8.5 2 -11.5 6s-4.5 8.66699 -4.5 14v465c0 6.66699 -1 10 -3 10c-0.666992 0 -2.33398 -2 -5.00098 -6l-96 -191c-3.33301 -5.33301 -7.83301 -9.5 -13.5 -12.5
s-11.834 -4.5 -18.501 -4.5h-101c-6.66699 0 -12.834 1.5 -18.501 4.5s-10.167 7.16699 -13.5 12.5l-97 191c-2.66699 4 -4.33398 6 -5.00098 6c-2 0 -3 -3.33301 -3 -10v-465c0 -5.33301 -1.5 -10 -4.5 -14s-6.83301 -6 -11.5 -6h-101c-4.66699 0 -8.66699 1.16699 -12 3.5
s-5 6.16602 -5 11.499v688c0 11.333 3.83301 20.833 11.5 28.5s17.167 11.5 28.5 11.5h82c8 0 15.333 -2.16699 22 -6.5s11.667 -10.166 15 -17.499l151 -306l6 -10.5c1.33301 -2.33301 3 -3.5 5 -3.5s3.66699 1.16699 5 3.5l6 10.5l151 306
c3.33301 7.33301 8.33301 13.166 15 17.499s14 6.5 22 6.5h82c11.333 0 20.833 -3.83301 28.5 -11.5s11.5 -17.167 11.5 -28.5v-688v0z" />
    <glyph glyph-name="N" unicode="N" horiz-adv-x="712" 
d="M637 40c0 -11.333 -3.83301 -20.833 -11.5 -28.5s-17.167 -11.5 -28.5 -11.5h-101c-12 0 -23.167 1.5 -33.5 4.5s-19.5 13.5 -27.5 31.5l-222 487c-2.66699 5.33301 -5.66699 8 -9 8s-5 -2.66699 -5 -8v-503c0 -5.33301 -1.83301 -10 -5.5 -14s-8.16699 -6 -13.5 -6h-85
c-5.33301 0 -10 2 -14 6s-6 8.66699 -6 14v683c0 11.333 3.83301 20.833 11.5 28.5s17.167 11.5 28.5 11.5h108c10.667 0 19.167 -2 25.5 -6s12.5 -12.667 18.5 -26l233 -514c2 -5.33301 4.66699 -8 8 -8s5 3 5 9v526c0 12.667 6.33301 19 19 19h86
c12.667 0 19 -6.33301 19 -19v-684v0z" />
    <glyph glyph-name="O" unicode="O" horiz-adv-x="680" 
d="M625 304c0 -55.333 -7.16699 -102.666 -21.5 -141.999s-34.166 -71.5 -59.499 -96.5s-55.333 -43.5 -90 -55.5s-72.667 -18 -114 -18s-79.333 6 -114 18s-64.667 30.5 -90 55.5s-45.166 57.167 -59.499 96.5s-21.5 86.666 -21.5 141.999v135
c0 54.667 7.16699 101.834 21.5 141.501s34.166 72 59.499 97s55.333 43.5 90 55.5s72.667 18 114 18s79.333 -6 114 -18s64.667 -30.5 90 -55.5s45.166 -57.333 59.499 -97s21.5 -86.834 21.5 -141.501v-135zM485 439c0 66.667 -11.833 115.167 -35.5 145.5
s-60.167 45.5 -109.5 45.5s-85.833 -15.167 -109.5 -45.5s-35.5 -78.833 -35.5 -145.5v-135c0 -66.667 11.833 -115.167 35.5 -145.5s60.167 -45.5 109.5 -45.5s85.833 15.167 109.5 45.5s35.5 78.833 35.5 145.5v135z" />
    <glyph glyph-name="P" unicode="P" horiz-adv-x="626" 
d="M591 511c0 -44 -7.83398 -80.999 -23.501 -110.999s-36.667 -54.167 -63 -72.5s-56.833 -31.333 -91.5 -39s-71.334 -11.5 -110.001 -11.5c-13.333 0 -28.666 0.5 -45.999 1.5l-43 2.5v-261c0 -5.33301 -1.83301 -10 -5.5 -14s-8.16699 -6 -13.5 -6h-100
c-5.33301 0 -10 2 -14 6s-6 8.66699 -6 14v688c0 10 2.83301 17.167 8.5 21.5s13.5 7.16602 23.5 8.49902c26 4 56 7.16699 90 9.5s69.333 3.5 106 3.5c38.667 0 75.334 -3.66699 110.001 -11s65.167 -20 91.5 -38s47.333 -41.833 63 -71.5s23.5 -66.5 23.5 -110.5v-9z
M452.999 520.001c0 42 -12.499 71.832 -37.499 89.499s-62.5 26.5 -112.5 26.5c-5.33301 0 -12.166 -0.166992 -20.499 -0.5l-25.5 -1c-8.66699 -0.333008 -16.834 -0.666016 -24.501 -0.999023s-13.834 -0.833008 -18.501 -1.5v-238c4 0 10.167 -0.166992 18.5 -0.5l26 -1
l26 -1c8.33301 -0.333008 14.5 -0.5 18.5 -0.5c54 0 92.5 10 115.5 30s34.5 50 34.5 90v9z" />
    <glyph glyph-name="Q" unicode="Q" horiz-adv-x="690" 
d="M630 304c0 -47.333 -5.3291 -88.833 -15.9961 -124.5s-25.667 -66 -45 -91s-42.333 -45 -69 -60s-56.334 -25.5 -89.001 -31.5v-21c0 -13.333 2.83301 -22 8.5 -26s12.834 -6 21.501 -6h97c7.33301 0 13.166 -1.33301 17.499 -4s6.5 -6.66699 6.5 -12v-62
c0 -10 -7.33301 -17 -22 -21c-10 -2.66699 -25 -5.16699 -45 -7.5s-38 -3.5 -54 -3.5c-24 0 -45.833 2.5 -65.5 7.5s-36.667 13.167 -51 24.5s-25.5 25.833 -33.5 43.5s-12 39.167 -12 64.5v23c-32.667 6 -62.334 16.5 -89.001 31.5s-49.667 35 -69 60
s-34.333 55.333 -45 91s-16 77.167 -16 124.5v135c0 54.667 7.16699 101.834 21.5 141.501s34.166 72 59.499 97s55.333 43.5 90 55.5s72.667 18 114 18s79.333 -6 114 -18s64.667 -30.5 90 -55.5s45.166 -57.333 59.499 -97s21.5 -86.834 21.5 -141.501v-135zM490.004 439
c0 66.667 -11.833 115.167 -35.5 145.5s-60.167 45.5 -109.5 45.5s-85.833 -15.167 -109.5 -45.5s-35.5 -78.833 -35.5 -145.5v-135c0 -66.667 11.833 -115.167 35.5 -145.5s60.167 -45.5 109.5 -45.5s85.833 15.167 109.5 45.5s35.5 78.833 35.5 145.5v135z" />
    <glyph glyph-name="R" unicode="R" horiz-adv-x="653" 
d="M615 12c0 -8 -4.00195 -12 -12.002 -12h-122c-5.33301 0 -9.33301 2 -12 6s-5.33398 8.66699 -8.00098 14l-144 267h-14c-13.333 0 -28.666 0.5 -45.999 1.5l-43 2.5v-271c0 -5.33301 -1.83301 -10 -5.5 -14s-8.16699 -6 -13.5 -6h-100c-5.33301 0 -10 2 -14 6
s-6 8.66699 -6 14v688c0 10 2.83301 17.167 8.5 21.5s13.5 7.16602 23.5 8.49902c26 4 56 7.16699 90 9.5s69.333 3.5 106 3.5c38.667 0 75.334 -3.83301 110.001 -11.5s65.167 -20.167 91.5 -37.5s47.333 -40.5 63 -69.5s23.5 -64.833 23.5 -107.5v-9
c0 -53.333 -12.167 -96.666 -36.5 -129.999s-57.166 -58 -98.499 -74l157 -292c1.33301 -2 2 -4.66699 2 -8zM452.998 525c0 38 -12.499 65.332 -37.499 81.999s-62.5 25 -112.5 25c-5.33301 0 -12.166 -0.166992 -20.499 -0.5l-25.5 -1
c-8.66699 -0.333008 -16.834 -0.666016 -24.501 -0.999023s-13.834 -0.833008 -18.501 -1.5v-225c4 0 10.167 -0.166992 18.5 -0.5l26 -1l26 -1c8.33301 -0.333008 14.5 -0.5 18.5 -0.5c52 0 90 8.33301 114 25s36 47 36 91v9z" />
    <glyph glyph-name="S" unicode="S" horiz-adv-x="570" 
d="M525 201c0 -25.333 -4.33203 -50.4941 -12.999 -75.4941s-23.167 -47.333 -43.5 -67s-47.333 -35.667 -81 -48s-75.5 -18.5 -125.5 -18.5c-38 0 -71 1.66699 -99 5s-54 7.66602 -78 12.999c-5.33301 1.33301 -9.83301 3.66602 -13.5 6.99902s-5.5 7.66602 -5.5 12.999v72
c0 5.33301 1.83301 9.83301 5.5 13.5s8.16699 5.5 13.5 5.5h2c10 -1.33301 23.167 -2.5 39.5 -3.5l50.5 -3c17.333 -1 33.833 -1.83301 49.5 -2.5s28.167 -1 37.5 -1c44.667 0 75.167 7.66699 91.5 23s24.5 37.666 24.5 66.999c0 10 -1.33301 18.833 -4 26.5
s-7.33398 15.167 -14.001 22.5s-15.334 14.833 -26.001 22.5s-24.334 16.5 -41.001 26.5l-132 79c-23.333 14 -42.5 28 -57.5 42s-27 28.5 -36 43.5s-15.333 30.667 -19 47s-5.5 33.166 -5.5 50.499c0 27.333 4.33301 52.666 13 75.999s22.834 43.5 42.501 60.5
s45.334 30.167 77.001 39.5s70.834 14 117.501 14c16.667 0 34.334 -0.5 53.001 -1.5s37 -2.5 55 -4.5s34.333 -4 49 -6s26.334 -4 35.001 -6c5.33301 -1.33301 9.66602 -3.5 12.999 -6.5s5 -7.16699 5 -12.5v-74c0 -5.33301 -1.5 -9.66602 -4.5 -12.999
s-7.16699 -5 -12.5 -5h-2c-33.333 3.33301 -66.333 5.83301 -99 7.5s-65.334 2.5 -98.001 2.5c-37.333 0 -64.166 -6.16699 -80.499 -18.5s-24.5 -29.833 -24.5 -52.5c0 -8 1.16699 -15.5 3.5 -22.5s6.66602 -14 12.999 -21s14.833 -14.167 25.5 -21.5s24 -15.333 40 -24
l120 -67c27.333 -15.333 50 -30.833 68 -46.5s32.167 -31.834 42.5 -48.501s17.666 -34 21.999 -52s6.5 -37 6.5 -57z" />
    <glyph glyph-name="T" unicode="T" horiz-adv-x="579" 
d="M554 645c0 -5.33301 -2 -9.66602 -6 -12.999s-8.66699 -5 -14 -5h-175v-607c0 -5.33301 -2 -10 -6 -14s-8.66699 -6 -14 -6h-99c-5.33301 0 -10 2 -14 6s-6 8.66699 -6 14v607h-175c-5.33301 0 -10 1.66699 -14 5s-6 7.66602 -6 12.999v79c0 5.33301 2 9.83301 6 13.5
s8.66699 5.5 14 5.5h489c5.33301 0 10 -1.83301 14 -5.5s6 -8.16699 6 -13.5v-79v0z" />
    <glyph glyph-name="U" unicode="U" horiz-adv-x="690" 
d="M620 275c0 -53.333 -6.83203 -98 -20.499 -134s-32.667 -65 -57 -87s-53.333 -37.833 -87 -47.5s-70.5 -14.5 -110.5 -14.5s-76.833 4.83301 -110.5 14.5s-62.667 25.5 -87 47.5s-43.333 51 -57 87s-20.5 80.667 -20.5 134v449c0 5.33301 2 9.83301 6 13.5
s8.66699 5.5 14 5.5h99c5.33301 0 10 -1.83301 14 -5.5s6 -8.16699 6 -13.5v-449c0 -28.667 2 -53.5 6 -74.5s11.167 -38.5 21.5 -52.5s24.166 -24.333 41.499 -31s39.666 -10 66.999 -10c26.667 0 48.834 3.33301 66.501 10s31.667 17 42 31s17.5 31.5 21.5 52.5
s6 45.833 6 74.5v449c0 5.33301 2 9.83301 6 13.5s8.66699 5.5 14 5.5h99c5.33301 0 10 -1.83301 14 -5.5s6 -8.16699 6 -13.5v-449v0z" />
    <glyph glyph-name="V" unicode="V" horiz-adv-x="656" 
d="M632 726c0 -1.33301 -0.161133 -2.16602 -0.494141 -2.49902s-0.5 -1.16602 -0.5 -2.49902l-164 -627c-6 -23.333 -14.667 -41.666 -26 -54.999s-23.5 -23.5 -36.5 -30.5s-26.333 -11.5 -40 -13.5s-25.834 -3 -36.501 -3s-22.834 1 -36.501 3s-27 6.5 -40 13.5
s-25.167 17.167 -36.5 30.5s-20 31.666 -26 54.999l-164 627c0 1.33301 -0.166992 2.16602 -0.5 2.49902s-0.5 1.16602 -0.5 2.49902c0 5.33301 1.66699 9.5 5 12.5s7.66602 4.5 12.999 4.5h106c4.66699 0 8.66699 -1.66699 12 -5s5.66602 -7.33301 6.99902 -12l145 -601
c1.33301 -6 3 -10.167 5 -12.5s5.66699 -3.5 11 -3.5s9 1.16699 11 3.5s3.66699 6.5 5 12.5l145 601c1.33301 4.66699 3.66602 8.66699 6.99902 12s7.33301 5 12 5h106c5.33301 0 9.66602 -1.5 12.999 -4.5s5 -7.16699 5 -12.5z" />
    <glyph glyph-name="W" unicode="W" horiz-adv-x="862" 
d="M838 726l-93.9951 -653c-4.66699 -31.333 -14.334 -52.666 -29.001 -63.999s-35 -17 -61 -17h-54c-22.667 0 -40.334 6 -53.001 18s-22.667 32.667 -30 62l-79 330c-1.33301 7.33301 -3.33301 11 -6 11c-3.33301 0 -5.66602 -3.66699 -6.99902 -11l-79 -330
c-7.33301 -29.333 -17.333 -50 -30 -62s-30.334 -18 -53.001 -18h-54c-26 0 -46.333 5.66699 -61 17s-24.334 32.666 -29.001 63.999l-94 653v3c0 4.66699 1.66699 8.16699 5 10.5s7.33301 3.5 12 3.5h106c4 0 7.66699 -1.66699 11 -5s5.33301 -7.66602 6 -12.999l72 -597
c0.666992 -4.66699 1.16699 -8.33398 1.5 -11.001s1.5 -4 3.5 -4s3.16699 1.33301 3.5 4s1.16602 6.33398 2.49902 11.001l86 351c3.33301 12 9.33301 22.5 18 31.5s23.667 13.5 45 13.5h69c21.333 0 36.333 -4.5 45 -13.5s14.667 -19.5 18 -31.5l86 -351
c1.33301 -4.66699 2.16602 -8.33398 2.49902 -11.001s1.5 -4 3.5 -4s3.16699 1.33301 3.5 4s0.833008 6.33398 1.5 11.001l72 597c0.666992 5.33301 2.66699 9.66602 6 12.999s7 5 11 5h106c4.66699 0 8.66699 -1.16699 12 -3.5s5 -5.83301 5 -10.5v-3z" />
    <glyph glyph-name="X" unicode="X" horiz-adv-x="650" 
d="M627 12c0 -3.33301 -1.33203 -6.16699 -3.99902 -8.5s-6.66699 -3.5 -12 -3.5h-118c-5.33301 -0 -10 1.83301 -14 5.5s-8 8.5 -12 14.5l-147 236l-138 -236c-7.33301 -13.333 -16 -20 -26 -20h-109c-10.667 -0 -16 4.33301 -16 13c0 2 0.666992 4.33301 2 7l213 355
l-219 349c-1.33301 2.66699 -2 4.66699 -2 6c0 8.66699 5.33301 13 16 13h118c5.33301 0 10.166 -2 14.499 -6s8.16602 -8.33301 11.499 -13l146 -233l135 233c2.66699 4.66699 6.33398 9 11.001 13s9.66699 6 15 6h109c10.667 0 16 -4.33301 16 -13
c0 -1.33301 -0.666992 -3.33301 -2 -6l-210 -352l220 -352c1.33301 -2 2 -4.66699 2 -8z" />
    <glyph glyph-name="Y" unicode="Y" horiz-adv-x="615" 
d="M590 728c0 -1.33301 -0.665039 -4 -1.99805 -8l-152 -347c-9.33301 -22 -19 -38.5 -29 -49.5s-20.667 -18.833 -32 -23.5v-280c0 -5.33301 -1.83301 -10 -5.5 -14s-8.16699 -6 -13.5 -6h-100c-5.33301 0 -9.83301 2 -13.5 6s-5.5 8.66699 -5.5 14v280
c-11.333 4.66699 -22 12.5 -32 23.5s-19.667 27.5 -29 49.5l-151 347c-1.33301 4 -2 6.66699 -2 8c0 4 1.33301 7.5 4 10.5s6.66699 4.5 12 4.5h111c4.66699 0 8.66699 -1.66699 12 -5s5.66602 -7 6.99902 -11l120 -298c3.33301 -8.66699 6.5 -14.167 9.5 -16.5
s5.5 -3.5 7.5 -3.5c2.66699 0 5.5 1.16699 8.5 3.5s6.16699 7.83301 9.5 16.5l120 298c1.33301 4 3.66602 7.66699 6.99902 11s7.33301 5 12 5h110c5.33301 0 9.5 -1.5 12.5 -4.5s4.5 -6.5 4.5 -10.5z" />
    <glyph glyph-name="Z" unicode="Z" horiz-adv-x="588" 
d="M548 20c0 -5.33301 -1.99902 -10.001 -5.99902 -14.001s-8.66699 -6 -14 -6h-437c-14.667 0 -26.834 2.83301 -36.501 8.5s-14.5 15.167 -14.5 28.5v55c0 6 0.833008 12 2.5 18s5.16699 12.667 10.5 20l317 475c2 2.66699 3 5.66699 3 9c0 5.33301 -3.33301 8 -10 8h-278
c-12.667 0 -19 6 -19 18v84c0 12.667 6.33301 19 19 19h403c14.667 0 27.167 -3 37.5 -9s15.5 -15.667 15.5 -29v-58c0 -7.33301 -1.33301 -14.5 -4 -21.5s-6 -13.5 -10 -19.5l-312 -467c-2.66699 -3.33301 -4 -7 -4 -11s3 -6 9 -6h308c5.33301 0 10 -1.66699 14 -5
s6 -7.66602 6 -12.999v-84v0z" />
    <glyph glyph-name="bracketleft" unicode="[" horiz-adv-x="356" 
d="M328 -178c0 -10.667 -6.33301 -16 -19 -16h-222c-5.33301 0 -9.5 1.83301 -12.5 5.5s-4.5 8.16699 -4.5 13.5v899c0 5.33301 1.5 9.83301 4.5 13.5s7.16699 5.5 12.5 5.5h222c12.667 0 19 -5.33301 19 -16v-73c0 -11.333 -6.33301 -17 -19 -17h-105v-725h105
c12.667 0 19 -5.66699 19 -17v-73v0z" />
    <glyph glyph-name="backslash" unicode="\" horiz-adv-x="385" 
d="M371 8c0 -4 -1.66504 -7.66602 -4.99805 -10.999s-7.33301 -5 -12 -5h-101c-5.33301 0 -9.33301 2.16699 -12 6.5s-4.66699 9.16602 -6 14.499l-219 710c0 1.33301 -0.166992 2.16602 -0.5 2.49902s-0.5 1.16602 -0.5 2.49902c0 4 1.66699 7.5 5 10.5s7.33301 4.5 12 4.5
h100c5.33301 0 9.66602 -2 12.999 -6s5.66602 -8.66699 6.99902 -14l218 -710c0 -1.33301 0.166992 -2.16602 0.5 -2.49902s0.5 -1.16602 0.5 -2.49902z" />
    <glyph glyph-name="bracketright" unicode="]" horiz-adv-x="356" 
d="M286 -175c0 -5.33301 -1.5 -9.83301 -4.5 -13.5s-7.16699 -5.5 -12.5 -5.5h-222c-12.667 0 -19 5.33301 -19 16v73c0 11.333 6.33301 17 19 17h105v725h-105c-12.667 0 -19 5.33301 -19 16v73c0 11.333 6.33301 17 19 17h222c5.33301 0 9.5 -1.83301 12.5 -5.5
s4.5 -8.16699 4.5 -13.5v-899v0z" />
    <glyph glyph-name="asciicircum" unicode="^" 
d="M548 573c0 -6 -4 -9 -12 -9h-102c-7.33301 0 -12.833 1.33301 -16.5 4s-8.16699 6.66699 -13.5 12l-89 102l-89 -102c-5.33301 -5.33301 -9.83301 -9.33301 -13.5 -12s-9.16699 -4 -16.5 -4h-102c-8 0 -12 3 -12 9c0 3.33301 1.66699 7.33301 5 12l113 148
c5.33301 7.33301 10 12.166 14 14.499s10 3.5 18 3.5h166c8 0 14 -1.16699 18 -3.5s8.66699 -7.16602 14 -14.499l113 -148c3.33301 -4.66699 5 -8.66699 5 -12z" />
    <glyph glyph-name="underscore" unicode="_" horiz-adv-x="523" 
d="M554 -98c0 -5.33301 -2 -9.33301 -6 -12s-8.66699 -4 -14 -4h-545c-5.33301 0 -10 1.33301 -14 4s-6 6.66699 -6 12v39c0 5.33301 2 9.33301 6 12s8.66699 4 14 4h545c5.33301 0 10 -1.33301 14 -4s6 -6.66699 6 -12v-39v0z" />
    <glyph glyph-name="grave" unicode="`" horiz-adv-x="415" 
d="M273 634c0 -4.66699 -3 -7.00195 -9 -7.00195h-86c-6 0 -10.333 1 -13 3s-6 5.33301 -10 10l-119 124c-2.66699 2.66699 -4 5.33398 -4 8.00098c0 4.66699 3.66699 7 11 7h106c6.66699 0 11.5 -1.16699 14.5 -3.5s6.83301 -6.16602 11.5 -11.499l94 -120
c2.66699 -2.66699 4 -6 4 -10z" />
    <glyph glyph-name="a" unicode="a" horiz-adv-x="548" 
d="M483 20c0 -5.33301 -2.00195 -10.002 -6.00195 -14.002s-8.66699 -6 -14 -6h-85c-5.33301 0 -10 2 -14 6s-6 8.66699 -6 14v16c-23.333 -14 -46.666 -24.833 -69.999 -32.5s-47 -11.5 -71 -11.5c-20.667 0 -41.334 2.33301 -62.001 7s-39.167 13.334 -55.5 26.001
s-29.666 29.667 -39.999 51s-15.5 49 -15.5 83v4c0 28.667 4.5 53.667 13.5 75s23.333 39.333 43 54s45 25.667 76 33s68.167 11 111.5 11h63v44c0 32.667 -7.16699 54.334 -21.5 65.001s-36.5 16 -66.5 16c-32 0 -63 -0.833008 -93 -2.5s-53.333 -3.5 -70 -5.5h-5
c-5.33301 0 -9.66602 1 -12.999 3s-5 6.66699 -5 14v64c0 11.333 6.33301 18.333 19 21c20 4 44.167 7.66699 72.5 11s59.833 5 94.5 5c71.333 0 125.833 -15.667 163.5 -47s56.5 -79.333 56.5 -144v-360zM350.998 247.998h-63.001c-22.667 0 -41.167 -1.83301 -55.5 -5.5
s-25.666 -9 -33.999 -16s-14 -15.833 -17 -26.5s-4.5 -23 -4.5 -37v-4c0 -24.667 5.66699 -41.167 17 -49.5s29.666 -12.5 54.999 -12.5c18 0 35.833 2.66699 53.5 8s33.834 12 48.501 20v123z" />
    <glyph glyph-name="b" unicode="b" horiz-adv-x="577" 
d="M532 243c0 -78.667 -19.6699 -140.167 -59.0029 -184.5s-99.333 -66.5 -180 -66.5c-32 0 -65.667 2.33301 -101 7s-68.666 11 -99.999 19c-11.333 3.33301 -18.666 6.83301 -21.999 10.5s-5 9.16699 -5 16.5v696c0 5.33301 2 10 6 14s8.66699 6 14 6h92
c5.33301 0 10 -2 14 -6s6 -8.66699 6 -14v-177c18.667 2.66699 36.334 4.5 53.001 5.5s31 1.5 43 1.5c80.667 0 140.667 -22.167 180 -66.5s59 -105.833 59 -184.5v-77zM399.997 320c0 20.667 -1.49902 39.667 -4.49902 57s-8.5 32.333 -16.5 45s-19 22.667 -33 30
s-31.667 11 -53 11c-12 0 -27.5 -0.666992 -46.5 -2s-35.5 -3 -49.5 -5v-349c9.33301 -2 23.166 -3.66699 41.499 -5s36.5 -2 54.5 -2c21.333 0 39 3.66699 53 11s25 17.333 33 30s13.5 27.667 16.5 45s4.5 36.333 4.5 57v77z" />
    <glyph glyph-name="c" unicode="c" horiz-adv-x="468" 
d="M423 31c0 -8 -1.33301 -13.8311 -4 -17.498s-8.33398 -6.5 -17.001 -8.5c-11.333 -3.33301 -28 -6.33301 -50 -9s-48.333 -4 -79 -4c-32.667 0 -62.834 5 -90.501 15s-51.667 25.167 -72 45.5s-36.333 45.666 -48 75.999s-17.5 65.833 -17.5 106.5v93
c0 40.667 5.83301 76.167 17.5 106.5s27.667 55.666 48 75.999s44.333 35.5 72 45.5s57.834 15 90.501 15c30.667 0 57 -1.33301 79 -4s38.667 -5.66699 50 -9c8.66699 -2 14.334 -4.83301 17.001 -8.5s4 -9.5 4 -17.5v-65c0 -5.33301 -1.66699 -9.16602 -5 -11.499
s-7.66602 -3.5 -12.999 -3.5h-3c-10 1.33301 -19.333 2.5 -28 3.5s-17.667 1.66699 -27 2s-20 0.666016 -32 0.999023s-26 0.5 -42 0.5c-12 0 -23.667 -2 -35 -6s-21.5 -10.833 -30.5 -20.5s-16.333 -23 -22 -40s-8.5 -38.5 -8.5 -64.5v-93c0 -26 2.83301 -47.5 8.5 -64.5
s13 -30.333 22 -40s19.167 -16.5 30.5 -20.5s23 -6 35 -6c16 0 30 0.166992 42 0.5s22.667 0.666016 32 0.999023s18.333 1 27 2s18 2.16699 28 3.5h3c5.33301 0 9.66602 -1.16699 12.999 -3.5s5 -6.16602 5 -11.499v-65v0z" />
    <glyph glyph-name="d" unicode="d" horiz-adv-x="577" 
d="M512 45c0 -7.33301 -1.66992 -12.833 -5.00293 -16.5s-10.666 -7.16699 -21.999 -10.5c-31.333 -8 -64.666 -14.333 -99.999 -19s-69 -7 -101 -7c-80.667 0 -140.667 22.167 -180 66.5s-59 105.833 -59 184.5v77c0 78.667 19.667 140.167 59 184.5s99.333 66.5 180 66.5
c12 0 26.333 -0.5 43 -1.5s34.334 -2.83301 53.001 -5.5v177c0 5.33301 2 10 6 14s8.66699 6 14 6h92c5.33301 0 10 -2 14 -6s6 -8.66699 6 -14v-696zM379.997 456c-14 2 -30.499 3.66699 -49.499 5s-34.5 2 -46.5 2c-21.333 0 -39 -3.66699 -53 -11s-25 -17.333 -33 -30
s-13.5 -27.667 -16.5 -45s-4.5 -36.333 -4.5 -57v-77c0 -20.667 1.5 -39.667 4.5 -57s8.5 -32.333 16.5 -45s19 -22.667 33 -30s31.667 -11 53 -11c18 0 36.167 0.666992 54.5 2s32.166 3 41.499 5v349z" />
    <glyph glyph-name="e" unicode="e" horiz-adv-x="574" 
d="M526 261c0 -16.667 -6.66797 -25 -20.001 -25h-326v-3c0 -14.667 1.66699 -29.5 5 -44.5s9.5 -28.667 18.5 -41s21.333 -22.333 37 -30s35.5 -11.5 59.5 -11.5c36.667 0 71.167 1.16699 103.5 3.5s59.166 4.5 80.499 6.5h3c5.33301 0 9.66602 -1.16699 12.999 -3.5
s5 -6.16602 5 -11.499v-66c0 -8 -1.16699 -14 -3.5 -18s-8.16602 -6.66699 -17.499 -8c-16 -3.33301 -31 -6 -45 -8s-28.167 -3.66699 -42.5 -5s-30 -2.33301 -47 -3s-36.833 -1 -59.5 -1c-25.333 0 -52.166 3.83301 -80.499 11.5s-54.5 21 -78.5 40
s-43.833 44.667 -59.5 77s-23.5 73.166 -23.5 122.499v74c0 38.667 5.33301 73.667 16 105s26.167 58 46.5 80s45.5 39 75.5 51s64 18 102 18c38.667 0 72.834 -6.16699 102.501 -18.5s54.5 -29.833 74.5 -52.5s35.167 -49.5 45.5 -80.5s15.5 -65.167 15.5 -102.5v-56z
M392.999 334c0 39.333 -9.66797 69.667 -29.001 91s-44.666 32 -75.999 32s-57 -10.5 -77 -31.5s-30 -51.5 -30 -91.5v-4h212v4z" />
    <glyph glyph-name="f" unicode="f" horiz-adv-x="395" 
d="M375 690c0 -6 -1.66797 -10.333 -5.00098 -13s-6.66602 -4 -9.99902 -4h-45c-24 0 -39.833 -3.83301 -47.5 -11.5s-11.5 -23.834 -11.5 -48.501v-49h96c5.33301 0 10 -2 14 -6s6 -8.66699 6 -14v-60c0 -5.33301 -2 -9.83301 -6 -13.5s-8.66699 -5.5 -14 -5.5h-96v-444
c0 -5.33301 -2 -10.166 -6 -14.499s-8.66699 -6.5 -14 -6.5h-91c-5.33301 0 -10.166 2.16699 -14.499 6.5s-6.5 9.16602 -6.5 14.499v444l-89 14c-5.33301 1.33301 -10 3.5 -14 6.5s-6 7.16699 -6 12.5v46c0 5.33301 2 10 6 14s8.66699 6 14 6h89v49
c0 32 4.16699 58.333 12.5 79s20 37 35 49s33.167 20.333 54.5 25s45 7 71 7c12 0 22.667 -0.833008 32 -2.5s18.666 -3.5 27.999 -5.5c4 -1.33301 8 -3.16602 12 -5.49902s6 -5.83301 6 -10.5v-59v0z" />
    <glyph glyph-name="g" unicode="g" horiz-adv-x="584" 
d="M556 495c0 -7.33301 -1.16602 -12.1689 -3.49902 -14.502s-6.5 -4.83301 -12.5 -7.5l-33 -13c8 -11.333 14.167 -23.166 18.5 -35.499s6.5 -27.166 6.5 -44.499v-7c0 -62.667 -20.5 -108.667 -61.5 -138s-99.5 -44 -175.5 -44c-26.667 0 -49 1.83301 -67 5.5
s-32 7.5 -42 11.5c-11.333 -7.33301 -17 -16 -17 -26s2.83301 -17.333 8.5 -22s14.167 -8.33398 25.5 -11.001l118 -28c34 -8 64.833 -15.833 92.5 -23.5s51.167 -17.167 70.5 -28.5s34.333 -25.5 45 -42.5s16 -38.833 16 -65.5v-7c0 -51.333 -19.5 -90.333 -58.5 -117
s-101.167 -40 -186.5 -40c-81.333 0 -143 14.5 -185 43.5s-63 69.833 -63 122.5v9c0 20.667 4.5 40.5 13.5 59.5s21.5 35.833 37.5 50.5c-14 10.667 -25 24.167 -33 40.5s-12 33.5 -12 51.5v1c0 15.333 3.33301 30.333 10 45s16.667 26.667 30 36
c-15.333 15.333 -26 32.333 -32 51s-9 40.667 -9 66v7c0 24.667 4.33301 48.167 13 70.5s22.5 42 41.5 59s43.5 30.333 73.5 40s66.667 14.5 110 14.5h234c7.33301 0 13.666 -2.66699 18.999 -8s8 -11.666 8 -18.999v-42zM402.001 377.997
c0 12 -1.50098 23.167 -4.50098 33.5s-8.5 19.333 -16.5 27s-19 13.667 -33 18s-31.667 6.5 -53 6.5s-39 -2.16699 -53 -6.5s-25 -10.333 -33 -18s-13.667 -16.667 -17 -27s-5 -21.5 -5 -33.5v-8c0 -9.33301 1.33301 -18.666 4 -27.999s7.83398 -17.833 15.501 -25.5
s18.5 -13.834 32.5 -18.501s32.667 -7 56 -7c41.333 0 69.5 6.83301 84.5 20.5s22.5 33.167 22.5 58.5v8zM413 -39.0029c0 5.33301 -1.16699 10.3311 -3.5 14.998s-7.66602 9.33398 -15.999 14.001s-20.333 9.5 -36 14.5s-36.5 10.5 -62.5 16.5l-89 21
c-7.33301 -10.667 -13.333 -20.5 -18 -29.5s-7 -22.5 -7 -40.5v-9c0 -10 1.83301 -19.167 5.5 -27.5s10 -15.333 19 -21s21.167 -10 36.5 -13s34.666 -4.5 57.999 -4.5c24 0 43.333 1.33301 58 4s26.167 6.33398 34.5 11.001s13.833 10.5 16.5 17.5s4 15.167 4 24.5v7z" />
    <glyph glyph-name="h" unicode="h" horiz-adv-x="592" 
d="M527 21c0 -5.33301 -2 -10.166 -6 -14.499s-8.66699 -6.5 -14 -6.5h-92c-5.33301 0 -10 2.16699 -14 6.5s-6 9.16602 -6 14.499v329c0 22 -1.16699 40 -3.5 54s-6.5 25 -12.5 33s-14.333 13.667 -25 17s-24.334 5 -41.001 5c-34 0 -72.667 -11.333 -116 -34v-404
c0 -5.33301 -2 -10.166 -6 -14.499s-8.66699 -6.5 -14 -6.5h-92c-5.33301 0 -10 2.16699 -14 6.5s-6 9.16602 -6 14.499v720c0 5.33301 2 10 6 14s8.66699 6 14 6h92c5.33301 0 10 -2 14 -6s6 -8.66699 6 -14v-207c19.333 11.333 40.333 20.333 63 27s52 10 88 10
c34.667 0 63.5 -5.66699 86.5 -17s41.333 -27 55 -47s23.334 -43.5 29.001 -70.5s8.5 -55.833 8.5 -86.5v-329v0z" />
    <glyph glyph-name="i" unicode="i" horiz-adv-x="268" 
d="M203 659c0 -5.33301 -2 -10 -6 -14s-8.66699 -6 -14 -6h-97c-5.33301 0 -10.166 2 -14.499 6s-6.5 8.66699 -6.5 14v88c0 5.33301 2.16699 10 6.5 14s9.16602 6 14.499 6h97c5.33301 0 10 -2 14 -6s6 -8.66699 6 -14v-88zM200 21c0 -5.33301 -2 -10.166 -6 -14.499
s-8.66699 -6.5 -14 -6.5h-92c-5.33301 0 -10 2.16699 -14 6.5s-6 9.16602 -6 14.499v523c0 5.33301 2 10 6 14s8.66699 6 14 6h92c5.33301 0 10 -2 14 -6s6 -8.66699 6 -14v-523z" />
    <glyph glyph-name="j" unicode="j" horiz-adv-x="268" 
d="M203 659c0 -5.33301 -2.16699 -10 -6.5 -14s-9.16602 -6 -14.499 -6h-96c-5.33301 0 -10 2 -14 6s-6 8.66699 -6 14v88c0 5.33301 2 10 6 14s8.66699 6 14 6h96c5.33301 0 10.166 -2 14.499 -6s6.5 -8.66699 6.5 -14v-88zM200 -42
c0 -30.667 -3.33398 -56.167 -10.001 -76.5s-16.334 -36.5 -29.001 -48.5s-28.167 -20.5 -46.5 -25.5s-39.166 -7.5 -62.499 -7.5c-11.333 0 -22.166 0.5 -32.499 1.5s-21.5 2.5 -33.5 4.5c-12.667 2 -19 8 -19 18v65c0 10.667 7 16 21 16h45c16 0 25.833 3.83301 29.5 11.5
s5.5 21.5 5.5 41.5v586c0 5.33301 2 10 6 14s8.66699 6 14 6h92c5.33301 0 10 -2 14 -6s6 -8.66699 6 -14v-586z" />
    <glyph glyph-name="k" unicode="k" horiz-adv-x="549" 
d="M519 12c0 -3.33301 -1.33301 -6.16895 -4 -8.50195s-6 -3.5 -10 -3.5h-122c-5.33301 0 -10.666 2.16699 -15.999 6.5s-9.66602 8.83301 -12.999 13.5l-157 228v-227c0 -5.33301 -2 -10.166 -6 -14.499s-8.66699 -6.5 -14 -6.5h-92c-5.33301 0 -10 2.16699 -14 6.5
s-6 9.16602 -6 14.499v720c0 5.33301 2 10 6 14s8.66699 6 14 6h92c5.33301 0 10 -2 14 -6s6 -8.66699 6 -14v-417l171 228c3.33301 4.66699 7.16602 7.83398 11.499 9.50098s8.16602 2.5 11.499 2.5h112c10 0 15 -3.66699 15 -11c0 -3.33301 -1.33301 -6.66602 -4 -9.99902
l-201 -247l203 -276c2 -3.33301 3 -6 3 -8z" />
    <glyph glyph-name="l" unicode="l" horiz-adv-x="272" 
d="M202 21c0 -5.33301 -1.83301 -10.166 -5.5 -14.499s-8.16699 -6.5 -13.5 -6.5h-93c-5.33301 0 -10 2.16699 -14 6.5s-6 9.16602 -6 14.499v720c0 5.33301 2 10 6 14s8.66699 6 14 6h93c5.33301 0 9.83301 -2 13.5 -6s5.5 -8.66699 5.5 -14v-720v0z" />
    <glyph glyph-name="m" unicode="m" horiz-adv-x="848" 
d="M783 21c0 -5.33301 -2.00195 -10.1621 -6.00195 -14.4951s-8.66699 -6.5 -14 -6.5h-92c-5.33301 0 -10 2.16699 -14 6.5s-6 9.16602 -6 14.499v340c0 19.333 -1.16699 35.166 -3.5 47.499s-6.16602 22.166 -11.499 29.499s-12.666 12.5 -21.999 15.5s-21 4.5 -35 4.5
c-9.33301 0 -22.666 -1.83301 -39.999 -5.5s-35 -10.167 -53 -19.5c1.33301 -11.333 2.33301 -23 3 -35s1 -24.333 1 -37v-340c0 -5.33301 -2 -10.166 -6 -14.499s-8.66699 -6.5 -14 -6.5h-92c-5.33301 0 -10 2.16699 -14 6.5s-6 9.16602 -6 14.499v340
c0 19.333 -1 35.166 -3 47.499s-5.5 22.166 -10.5 29.499s-12 12.5 -21 15.5s-20.5 4.5 -34.5 4.5c-20.667 0 -51.334 -11 -92.001 -33v-404c0 -5.33301 -2 -10.166 -6 -14.499s-8.66699 -6.5 -14 -6.5h-92c-5.33301 0 -10 2.16699 -14 6.5s-6 9.16602 -6 14.499v523
c0 5.33301 2 10 6 14s8.66699 6 14 6h87c5.33301 0 10 -2 14 -6s6 -8.66699 6 -14v-21c21.333 13.333 43 24.666 65 33.999s48 14 78 14c28.667 0 52.5 -4 71.5 -12s34.167 -19 45.5 -33c25.333 14 50.5 25 75.5 33s54.833 12 89.5 12c34 0 61.833 -5.5 83.5 -16.5
s38.5 -26 50.5 -45s20.333 -41.167 25 -66.5s7 -52.666 7 -81.999v-340v0z" />
    <glyph glyph-name="n" unicode="n" horiz-adv-x="592" 
d="M527 21c0 -5.33301 -2.00195 -10.167 -6.00195 -14.5s-8.66699 -6.5 -14 -6.5h-92c-5.33301 0 -10 2.16699 -14 6.5s-6 9.16602 -6 14.499v326c0 22 -0.833008 40.167 -2.5 54.5s-5.33398 25.666 -11.001 33.999s-14.167 14.333 -25.5 18s-26.666 5.5 -45.999 5.5
c-17.333 0 -35.166 -3.16699 -53.499 -9.5s-38.166 -15.166 -59.499 -26.499v-402c0 -5.33301 -2 -10.166 -6 -14.499s-8.66699 -6.5 -14 -6.5h-92c-5.33301 0 -10 2.16699 -14 6.5s-6 9.16602 -6 14.499v523c0 5.33301 2 10 6 14s8.66699 6 14 6h87c5.33301 0 10 -2 14 -6
s6 -8.66699 6 -14v-21c14.667 9.33301 28.167 17 40.5 23s24.833 10.833 37.5 14.5s25.667 6.33398 39 8.00098s28.333 2.5 45 2.5c36 0 65.333 -5.66699 88 -17s40.167 -27 52.5 -47s20.833 -43.667 25.5 -71s7 -57 7 -89v-326v0z" />
    <glyph glyph-name="o" unicode="o" horiz-adv-x="574" 
d="M526 241c0 -36 -5.16699 -69.167 -15.5 -99.5s-25.5 -56.5 -45.5 -78.5s-44.833 -39.333 -74.5 -52s-64.167 -19 -103.5 -19s-73.833 6.33301 -103.5 19s-54.5 30 -74.5 52s-35.167 48.167 -45.5 78.5s-15.5 63.5 -15.5 99.5v81c0 36 5.16699 69.167 15.5 99.5
s25.5 56.5 45.5 78.5s44.833 39.333 74.5 52s64.167 19 103.5 19s73.833 -6.33301 103.5 -19s54.5 -30 74.5 -52s35.167 -48.167 45.5 -78.5s15.5 -63.5 15.5 -99.5v-81zM394 322c0 41.333 -9 74.166 -27 98.499s-44.667 36.5 -80 36.5s-62 -12.167 -80 -36.5
s-27 -57.166 -27 -98.499v-81c0 -41.333 9 -74.166 27 -98.499s44.667 -36.5 80 -36.5s62 12.167 80 36.5s27 57.166 27 98.499v81z" />
    <glyph glyph-name="p" unicode="p" horiz-adv-x="577" 
d="M532 243c0 -78.667 -19.6641 -140.167 -58.9971 -184.5s-99.333 -66.5 -180 -66.5c-12 0 -26.333 0.5 -43 1.5s-34.334 2.83301 -53.001 5.5v-177c0 -5.33301 -2 -10 -6 -14s-8.66699 -6 -14 -6h-92c-5.33301 0 -10 2 -14 6s-6 8.66699 -6 14v696
c0 7.33301 1.66699 12.833 5 16.5s10.666 7.16699 21.999 10.5c31.333 8 64.666 14.333 99.999 19s69 7 101 7c80.667 0 140.667 -22.167 180 -66.5s59 -105.833 59 -184.5v-77zM400.003 320c0 20.667 -1.50098 39.667 -4.50098 57s-8.5 32.333 -16.5 45s-19 22.667 -33 30
s-31.667 11 -53 11c-18 0 -36.167 -0.666992 -54.5 -2s-32.166 -3 -41.499 -5v-349c14 -2 30.5 -3.66699 49.5 -5s34.5 -2 46.5 -2c21.333 0 39 3.66699 53 11s25 17.333 33 30s13.5 27.667 16.5 45s4.5 36.333 4.5 57v77z" />
    <glyph glyph-name="q" unicode="q" horiz-adv-x="577" 
d="M512 -178c0 -5.33301 -1.99707 -10 -5.99707 -14s-8.66699 -6 -14 -6h-92c-5.33301 0 -10 2 -14 6s-6 8.66699 -6 14v177c-18.667 -2.66699 -36.334 -4.5 -53.001 -5.5s-31 -1.5 -43 -1.5c-80.667 0 -140.667 22.167 -180 66.5s-59 105.833 -59 184.5v77
c0 78.667 19.667 140.167 59 184.5s99.333 66.5 180 66.5c32 0 65.667 -2.33301 101 -7s68.666 -11 99.999 -19c11.333 -3.33301 18.666 -6.83301 21.999 -10.5s5 -9.16699 5 -16.5v-696zM380.003 456c-9.33301 2 -23.167 3.66699 -41.5 5s-36.5 2 -54.5 2
c-21.333 0 -39 -3.66699 -53 -11s-25 -17.333 -33 -30s-13.5 -27.667 -16.5 -45s-4.5 -36.333 -4.5 -57v-77c0 -20.667 1.5 -39.667 4.5 -57s8.5 -32.333 16.5 -45s19 -22.667 33 -30s31.667 -11 53 -11c12 0 27.5 0.666992 46.5 2s35.5 3 49.5 5v349z" />
    <glyph glyph-name="r" unicode="r" horiz-adv-x="375" 
d="M355 479c0 -5.33301 -2 -10 -6 -14s-8.66699 -6 -14 -6c-27.333 0 -51.833 -3.16699 -73.5 -9.5s-43.167 -15.166 -64.5 -26.499v-402c0 -5.33301 -2 -10.166 -6 -14.499s-8.66699 -6.5 -14 -6.5h-92c-5.33301 0 -10 2.16699 -14 6.5s-6 9.16602 -6 14.499v523
c0 5.33301 2 10 6 14s8.66699 6 14 6h87c5.33301 0 10 -2 14 -6s6 -8.66699 6 -14v-21c24.667 19.333 49.667 32.166 75 38.499s48 9.5 68 9.5c5.33301 0 10 -2 14 -6s6 -8.66699 6 -14v-72v0z" />
    <glyph glyph-name="s" unicode="s" horiz-adv-x="489" 
d="M444 148c0 -22 -3.99805 -42.498 -11.998 -61.498s-20.167 -35.5 -36.5 -49.5s-36.833 -25 -61.5 -33s-53.334 -12 -86.001 -12c-10 0 -22.167 0.333008 -36.5 1s-29.833 1.83398 -46.5 3.50098s-33.334 3.66699 -50.001 6s-32 5.5 -46 9.5
c-12.667 3.33301 -19 11 -19 23v60c0 4 1.5 7.66699 4.5 11s7.16699 5 12.5 5h4c12 -1.33301 26.167 -2.66602 42.5 -3.99902s32.5 -2.5 48.5 -3.5s31 -1.83301 45 -2.5s24.667 -1 32 -1c15.333 0 27.666 1.16699 36.999 3.5s16.5 5.66602 21.5 9.99902s8.33301 9.5 10 15.5
s2.5 12.333 2.5 19c0 9.33301 -3.33301 17.666 -10 24.999s-18 16 -34 26l-137 84c-24.667 15.333 -44.834 34.833 -60.501 58.5s-23.5 50.167 -23.5 79.5c0 100 63.333 150 190 150c20 0 38.167 -0.5 54.5 -1.5s31.5 -2.5 45.5 -4.5s27.333 -4.16699 40 -6.5
s25.334 -4.83301 38.001 -7.5c12 -3.33301 18 -11 18 -23v-58c0 -12.667 -5.33301 -19 -16 -19h-4c-7.33301 0.666992 -17.333 1.83398 -30 3.50098s-26.667 3 -42 4l-47.5 3c-16.333 1 -31.5 1.5 -45.5 1.5c-24 0 -41.5 -3.16699 -52.5 -9.5s-16.5 -17.166 -16.5 -32.499
c0 -8 3.5 -15 10.5 -21s16.833 -12.667 29.5 -20l131 -80c20.667 -12.667 37.334 -25.334 50.001 -38.001s22.5 -25.334 29.5 -38.001s11.5 -25.334 13.5 -38.001s3 -25.334 3 -38.001z" />
    <glyph glyph-name="t" unicode="t" horiz-adv-x="405" 
d="M380 17c0 -10 -6.33398 -15.9961 -19.001 -17.9961c-12 -2 -23.5 -3.66699 -34.5 -5s-22.167 -2 -33.5 -2c-28 0 -52.167 2 -72.5 6s-36.833 11.667 -49.5 23s-22 27.5 -28 48.5s-9 48.167 -9 81.5v314l-94 14c-5.33301 1.33301 -10 3.66602 -14 6.99902
s-6 7.66602 -6 12.999v45c0 5.33301 2 10 6 14s8.66699 6 14 6h94v82c0 5.33301 2 9.66602 6 12.999s8.66699 5.66602 14 6.99902l93 16h4c10.667 0 16 -5 16 -15v-103h90c5.33301 0 10 -2 14 -6s6 -8.66699 6 -14v-59c0 -5.33301 -2 -10 -6 -14s-8.66699 -6 -14 -6h-90
v-314c0 -12.667 0.333008 -22.667 1 -30s2.33398 -13 5.00098 -17s6.5 -6.5 11.5 -7.5s12.167 -1.5 21.5 -1.5h53c14 0 21 -5 21 -15v-63v0z" />
    <glyph glyph-name="u" unicode="u" horiz-adv-x="592" 
d="M527 20c0 -5.33301 -1.99707 -10.001 -5.99707 -14.001s-8.66699 -6 -14 -6h-92c-5.33301 0 -10 2 -14 6s-6 8.66699 -6 14v23c-26 -17.333 -50.667 -30 -74 -38s-51 -12 -83 -12c-25.333 0 -48.5 3.33301 -69.5 10s-38.833 17.334 -53.5 32.001
c-18.667 18.667 -31.667 43.167 -39 73.5s-11 66.5 -11 108.5v326c0 5.33301 2 10.166 6 14.499s8.66699 6.5 14 6.5h92c5.33301 0 10 -2.16699 14 -6.5s6 -9.16602 6 -14.499v-326c0 -25.333 1.5 -45.5 4.5 -60.5s9.16699 -26.833 18.5 -35.5
c7.33301 -6 15.666 -10.5 24.999 -13.5s21.666 -4.5 36.999 -4.5c9.33301 0 19.166 1.33301 29.499 4s20.5 6 30.5 10s19.5 8.33301 28.5 13l24.5 13v400c0 5.33301 2 10.166 6 14.499s8.66699 6.5 14 6.5h92c5.33301 0 10 -2.16699 14 -6.5s6 -9.16602 6 -14.499v-523v0z
" />
    <glyph glyph-name="v" unicode="v" horiz-adv-x="551" 
d="M527 548c0 -3.33301 -0.331055 -5.66602 -0.998047 -6.99902l-126 -455c-5.33301 -18.667 -12.333 -34 -21 -46s-18.667 -21.5 -30 -28.5s-23.333 -12 -36 -15s-25.334 -4.5 -38.001 -4.5s-25.334 1.5 -38.001 4.5s-24.5 8 -35.5 15s-21 16.5 -30 28.5
s-15.833 27.333 -20.5 46l-126 455c-0.666992 1.33301 -1 3.66602 -1 6.99902c0 10.667 5.33301 16 16 16h100c10 0 16.667 -6.66699 20 -20l96 -419c2 -9.33301 4.66699 -15.833 8 -19.5s7 -5.5 11 -5.5s7.66699 1.83301 11 5.5s6 10.167 8 19.5l96 419
c3.33301 13.333 10.333 20 21 20h100c10.667 0 16 -5.33301 16 -16z" />
    <glyph glyph-name="w" unicode="w" horiz-adv-x="819" 
d="M793 541l-90.9932 -460c-3.33301 -15.333 -6.83301 -28.166 -10.5 -38.499s-8.83398 -19 -15.501 -26s-15 -12 -25 -15s-22.667 -4.5 -38 -4.5h-27c-27.333 0 -48.333 6.5 -63 19.5s-25.334 32.5 -32.001 58.5l-79 306c-0.666992 3.33301 -1.66699 5 -3 5
s-2.33301 -1.66699 -3 -5l-79 -306c-6.66699 -26 -17.334 -45.5 -32.001 -58.5s-35.667 -19.5 -63 -19.5h-27c-15.333 0 -28 1.5 -38 4.5s-18.333 8 -25 15s-12 15.667 -16 26s-7.33301 23.166 -10 38.499l-91 460v3c0 5.33301 2 10 6 14s8.66699 6 14 6h97
c5.33301 0 9.5 -1.83301 12.5 -5.5s4.83301 -7.83398 5.5 -12.501l63 -423c1.33301 -9.33301 3 -14 5 -14c2.66699 0 5 4.66699 7 14l83 336c5.33301 19.333 11.666 31.333 18.999 36s19.666 7 36.999 7h70c17.333 0 29.666 -2.33301 36.999 -7s13.666 -16.667 18.999 -36
l83 -336c2 -9.33301 4.33301 -14 7 -14c2 0 3.66699 4.66699 5 14l63 423c0.666992 4.66699 2.5 8.83398 5.5 12.501s7.16699 5.5 12.5 5.5h97c5.33301 0 10 -2 14 -6s6 -8.66699 6 -14v-3z" />
    <glyph glyph-name="x" unicode="x" horiz-adv-x="557" 
d="M537 13c0 -3.33301 -1.49805 -6.33301 -4.49805 -9s-6.5 -4 -10.5 -4h-114c-5.33301 0 -9.83301 1.16699 -13.5 3.5s-8.16699 7.83301 -13.5 16.5l-114 176l-108 -176c-5.33301 -8.66699 -9.83301 -14.167 -13.5 -16.5s-8.16699 -3.5 -13.5 -3.5h-103
c-8 0 -12 3.66699 -12 11c0 2.66699 1 5.66699 3 9l179 271l-169 253c-1.33301 2.66699 -2 4.66699 -2 6c0 3.33301 1.5 6.5 4.5 9.5s6.83301 4.5 11.5 4.5h114c5.33301 0 9.66602 -1.5 12.999 -4.5s7.66602 -8.16699 12.999 -15.5l101 -156l94 156
c5.33301 9.33301 9.83301 15 13.5 17s8.16699 3 13.5 3h103c8 0 12 -3.66699 12 -11c0 -3.33301 -1 -6.33301 -3 -9l-165 -252l182 -272c1.33301 -2.66699 2 -5 2 -7z" />
    <glyph glyph-name="y" unicode="y" horiz-adv-x="560" 
d="M535 547c0 -2.66699 -0.329102 -4.66211 -0.996094 -5.99512l-167 -584c-8 -27.333 -16.667 -50.833 -26 -70.5s-21.5 -36 -36.5 -49s-33.833 -22.5 -56.5 -28.5s-51 -9 -85 -9c-8 0 -17 0.333008 -27 1s-19.833 1.66699 -29.5 3s-18.834 2.66602 -27.501 3.99902
s-16 3 -22 5c-5.33301 1.33301 -10.166 3.16602 -14.499 5.49902s-6.5 6.16602 -6.5 11.499v64c0 5.33301 2 9.66602 6 12.999s8.66699 5 14 5h2c6.66699 0 15.167 -0.333008 25.5 -1l31 -2l30.5 -2c10 -0.666992 18.667 -1 26 -1c21.333 0 38 4.16699 50 12.5
s21.667 25.5 29 51.5l8 30h-15c-7.33301 0 -15 0.833008 -23 2.5s-15.833 5.16699 -23.5 10.5s-15 13.5 -22 24.5s-13.167 26.167 -18.5 45.5l-131 458c-0.666992 2 -1 4.33301 -1 7c0 10.667 6.33301 16 19 16h101c4.66699 0 8.66699 -1.83301 12 -5.5
s5.66602 -7.83398 6.99902 -12.501l101 -407c2 -8.66699 4 -14.5 6 -17.5s4.66699 -4.5 8 -4.5h1h5h3l108 430c1.33301 4.66699 3.66602 8.66699 6.99902 12s7.66602 5 12.999 5h102c5.33301 0 9.66602 -1.66699 12.999 -5s5 -7.33301 5 -12z" />
    <glyph glyph-name="z" unicode="z" horiz-adv-x="490" 
d="M450 20c0 -5.33301 -2 -10 -6 -14s-8.66699 -6 -14 -6h-350c-11.333 -0 -20.833 3.83301 -28.5 11.5s-11.5 17.167 -11.5 28.5v43c0 10 4.33301 20.667 13 32l242 333c2 2.66699 3 4.66699 3 6c0 2 -2 3 -6 3h-226c-5.33301 0 -9.66602 1.33301 -12.999 4
s-5 6.66699 -5 12v71c0 5.33301 2 10 6 14s8.66699 6 14 6h340c11.333 0 20.833 -4 28.5 -12s11.5 -17.667 11.5 -29v-57c0 -2.66699 -0.5 -6.66699 -1.5 -12s-2.16699 -9 -3.5 -11l-233 -319l-2 -3c0 -2.66699 2 -4 6 -4h218c5.33301 0 9.66602 -1.33301 12.999 -4
s5 -6.66699 5 -12v-81v0z" />
    <glyph glyph-name="braceleft" unicode="{" horiz-adv-x="363" 
d="M353 -181c0 -11.333 -6.33203 -16.998 -18.999 -16.998h-56c-37.333 0 -67.833 2.66699 -91.5 8s-42.167 14.5 -55.5 27.5s-22.5 30.167 -27.5 51.5s-7.5 48 -7.5 80v152c0 26.667 -4.66699 48.5 -14 65.5s-24.333 32.5 -45 46.5v80c20.667 14 35.5 29.5 44.5 46.5
s13.5 38.833 13.5 65.5v151c0 32 2.5 58.667 7.5 80s14.167 38.5 27.5 51.5s31.833 22.167 55.5 27.5s54.167 8 91.5 8h57c12.667 0 19 -5.66699 19 -17v-73c0 -10.667 -6.33301 -16 -19 -16h-47c-25.333 0 -41.333 -4.33301 -48 -13s-10 -24.667 -10 -48v-151
c0 -34.667 -5.83301 -64.334 -17.5 -89.001s-31.834 -45.667 -60.501 -63c28.667 -17.333 49 -38.333 61 -63s18 -54.334 18 -89.001v-152c0 -23.333 3.33301 -39.333 10 -48s22.667 -13 48 -13h46c12.667 0 19 -5.33301 19 -16v-73v0z" />
    <glyph glyph-name="bar" unicode="|" horiz-adv-x="274" 
d="M204 -174c0 -5.33301 -1.83301 -10 -5.5 -14s-8.16699 -6 -13.5 -6h-95c-5.33301 0 -10 2 -14 6s-6 8.66699 -6 14v897c0 5.33301 2 10 6 14s8.66699 6 14 6h95c5.33301 0 9.83301 -2 13.5 -6s5.5 -8.66699 5.5 -14v-897v0z" />
    <glyph glyph-name="braceright" unicode="}" horiz-adv-x="363" 
d="M326 233c-20.667 -14 -35.666 -29.502 -44.999 -46.502s-14 -38.833 -14 -65.5v-152c0 -32 -2.5 -58.667 -7.5 -80s-14.167 -38.5 -27.5 -51.5s-31.833 -22.167 -55.5 -27.5s-54.167 -8 -91.5 -8h-56c-12.667 0 -19 5.66699 -19 17v73c0 10.667 6.33301 16 19 16h46
c25.333 0 41.333 4.33301 48 13s10 24.667 10 48v152c0 34.667 6 64.334 18 89.001s32.333 45.667 61 63c-28.667 17.333 -48.834 38.333 -60.501 63s-17.5 54.334 -17.5 89.001v151c0 23.333 -3.33301 39.333 -10 48s-22.667 13 -48 13h-47c-12.667 0 -19 5.33301 -19 16
v73c0 11.333 6.33301 17 19 17h57c37.333 0 67.833 -2.66699 91.5 -8s42.167 -14.5 55.5 -27.5s22.5 -30.167 27.5 -51.5s7.5 -48 7.5 -80v-151c0 -26.667 4.5 -48.5 13.5 -65.5s23.833 -32.5 44.5 -46.5v-80v0z" />
    <glyph glyph-name="asciitilde" unicode="~" 
d="M552 475c0 -50.667 -10.6689 -86.501 -32.002 -107.501s-53.666 -31.5 -96.999 -31.5c-11.333 0 -24.166 1.5 -38.499 4.5s-26.5 8.16699 -36.5 15.5l-88 61c-8 5.33301 -15.167 8.83301 -21.5 10.5s-12.166 2.5 -17.499 2.5c-10.667 0 -19.334 -3 -26.001 -9
s-10 -17 -10 -33v-26c0 -13.333 -5.66699 -20 -17 -20h-71c-12 0 -18 6.66699 -18 20v26c0 50 10.833 85.833 32.5 107.5s54.167 32.5 97.5 32.5c11.333 0 24 -1.66699 38 -5s26 -8.66602 36 -15.999l88 -60c8 -5.33301 15.333 -8.83301 22 -10.5s12.667 -2.5 18 -2.5
c12 0 20.833 3 26.5 9s8.5 16.667 8.5 32v26c0 13.333 5.66699 20 17 20h70c12.667 0 19 -6.66699 19 -20v-26v0z" />
    <glyph glyph-name="uni00A0" unicode="&#xa0;" horiz-adv-x="250" 
 />
    <glyph glyph-name="exclamdown" unicode="&#xa1;" horiz-adv-x="256" 
d="M192 431c0 -12.667 -6.33301 -19 -19 -19h-90c-12.667 0 -19 6.33301 -19 19v113c0 5.33301 1.83301 10 5.5 14s8.16699 6 13.5 6h90c5.33301 0 9.83301 -2 13.5 -6s5.5 -8.66699 5.5 -14v-113zM196 -181c0 -5.33301 -2.16699 -9.83301 -6.5 -13.5
s-9.16602 -5.5 -14.499 -5.5h-95c-5.33301 0 -10 1.83301 -14 5.5s-6 8.16699 -6 13.5l15 508c0 5.33301 2 10 6 14s8.66699 6 14 6h65c5.33301 0 10.166 -2 14.499 -6s6.5 -8.66699 6.5 -14z" />
    <glyph glyph-name="cent" unicode="&#xa2;" 
d="M494 31c0 -8 -1.33301 -13.833 -4 -17.5s-8.33398 -6.5 -17.001 -8.5s-20.167 -4.16699 -34.5 -6.5s-31.166 -4.16602 -50.499 -5.49902v-80c0 -5.33301 -2 -10 -6 -14s-8.66699 -6 -14 -6h-82c-5.33301 0 -10 2 -14 6s-6 8.66699 -6 14v90
c-44.667 13.333 -80.834 39.166 -108.501 77.499s-41.5 89.833 -41.5 154.5v93c0 64.667 13.833 116.167 41.5 154.5s63.834 64.166 108.501 77.499v88c0 5.33301 2 10 6 14s8.66699 6 14 6h82c5.33301 0 10 -2 14 -6s6 -8.66699 6 -14v-78
c19.333 -1.33301 36.166 -3.16602 50.499 -5.49902s25.833 -4.5 34.5 -6.5s14.334 -4.83301 17.001 -8.5s4 -9.5 4 -17.5v-65c0 -5.33301 -1.66699 -9.16602 -5 -11.499s-7.66602 -3.5 -12.999 -3.5h-3c-10 1.33301 -19.333 2.5 -28 3.5s-17.667 1.66699 -27 2
s-20 0.666016 -32 0.999023s-26 0.5 -42 0.5c-12 0 -23.667 -2 -35 -6s-21.5 -10.833 -30.5 -20.5s-16.333 -23 -22 -40s-8.5 -38.5 -8.5 -64.5v-93c0 -26 2.83301 -47.5 8.5 -64.5s13 -30.333 22 -40s19.167 -16.5 30.5 -20.5s23 -6 35 -6c16 0 30 0.166992 42 0.5
s22.667 0.666016 32 0.999023s18.333 1 27 2s18 2.16699 28 3.5h3c5.33301 0 9.66602 -1.16699 12.999 -3.5s5 -6.16602 5 -11.499v-65v0z" />
    <glyph glyph-name="sterling" unicode="&#xa3;" 
d="M562 629c0 -12 -5.66504 -17.998 -16.998 -17.998h-2c-10 0.666992 -21.5 1.66699 -34.5 3s-26.833 2.5 -41.5 3.5s-29.334 1.83301 -44.001 2.5s-28.667 1 -42 1c-37.333 0 -64.5 -6 -81.5 -18s-25.5 -35.333 -25.5 -70v-96h185c5.33301 0 10 -1.83301 14 -5.5
s6 -8.16699 6 -13.5v-75c0 -12 -6.33301 -18 -19 -18h-186v-125c0 -20.667 -2.33301 -37.834 -7 -51.501s-10.334 -26.167 -17.001 -37.5h291c5.33301 0 10 -1.5 14 -4.5s6 -7.16699 6 -12.5v-76c0 -5.33301 -2 -9.66602 -6 -12.999s-8.66699 -5 -14 -5h-427
c-8 0 -13 3 -15 9s-3 11.667 -3 17v51c0 5.33301 0.833008 9.66602 2.5 12.999s3.5 6.66602 5.5 9.99902c7.33301 11.333 14.833 26 22.5 44s11.5 36.667 11.5 56v125h-50c-12.667 0 -19 6 -19 18v75c0 5.33301 2 9.83301 6 13.5s8.66699 5.5 14 5.5h49v96
c0 32.667 4 61.5 12 86.5s21.333 46 40 63s43.5 30 74.5 39s69.833 13.5 116.5 13.5c12.667 0 26.834 -0.5 42.501 -1.5s31 -2.16699 46 -3.5s29.167 -2.83301 42.5 -4.5s24 -3.16699 32 -4.5c9.33301 -1.33301 14.666 -3.5 15.999 -6.5s2 -7.16699 2 -12.5v-73v0z" />
    <glyph glyph-name="currency" unicode="&#xa4;" 
d="M571 562c0 -5.33301 -2.33594 -10.3301 -7.00293 -14.9971l-85 -84c17.333 -28.667 26 -59 26 -91c0 -34.667 -9 -66.334 -27 -95.001l83 -84c4.66699 -4.66699 7 -9.66699 7 -15c0 -4 -1.66699 -7.66699 -5 -11l-47 -48c-3.33301 -3.33301 -7 -5 -11 -5
c-5.33301 0 -10.333 2.33301 -15 7l-86 86c-27.333 -16 -56.666 -24 -87.999 -24c-33.333 0 -63.666 8.33301 -90.999 25l-85 -84l-7.5 -5.5c-2.33301 -1.66699 -5.16602 -2.5 -8.49902 -2.5s-6.66602 1.66699 -9.99902 5l-47 48c-3.33301 4.66699 -5 8.66699 -5 12
c0 5.33301 2.33301 10.333 7 15l84 83c-18 29.333 -27 60.333 -27 93c0 31.333 8 60.666 24 87.999l-84 84c-4.66699 4.66699 -7 9.66699 -7 15c0 4.66699 1.66699 8.66699 5 12l48 48c3.33301 3.33301 6.66602 5 9.99902 5c5.33301 0 10.666 -2.66699 15.999 -8l82 -82
c14.667 9.33301 30.167 16.166 46.5 20.499s32.833 6.5 49.5 6.5c32.667 0 63.334 -8.66699 92.001 -26l84 84c4.66699 4.66699 9.66699 7 15 7c4 0 7.66699 -1.66699 11 -5l48 -48c3.33301 -3.33301 5 -7 5 -11zM408.997 374.003c0 12.667 -2.33301 24.5 -7 35.5
s-11.167 20.667 -19.5 29s-18.166 14.833 -29.499 19.5s-23.333 7 -36 7s-24.667 -2.33301 -36 -7s-21.166 -11.167 -29.499 -19.5s-15 -18 -20 -29s-7.5 -22.833 -7.5 -35.5s2.5 -24.667 7.5 -36s11.667 -21.166 20 -29.499s18.166 -15 29.499 -20s23.333 -7.5 36 -7.5
s24.667 2.5 36 7.5s21.166 11.667 29.499 20s14.833 18.166 19.5 29.499s7 23.333 7 36z" />
    <glyph glyph-name="yen" unicode="&#xa5;" 
d="M601 730c0 -2.66699 -1.00195 -6 -3.00195 -10l-114 -227h93c5.33301 0 10 -1.66699 14 -5s6 -7.66602 6 -12.999v-63c0 -12 -6.33301 -18 -19 -18h-143l-50 -99v-12h192c5.33301 0 10 -1.66699 14 -5s6 -7.66602 6 -12.999v-63c0 -12 -6.33301 -18 -19 -18h-193v-164
c0 -5.33301 -1.83301 -10 -5.5 -14s-8.16699 -6 -13.5 -6h-103c-5.33301 0 -9.66602 2 -12.999 6s-5 8.66699 -5 14v164h-194c-12.667 0 -19 6 -19 18v63c0 5.33301 2 9.66602 6 12.999s8.66699 5 14 5h193v12l-50 99h-144c-12.667 0 -19 6 -19 18v63
c0 5.33301 2 9.66602 6 12.999s8.66699 5 14 5h94l-114 227c-2 4 -3 7.33301 -3 10c0 8.66699 5.33301 13 16 13h114c4.66699 0 8.33398 -1.66699 11.001 -5s5 -7 7 -11l138 -294l138 294c2 4 4.5 7.66699 7.5 11s6.83301 5 11.5 5h113c10.667 0 16 -4.33301 16 -13z" />
    <glyph glyph-name="brokenbar" unicode="&#xa6;" horiz-adv-x="274" 
d="M204 363c0 -5.33301 -1.83301 -10.166 -5.5 -14.499s-8.16699 -6.5 -13.5 -6.5h-95c-5.33301 0 -10 2.16699 -14 6.5s-6 9.16602 -6 14.499v345c0 5.33301 2 10 6 14s8.66699 6 14 6h95c5.33301 0 9.83301 -2 13.5 -6s5.5 -8.66699 5.5 -14v-345zM204 -190
c0 -5.33301 -1.83301 -10.166 -5.5 -14.499s-8.16699 -6.5 -13.5 -6.5h-95c-5.33301 0 -10 2.16699 -14 6.5s-6 9.16602 -6 14.499v345c0 5.33301 2 10 6 14s8.66699 6 14 6h95c5.33301 0 9.83301 -2 13.5 -6s5.5 -8.66699 5.5 -14v-345z" />
    <glyph glyph-name="section" unicode="&#xa7;" horiz-adv-x="573" 
d="M529 -3c0 -26.667 -4.16602 -52.6738 -12.499 -78.0068s-22.666 -48 -42.999 -68s-47.333 -36.167 -81 -48.5s-75.5 -18.5 -125.5 -18.5c-38 0 -72.167 1.83301 -102.5 5.5s-57.5 8.16699 -81.5 13.5c-5.33301 1.33301 -10 3.5 -14 6.5s-6 7.16699 -6 12.5v78
c0 5.33301 2 9.66602 6 12.999s8.66699 5 14 5h2c30 -3.33301 59.5 -6.16602 88.5 -8.49902s58.5 -3.5 88.5 -3.5h7c22 0 40.167 2.16699 54.5 6.5s25.5 10.333 33.5 18s13.667 16.834 17 27.501s5 22.667 5 36c0 10 -1.16699 18.833 -3.5 26.5s-6.5 15 -12.5 22
s-14.167 14.333 -24.5 22s-23.833 16.5 -40.5 26.5l-125 74c-26 15.333 -47.333 30.5 -64 45.5s-29.834 30.333 -39.501 46s-16.334 32 -20.001 49s-5.5 35.167 -5.5 54.5c0 20 2.16699 38.667 6.5 56s11.5 33 21.5 47c-10.667 16 -18 32.5 -22 49.5s-6 35.5 -6 55.5
c0 27.333 4.16699 52.333 12.5 75s22.333 42 42 58s45.334 28.333 77.001 37s70.834 13 117.501 13c16.667 0 34.667 -0.5 54 -1.5s38.166 -2.5 56.499 -4.5s35.166 -4 50.499 -6s27.333 -4 36 -6c5.33301 -1.33301 9.83301 -3.5 13.5 -6.5s5.5 -7.16699 5.5 -12.5v-79
c0 -5.33301 -1.83301 -9.66602 -5.5 -12.999s-8.16699 -5 -13.5 -5h-1c-32 2 -64.167 4.33301 -96.5 7s-64.833 4 -97.5 4h-3c-37.333 0 -63.833 -5.5 -79.5 -16.5s-23.5 -27.833 -23.5 -50.5c0 -8 1.16699 -15.5 3.5 -22.5s6.5 -14 12.5 -21s14.167 -14.167 24.5 -21.5
s23.5 -15.333 39.5 -24l120 -67c27.333 -15.333 50 -30.666 68 -45.999s32.333 -31.166 43 -47.499s18.167 -33.166 22.5 -50.499s6.5 -36 6.5 -56c0 -18.667 -2 -37 -6 -55s-10.667 -35.333 -20 -52c10 -15.333 16.833 -31.166 20.5 -47.499s5.5 -34.166 5.5 -53.499z
M411.001 205.993c0 12.667 -1.5 23.999 -4.5 33.999s-8.33301 19.667 -16 29s-18.334 19 -32.001 29s-31.167 21.333 -52.5 34l-79 47c-11.333 6.66699 -21.333 12.834 -30 18.501s-16.667 11.834 -24 18.501c-12.667 -14.667 -19 -34.667 -19 -60
c0 -11.333 1.5 -21.333 4.5 -30s8 -17.334 15 -26.001s16.667 -17.334 29 -26.001s27.833 -18.667 46.5 -30l77 -46c32 -19.333 56.333 -36.666 73 -51.999c4.66699 8.66699 7.83398 18 9.50098 28s2.5 20.667 2.5 32z" />
    <glyph glyph-name="dieresis" unicode="&#xa8;" horiz-adv-x="415" 
d="M365 659c0 -5.33301 -2.16699 -10 -6.5 -14s-9.16602 -6 -14.499 -6h-72c-5.33301 0 -10.166 2 -14.499 6s-6.5 8.66699 -6.5 14v88c0 5.33301 2.16699 10 6.5 14s9.16602 6 14.499 6h72c5.33301 0 10.166 -2 14.499 -6s6.5 -8.66699 6.5 -14v-88zM165 659
c0 -5.33301 -2.16699 -10 -6.5 -14s-9.16602 -6 -14.499 -6h-72c-5.33301 0 -10.166 2 -14.499 6s-6.5 8.66699 -6.5 14v88c0 5.33301 2.16699 10 6.5 14s9.16602 6 14.499 6h72c5.33301 0 10.166 -2 14.499 -6s6.5 -8.66699 6.5 -14v-88z" />
    <glyph glyph-name="copyright" unicode="&#xa9;" horiz-adv-x="750" 
d="M705 374c0 -45.333 -8.66699 -88 -26 -128s-41 -74.833 -71 -104.5s-65.167 -53.167 -105.5 -70.5s-83.166 -26 -128.499 -26s-88 8.66699 -128 26s-74.833 40.833 -104.5 70.5s-53.167 64.5 -70.5 104.5s-26 82.667 -26 128s8.66699 88.166 26 128.499
s40.833 75.5 70.5 105.5s64.5 53.833 104.5 71.5s82.667 26.5 128 26.5s88.166 -8.83301 128.499 -26.5s75.5 -41.5 105.5 -71.5s53.667 -65.167 71 -105.5s26 -83.166 26 -128.499zM656 374c0 38.667 -7.5 75.167 -22.5 109.5s-35.167 64.333 -60.5 90
s-55.166 46 -89.499 61s-70.833 22.5 -109.5 22.5s-75 -7.5 -109 -22.5s-63.833 -35.333 -89.5 -61s-45.834 -55.667 -60.501 -90s-22 -70.833 -22 -109.5s7.33301 -75 22 -109s34.834 -63.667 60.501 -89s55.5 -45.333 89.5 -60s70.333 -22 109 -22
s75.167 7.33301 109.5 22s64.166 34.667 89.499 60s45.5 55 60.5 89s22.5 70.333 22.5 109zM477 183c0 -7.33301 -4.66797 -12.0039 -14.001 -14.0039c-8 -2 -19.167 -4 -33.5 -6s-31.833 -3 -52.5 -3c-49.333 0 -88.833 14.833 -118.5 44.5s-44.5 77.167 -44.5 142.5v60
c0 65.333 14.833 112.833 44.5 142.5s69.167 44.5 118.5 44.5c20.667 0 38.334 -1 53.001 -3s25.667 -4 33 -6c4 -1.33301 7.33301 -2.66602 10 -3.99902s4 -4.33301 4 -9v-49c0 -5.33301 -1.33301 -8.66602 -4 -9.99902s-5.66699 -2 -9 -2h-2
c-11.333 1.33301 -23.5 2.5 -36.5 3.5s-29.167 1.5 -48.5 1.5c-10 0 -19.667 -1.66699 -29 -5s-17.5 -9.16602 -24.5 -17.499s-12.5 -19.5 -16.5 -33.5s-6 -31.667 -6 -53v-60c0 -22 2 -40 6 -54s9.5 -25.167 16.5 -33.5s15.167 -14 24.5 -17s19 -4.5 29 -4.5
c17.333 0 33 0.5 47 1.5s26.667 2.16699 38 3.5h2c3.33301 0 6.33301 -0.666992 9 -2s4 -4.66602 4 -9.99902v-48z" />
    <glyph glyph-name="ordfeminine" unicode="&#xaa;" horiz-adv-x="335" 
d="M298 431c0 -8.66699 -3.00391 -14 -9.00391 -16c-37.333 -10 -76 -15 -116 -15c-49.333 0 -85.166 8.66699 -107.499 26s-33.5 44 -33.5 80v7c0 35.333 13.167 60.166 39.5 74.499s63.833 21.5 112.5 21.5h26v13c0 20 -4 33.667 -12 41s-19.667 11 -35 11
c-19.333 0 -37 -0.5 -53 -1.5s-29.333 -2.16699 -40 -3.5h-1c-3.33301 0 -6.5 1.16699 -9.5 3.5s-4.5 5.83301 -4.5 10.5v38c0 7.33301 4.66699 12.333 14 15c10.667 2.66699 24.334 5.33398 41.001 8.00098s34.334 4 53.001 4c42.667 0 75.834 -9.5 99.501 -28.5
s35.5 -51.5 35.5 -97.5v-191zM209.996 557c-1.33301 0 -3.83105 0.166016 -7.49805 0.499023s-7.5 0.5 -11.5 0.5s-6.33301 -0.333008 -7 -1c-24.667 0 -42.167 -3.33301 -52.5 -10s-15.5 -18 -15.5 -34v-7c0 -15.333 4.16699 -26.166 12.5 -32.499s23.166 -9.5 44.499 -9.5
c7.33301 0 14.166 0.5 20.499 1.5s11.833 1.83301 16.5 2.5v89z" />
    <glyph glyph-name="guillemotleft" unicode="&#xab;" horiz-adv-x="689" 
d="M652 77c0 -2.66699 -1.16699 -5.16699 -3.5 -7.5s-6.16602 -3.5 -11.499 -3.5h-95c-8.66699 0 -14.667 1 -18 3s-7.33301 5.33301 -12 10l-162 178c-3.33301 3.33301 -5.5 7.5 -6.5 12.5s-1.5 9.16699 -1.5 12.5s0.5 7.5 1.5 12.5s3.16699 9.16699 6.5 12.5l162 178
c4.66699 4.66699 8.66699 8 12 10s9.33301 3 18 3h95c5.33301 0 9.16602 -1.16699 11.499 -3.5s3.5 -4.83301 3.5 -7.5s-1 -5 -3 -7l-181 -198l181 -198c2 -2 3 -4.33301 3 -7zM365 77c0 -2.66699 -1.16699 -5.16699 -3.5 -7.5s-6.16602 -3.5 -11.499 -3.5h-95
c-8.66699 0 -14.667 1 -18 3s-7.33301 5.33301 -12 10l-162 178c-3.33301 3.33301 -5.5 7.5 -6.5 12.5s-1.5 9.16699 -1.5 12.5s0.5 7.5 1.5 12.5s3.16699 9.16699 6.5 12.5l162 178c4.66699 4.66699 8.66699 8 12 10s9.33301 3 18 3h95
c5.33301 0 9.16602 -1.16699 11.499 -3.5s3.5 -4.83301 3.5 -7.5s-1 -5 -3 -7l-181 -198l181 -198c2 -2 3 -4.33301 3 -7z" />
    <glyph glyph-name="logicalnot" unicode="&#xac;" 
d="M538 203c0 -5.33301 -1.99902 -10 -5.99902 -14s-8.66699 -6 -14 -6h-62c-5.33301 0 -10 2 -14 6s-6 8.66699 -6 14v259h-323c-5.33301 0 -10 1.33301 -14 4s-6 6.66699 -6 12v70c0 5.33301 2 9.33301 6 12s8.66699 4 14 4h407c5.33301 0 9.66602 -1.5 12.999 -4.5
s5 -7.16699 5 -12.5v-344v0z" />
    <glyph glyph-name="uni00AD" unicode="&#xad;" horiz-adv-x="321" 
d="M278 276c0 -12 -6.33301 -17.999 -19 -17.999h-196c-5.33301 0 -10 1.66699 -14 5s-6 7.66602 -6 12.999v63c0 5.33301 2 9.83301 6 13.5s8.66699 5.5 14 5.5h196c12.667 0 19 -6.33301 19 -19v-63v0z" />
    <glyph glyph-name="registered" unicode="&#xae;" horiz-adv-x="598" 
d="M575 484c0 -38 -7.33301 -73.667 -22 -107s-34.5 -62.5 -59.5 -87.5s-54.167 -44.667 -87.5 -59s-69 -21.5 -107 -21.5s-73.667 7.16699 -107 21.5s-62.5 34 -87.5 59s-44.667 54.167 -59 87.5s-21.5 69 -21.5 107s7.16699 73.667 21.5 107s34 62.5 59 87.5
s54.167 44.667 87.5 59s69 21.5 107 21.5s73.667 -7.16699 107 -21.5s62.5 -34 87.5 -59s44.833 -54.167 59.5 -87.5s22 -69 22 -107zM528 484c0 31.333 -6 61 -18 89s-28.333 52.333 -49 73s-45 37 -73 49s-57.667 18 -89 18s-60.833 -6 -88.5 -18
s-51.834 -28.333 -72.501 -49s-37 -45 -49 -73s-18 -57.667 -18 -89s6 -60.833 18 -88.5s28.333 -51.834 49 -72.501s44.834 -37 72.501 -49s57.167 -18 88.5 -18s61 6 89 18s52.333 28.333 73 49s37 44.834 49 72.501s18 57.167 18 88.5zM432 330
c0 -2.66699 -0.833984 -5.16406 -2.50098 -7.49707s-4.5 -3.5 -8.5 -3.5h-51c-4.66699 0 -8.33398 2.66699 -11.001 8l-70 118c-2 3.33301 -5.33301 5 -10 5h-20h-11v-118c0 -3.33301 -1.16699 -6.33301 -3.5 -9s-5.16602 -4 -8.49902 -4h-46
c-3.33301 0 -6.16602 1.33301 -8.49902 4s-3.5 5.66699 -3.5 9v297c0 9.33301 1.66699 15.833 5 19.5s9 6.16699 17 7.5c4 0.666992 9.33301 1.16699 16 1.5s14 0.666016 22 0.999023l24.5 1c8.33301 0.333008 15.5 0.5 21.5 0.5c42.667 0 76 -7.66699 100 -23
s36 -42.666 36 -81.999v-6c0 -24.667 -5.66699 -43.834 -17 -57.501s-26.333 -23.834 -45 -30.501l72 -123c1.33301 -2.66699 2 -5.33398 2 -8.00098zM352.999 555.003c0 16.667 -5 28.333 -15 35s-26.333 10 -49 10h-31h-12v-96h9c4 0 8.33301 -0.166992 13 -0.5
s9 -0.5 13 -0.5h8c23.333 0 39.833 3.83301 49.5 11.5s14.5 19.167 14.5 34.5v6z" />
    <glyph glyph-name="macron" unicode="&#xaf;" horiz-adv-x="415" 
d="M383 680c0 -5.33301 -2 -9.66602 -6 -12.999s-8.66699 -5 -14 -5h-310c-5.33301 0 -10 1.66699 -14 5s-6 7.66602 -6 12.999v57c0 5.33301 2 9.66602 6 12.999s8.66699 5 14 5h310c5.33301 0 10 -1.66699 14 -5s6 -7.66602 6 -12.999v-57v0z" />
    <glyph glyph-name="degree" unicode="&#xb0;" horiz-adv-x="353" 
d="M326 602c0 -20.667 -4 -40 -12 -58s-18.667 -33.833 -32 -47.5s-29 -24.334 -47 -32.001s-37.333 -11.5 -58 -11.5s-40 3.83301 -58 11.5s-33.833 18.334 -47.5 32.001s-24.334 29.5 -32.001 47.5s-11.5 37.333 -11.5 58s3.83301 40 11.5 58s18.334 33.667 32.001 47
s29.5 24 47.5 32s37.333 12 58 12s40 -4 58 -12s33.667 -18.667 47 -32s24 -29 32 -47s12 -37.333 12 -58zM256 602c0 21.333 -7.83301 39.833 -23.5 55.5s-34.167 23.5 -55.5 23.5s-39.666 -7.83301 -54.999 -23.5s-23 -34.167 -23 -55.5s7.66699 -39.666 23 -54.999
s33.666 -23 54.999 -23s39.833 7.66699 55.5 23s23.5 33.666 23.5 54.999z" />
    <glyph glyph-name="plusminus" unicode="&#xb1;" 
d="M548 356c0 -5.33301 -2 -9.33301 -6 -12s-8.66699 -4 -14 -4h-162v-161c0 -5.33301 -1.33301 -10 -4 -14s-6.66699 -6 -12 -6h-70c-5.33301 0 -9.33301 2 -12 6s-4 8.66699 -4 14v161h-161c-5.33301 0 -10 1.33301 -14 4s-6 6.66699 -6 12v70c0 5.33301 2 9.33301 6 12
s8.66699 4 14 4h161v162c0 5.33301 1.33301 10 4 14s6.66699 6 12 6h70c5.33301 0 9.33301 -2 12 -6s4 -8.66699 4 -14v-162h162c5.33301 0 10 -1.33301 14 -4s6 -6.66699 6 -12v-70zM548 1c0 -5.33301 -2 -9.33301 -6 -12s-8.66699 -4 -14 -4h-425
c-5.33301 0 -10 1.33301 -14 4s-6 6.66699 -6 12v56c0 5.33301 2 9.33301 6 12s8.66699 4 14 4h425c5.33301 0 10 -1.33301 14 -4s6 -6.66699 6 -12v-56z" />
    <glyph glyph-name="two.superior" unicode="&#xb2;" horiz-adv-x="347" 
d="M58 744c14 4 31.502 7.33105 52.502 9.99805s40.5 4 58.5 4c49.333 0 84.833 -8.5 106.5 -25.5s32.5 -43.5 32.5 -79.5c0 -23.333 -6.16699 -43.5 -18.5 -60.5s-29.833 -33.167 -52.5 -48.5l-48 -33c-13.333 -9.33301 -24.666 -17.666 -33.999 -24.999
s-16.833 -14.666 -22.5 -21.999s-9.83398 -15 -12.501 -23s-4.33398 -17 -5.00098 -27h172c4.66699 0 8.66699 -1 12 -3s5 -6.33301 5 -13v-41c0 -6 -1.66699 -10.333 -5 -13s-7.33301 -4 -12 -4h-229c-4.66699 0 -8.66699 1.66699 -12 5s-5 7.33301 -5 12v53
c0 30 6.66699 56.833 20 80.5s35 45.5 65 65.5l54 36c17.333 11.333 29.333 21 36 29s10 18.667 10 32c0 12.667 -4.33301 21.5 -13 26.5s-23.334 7.5 -44.001 7.5c-15.333 0 -33 -0.833008 -53 -2.5s-38.333 -3.5 -55 -5.5c-7.33301 -1.33301 -12 0 -14 4s-3 8.33301 -3 13
v32c0 8 4.66699 13.333 14 16z" />
    <glyph glyph-name="three.superior" unicode="&#xb3;" horiz-adv-x="347" 
d="M304 458c0 -21.333 -3.66406 -39.666 -10.9971 -54.999s-17.333 -28 -30 -38s-27.667 -17.333 -45 -22s-36 -7 -56 -7c-19.333 0 -37.666 1.33301 -54.999 4s-33.666 5.66699 -48.999 9c-4 1.33301 -7.66699 3.16602 -11 5.49902s-5 6.16602 -5 11.499v33
c0 5.33301 1.16699 9.66602 3.5 12.999s7.16602 4.33301 14.499 3c21.333 -2.66699 40.666 -4.66699 57.999 -6s32 -2 44 -2c20 0 34.167 4.33301 42.5 13s12.5 21.334 12.5 38.001v12c0 12.667 -2.83301 24 -8.5 34s-17.5 15 -35.5 15h-95
c-4.66699 0 -8.66699 1.33301 -12 4s-5 6.66699 -5 12v34c0 5.33301 1.66699 9.33301 5 12s7.33301 4 12 4h95c18 0 29.833 4.5 35.5 13.5s8.5 20.167 8.5 33.5v9c0 12 -3.5 22.667 -10.5 32s-21.833 14 -44.5 14c-18.667 0 -35.834 -0.833008 -51.501 -2.5l-52.5 -5.5
c-4 0 -7.66699 1.33301 -11 4s-5 6.66699 -5 12v33c0 3.33301 1.66699 6.5 5 9.5s7 5.16699 11 6.5c15.333 4 31.666 7.33301 48.999 10s35.666 4 54.999 4c20 0 38.667 -2.16699 56 -6.5s32.333 -11.166 45 -20.499s22.667 -21.333 30 -36s11 -32.667 11 -54v-9
c0 -36.667 -13.667 -63.334 -41 -80.001c13.333 -9.33301 23.5 -21.166 30.5 -35.499s10.5 -29.833 10.5 -46.5v-12v0z" />
    <glyph glyph-name="acute" unicode="&#xb4;" horiz-adv-x="415" 
d="M383 772c0 -2.66699 -1.33301 -5.33203 -4 -7.99902l-118 -124c-4 -4.66699 -7.5 -8 -10.5 -10s-7.5 -3 -13.5 -3h-86c-6 0 -9 2.33301 -9 7c0 4 1.33301 7.33301 4 10l95 120c4.66699 5.33301 8.5 9.16602 11.5 11.499s7.83301 3.5 14.5 3.5h105
c7.33301 0 11 -2.33301 11 -7z" />
    <glyph glyph-name="mu" unicode="&#xb5;" horiz-adv-x="587" 
d="M527 42c0 -6.66699 -1.99902 -11.999 -5.99902 -15.999s-11 -7.33301 -21 -10c-25.333 -6.66699 -55 -12.334 -89 -17.001s-72 -7 -114 -7c-22.667 0 -42.5 2.83301 -59.5 8.5s-31.5 13.167 -43.5 22.5v-195c0 -5.33301 -1.66699 -10 -5 -14s-7.66602 -6 -12.999 -6h-97
c-5.33301 0 -9.83301 2 -13.5 6s-5.5 8.66699 -5.5 14v715c0 5.33301 2 10.166 6 14.499s8.66699 6.5 14 6.5h93c5.33301 0 10 -2.16699 14 -6.5s6 -9.16602 6 -14.499v-346c0 -64 34.667 -96 104 -96c16 0 32.667 1 50 3s32.666 4.66699 45.999 8v431
c0 5.33301 2 10.166 6 14.499s8.66699 6.5 14 6.5h93c5.33301 0 10.166 -2.16699 14.499 -6.5s6.5 -9.16602 6.5 -14.499v-501v0z" />
    <glyph glyph-name="paragraph" unicode="&#xb6;" horiz-adv-x="644" 
d="M584 -176c0 -5.33301 -1.5 -9.83301 -4.5 -13.5s-7.16699 -5.5 -12.5 -5.5h-35c-5.33301 0 -9.5 1.83301 -12.5 5.5s-4.5 8.16699 -4.5 13.5v852h-61v-852c0 -5.33301 -1.5 -9.83301 -4.5 -13.5s-7.16699 -5.5 -12.5 -5.5h-35c-5.33301 0 -9.5 1.83301 -12.5 5.5
s-4.5 8.16699 -4.5 13.5v426h-99c-34.667 0 -66.667 4.83301 -96 14.5s-54.833 24 -76.5 43s-38.5 42.333 -50.5 70s-18 59.5 -18 95.5v47c0 36 6 67.833 18 95.5s28.833 51 50.5 70s47.167 33.333 76.5 43s61.333 14.5 96 14.5h282c10.667 0 16 -6.33301 16 -19v-900v0z
" />
    <glyph glyph-name="periodcentered" unicode="&#xb7;" horiz-adv-x="259" 
d="M194 329c0 -5.33301 -2 -10 -6 -14s-8.66699 -6 -14 -6h-89c-5.33301 0 -10 2 -14 6s-6 8.66699 -6 14v113c0 5.33301 2 9.83301 6 13.5s8.66699 5.5 14 5.5h89c5.33301 0 10 -1.83301 14 -5.5s6 -8.16699 6 -13.5v-113v0z" />
    <glyph glyph-name="cedilla" unicode="&#xb8;" horiz-adv-x="403" 
d="M296 -41c0 -2.66699 -1.33301 -5.33203 -4 -7.99902l-119 -123c-4 -4.66699 -7.33301 -8.16699 -10 -10.5s-7 -3.5 -13 -3.5h-86c-6 0 -9 2.33301 -9 7c0 4 1.33301 7.33301 4 10l94 120c4.66699 5.33301 8.5 9.16602 11.5 11.499s7.83301 3.5 14.5 3.5h106
c7.33301 0 11 -2.33301 11 -7z" />
    <glyph glyph-name="one.superior" unicode="&#xb9;" horiz-adv-x="254" 
d="M113 751c2 1.33301 5.16992 2.16895 9.50293 2.50195s8.16602 0.5 11.499 0.5h36c6.66699 0 11.167 -1.66699 13.5 -5s3.5 -7.33301 3.5 -12v-380c0 -4.66699 -1.66699 -8.66699 -5 -12s-7.33301 -5 -12 -5h-53c-4.66699 0 -8.66699 1.66699 -12 5s-5 7.33301 -5 12v307
l-56 -19c-4.66699 -1.33301 -9.33398 -1.5 -14.001 -0.5s-7 4.83301 -7 11.5v53c0 3.33301 0.666992 5.66602 2 6.99902s3.66602 2.66602 6.99902 3.99902z" />
    <glyph glyph-name="ordmasculine" unicode="&#xba;" horiz-adv-x="357" 
d="M325 557c0 -52 -12.5 -91.167 -37.5 -117.5s-61.167 -39.5 -108.5 -39.5s-83.5 13.167 -108.5 39.5s-37.5 65.5 -37.5 117.5v34c0 52 12.5 91.167 37.5 117.5s61.167 39.5 108.5 39.5s83.5 -13.167 108.5 -39.5s37.5 -65.5 37.5 -117.5v-34zM236 591
c0 28.667 -4.5 49.5 -13.5 62.5s-23.5 19.5 -43.5 19.5s-34.667 -6.5 -44 -19.5s-14 -33.833 -14 -62.5v-34c0 -55.333 19.333 -83 58 -83c20 0 34.5 6.66699 43.5 20s13.5 34.333 13.5 63v34z" />
    <glyph glyph-name="guillemotright" unicode="&#xbb;" horiz-adv-x="689" 
d="M649 282c0 -3.33301 -0.5 -7.5 -1.5 -12.5s-3.16699 -9.16699 -6.5 -12.5l-162 -178c-4.66699 -4.66699 -8.66699 -8 -12 -10s-9.33301 -3 -18 -3h-95c-5.33301 0 -9.16602 1.16699 -11.499 3.5s-3.5 4.83301 -3.5 7.5s1 5 3 7l181 198l-181 198c-2 2 -3 4.33301 -3 7
s1.16699 5.16699 3.5 7.5s6.16602 3.5 11.499 3.5h95c8.66699 0 14.667 -1 18 -3s7.33301 -5.33301 12 -10l162 -178c3.33301 -3.33301 5.5 -7.5 6.5 -12.5s1.5 -9.16699 1.5 -12.5zM362 282c0 -3.33301 -0.5 -7.5 -1.5 -12.5s-3.16699 -9.16699 -6.5 -12.5l-162 -178
c-4.66699 -4.66699 -8.66699 -8 -12 -10s-9.33301 -3 -18 -3h-95c-5.33301 0 -9.16602 1.16699 -11.499 3.5s-3.5 4.83301 -3.5 7.5s1 5 3 7l181 198l-181 198c-2 2 -3 4.33301 -3 7s1.16699 5.16699 3.5 7.5s6.16602 3.5 11.499 3.5h95c8.66699 0 14.667 -1 18 -3
s7.33301 -5.33301 12 -10l162 -178c3.33301 -3.33301 5.5 -7.5 6.5 -12.5s1.5 -9.16699 1.5 -12.5z" />
    <glyph glyph-name="onequarter" unicode="&#xbc;" horiz-adv-x="709" 
d="M120 751c2 1.33301 5.16992 2.16895 9.50293 2.50195s8.16602 0.5 11.499 0.5h36c6.66699 0 11.167 -1.66699 13.5 -5s3.5 -7.33301 3.5 -12v-380c0 -4.66699 -1.66699 -8.66699 -5 -12s-7.33301 -5 -12 -5h-53c-4.66699 0 -8.66699 1.66699 -12 5s-5 7.33301 -5 12v307
l-56 -19c-4.66699 -1.33301 -9.33398 -1.5 -14.001 -0.5s-7 4.83301 -7 11.5v53c0 3.33301 0.666992 5.66602 2 6.99902s3.66602 2.66602 6.99902 3.99902zM600.003 735.003c0 -4.66699 -1.33398 -8.66699 -4.00098 -12l-419 -709c-4 -7.33301 -7.16699 -12 -9.5 -14
s-6.16602 -3 -11.499 -3h-82c-6.66699 0 -10 3 -10 9c0 4.66699 1.33301 8.66699 4 12l419 708c4 6.66699 7.33301 11.167 10 13.5s6.66699 3.5 12 3.5h81c6.66699 0 10 -2.66699 10 -8zM679.002 113.003c0 -4.66699 -1.66699 -8.66504 -5 -11.998s-7 -5 -11 -5h-35v-79
c0 -4.66699 -1.33301 -8.66699 -4 -12s-6.66699 -5 -12 -5h-56c-4.66699 0 -8.33398 1.66699 -11.001 5s-4 7.33301 -4 12v79h-157c-4 0 -7.66699 1.66699 -11 5s-5 7.33301 -5 12v44c0 7.33301 2.66699 14.666 8 21.999l166 223
c2.66699 3.33301 5.33398 6.16602 8.00098 8.49902s6.66699 3.5 12 3.5h49c4.66699 0 8.66699 -1.66699 12 -5s5 -7.33301 5 -12v-229h35c4 0 7.66699 -1.66699 11 -5s5 -7.33301 5 -12v-38zM542.002 288.005l-87 -120h87v120z" />
    <glyph glyph-name="onehalf" unicode="&#xbd;" horiz-adv-x="751" 
d="M120 751c2 1.33301 5.16992 2.16895 9.50293 2.50195s8.16602 0.5 11.499 0.5h36c6.66699 0 11.167 -1.66699 13.5 -5s3.5 -7.33301 3.5 -12v-380c0 -4.66699 -1.66699 -8.66699 -5 -12s-7.33301 -5 -12 -5h-53c-4.66699 0 -8.66699 1.66699 -12 5s-5 7.33301 -5 12v307
l-56 -19c-4.66699 -1.33301 -9.33398 -1.5 -14.001 -0.5s-7 4.83301 -7 11.5v53c0 3.33301 0.666992 5.66602 2 6.99902s3.66602 2.66602 6.99902 3.99902zM600.003 735.003c0 -4.66699 -1.33398 -8.66699 -4.00098 -12l-419 -709c-4 -7.33301 -7.16699 -12 -9.5 -14
s-6.16602 -3 -11.499 -3h-82c-6.66699 0 -10 3 -10 9c0 4.66699 1.33301 8.66699 4 12l419 708c4 6.66699 7.33301 11.167 10 13.5s6.66699 3.5 12 3.5h81c6.66699 0 10 -2.66699 10 -8zM721.002 313.003c0 -23.333 -6.16504 -43.5 -18.498 -60.5
s-29.833 -33.167 -52.5 -48.5l-48 -33c-22.667 -15.333 -40.334 -30.333 -53.001 -45s-19.667 -32 -21 -52h172c4.66699 0 8.66699 -1.33301 12 -4s5 -6.66699 5 -12v-41c0 -4.66699 -1.66699 -8.66699 -5 -12s-7.33301 -5 -12 -5h-229c-4.66699 0 -8.66699 1.66699 -12 5
s-5 7.33301 -5 12v53c0 30 8.5 58 25.5 84s36.833 46.667 59.5 62l54 36c17.333 11.333 29.333 21 36 29s10 18.667 10 32c0 12.667 -4.33301 21.5 -13 26.5s-23.334 7.5 -44.001 7.5c-15.333 0 -33 -0.833008 -53 -2.5s-38.333 -3.5 -55 -5.5
c-5.33301 0 -9.5 1.66699 -12.5 5s-4.5 7.33301 -4.5 12v32c0 4 1.5 7.33301 4.5 10s6.5 4.66699 10.5 6h-1c14 4 31.5 7.33301 52.5 10s40.5 4 58.5 4c49.333 0 84.833 -8.5 106.5 -25.5s32.5 -43.5 32.5 -79.5z" />
    <glyph glyph-name="threequarters" unicode="&#xbe;" horiz-adv-x="770" 
d="M661 735c0 -4.66699 -1.33398 -8.66699 -4.00098 -12l-419 -709c-4 -7.33301 -7.16699 -12 -9.5 -14s-6.16602 -3 -11.499 -3h-82c-6.66699 0 -10 3 -10 9c0 4.66699 1.33301 8.66699 4 12l419 708c4 6.66699 7.33301 11.167 10 13.5s6.66699 3.5 12 3.5h81
c6.66699 0 10 -2.66699 10 -8zM739.999 113c0 -4.66699 -1.66699 -8.66504 -5 -11.998s-7 -5 -11 -5h-35v-79c0 -4.66699 -1.33301 -8.66699 -4 -12s-6.66699 -5 -12 -5h-56c-4.66699 0 -8.33398 1.66699 -11.001 5s-4 7.33301 -4 12v79h-157c-4 0 -7.66699 1.66699 -11 5
s-5 7.33301 -5 12v44c0 7.33301 2.66699 14.666 8 21.999l166 223c2.66699 3.33301 5.33398 6.16602 8.00098 8.49902s6.66699 3.5 12 3.5h49c4.66699 0 8.66699 -1.66699 12 -5s5 -7.33301 5 -12v-229h35c4 0 7.66699 -1.66699 11 -5s5 -7.33301 5 -12v-38z
M602.999 288.002l-87 -120h87v120zM291.999 458.002c0 -21.333 -3.66406 -39.6689 -10.9971 -55.002s-17.333 -28 -30 -38s-27.667 -17.333 -45 -22s-36 -7 -56 -7c-19.333 0 -37.666 1.33301 -54.999 4s-33.666 5.66699 -48.999 9c-4 1.33301 -7.66699 3.5 -11 6.5
s-5 6.5 -5 10.5v33c0 5.33301 1.66699 9.33301 5 12s7.66602 4 12.999 4c21.333 -2.66699 40.666 -4.66699 57.999 -6s32 -2 44 -2c20 0 34.167 4.33301 42.5 13s12.5 21.334 12.5 38.001v12c0 12.667 -2.83301 24 -8.5 34s-17.5 15 -35.5 15h-95
c-4.66699 0 -8.66699 1.33301 -12 4s-5 6.66699 -5 12v34c0 5.33301 1.66699 9.33301 5 12s7.33301 4 12 4h95c18 0 29.833 4.5 35.5 13.5s8.5 20.167 8.5 33.5v9c0 12 -3.5 22.667 -10.5 32s-21.833 14 -44.5 14c-18.667 0 -35.834 -0.833008 -51.501 -2.5l-52.5 -5.5
c-4 0 -7.66699 1.33301 -11 4s-5 6.66699 -5 12v33c0 3.33301 1.66699 6.5 5 9.5s7 5.16699 11 6.5c15.333 4 31.666 7.33301 48.999 10s35.666 4 54.999 4c20 0 38.667 -2.16699 56 -6.5s32.333 -11.166 45 -20.499s22.667 -21.333 30 -36s11 -32.667 11 -54v-9
c0 -36.667 -13.667 -63.334 -41 -80.001c13.333 -9.33301 23.5 -21.166 30.5 -35.499s10.5 -29.833 10.5 -46.5v-12z" />
    <glyph glyph-name="questiondown" unicode="&#xbf;" horiz-adv-x="437" 
d="M334 432c0 -5.33301 -2 -10 -6 -14s-8.66699 -6 -14 -6h-90c-5.33301 0 -10 2 -14 6s-6 8.66699 -6 14v113c0 5.33301 2 9.83301 6 13.5s8.66699 5.5 14 5.5h90c5.33301 0 10 -1.83301 14 -5.5s6 -8.16699 6 -13.5v-113zM407 -144
c0 -8 -0.833984 -14.168 -2.50098 -18.501s-6.83398 -7.5 -15.501 -9.5c-21.333 -5.33301 -45.666 -9.66602 -72.999 -12.999s-54 -5 -80 -5c-32 0 -60.833 2.5 -86.5 7.5s-47.334 13.5 -65.001 25.5s-31.167 28 -40.5 48s-14 45 -14 75v16c0 8.66699 0.5 18 1.5 28
s3.83301 21 8.5 33s11.834 25.5 21.501 40.5s22.834 32.5 39.501 52.5l61 72c13.333 16 24.333 29.667 33 41s13 25 13 41v38c0 5.33301 2 9.83301 6 13.5s8.66699 5.5 14 5.5h83c12.667 0 19 -6.33301 19 -19v-38c0 -16 -0.833008 -30 -2.5 -42
s-4.83398 -23.5 -9.50098 -34.5s-10.667 -22 -18 -33s-17 -23.5 -29 -37.5l-64 -74c-12 -14 -19.833 -28 -23.5 -42s-5.5 -29 -5.5 -45v-16c0 -14.667 4.5 -24.5 13.5 -29.5s23.833 -7.5 44.5 -7.5c24.667 0 50.334 1.16699 77.001 3.5s51 4.83301 73 7.5h4
c11.333 0 17 -7.33301 17 -22v-62z" />
    <glyph glyph-name="Agrave" unicode="&#xc0;" horiz-adv-x="646" 
d="M627 17c0 -5.33301 -1.67285 -9.5 -5.00586 -12.5s-7.66602 -4.5 -12.999 -4.5h-106c-4.66699 0 -8.66699 1.66699 -12 5s-5.66602 7.33301 -6.99902 12l-46 190h-230l-46 -190c-1.33301 -4.66699 -3.66602 -8.66699 -6.99902 -12s-7.33301 -5 -12 -5h-106
c-5.33301 0 -9.66602 1.5 -12.999 4.5s-5 7.16699 -5 12.5c0 0.666992 0.166992 1.33398 0.5 2.00098s0.5 1.66699 0.5 3l164 627c6 23.333 14.667 41.666 26 54.999s23.5 23.5 36.5 30.5s26.333 11.5 40 13.5s25.834 3 36.501 3s22.834 -1 36.501 -3s27 -6.5 40 -13.5
s25.167 -17.167 36.5 -30.5s20 -31.666 26 -54.999l164 -627c0 -1.33301 0.166992 -2.33301 0.5 -3s0.5 -1.33398 0.5 -2.00098zM338.994 618c-1.33301 6 -3 10.167 -5 12.5s-5.66699 3.5 -11 3.5s-9 -1.16699 -11 -3.5s-3.66699 -6.5 -5 -12.5l-72 -297h176zM433.994 801
c0 -4.66699 -3 -7.00195 -9 -7.00195h-86c-6 0 -10.333 1 -13 3s-6 5.33301 -10 10l-119 124c-2.66699 2.66699 -4 5.33398 -4 8.00098c0 4.66699 3.66699 7 11 7h106c6.66699 0 11.5 -1.16699 14.5 -3.5s6.83301 -6.16602 11.5 -11.499l94 -120
c2.66699 -2.66699 4 -6 4 -10z" />
    <glyph glyph-name="Aacute" unicode="&#xc1;" horiz-adv-x="646" 
d="M627 17c0 -5.33301 -1.67285 -9.5 -5.00586 -12.5s-7.66602 -4.5 -12.999 -4.5h-106c-4.66699 0 -8.66699 1.66699 -12 5s-5.66602 7.33301 -6.99902 12l-46 190h-230l-46 -190c-1.33301 -4.66699 -3.66602 -8.66699 -6.99902 -12s-7.33301 -5 -12 -5h-106
c-5.33301 0 -9.66602 1.5 -12.999 4.5s-5 7.16699 -5 12.5c0 0.666992 0.166992 1.33398 0.5 2.00098s0.5 1.66699 0.5 3l164 627c6 23.333 14.667 41.666 26 54.999s23.5 23.5 36.5 30.5s26.333 11.5 40 13.5s25.834 3 36.501 3s22.834 -1 36.501 -3s27 -6.5 40 -13.5
s25.167 -17.167 36.5 -30.5s20 -31.666 26 -54.999l164 -627c0 -1.33301 0.166992 -2.33301 0.5 -3s0.5 -1.33398 0.5 -2.00098zM338.994 618c-1.33301 6 -3 10.167 -5 12.5s-5.66699 3.5 -11 3.5s-9 -1.16699 -11 -3.5s-3.66699 -6.5 -5 -12.5l-72 -297h176zM490.994 939
c0 -2.66699 -1.33301 -5.33203 -4 -7.99902l-118 -124c-4 -4.66699 -7.5 -8 -10.5 -10s-7.5 -3 -13.5 -3h-86c-6 0 -9 2.33301 -9 7c0 4 1.33301 7.33301 4 10l95 120c4.66699 5.33301 8.5 9.16602 11.5 11.499s7.83301 3.5 14.5 3.5h105c7.33301 0 11 -2.33301 11 -7z" />
    <glyph glyph-name="Acircumflex" unicode="&#xc2;" horiz-adv-x="646" 
d="M627 17c0 -5.33301 -1.67285 -9.5 -5.00586 -12.5s-7.66602 -4.5 -12.999 -4.5h-106c-4.66699 0 -8.66699 1.66699 -12 5s-5.66602 7.33301 -6.99902 12l-46 190h-230l-46 -190c-1.33301 -4.66699 -3.66602 -8.66699 -6.99902 -12s-7.33301 -5 -12 -5h-106
c-5.33301 0 -9.66602 1.5 -12.999 4.5s-5 7.16699 -5 12.5c0 0.666992 0.166992 1.33398 0.5 2.00098s0.5 1.66699 0.5 3l164 627c6 23.333 14.667 41.666 26 54.999s23.5 23.5 36.5 30.5s26.333 11.5 40 13.5s25.834 3 36.501 3s22.834 -1 36.501 -3s27 -6.5 40 -13.5
s25.167 -17.167 36.5 -30.5s20 -31.666 26 -54.999l164 -627c0 -1.33301 0.166992 -2.33301 0.5 -3s0.5 -1.33398 0.5 -2.00098zM338.994 618c-1.33301 6 -3 10.167 -5 12.5s-5.66699 3.5 -11 3.5s-9 -1.16699 -11 -3.5s-3.66699 -6.5 -5 -12.5l-72 -297h176zM508.994 801
c0 -4.66699 -3 -7 -9 -7h-83c-6 0 -10.333 1 -13 3s-6 5.33301 -10 10l-71 81l-71 -81c-4 -4.66699 -7.5 -8 -10.5 -10s-7.5 -3 -13.5 -3h-83c-6 0 -9 2.33301 -9 7c0 4 1.33301 7.33301 4 10l92 120c4.66699 5.33301 8.5 9.16602 11.5 11.499s7.83301 3.5 14.5 3.5h130
c6.66699 0 11.5 -1.16699 14.5 -3.5s6.83301 -6.16602 11.5 -11.499l91 -120c2.66699 -2.66699 4 -6 4 -10z" />
    <glyph glyph-name="Atilde" unicode="&#xc3;" horiz-adv-x="646" 
d="M627 17c0 -5.33301 -1.67285 -9.5 -5.00586 -12.5s-7.66602 -4.5 -12.999 -4.5h-106c-4.66699 0 -8.66699 1.66699 -12 5s-5.66602 7.33301 -6.99902 12l-46 190h-230l-46 -190c-1.33301 -4.66699 -3.66602 -8.66699 -6.99902 -12s-7.33301 -5 -12 -5h-106
c-5.33301 0 -9.66602 1.5 -12.999 4.5s-5 7.16699 -5 12.5c0 0.666992 0.166992 1.33398 0.5 2.00098s0.5 1.66699 0.5 3l164 627c6 23.333 14.667 41.666 26 54.999s23.5 23.5 36.5 30.5s26.333 11.5 40 13.5s25.834 3 36.501 3s22.834 -1 36.501 -3s27 -6.5 40 -13.5
s25.167 -17.167 36.5 -30.5s20 -31.666 26 -54.999l164 -627c0 -1.33301 0.166992 -2.33301 0.5 -3s0.5 -1.33398 0.5 -2.00098zM338.994 618c-1.33301 6 -3 10.167 -5 12.5s-5.66699 3.5 -11 3.5s-9 -1.16699 -11 -3.5s-3.66699 -6.5 -5 -12.5l-72 -297h176zM530.994 900
c0 -40.667 -9.83008 -69.5 -29.4971 -86.5s-46.834 -25.5 -81.501 -25.5c-11.333 0 -23.333 2 -36 6s-24 9.66699 -34 17l-44 33c-8.66699 6.66699 -16.334 11.834 -23.001 15.501s-13 5.5 -19 5.5c-8 0 -14.667 -2.33301 -20 -7s-8 -13.667 -8 -27v-21
c0 -10.667 -4.66699 -16 -14 -16h-57c-9.33301 0 -14 5.33301 -14 16v21c0 40 10 68.667 30 86s47.333 26 82 26c11.333 0 23.166 -1.83301 35.499 -5.5s23.5 -9.16699 33.5 -16.5l44 -33c17.333 -13.333 31.333 -20 42 -20c8.66699 0 15.5 2.16699 20.5 6.5
s7.5 13.166 7.5 26.499v21c0 10.667 4.66699 16 14 16h57c9.33301 0 14 -5.33301 14 -16v-22z" />
    <glyph glyph-name="Adieresis" unicode="&#xc4;" horiz-adv-x="646" 
d="M627 17c0 -5.33301 -1.67285 -9.5 -5.00586 -12.5s-7.66602 -4.5 -12.999 -4.5h-106c-4.66699 0 -8.66699 1.66699 -12 5s-5.66602 7.33301 -6.99902 12l-46 190h-230l-46 -190c-1.33301 -4.66699 -3.66602 -8.66699 -6.99902 -12s-7.33301 -5 -12 -5h-106
c-5.33301 0 -9.66602 1.5 -12.999 4.5s-5 7.16699 -5 12.5c0 0.666992 0.166992 1.33398 0.5 2.00098s0.5 1.66699 0.5 3l164 627c6 23.333 14.667 41.666 26 54.999s23.5 23.5 36.5 30.5s26.333 11.5 40 13.5s25.834 3 36.501 3s22.834 -1 36.501 -3s27 -6.5 40 -13.5
s25.167 -17.167 36.5 -30.5s20 -31.666 26 -54.999l164 -627c0 -1.33301 0.166992 -2.33301 0.5 -3s0.5 -1.33398 0.5 -2.00098zM338.994 618c-1.33301 6 -3 10.167 -5 12.5s-5.66699 3.5 -11 3.5s-9 -1.16699 -11 -3.5s-3.66699 -6.5 -5 -12.5l-72 -297h176zM478.994 824
c0 -5.33301 -2.16699 -10 -6.5 -14s-9.16602 -6 -14.499 -6h-72c-5.33301 0 -10.166 2 -14.499 6s-6.5 8.66699 -6.5 14v88c0 5.33301 2.16699 10 6.5 14s9.16602 6 14.499 6h72c5.33301 0 10.166 -2 14.499 -6s6.5 -8.66699 6.5 -14v-88zM278.994 824
c0 -5.33301 -2.16699 -10 -6.5 -14s-9.16602 -6 -14.499 -6h-72c-5.33301 0 -10.166 2 -14.499 6s-6.5 8.66699 -6.5 14v88c0 5.33301 2.16699 10 6.5 14s9.16602 6 14.499 6h72c5.33301 0 10.166 -2 14.499 -6s6.5 -8.66699 6.5 -14v-88z" />
    <glyph glyph-name="Aring" unicode="&#xc5;" horiz-adv-x="646" 
d="M627 17c0 -5.33301 -1.67285 -9.5 -5.00586 -12.5s-7.66602 -4.5 -12.999 -4.5h-106c-4.66699 0 -8.66699 1.66699 -12 5s-5.66602 7.33301 -6.99902 12l-46 190h-230l-46 -190c-1.33301 -4.66699 -3.66602 -8.66699 -6.99902 -12s-7.33301 -5 -12 -5h-106
c-5.33301 0 -9.66602 1.5 -12.999 4.5s-5 7.16699 -5 12.5c0 0.666992 0.166992 1.33398 0.5 2.00098s0.5 1.66699 0.5 3l164 627c6 23.333 14.667 41.666 26 54.999s23.5 23.5 36.5 30.5s26.333 11.5 40 13.5s25.834 3 36.501 3s22.834 -1 36.501 -3s27 -6.5 40 -13.5
s25.167 -17.167 36.5 -30.5s20 -31.666 26 -54.999l164 -627c0 -1.33301 0.166992 -2.33301 0.5 -3s0.5 -1.33398 0.5 -2.00098zM338.994 618c-1.33301 6 -3 10.167 -5 12.5s-5.66699 3.5 -11 3.5s-9 -1.16699 -11 -3.5s-3.66699 -6.5 -5 -12.5l-72 -297h176zM431.994 889
c0 -15.333 -2.83301 -29.666 -8.5 -42.999s-13.5 -25 -23.5 -35s-21.667 -17.833 -35 -23.5s-27.666 -8.5 -42.999 -8.5s-29.666 2.83301 -42.999 8.5s-25 13.5 -35 23.5s-18 21.667 -24 35s-9 27.666 -9 42.999s3 29.666 9 42.999s14 25 24 35s21.667 18 35 24
s27.666 9 42.999 9s29.666 -3 42.999 -9s25 -14 35 -24s17.833 -21.667 23.5 -35s8.5 -27.666 8.5 -42.999zM369.994 890c0 13.333 -4.66699 24.5 -14 33.5s-20.666 13.5 -33.999 13.5s-24.333 -4.5 -33 -13.5s-13 -20.167 -13 -33.5s4.33301 -24.666 13 -33.999
s19.667 -14 33 -14s24.666 4.66699 33.999 14s14 20.666 14 33.999z" />
    <glyph glyph-name="AE" unicode="&#xc6;" horiz-adv-x="880" 
d="M820 27c0 -7.33301 -1.50293 -12.335 -4.50293 -15.002s-8.16699 -4.66699 -15.5 -6c-8 -2 -15.833 -3.83301 -23.5 -5.5s-17 -3.16699 -28 -4.5s-25.167 -2.33301 -42.5 -3s-39.333 -1 -66 -1c-32.667 0 -63 2.66699 -91 8s-52.333 15.5 -73 30.5s-37 35.833 -49 62.5
s-18 61.334 -18 104.001v10h-201l-46 -190c-1.33301 -4.66699 -3.66602 -8.66699 -6.99902 -12s-7.33301 -5 -12 -5h-106c-5.33301 0 -9.66602 1.5 -12.999 4.5s-5 7.16699 -5 12.5c0 0.666992 0.166992 1.33398 0.5 2.00098s0.5 1.66699 0.5 3l164 627
c6 23.333 14.667 41.333 26 54s23.5 22 36.5 28s26.333 9.5 40 10.5s25.834 1.5 36.501 1.5h477c13.333 0 20 -7 20 -21v-70c0 -5.33301 -2 -10 -6 -14s-8.66699 -6 -14 -6h-253v-194h241c5.33301 0 10 -2 14 -6s6 -8.66699 6 -14v-72c0 -5.33301 -2 -10 -6 -14
s-8.66699 -6 -14 -6h-241v-129c0 -33.333 5.83301 -56 17.5 -68s32.167 -18 61.5 -18h174c5.33301 0 10 -2 14 -6s6 -8.66699 6 -14v-64zM408.997 633.998h-86c-5.33301 0 -9 -1.16699 -11 -3.5s-3.66699 -6.5 -5 -12.5l-72 -297h174v313z" />
    <glyph glyph-name="Ccedilla" unicode="&#xc7;" horiz-adv-x="563" 
d="M518 31c0 -7.33301 -2 -12.502 -6 -15.502s-9.33301 -5.5 -16 -7.5c-4 -1.33301 -10.833 -2.83301 -20.5 -4.5s-21.5 -3.33398 -35.5 -5.00098s-29.667 -3.16699 -47 -4.5s-35.666 -2 -54.999 -2c-30 0 -61.667 4.33301 -95 13s-63.833 24.5 -91.5 47.5
s-50.667 54.167 -69 93.5s-27.5 90 -27.5 152v147c0 62.667 9.16699 113.834 27.5 153.501s41.333 70.834 69 93.501s58.167 38.167 91.5 46.5s65 12.5 95 12.5c19.333 0 37.666 -0.666992 54.999 -2s33 -2.83301 47 -4.5s25.833 -3.5 35.5 -5.5s16.5 -3.33301 20.5 -4
c6.66699 -2 12 -4.5 16 -7.5s6 -8.16699 6 -15.5v-67c0 -6 -1.33301 -11 -4 -15s-7.66699 -6 -15 -6h-3l-31.5 2.5c-12.333 1 -25.5 1.83301 -39.5 2.5l-43 2c-14.667 0.666992 -28.667 1 -42 1c-21.333 0 -40.833 -3.16699 -58.5 -9.5s-32.834 -16.666 -45.501 -30.999
s-22.667 -33.5 -30 -57.5s-11 -53.667 -11 -89v-147c0 -34.667 3.66699 -64 11 -88s17.333 -43.333 30 -58s27.834 -25.167 45.501 -31.5s37.167 -9.5 58.5 -9.5c13.333 0 27.333 0.333008 42 1l43 2c14 0.666992 27.167 1.5 39.5 2.5l31.5 2.5h3c7.33301 0 12.333 -2 15 -6
s4 -9 4 -15v-67zM420 -41.002c0 -2 -1.66699 -4.66602 -5 -7.99902l-119 -123c-4 -4.66699 -7.16699 -8.16699 -9.5 -10.5s-6.83301 -3.5 -13.5 -3.5h-86c-6 0 -9 2.33301 -9 7c0 2.66699 1.33301 6 4 10l94 120c4.66699 5.33301 8.5 9.16602 11.5 11.499
s7.83301 3.5 14.5 3.5h106c8 0 12 -2.33301 12 -7z" />
    <glyph glyph-name="Egrave" unicode="&#xc8;" horiz-adv-x="576" 
d="M516 27c0 -7.33301 -1.5 -12.335 -4.5 -15.002s-8.16699 -4.66699 -15.5 -6l-26.5 -4.5c-9.66699 -1.66699 -21.667 -3.16699 -36 -4.5s-31.666 -2.5 -51.999 -3.5s-45.5 -1.5 -75.5 -1.5c-32.667 0 -63 2.66699 -91 8s-52.333 15.5 -73 30.5s-37 35.833 -49 62.5
s-18 61.334 -18 104.001v349c0 42.667 6 77.334 18 104.001s28.333 47.5 49 62.5s45 25.167 73 30.5s58.333 8 91 8c30 0 55.167 -0.5 75.5 -1.5s37.666 -2.16699 51.999 -3.5s26.333 -2.83301 36 -4.5l26.5 -4.5c7.33301 -1.33301 12.5 -3.33301 15.5 -6
s4.5 -7.66699 4.5 -15v-64c0 -5.33301 -2 -10 -6 -14s-8.66699 -6 -14 -6h-204c-29.333 0 -49.833 -6 -61.5 -18s-17.5 -34.667 -17.5 -68v-108h271c5.33301 0 10 -2 14 -6s6 -8.66699 6 -14v-72c0 -5.33301 -2 -10 -6 -14s-8.66699 -6 -14 -6h-271v-129
c0 -33.333 5.83301 -56 17.5 -68s32.167 -18 61.5 -18h204c5.33301 0 10 -2 14 -6s6 -8.66699 6 -14v-64zM403 800.998c0 -4.66699 -3 -7.00195 -9 -7.00195h-86c-6 0 -10.333 1 -13 3s-6 5.33301 -10 10l-119 124c-2.66699 2.66699 -4 5.33398 -4 8.00098
c0 4.66699 3.66699 7 11 7h106c6.66699 0 11.5 -1.16699 14.5 -3.5s6.83301 -6.16602 11.5 -11.499l94 -120c2.66699 -2.66699 4 -6 4 -10z" />
    <glyph glyph-name="Eacute" unicode="&#xc9;" horiz-adv-x="576" 
d="M516 27c0 -7.33301 -1.5 -12.335 -4.5 -15.002s-8.16699 -4.66699 -15.5 -6l-26.5 -4.5c-9.66699 -1.66699 -21.667 -3.16699 -36 -4.5s-31.666 -2.5 -51.999 -3.5s-45.5 -1.5 -75.5 -1.5c-32.667 0 -63 2.66699 -91 8s-52.333 15.5 -73 30.5s-37 35.833 -49 62.5
s-18 61.334 -18 104.001v349c0 42.667 6 77.334 18 104.001s28.333 47.5 49 62.5s45 25.167 73 30.5s58.333 8 91 8c30 0 55.167 -0.5 75.5 -1.5s37.666 -2.16699 51.999 -3.5s26.333 -2.83301 36 -4.5l26.5 -4.5c7.33301 -1.33301 12.5 -3.33301 15.5 -6
s4.5 -7.66699 4.5 -15v-64c0 -5.33301 -2 -10 -6 -14s-8.66699 -6 -14 -6h-204c-29.333 0 -49.833 -6 -61.5 -18s-17.5 -34.667 -17.5 -68v-108h271c5.33301 0 10 -2 14 -6s6 -8.66699 6 -14v-72c0 -5.33301 -2 -10 -6 -14s-8.66699 -6 -14 -6h-271v-129
c0 -33.333 5.83301 -56 17.5 -68s32.167 -18 61.5 -18h204c5.33301 0 10 -2 14 -6s6 -8.66699 6 -14v-64zM454 938.998c0 -2.66699 -1.33301 -5.33203 -4 -7.99902l-118 -124c-4 -4.66699 -7.5 -8 -10.5 -10s-7.5 -3 -13.5 -3h-86c-6 0 -9 2.33301 -9 7
c0 4 1.33301 7.33301 4 10l95 120c4.66699 5.33301 8.5 9.16602 11.5 11.499s7.83301 3.5 14.5 3.5h105c7.33301 0 11 -2.33301 11 -7z" />
    <glyph glyph-name="Ecircumflex" unicode="&#xca;" horiz-adv-x="576" 
d="M516 27c0 -7.33301 -1.5 -12.335 -4.5 -15.002s-8.16699 -4.66699 -15.5 -6l-26.5 -4.5c-9.66699 -1.66699 -21.667 -3.16699 -36 -4.5s-31.666 -2.5 -51.999 -3.5s-45.5 -1.5 -75.5 -1.5c-32.667 0 -63 2.66699 -91 8s-52.333 15.5 -73 30.5s-37 35.833 -49 62.5
s-18 61.334 -18 104.001v349c0 42.667 6 77.334 18 104.001s28.333 47.5 49 62.5s45 25.167 73 30.5s58.333 8 91 8c30 0 55.167 -0.5 75.5 -1.5s37.666 -2.16699 51.999 -3.5s26.333 -2.83301 36 -4.5l26.5 -4.5c7.33301 -1.33301 12.5 -3.33301 15.5 -6
s4.5 -7.66699 4.5 -15v-64c0 -5.33301 -2 -10 -6 -14s-8.66699 -6 -14 -6h-204c-29.333 0 -49.833 -6 -61.5 -18s-17.5 -34.667 -17.5 -68v-108h271c5.33301 0 10 -2 14 -6s6 -8.66699 6 -14v-72c0 -5.33301 -2 -10 -6 -14s-8.66699 -6 -14 -6h-271v-129
c0 -33.333 5.83301 -56 17.5 -68s32.167 -18 61.5 -18h204c5.33301 0 10 -2 14 -6s6 -8.66699 6 -14v-64zM484 801.998c0 -4.66699 -3 -7 -9 -7h-83c-6 0 -10.333 1 -13 3s-6 5.33301 -10 10l-71 81l-71 -81c-4 -4.66699 -7.5 -8 -10.5 -10s-7.5 -3 -13.5 -3h-83
c-6 0 -9 2.33301 -9 7c0 4 1.33301 7.33301 4 10l92 120c4.66699 5.33301 8.5 9.16602 11.5 11.499s7.83301 3.5 14.5 3.5h130c6.66699 0 11.5 -1.16699 14.5 -3.5s6.83301 -6.16602 11.5 -11.499l91 -120c2.66699 -2.66699 4 -6 4 -10z" />
    <glyph glyph-name="Edieresis" unicode="&#xcb;" horiz-adv-x="576" 
d="M516 27c0 -7.33301 -1.5 -12.335 -4.5 -15.002s-8.16699 -4.66699 -15.5 -6l-26.5 -4.5c-9.66699 -1.66699 -21.667 -3.16699 -36 -4.5s-31.666 -2.5 -51.999 -3.5s-45.5 -1.5 -75.5 -1.5c-32.667 0 -63 2.66699 -91 8s-52.333 15.5 -73 30.5s-37 35.833 -49 62.5
s-18 61.334 -18 104.001v349c0 42.667 6 77.334 18 104.001s28.333 47.5 49 62.5s45 25.167 73 30.5s58.333 8 91 8c30 0 55.167 -0.5 75.5 -1.5s37.666 -2.16699 51.999 -3.5s26.333 -2.83301 36 -4.5l26.5 -4.5c7.33301 -1.33301 12.5 -3.33301 15.5 -6
s4.5 -7.66699 4.5 -15v-64c0 -5.33301 -2 -10 -6 -14s-8.66699 -6 -14 -6h-204c-29.333 0 -49.833 -6 -61.5 -18s-17.5 -34.667 -17.5 -68v-108h271c5.33301 0 10 -2 14 -6s6 -8.66699 6 -14v-72c0 -5.33301 -2 -10 -6 -14s-8.66699 -6 -14 -6h-271v-129
c0 -33.333 5.83301 -56 17.5 -68s32.167 -18 61.5 -18h204c5.33301 0 10 -2 14 -6s6 -8.66699 6 -14v-64zM448 823.998c0 -5.33301 -2.16699 -10 -6.5 -14s-9.16602 -6 -14.499 -6h-72c-5.33301 0 -10.166 2 -14.499 6s-6.5 8.66699 -6.5 14v88c0 5.33301 2.16699 10 6.5 14
s9.16602 6 14.499 6h72c5.33301 0 10.166 -2 14.499 -6s6.5 -8.66699 6.5 -14v-88zM248 823.998c0 -5.33301 -2.16699 -10 -6.5 -14s-9.16602 -6 -14.499 -6h-72c-5.33301 0 -10.166 2 -14.499 6s-6.5 8.66699 -6.5 14v88c0 5.33301 2.16699 10 6.5 14s9.16602 6 14.499 6
h72c5.33301 0 10.166 -2 14.499 -6s6.5 -8.66699 6.5 -14v-88z" />
    <glyph glyph-name="Igrave" unicode="&#xcc;" horiz-adv-x="289" 
d="M214 20c0 -5.33301 -2 -10 -6 -14s-8.66699 -6 -14 -6h-99c-5.33301 0 -10 2 -14 6s-6 8.66699 -6 14v704c0 5.33301 2 9.83301 6 13.5s8.66699 5.5 14 5.5h99c5.33301 0 10 -1.83301 14 -5.5s6 -8.16699 6 -13.5v-704zM231 801c0 -4.66699 -3 -7.00195 -9 -7.00195h-86
c-6 0 -10.333 1 -13 3s-6 5.33301 -10 10l-119 124c-2.66699 2.66699 -4 5.33398 -4 8.00098c0 4.66699 3.66699 7 11 7h106c6.66699 0 11.5 -1.16699 14.5 -3.5s6.83301 -6.16602 11.5 -11.499l94 -120c2.66699 -2.66699 4 -6 4 -10z" />
    <glyph glyph-name="Iacute" unicode="&#xcd;" horiz-adv-x="289" 
d="M214 20c0 -5.33301 -2 -10 -6 -14s-8.66699 -6 -14 -6h-99c-5.33301 0 -10 2 -14 6s-6 8.66699 -6 14v704c0 5.33301 2 9.83301 6 13.5s8.66699 5.5 14 5.5h99c5.33301 0 10 -1.83301 14 -5.5s6 -8.16699 6 -13.5v-704zM303 939
c0 -2.66699 -1.33301 -5.33203 -4 -7.99902l-118 -124c-4 -4.66699 -7.5 -8 -10.5 -10s-7.5 -3 -13.5 -3h-86c-6 0 -9 2.33301 -9 7c0 4 1.33301 7.33301 4 10l95 120c4.66699 5.33301 8.5 9.16602 11.5 11.499s7.83301 3.5 14.5 3.5h105c7.33301 0 11 -2.33301 11 -7z" />
    <glyph glyph-name="Icircumflex" unicode="&#xce;" horiz-adv-x="289" 
d="M214 20c0 -5.33301 -2 -10 -6 -14s-8.66699 -6 -14 -6h-99c-5.33301 0 -10 2 -14 6s-6 8.66699 -6 14v704c0 5.33301 2 9.83301 6 13.5s8.66699 5.5 14 5.5h99c5.33301 0 10 -1.83301 14 -5.5s6 -8.16699 6 -13.5v-704zM332 801c0 -4.66699 -3 -7 -9 -7h-83
c-6 0 -10.333 1 -13 3s-6 5.33301 -10 10l-71 81l-71 -81c-4 -4.66699 -7.5 -8 -10.5 -10s-7.5 -3 -13.5 -3h-83c-6 0 -9 2.33301 -9 7c0 4 1.33301 7.33301 4 10l92 120c4.66699 5.33301 8.5 9.16602 11.5 11.499s7.83301 3.5 14.5 3.5h130
c6.66699 0 11.5 -1.16699 14.5 -3.5s6.83301 -6.16602 11.5 -11.499l91 -120c2.66699 -2.66699 4 -6 4 -10z" />
    <glyph glyph-name="Idieresis" unicode="&#xcf;" horiz-adv-x="289" 
d="M214 20c0 -5.33301 -2 -10 -6 -14s-8.66699 -6 -14 -6h-99c-5.33301 0 -10 2 -14 6s-6 8.66699 -6 14v704c0 5.33301 2 9.83301 6 13.5s8.66699 5.5 14 5.5h99c5.33301 0 10 -1.83301 14 -5.5s6 -8.16699 6 -13.5v-704zM301 824c0 -5.33301 -2.16699 -10 -6.5 -14
s-9.16602 -6 -14.499 -6h-72c-5.33301 0 -10.166 2 -14.499 6s-6.5 8.66699 -6.5 14v88c0 5.33301 2.16699 10 6.5 14s9.16602 6 14.499 6h72c5.33301 0 10.166 -2 14.499 -6s6.5 -8.66699 6.5 -14v-88zM101 824c0 -5.33301 -2.16699 -10 -6.5 -14s-9.16602 -6 -14.499 -6
h-72c-5.33301 0 -10.166 2 -14.499 6s-6.5 8.66699 -6.5 14v88c0 5.33301 2.16699 10 6.5 14s9.16602 6 14.499 6h72c5.33301 0 10.166 -2 14.499 -6s6.5 -8.66699 6.5 -14v-88z" />
    <glyph glyph-name="Eth" unicode="&#xd0;" horiz-adv-x="667" 
d="M612 298c0 -99.333 -27.167 -175.164 -81.5 -227.497s-131.833 -78.5 -232.5 -78.5c-18 0 -36.833 0.333008 -56.5 1s-38.667 1.66699 -57 3s-35 2.66602 -50 3.99902s-26.167 2.66602 -33.5 3.99902c-8.66699 1.33301 -15.167 4.33301 -19.5 9s-6.5 12 -6.5 22v291h-58
c-12.667 0 -19 6.33301 -19 19v75c0 12 6.33301 18 19 18h58v270c0 10 2.16699 17.333 6.5 22s10.833 7.66699 19.5 9c7.33301 1.33301 18.5 2.66602 33.5 3.99902s31.667 2.66602 50 3.99902s37.333 2.33301 57 3s38.5 1 56.5 1c100.667 0 178.167 -26.167 232.5 -78.5
s81.5 -128.166 81.5 -227.499v-147zM474 445.002c0 37.333 -4.5 68.1719 -13.5 92.5049s-21.333 43.666 -37 57.999s-34.334 24.333 -56.001 30s-44.834 8.5 -69.501 8.5c-18.667 0 -34.667 -0.333008 -48 -1s-25.333 -1.33398 -36 -2.00098v-193h71c12.667 0 19 -6 19 -18
v-75c0 -12.667 -6.33301 -19 -19 -19h-71v-214c10.667 -0.666992 22.667 -1.33398 36 -2.00098s29.333 -1 48 -1c24.667 0 47.834 2.83301 69.501 8.5s40.334 15.667 56.001 30s28 33.666 37 57.999s13.5 55.166 13.5 92.499v147z" />
    <glyph glyph-name="Ntilde" unicode="&#xd1;" horiz-adv-x="712" 
d="M637 40c0 -11.333 -3.83301 -20.833 -11.5 -28.5s-17.167 -11.5 -28.5 -11.5h-101c-12 0 -23.167 1.5 -33.5 4.5s-19.5 13.5 -27.5 31.5l-222 487c-2.66699 5.33301 -5.66699 8 -9 8s-5 -2.66699 -5 -8v-503c0 -5.33301 -1.83301 -10 -5.5 -14s-8.16699 -6 -13.5 -6h-85
c-5.33301 0 -10 2 -14 6s-6 8.66699 -6 14v683c0 11.333 3.83301 20.833 11.5 28.5s17.167 11.5 28.5 11.5h108c10.667 0 19.167 -2 25.5 -6s12.5 -12.667 18.5 -26l233 -514c2 -5.33301 4.66699 -8 8 -8s5 3 5 9v526c0 12.667 6.33301 19 19 19h86
c12.667 0 19 -6.33301 19 -19v-684zM539 900c0 -40.667 -9.83008 -69.5 -29.4971 -86.5s-46.834 -25.5 -81.501 -25.5c-11.333 0 -23.333 2 -36 6s-24 9.66699 -34 17l-44 33c-8.66699 6.66699 -16.334 11.834 -23.001 15.501s-13 5.5 -19 5.5c-8 0 -14.667 -2.33301 -20 -7
s-8 -13.667 -8 -27v-21c0 -10.667 -4.66699 -16 -14 -16h-57c-9.33301 0 -14 5.33301 -14 16v21c0 40 10 68.667 30 86s47.333 26 82 26c11.333 0 23.166 -1.83301 35.499 -5.5s23.5 -9.16699 33.5 -16.5l44 -33c17.333 -13.333 31.333 -20 42 -20
c8.66699 0 15.5 2.16699 20.5 6.5s7.5 13.166 7.5 26.499v21c0 10.667 4.66699 16 14 16h57c9.33301 0 14 -5.33301 14 -16v-22z" />
    <glyph glyph-name="Ograve" unicode="&#xd2;" horiz-adv-x="680" 
d="M625 304c0 -55.333 -7.16699 -102.666 -21.5 -141.999s-34.166 -71.5 -59.499 -96.5s-55.333 -43.5 -90 -55.5s-72.667 -18 -114 -18s-79.333 6 -114 18s-64.667 30.5 -90 55.5s-45.166 57.167 -59.499 96.5s-21.5 86.666 -21.5 141.999v135
c0 54.667 7.16699 101.834 21.5 141.501s34.166 72 59.499 97s55.333 43.5 90 55.5s72.667 18 114 18s79.333 -6 114 -18s64.667 -30.5 90 -55.5s45.166 -57.333 59.499 -97s21.5 -86.834 21.5 -141.501v-135zM485 439c0 66.667 -11.833 115.167 -35.5 145.5
s-60.167 45.5 -109.5 45.5s-85.833 -15.167 -109.5 -45.5s-35.5 -78.833 -35.5 -145.5v-135c0 -66.667 11.833 -115.167 35.5 -145.5s60.167 -45.5 109.5 -45.5s85.833 15.167 109.5 45.5s35.5 78.833 35.5 145.5v135zM426 801c0 -4.66699 -3 -7.00195 -9 -7.00195h-86
c-6 0 -10.333 1 -13 3s-6 5.33301 -10 10l-119 124c-2.66699 2.66699 -4 5.33398 -4 8.00098c0 4.66699 3.66699 7 11 7h106c6.66699 0 11.5 -1.16699 14.5 -3.5s6.83301 -6.16602 11.5 -11.499l94 -120c2.66699 -2.66699 4 -6 4 -10z" />
    <glyph glyph-name="Oacute" unicode="&#xd3;" horiz-adv-x="680" 
d="M625 304c0 -55.333 -7.16699 -102.666 -21.5 -141.999s-34.166 -71.5 -59.499 -96.5s-55.333 -43.5 -90 -55.5s-72.667 -18 -114 -18s-79.333 6 -114 18s-64.667 30.5 -90 55.5s-45.166 57.167 -59.499 96.5s-21.5 86.666 -21.5 141.999v135
c0 54.667 7.16699 101.834 21.5 141.501s34.166 72 59.499 97s55.333 43.5 90 55.5s72.667 18 114 18s79.333 -6 114 -18s64.667 -30.5 90 -55.5s45.166 -57.333 59.499 -97s21.5 -86.834 21.5 -141.501v-135zM485 439c0 66.667 -11.833 115.167 -35.5 145.5
s-60.167 45.5 -109.5 45.5s-85.833 -15.167 -109.5 -45.5s-35.5 -78.833 -35.5 -145.5v-135c0 -66.667 11.833 -115.167 35.5 -145.5s60.167 -45.5 109.5 -45.5s85.833 15.167 109.5 45.5s35.5 78.833 35.5 145.5v135zM488 939c0 -2.66699 -1.33301 -5.33203 -4 -7.99902
l-118 -124c-4 -4.66699 -7.5 -8 -10.5 -10s-7.5 -3 -13.5 -3h-86c-6 0 -9 2.33301 -9 7c0 4 1.33301 7.33301 4 10l95 120c4.66699 5.33301 8.5 9.16602 11.5 11.499s7.83301 3.5 14.5 3.5h105c7.33301 0 11 -2.33301 11 -7z" />
    <glyph glyph-name="Ocircumflex" unicode="&#xd4;" horiz-adv-x="680" 
d="M625 304c0 -55.333 -7.16699 -102.666 -21.5 -141.999s-34.166 -71.5 -59.499 -96.5s-55.333 -43.5 -90 -55.5s-72.667 -18 -114 -18s-79.333 6 -114 18s-64.667 30.5 -90 55.5s-45.166 57.167 -59.499 96.5s-21.5 86.666 -21.5 141.999v135
c0 54.667 7.16699 101.834 21.5 141.501s34.166 72 59.499 97s55.333 43.5 90 55.5s72.667 18 114 18s79.333 -6 114 -18s64.667 -30.5 90 -55.5s45.166 -57.333 59.499 -97s21.5 -86.834 21.5 -141.501v-135zM485 439c0 66.667 -11.833 115.167 -35.5 145.5
s-60.167 45.5 -109.5 45.5s-85.833 -15.167 -109.5 -45.5s-35.5 -78.833 -35.5 -145.5v-135c0 -66.667 11.833 -115.167 35.5 -145.5s60.167 -45.5 109.5 -45.5s85.833 15.167 109.5 45.5s35.5 78.833 35.5 145.5v135zM524 802c0 -4.66699 -3 -7 -9 -7h-83
c-6 0 -10.333 1 -13 3s-6 5.33301 -10 10l-71 81l-71 -81c-4 -4.66699 -7.5 -8 -10.5 -10s-7.5 -3 -13.5 -3h-83c-6 0 -9 2.33301 -9 7c0 4 1.33301 7.33301 4 10l92 120c4.66699 5.33301 8.5 9.16602 11.5 11.499s7.83301 3.5 14.5 3.5h130
c6.66699 0 11.5 -1.16699 14.5 -3.5s6.83301 -6.16602 11.5 -11.499l91 -120c2.66699 -2.66699 4 -6 4 -10z" />
    <glyph glyph-name="Otilde" unicode="&#xd5;" horiz-adv-x="680" 
d="M625 304c0 -55.333 -7.16699 -102.666 -21.5 -141.999s-34.166 -71.5 -59.499 -96.5s-55.333 -43.5 -90 -55.5s-72.667 -18 -114 -18s-79.333 6 -114 18s-64.667 30.5 -90 55.5s-45.166 57.167 -59.499 96.5s-21.5 86.666 -21.5 141.999v135
c0 54.667 7.16699 101.834 21.5 141.501s34.166 72 59.499 97s55.333 43.5 90 55.5s72.667 18 114 18s79.333 -6 114 -18s64.667 -30.5 90 -55.5s45.166 -57.333 59.499 -97s21.5 -86.834 21.5 -141.501v-135zM485 439c0 66.667 -11.833 115.167 -35.5 145.5
s-60.167 45.5 -109.5 45.5s-85.833 -15.167 -109.5 -45.5s-35.5 -78.833 -35.5 -145.5v-135c0 -66.667 11.833 -115.167 35.5 -145.5s60.167 -45.5 109.5 -45.5s85.833 15.167 109.5 45.5s35.5 78.833 35.5 145.5v135zM535 901c0 -40.667 -9.83008 -69.5 -29.4971 -86.5
s-46.834 -25.5 -81.501 -25.5c-11.333 0 -23.333 2 -36 6s-24 9.66699 -34 17l-44 33c-8.66699 6.66699 -16.334 11.834 -23.001 15.501s-13 5.5 -19 5.5c-8 0 -14.667 -2.33301 -20 -7s-8 -13.667 -8 -27v-21c0 -10.667 -4.66699 -16 -14 -16h-57
c-9.33301 0 -14 5.33301 -14 16v21c0 40 10 68.667 30 86s47.333 26 82 26c11.333 0 23.166 -1.83301 35.499 -5.5s23.5 -9.16699 33.5 -16.5l44 -33c17.333 -13.333 31.333 -20 42 -20c8.66699 0 15.5 2.16699 20.5 6.5s7.5 13.166 7.5 26.499v21
c0 10.667 4.66699 16 14 16h57c9.33301 0 14 -5.33301 14 -16v-22z" />
    <glyph glyph-name="Odieresis" unicode="&#xd6;" horiz-adv-x="680" 
d="M625 304c0 -55.333 -7.16699 -102.666 -21.5 -141.999s-34.166 -71.5 -59.499 -96.5s-55.333 -43.5 -90 -55.5s-72.667 -18 -114 -18s-79.333 6 -114 18s-64.667 30.5 -90 55.5s-45.166 57.167 -59.499 96.5s-21.5 86.666 -21.5 141.999v135
c0 54.667 7.16699 101.834 21.5 141.501s34.166 72 59.499 97s55.333 43.5 90 55.5s72.667 18 114 18s79.333 -6 114 -18s64.667 -30.5 90 -55.5s45.166 -57.333 59.499 -97s21.5 -86.834 21.5 -141.501v-135zM485 439c0 66.667 -11.833 115.167 -35.5 145.5
s-60.167 45.5 -109.5 45.5s-85.833 -15.167 -109.5 -45.5s-35.5 -78.833 -35.5 -145.5v-135c0 -66.667 11.833 -115.167 35.5 -145.5s60.167 -45.5 109.5 -45.5s85.833 15.167 109.5 45.5s35.5 78.833 35.5 145.5v135zM491 824c0 -5.33301 -2.16699 -10 -6.5 -14
s-9.16602 -6 -14.499 -6h-72c-5.33301 0 -10.166 2 -14.499 6s-6.5 8.66699 -6.5 14v88c0 5.33301 2.16699 10 6.5 14s9.16602 6 14.499 6h72c5.33301 0 10.166 -2 14.499 -6s6.5 -8.66699 6.5 -14v-88zM291 824c0 -5.33301 -2.16699 -10 -6.5 -14s-9.16602 -6 -14.499 -6
h-72c-5.33301 0 -10.166 2 -14.499 6s-6.5 8.66699 -6.5 14v88c0 5.33301 2.16699 10 6.5 14s9.16602 6 14.499 6h72c5.33301 0 10.166 -2 14.499 -6s6.5 -8.66699 6.5 -14v-88z" />
    <glyph glyph-name="multiply" unicode="&#xd7;" 
d="M520 531c0 -5.33301 -2.66602 -10.6641 -7.99902 -15.9971l-125 -125l125 -124c4.66699 -4.66699 7 -9.66699 7 -15c0 -4 -1.66699 -7.66699 -5 -11l-49 -49c-3.33301 -3.33301 -6.66602 -5 -9.99902 -5c-4.66699 0 -9.66699 2.66699 -15 8l-125 124l-124 -124
c-5.33301 -5.33301 -10.666 -8 -15.999 -8c-3.33301 0 -6.66602 1.66699 -9.99902 5l-49 49c-3.33301 3.33301 -5 6.66602 -5 9.99902c0 5.33301 2.66699 10.666 8 15.999l124 124l-125 125c-5.33301 5.33301 -8 10.666 -8 15.999c0 3.33301 1.66699 6.66602 5 9.99902
l49 49c3.33301 3.33301 6.66602 5 9.99902 5c5.33301 0 10.666 -2.66699 15.999 -8l125 -125l125 125c5.33301 5.33301 10.666 8 15.999 8c3.33301 0 6.66602 -1.66699 9.99902 -5l49 -49c3.33301 -3.33301 5 -6.66602 5 -9.99902z" />
    <glyph glyph-name="Oslash" unicode="&#xd8;" horiz-adv-x="680" 
d="M656 737c0 -2.66699 -1.00195 -5.33301 -3.00195 -8l-72 -100c14 -24 24.833 -51.667 32.5 -83s11.5 -67 11.5 -107v-135c0 -55.333 -7.16699 -102.666 -21.5 -141.999s-34.166 -71.5 -59.499 -96.5s-55.333 -43.5 -90 -55.5s-72.667 -18 -114 -18
c-35.333 0 -68 4.16699 -98 12.5s-57 21.5 -81 39.5l-29 -40c-3.33301 -4 -6.16602 -7 -8.49902 -9s-6.16602 -3 -11.499 -3h-76c-7.33301 0 -11 3.66699 -11 11c0 2 1 4.66699 3 8l72 100c-30 49.333 -45 113.666 -45 192.999v135c0 54.667 7.16699 101.834 21.5 141.501
s34.166 72 59.499 97s55.333 43.5 90 55.5s72.667 18 114 18c36 0 69.333 -4.33301 100 -13s58 -22.334 82 -41.001l29 41c3.33301 4 6 6.66699 8 8s5.66699 2 11 2h75c7.33301 0 11 -3.66699 11 -11zM443.998 590.001c-24 26.667 -58.667 40.001 -104 40.001
c-49.333 0 -85.833 -15.167 -109.5 -45.5s-35.5 -78.833 -35.5 -145.5v-135c0 -20.667 1 -39.334 3 -56.001zM484.998 439.002c0 18.667 -1 36 -3 52l-244 -340c23.333 -25.333 57.333 -38 102 -38c49.333 0 85.833 15.167 109.5 45.5s35.5 78.833 35.5 145.5v135z" />
    <glyph glyph-name="Ugrave" unicode="&#xd9;" horiz-adv-x="690" 
d="M620 275c0 -53.333 -6.83203 -98 -20.499 -134s-32.667 -65 -57 -87s-53.333 -37.833 -87 -47.5s-70.5 -14.5 -110.5 -14.5s-76.833 4.83301 -110.5 14.5s-62.667 25.5 -87 47.5s-43.333 51 -57 87s-20.5 80.667 -20.5 134v449c0 5.33301 2 9.83301 6 13.5
s8.66699 5.5 14 5.5h99c5.33301 0 10 -1.83301 14 -5.5s6 -8.16699 6 -13.5v-449c0 -28.667 2 -53.5 6 -74.5s11.167 -38.5 21.5 -52.5s24.166 -24.333 41.499 -31s39.666 -10 66.999 -10c26.667 0 48.834 3.33301 66.501 10s31.667 17 42 31s17.5 31.5 21.5 52.5
s6 45.833 6 74.5v449c0 5.33301 2 9.83301 6 13.5s8.66699 5.5 14 5.5h99c5.33301 0 10 -1.83301 14 -5.5s6 -8.16699 6 -13.5v-449zM424.001 801c0 -4.66699 -3 -7.00195 -9 -7.00195h-86c-6 0 -10.333 1 -13 3s-6 5.33301 -10 10l-119 124
c-2.66699 2.66699 -4 5.33398 -4 8.00098c0 4.66699 3.66699 7 11 7h106c6.66699 0 11.5 -1.16699 14.5 -3.5s6.83301 -6.16602 11.5 -11.499l94 -120c2.66699 -2.66699 4 -6 4 -10z" />
    <glyph glyph-name="Uacute" unicode="&#xda;" horiz-adv-x="690" 
d="M620 275c0 -53.333 -6.83203 -98 -20.499 -134s-32.667 -65 -57 -87s-53.333 -37.833 -87 -47.5s-70.5 -14.5 -110.5 -14.5s-76.833 4.83301 -110.5 14.5s-62.667 25.5 -87 47.5s-43.333 51 -57 87s-20.5 80.667 -20.5 134v449c0 5.33301 2 9.83301 6 13.5
s8.66699 5.5 14 5.5h99c5.33301 0 10 -1.83301 14 -5.5s6 -8.16699 6 -13.5v-449c0 -28.667 2 -53.5 6 -74.5s11.167 -38.5 21.5 -52.5s24.166 -24.333 41.499 -31s39.666 -10 66.999 -10c26.667 0 48.834 3.33301 66.501 10s31.667 17 42 31s17.5 31.5 21.5 52.5
s6 45.833 6 74.5v449c0 5.33301 2 9.83301 6 13.5s8.66699 5.5 14 5.5h99c5.33301 0 10 -1.83301 14 -5.5s6 -8.16699 6 -13.5v-449zM512.001 939c0 -2.66699 -1.33301 -5.33203 -4 -7.99902l-118 -124c-4 -4.66699 -7.5 -8 -10.5 -10s-7.5 -3 -13.5 -3h-86
c-6 0 -9 2.33301 -9 7c0 4 1.33301 7.33301 4 10l95 120c4.66699 5.33301 8.5 9.16602 11.5 11.499s7.83301 3.5 14.5 3.5h105c7.33301 0 11 -2.33301 11 -7z" />
    <glyph glyph-name="Ucircumflex" unicode="&#xdb;" horiz-adv-x="690" 
d="M620 275c0 -53.333 -6.83203 -98 -20.499 -134s-32.667 -65 -57 -87s-53.333 -37.833 -87 -47.5s-70.5 -14.5 -110.5 -14.5s-76.833 4.83301 -110.5 14.5s-62.667 25.5 -87 47.5s-43.333 51 -57 87s-20.5 80.667 -20.5 134v449c0 5.33301 2 9.83301 6 13.5
s8.66699 5.5 14 5.5h99c5.33301 0 10 -1.83301 14 -5.5s6 -8.16699 6 -13.5v-449c0 -28.667 2 -53.5 6 -74.5s11.167 -38.5 21.5 -52.5s24.166 -24.333 41.499 -31s39.666 -10 66.999 -10c26.667 0 48.834 3.33301 66.501 10s31.667 17 42 31s17.5 31.5 21.5 52.5
s6 45.833 6 74.5v449c0 5.33301 2 9.83301 6 13.5s8.66699 5.5 14 5.5h99c5.33301 0 10 -1.83301 14 -5.5s6 -8.16699 6 -13.5v-449zM531.001 801c0 -4.66699 -3 -7 -9 -7h-83c-6 0 -10.333 1 -13 3s-6 5.33301 -10 10l-71 81l-71 -81c-4 -4.66699 -7.5 -8 -10.5 -10
s-7.5 -3 -13.5 -3h-83c-6 0 -9 2.33301 -9 7c0 4 1.33301 7.33301 4 10l92 120c4.66699 5.33301 8.5 9.16602 11.5 11.499s7.83301 3.5 14.5 3.5h130c6.66699 0 11.5 -1.16699 14.5 -3.5s6.83301 -6.16602 11.5 -11.499l91 -120c2.66699 -2.66699 4 -6 4 -10z" />
    <glyph glyph-name="Udieresis" unicode="&#xdc;" horiz-adv-x="690" 
d="M620 275c0 -53.333 -6.83203 -98 -20.499 -134s-32.667 -65 -57 -87s-53.333 -37.833 -87 -47.5s-70.5 -14.5 -110.5 -14.5s-76.833 4.83301 -110.5 14.5s-62.667 25.5 -87 47.5s-43.333 51 -57 87s-20.5 80.667 -20.5 134v449c0 5.33301 2 9.83301 6 13.5
s8.66699 5.5 14 5.5h99c5.33301 0 10 -1.83301 14 -5.5s6 -8.16699 6 -13.5v-449c0 -28.667 2 -53.5 6 -74.5s11.167 -38.5 21.5 -52.5s24.166 -24.333 41.499 -31s39.666 -10 66.999 -10c26.667 0 48.834 3.33301 66.501 10s31.667 17 42 31s17.5 31.5 21.5 52.5
s6 45.833 6 74.5v449c0 5.33301 2 9.83301 6 13.5s8.66699 5.5 14 5.5h99c5.33301 0 10 -1.83301 14 -5.5s6 -8.16699 6 -13.5v-449zM503.001 824c0 -5.33301 -2.16699 -10 -6.5 -14s-9.16602 -6 -14.499 -6h-72c-5.33301 0 -10.166 2 -14.499 6s-6.5 8.66699 -6.5 14v88
c0 5.33301 2.16699 10 6.5 14s9.16602 6 14.499 6h72c5.33301 0 10.166 -2 14.499 -6s6.5 -8.66699 6.5 -14v-88zM303.001 824c0 -5.33301 -2.16699 -10 -6.5 -14s-9.16602 -6 -14.499 -6h-72c-5.33301 0 -10.166 2 -14.499 6s-6.5 8.66699 -6.5 14v88
c0 5.33301 2.16699 10 6.5 14s9.16602 6 14.499 6h72c5.33301 0 10.166 -2 14.499 -6s6.5 -8.66699 6.5 -14v-88z" />
    <glyph glyph-name="Yacute" unicode="&#xdd;" horiz-adv-x="615" 
d="M590 728c0 -1.33301 -0.665039 -4 -1.99805 -8l-152 -347c-9.33301 -22 -19 -38.5 -29 -49.5s-20.667 -18.833 -32 -23.5v-280c0 -5.33301 -1.83301 -10 -5.5 -14s-8.16699 -6 -13.5 -6h-100c-5.33301 0 -9.83301 2 -13.5 6s-5.5 8.66699 -5.5 14v280
c-11.333 4.66699 -22 12.5 -32 23.5s-19.667 27.5 -29 49.5l-151 347c-1.33301 4 -2 6.66699 -2 8c0 4 1.33301 7.5 4 10.5s6.66699 4.5 12 4.5h111c4.66699 0 8.66699 -1.66699 12 -5s5.66602 -7 6.99902 -11l120 -298c3.33301 -8.66699 6.5 -14.167 9.5 -16.5
s5.5 -3.5 7.5 -3.5c2.66699 0 5.5 1.16699 8.5 3.5s6.16699 7.83301 9.5 16.5l120 298c1.33301 4 3.66602 7.66699 6.99902 11s7.33301 5 12 5h110c5.33301 0 9.5 -1.5 12.5 -4.5s4.5 -6.5 4.5 -10.5zM481.002 939c0 -2.66699 -1.33301 -5.33203 -4 -7.99902l-118 -124
c-4 -4.66699 -7.5 -8 -10.5 -10s-7.5 -3 -13.5 -3h-86c-6 0 -9 2.33301 -9 7c0 4 1.33301 7.33301 4 10l95 120c4.66699 5.33301 8.5 9.16602 11.5 11.499s7.83301 3.5 14.5 3.5h105c7.33301 0 11 -2.33301 11 -7z" />
    <glyph glyph-name="Thorn" unicode="&#xde;" horiz-adv-x="626" 
d="M591 419c0 -45.333 -8.00098 -83.333 -24.001 -114s-37.333 -55.167 -64 -73.5s-57.667 -31.333 -93 -39s-72.333 -11.5 -111 -11.5c-15.333 0 -30 0.333008 -44 1l-42 2v-164c0 -5.33301 -1.66699 -10 -5 -14s-7.66602 -6 -12.999 -6h-101
c-5.33301 0 -9.83301 2 -13.5 6s-5.5 8.66699 -5.5 14v704c0 12.667 6.33301 19 19 19h101c12 0 18 -6.33301 18 -19v-63c8.66699 0.666992 21.5 1.16699 38.5 1.5s31.833 0.5 44.5 0.5c39.333 0 76.833 -3.83301 112.5 -11.5s67 -20.5 94 -38.5s48.5 -41.833 64.5 -71.5
s24 -66.5 24 -110.5v-12zM451.999 431c0 42.667 -13.0029 72.3301 -39.0029 88.9971s-64 25 -114 25h-20.5c-8.33301 0 -16.666 -0.166992 -24.999 -0.5s-16.166 -0.666016 -23.499 -0.999023s-13 -0.5 -17 -0.5v-242c4 0 9.83301 -0.166992 17.5 -0.5
s15.834 -0.666016 24.501 -0.999023s17.167 -0.5 25.5 -0.5h18.5c52 0 90.5 9.33301 115.5 28s37.5 49.334 37.5 92.001v12z" />
    <glyph glyph-name="germandbls" unicode="&#xdf;" horiz-adv-x="624" 
d="M570 221c0 -40 -6.5 -74.3281 -19.5 -102.995s-30.667 -52.334 -53 -71.001s-48 -32.5 -77 -41.5s-59.5 -13.5 -91.5 -13.5c-8 0 -16.667 0.5 -26 1.5s-19.333 2.16699 -30 3.5c-5.33301 1.33301 -10 3.5 -14 6.5s-6 7.16699 -6 12.5v74c0 10 5.66699 15 17 15
c22.667 0 44 1 64 3s37.5 6.83301 52.5 14.5s27 19.167 36 34.5s13.5 36.666 13.5 63.999v19c0 30 -10.167 54.667 -30.5 74s-52.5 29 -96.5 29h-32c-5.33301 0 -10 1.66699 -14 5s-6 7.66602 -6 12.999v62c0 5.33301 2 9.66602 6 12.999s8.66699 5 14 5h32
c21.333 0 39.333 2.66699 54 8s26.667 12.5 36 21.5s16 19.333 20 31s6 23.834 6 36.501v17c0 28.667 -8.5 52.167 -25.5 70.5s-45.5 27.5 -85.5 27.5c-26 0 -46.833 -3.83301 -62.5 -11.5s-27.667 -17.834 -36 -30.501s-14 -27.334 -17 -44.001s-4.5 -33.667 -4.5 -51v-495
c0 -5.33301 -1.83301 -10.166 -5.5 -14.499s-8.16699 -6.5 -13.5 -6.5h-95c-5.33301 0 -10 2.16699 -14 6.5s-6 9.16602 -6 14.499v494c0 86.667 22 150.5 66 191.5s106.667 61.5 188 61.5c34.667 0 67 -3.83301 97 -11.5s55.667 -20 77 -37s38.166 -39 50.499 -66
s18.5 -59.833 18.5 -98.5v-17c0 -30 -8.66699 -57.833 -26 -83.5s-39.666 -45.167 -66.999 -58.5c32 -13.333 57.667 -33.5 77 -60.5s29 -58.833 29 -95.5v-19v0z" />
    <glyph glyph-name="agrave" unicode="&#xe0;" horiz-adv-x="548" 
d="M483 20c0 -5.33301 -2.00195 -10.002 -6.00195 -14.002s-8.66699 -6 -14 -6h-85c-5.33301 0 -10 2 -14 6s-6 8.66699 -6 14v16c-23.333 -14 -46.666 -24.833 -69.999 -32.5s-47 -11.5 -71 -11.5c-20.667 0 -41.334 2.33301 -62.001 7s-39.167 13.334 -55.5 26.001
s-29.666 29.667 -39.999 51s-15.5 49 -15.5 83v4c0 28.667 4.5 53.667 13.5 75s23.333 39.333 43 54s45 25.667 76 33s68.167 11 111.5 11h63v44c0 32.667 -7.16699 54.334 -21.5 65.001s-36.5 16 -66.5 16c-32 0 -63 -0.833008 -93 -2.5s-53.333 -3.5 -70 -5.5h-5
c-5.33301 0 -9.66602 1 -12.999 3s-5 6.66699 -5 14v64c0 11.333 6.33301 18.333 19 21c20 4 44.167 7.66699 72.5 11s59.833 5 94.5 5c71.333 0 125.833 -15.667 163.5 -47s56.5 -79.333 56.5 -144v-360zM350.998 247.998h-63.001c-22.667 0 -41.167 -1.83301 -55.5 -5.5
s-25.666 -9 -33.999 -16s-14 -15.833 -17 -26.5s-4.5 -23 -4.5 -37v-4c0 -24.667 5.66699 -41.167 17 -49.5s29.666 -12.5 54.999 -12.5c18 0 35.833 2.66699 53.5 8s33.834 12 48.501 20v123zM350.997 633.998c0 -4.66699 -3 -7.00195 -9 -7.00195h-86
c-6 0 -10.333 1 -13 3s-6 5.33301 -10 10l-119 124c-2.66699 2.66699 -4 5.33398 -4 8.00098c0 4.66699 3.66699 7 11 7h106c6.66699 0 11.5 -1.16699 14.5 -3.5s6.83301 -6.16602 11.5 -11.499l94 -120c2.66699 -2.66699 4 -6 4 -10z" />
    <glyph glyph-name="aacute" unicode="&#xe1;" horiz-adv-x="548" 
d="M483 20c0 -5.33301 -2.00195 -10.002 -6.00195 -14.002s-8.66699 -6 -14 -6h-85c-5.33301 0 -10 2 -14 6s-6 8.66699 -6 14v16c-23.333 -14 -46.666 -24.833 -69.999 -32.5s-47 -11.5 -71 -11.5c-20.667 0 -41.334 2.33301 -62.001 7s-39.167 13.334 -55.5 26.001
s-29.666 29.667 -39.999 51s-15.5 49 -15.5 83v4c0 28.667 4.5 53.667 13.5 75s23.333 39.333 43 54s45 25.667 76 33s68.167 11 111.5 11h63v44c0 32.667 -7.16699 54.334 -21.5 65.001s-36.5 16 -66.5 16c-32 0 -63 -0.833008 -93 -2.5s-53.333 -3.5 -70 -5.5h-5
c-5.33301 0 -9.66602 1 -12.999 3s-5 6.66699 -5 14v64c0 11.333 6.33301 18.333 19 21c20 4 44.167 7.66699 72.5 11s59.833 5 94.5 5c71.333 0 125.833 -15.667 163.5 -47s56.5 -79.333 56.5 -144v-360zM350.998 247.998h-63.001c-22.667 0 -41.167 -1.83301 -55.5 -5.5
s-25.666 -9 -33.999 -16s-14 -15.833 -17 -26.5s-4.5 -23 -4.5 -37v-4c0 -24.667 5.66699 -41.167 17 -49.5s29.666 -12.5 54.999 -12.5c18 0 35.833 2.66699 53.5 8s33.834 12 48.501 20v123zM438.997 771.998c0 -2.66699 -1.33301 -5.33203 -4 -7.99902l-118 -124
c-4 -4.66699 -7.5 -8 -10.5 -10s-7.5 -3 -13.5 -3h-86c-6 0 -9 2.33301 -9 7c0 4 1.33301 7.33301 4 10l95 120c4.66699 5.33301 8.5 9.16602 11.5 11.499s7.83301 3.5 14.5 3.5h105c7.33301 0 11 -2.33301 11 -7z" />
    <glyph glyph-name="acircumflex" unicode="&#xe2;" horiz-adv-x="548" 
d="M483 20c0 -5.33301 -2.00195 -10.002 -6.00195 -14.002s-8.66699 -6 -14 -6h-85c-5.33301 0 -10 2 -14 6s-6 8.66699 -6 14v16c-23.333 -14 -46.666 -24.833 -69.999 -32.5s-47 -11.5 -71 -11.5c-20.667 0 -41.334 2.33301 -62.001 7s-39.167 13.334 -55.5 26.001
s-29.666 29.667 -39.999 51s-15.5 49 -15.5 83v4c0 28.667 4.5 53.667 13.5 75s23.333 39.333 43 54s45 25.667 76 33s68.167 11 111.5 11h63v44c0 32.667 -7.16699 54.334 -21.5 65.001s-36.5 16 -66.5 16c-32 0 -63 -0.833008 -93 -2.5s-53.333 -3.5 -70 -5.5h-5
c-5.33301 0 -9.66602 1 -12.999 3s-5 6.66699 -5 14v64c0 11.333 6.33301 18.333 19 21c20 4 44.167 7.66699 72.5 11s59.833 5 94.5 5c71.333 0 125.833 -15.667 163.5 -47s56.5 -79.333 56.5 -144v-360zM350.998 247.998h-63.001c-22.667 0 -41.167 -1.83301 -55.5 -5.5
s-25.666 -9 -33.999 -16s-14 -15.833 -17 -26.5s-4.5 -23 -4.5 -37v-4c0 -24.667 5.66699 -41.167 17 -49.5s29.666 -12.5 54.999 -12.5c18 0 35.833 2.66699 53.5 8s33.834 12 48.501 20v123zM462.997 633.998c0 -4.66699 -3 -7 -9 -7h-83c-6 0 -10.333 1 -13 3
s-6 5.33301 -10 10l-71 81l-71 -81c-4 -4.66699 -7.5 -8 -10.5 -10s-7.5 -3 -13.5 -3h-83c-6 0 -9 2.33301 -9 7c0 4 1.33301 7.33301 4 10l92 120c4.66699 5.33301 8.5 9.16602 11.5 11.499s7.83301 3.5 14.5 3.5h130c6.66699 0 11.5 -1.16699 14.5 -3.5
s6.83301 -6.16602 11.5 -11.499l91 -120c2.66699 -2.66699 4 -6 4 -10z" />
    <glyph glyph-name="atilde" unicode="&#xe3;" horiz-adv-x="548" 
d="M483 20c0 -5.33301 -2.00195 -10.002 -6.00195 -14.002s-8.66699 -6 -14 -6h-85c-5.33301 0 -10 2 -14 6s-6 8.66699 -6 14v16c-23.333 -14 -46.666 -24.833 -69.999 -32.5s-47 -11.5 -71 -11.5c-20.667 0 -41.334 2.33301 -62.001 7s-39.167 13.334 -55.5 26.001
s-29.666 29.667 -39.999 51s-15.5 49 -15.5 83v4c0 28.667 4.5 53.667 13.5 75s23.333 39.333 43 54s45 25.667 76 33s68.167 11 111.5 11h63v44c0 32.667 -7.16699 54.334 -21.5 65.001s-36.5 16 -66.5 16c-32 0 -63 -0.833008 -93 -2.5s-53.333 -3.5 -70 -5.5h-5
c-5.33301 0 -9.66602 1 -12.999 3s-5 6.66699 -5 14v64c0 11.333 6.33301 18.333 19 21c20 4 44.167 7.66699 72.5 11s59.833 5 94.5 5c71.333 0 125.833 -15.667 163.5 -47s56.5 -79.333 56.5 -144v-360zM350.998 247.998h-63.001c-22.667 0 -41.167 -1.83301 -55.5 -5.5
s-25.666 -9 -33.999 -16s-14 -15.833 -17 -26.5s-4.5 -23 -4.5 -37v-4c0 -24.667 5.66699 -41.167 17 -49.5s29.666 -12.5 54.999 -12.5c18 0 35.833 2.66699 53.5 8s33.834 12 48.501 20v123zM466.997 738.998c0 -40.667 -9.83008 -69.5 -29.4971 -86.5
s-46.834 -25.5 -81.501 -25.5c-11.333 0 -23.333 2 -36 6s-24 9.66699 -34 17l-44 33c-8.66699 6.66699 -16.334 11.834 -23.001 15.501s-13 5.5 -19 5.5c-8 0 -14.667 -2.33301 -20 -7s-8 -13.667 -8 -27v-21c0 -10.667 -4.66699 -16 -14 -16h-57
c-9.33301 0 -14 5.33301 -14 16v21c0 40 10 68.667 30 86s47.333 26 82 26c11.333 0 23.166 -1.83301 35.499 -5.5s23.5 -9.16699 33.5 -16.5l44 -33c17.333 -13.333 31.333 -20 42 -20c8.66699 0 15.5 2.16699 20.5 6.5s7.5 13.166 7.5 26.499v21
c0 10.667 4.66699 16 14 16h57c9.33301 0 14 -5.33301 14 -16v-22z" />
    <glyph glyph-name="adieresis" unicode="&#xe4;" horiz-adv-x="548" 
d="M483 20c0 -5.33301 -2.00195 -10.002 -6.00195 -14.002s-8.66699 -6 -14 -6h-85c-5.33301 0 -10 2 -14 6s-6 8.66699 -6 14v16c-23.333 -14 -46.666 -24.833 -69.999 -32.5s-47 -11.5 -71 -11.5c-20.667 0 -41.334 2.33301 -62.001 7s-39.167 13.334 -55.5 26.001
s-29.666 29.667 -39.999 51s-15.5 49 -15.5 83v4c0 28.667 4.5 53.667 13.5 75s23.333 39.333 43 54s45 25.667 76 33s68.167 11 111.5 11h63v44c0 32.667 -7.16699 54.334 -21.5 65.001s-36.5 16 -66.5 16c-32 0 -63 -0.833008 -93 -2.5s-53.333 -3.5 -70 -5.5h-5
c-5.33301 0 -9.66602 1 -12.999 3s-5 6.66699 -5 14v64c0 11.333 6.33301 18.333 19 21c20 4 44.167 7.66699 72.5 11s59.833 5 94.5 5c71.333 0 125.833 -15.667 163.5 -47s56.5 -79.333 56.5 -144v-360zM350.998 247.998h-63.001c-22.667 0 -41.167 -1.83301 -55.5 -5.5
s-25.666 -9 -33.999 -16s-14 -15.833 -17 -26.5s-4.5 -23 -4.5 -37v-4c0 -24.667 5.66699 -41.167 17 -49.5s29.666 -12.5 54.999 -12.5c18 0 35.833 2.66699 53.5 8s33.834 12 48.501 20v123zM432.997 661.998c0 -5.33301 -2.16699 -10 -6.5 -14s-9.16602 -6 -14.499 -6
h-72c-5.33301 0 -10.166 2 -14.499 6s-6.5 8.66699 -6.5 14v88c0 5.33301 2.16699 10 6.5 14s9.16602 6 14.499 6h72c5.33301 0 10.166 -2 14.499 -6s6.5 -8.66699 6.5 -14v-88zM232.997 661.998c0 -5.33301 -2.16699 -10 -6.5 -14s-9.16602 -6 -14.499 -6h-72
c-5.33301 0 -10.166 2 -14.499 6s-6.5 8.66699 -6.5 14v88c0 5.33301 2.16699 10 6.5 14s9.16602 6 14.499 6h72c5.33301 0 10.166 -2 14.499 -6s6.5 -8.66699 6.5 -14v-88z" />
    <glyph glyph-name="aring" unicode="&#xe5;" horiz-adv-x="548" 
d="M483 20c0 -5.33301 -2.00195 -10.002 -6.00195 -14.002s-8.66699 -6 -14 -6h-85c-5.33301 0 -10 2 -14 6s-6 8.66699 -6 14v16c-23.333 -14 -46.666 -24.833 -69.999 -32.5s-47 -11.5 -71 -11.5c-20.667 0 -41.334 2.33301 -62.001 7s-39.167 13.334 -55.5 26.001
s-29.666 29.667 -39.999 51s-15.5 49 -15.5 83v4c0 28.667 4.5 53.667 13.5 75s23.333 39.333 43 54s45 25.667 76 33s68.167 11 111.5 11h63v44c0 32.667 -7.16699 54.334 -21.5 65.001s-36.5 16 -66.5 16c-32 0 -63 -0.833008 -93 -2.5s-53.333 -3.5 -70 -5.5h-5
c-5.33301 0 -9.66602 1 -12.999 3s-5 6.66699 -5 14v64c0 11.333 6.33301 18.333 19 21c20 4 44.167 7.66699 72.5 11s59.833 5 94.5 5c71.333 0 125.833 -15.667 163.5 -47s56.5 -79.333 56.5 -144v-360zM350.998 247.998h-63.001c-22.667 0 -41.167 -1.83301 -55.5 -5.5
s-25.666 -9 -33.999 -16s-14 -15.833 -17 -26.5s-4.5 -23 -4.5 -37v-4c0 -24.667 5.66699 -41.167 17 -49.5s29.666 -12.5 54.999 -12.5c18 0 35.833 2.66699 53.5 8s33.834 12 48.501 20v123zM384.997 730.998c0 -15.333 -2.83301 -29.666 -8.5 -42.999
s-13.5 -25 -23.5 -35s-21.667 -17.833 -35 -23.5s-27.666 -8.5 -42.999 -8.5s-29.666 2.83301 -42.999 8.5s-25 13.5 -35 23.5s-18 21.667 -24 35s-9 27.666 -9 42.999s3 29.666 9 42.999s14 25 24 35s21.667 18 35 24s27.666 9 42.999 9s29.666 -3 42.999 -9s25 -14 35 -24
s17.833 -21.667 23.5 -35s8.5 -27.666 8.5 -42.999zM322.997 731.998c0 13.333 -4.66699 24.5 -14 33.5s-20.666 13.5 -33.999 13.5s-24.333 -4.5 -33 -13.5s-13 -20.167 -13 -33.5s4.33301 -24.666 13 -33.999s19.667 -14 33 -14s24.666 4.66699 33.999 14
s14 20.666 14 33.999z" />
    <glyph glyph-name="ae" unicode="&#xe6;" horiz-adv-x="870" 
d="M819 268c0 -5.33301 -2.16699 -9.99902 -6.5 -13.999s-9.16602 -6 -14.499 -6h-314v-41c0 -38 10.833 -64.833 32.5 -80.5s54.5 -23.5 98.5 -23.5c8.66699 0 20.334 0.333008 35.001 1l46 2c16 0.666992 31.5 1.5 46.5 2.5s27.5 2.16699 37.5 3.5h1h3
c11.333 0 17 -5.33301 17 -16v-56c0 -7.33301 -1.33301 -12.666 -4 -15.999s-7.66699 -6 -15 -8c-13.333 -4 -28 -7.5 -44 -10.5s-32.333 -5.5 -49 -7.5s-33.167 -3.5 -49.5 -4.5s-31.5 -1.5 -45.5 -1.5c-32.667 0 -62.834 4.5 -90.501 13.5s-50.167 22.5 -67.5 40.5
c-25.333 -18.667 -54 -32.334 -86 -41.001s-64.667 -13 -98 -13c-28.667 0 -55.5 3.33301 -80.5 10s-46.833 17 -65.5 31s-33.334 32.167 -44.001 54.5s-16 49.166 -16 80.499v11c0 57.333 21.5 97.833 64.5 121.5s106.5 35.5 190.5 35.5h51v27
c0 37.333 -7.83301 62.833 -23.5 76.5s-38.5 20.5 -68.5 20.5c-15.333 0 -30.833 -0.166992 -46.5 -0.5s-30.5 -0.833008 -44.5 -1.5s-26.833 -1.33398 -38.5 -2.00098s-20.834 -1.33398 -27.501 -2.00098h-1h-2c-11.333 0 -17 5.66699 -17 17v60c0 12 6.66699 19.667 20 23
c18 4 41.167 7.83301 69.5 11.5s57.5 5.5 87.5 5.5c38.667 0 72 -5.66699 100 -17s50.667 -27.666 68 -48.999c18.667 20.667 41 36.834 67 48.501s57.333 17.5 94 17.5c40.667 0 75.5 -6 104.5 -18s52.833 -28.5 71.5 -49.5s32.334 -46 41.001 -75s13 -60.5 13 -94.5v-66z
M691 358.001c0 14.667 -1.83398 28.667 -5.50098 42s-9.66699 25 -18 35s-19 18 -32 24s-28.833 9 -47.5 9c-18 0 -33.667 -3 -47 -9s-24.166 -14 -32.499 -24s-14.5 -21.667 -18.5 -35s-6 -27.333 -6 -42v-34h207v34zM355.999 261.001h-55
c-45.333 0 -78 -6.16699 -98 -18.5s-30 -33.5 -30 -63.5v-11c0 -30 8.16699 -49.667 24.5 -59s37.833 -14 64.5 -14c16 0 32.167 1 48.5 3s31.5 5.66699 45.5 11v152z" />
    <glyph glyph-name="ccedilla" unicode="&#xe7;" horiz-adv-x="468" 
d="M423 31c0 -8 -1.33301 -13.8311 -4 -17.498s-8.33398 -6.5 -17.001 -8.5c-11.333 -3.33301 -28 -6.33301 -50 -9s-48.333 -4 -79 -4c-32.667 0 -62.834 5 -90.501 15s-51.667 25.167 -72 45.5s-36.333 45.666 -48 75.999s-17.5 65.833 -17.5 106.5v93
c0 40.667 5.83301 76.167 17.5 106.5s27.667 55.666 48 75.999s44.333 35.5 72 45.5s57.834 15 90.501 15c30.667 0 57 -1.33301 79 -4s38.667 -5.66699 50 -9c8.66699 -2 14.334 -4.83301 17.001 -8.5s4 -9.5 4 -17.5v-65c0 -5.33301 -1.66699 -9.16602 -5 -11.499
s-7.66602 -3.5 -12.999 -3.5h-3c-10 1.33301 -19.333 2.5 -28 3.5s-17.667 1.66699 -27 2s-20 0.666016 -32 0.999023s-26 0.5 -42 0.5c-12 0 -23.667 -2 -35 -6s-21.5 -10.833 -30.5 -20.5s-16.333 -23 -22 -40s-8.5 -38.5 -8.5 -64.5v-93c0 -26 2.83301 -47.5 8.5 -64.5
s13 -30.333 22 -40s19.167 -16.5 30.5 -20.5s23 -6 35 -6c16 0 30 0.166992 42 0.5s22.667 0.666016 32 0.999023s18.333 1 27 2s18 2.16699 28 3.5h3c5.33301 0 9.66602 -1.16699 12.999 -3.5s5 -6.16602 5 -11.499v-65zM336 -40.998
c0 -2.66699 -1.33301 -5.33203 -4 -7.99902l-119 -123c-4 -4.66699 -7.33301 -8.16699 -10 -10.5s-7 -3.5 -13 -3.5h-86c-6 0 -9 2.33301 -9 7c0 4 1.33301 7.33301 4 10l94 120c4.66699 5.33301 8.5 9.16602 11.5 11.499s7.83301 3.5 14.5 3.5h106
c7.33301 0 11 -2.33301 11 -7z" />
    <glyph glyph-name="egrave" unicode="&#xe8;" horiz-adv-x="574" 
d="M526 261c0 -16.667 -6.66797 -25 -20.001 -25h-326v-3c0 -14.667 1.66699 -29.5 5 -44.5s9.5 -28.667 18.5 -41s21.333 -22.333 37 -30s35.5 -11.5 59.5 -11.5c36.667 0 71.167 1.16699 103.5 3.5s59.166 4.5 80.499 6.5h3c5.33301 0 9.66602 -1.16699 12.999 -3.5
s5 -6.16602 5 -11.499v-66c0 -8 -1.16699 -14 -3.5 -18s-8.16602 -6.66699 -17.499 -8c-16 -3.33301 -31 -6 -45 -8s-28.167 -3.66699 -42.5 -5s-30 -2.33301 -47 -3s-36.833 -1 -59.5 -1c-25.333 0 -52.166 3.83301 -80.499 11.5s-54.5 21 -78.5 40
s-43.833 44.667 -59.5 77s-23.5 73.166 -23.5 122.499v74c0 38.667 5.33301 73.667 16 105s26.167 58 46.5 80s45.5 39 75.5 51s64 18 102 18c38.667 0 72.834 -6.16699 102.501 -18.5s54.5 -29.833 74.5 -52.5s35.167 -49.5 45.5 -80.5s15.5 -65.167 15.5 -102.5v-56z
M392.999 334c0 39.333 -9.66797 69.667 -29.001 91s-44.666 32 -75.999 32s-57 -10.5 -77 -31.5s-30 -51.5 -30 -91.5v-4h212v4zM351.998 634.001c0 -4.66699 -3 -7.00195 -9 -7.00195h-86c-6 0 -10.333 1 -13 3s-6 5.33301 -10 10l-119 124
c-2.66699 2.66699 -4 5.33398 -4 8.00098c0 4.66699 3.66699 7 11 7h106c6.66699 0 11.5 -1.16699 14.5 -3.5s6.83301 -6.16602 11.5 -11.499l94 -120c2.66699 -2.66699 4 -6 4 -10z" />
    <glyph glyph-name="eacute" unicode="&#xe9;" horiz-adv-x="574" 
d="M526 261c0 -16.667 -6.66797 -25 -20.001 -25h-326v-3c0 -14.667 1.66699 -29.5 5 -44.5s9.5 -28.667 18.5 -41s21.333 -22.333 37 -30s35.5 -11.5 59.5 -11.5c36.667 0 71.167 1.16699 103.5 3.5s59.166 4.5 80.499 6.5h3c5.33301 0 9.66602 -1.16699 12.999 -3.5
s5 -6.16602 5 -11.499v-66c0 -8 -1.16699 -14 -3.5 -18s-8.16602 -6.66699 -17.499 -8c-16 -3.33301 -31 -6 -45 -8s-28.167 -3.66699 -42.5 -5s-30 -2.33301 -47 -3s-36.833 -1 -59.5 -1c-25.333 0 -52.166 3.83301 -80.499 11.5s-54.5 21 -78.5 40
s-43.833 44.667 -59.5 77s-23.5 73.166 -23.5 122.499v74c0 38.667 5.33301 73.667 16 105s26.167 58 46.5 80s45.5 39 75.5 51s64 18 102 18c38.667 0 72.834 -6.16699 102.501 -18.5s54.5 -29.833 74.5 -52.5s35.167 -49.5 45.5 -80.5s15.5 -65.167 15.5 -102.5v-56z
M392.999 334c0 39.333 -9.66797 69.667 -29.001 91s-44.666 32 -75.999 32s-57 -10.5 -77 -31.5s-30 -51.5 -30 -91.5v-4h212v4zM455.998 772.001c0 -2.66699 -1.33301 -5.33203 -4 -7.99902l-118 -124c-4 -4.66699 -7.5 -8 -10.5 -10s-7.5 -3 -13.5 -3h-86
c-6 0 -9 2.33301 -9 7c0 4 1.33301 7.33301 4 10l95 120c4.66699 5.33301 8.5 9.16602 11.5 11.499s7.83301 3.5 14.5 3.5h105c7.33301 0 11 -2.33301 11 -7z" />
    <glyph glyph-name="ecircumflex" unicode="&#xea;" horiz-adv-x="574" 
d="M526 261c0 -16.667 -6.66797 -25 -20.001 -25h-326v-3c0 -14.667 1.66699 -29.5 5 -44.5s9.5 -28.667 18.5 -41s21.333 -22.333 37 -30s35.5 -11.5 59.5 -11.5c36.667 0 71.167 1.16699 103.5 3.5s59.166 4.5 80.499 6.5h3c5.33301 0 9.66602 -1.16699 12.999 -3.5
s5 -6.16602 5 -11.499v-66c0 -8 -1.16699 -14 -3.5 -18s-8.16602 -6.66699 -17.499 -8c-16 -3.33301 -31 -6 -45 -8s-28.167 -3.66699 -42.5 -5s-30 -2.33301 -47 -3s-36.833 -1 -59.5 -1c-25.333 0 -52.166 3.83301 -80.499 11.5s-54.5 21 -78.5 40
s-43.833 44.667 -59.5 77s-23.5 73.166 -23.5 122.499v74c0 38.667 5.33301 73.667 16 105s26.167 58 46.5 80s45.5 39 75.5 51s64 18 102 18c38.667 0 72.834 -6.16699 102.501 -18.5s54.5 -29.833 74.5 -52.5s35.167 -49.5 45.5 -80.5s15.5 -65.167 15.5 -102.5v-56z
M392.999 334c0 39.333 -9.66797 69.667 -29.001 91s-44.666 32 -75.999 32s-57 -10.5 -77 -31.5s-30 -51.5 -30 -91.5v-4h212v4zM472.998 634.001c0 -4.66699 -3 -7 -9 -7h-83c-6 0 -10.333 1 -13 3s-6 5.33301 -10 10l-71 81l-71 -81c-4 -4.66699 -7.5 -8 -10.5 -10
s-7.5 -3 -13.5 -3h-83c-6 0 -9 2.33301 -9 7c0 4 1.33301 7.33301 4 10l92 120c4.66699 5.33301 8.5 9.16602 11.5 11.499s7.83301 3.5 14.5 3.5h130c6.66699 0 11.5 -1.16699 14.5 -3.5s6.83301 -6.16602 11.5 -11.499l91 -120c2.66699 -2.66699 4 -6 4 -10z" />
    <glyph glyph-name="edieresis" unicode="&#xeb;" horiz-adv-x="574" 
d="M526 261c0 -16.667 -6.66797 -25 -20.001 -25h-326v-3c0 -14.667 1.66699 -29.5 5 -44.5s9.5 -28.667 18.5 -41s21.333 -22.333 37 -30s35.5 -11.5 59.5 -11.5c36.667 0 71.167 1.16699 103.5 3.5s59.166 4.5 80.499 6.5h3c5.33301 0 9.66602 -1.16699 12.999 -3.5
s5 -6.16602 5 -11.499v-66c0 -8 -1.16699 -14 -3.5 -18s-8.16602 -6.66699 -17.499 -8c-16 -3.33301 -31 -6 -45 -8s-28.167 -3.66699 -42.5 -5s-30 -2.33301 -47 -3s-36.833 -1 -59.5 -1c-25.333 0 -52.166 3.83301 -80.499 11.5s-54.5 21 -78.5 40
s-43.833 44.667 -59.5 77s-23.5 73.166 -23.5 122.499v74c0 38.667 5.33301 73.667 16 105s26.167 58 46.5 80s45.5 39 75.5 51s64 18 102 18c38.667 0 72.834 -6.16699 102.501 -18.5s54.5 -29.833 74.5 -52.5s35.167 -49.5 45.5 -80.5s15.5 -65.167 15.5 -102.5v-56z
M392.999 334c0 39.333 -9.66797 69.667 -29.001 91s-44.666 32 -75.999 32s-57 -10.5 -77 -31.5s-30 -51.5 -30 -91.5v-4h212v4zM442.998 659.001c0 -5.33301 -2.16699 -10 -6.5 -14s-9.16602 -6 -14.499 -6h-72c-5.33301 0 -10.166 2 -14.499 6s-6.5 8.66699 -6.5 14v88
c0 5.33301 2.16699 10 6.5 14s9.16602 6 14.499 6h72c5.33301 0 10.166 -2 14.499 -6s6.5 -8.66699 6.5 -14v-88zM242.998 659.001c0 -5.33301 -2.16699 -10 -6.5 -14s-9.16602 -6 -14.499 -6h-72c-5.33301 0 -10.166 2 -14.499 6s-6.5 8.66699 -6.5 14v88
c0 5.33301 2.16699 10 6.5 14s9.16602 6 14.499 6h72c5.33301 0 10.166 -2 14.499 -6s6.5 -8.66699 6.5 -14v-88z" />
    <glyph glyph-name="igrave" unicode="&#xec;" horiz-adv-x="268" 
d="M212 634c0 -4.66699 -3 -7.00195 -9 -7.00195h-86c-6 0 -10.167 1 -12.5 3s-5.83301 5.33301 -10.5 10l-119 124c-2.66699 2.66699 -4 5.33398 -4 8.00098c0 4.66699 3.66699 7 11 7h106c6.66699 0 11.5 -1.16699 14.5 -3.5s6.83301 -6.16602 11.5 -11.499l94 -120
c2.66699 -2.66699 4 -6 4 -10zM200 20.998c0 -5.33301 -2 -10.166 -6 -14.499s-8.66699 -6.5 -14 -6.5h-92c-5.33301 0 -10 2.16699 -14 6.5s-6 9.16602 -6 14.499v523c0 5.33301 2 10 6 14s8.66699 6 14 6h92c5.33301 0 10 -2 14 -6s6 -8.66699 6 -14v-523z" />
    <glyph glyph-name="iacute" unicode="&#xed;" horiz-adv-x="268" 
d="M302 772c0 -2.66699 -1.33301 -5.33203 -4 -7.99902l-118 -124c-4 -4.66699 -7.5 -8 -10.5 -10s-7.5 -3 -13.5 -3h-86c-6 0 -9 2.33301 -9 7c0 4 1.33301 7.33301 4 10l95 120c4.66699 5.33301 8.5 9.16602 11.5 11.499s7.83301 3.5 14.5 3.5h105
c7.33301 0 11 -2.33301 11 -7zM201 21.002c0 -5.33301 -2.00098 -10.166 -6.00098 -14.499s-8.66699 -6.5 -14 -6.5h-92c-5.33301 0 -10.166 2.16699 -14.499 6.5s-6.5 9.16602 -6.5 14.499v523c0 5.33301 2 10 6 14s8.66699 6 14 6h92c5.33301 0 10 -2 14 -6
s6 -8.66699 6 -14v-523h1z" />
    <glyph glyph-name="icircumflex" unicode="&#xee;" horiz-adv-x="268" 
d="M200 21c0 -5.33301 -2 -10.166 -6 -14.499s-8.66699 -6.5 -14 -6.5h-92c-5.33301 0 -10 2.16699 -14 6.5s-6 9.16602 -6 14.499v523c0 5.33301 2 10 6 14s8.66699 6 14 6h92c5.33301 0 10 -2 14 -6s6 -8.66699 6 -14v-523zM321 634c0 -4.66699 -3 -7 -9 -7h-83
c-6 0 -10.333 1 -13 3s-6 5.33301 -10 10l-71 81l-71 -81c-4 -4.66699 -7.5 -8 -10.5 -10s-7.5 -3 -13.5 -3h-83c-6 0 -9 2.33301 -9 7c0 4 1.33301 7.33301 4 10l92 120c4.66699 5.33301 8.5 9.16602 11.5 11.499s7.83301 3.5 14.5 3.5h130
c6.66699 0 11.5 -1.16699 14.5 -3.5s6.83301 -6.16602 11.5 -11.499l91 -120c2.66699 -2.66699 4 -6 4 -10z" />
    <glyph glyph-name="idieresis" unicode="&#xef;" horiz-adv-x="268" 
d="M200 21c0 -5.33301 -2 -10.166 -6 -14.499s-8.66699 -6.5 -14 -6.5h-92c-5.33301 0 -10 2.16699 -14 6.5s-6 9.16602 -6 14.499v523c0 5.33301 2 10 6 14s8.66699 6 14 6h92c5.33301 0 10 -2 14 -6s6 -8.66699 6 -14v-523zM291 659c0 -5.33301 -2.16699 -10 -6.5 -14
s-9.16602 -6 -14.499 -6h-72c-5.33301 0 -10.166 2 -14.499 6s-6.5 8.66699 -6.5 14v88c0 5.33301 2.16699 10 6.5 14s9.16602 6 14.499 6h72c5.33301 0 10.166 -2 14.499 -6s6.5 -8.66699 6.5 -14v-88zM91 659c0 -5.33301 -2.16699 -10 -6.5 -14s-9.16602 -6 -14.499 -6
h-72c-5.33301 0 -10.166 2 -14.499 6s-6.5 8.66699 -6.5 14v88c0 5.33301 2.16699 10 6.5 14s9.16602 6 14.499 6h72c5.33301 0 10.166 -2 14.499 -6s6.5 -8.66699 6.5 -14v-88z" />
    <glyph glyph-name="eth" unicode="&#xf0;" horiz-adv-x="574" 
d="M526 253c0 -86.667 -20.334 -151.832 -61.001 -195.499s-99.667 -65.5 -177 -65.5c-42 0 -78 6.16699 -108 18.5s-54.833 29.666 -74.5 51.999s-34.167 49.666 -43.5 81.999s-14 68.5 -14 108.5v40c0 86 20.5 150.833 61.5 194.5s100.167 65.5 177.5 65.5
c11.333 0 23.5 -0.833008 36.5 -2.5s25.167 -5.5 36.5 -11.5c-10.667 16.667 -27 33.334 -49 50.001s-47.333 32.334 -76 47.001l-76 -58c-5.33301 -4 -9.66602 -6 -12.999 -6s-7 2 -11 6l-29 32c-2 2 -3 4.66699 -3 8c0 6 3.33301 11.333 10 16l45 34
c-17.333 6 -34.333 11 -51 15c-4 1.33301 -7.66699 3 -11 5s-5 5.33301 -5 10c0 2 0.333008 3.66699 1 5l21 58c2.66699 7.33301 7.33398 11 14.001 11c3.33301 0 6 -0.333008 8 -1l58 -16c18.667 -5.33301 36.667 -11.666 54 -18.999l85 65
c3.33301 2.66699 7.66602 4 12.999 4s9.33301 -1.66699 12 -5l29 -31c2.66699 -2.66699 4 -5.33398 4 -8.00098c0 -4 -3.33301 -8.66699 -10 -14l-59 -45c36.667 -20.667 68 -43.834 94 -69.501s47.333 -55 64 -88s28.667 -70.167 36 -111.5s11 -88 11 -140v-40z
M392.999 293.002c0 50 -8.16699 87.333 -24.5 112s-43.5 37 -81.5 37s-65.167 -12.167 -81.5 -36.5s-24.5 -61.833 -24.5 -112.5v-40c0 -50 8.33301 -87.333 25 -112s44 -37 82 -37s65 12.167 81 36.5s24 61.833 24 112.5v40z" />
    <glyph glyph-name="ntilde" unicode="&#xf1;" horiz-adv-x="592" 
d="M527 21c0 -5.33301 -2.00195 -10.167 -6.00195 -14.5s-8.66699 -6.5 -14 -6.5h-92c-5.33301 0 -10 2.16699 -14 6.5s-6 9.16602 -6 14.499v326c0 22 -0.833008 40.167 -2.5 54.5s-5.33398 25.666 -11.001 33.999s-14.167 14.333 -25.5 18s-26.666 5.5 -45.999 5.5
c-17.333 0 -35.166 -3.16699 -53.499 -9.5s-38.166 -15.166 -59.499 -26.499v-402c0 -5.33301 -2 -10.166 -6 -14.499s-8.66699 -6.5 -14 -6.5h-92c-5.33301 0 -10 2.16699 -14 6.5s-6 9.16602 -6 14.499v523c0 5.33301 2 10 6 14s8.66699 6 14 6h87c5.33301 0 10 -2 14 -6
s6 -8.66699 6 -14v-21c14.667 9.33301 28.167 17 40.5 23s24.833 10.833 37.5 14.5s25.667 6.33398 39 8.00098s28.333 2.5 45 2.5c36 0 65.333 -5.66699 88 -17s40.167 -27 52.5 -47s20.833 -43.667 25.5 -71s7 -57 7 -89v-326zM481.998 738.999
c0 -40.667 -9.83008 -69.5 -29.4971 -86.5s-46.834 -25.5 -81.501 -25.5c-11.333 0 -23.333 2 -36 6s-24 9.66699 -34 17l-44 33c-8.66699 6.66699 -16.334 11.834 -23.001 15.501s-13 5.5 -19 5.5c-8 0 -14.667 -2.33301 -20 -7s-8 -13.667 -8 -27v-21
c0 -10.667 -4.66699 -16 -14 -16h-57c-9.33301 0 -14 5.33301 -14 16v21c0 40 10 68.667 30 86s47.333 26 82 26c11.333 0 23.166 -1.83301 35.499 -5.5s23.5 -9.16699 33.5 -16.5l44 -33c17.333 -13.333 31.333 -20 42 -20c8.66699 0 15.5 2.16699 20.5 6.5
s7.5 13.166 7.5 26.499v21c0 10.667 4.66699 16 14 16h57c9.33301 0 14 -5.33301 14 -16v-22z" />
    <glyph glyph-name="ograve" unicode="&#xf2;" horiz-adv-x="574" 
d="M526 241c0 -36 -5.16699 -69.167 -15.5 -99.5s-25.5 -56.5 -45.5 -78.5s-44.833 -39.333 -74.5 -52s-64.167 -19 -103.5 -19s-73.833 6.33301 -103.5 19s-54.5 30 -74.5 52s-35.167 48.167 -45.5 78.5s-15.5 63.5 -15.5 99.5v81c0 36 5.16699 69.167 15.5 99.5
s25.5 56.5 45.5 78.5s44.833 39.333 74.5 52s64.167 19 103.5 19s73.833 -6.33301 103.5 -19s54.5 -30 74.5 -52s35.167 -48.167 45.5 -78.5s15.5 -63.5 15.5 -99.5v-81zM394 322c0 41.333 -9 74.166 -27 98.499s-44.667 36.5 -80 36.5s-62 -12.167 -80 -36.5
s-27 -57.166 -27 -98.499v-81c0 -41.333 9 -74.166 27 -98.499s44.667 -36.5 80 -36.5s62 12.167 80 36.5s27 57.166 27 98.499v81zM368 634c0 -4.66699 -3 -7.00195 -9 -7.00195h-86c-6 0 -10.333 1 -13 3s-6 5.33301 -10 10l-119 124
c-2.66699 2.66699 -4 5.33398 -4 8.00098c0 4.66699 3.66699 7 11 7h106c6.66699 0 11.5 -1.16699 14.5 -3.5s6.83301 -6.16602 11.5 -11.499l94 -120c2.66699 -2.66699 4 -6 4 -10z" />
    <glyph glyph-name="oacute" unicode="&#xf3;" horiz-adv-x="574" 
d="M526 241c0 -36 -5.16699 -69.167 -15.5 -99.5s-25.5 -56.5 -45.5 -78.5s-44.833 -39.333 -74.5 -52s-64.167 -19 -103.5 -19s-73.833 6.33301 -103.5 19s-54.5 30 -74.5 52s-35.167 48.167 -45.5 78.5s-15.5 63.5 -15.5 99.5v81c0 36 5.16699 69.167 15.5 99.5
s25.5 56.5 45.5 78.5s44.833 39.333 74.5 52s64.167 19 103.5 19s73.833 -6.33301 103.5 -19s54.5 -30 74.5 -52s35.167 -48.167 45.5 -78.5s15.5 -63.5 15.5 -99.5v-81zM394 322c0 41.333 -9 74.166 -27 98.499s-44.667 36.5 -80 36.5s-62 -12.167 -80 -36.5
s-27 -57.166 -27 -98.499v-81c0 -41.333 9 -74.166 27 -98.499s44.667 -36.5 80 -36.5s62 12.167 80 36.5s27 57.166 27 98.499v81zM441 772c0 -2.66699 -1.33301 -5.33203 -4 -7.99902l-118 -124c-4 -4.66699 -7.5 -8 -10.5 -10s-7.5 -3 -13.5 -3h-86c-6 0 -9 2.33301 -9 7
c0 4 1.33301 7.33301 4 10l95 120c4.66699 5.33301 8.5 9.16602 11.5 11.499s7.83301 3.5 14.5 3.5h105c7.33301 0 11 -2.33301 11 -7z" />
    <glyph glyph-name="ocircumflex" unicode="&#xf4;" horiz-adv-x="574" 
d="M526 241c0 -36 -5.16699 -69.167 -15.5 -99.5s-25.5 -56.5 -45.5 -78.5s-44.833 -39.333 -74.5 -52s-64.167 -19 -103.5 -19s-73.833 6.33301 -103.5 19s-54.5 30 -74.5 52s-35.167 48.167 -45.5 78.5s-15.5 63.5 -15.5 99.5v81c0 36 5.16699 69.167 15.5 99.5
s25.5 56.5 45.5 78.5s44.833 39.333 74.5 52s64.167 19 103.5 19s73.833 -6.33301 103.5 -19s54.5 -30 74.5 -52s35.167 -48.167 45.5 -78.5s15.5 -63.5 15.5 -99.5v-81zM394 322c0 41.333 -9 74.166 -27 98.499s-44.667 36.5 -80 36.5s-62 -12.167 -80 -36.5
s-27 -57.166 -27 -98.499v-81c0 -41.333 9 -74.166 27 -98.499s44.667 -36.5 80 -36.5s62 12.167 80 36.5s27 57.166 27 98.499v81zM472 634c0 -4.66699 -3 -7 -9 -7h-83c-6 0 -10.333 1 -13 3s-6 5.33301 -10 10l-71 81l-71 -81c-4 -4.66699 -7.5 -8 -10.5 -10
s-7.5 -3 -13.5 -3h-83c-6 0 -9 2.33301 -9 7c0 4 1.33301 7.33301 4 10l92 120c4.66699 5.33301 8.5 9.16602 11.5 11.499s7.83301 3.5 14.5 3.5h130c6.66699 0 11.5 -1.16699 14.5 -3.5s6.83301 -6.16602 11.5 -11.499l91 -120c2.66699 -2.66699 4 -6 4 -10z" />
    <glyph glyph-name="otilde" unicode="&#xf5;" horiz-adv-x="574" 
d="M526 241c0 -36 -5.16699 -69.167 -15.5 -99.5s-25.5 -56.5 -45.5 -78.5s-44.833 -39.333 -74.5 -52s-64.167 -19 -103.5 -19s-73.833 6.33301 -103.5 19s-54.5 30 -74.5 52s-35.167 48.167 -45.5 78.5s-15.5 63.5 -15.5 99.5v81c0 36 5.16699 69.167 15.5 99.5
s25.5 56.5 45.5 78.5s44.833 39.333 74.5 52s64.167 19 103.5 19s73.833 -6.33301 103.5 -19s54.5 -30 74.5 -52s35.167 -48.167 45.5 -78.5s15.5 -63.5 15.5 -99.5v-81zM394 322c0 41.333 -9 74.166 -27 98.499s-44.667 36.5 -80 36.5s-62 -12.167 -80 -36.5
s-27 -57.166 -27 -98.499v-81c0 -41.333 9 -74.166 27 -98.499s44.667 -36.5 80 -36.5s62 12.167 80 36.5s27 57.166 27 98.499v81zM474 739c0 -40.667 -9.83008 -69.5 -29.4971 -86.5s-46.834 -25.5 -81.501 -25.5c-11.333 0 -23.333 2 -36 6s-24 9.66699 -34 17l-44 33
c-8.66699 6.66699 -16.334 11.834 -23.001 15.501s-13 5.5 -19 5.5c-8 0 -14.667 -2.33301 -20 -7s-8 -13.667 -8 -27v-21c0 -10.667 -4.66699 -16 -14 -16h-57c-9.33301 0 -14 5.33301 -14 16v21c0 40 10 68.667 30 86s47.333 26 82 26
c11.333 0 23.166 -1.83301 35.499 -5.5s23.5 -9.16699 33.5 -16.5l44 -33c17.333 -13.333 31.333 -20 42 -20c8.66699 0 15.5 2.16699 20.5 6.5s7.5 13.166 7.5 26.499v21c0 10.667 4.66699 16 14 16h57c9.33301 0 14 -5.33301 14 -16v-22z" />
    <glyph glyph-name="odieresis" unicode="&#xf6;" horiz-adv-x="574" 
d="M526 241c0 -36 -5.16699 -69.167 -15.5 -99.5s-25.5 -56.5 -45.5 -78.5s-44.833 -39.333 -74.5 -52s-64.167 -19 -103.5 -19s-73.833 6.33301 -103.5 19s-54.5 30 -74.5 52s-35.167 48.167 -45.5 78.5s-15.5 63.5 -15.5 99.5v81c0 36 5.16699 69.167 15.5 99.5
s25.5 56.5 45.5 78.5s44.833 39.333 74.5 52s64.167 19 103.5 19s73.833 -6.33301 103.5 -19s54.5 -30 74.5 -52s35.167 -48.167 45.5 -78.5s15.5 -63.5 15.5 -99.5v-81zM394 322c0 41.333 -9 74.166 -27 98.499s-44.667 36.5 -80 36.5s-62 -12.167 -80 -36.5
s-27 -57.166 -27 -98.499v-81c0 -41.333 9 -74.166 27 -98.499s44.667 -36.5 80 -36.5s62 12.167 80 36.5s27 57.166 27 98.499v81zM442 659c0 -5.33301 -2.16699 -10 -6.5 -14s-9.16602 -6 -14.499 -6h-72c-5.33301 0 -10.166 2 -14.499 6s-6.5 8.66699 -6.5 14v88
c0 5.33301 2.16699 10 6.5 14s9.16602 6 14.499 6h72c5.33301 0 10.166 -2 14.499 -6s6.5 -8.66699 6.5 -14v-88zM242 659c0 -5.33301 -2.16699 -10 -6.5 -14s-9.16602 -6 -14.499 -6h-72c-5.33301 0 -10.166 2 -14.499 6s-6.5 8.66699 -6.5 14v88
c0 5.33301 2.16699 10 6.5 14s9.16602 6 14.499 6h72c5.33301 0 10.166 -2 14.499 -6s6.5 -8.66699 6.5 -14v-88z" />
    <glyph glyph-name="divide" unicode="&#xf7;" 
d="M380 542c0 -5.33301 -2 -10 -6 -14s-8.66699 -6 -14 -6h-90c-5.33301 0 -10 2 -14 6s-6 8.66699 -6 14v103c0 5.33301 2 9.83301 6 13.5s8.66699 5.5 14 5.5h90c5.33301 0 10 -1.83301 14 -5.5s6 -8.16699 6 -13.5v-103zM538 356c0 -5.33301 -2 -9.33301 -6 -12
s-8.66699 -4 -14 -4h-405c-5.33301 0 -10 1.33301 -14 4s-6 6.66699 -6 12v70c0 5.33301 2 9.33301 6 12s8.66699 4 14 4h405c5.33301 0 10 -1.33301 14 -4s6 -6.66699 6 -12v-70zM380 127c0 -5.33301 -2 -9.83301 -6 -13.5s-8.66699 -5.5 -14 -5.5h-90
c-5.33301 0 -10 1.83301 -14 5.5s-6 8.16699 -6 13.5v103c0 5.33301 2 10 6 14s8.66699 6 14 6h90c5.33301 0 10 -2 14 -6s6 -8.66699 6 -14v-103z" />
    <glyph glyph-name="oslash" unicode="&#xf8;" horiz-adv-x="574" 
d="M545 589c0 -4 -1.33301 -7.66797 -4 -11.001l-65 -90c16.667 -21.333 29.167 -46.166 37.5 -74.499s12.5 -58.833 12.5 -91.5v-81c0 -36 -5.16699 -69.167 -15.5 -99.5s-25.5 -56.5 -45.5 -78.5s-44.833 -39.333 -74.5 -52s-64.167 -19 -103.5 -19
c-28.667 0 -54.5 3.33301 -77.5 10s-43.833 16 -62.5 28l-40 -55c-3.33301 -4.66699 -6 -7.5 -8 -8.5s-4.66699 -1.5 -8 -1.5h-56c-5.33301 0 -8 2.66699 -8 8c0 4 1.33301 7.66699 4 11l66 92c-16.667 21.333 -29 46 -37 74s-12 58.333 -12 91v81
c0 36 5.16699 69.167 15.5 99.5s25.5 56.5 45.5 78.5s44.833 39.333 74.5 52s64.167 19 103.5 19c28 0 53.5 -3.33301 76.5 -10s43.833 -16 62.5 -28l39 54c3.33301 4.66699 6 7.5 8 8.5s4.66699 1.5 8 1.5h56c5.33301 0 8 -2.66699 8 -8zM354 432.999
c-18 16 -40.333 24 -67 24c-35.333 0 -62 -12.167 -80 -36.5s-27 -57.166 -27 -98.499v-81c0 -16.667 1.33301 -31.334 4 -44.001zM394 321.999c0 8 -0.333984 15.834 -1.00098 23.501s-1.66699 15.167 -3 22.5l-171 -238c16.667 -16 39.334 -24 68.001 -24
c35.333 0 62 12.167 80 36.5s27 57.166 27 98.499v81z" />
    <glyph glyph-name="ugrave" unicode="&#xf9;" horiz-adv-x="592" 
d="M527 20c0 -5.33301 -1.99707 -10.001 -5.99707 -14.001s-8.66699 -6 -14 -6h-92c-5.33301 0 -10 2 -14 6s-6 8.66699 -6 14v23c-26 -17.333 -50.667 -30 -74 -38s-51 -12 -83 -12c-25.333 0 -48.5 3.33301 -69.5 10s-38.833 17.334 -53.5 32.001
c-18.667 18.667 -31.667 43.167 -39 73.5s-11 66.5 -11 108.5v326c0 5.33301 2 10.166 6 14.499s8.66699 6.5 14 6.5h92c5.33301 0 10 -2.16699 14 -6.5s6 -9.16602 6 -14.499v-326c0 -25.333 1.5 -45.5 4.5 -60.5s9.16699 -26.833 18.5 -35.5
c7.33301 -6 15.666 -10.5 24.999 -13.5s21.666 -4.5 36.999 -4.5c9.33301 0 19.166 1.33301 29.499 4s20.5 6 30.5 10s19.5 8.33301 28.5 13l24.5 13v400c0 5.33301 2 10.166 6 14.499s8.66699 6.5 14 6.5h92c5.33301 0 10 -2.16699 14 -6.5s6 -9.16602 6 -14.499v-523z
M380.003 633.999c0 -4.66699 -3 -7.00195 -9 -7.00195h-86c-6 0 -10.333 1 -13 3s-6 5.33301 -10 10l-119 124c-2.66699 2.66699 -4 5.33398 -4 8.00098c0 4.66699 3.66699 7 11 7h106c6.66699 0 11.5 -1.16699 14.5 -3.5s6.83301 -6.16602 11.5 -11.499l94 -120
c2.66699 -2.66699 4 -6 4 -10z" />
    <glyph glyph-name="uacute" unicode="&#xfa;" horiz-adv-x="592" 
d="M527 20c0 -5.33301 -1.99707 -10.001 -5.99707 -14.001s-8.66699 -6 -14 -6h-92c-5.33301 0 -10 2 -14 6s-6 8.66699 -6 14v23c-26 -17.333 -50.667 -30 -74 -38s-51 -12 -83 -12c-25.333 0 -48.5 3.33301 -69.5 10s-38.833 17.334 -53.5 32.001
c-18.667 18.667 -31.667 43.167 -39 73.5s-11 66.5 -11 108.5v326c0 5.33301 2 10.166 6 14.499s8.66699 6.5 14 6.5h92c5.33301 0 10 -2.16699 14 -6.5s6 -9.16602 6 -14.499v-326c0 -25.333 1.5 -45.5 4.5 -60.5s9.16699 -26.833 18.5 -35.5
c7.33301 -6 15.666 -10.5 24.999 -13.5s21.666 -4.5 36.999 -4.5c9.33301 0 19.166 1.33301 29.499 4s20.5 6 30.5 10s19.5 8.33301 28.5 13l24.5 13v400c0 5.33301 2 10.166 6 14.499s8.66699 6.5 14 6.5h92c5.33301 0 10 -2.16699 14 -6.5s6 -9.16602 6 -14.499v-523z
M463.003 771.999c0 -2.66699 -1.33301 -5.33203 -4 -7.99902l-118 -124c-4 -4.66699 -7.5 -8 -10.5 -10s-7.5 -3 -13.5 -3h-86c-6 0 -9 2.33301 -9 7c0 4 1.33301 7.33301 4 10l95 120c4.66699 5.33301 8.5 9.16602 11.5 11.499s7.83301 3.5 14.5 3.5h105
c7.33301 0 11 -2.33301 11 -7z" />
    <glyph glyph-name="ucircumflex" unicode="&#xfb;" horiz-adv-x="592" 
d="M527 20c0 -5.33301 -1.99707 -10.001 -5.99707 -14.001s-8.66699 -6 -14 -6h-92c-5.33301 0 -10 2 -14 6s-6 8.66699 -6 14v23c-26 -17.333 -50.667 -30 -74 -38s-51 -12 -83 -12c-25.333 0 -48.5 3.33301 -69.5 10s-38.833 17.334 -53.5 32.001
c-18.667 18.667 -31.667 43.167 -39 73.5s-11 66.5 -11 108.5v326c0 5.33301 2 10.166 6 14.499s8.66699 6.5 14 6.5h92c5.33301 0 10 -2.16699 14 -6.5s6 -9.16602 6 -14.499v-326c0 -25.333 1.5 -45.5 4.5 -60.5s9.16699 -26.833 18.5 -35.5
c7.33301 -6 15.666 -10.5 24.999 -13.5s21.666 -4.5 36.999 -4.5c9.33301 0 19.166 1.33301 29.499 4s20.5 6 30.5 10s19.5 8.33301 28.5 13l24.5 13v400c0 5.33301 2 10.166 6 14.499s8.66699 6.5 14 6.5h92c5.33301 0 10 -2.16699 14 -6.5s6 -9.16602 6 -14.499v-523z
M481.003 633.999c0 -4.66699 -3 -7 -9 -7h-83c-6 0 -10.333 1 -13 3s-6 5.33301 -10 10l-71 81l-71 -81c-4 -4.66699 -7.5 -8 -10.5 -10s-7.5 -3 -13.5 -3h-83c-6 0 -9 2.33301 -9 7c0 4 1.33301 7.33301 4 10l92 120c4.66699 5.33301 8.5 9.16602 11.5 11.499
s7.83301 3.5 14.5 3.5h130c6.66699 0 11.5 -1.16699 14.5 -3.5s6.83301 -6.16602 11.5 -11.499l91 -120c2.66699 -2.66699 4 -6 4 -10z" />
    <glyph glyph-name="udieresis" unicode="&#xfc;" horiz-adv-x="592" 
d="M527 20c0 -5.33301 -1.99707 -10.001 -5.99707 -14.001s-8.66699 -6 -14 -6h-92c-5.33301 0 -10 2 -14 6s-6 8.66699 -6 14v23c-26 -17.333 -50.667 -30 -74 -38s-51 -12 -83 -12c-25.333 0 -48.5 3.33301 -69.5 10s-38.833 17.334 -53.5 32.001
c-18.667 18.667 -31.667 43.167 -39 73.5s-11 66.5 -11 108.5v326c0 5.33301 2 10.166 6 14.499s8.66699 6.5 14 6.5h92c5.33301 0 10 -2.16699 14 -6.5s6 -9.16602 6 -14.499v-326c0 -25.333 1.5 -45.5 4.5 -60.5s9.16699 -26.833 18.5 -35.5
c7.33301 -6 15.666 -10.5 24.999 -13.5s21.666 -4.5 36.999 -4.5c9.33301 0 19.166 1.33301 29.499 4s20.5 6 30.5 10s19.5 8.33301 28.5 13l24.5 13v400c0 5.33301 2 10.166 6 14.499s8.66699 6.5 14 6.5h92c5.33301 0 10 -2.16699 14 -6.5s6 -9.16602 6 -14.499v-523z
M458.003 658.999c0 -5.33301 -2.16699 -10 -6.5 -14s-9.16602 -6 -14.499 -6h-72c-5.33301 0 -10.166 2 -14.499 6s-6.5 8.66699 -6.5 14v88c0 5.33301 2.16699 10 6.5 14s9.16602 6 14.499 6h72c5.33301 0 10.166 -2 14.499 -6s6.5 -8.66699 6.5 -14v-88zM258.003 658.999
c0 -5.33301 -2.16699 -10 -6.5 -14s-9.16602 -6 -14.499 -6h-72c-5.33301 0 -10.166 2 -14.499 6s-6.5 8.66699 -6.5 14v88c0 5.33301 2.16699 10 6.5 14s9.16602 6 14.499 6h72c5.33301 0 10.166 -2 14.499 -6s6.5 -8.66699 6.5 -14v-88z" />
    <glyph glyph-name="yacute" unicode="&#xfd;" horiz-adv-x="560" 
d="M535 547c0 -2.66699 -0.329102 -4.66211 -0.996094 -5.99512l-167 -584c-8 -27.333 -16.667 -50.833 -26 -70.5s-21.5 -36 -36.5 -49s-33.833 -22.5 -56.5 -28.5s-51 -9 -85 -9c-8 0 -17 0.333008 -27 1s-19.833 1.66699 -29.5 3s-18.834 2.66602 -27.501 3.99902
s-16 3 -22 5c-5.33301 1.33301 -10.166 3.16602 -14.499 5.49902s-6.5 6.16602 -6.5 11.499v64c0 5.33301 2 9.66602 6 12.999s8.66699 5 14 5h2c6.66699 0 15.167 -0.333008 25.5 -1l31 -2l30.5 -2c10 -0.666992 18.667 -1 26 -1c21.333 0 38 4.16699 50 12.5
s21.667 25.5 29 51.5l8 30h-15c-7.33301 0 -15 0.833008 -23 2.5s-15.833 5.16699 -23.5 10.5s-15 13.5 -22 24.5s-13.167 26.167 -18.5 45.5l-131 458c-0.666992 2 -1 4.33301 -1 7c0 10.667 6.33301 16 19 16h101c4.66699 0 8.66699 -1.83301 12 -5.5
s5.66602 -7.83398 6.99902 -12.501l101 -407c2 -8.66699 4 -14.5 6 -17.5s4.66699 -4.5 8 -4.5h1h5h3l108 430c1.33301 4.66699 3.66602 8.66699 6.99902 12s7.66602 5 12.999 5h102c5.33301 0 9.66602 -1.66699 12.999 -5s5 -7.33301 5 -12zM471.004 772.005
c0 -2.66699 -1.33301 -5.33203 -4 -7.99902l-118 -124c-4 -4.66699 -7.5 -8 -10.5 -10s-7.5 -3 -13.5 -3h-86c-6 0 -9 2.33301 -9 7c0 4 1.33301 7.33301 4 10l95 120c4.66699 5.33301 8.5 9.16602 11.5 11.499s7.83301 3.5 14.5 3.5h105c7.33301 0 11 -2.33301 11 -7z" />
    <glyph glyph-name="thorn" unicode="&#xfe;" horiz-adv-x="577" 
d="M532 245c0 -78 -19.5 -139.667 -58.5 -185s-97.833 -68 -176.5 -68c-6 0 -13.333 0.166992 -22 0.5s-17.667 0.833008 -27 1.5s-18.5 1.5 -27.5 2.5s-16.833 2.16699 -23.5 3.5v-178c0 -5.33301 -1.66699 -10 -5 -14s-7.66602 -6 -12.999 -6h-94c-5.33301 0 -10 2 -14 6
s-6 8.66699 -6 14v919c0 5.33301 1.83301 10 5.5 14s8.16699 6 13.5 6h95c5.33301 0 9.66602 -2 12.999 -6s5 -8.66699 5 -14v-177c15.333 2 31.833 3.66699 49.5 5s34.5 2 50.5 2c76.667 0 135 -22.167 175 -66.5s60 -106.833 60 -187.5v-72zM400 317
c0 29.333 -2.66797 53.332 -8.00098 71.999s-13.166 33.5 -23.499 44.5s-22.833 18.667 -37.5 23s-31 6.5 -49 6.5c-12.667 0 -26.167 -0.833008 -40.5 -2.5s-29.166 -3.5 -44.499 -5.5v-347c15.333 -2.66699 30.666 -4.66699 45.999 -6s29.333 -2 42 -2
c18 0 34.167 2.16699 48.5 6.5s26.5 12 36.5 23s17.5 25.833 22.5 44.5s7.5 42.334 7.5 71.001v72z" />
    <glyph glyph-name="ydieresis" unicode="&#xff;" horiz-adv-x="560" 
d="M535 547c0 -2.66699 -0.329102 -4.66211 -0.996094 -5.99512l-167 -584c-8 -27.333 -16.667 -50.833 -26 -70.5s-21.5 -36 -36.5 -49s-33.833 -22.5 -56.5 -28.5s-51 -9 -85 -9c-8 0 -17 0.333008 -27 1s-19.833 1.66699 -29.5 3s-18.834 2.66602 -27.501 3.99902
s-16 3 -22 5c-5.33301 1.33301 -10.166 3.16602 -14.499 5.49902s-6.5 6.16602 -6.5 11.499v64c0 5.33301 2 9.66602 6 12.999s8.66699 5 14 5h2c6.66699 0 15.167 -0.333008 25.5 -1l31 -2l30.5 -2c10 -0.666992 18.667 -1 26 -1c21.333 0 38 4.16699 50 12.5
s21.667 25.5 29 51.5l8 30h-15c-7.33301 0 -15 0.833008 -23 2.5s-15.833 5.16699 -23.5 10.5s-15 13.5 -22 24.5s-13.167 26.167 -18.5 45.5l-131 458c-0.666992 2 -1 4.33301 -1 7c0 10.667 6.33301 16 19 16h101c4.66699 0 8.66699 -1.83301 12 -5.5
s5.66602 -7.83398 6.99902 -12.501l101 -407c2 -8.66699 4 -14.5 6 -17.5s4.66699 -4.5 8 -4.5h1h5h3l108 430c1.33301 4.66699 3.66602 8.66699 6.99902 12s7.66602 5 12.999 5h102c5.33301 0 9.66602 -1.66699 12.999 -5s5 -7.33301 5 -12zM443.004 659.005
c0 -5.33301 -2.16699 -10 -6.5 -14s-9.16602 -6 -14.499 -6h-72c-5.33301 0 -10.166 2 -14.499 6s-6.5 8.66699 -6.5 14v88c0 5.33301 2.16699 10 6.5 14s9.16602 6 14.499 6h72c5.33301 0 10.166 -2 14.499 -6s6.5 -8.66699 6.5 -14v-88zM243.004 659.005
c0 -5.33301 -2.16699 -10 -6.5 -14s-9.16602 -6 -14.499 -6h-72c-5.33301 0 -10.166 2 -14.499 6s-6.5 8.66699 -6.5 14v88c0 5.33301 2.16699 10 6.5 14s9.16602 6 14.499 6h72c5.33301 0 10.166 -2 14.499 -6s6.5 -8.66699 6.5 -14v-88z" />
    <glyph glyph-name="Amacron" unicode="&#x100;" horiz-adv-x="646" 
d="M627 17c0 -5.33301 -1.67285 -9.5 -5.00586 -12.5s-7.66602 -4.5 -12.999 -4.5h-106c-4.66699 0 -8.66699 1.66699 -12 5s-5.66602 7.33301 -6.99902 12l-46 190h-230l-46 -190c-1.33301 -4.66699 -3.66602 -8.66699 -6.99902 -12s-7.33301 -5 -12 -5h-106
c-5.33301 0 -9.66602 1.5 -12.999 4.5s-5 7.16699 -5 12.5c0 0.666992 0.166992 1.33398 0.5 2.00098s0.5 1.66699 0.5 3l164 627c6 23.333 14.667 41.666 26 54.999s23.5 23.5 36.5 30.5s26.333 11.5 40 13.5s25.834 3 36.501 3s22.834 -1 36.501 -3s27 -6.5 40 -13.5
s25.167 -17.167 36.5 -30.5s20 -31.666 26 -54.999l164 -627c0 -1.33301 0.166992 -2.33301 0.5 -3s0.5 -1.33398 0.5 -2.00098zM338.994 618c-1.33301 6 -3 10.167 -5 12.5s-5.66699 3.5 -11 3.5s-9 -1.16699 -11 -3.5s-3.66699 -6.5 -5 -12.5l-72 -297h176zM494.994 847
c0 -5.33301 -2 -9.66602 -6 -12.999s-8.66699 -5 -14 -5h-310c-5.33301 0 -10 1.66699 -14 5s-6 7.66602 -6 12.999v57c0 5.33301 2 9.66602 6 12.999s8.66699 5 14 5h310c5.33301 0 10 -1.66699 14 -5s6 -7.66602 6 -12.999v-57z" />
    <glyph glyph-name="amacron" unicode="&#x101;" horiz-adv-x="548" 
d="M483 20c0 -5.33301 -2.00195 -10.002 -6.00195 -14.002s-8.66699 -6 -14 -6h-85c-5.33301 0 -10 2 -14 6s-6 8.66699 -6 14v16c-23.333 -14 -46.666 -24.833 -69.999 -32.5s-47 -11.5 -71 -11.5c-20.667 0 -41.334 2.33301 -62.001 7s-39.167 13.334 -55.5 26.001
s-29.666 29.667 -39.999 51s-15.5 49 -15.5 83v4c0 28.667 4.5 53.667 13.5 75s23.333 39.333 43 54s45 25.667 76 33s68.167 11 111.5 11h63v44c0 32.667 -7.16699 54.334 -21.5 65.001s-36.5 16 -66.5 16c-32 0 -63 -0.833008 -93 -2.5s-53.333 -3.5 -70 -5.5h-5
c-5.33301 0 -9.66602 1 -12.999 3s-5 6.66699 -5 14v64c0 11.333 6.33301 18.333 19 21c20 4 44.167 7.66699 72.5 11s59.833 5 94.5 5c71.333 0 125.833 -15.667 163.5 -47s56.5 -79.333 56.5 -144v-360zM350.998 247.998h-63.001c-22.667 0 -41.167 -1.83301 -55.5 -5.5
s-25.666 -9 -33.999 -16s-14 -15.833 -17 -26.5s-4.5 -23 -4.5 -37v-4c0 -24.667 5.66699 -41.167 17 -49.5s29.666 -12.5 54.999 -12.5c18 0 35.833 2.66699 53.5 8s33.834 12 48.501 20v123zM448.997 679.998c0 -5.33301 -2 -9.66602 -6 -12.999s-8.66699 -5 -14 -5h-310
c-5.33301 0 -10 1.66699 -14 5s-6 7.66602 -6 12.999v57c0 5.33301 2 9.66602 6 12.999s8.66699 5 14 5h310c5.33301 0 10 -1.66699 14 -5s6 -7.66602 6 -12.999v-57z" />
    <glyph glyph-name="Abreve" unicode="&#x102;" horiz-adv-x="646" 
d="M627 17c0 -5.33301 -1.67285 -9.5 -5.00586 -12.5s-7.66602 -4.5 -12.999 -4.5h-106c-4.66699 0 -8.66699 1.66699 -12 5s-5.66602 7.33301 -6.99902 12l-46 190h-230l-46 -190c-1.33301 -4.66699 -3.66602 -8.66699 -6.99902 -12s-7.33301 -5 -12 -5h-106
c-5.33301 0 -9.66602 1.5 -12.999 4.5s-5 7.16699 -5 12.5c0 0.666992 0.166992 1.33398 0.5 2.00098s0.5 1.66699 0.5 3l164 627c6 23.333 14.667 41.666 26 54.999s23.5 23.5 36.5 30.5s26.333 11.5 40 13.5s25.834 3 36.501 3s22.834 -1 36.501 -3s27 -6.5 40 -13.5
s25.167 -17.167 36.5 -30.5s20 -31.666 26 -54.999l164 -627c0 -1.33301 0.166992 -2.33301 0.5 -3s0.5 -1.33398 0.5 -2.00098zM338.994 618c-1.33301 6 -3 10.167 -5 12.5s-5.66699 3.5 -11 3.5s-9 -1.16699 -11 -3.5s-3.66699 -6.5 -5 -12.5l-72 -297h176zM497.994 939
c0 -0.666992 -0.167969 -1.16699 -0.500977 -1.5s-0.5 -1.16602 -0.5 -2.49902c-4 -19.333 -10.5 -37.666 -19.5 -54.999s-20.667 -32.666 -35 -45.999s-31.666 -24 -51.999 -32s-43.833 -12 -70.5 -12c-27.333 0 -51 4 -71 12s-37.167 18.667 -51.5 32
s-26 28.666 -35 45.999s-15.5 35.666 -19.5 54.999c0 1.33301 -0.166992 2.16602 -0.5 2.49902s-0.5 0.833008 -0.5 1.5c0 4.66699 3.33301 7 10 7h75c6.66699 0 11 -4 13 -12c6 -23.333 16.167 -40.166 30.5 -50.499s30.833 -15.5 49.5 -15.5s35.167 5.16699 49.5 15.5
s24.5 27.166 30.5 50.499c2 8 6.33301 12 13 12h75c6.66699 0 10 -2.33301 10 -7z" />
    <glyph glyph-name="abreve" unicode="&#x103;" horiz-adv-x="548" 
d="M483 20c0 -5.33301 -2.00195 -10.002 -6.00195 -14.002s-8.66699 -6 -14 -6h-85c-5.33301 0 -10 2 -14 6s-6 8.66699 -6 14v16c-23.333 -14 -46.666 -24.833 -69.999 -32.5s-47 -11.5 -71 -11.5c-20.667 0 -41.334 2.33301 -62.001 7s-39.167 13.334 -55.5 26.001
s-29.666 29.667 -39.999 51s-15.5 49 -15.5 83v4c0 28.667 4.5 53.667 13.5 75s23.333 39.333 43 54s45 25.667 76 33s68.167 11 111.5 11h63v44c0 32.667 -7.16699 54.334 -21.5 65.001s-36.5 16 -66.5 16c-32 0 -63 -0.833008 -93 -2.5s-53.333 -3.5 -70 -5.5h-5
c-5.33301 0 -9.66602 1 -12.999 3s-5 6.66699 -5 14v64c0 11.333 6.33301 18.333 19 21c20 4 44.167 7.66699 72.5 11s59.833 5 94.5 5c71.333 0 125.833 -15.667 163.5 -47s56.5 -79.333 56.5 -144v-360zM350.998 247.998h-63.001c-22.667 0 -41.167 -1.83301 -55.5 -5.5
s-25.666 -9 -33.999 -16s-14 -15.833 -17 -26.5s-4.5 -23 -4.5 -37v-4c0 -24.667 5.66699 -41.167 17 -49.5s29.666 -12.5 54.999 -12.5c18 0 35.833 2.66699 53.5 8s33.834 12 48.501 20v123zM451.997 771.998c0 -0.666992 -0.167969 -1.16699 -0.500977 -1.5
s-0.5 -1.16602 -0.5 -2.49902c-4 -19.333 -10.5 -37.666 -19.5 -54.999s-20.667 -32.666 -35 -45.999s-31.666 -24 -51.999 -32s-43.833 -12 -70.5 -12c-27.333 0 -51 4 -71 12s-37.167 18.667 -51.5 32s-26 28.666 -35 45.999s-15.5 35.666 -19.5 54.999
c0 1.33301 -0.166992 2.16602 -0.5 2.49902s-0.5 0.833008 -0.5 1.5c0 4.66699 3.33301 7 10 7h75c6.66699 0 11 -4 13 -12c6 -23.333 16.167 -40.166 30.5 -50.499s30.833 -15.5 49.5 -15.5s35.167 5.16699 49.5 15.5s24.5 27.166 30.5 50.499c2 8 6.33301 12 13 12h75
c6.66699 0 10 -2.33301 10 -7z" />
    <glyph glyph-name="Aogonek" unicode="&#x104;" horiz-adv-x="646" 
d="M339 618c-1.33301 6 -3 10.167 -5 12.5s-5.66699 3.5 -11 3.5s-9 -1.16699 -11 -3.5s-3.66699 -6.5 -5 -12.5l-72 -297h176zM438 207l-230.005 -0.000976562l-46 -190c-1.33301 -4.66699 -3.66602 -8.66699 -6.99902 -12s-7.33301 -5 -12 -5h-106
c-5.33301 0 -9.66602 1.5 -12.999 4.5s-5 7.16699 -5 12.5c0 0.666992 0.166992 1.33398 0.5 2.00098s0.5 1.66699 0.5 3l164 627c6 23.333 14.667 41.666 26 54.999s23.5 23.5 36.5 30.5s26.333 11.5 40 13.5s25.834 3 36.501 3s22.834 -1 36.501 -3s27 -6.5 40 -13.5
s25.167 -17.167 36.5 -30.5s20 -31.666 26 -54.999l164 -627c1.33301 -3.33301 1.66602 -6.5 0.999023 -9.5s-2.66699 -5.83301 -6 -8.5l-51 -34c-11.333 -7.33301 -20.666 -13.666 -27.999 -18.999s-13.166 -10 -17.499 -14s-7.33301 -7.83301 -9 -11.5
s-2.5 -7.5 -2.5 -11.5c0 -12.667 11.333 -19 34 -19c7.33301 0 14.833 0.5 22.5 1.5l22 3c7 1 13 2 18 3s8.5 1.5 10.5 1.5c4.66699 0 7.5 -0.666992 8.5 -2s1.5 -4.66602 1.5 -9.99902v-57v-1c0 -3.33301 -0.5 -6 -1.5 -8s-4.16699 -4.33301 -9.5 -7
c-7.33301 -3.33301 -19.333 -7.5 -36 -12.5s-39 -7.5 -67 -7.5c-16 0 -31.667 2 -47 6s-29 9.83301 -41 17.5s-21.5 17.167 -28.5 28.5s-10.5 24.666 -10.5 39.999c0 14.667 1.66699 27.167 5 37.5s8.5 19.666 15.5 27.999s16.167 16.333 27.5 24l40 26.5l8 5z" />
    <glyph glyph-name="aogonek" unicode="&#x105;" horiz-adv-x="548" 
d="M483 20c0 -2.66699 -0.333984 -5.50293 -1.00098 -8.50293s-2.66699 -5.5 -6 -7.5l-51 -34l-30.5 -21c-7.66699 -5.33301 -13.5 -9.83301 -17.5 -13.5s-6.5 -7.16699 -7.5 -10.5s-1.5 -7 -1.5 -11c0 -12.667 8.33301 -19 25 -19c19.333 0 37 1.5 53 4.5
s25.667 4.5 29 4.5c4.66699 0 7.5 -0.666992 8.5 -2s1.5 -4.66602 1.5 -9.99902v-58c0 -3.33301 -0.5 -6 -1.5 -8s-4.16699 -4.33301 -9.5 -7c-7.33301 -3.33301 -19.333 -7.5 -36 -12.5s-39 -7.5 -67 -7.5c-16 0 -31.667 1.16699 -47 3.5s-29 6.5 -41 12.5
s-21.5 14.5 -28.5 25.5s-10.5 25.167 -10.5 42.5c0 11.333 1 21.5 3 30.5s5.83301 17.667 11.5 26s13.667 17 24 26s24.166 19.167 41.499 30.5l34 23v17c-23.333 -14 -46.666 -24.833 -69.999 -32.5s-47 -11.5 -71 -11.5c-20.667 0 -41.334 2.33301 -62.001 7
s-39.167 13.334 -55.5 26.001s-29.666 29.667 -39.999 51s-15.5 49 -15.5 83v4c0 28.667 4.5 53.667 13.5 75s23.333 39.333 43 54s45 25.667 76 33s68.167 11 111.5 11h63v44c0 32.667 -7.16699 54.334 -21.5 65.001s-36.5 16 -66.5 16c-32 0 -63 -0.833008 -93 -2.5
s-53.333 -3.5 -70 -5.5h-5c-5.33301 0 -9.66602 1 -12.999 3s-5 6.66699 -5 14v64c0 11.333 6.33301 18.333 19 21c20 4 44.167 7.66699 72.5 11s59.833 5 94.5 5c71.333 0 125.833 -15.667 163.5 -47s56.5 -79.333 56.5 -144v-355v-5zM350.999 247.997h-63.001
c-22.667 0 -41.167 -1.83301 -55.5 -5.5s-25.666 -9 -33.999 -16s-14 -15.833 -17 -26.5s-4.5 -23 -4.5 -37v-4c0 -24.667 5.66699 -41.167 17 -49.5s29.666 -12.5 54.999 -12.5c18 0 35.833 2.66699 53.5 8s33.834 12 48.501 20v123z" />
    <glyph glyph-name="Cacute" unicode="&#x106;" horiz-adv-x="563" 
d="M518 31c0 -7.33301 -2 -12.502 -6 -15.502s-9.33301 -5.5 -16 -7.5c-4 -1.33301 -10.833 -2.83301 -20.5 -4.5s-21.5 -3.33398 -35.5 -5.00098s-29.667 -3.16699 -47 -4.5s-35.666 -2 -54.999 -2c-30 0 -61.667 4.33301 -95 13s-63.833 24.5 -91.5 47.5
s-50.667 54.167 -69 93.5s-27.5 90 -27.5 152v147c0 62.667 9.16699 113.834 27.5 153.501s41.333 70.834 69 93.501s58.167 38.167 91.5 46.5s65 12.5 95 12.5c19.333 0 37.666 -0.666992 54.999 -2s33 -2.83301 47 -4.5s25.833 -3.5 35.5 -5.5s16.5 -3.33301 20.5 -4
c6.66699 -2 12 -4.5 16 -7.5s6 -8.16699 6 -15.5v-67c0 -6 -1.5 -11 -4.5 -15s-8.16699 -6 -15.5 -6h-2l-31.5 2.5c-12.333 1 -25.5 1.83301 -39.5 2.5l-43 2c-14.667 0.666992 -28.667 1 -42 1c-21.333 0 -40.833 -3.16699 -58.5 -9.5s-32.834 -16.666 -45.501 -30.999
s-22.667 -33.5 -30 -57.5s-11 -53.667 -11 -89v-147c0 -34.667 3.66699 -64 11 -88s17.333 -43.333 30 -58s27.834 -25.167 45.501 -31.5s37.167 -9.5 58.5 -9.5c13.333 0 27.333 0.333008 42 1l43 2c14 0.666992 27.167 1.5 39.5 2.5l31.5 2.5h2c7.33301 0 12.5 -2 15.5 -6
s4.5 -9 4.5 -15v-67zM471 938.998c0 -2.66699 -1.33301 -5.33203 -4 -7.99902l-118 -124c-4 -4.66699 -7.5 -8 -10.5 -10s-7.5 -3 -13.5 -3h-86c-6 0 -9 2.33301 -9 7c0 4 1.33301 7.33301 4 10l95 120c4.66699 5.33301 8.5 9.16602 11.5 11.499s7.83301 3.5 14.5 3.5h105
c7.33301 0 11 -2.33301 11 -7z" />
    <glyph glyph-name="cacute" unicode="&#x107;" horiz-adv-x="468" 
d="M423 31c0 -8 -1.33301 -13.8311 -4 -17.498s-8.33398 -6.5 -17.001 -8.5c-11.333 -3.33301 -28 -6.33301 -50 -9s-48.333 -4 -79 -4c-32.667 0 -62.834 5 -90.501 15s-51.667 25.167 -72 45.5s-36.333 45.666 -48 75.999s-17.5 65.833 -17.5 106.5v93
c0 40.667 5.83301 76.167 17.5 106.5s27.667 55.666 48 75.999s44.333 35.5 72 45.5s57.834 15 90.501 15c30.667 0 57 -1.33301 79 -4s38.667 -5.66699 50 -9c8.66699 -2 14.334 -4.83301 17.001 -8.5s4 -9.5 4 -17.5v-65c0 -5.33301 -1.66699 -9.16602 -5 -11.499
s-7.66602 -3.5 -12.999 -3.5h-3c-10 1.33301 -19.333 2.5 -28 3.5s-17.667 1.66699 -27 2s-20 0.666016 -32 0.999023s-26 0.5 -42 0.5c-12 0 -23.667 -2 -35 -6s-21.5 -10.833 -30.5 -20.5s-16.333 -23 -22 -40s-8.5 -38.5 -8.5 -64.5v-93c0 -26 2.83301 -47.5 8.5 -64.5
s13 -30.333 22 -40s19.167 -16.5 30.5 -20.5s23 -6 35 -6c16 0 30 0.166992 42 0.5s22.667 0.666016 32 0.999023s18.333 1 27 2s18 2.16699 28 3.5h3c5.33301 0 9.66602 -1.16699 12.999 -3.5s5 -6.16602 5 -11.499v-65zM411 772.002
c0 -2.66699 -1.33301 -5.33203 -4 -7.99902l-118 -124c-4 -4.66699 -7.5 -8 -10.5 -10s-7.5 -3 -13.5 -3h-86c-6 0 -9 2.33301 -9 7c0 4 1.33301 7.33301 4 10l95 120c4.66699 5.33301 8.5 9.16602 11.5 11.499s7.83301 3.5 14.5 3.5h105c7.33301 0 11 -2.33301 11 -7z" />
    <glyph glyph-name="Ccircumflex" unicode="&#x108;" horiz-adv-x="563" 
d="M518 31c0 -7.33301 -2 -12.502 -6 -15.502s-9.33301 -5.5 -16 -7.5c-4 -1.33301 -10.833 -2.83301 -20.5 -4.5s-21.5 -3.33398 -35.5 -5.00098s-29.667 -3.16699 -47 -4.5s-35.666 -2 -54.999 -2c-30 0 -61.667 4.33301 -95 13s-63.833 24.5 -91.5 47.5
s-50.667 54.167 -69 93.5s-27.5 90 -27.5 152v147c0 62.667 9.16699 113.834 27.5 153.501s41.333 70.834 69 93.501s58.167 38.167 91.5 46.5s65 12.5 95 12.5c19.333 0 37.666 -0.666992 54.999 -2s33 -2.83301 47 -4.5s25.833 -3.5 35.5 -5.5s16.5 -3.33301 20.5 -4
c6.66699 -2 12 -4.5 16 -7.5s6 -8.16699 6 -15.5v-67c0 -6 -1.5 -11 -4.5 -15s-8.16699 -6 -15.5 -6h-2l-31.5 2.5c-12.333 1 -25.5 1.83301 -39.5 2.5l-43 2c-14.667 0.666992 -28.667 1 -42 1c-21.333 0 -40.833 -3.16699 -58.5 -9.5s-32.834 -16.666 -45.501 -30.999
s-22.667 -33.5 -30 -57.5s-11 -53.667 -11 -89v-147c0 -34.667 3.66699 -64 11 -88s17.333 -43.333 30 -58s27.834 -25.167 45.501 -31.5s37.167 -9.5 58.5 -9.5c13.333 0 27.333 0.333008 42 1l43 2c14 0.666992 27.167 1.5 39.5 2.5l31.5 2.5h2c7.33301 0 12.5 -2 15.5 -6
s4.5 -9 4.5 -15v-67zM489 800.998c0 -4.66699 -3 -7 -9 -7h-83c-6 0 -10.333 1 -13 3s-6 5.33301 -10 10l-71 81l-71 -81c-4 -4.66699 -7.5 -8 -10.5 -10s-7.5 -3 -13.5 -3h-83c-6 0 -9 2.33301 -9 7c0 4 1.33301 7.33301 4 10l92 120
c4.66699 5.33301 8.5 9.16602 11.5 11.499s7.83301 3.5 14.5 3.5h130c6.66699 0 11.5 -1.16699 14.5 -3.5s6.83301 -6.16602 11.5 -11.499l91 -120c2.66699 -2.66699 4 -6 4 -10z" />
    </font>
</defs>
</svg>
