<?xml version="1.0" encoding="UTF-8" standalone="no"?>
<!DOCTYPE svg PUBLIC "-//W3C//DTD SVG 1.1//EN" "http://www.w3.org/Graphics/SVG/1.1/DTD/svg11.dtd">
<svg xmlns="http://www.w3.org/2000/svg">
<metadata/>
<defs>
<font id="pf_square_sans_prolight" horiz-adv-x="1171">
<font-face units-per-em="2048" ascent="1536" descent="-512"/>
<missing-glyph horiz-adv-x="542"/>
<glyph unicode="ﬁ" horiz-adv-x="1023" d="M74 984v47q0 27 26 26h113v139q0 76 18.5 138t60.5 106.5t107 68.5t161 24q60 0 142.5 -10t150.5 -36q21 -8 17 -33l-6 -37q-6 -19 -37 -17q-63 9 -135.5 15t-131.5 6q-111 0 -168.5 -50.5t-59.5 -181.5v-132h538q27 0 27 -26v-1005q0 -26 -23 -26h-68q-29 0 -29 26 l-2 933h-443v-933q0 -26 -21 -26h-70q-29 0 -28 26v933h-113q-27 0 -26 25z"/>
<glyph unicode="ﬂ" horiz-adv-x="1007" d="M63 984v47q0 27 26 26h112v141q0 76 18.5 138t61 106.5t108 68.5t160.5 24q50 0 116 -6.5t128 -24.5l65 18q28 7 28 -24v-1472q0 -26 -24 -26h-69q-27 0 -27 26v1381q-56 6 -112.5 11.5t-104.5 5.5q-110 0 -168 -51t-60 -182v-134h298q29 0 28 -26v-47q0 -25 -26 -25 h-300v-933q0 -26 -21 -26h-70q-29 0 -29 26v933h-114q-24 0 -24 25z"/>
<glyph horiz-adv-x="2048"/>
<glyph horiz-adv-x="2048"/>
<glyph unicode="" horiz-adv-x="2048"/>
<glyph unicode=" " horiz-adv-x="542"/>
<glyph unicode="	" horiz-adv-x="542"/>
<glyph unicode=" " horiz-adv-x="542"/>
<glyph unicode="!" horiz-adv-x="450" d="M137 63q0 39 16.5 64t68.5 25q54 0 70 -24t16 -65q0 -38 -15 -65t-71 -27q-57 0 -71 27.5t-14 64.5zM167 1404q0 22 7.5 28.5t24.5 6.5h66q29 0 28 -35l-28 -1020q-2 -19 -6.5 -25.5t-17.5 -6.5h-26q-17 0 -22.5 6.5t-5.5 25.5z"/>
<glyph unicode="&quot;" horiz-adv-x="551" d="M130 1415q-2 24 24 24h61q17 0 19 -7.5t2 -16.5l-21 -336q0 -11 -3 -15.5t-19 -4.5h-26q-14 0 -18 20zM313 1415q-2 24 23 24h62q16 0 18.5 -7.5t2.5 -16.5l-21 -336q0 -11 -3.5 -15.5t-19.5 -4.5h-23q-17 0 -20 20z"/>
<glyph unicode="#" d="M24 543l13 43q4 25 30 24h265l68 287h-272q-24 0 -18 17l14 43q4 25 30 25h265l105 435q4 21 27 22h54q17 -4 14 -26l-105 -431h283l104 435q4 21 29 22h54q17 -4 12 -26l-103 -431h279q29 0 19 -25l-10 -43q-7 -17 -29 -17h-280l-66 -287h279q29 0 20 -24l-11 -43 q-6 -17 -28 -17h-281l-120 -509q-3 -17 -23 -17h-54q-15 0 -18 9.5t1 21.5l117 495h-280l-122 -509q-2 -17 -21 -17h-54q-15 0 -18.5 9.5t0.5 21.5l118 495h-270q-21 0 -17 17zM427 610h283l67 287h-282z"/>
<glyph unicode="$" d="M135 1048q0 176 101.5 276t297.5 111v174q0 13 17 13h59q19 0 20 -18v-169q35 0 80.5 -4t91 -11t89 -16.5t75.5 -22.5q10 -4 13 -12t0 -19l-9 -35q0 -6 -5.5 -14.5t-22.5 -6.5q-82 11 -170 21.5t-190 10.5q-91 0 -154 -19.5t-101.5 -54t-54 -85.5t-15.5 -112 q0 -75 20.5 -118.5t62.5 -69.5t105 -40.5t148 -29.5q97 -17 178.5 -39t140 -64.5t92.5 -113t34 -182.5q0 -102 -30.5 -175.5t-86 -121t-130 -71.5t-161.5 -30v-189q0 -15 -17 -16h-60q-19 0 -19 14v189q-106 2 -211.5 16.5t-168.5 39.5q-25 9 -17 35l6 39q2 17 22 13 q50 -6 109.5 -11.5t117 -9.5t103.5 -8t67 -4q169 0 261.5 66.5t92.5 194.5q0 80 -16 134.5t-53 89.5t-101 55.5t-158 35.5q-101 17 -184 37.5t-144 59.5t-93 102.5t-32 164.5z"/>
<glyph unicode="%" horiz-adv-x="742" d="M-766 1015q0 52 7 126.5t38 143t95 116t179 47.5q112 0 179 -38t100 -99.5t41.5 -139t8.5 -156.5q0 -66 -7 -146.5t-39.5 -149t-99 -115t-183.5 -46.5q-116 0 -180.5 43t-95.5 109.5t-37 148t-6 156.5zM-662 1001q0 -75 6.5 -138.5t28.5 -111t65.5 -75t114.5 -27.5 q74 0 117.5 28.5t67.5 77t31 111.5t7 135q0 80 -6 145.5t-29 113t-67.5 73.5t-120.5 26q-72 0 -114 -30.5t-65 -80.5t-29.5 -113.5t-6.5 -133.5zM-367 -26l595 1526q4 10 8.5 15t15.5 5h59q19 0 12 -22l-594 -1529q-7 -19 -25 -19h-56q-21 0 -15 24zM54 447q0 52 8 126 t38 142t94.5 116t178.5 48q112 0 179 -38t100.5 -100t42.5 -138.5t9 -155.5q0 -66 -8 -147t-40.5 -149t-98.5 -115t-184 -47q-115 0 -180 43.5t-95.5 110t-37 147.5t-6.5 157zM159 432q0 -74 6.5 -138t28 -111.5t65 -74.5t114.5 -27q74 0 117.5 28t67.5 76.5t31.5 111.5 t7.5 135q0 81 -6.5 145.5t-29.5 112.5t-67.5 74t-120.5 26q-72 0 -114 -30.5t-64.5 -80t-29 -114t-6.5 -133.5z"/>
<glyph unicode="&amp;" horiz-adv-x="1464" d="M78 379q0 148 93.5 264.5t269.5 216.5q-56 82 -88 161t-32 137q0 64 21 119t59 95.5t92 64.5t124 24q137 0 212.5 -77t75.5 -190q0 -118 -78 -204.5t-222 -169.5q87 -138 197 -275t225 -252q104 103 177.5 241.5t96.5 310.5q4 10 8 15.5t17 5.5l46 -2q14 -2 18 -10.5 t4 -20.5q-6 -91 -35 -181t-69.5 -171t-91 -149.5t-98.5 -114.5q74 -70 155 -130.5t154 -101.5q19 -13 8 -31l-25 -45q-13 -21 -39 -11q-33 15 -75.5 42t-88 60t-92.5 70.5t-86 74.5q-115 -82 -238.5 -124t-240.5 -42q-95 0 -178 23.5t-144 73.5t-96.5 125t-35.5 178z M189 384q0 -81 26 -138t71.5 -93.5t106.5 -55.5t129 -19q97 0 202.5 34.5t211.5 111.5q-58 56 -120 125.5t-120 143.5t-109 145.5t-90 134.5q-137 -77 -222.5 -170t-85.5 -219zM443 1168q0 -56 27 -120t77 -136q52 26 96.5 55t77.5 61.5t51 72t18 84.5q0 76 -50 125t-127 49 q-48 0 -81 -19.5t-52.5 -49t-28 -62t-8.5 -60.5z"/>
<glyph unicode="'" horiz-adv-x="379" d="M130 1415q-2 24 24 24h61q17 0 19 -7.5t2 -16.5l-21 -336q0 -11 -3 -15.5t-19 -4.5h-26q-14 0 -18 20z"/>
<glyph unicode="(" horiz-adv-x="592" d="M143 694q0 170 35 304.5t81.5 238t95.5 173t75 106.5q13 15 24 6l28 -16q15 -6 5 -21q-27 -37 -63.5 -102t-71.5 -161.5t-60 -227t-25 -300.5q0 -190 25 -338.5t60 -259.5t72.5 -182.5t64.5 -108.5q8 -9 -5 -20l-28 -15q-15 -11 -26 2q-28 37 -77 109.5t-95.5 185.5 t-80.5 269.5t-34 357.5z"/>
<glyph unicode=")" horiz-adv-x="596" d="M137 -195q26 37 63.5 108.5t71.5 182.5t59 259.5t25 338.5q0 170 -25 300.5t-59 227t-70.5 161.5t-62.5 102q-11 15 4 21l27 16q12 11 23 -4q26 -39 75 -108.5t96.5 -173t82.5 -238t35 -304.5q0 -201 -34 -357.5t-81.5 -269.5t-96 -185.5t-77.5 -109.5q-9 -13 -26 -2 l-26 15q-13 10 -4 20z"/>
<glyph unicode="*" horiz-adv-x="652" d="M85 1025q-9 17 8 25l166 108l-166 103q-17 13 -6 31l11 19q8 17 28 7l176 -92l6 193q3 11 6 15.5t18 4.5h26q19 0 19 -20l7 -193l169 87q17 11 29 -8l11 -20q10 -15 -7 -26l-163 -104l163 -109q9 -4 11 -10.5t-7 -20.5l-10 -19q-9 -14 -27 -4l-169 89l-5 -188 q0 -11 -3 -17t-18 -6h-26q-19 0 -19 20l-11 195l-176 -89q-17 -8 -28 9z"/>
<glyph unicode="+" horiz-adv-x="1143" d="M165 673v71q0 15 6.5 18.5t19.5 3.5h327v322q0 26 23 26h72q17 0 17 -22v-326h325q13 0 20 -3t7 -19v-71q0 -17 -25 -18h-327v-334q0 -24 -17 -23h-72q-22 0 -23 27v330h-331q-22 0 -22 18z"/>
<glyph unicode="," horiz-adv-x="387" d="M95 -243q-8 9 7 24q35 30 49 68.5t14 74.5q0 33 -13 70t-34 62q-5 7 -5.5 18t13.5 21l73 61q25 17 48 -2q29 -27 41 -58.5t12 -60.5q0 -102 -46.5 -182.5t-104.5 -117.5q-4 -4 -13.5 -7.5t-13.5 1.5z"/>
<glyph unicode="-" horiz-adv-x="767" d="M76 667v71q0 21 26 22h567q26 0 25 -22v-71q0 -17 -21 -18h-575q-22 0 -22 18z"/>
<glyph unicode="." horiz-adv-x="396" d="M110 72q0 39 16.5 64t68.5 25q54 0 69.5 -24t15.5 -65q0 -37 -15 -64t-70 -27q-56 0 -70.5 27t-14.5 64z"/>
<glyph unicode="/" horiz-adv-x="520" d="M21 -116l385 1599q4 13 8.5 17t20.5 2h49q17 0 11 -25l-385 -1605q-2 -17 -21 -17h-50q-15 0 -17.5 9.5t-0.5 19.5z"/>
<glyph unicode="0" d="M87 740q0 58 4 133.5t19.5 156t47 156t86 136.5t135.5 97.5t199 36.5q174 0 274.5 -63t152.5 -164.5t66 -230t14 -258.5q0 -74 -4 -159.5t-20.5 -170.5t-49 -162.5t-89 -136.5t-141.5 -94.5t-203 -35.5t-200 32.5t-136.5 90t-86 132.5t-47 159.5t-18.5 172t-3 172.5z M213 719q0 -131 9.5 -245t47.5 -199.5t111 -134.5t197 -49q126 0 200.5 51t116 137t54 200t12.5 240q0 139 -10.5 256t-50.5 199.5t-116 129t-206 46.5q-124 0 -195.5 -53t-110 -141t-49 -201.5t-10.5 -235.5z"/>
<glyph unicode="1" d="M201 19v74q0 19 23 19h294v1171h-259q-22 0 -23 20v35q0 21 18 25l226 66q33 10 65 10h72q17 0 21 -7.5t4 -18.5v-1301h302q25 0 24 -19v-74q0 -19 -24 -19h-720q-22 0 -23 19z"/>
<glyph unicode="2" d="M104 21v83q0 24 4 32.5t14 17.5q143 136 286 276.5t296 296.5q72 76 121 153t49 179q0 72 -11.5 125t-48.5 88t-105.5 52.5t-178.5 17.5q-102 0 -190 -11t-170 -22q-17 -2 -23 5.5t-8 13.5l-7 37q-2 11 0.5 20t12.5 13q39 15 92 26t107 17.5t102.5 9.5t81.5 3 q139 0 230 -25t144 -72.5t75 -116t22 -152.5q0 -73 -11 -127t-33.5 -101.5t-61 -94t-90.5 -103.5q-66 -69 -123 -125.5t-119 -117.5t-136.5 -133.5t-181.5 -173.5h758q26 0 26 -23v-70q0 -17 -22 -17h-879q-15 0 -18.5 4.5t-3.5 14.5z"/>
<glyph unicode="3" d="M104 72l6 36q2 6 8 14t23 6q83 -10 175 -22.5t194 -12.5q76 0 147.5 13.5t128.5 56t91.5 120t34.5 208.5q0 112 -66.5 163.5t-178.5 68.5l-257 43q-33 7 -33 35v57q0 16 7 26.5t14 16.5l449 425h-702q-13 0 -19 3t-6 19v73q0 17 21 18h806q17 0 24.5 -5t7.5 -27v-69 q0 -19 -1 -30.5t-12 -22.5l-438 -417l191 -33q70 -12 128 -36t100.5 -64.5t66.5 -96.5t24 -134q0 -156 -38.5 -257.5t-109 -159.5t-170 -81t-225.5 -23q-33 0 -80.5 3t-101.5 9.5t-105.5 17.5t-89.5 26q-11 4 -13.5 12.5t-0.5 20.5z"/>
<glyph unicode="4" d="M39 421v74q0 31 21 58l719 862q11 13 20 18.5t26 5.5h78q15 0 15 -18v-907h182q27 0 27 -23v-70q0 -17 -22 -17h-187v-378q0 -26 -23 -26h-77q-17 0 -17 21v383h-741q-21 0 -21 17zM170 514h631v756z"/>
<glyph unicode="5" d="M112 72l8 36q2 6 7 14t22 6q83 -10 173 -22.5t192 -12.5q76 0 146.5 15.5t125.5 58t87 120.5t32 204q0 56 -19.5 96.5t-53 68.5t-78 43t-94.5 24l-476 76q-24 4 -34.5 14t-6.5 36l85 566q2 17 8.5 20.5t24.5 3.5h677q21 0 21 -15v-76q0 -15 -6 -18.5t-19 -3.5h-606 l-65 -421l451 -70q141 -24 229 -99.5t88 -231.5q0 -154 -37 -255.5t-105.5 -159.5t-167 -82t-222.5 -24q-33 0 -80.5 3t-99.5 9.5t-103 17.5t-90 26q-10 4 -13 12.5t-1 20.5z"/>
<glyph unicode="6" d="M95 665q0 143 15.5 284t70.5 253.5t163 182t290 69.5q33 0 77.5 -3t94 -9.5t98.5 -17.5t88 -26q11 -4 13 -13t0 -20l-6 -35q-3 -8 -8 -15.5t-23 -5.5q-83 11 -160 22t-178 11q-126 0 -204 -44.5t-121.5 -118.5t-61 -173t-19.5 -205q93 11 160.5 17.5t121.5 10.5t100.5 5 t99.5 1q195 0 288.5 -103.5t93.5 -338.5q0 -112 -39.5 -190.5t-107 -127.5t-158.5 -71.5t-197 -22.5q-184 0 -284.5 48.5t-146 139t-53 216t-7.5 280.5zM222 636q0 -122 5 -221.5t40 -173.5t111 -114t217 -40q58 0 123 10.5t120 43.5t89 93t34 155q0 78 -12.5 139.5 t-45.5 105t-88 66.5t-140 23q-62 0 -175 -8.5t-278 -28.5v-50z"/>
<glyph unicode="7" d="M83 1346v69q0 24 25 24h917q27 0 25 -24v-65q0 -4 -3 -19.5t-7 -25.5l-636 -1303q-11 -21 -25 -10l-79 34q-19 11 -10 34l628 1266h-814q-21 0 -21 20z"/>
<glyph unicode="8" d="M74 371q0 308 282 391q-102 27 -168 108t-66 191q0 199 117 298.5t343 99.5q215 0 334.5 -95.5t119.5 -297.5q0 -47 -16.5 -95.5t-48 -89t-77 -72.5t-104.5 -47q136 -33 217 -127t81 -260q0 -180 -134 -287t-378 -107q-247 0 -374.5 93t-127.5 297zM205 389 q0 -91 32 -149t84 -93t118.5 -47.5t136.5 -12.5q64 0 132.5 15.5t124 48.5t90 87.5t34.5 132.5q0 87 -29 143.5t-82 93t-125 60.5t-157 49q-60 -13 -124.5 -31.5t-116.5 -52.5t-85 -92.5t-33 -151.5zM252 1075q0 -65 28 -110t74 -74t104 -47.5t120 -33.5q171 33 250 91 t79 174q0 78 -24.5 131t-68 85.5t-103.5 48t-129 15.5q-184 0 -257 -69.5t-73 -210.5z"/>
<glyph unicode="9" d="M89 1042q0 110 39 189.5t106.5 128.5t157.5 71.5t194 22.5q185 0 286 -49.5t147.5 -138.5t54 -216.5t7.5 -278.5q0 -143 -16.5 -284t-71.5 -254t-161.5 -182.5t-288.5 -69.5q-33 0 -78.5 3t-94.5 9.5t-97.5 17t-88.5 26.5q-10 4 -12 12.5t0 20.5l6 34q2 6 7.5 15t23.5 7 q83 -10 158.5 -21.5t179.5 -11.5q126 0 203 43.5t121.5 118.5t61 173t20.5 206q-93 -11 -160.5 -17.5t-121.5 -11t-101.5 -6.5t-100.5 -2q-193 0 -286.5 105.5t-93.5 339.5zM215 1044q0 -78 11.5 -138.5t44.5 -104t88 -66.5t140 -23q65 0 177 8.5t279 28.5v50 q0 120 -5.5 220.5t-40.5 173.5t-110.5 114t-216.5 41q-58 0 -123.5 -11t-120 -43.5t-89 -92t-34.5 -157.5z"/>
<glyph unicode=":" horiz-adv-x="387" d="M110 72q0 39 16.5 64t68.5 25q54 0 69.5 -24t15.5 -65q0 -37 -15 -64t-70 -27q-56 0 -70.5 27t-14.5 64zM110 870q0 37 16.5 63t68.5 26q54 0 69.5 -23.5t15.5 -65.5q0 -37 -15 -64t-70 -27q-56 0 -70.5 27t-14.5 64z"/>
<glyph unicode=";" horiz-adv-x="387" d="M78 -243q-8 9 7 24q35 30 48.5 66.5t13.5 76.5q0 35 -12.5 71t-34.5 61q-5 7 -5 18t13 21l74 61q25 17 48 -2q29 -27 40.5 -58.5t11.5 -60.5q0 -102 -46.5 -182.5t-103.5 -117.5q-4 -4 -14 -7.5t-14 1.5zM110 870q0 37 16.5 63t68.5 26q54 0 69.5 -23.5t15.5 -65.5 q0 -37 -15 -64t-70 -27q-56 0 -70.5 27t-14.5 64z"/>
<glyph unicode="&lt;" horiz-adv-x="1143" d="M165 694v40q0 19 6.5 26.5t17.5 12.5l768 464q25 11 25 -17v-70q0 -17 -7 -24.5t-18 -13.5l-651 -395v-7l647 -426q13 -6 21 -12.5t8 -24.5v-63q0 -35 -29 -19l-766 493q-11 7 -16.5 13t-5.5 23z"/>
<glyph unicode="=" horiz-adv-x="1143" d="M163 868v72q0 15 6.5 18t19.5 3h764q13 0 19.5 -3t6.5 -18v-72q0 -17 -24 -17h-771q-21 0 -21 17zM165 495v72q0 15 6.5 18t19.5 3h764q13 0 20 -3t7 -18v-72q0 -17 -25 -17h-770q-22 0 -22 17z"/>
<glyph unicode="&gt;" horiz-adv-x="1143" d="M165 184v63q0 17 7.5 24t20.5 13l648 426v7l-652 395q-11 6 -17.5 13.5t-6.5 24.5v70q0 29 24 17l768 -464q11 -5 18 -12t7 -27v-40q0 -17 -6 -23t-17 -13l-766 -493q-29 -14 -28 19z"/>
<glyph unicode="?" horiz-adv-x="754" d="M60 1398q-4 25 16 33q50 17 112 24.5t125 7.5q199 0 299 -83t100 -238q0 -52 -15 -93.5t-40 -73t-55.5 -57t-60.5 -48.5q-48 -37 -90.5 -71.5t-73.5 -77t-50 -93t-19 -116.5q0 -11 -1 -28.5t-1 -38t1 -38.5t1 -32q0 -24 -22 -23h-52q-26 0 -27 21q-7 48 -7.5 90.5 t-0.5 70.5q0 67 21 122.5t57 104.5t81.5 90.5t95.5 80.5q30 24 56 44t46 43t30.5 50t10.5 64q0 122 -71.5 171t-227.5 49q-50 0 -101.5 -4.5t-101.5 -8.5q-17 0 -22.5 7.5t-5.5 15.5zM193 72q0 39 16.5 64t68.5 25q54 0 69.5 -24t15.5 -65q0 -37 -15.5 -64t-69.5 -27 q-56 0 -70.5 27t-14.5 64z"/>
<glyph unicode="@" horiz-adv-x="1729" d="M100 723q0 165 65 305t176 241t259.5 158.5t315.5 57.5q176 0 312.5 -52t230 -148t141 -229t47.5 -296q0 -108 -29 -190.5t-76.5 -139.5t-109.5 -86t-125 -29q-112 0 -167 36t-76 109q-80 -46 -154.5 -75t-171.5 -29q-106 0 -154 56.5t-48 154.5q0 137 64.5 200.5 t213.5 63.5h100q39 0 79.5 -1t59.5 1v66q0 43 -5.5 74.5t-25 52t-56 30.5t-100.5 10q-46 0 -108 -2.5t-118 -11.5q-24 -4 -28.5 8.5t-8.5 29.5q-6 26 20 35q48 17 121.5 24.5t132.5 7.5q93 0 147.5 -21.5t82.5 -59.5t35.5 -88t7.5 -109v-345q0 -21 5 -46.5t20.5 -46 t45.5 -33.5t82 -13q58 0 104.5 27t81.5 76t53.5 117.5t18.5 148.5q0 150 -44.5 269t-128 201.5t-203 127t-269.5 44.5q-154 0 -286.5 -51.5t-231 -143t-155 -215.5t-56.5 -269q0 -154 53 -281t147.5 -216t225.5 -138t288 -49q8 0 34 1t61 3.5t73 7.5t71 12q8 2 15 0t11 -13 l6 -21q7 -15 -8 -25q-50 -24 -127.5 -33.5t-150.5 -9.5q-169 0 -314 54.5t-249 154t-163.5 239.5t-59.5 312zM634 573q0 -78 28 -105t106 -27q35 0 76.5 10.5t81.5 26t74 32t53 26.5v213h-254q-82 0 -123.5 -35t-41.5 -141z"/>
<glyph unicode="A" horiz-adv-x="1154" d="M46 26l447 1381q4 17 10.5 24.5t24.5 7.5h91q17 0 24.5 -10t11.5 -22l452 -1386q2 -6 2 -11q0 -10 -13 -10h-89q-24 0 -30 21l-115 377h-580l-117 -367q-6 -19 -16 -25t-27 -6h-62q-17 0 -17 13q0 5 3 13zM317 506h510l-191 608q-19 65 -29 96t-14.5 47.5t-7.5 28.5 t-9 40h-5q-6 -29 -9.5 -40.5t-9 -28t-15 -46.5t-29.5 -95z"/>
<glyph unicode="B" horiz-adv-x="1185" d="M156 33v1371q0 15 7 25t28 10h449q207 0 305.5 -100t98.5 -258q0 -39 -7.5 -84.5t-29 -91t-61 -86t-101.5 -65.5q72 -19 118 -61t73.5 -94t39.5 -108.5t12 -106.5q0 -89 -29.5 -159.5t-81 -120.5t-119.5 -77t-144 -27h-513q-30 0 -37.5 7.5t-7.5 25.5zM280 108h380 q87 0 144.5 24t91.5 64t47.5 93.5t13.5 110.5q0 56 -17.5 109t-54 94t-92 66t-133.5 25h-380v-586zM280 799h337q151 0 224 75t73 192q0 116 -73 188t-224 72h-337v-527z"/>
<glyph unicode="C" horiz-adv-x="1110" d="M135 704q0 147 20.5 283t79 239.5t162.5 165.5t274 62q33 0 81.5 -3t102.5 -9.5t106 -17.5t92 -26q11 -4 13 -13q1 -5 1 -11q0 -4 -1 -9l-9 -35q-2 -8 -6.5 -15.5t-21.5 -5.5q-82 11 -170 22t-192 11q-139 0 -220.5 -54.5t-123 -143.5t-52 -203.5t-10.5 -236.5 q0 -110 13.5 -220.5t57 -196.5t123 -139t212.5 -53q104 0 192 11.5t170 21.5q17 2 21.5 -5t6.5 -15l9 -36q1 -6 1 -11t-1 -9q-2 -9 -13 -13q-40 -15 -92 -26t-106 -17.5t-102.5 -9.5t-81.5 -3q-165 0 -269 58.5t-164 157.5t-81.5 229t-21.5 276z"/>
<glyph unicode="D" horiz-adv-x="1293" d="M156 33v1371q0 15 7 25t28 10h402q169 0 279 -55.5t174 -151t89 -227t25 -282.5q0 -154 -24 -286.5t-88 -229.5t-174 -152t-281 -55h-394q-28 0 -35.5 7.5t-7.5 25.5zM282 112h294q30 0 75 2t95.5 16.5t101.5 49.5t91 101.5t65 169.5t25 255q0 156 -22.5 262.5t-60 175 t-84 106t-95 54t-94 19.5t-80.5 3h-311v-1214z"/>
<glyph unicode="E" horiz-adv-x="1032" d="M149 29v1380q0 15 7 22.5t26 7.5h727q20 0 26.5 -6t6.5 -22v-54q0 -17 -6 -24t-27 -7h-636v-523h572q19 0 25.5 -5t6.5 -23v-50q0 -17 -6.5 -25t-25.5 -8h-572v-580h651q19 0 26 -7t7 -24v-52q0 -17 -6.5 -23t-26.5 -6h-742q-19 0 -26 5.5t-7 23.5z"/>
<glyph unicode="F" horiz-adv-x="993" d="M156 33v1378q0 15 7 21.5t26 6.5h716q19 0 26 -6t7 -22v-54q0 -17 -7 -24t-26 -7h-625v-523h549q19 0 26 -5t7 -23v-50q0 -17 -6.5 -25t-26.5 -8h-549l-2 -659q0 -19 -5.5 -26t-22.5 -7h-59q-17 0 -26 6.5t-9 26.5z"/>
<glyph unicode="G" horiz-adv-x="1253" d="M139 706q0 147 21.5 283t81.5 238.5t164 164.5t271 62q33 0 82 -3t103 -9.5t106.5 -17.5t90.5 -26q11 -4 13.5 -13t0.5 -20l-9 -35q-2 -8 -6.5 -15.5t-21.5 -5.5q-83 11 -171 22t-192 11q-135 0 -214.5 -54.5t-121 -143.5t-55 -204t-13.5 -236q0 -122 19.5 -233 t72.5 -195.5t144.5 -134.5t234.5 -50q58 0 130 15.5t124 34.5v493h-204q-19 0 -25.5 7.5t-6.5 25.5v54q0 17 6.5 22.5t25.5 5.5h298q35 0 35 -32l2 -617q0 -31 -11 -44t-41 -23q-166 -48 -348 -48q-159 0 -269 45.5t-180.5 136t-103.5 225t-33 314.5z"/>
<glyph unicode="H" horiz-adv-x="1258" d="M156 33v1371q0 22 8 28.5t25 6.5h61q29 0 28 -35v-581h708v581q0 22 6.5 28.5t22.5 6.5h62q29 0 28 -35v-1371q0 -19 -5.5 -26t-22.5 -7h-62q-16 0 -22.5 6.5t-6.5 26.5v673h-708v-673q0 -19 -5.5 -26t-22.5 -7h-61q-17 0 -25 6.5t-8 26.5z"/>
<glyph unicode="I" horiz-adv-x="507" d="M193 33v1371q0 22 8 28.5t25 6.5h60q29 0 29 -35v-1371q0 -19 -5.5 -26t-23.5 -7h-60q-17 0 -25 6.5t-8 26.5z"/>
<glyph unicode="J" horiz-adv-x="893" d="M30 41q-2 5 -2 9q0 5 3 10l8 40q7 17 26 16q54 -9 107.5 -13.5t117.5 -4.5q85 0 139.5 16t86 48.5t44.5 79t13 108.5v1052q0 37 34 37h60q33 0 32 -37v-1068q0 -85 -20.5 -149.5t-67.5 -110t-122 -69.5t-183 -24q-87 0 -146.5 10.5t-109.5 29.5q-17 9 -20 20z"/>
<glyph unicode="K" horiz-adv-x="1143" d="M156 33v1371q0 22 8 28.5t25 6.5h61q29 0 28 -35v-846l182 237l504 622q8 11 15 16.5t28 5.5h87q11 0 14.5 -5t-6.5 -17l-472 -584l490 -814q3 -4 3 -7q1 -4 -1 -6q-4 -6 -17 -6h-82q-33 0 -44 24l-428 714l-273 -340v-365q0 -19 -5.5 -26t-22.5 -7h-61q-17 0 -25 6.5 t-8 26.5z"/>
<glyph unicode="L" horiz-adv-x="1011" d="M156 29v1375q0 22 8 28.5t25 6.5h63q29 0 28 -35v-1292h669q19 0 26 -7t7 -24v-52q0 -17 -7 -23t-26 -6h-760q-19 0 -26 5.5t-7 23.5z"/>
<glyph unicode="M" horiz-adv-x="1568" d="M159 33v1380q0 26 21 26h72q19 0 25.5 -4t12.5 -22l381 -808l112 -251h5l115 256l380 799q8 17 18 23.5t31 6.5h56q24 0 23 -26v-1380q0 -19 -5.5 -26t-22.5 -7h-59q-17 0 -24.5 6.5t-7.5 26.5v1152l-7 2l-82 -191l-358 -746q-11 -24 -33 -24h-54q-24 0 -35 21l-369 766 l-74 172h-7v-1152q0 -19 -5 -26t-23 -7h-54q-17 0 -24.5 6.5t-7.5 26.5z"/>
<glyph unicode="N" horiz-adv-x="1330" d="M154 33v1380q0 11 6.5 18.5t19.5 7.5h63q19 0 30 -9t20 -19l645 -1009l119 -187h4l3 1189q0 22 6.5 28.5t23.5 6.5h52q28 0 28 -35l3 -1373q0 -31 -27 -31h-54q-24 0 -35 6.5t-21 24.5l-628 978l-139 226h-6l2 -1202q0 -19 -5 -26t-23 -7h-54q-17 0 -25 6.5t-8 26.5z"/>
<glyph unicode="O" horiz-adv-x="1358" d="M135 740q0 70 6 149t26 159.5t56 154t95 130.5t145 90t208 33q180 0 288.5 -62t166 -162.5t76 -230t18.5 -261.5q0 -133 -15.5 -267.5t-71.5 -243.5t-165.5 -178.5t-296.5 -69.5q-184 0 -291 69.5t-161 178.5t-69 243.5t-15 267.5zM261 719q0 -135 18.5 -250t65 -200 t125.5 -133.5t201 -48.5t203 45.5t131 128t71.5 200t21.5 258.5q0 145 -19.5 262t-67 200t-131 128.5t-209.5 45.5q-120 0 -199 -48t-125.5 -132.5t-66 -200.5t-19.5 -255z"/>
<glyph unicode="P" horiz-adv-x="1067" d="M156 33v1378q0 15 7 21.5t26 6.5h408q91 0 169.5 -25.5t135.5 -77t90 -127.5t33 -178q0 -78 -24 -154t-75.5 -137t-130 -99t-192.5 -38h-325v-570q0 -19 -6.5 -26t-24.5 -7h-60q-17 0 -24 6.5t-7 26.5zM278 708h323q27 0 76.5 9.5t98.5 43.5t85 97t36 169q1 157 -91 229 q-89 71 -227 70h-8h-293v-618z"/>
<glyph unicode="Q" horiz-adv-x="1356" d="M135 740q0 70 6 149t26 159.5t56 154t95 130.5t145 90t208 33q180 0 288.5 -62t166 -162.5t76 -230t18.5 -261.5q0 -102 -8.5 -207.5t-38 -200t-83.5 -172t-148 -123.5l291 -76q17 -4 19 -15q1 -4 1 -8q0 -7 -2 -14l-27 -63q-8 -24 -18 -29q-4 -1 -10 -1q-9 0 -22 4 l-447 148q-13 -2 -27 -2h-29q-184 0 -291 69.5t-161 178.5t-69 243.5t-15 267.5zM261 719q0 -135 18.5 -250t65 -200t125.5 -133.5t201 -48.5t203 45.5t131 128t71.5 200t21.5 258.5q0 145 -19.5 262t-67 200t-131 128.5t-209.5 45.5q-120 0 -199 -48t-125.5 -132.5 t-66 -200.5t-19.5 -255z"/>
<glyph unicode="R" horiz-adv-x="1113" d="M156 33v1378q0 15 7 21.5t26 6.5h432q81 0 153.5 -22.5t127.5 -70.5t88 -123t33 -181q0 -60 -14.5 -121t-46.5 -115t-84.5 -95.5t-125.5 -63.5l290 -616h-2q4 -7 4 -14q0 -3 -1 -7q-3 -10 -18 -10h-76q-17 0 -27 2t-17 19l-277 604h-350v-590q0 -35 -31 -35h-60 q-17 0 -24 6.5t-7 26.5zM278 734h298q49 0 105.5 10t103 42t78.5 94t32 164q0 87 -28.5 141t-73 86t-101 43.5t-114.5 11.5h-300v-592z"/>
<glyph unicode="S" horiz-adv-x="1098" d="M98 1057q0 191 115 293t336 102q33 0 80.5 -3t101.5 -9.5t106.5 -17.5t92.5 -26q10 -4 12 -13t0 -20l-8 -35q0 -8 -6 -15.5t-23 -5.5q-82 11 -170 22t-190 11q-91 0 -154 -19.5t-101 -55.5t-54.5 -88t-16.5 -116q0 -76 21 -120t63.5 -71t105 -41.5t146.5 -29.5 q98 -17 179.5 -40t140.5 -66.5t92.5 -115t33.5 -188.5q0 -116 -37.5 -193.5t-102 -126t-151.5 -68.5t-186 -20q-57 0 -114.5 4t-111 11.5t-101.5 18.5t-79 24q-20 8 -20 24q0 5 2 11l6 42q2 16 22 12q50 -6 110 -12t117 -10t103 -7.5t68 -3.5q169 0 261 68.5t92 199.5 q0 82 -16 136t-53 90t-101.5 57t-157.5 38q-102 17 -184.5 38.5t-143 62t-93 104.5t-32.5 168z"/>
<glyph unicode="T" horiz-adv-x="1009" d="M37 1359v52q0 15 6.5 21.5t26.5 6.5h874q20 0 26.5 -6t6.5 -22v-52q0 -17 -6.5 -25t-26.5 -8h-375l-2 -1293q0 -19 -6 -26t-23 -7h-60q-17 0 -25 6.5t-8 26.5v1293h-375q-19 0 -26 8t-7 25z"/>
<glyph unicode="U" horiz-adv-x="1291" d="M141 514v890q0 22 7.5 28.5t25.5 6.5h60q29 0 29 -35v-896q0 -195 92 -305t287 -110q189 0 288 102.5t99 312.5v896q0 22 7.5 28.5t24.5 6.5h62q28 0 27 -35l-2 -890q0 -70 -6.5 -132.5t-29.5 -120.5q-58 -148 -182 -212t-288 -64q-169 0 -290.5 65.5t-173.5 208.5 q-21 58 -29 122t-8 133z"/>
<glyph unicode="V" horiz-adv-x="1176" d="M55 1429q3 8 21 8h65q17 0 26 -6.5t13 -19.5l309 -924q21 -75 43 -139q17 -56 33.5 -110t27.5 -79h6q8 27 24.5 79t34.5 110q19 62 44 136l301 929q6 24 37 24h70q17 0 17 -13q0 -5 -2 -11l-458 -1389q-5 -10 -12.5 -17t-26.5 -7h-77q-31 0 -37 21l-458 1390q-2 6 -2 11 q0 4 1 7z"/>
<glyph unicode="W" horiz-adv-x="1734" d="M52 1415q-1 4 -1 8q0 16 21 16h69q17 0 24 -5t11 -21l297 -1055l53 -202h6l52 200l224 799l-74 258q-7 26 20 26h69q28 0 35 -24l300 -1055l51 -204h5l50 200l290 1059q4 13 11 18.5t26 5.5h68q19 0 19 -18q0 -5 -2 -12l-393 -1380q-5 -17 -12 -23t-24 -6h-79 q-31 0 -37 24l-226 790l-37 139h-8l-37 -145l-224 -782q-4 -14 -9.5 -20t-22.5 -6h-87q-26 0 -33 24z"/>
<glyph unicode="X" horiz-adv-x="1098" d="M56 24l431 714l-400 675q-6 11 -4 18.5t12 7.5h83q21 0 29 -6t15 -18l329 -570l328 568q15 26 51 26h66q17 0 20 -9t-3 -17l-398 -675l431 -717q2 -5 2 -9t-1 -6q-3 -6 -16 -6h-78q-31 0 -46 24l-356 610l-356 -608q-11 -14 -18 -20t-32 -6h-78q-17 0 -17 9q0 6 6 15z "/>
<glyph unicode="Y" horiz-adv-x="1048" d="M33 1432q2 7 13 7h86q17 0 25 -5t13 -17l354 -651l364 653q5 11 12 15.5t26 4.5h68q21 0 21 -12q0 -5 -4 -12l-427 -768v-614q0 -19 -5.5 -26t-23.5 -7h-60q-17 0 -25 6.5t-8 26.5v614l-427 770q-3 5 -3 10q0 2 1 5z"/>
<glyph unicode="Z" horiz-adv-x="1011" d="M65 31v39q0 15 3.5 30.5t16.5 34.5l718 1191h-666q-21 0 -27 8t-6 25v52q0 15 7 21.5t26 6.5h777q10 0 18 -5t8 -17v-56q0 -24 -18 -52l-711 -1197h703q19 0 26 -5t7 -22v-52q0 -17 -6.5 -25t-26.5 -8h-819q-19 0 -24.5 6.5t-5.5 24.5z"/>
<glyph unicode="[" horiz-adv-x="514" d="M83 -189v1672q0 26 33 25h257q21 0 22 -17v-58q0 -24 -26 -24h-172v-1527l176 -2q21 0 22 -15v-60q0 -21 -26 -22h-251q-35 0 -35 28z"/>
<glyph unicode="\" horiz-adv-x="520" d="M19 1477q-6 26 12 25h50q14 2 18.5 -2t8.5 -17l383 -1599q4 -10 2 -19.5t-17 -9.5h-51q-17 0 -23 17z"/>
<glyph unicode="]" horiz-adv-x="509" d="M112 -135q0 15 23 15l180 2v1527h-176q-27 0 -27 24v58q0 17 23 17h263q32 0 32 -25v-1676q0 -24 -35 -24h-256q-27 0 -27 22v60z"/>
<glyph unicode="^" horiz-adv-x="1087" d="M66.5 853.5q0.5 4.5 7.5 14.5l390 545q11 15 23 19.5t35 4.5h66q31 0 42.5 -5t20.5 -17l374 -543q15 -26 2 -31l-33 -25q-24 -19 -35 -2l-404 528l-408 -522q-10 -12 -19.5 -11t-21.5 9l-30 23q-10 8 -9.5 12.5z"/>
<glyph unicode="_" horiz-adv-x="1085" d="M-24 -219q0 14 6.5 18t19.5 4h1081q13 0 20 -4t7 -18v-38q0 -16 -22 -16h-1088q-24 0 -24 16v38z"/>
<glyph unicode="`" horiz-adv-x="1052" d="M356 1468q-2 9 13 15l72 33q24 13 32 -6l152 -292q11 -19 -4 -27l-43 -12q-13 -5 -18 -6t-11 8l-186 271q-5 7 -7 16z"/>
<glyph unicode="a" horiz-adv-x="1096" d="M95 271q0 185 92.5 272t296.5 87h336v97q0 65 -11.5 111t-43 75t-86 43t-136.5 14q-70 0 -154.5 -6.5t-160.5 -14.5q-31 -2 -33 15l-8 39q0 21 24 33q35 12 80 21t93 14.5t93 7.5t78 2q122 0 197 -22.5t117.5 -69.5t57.5 -117.5t15 -163.5v-534q0 -31 4.5 -47.5t14 -25 t27 -11.5t46.5 -5q24 0 23 -20v-44q0 -10 -6.5 -16.5t-25.5 -10.5q-32 -3 -58 -3q-62 0 -94 18q-46 26 -53 115h-2q-47 -29 -95 -53.5t-102 -44.5t-115 -31.5t-133 -11.5q-147 0 -212.5 72.5t-65.5 215.5zM222 278q0 -108 42 -147.5t153 -39.5q47 0 106 15.5t115 37 t104 44.5t78 40v298h-351q-57 0 -102.5 -11t-77.5 -39.5t-49.5 -76t-17.5 -121.5z"/>
<glyph unicode="b" horiz-adv-x="1061" d="M110 102v1385q0 19 6 26t23 7h60q17 0 25 -7t8 -26v-476l4 -4q113 46 186 59t138 13q122 0 200 -37t124 -107.5t64 -171.5t18 -229q0 -141 -20 -244t-67.5 -172.5t-127.5 -103t-200 -33.5q-139 0 -227 13.5t-157 31.5q-41 11 -49 31.5t-8 44.5zM234 122 q54 -11 134.5 -17.5t176.5 -6.5q72 0 126 13t91 56.5t56.5 124.5t19.5 220q0 126 -12 214t-41 142t-81.5 78t-132.5 24q-76 0 -158.5 -14t-178.5 -42v-792z"/>
<glyph unicode="c" horiz-adv-x="887" d="M98 536q0 106 14 205.5t57.5 174t124.5 119t216 44.5q28 0 69.5 -2t85 -7.5t84.5 -14.5t74 -21q17 -7 18.5 -18t1.5 -20l-10 -37q-2 -10 -12.5 -12.5t-25.5 0.5q-29 2 -65 6t-74.5 7.5t-76.5 5.5t-71 2q-85 0 -140 -21t-86.5 -70.5t-43.5 -132t-12 -206.5q0 -128 13 -214 t44.5 -136.5t85.5 -72.5t139 -22q21 0 58 2.5t79.5 5.5l85 6t77.5 9q26 0 27 -21l8 -28q1 -3 1 -6q0 -9 -4 -15q-5 -10 -22 -17q-52 -22 -138.5 -33t-169.5 -11q-135 0 -216 41t-124.5 115t-57.5 175t-14 220z"/>
<glyph unicode="d" horiz-adv-x="1061" d="M93 512q0 139 17.5 244.5t63 177t123.5 108.5t200 37q65 0 145.5 -14.5t177.5 -57.5l5 2v476q0 21 8 28t25 7h56q28 0 28 -35v-1452q0 -19 -5 -26t-23 -7h-56q-17 0 -25 6.5t-8 26.5v99q-22 -12 -64 -38.5t-96.5 -50.5t-117.5 -42t-124 -18q-95 0 -159.5 32.5t-102 98.5 t-53 165.5t-15.5 232.5zM219 506q0 -129 11 -209t35.5 -126.5t67 -64t106.5 -17.5q43 0 99.5 16.5t112 38t102 45.5t70.5 37v688q-98 30 -179.5 43t-156.5 13q-81 0 -133 -24t-81.5 -78t-41.5 -143t-12 -219z"/>
<glyph unicode="e" horiz-adv-x="1046" d="M100 536q0 94 11 190.5t53.5 174.5t128 128t235.5 50q137 0 220 -41.5t130.5 -107.5t64 -152t16.5 -175q0 -50 -18.5 -78t-70.5 -28h-644q4 -108 16 -185.5t43.5 -125t89 -69.5t153.5 -22q33 0 78 3.5t93 8.5t92 10t73 7q21 2 29 -18l6 -34q6 -24 -25 -37q-26 -9 -69 -19 t-93 -17t-101 -11.5t-93 -4.5q-145 0 -228 45.5t-125.5 121.5t-53.5 176.5t-11 209.5zM226 597h607q-2 67 -10.5 134.5t-39.5 120.5t-91 85.5t-164 32.5q-100 0 -157.5 -25t-89 -72.5t-41.5 -117t-14 -158.5z"/>
<glyph unicode="f" horiz-adv-x="733" d="M74 984v47q0 27 26 26h115v167q0 150 75 230.5t236 80.5q30 0 98 -7.5t136 -33.5q23 -7 23 -25q0 -4 -2 -10l-6 -35q-9 -25 -44 -17q-62 10 -111 13.5t-73 3.5q-108 0 -161.5 -47t-53.5 -157v-163h289q27 0 26 -23v-50q0 -25 -26 -25h-289v-933q0 -26 -21 -26h-70 q-29 0 -28 26v933h-113q-27 0 -26 25z"/>
<glyph unicode="g" horiz-adv-x="1061" d="M102 526q0 136 20.5 239t69.5 173.5t128.5 105.5t195.5 35q139 0 227 -14.5t158 -30.5q41 -11 48.5 -31.5t7.5 -45.5l-2 -981q0 -79 -10.5 -148t-48.5 -120t-112 -80.5t-202 -29.5q-41 0 -89 2t-95.5 7.5t-91 14.5t-76.5 22q-24 8 -24.5 19.5t3.5 19.5l6 31q2 19 35 13 q76 -11 163.5 -14t153.5 -3q89 0 143 13.5t82 42.5t35.5 75.5t7.5 106.5l-2 100l-4 4q-112 -46 -184 -58.5t-137 -12.5q-122 0 -200 36.5t-123.5 106t-64 172t-18.5 230.5zM230 545q0 -126 12 -213t43.5 -141t83.5 -79t132 -25q63 0 150 15.5t182 42.5v793q-54 11 -134 19.5 t-175 8.5q-63 0 -117.5 -14t-94 -57.5t-61 -127t-21.5 -222.5z"/>
<glyph unicode="h" horiz-adv-x="1046" d="M118 33v1452q0 35 27 35h56q17 0 25 -7t8 -28v-555q21 14 64 39t97 49t117.5 42.5t125.5 18.5q100 0 158.5 -27t90 -78.5t41.5 -123t10 -160.5v-657q0 -33 -33 -33h-56q-17 0 -23 6.5t-6 26.5v634q0 91 -7 149t-28 93t-60 49.5t-102 14.5q-45 0 -103 -16.5t-113 -39 t-102.5 -45.5t-72.5 -37v-802q0 -33 -31 -33h-56q-17 0 -22 6.5t-5 26.5z"/>
<glyph unicode="i" horiz-adv-x="450" d="M152 1318q0 32 14 54t60 22q45 0 59.5 -20.5t14.5 -55.5q0 -33 -13.5 -57t-60.5 -24q-50 0 -62 24t-12 57zM167 33v992q0 19 7.5 25.5t24.5 6.5h55q17 0 22.5 -6.5t5.5 -25.5v-992q0 -19 -5.5 -26t-22.5 -7h-55q-17 0 -24.5 6.5t-7.5 26.5z"/>
<glyph unicode="j" horiz-adv-x="503" d="M-74 -373v6q0 12 6 16q8 5 20 8q79 8 126.5 24.5t73.5 41.5t34.5 61t8.5 86v1164q0 24 27 23h68q27 0 27 -23v-1173q0 -56 -10.5 -111.5t-47.5 -99t-107 -68.5q-61 -22 -160 -22q-16 0 -33 1q-5 0 -18 6t-13 25zM182 1340q0 33 14.5 54t60.5 21q45 0 59 -20t14 -55 q0 -33 -13 -56t-60 -23q-50 0 -62.5 24t-12.5 55z"/>
<glyph unicode="k" horiz-adv-x="907" d="M110 24v1478q0 24 27 24h70q24 0 23 -24l-2 -951h2l168 170l319 317l15.5 15.5t23.5 5.5h87q17 0 18 -10.5t-10 -21.5l-362 -367l404 -634q4 -7 4 -12q0 -3 -1 -6q-3 -8 -19 -8h-82q-27 0 -41 24l-348 552l-176 -176v-376q0 -24 -23 -24h-70q-27 0 -27 24z"/>
<glyph unicode="l" horiz-adv-x="481" d="M163 132v1368q0 26 26 26h70q12 0 17.5 -4t5.5 -22v-1322q0 -29 4 -43.5t15.5 -22.5t32 -10t53.5 -2q29 0 30 -15l6 -50q2 -21 -19 -31q-27 -10 -53 -13.5t-49 -3.5q-78 0 -108.5 36.5t-30.5 108.5z"/>
<glyph unicode="m" horiz-adv-x="1682" d="M110 33v992q0 33 29 32h54q17 0 25 -6.5t8 -25.5v-91q33 21 74 46t90 46.5t103 37t110 15.5q118 0 182 -41.5t89 -121.5q87 64 189.5 113.5t212.5 49.5q94 0 151.5 -25t90 -72.5t44.5 -116t12 -155.5v-677q0 -33 -33 -33h-58q-17 0 -23 6.5t-6 26.5v653q0 78 -6 132 t-27 89t-58 50.5t-97 15.5q-42 0 -92.5 -15.5t-101.5 -36t-99.5 -44.5t-79.5 -44q4 -24 6 -57.5t2 -65.5v-677q0 -33 -33 -33h-62q-17 0 -20 6.5t-3 26.5v677q0 52 -5 100t-24.5 84t-56.5 57.5t-100 21.5q-39 0 -83.5 -12t-93.5 -30.5t-98 -43.5t-96 -52v-802q0 -33 -31 -33 h-56q-17 0 -23 6.5t-6 26.5z"/>
<glyph unicode="n" horiz-adv-x="1038" d="M110 33v992q0 19 6 25.5t23 6.5h56q17 0 24 -5.5t7 -26.5v-95q21 14 63.5 39t98 49t118.5 42.5t126 18.5q99 0 158 -27t90.5 -78.5t41.5 -123t10 -160.5v-657q0 -33 -33 -33h-58q-17 0 -23 6.5t-6 26.5v634q0 91 -7.5 149t-28 93t-60 49.5t-101.5 14.5 q-44 0 -101.5 -16.5t-114 -39t-103 -45.5t-70.5 -37v-802q0 -33 -31 -33h-56q-17 0 -23 6.5t-6 26.5z"/>
<glyph unicode="o" horiz-adv-x="1056" d="M98 547q0 83 12 176t56.5 172.5t127.5 131.5t228 52t232 -44.5t132.5 -119t59 -170.5t13.5 -198q0 -100 -10.5 -201t-54 -181t-131.5 -131t-241 -51q-150 0 -235.5 50t-127 131t-51.5 181t-10 202zM219 532q0 -104 12 -185.5t44.5 -139.5t91 -87t155.5 -29t158.5 28 t96.5 85t48 138t13 190q0 106 -12 187.5t-47 138t-96.5 86t-160.5 29.5q-96 0 -155 -29.5t-91.5 -87t-44.5 -139t-12 -185.5z"/>
<glyph unicode="p" horiz-adv-x="1080" d="M132 -348v1373q0 33 29 32h58q17 0 25 -6.5t8 -25.5v-95q21 14 63.5 39t96.5 49t116 42.5t125 18.5q95 0 159.5 -33t102.5 -99t53.5 -165.5t15.5 -232.5q0 -139 -18.5 -245.5t-64.5 -178t-125.5 -107t-197.5 -35.5q-63 0 -144.5 14t-179.5 57l-2 -4v-398q0 -21 -8 -27.5 t-25 -6.5h-58q-29 0 -29 34zM252 147q98 -30 179 -43t159 -13q81 0 132 24t81 77t42.5 142t12.5 219q0 129 -11.5 210.5t-36.5 128t-66.5 64t-105.5 17.5q-45 0 -100.5 -16.5t-110 -38t-101 -44.5t-74.5 -39v-688z"/>
<glyph unicode="q" horiz-adv-x="1061" d="M98 526q0 136 20.5 239t69 173.5t128 105.5t196.5 35q139 0 227 -14.5t158 -30.5q41 -11 48.5 -31.5t7.5 -45.5v-1305q0 -34 -27 -34h-2h-60q-17 0 -25 6.5t-8 27.5v396l-4 4q-113 -46 -185.5 -58.5t-137.5 -12.5q-122 0 -200 36.5t-123.5 106t-64 172t-18.5 230.5z M226 545q0 -126 12 -213t43.5 -141t83.5 -79t132 -25q63 0 150 15.5t182 42.5v793q-54 11 -134 19.5t-177 8.5q-62 0 -116 -14t-93.5 -57.5t-61 -127t-21.5 -222.5z"/>
<glyph unicode="r" horiz-adv-x="603" d="M152 33v992q0 33 28 32h56q17 0 25 -6.5t8 -25.5v-95q15 10 46 29.5t68.5 39.5t80 39t85.5 30q6 3 10 3q3 -1 5 -3q4 -4 5 -15l9 -74q1 -24 -20 -30q-44 -9 -86 -24.5t-81 -31.5t-71 -31t-49 -24v-805q0 -33 -33 -33h-58q-17 0 -22.5 6.5t-5.5 26.5z"/>
<glyph unicode="s" horiz-adv-x="897" d="M91 67l7 28q2 19 26 21q35 -5 79 -9.5t87.5 -8t81.5 -6.5t60 -3q129 0 190.5 41.5t61.5 145.5q0 56 -9.5 93t-35.5 60t-71.5 37t-118.5 25q-78 13 -143 29t-113 47.5t-75 83t-27 128.5q0 145 92.5 222.5t265.5 77.5q27 0 65.5 -2t82 -7.5t85 -13.5t72.5 -20q17 -7 18 -18 t1 -19l-9 -40q-2 -10 -13 -12.5t-26 0.5q-56 4 -127.5 12.5t-150.5 8.5q-136 0 -185 -43.5t-49 -141.5q0 -52 14 -82t43.5 -48.5t76 -28t111.5 -21.5q74 -13 139 -29t112 -48.5t74 -87.5t27 -142t-29 -147t-81.5 -96t-122 -52t-147.5 -16q-84 0 -174.5 10.5t-143.5 33.5 q-17 7 -20 17q-2 6 -2 12q0 5 1 9z"/>
<glyph unicode="t" horiz-adv-x="669" d="M63 984v47q0 27 26 26h128v241q0 25 24 30l63 20q10 4 16 4t8 -4q6 -6 6 -24v-267h239q17 0 20.5 -5.5t3.5 -17.5v-50q0 -13 -3.5 -19t-20.5 -6h-239v-725q0 -37 4.5 -63t19.5 -43.5t44.5 -26t77.5 -8.5q11 0 29.5 1t39 2.5t38.5 2.5t32 3q17 2 22.5 -2.5t9.5 -16.5 l7 -35q1 -4 1 -7q1 -8 -3 -13q-4 -7 -14 -11q-14 -6 -40 -12.5t-57 -12t-63.5 -7.5t-60.5 -2q-122 0 -164 55t-42 159v762h-126q-26 0 -26 25z"/>
<glyph unicode="u" horiz-adv-x="1065" d="M120 369v656q0 32 30 32h2h59q17 0 22 -6.5t5 -25.5v-634q0 -91 8 -150t31 -94t62.5 -48.5t103.5 -13.5q44 0 101 16.5t113.5 39t103.5 45.5t70 36v803q0 32 29 32h2h56q17 0 23 -6.5t6 -25.5v-992q0 -19 -5.5 -26t-23.5 -7h-56q-17 0 -25 6.5t-8 26.5v97 q-21 -14 -62.5 -39.5t-96.5 -50.5t-118 -42t-127 -17q-100 0 -159 27t-92 77t-43.5 122.5t-10.5 161.5z"/>
<glyph unicode="v" horiz-adv-x="969" d="M48 1048q2 8 15 7h80q17 0 24 -24l258 -708q15 -41 29 -80q10 -33 20 -64.5t15 -46.5q4 15 14.5 47t22.5 66q12 39 27 85l255 708q4 10 7 14.5t14 4.5h85q12 -1 14 -7v-3q0 -6 -4 -13l-369 -1015q-8 -19 -25 -19h-78q-13 0 -19 4t-10 15l-373 1010q-3 7 -3 13q0 4 1 6z "/>
<glyph unicode="w" horiz-adv-x="1458" d="M46 1048q2 8 14 7h81q17 0 24 -24l208 -656q17 -58 33 -108q13 -43 24 -82.5t15 -54.5q4 15 16 55.5t26 83.5q14 50 31 110l153 493l-50 157q-4 11 -2 18.5t15 7.5h80q17 0 24 -24l202 -636q17 -62 35 -117q13 -46 25.5 -89.5t18.5 -58.5q4 15 16.5 57.5t25.5 90.5 q15 54 35 120l200 640q5 10 8 14.5t14 4.5h84q14 0 14 -9q0 -6 -3 -14l-328 -1015q-8 -19 -28 -19h-75q-22 0 -29 19l-168 509l-56 180l-60 -194l-159 -495q-9 -19 -26 -19h-76q-21 0 -29 19l-331 1010q-3 7 -3 13q0 4 1 6z"/>
<glyph unicode="x" horiz-adv-x="872" d="M22 8q-1 3 -1 6q0 6 5 12l339 515l-324 490q-6 11 -3 18.5t16 7.5h87q11 0 15.5 -5.5t10.5 -15.5l263 -398l264 398q5 10 9.5 15.5t17.5 5.5h87q12 0 15.5 -7.5t-3.5 -18.5l-325 -490l340 -515q3 -5 3 -10q0 -4 -2 -7q-4 -9 -16 -9h-86q-11 0 -15.5 6.5t-10.5 14.5 l-278 420l-276 -420q-7 -8 -11 -14.5t-15 -6.5h-89q-13 0 -17 8z"/>
<glyph unicode="y" horiz-adv-x="950" d="M39 1048q2 7 15 7h78q17 0 24 -24l289 -793l39 -118l38 125l263 793q5 10 8.5 14.5t14.5 4.5h85q13 0 13 -9q0 -6 -3 -14l-478 -1390q-4 -13 -12.5 -19.5t-25.5 -6.5h-64q-24 0 -17 26l117 339l-382 1046q-3 7 -3 13q0 3 1 6z"/>
<glyph unicode="z" horiz-adv-x="905" d="M67 21v39q0 22 4.5 34t15.5 26l609 835h-561q-19 0 -26 7.5t-7 25.5v41q0 17 7 22.5t26 5.5h660q17 0 25.5 -3.5t8.5 -19.5v-48q0 -25 -7.5 -35.5t-13.5 -20.5l-597 -824h584q35 0 34 -28v-45q0 -17 -6.5 -25t-27.5 -8h-704q-24 0 -24 21z"/>
<glyph unicode="{" horiz-adv-x="524" d="M41 634v31q0 17 22 23q41 13 63.5 37t35 56.5t14.5 69.5t2 75l2 420q0 31 4.5 63.5t19.5 58.5t45.5 42t80.5 16q33 0 57.5 -4t37.5 -6q21 -2 22 -29v-33q0 -15 -6 -18t-18 -3l-60 -4q-46 -4 -59.5 -22.5t-13.5 -58.5v-430q0 -39 -4 -81t-15.5 -78t-33.5 -65t-59 -43v-4 q39 -25 61 -51.5t32.5 -58t13.5 -69.5t3 -86v-454q0 -37 14.5 -55t60.5 -22l60 -5q11 -2 17.5 -4.5t6.5 -17.5v-35q0 -26 -22 -27q-13 -3 -37.5 -7.5t-57.5 -4.5q-50 0 -80.5 18.5t-45.5 48t-19.5 64t-4.5 65.5l-2 427q0 39 -2 77.5t-14.5 69.5t-35 55t-63.5 35 q-22 6 -22 24z"/>
<glyph unicode="|" horiz-adv-x="479" d="M187 -219v1698q0 19 7 25t25 6h44q17 0 22 -6t5 -25v-1698q0 -19 -5 -26t-22 -7h-44q-17 0 -24.5 7t-7.5 26z"/>
<glyph unicode="}" horiz-adv-x="524" d="M46 -176q0 15 6 17.5t18 4.5l60 5q46 4 60.5 22.5t14.5 54.5v454q0 47 3 85.5t13.5 70t32.5 58.5t61 51v4q-37 13 -59 42.5t-33.5 65.5t-16.5 78t-5 81v430q0 40 -12.5 58t-58.5 23l-60 4q-11 0 -17.5 3t-6.5 18v33q0 27 21 29q13 2 38 6t58 4q50 0 80 -16t45.5 -42 t20 -59t4.5 -63l2 -420q0 -39 2 -75.5t14 -69t35 -56t66 -37.5q20 -6 20 -23v-31q0 -15 -20 -24q-43 -11 -66 -35t-35 -55t-14 -69.5t-2 -77.5l-2 -427q0 -31 -4.5 -65.5t-20 -64t-45.5 -48t-80 -18.5q-33 0 -57.5 4.5t-38.5 7.5q-21 2 -21 27v35z"/>
<glyph unicode="~" d="M138 595.5q3 9.5 7 19.5q48 89 111 123.5t128 34.5q52 0 107.5 -22t109.5 -47t104.5 -46.5t91.5 -21.5q54 0 85.5 26t61.5 67q9 11 16.5 20t25.5 -2l33 -20q17 -10 14.5 -19t-4.5 -14q-45 -82 -104 -123t-137 -41q-50 0 -103 21.5t-107 47.5t-104.5 48t-94.5 22 q-49 0 -81.5 -25t-73.5 -75q-11 -13 -17 -17.5t-23 3.5l-32 21q-17 10 -14 19.5z"/>
<glyph unicode="¡" horiz-adv-x="450" d="M137 966q0 37 14 64t71 27q56 0 71 -27t15 -64q0 -42 -16 -65.5t-70 -23.5q-52 0 -68.5 24.5t-16.5 64.5zM167 -375l20 1019q0 20 5 26.5t23 6.5h26q12 0 17 -6t7 -27l28 -1019q0 -35 -28 -35h-66q-17 0 -24.5 6t-7.5 29z"/>
<glyph unicode="¢" horiz-adv-x="1178" d="M213 536q0 104 11.5 200.5t53 171t117.5 121t206 50.5v251q0 25 22 25h48q21 0 21 -25v-253q63 -4 134 -14t125 -32q21 -6 17 -30l-7 -37q-4 -17 -37 -17q-62 6 -146 14.5t-146 8.5q-83 0 -138 -23t-90 -73.5t-49 -133t-14 -202.5q0 -126 15 -211.5t50 -137.5t90 -75 t136 -23q28 0 67 2t79 5.5t80.5 6.5t71.5 7q14 2 20.5 -1t10.5 -18l7 -33q2 -21 -17 -31q-50 -19 -121.5 -29.5t-137.5 -14.5v-250q0 -24 -19 -23h-48q-24 0 -24 23v248q-130 2 -206 45.5t-117.5 117t-53 173.5t-11.5 217z"/>
<glyph unicode="£" d="M137 21v49q0 30 30 42q48 22 74 64.5t36.5 94.5t13 108t2.5 108v168h-102q-19 0 -25.5 8t-6.5 25v37q0 17 6.5 23t25.5 6h102v336q0 82 30.5 149.5t81.5 115t120.5 73.5t147.5 26q33 0 76.5 -3t89 -9.5t92 -17.5t84.5 -26q11 -4 13.5 -13t0.5 -20l-8 -35q-2 -8 -7 -15.5 t-22 -5.5q-41 4 -77 9.5t-72.5 11.5t-77 9t-92.5 3q-120 0 -190.5 -67.5t-70.5 -193.5l2 -327h421q19 0 26 -6t7 -23v-37q0 -17 -6.5 -25t-26.5 -8h-421v-168q0 -55 -3 -113.5t-12.5 -110.5t-28 -92.5t-47.5 -58.5h678q19 0 26 -7t7 -24v-60q0 -17 -6.5 -19t-26.5 -2h-840 q-24 0 -24 21z"/>
<glyph unicode="¥" horiz-adv-x="1178" d="M98 1417q-9 19 12 20h95q12 0 17.5 -4t9.5 -16l335 -632l26 -36q91 170 178 336t178 332q10 19 30 20h87q25 0 13 -22l-410 -740h354q17 0 17 -17v-61q0 -13 -15 -13h-862q-15 0 -16 15v61q0 15 18 15h341zM147 387v60q0 15 18 15h858q17 0 17 -19v-59q0 -13 -15 -13 h-376v-345q0 -26 -24 -26h-74q-26 0 -25 26v345h-363q-15 0 -16 16z"/>
<glyph unicode="§" horiz-adv-x="889" d="M87 597q0 72 32.5 159t102.5 145q-79 52 -103 111t-24 128q0 78 36 137t93.5 97.5t129 58t145.5 19.5q70 0 150 -15.5t136 -48.5q17 -9 10 -33l-16 -33q-4 -15 -25 -9q-48 13 -115.5 23t-139.5 8q-54 0 -103.5 -11t-90 -34t-66.5 -60.5t-28 -94.5q-4 -63 34.5 -108.5 t82.5 -71.5q70 -42 140 -71t142 -62q84 -41 145 -105.5t61 -161.5q0 -83 -29 -156.5t-105 -146.5q72 -56 98 -113t26 -122q0 -108 -43.5 -176.5t-109 -107t-139 -51t-132.5 -12.5q-72 0 -149 20.5t-133 53.5q-17 13 -9 32l15 33q4 6 10 9t19 -1q76 -24 133 -36t116 -12 q56 0 111.5 12.5t99 39.5t70.5 73.5t27 117.5q0 29 -11.5 57t-29 52t-40.5 42.5t-44 32.5q-67 39 -138 67t-141 62q-28 15 -62.5 38t-66 55.5t-52 74t-20.5 95.5zM195 638q0 -83 49 -131.5t119 -85.5q56 -31 121 -54.5t121 -51.5q44 52 71.5 101t27.5 112q0 43 -14.5 76.5 t-37 59.5t-52 45.5t-59.5 34.5q-59 31 -120 55t-121 56q-46 -43 -75.5 -99.5t-29.5 -117.5z"/>
<glyph unicode="¨" horiz-adv-x="1052" d="M293 1313q0 31 13 51.5t57 20.5q43 0 56 -19.5t13 -52.5q0 -30 -12 -53t-57 -23q-46 0 -58 23t-12 53zM673 1313q0 31 13 51.5t56 20.5t56.5 -19.5t13.5 -52.5q0 -30 -13.5 -53t-56.5 -23q-48 0 -58.5 23t-10.5 53z"/>
<glyph unicode="©" horiz-adv-x="1711" d="M91 727q0 159 60 298t164 240.5t244 161.5t299 60q163 0 304 -60t243.5 -161.5t161.5 -240.5t59 -298t-61 -298t-165 -240.5t-244.5 -161.5t-297.5 -60q-159 0 -299 60t-244 161.5t-164 241t-60 297.5zM176 727q0 -141 53 -266t145 -218.5t217.5 -146.5t266.5 -53t266 53 t217 146.5t146 218.5t54 266t-54 266t-146 217.5t-217 146.5t-266 54t-266.5 -54t-217.5 -146.5t-145 -217.5t-53 -266zM543 696q0 85 13 163.5t47.5 139t97.5 96.5t161 36q19 0 46.5 -1t56.5 -4t58.5 -8.5t51.5 -12.5q15 -9 13 -24l-5 -31q0 -4 -4 -10t-15 -4 q-45 4 -97.5 8t-104.5 4q-79 0 -124.5 -31t-70.5 -81t-31 -113t-6 -127q0 -62 8.5 -122t33 -108.5t70.5 -78t118 -29.5q49 0 100 3.5t99 7.5q15 0 18.5 -4.5t7.5 -16.5q0 -5 1.5 -11.5t1.5 -11.5q0 -6 -2.5 -12.5t-10.5 -10.5q-21 -8 -53 -13t-64 -8t-59 -4t-41 -1 q-94 0 -155 35t-96.5 92t-49.5 133.5t-14 159.5z"/>
<glyph unicode="ª" horiz-adv-x="746" d="M58 754q0 124 65.5 182t208.5 58h217v52q0 81 -38 115.5t-151 34.5q-49 0 -99 -3.5t-102 -11.5q-29 -9 -33 15l-6 28q-7 22 29 33q22 7 51.5 12t61 8t63 5.5t54.5 2.5q85 0 139.5 -16t84 -48t40 -78.5t10.5 -108.5v-332q0 -44 11 -51t50 -11q20 0 20 -15v-35 q0 -19 -28 -21q-15 -2 -27 -2h-24q-56 0 -78 20t-26 68h-2q-54 -37 -123.5 -68.5t-168.5 -31.5q-104 0 -151.5 50t-47.5 149zM163 760q0 -63 26 -88t95 -25q33 0 70 9t72.5 21.5t67.5 27t55 24.5v176h-228q-70 0 -114 -28t-44 -117z"/>
<glyph unicode="«" horiz-adv-x="835" d="M95.5 368.5q-2.5 8.5 10.5 26.5l209 263q8 11 17 18.5t28 7.5h75q10 0 13.5 -6.5t-3.5 -15.5l-230 -289l239 -290q6 -9 3 -13.5t-8 -4.5h-86q-17 0 -25 4.5t-17 15.5l-217 267q-6 8 -8.5 16.5zM400 368.5q-2 8.5 10 26.5l209 263q9 11 17 18.5t29 7.5h73q10 0 14 -6.5 t-3 -15.5l-231 -289l240 -290q6 -9 3 -13.5t-7 -4.5h-87q-17 0 -25 4.5t-17 15.5l-217 267q-6 8 -8 16.5z"/>
<glyph unicode="¬" horiz-adv-x="1143" d="M165 673v69q0 24 26 24h766q25 0 25 -24v-419q0 -26 -25 -25h-56q-17 0 -17 23v334h-695q-25 0 -24 18z"/>
<glyph unicode="®" horiz-adv-x="1125" d="M83 1098q0 100 38 187t102.5 151t151.5 101t187 37q102 0 190.5 -37t152 -101t100.5 -151t37 -187q0 -99 -38 -186t-103.5 -152.5t-152.5 -102t-186 -36.5q-100 0 -187 36.5t-151.5 102t-102.5 152.5t-38 186zM152 1098q0 -85 32.5 -160.5t88 -130.5t130.5 -88t159 -33 q85 0 160 33t130 88t88 130.5t33 160.5t-33 159.5t-88 130.5t-130 88t-160 32t-159.5 -32t-130 -88t-88 -130.5t-32.5 -159.5zM402 825v538q0 11 7.5 14.5t15.5 3.5h170q64 0 115.5 -39t51.5 -130q0 -50 -22.5 -95.5t-79.5 -68.5l111 -225q4 -7 2 -14.5t-13 -7.5h-39 q-15 0 -27 15l-104 220h-119v-209q0 -11 -3.5 -18.5t-15.5 -7.5h-31q-13 0 -16 6.5t-3 17.5zM471 1098h105q19 0 39.5 3.5t37 15.5t27 34.5t10.5 62.5q0 62 -34.5 81.5t-77.5 19.5h-107v-217z"/>
<glyph unicode="¯" horiz-adv-x="1056" d="M288 1285v68q0 19 23 19h516q21 0 22 -19v-68q0 -17 -22 -17h-516q-22 0 -23 17z"/>
<glyph unicode="°" horiz-adv-x="731" d="M110 1170q0 54 22 104t59 87t87 59t106 22t105 -22t85 -60t56.5 -87t20.5 -103q0 -56 -20.5 -105.5t-56.5 -85t-84.5 -56t-105.5 -20.5q-131 0 -202.5 77t-71.5 190zM205 1166q0 -72 50.5 -123t123.5 -51t124.5 51t51.5 123q0 37 -13.5 70.5t-37.5 58.5t-57 39t-68 14 q-74 0 -124 -53.5t-50 -128.5z"/>
<glyph unicode="±" horiz-adv-x="1178" d="M180 679v63q0 19 21 20h333v336q0 21 21 22h70q17 0 17 -22v-336h333q11 0 17.5 -3t6.5 -17v-63q0 -17 -24 -17h-333v-349q0 -21 -19 -23h-68q-21 0 -21 23v349h-333q-21 0 -21 17zM182 108v57q0 22 23 22h770q21 0 21 -22v-59q0 -17 -21 -17h-770q-22 0 -23 19z"/>
<glyph unicode="´" horiz-adv-x="1052" d="M501 1233l150 296q8 14 28 6l81 -35q17 -9 4 -26l-186 -278q-11 -11 -25 -5l-45 18q-13 7 -7 24z"/>
<glyph unicode="¶" horiz-adv-x="1013" d="M52 1034q0 93 30 167.5t83.5 125.5t126.5 78.5t157 27.5h441q29 0 28 -29v-56q0 -30 -28 -30h-67v-1485q0 -29 -30 -28h-55q-31 0 -30 28v1487h-226v-1487q0 -29 -28 -28h-54q-33 0 -33 28v844q-83 0 -141.5 32.5t-97.5 84t-57.5 114t-18.5 126.5z"/>
<glyph unicode="·" horiz-adv-x="394" d="M118 549q0 37 14.5 61t66.5 24q50 0 66.5 -23t16.5 -62q0 -37 -15 -62t-68 -25q-56 0 -68.5 26t-12.5 61z"/>
<glyph unicode="¸" horiz-adv-x="887" d="M319 -363l6 27q5 17 25 13q33 -5 66 -8t57 -3q47 0 82 17t35 67q0 43 -28 64t-110 21q-35 0 -22 37l63 163l58 -14l-47 -125q110 -4 148 -44.5t38 -96.5q0 -83 -58.5 -123t-153.5 -40q-26 0 -68.5 6.5t-77.5 17.5q-19 5 -13 21z"/>
<glyph unicode="º" horiz-adv-x="733" d="M63 934q0 52 9 112.5t39 114t90 88t162 34.5q99 0 160 -30.5t93.5 -80t43.5 -111.5t11 -127t-8 -132.5t-38 -122t-92 -89.5t-170 -35q-106 0 -167 35t-90.5 89.5t-36 121.5t-6.5 133zM167 920q0 -62 7.5 -112t29.5 -86t60 -54.5t99 -18.5q62 0 102.5 18.5t63 53.5 t30.5 86t8 113q0 65 -8 115t-30.5 83.5t-62 52t-103.5 18.5q-61 0 -99 -18.5t-60 -54t-29.5 -85t-7.5 -111.5z"/>
<glyph unicode="»" horiz-adv-x="835" d="M84 69.5q-3 4.5 3 13.5l238 290l-230 289q-6 9 -3 15.5t14 6.5h74q19 0 28 -7.5t18 -18.5l209 -263q12 -17 10 -26t-8 -17l-218 -267q-8 -11 -16 -15.5t-25 -4.5h-87q-4 0 -7 4.5zM387.5 69.5q-3.5 4.5 3.5 13.5l239 290l-230 289q-7 9 -3.5 15.5t13.5 6.5h74 q20 0 29 -7.5t17 -18.5l208 -263q12 -17 10.5 -26t-8.5 -17l-216 -267q-9 -11 -17 -15.5t-25 -4.5h-87q-4 0 -7.5 4.5z"/>
<glyph unicode="¿" horiz-adv-x="754" d="M65 -106q0 52 15 93.5t39 72.5t56 56t61 49q48 35 90.5 70.5t74 78t50 93.5t18.5 117q0 8 1 26.5t1 39t-1 39t-1 31.5q0 25 22 24h52q26 0 28 -22q7 -47 7 -89.5v-71.5q0 -66 -21 -122t-57 -104.5t-81.5 -90t-95.5 -80.5q-30 -24 -56 -44.5t-46 -43t-30.5 -49.5 t-10.5 -65q0 -121 71.5 -170t228.5 -49q50 0 101 4.5t101 8.5q17 0 22.5 -7.5t5.5 -16.5l7 -35q4 -24 -15 -32q-50 -17 -112 -24.5t-126 -7.5q-199 0 -299 82.5t-100 238.5zM414 964q0 37 15.5 64t69.5 27q56 0 70.5 -27t14.5 -64q0 -40 -16.5 -65t-68.5 -25q-54 0 -69.5 24 t-15.5 66z"/>
<glyph unicode="À" horiz-adv-x="1154" d="M46 26l447 1381q4 17 10.5 24.5t24.5 7.5h91q17 0 24.5 -10t11.5 -22l452 -1386q8 -21 -11 -21h-89q-24 0 -30 21l-115 377h-580l-117 -367q-6 -19 -16 -25t-27 -6h-62q-24 0 -14 26zM255.5 1704q-3.5 7 3.5 15l56 68q8 11 11.5 12t14.5 -3l269 -194q14 -11 5 -24 l-33 -37q-11 -10 -22 -4l-295 156q-6 4 -9.5 11zM317 506h510l-191 608q-19 65 -29 96t-14.5 47.5t-7.5 28.5t-9 40h-5q-6 -29 -9.5 -40.5t-9 -28t-15 -46.5t-29.5 -95z"/>
<glyph unicode="Á" horiz-adv-x="1154" d="M46 26l447 1381q4 17 10.5 24.5t24.5 7.5h91q17 0 24.5 -10t11.5 -22l452 -1386q8 -21 -11 -21h-89q-24 0 -30 21l-115 377h-580l-117 -367q-6 -19 -16 -25t-27 -6h-62q-24 0 -14 26zM317 506h510l-191 608q-19 65 -29 96t-14.5 47.5t-7.5 28.5t-9 40h-5 q-6 -29 -9.5 -40.5t-9 -28t-15 -46.5t-29.5 -95zM526 1578q-11 11 6 22l269 194q11 6 15 5t13 -12l55 -70q11 -17 -7 -26l-295 -156q-13 -6 -24 4z"/>
<glyph unicode="Â" horiz-adv-x="1154" d="M46 26l447 1381q4 17 10.5 24.5t24.5 7.5h91q17 0 24.5 -10t11.5 -22l452 -1386q8 -21 -11 -21h-89q-24 0 -30 21l-115 377h-580l-117 -367q-6 -19 -16 -25t-27 -6h-62q-24 0 -14 26zM267 1564q-8 10 0 21l215 195q13 10 22.5 15t23.5 5h97q17 0 27 -4.5t21 -15.5 l208 -191q15 -13 3 -25l-33 -31q-15 -9 -26 0l-249 171l-246 -171q-11 -7 -15 -8t-15 6zM317 506h510l-191 608q-19 65 -29 96t-14.5 47.5t-7.5 28.5t-9 40h-5q-6 -29 -9.5 -40.5t-9 -28t-15 -46.5t-29.5 -95z"/>
<glyph unicode="Ã" horiz-adv-x="1154" d="M46 26l447 1381q4 17 10.5 24.5t24.5 7.5h91q17 0 24.5 -10t11.5 -22l452 -1386q8 -21 -11 -21h-89q-24 0 -30 21l-115 377h-580l-117 -367q-6 -19 -16 -25t-27 -6h-62q-24 0 -14 26zM231 1573.5q1 11.5 5 21.5q37 83 88 117t103 34q39 0 81.5 -18.5t84 -39.5t79.5 -39.5 t68 -18.5q39 0 63 23t46 60q6 11 11.5 15t20.5 -2l35 -13q13 -4 10.5 -15.5t-4.5 -15.5q-56 -156 -182 -156q-39 0 -81 19t-83.5 39t-80.5 38.5t-72 18.5q-24 0 -53 -18.5t-59 -64.5q-9 -13 -16 -16t-22 3l-30 13q-13 4 -12 15.5zM317 506h510l-191 608q-19 65 -29 96 t-14.5 47.5t-7.5 28.5t-9 40h-5q-6 -29 -9.5 -40.5t-9 -28t-15 -46.5t-29.5 -95z"/>
<glyph unicode="Ä" horiz-adv-x="1154" d="M46 26l447 1381q4 17 10.5 24.5t24.5 7.5h91q17 0 24.5 -10t11.5 -22l452 -1386q8 -21 -11 -21h-89q-24 0 -30 21l-115 377h-580l-117 -367q-6 -19 -16 -25t-27 -6h-62q-24 0 -14 26zM313 1641q0 31 12.5 51.5t56.5 20.5q45 0 57.5 -19.5t12.5 -52.5t-12.5 -54t-57.5 -21 q-48 0 -58.5 22.5t-10.5 52.5zM317 506h510l-191 608q-19 65 -29 96t-14.5 47.5t-7.5 28.5t-9 40h-5q-6 -29 -9.5 -40.5t-9 -28t-15 -46.5t-29.5 -95zM673 1641q0 31 14.5 51.5t56.5 20.5q44 0 57 -19.5t13 -52.5t-13 -54t-57 -21q-48 0 -59.5 22.5t-11.5 52.5z"/>
<glyph unicode="Å" horiz-adv-x="1154" d="M46 26l447 1381q4 17 10.5 24.5t24.5 7.5h91q17 0 24.5 -10t11.5 -22l452 -1386q8 -21 -11 -21h-89q-24 0 -30 21l-115 377h-580l-117 -367q-6 -19 -16 -25t-27 -6h-62q-24 0 -14 26zM317 506h510l-191 608q-19 65 -29 96t-14.5 47.5t-7.5 28.5t-9 40h-5 q-6 -29 -9.5 -40.5t-9 -28t-15 -46.5t-29.5 -95zM369 1684q0 44 17.5 82t46.5 65t66 42.5t79 15.5q43 0 79.5 -16.5t65.5 -44.5t43.5 -65t14.5 -79q0 -41 -14.5 -77.5t-43.5 -63.5t-65.5 -43.5t-79.5 -16.5q-42 0 -79 15t-66 42.5t-46.5 64t-17.5 79.5zM458 1684 q0 -52 33 -87.5t87 -35.5q50 0 84 35.5t34 87.5q0 50 -34 88t-84 38t-85 -38t-35 -88z"/>
<glyph unicode="Æ" horiz-adv-x="1761" d="M35 11l4 13l695 1391q8 24 32 24h862q25 0 25 -24v-67q0 -24 -25 -24h-649v-521h585q24 0 23 -22v-64q0 -25 -23 -25h-585v-580h664q24 0 24 -23v-68q0 -21 -26 -21h-760q-25 0 -23 21v374h-504l-189 -371q-8 -17 -15 -20.5t-18 -3.5h-80q-17 0 -17 11zM410 508h448v816 h-52q-35 -74 -81 -166t-91 -188z"/>
<glyph unicode="Ç" horiz-adv-x="1110" d="M135 704q0 147 20.5 283t79 239.5t162.5 165.5t274 62q33 0 81.5 -3t102.5 -9.5t106 -17.5t92 -26q10 -4 12.5 -13t0.5 -20l-9 -35q-2 -8 -6.5 -15.5t-21.5 -5.5q-82 11 -170 22t-192 11q-139 0 -220.5 -54.5t-123 -143.5t-52 -203.5t-10.5 -236.5q0 -110 13.5 -220.5 t57 -196.5t123 -139t212.5 -53q104 0 192 11.5t170 21.5q17 2 21.5 -5t6.5 -15l9 -36q2 -11 0 -20t-13 -13q-40 -15 -92 -26t-106 -17.5t-102.5 -9.5t-81.5 -3h-6l-33 -87q110 -4 148 -44.5t38 -96.5q0 -83 -58 -123t-155 -40q-26 0 -68 6.5t-77 17.5q-19 5 -13 21l7 27 q4 17 24 13q33 -5 66.5 -8t56.5 -3q48 0 83 17t35 67q0 43 -28.5 64t-110.5 21q-35 0 -22 37l43 115q-143 13 -234 75t-142 158.5t-70.5 221.5t-19.5 262z"/>
<glyph unicode="È" horiz-adv-x="1032" d="M149 29v1380q0 15 7 22.5t26 7.5h727q20 0 26.5 -6t6.5 -22v-54q0 -17 -6 -24t-27 -7h-636v-523h572q19 0 25.5 -5t6.5 -23v-50q0 -17 -6.5 -25t-25.5 -8h-572v-580h651q19 0 26 -7t7 -24v-52q0 -17 -6.5 -23t-26.5 -6h-742q-19 0 -26 5.5t-7 23.5zM255.5 1704 q-3.5 7 3.5 15l56 68q8 11 11.5 12t14.5 -3l269 -194q14 -11 5 -24l-33 -37q-11 -10 -22 -4l-295 156q-6 4 -9.5 11z"/>
<glyph unicode="É" horiz-adv-x="1032" d="M149 29v1380q0 15 7 22.5t26 7.5h727q20 0 26.5 -6t6.5 -22v-54q0 -17 -6 -24t-27 -7h-636v-523h572q19 0 25.5 -5t6.5 -23v-50q0 -17 -6.5 -25t-25.5 -8h-572v-580h651q19 0 26 -7t7 -24v-52q0 -17 -6.5 -23t-26.5 -6h-742q-19 0 -26 5.5t-7 23.5zM482 1578q-10 11 7 22 l269 194q10 6 14.5 5t12.5 -12l56 -70q10 -17 -8 -26l-295 -156q-12 -6 -24 4z"/>
<glyph unicode="Ê" horiz-adv-x="1032" d="M149 29v1380q0 15 7 22.5t26 7.5h727q20 0 26.5 -6t6.5 -22v-54q0 -17 -6 -24t-27 -7h-636v-523h572q19 0 25.5 -5t6.5 -23v-50q0 -17 -6.5 -25t-25.5 -8h-572v-580h651q19 0 26 -7t7 -24v-52q0 -17 -6.5 -23t-26.5 -6h-742q-19 0 -26 5.5t-7 23.5zM252 1564q-8 10 0 21 l214 195q13 10 23 15t23 5h98q16 0 26.5 -4.5t21.5 -15.5l208 -191q15 -13 2 -25l-33 -31q-15 -9 -25 0l-250 171l-245 -171q-11 -7 -15 -8t-16 6z"/>
<glyph unicode="Ë" horiz-adv-x="1032" d="M149 29v1380q0 15 7 22.5t26 7.5h727q20 0 26.5 -6t6.5 -22v-54q0 -17 -6 -24t-27 -7h-636v-523h572q19 0 25.5 -5t6.5 -23v-50q0 -17 -6.5 -25t-25.5 -8h-572v-580h651q19 0 26 -7t7 -24v-52q0 -17 -6.5 -23t-26.5 -6h-742q-19 0 -26 5.5t-7 23.5zM296 1641 q0 31 12.5 51.5t56.5 20.5q45 0 57.5 -19.5t12.5 -52.5t-12.5 -54t-57.5 -21q-48 0 -58.5 22.5t-10.5 52.5zM655 1641q0 31 14.5 51.5t57.5 20.5q44 0 57 -19.5t13 -52.5t-13 -54t-57 -21q-48 0 -60 22.5t-12 52.5z"/>
<glyph unicode="Ì" horiz-adv-x="507" d="M-59.5 1704q-3.5 7 3.5 15l56 68q8 11 11.5 12t14.5 -3l270 -194q15 -11 4 -24l-33 -37q-10 -10 -22 -4l-295 156q-6 4 -9.5 11zM193 33v1371q0 22 8 28.5t25 6.5h60q29 0 29 -35v-1371q0 -19 -5.5 -26t-23.5 -7h-60q-17 0 -25 6.5t-8 26.5z"/>
<glyph unicode="Í" horiz-adv-x="507" d="M193 33v1371q0 22 8 28.5t25 6.5h60q29 0 29 -35v-1371q0 -19 -5.5 -26t-23.5 -7h-60q-17 0 -25 6.5t-8 26.5zM209 1578q-11 11 6 22l269 194q11 6 15.5 5t12.5 -12l55 -70q11 -17 -7 -26l-295 -156q-13 -6 -24 4z"/>
<glyph unicode="Î" horiz-adv-x="507" d="M-50 1564q-8 10 0 21l215 195q13 10 22.5 15t23.5 5h97q17 0 27.5 -4.5t20.5 -15.5l208 -191q15 -13 3 -25l-33 -31q-15 -9 -26 0l-249 171l-246 -171q-11 -7 -15 -8t-15 6zM193 33v1371q0 22 8 28.5t25 6.5h60q29 0 29 -35v-1371q0 -19 -5.5 -26t-23.5 -7h-60 q-17 0 -25 6.5t-8 26.5z"/>
<glyph unicode="Ï" horiz-adv-x="507" d="M4 1641q0 31 13.5 51.5t56.5 20.5q46 0 57.5 -19.5t11.5 -52.5t-11.5 -54t-57.5 -21q-48 0 -59 22.5t-11 52.5zM193 33v1371q0 22 8 28.5t25 6.5h60q29 0 29 -35v-1371q0 -19 -5.5 -26t-23.5 -7h-60q-17 0 -25 6.5t-8 26.5zM365 1641q0 31 14 51.5t58 20.5q43 0 56 -19.5 t13 -52.5t-13 -54t-56 -21q-48 0 -60 22.5t-12 52.5z"/>
<glyph unicode="Ð" horiz-adv-x="1293" d="M-6 704v67q0 19 21 19h141v614q0 15 7 25t28 10h402q169 0 279 -55.5t174 -151t89 -227t25 -282.5q0 -154 -24 -286.5t-88 -229.5t-174 -152t-281 -55h-394q-28 0 -35.5 7.5t-7.5 25.5v653h-141q-21 0 -21 18zM282 112h294q30 0 75 2t95.5 16.5t101.5 49.5t91 101.5 t65 169t25 255.5q0 156 -22.5 262.5t-60 175t-84 106t-95 54t-94 19.5t-80.5 3h-311v-536h250q21 0 21 -19v-67q0 -17 -21 -18h-250v-574z"/>
<glyph unicode="Ñ" horiz-adv-x="1330" d="M154 33v1380q0 11 6.5 18.5t19.5 7.5h63q19 0 30 -9t20 -19l645 -1009l119 -187h4l3 1189q0 22 6.5 28.5t23.5 6.5h52q28 0 28 -35l3 -1373q0 -31 -27 -31h-54q-24 0 -35 6.5t-21 24.5l-628 978l-139 226h-6l2 -1202q0 -19 -5 -26t-23 -7h-54q-17 0 -25 6.5t-8 26.5z M324 1571.5q1 11.5 6 21.5q37 83 88 117t104 34q39 0 80.5 -18.5t83 -39.5t79.5 -39.5t68 -18.5q39 0 63 23t46 60q7 10 12 14.5t21 -1.5l34 -13q13 -4 11.5 -15.5t-5.5 -15.5q-56 -156 -182 -156q-39 0 -81 18.5t-83 39t-80.5 39t-72.5 18.5q-24 0 -52.5 -18.5t-59.5 -64.5 q-9 -13 -15.5 -16t-21.5 3l-31 13q-13 4 -12 15.5z"/>
<glyph unicode="Ò" horiz-adv-x="1358" d="M135 740q0 70 6 149t26 159.5t56 154t95 130.5t145 90t208 33q180 0 288.5 -62t166 -162.5t76 -230t18.5 -261.5q0 -133 -15.5 -267.5t-71.5 -243.5t-165.5 -178.5t-296.5 -69.5q-184 0 -291 69.5t-161 178.5t-69 243.5t-15 267.5zM261 719q0 -135 18.5 -250t65 -200 t125.5 -133.5t201 -48.5t203 45.5t131 128t71.5 200t21.5 258.5q0 145 -19.5 262t-67 200t-131 128.5t-209.5 45.5q-120 0 -199 -48t-125.5 -132.5t-66 -200.5t-19.5 -255zM461 1704q-3 7 3 15l58 68q8 11 11 12t14 -3l269 -194q15 -11 4 -24l-32 -37q-11 -10 -22 -4 l-295 156q-7 4 -10 11z"/>
<glyph unicode="Ó" horiz-adv-x="1358" d="M135 740q0 70 6 149t26 159.5t56 154t95 130.5t145 90t208 33q180 0 288.5 -62t166 -162.5t76 -230t18.5 -261.5q0 -133 -15.5 -267.5t-71.5 -243.5t-165.5 -178.5t-296.5 -69.5q-184 0 -291 69.5t-161 178.5t-69 243.5t-15 267.5zM261 719q0 -135 18.5 -250t65 -200 t125.5 -133.5t201 -48.5t203 45.5t131 128t71.5 200t21.5 258.5q0 145 -19.5 262t-67 200t-131 128.5t-209.5 45.5q-120 0 -199 -48t-125.5 -132.5t-66 -200.5t-19.5 -255zM560 1578q-11 11 7 22l268 194q11 6 15.5 5t13.5 -12l54 -70q11 -17 -6 -26l-295 -156q-13 -6 -24 4 z"/>
<glyph unicode="Ô" horiz-adv-x="1358" d="M135 740q0 70 6 149t26 159.5t56 154t95 130.5t145 90t208 33q180 0 288.5 -62t166 -162.5t76 -230t18.5 -261.5q0 -133 -15.5 -267.5t-71.5 -243.5t-165.5 -178.5t-296.5 -69.5q-184 0 -291 69.5t-161 178.5t-69 243.5t-15 267.5zM261 719q0 -135 18.5 -250t65 -200 t125.5 -133.5t201 -48.5t203 45.5t131 128t71.5 200t21.5 258.5q0 145 -19.5 262t-67 200t-131 128.5t-209.5 45.5q-120 0 -199 -48t-125.5 -132.5t-66 -200.5t-19.5 -255zM375 1564q-8 10 0 21l215 195q13 10 23 15t23 5h98q16 0 26.5 -4.5t20.5 -15.5l209 -191 q15 -13 2 -25l-33 -31q-15 -9 -25 0l-250 171l-245 -171q-11 -7 -15.5 -8t-15.5 6z"/>
<glyph unicode="Õ" horiz-adv-x="1358" d="M135 740q0 70 6 149t26 159.5t56 154t95 130.5t145 90t208 33q180 0 288.5 -62t166 -162.5t76 -230t18.5 -261.5q0 -133 -15.5 -267.5t-71.5 -243.5t-165.5 -178.5t-296.5 -69.5q-184 0 -291 69.5t-161 178.5t-69 243.5t-15 267.5zM261 719q0 -135 18.5 -250t65 -200 t125.5 -133.5t201 -48.5t203 45.5t131 128t71.5 200t21.5 258.5q0 145 -19.5 262t-67 200t-131 128.5t-209.5 45.5q-120 0 -199 -48t-125.5 -132.5t-66 -200.5t-19.5 -255zM333.5 1593.5q0.5 10.5 4.5 21.5q37 83 88.5 116.5t103.5 33.5q39 0 81 -18.5t83.5 -39.5 t79.5 -39.5t69 -18.5q39 0 63 23t45 60q6 11 11.5 15.5t21.5 -1.5l35 -14q12 -4 10 -14.5t-4 -15.5q-56 -157 -182 -157q-40 0 -82 19t-83.5 39.5t-80.5 39t-71 18.5q-25 0 -54 -18.5t-60 -64.5q-8 -12 -14.5 -16t-22.5 4l-29 12q-13 5 -12.5 15.5z"/>
<glyph unicode="Ö" horiz-adv-x="1358" d="M135 740q0 70 6 149t26 159.5t56 154t95 130.5t145 90t208 33q180 0 288.5 -62t166 -162.5t76 -230t18.5 -261.5q0 -133 -15.5 -267.5t-71.5 -243.5t-165.5 -178.5t-296.5 -69.5q-184 0 -291 69.5t-161 178.5t-69 243.5t-15 267.5zM261 719q0 -135 18.5 -250t65 -200 t125.5 -133.5t201 -48.5t203 45.5t131 128t71.5 200t21.5 258.5q0 145 -19.5 262t-67 200t-131 128.5t-209.5 45.5q-120 0 -199 -48t-125.5 -132.5t-66 -200.5t-19.5 -255zM439 1641q0 31 12.5 51.5t56.5 20.5q45 0 57.5 -19.5t12.5 -52.5t-12.5 -54t-57.5 -21 q-48 0 -58.5 22.5t-10.5 52.5zM799 1641q0 31 14 51.5t57 20.5q44 0 57 -19.5t13 -52.5t-13 -54t-57 -21q-47 0 -59 22.5t-12 52.5z"/>
<glyph unicode="Ø" horiz-adv-x="1361" d="M135 740q0 70 6 149t26 159.5t56 154t95 130.5t145 90t208 33q137 0 231 -36.5t157 -101.5l89 121q6 9 12 13t17 -2l39 -31q17 -10 6 -27l-106 -145q63 -104 83.5 -236t20.5 -271q0 -133 -15.5 -267.5t-71.5 -243.5t-165.5 -178.5t-296.5 -69.5q-135 0 -225 36.5 t-150 100.5l-81 -110q-6 -8 -13 -12t-15 2l-40 31q-17 10 -6 27l97 135q-34 56 -54.5 122t-31.5 137.5t-14 145t-3 144.5zM261 719q0 -120 13.5 -224t48.5 -187l665 910q-50 65 -127.5 101t-189.5 36q-120 0 -199 -48t-125.5 -132.5t-66 -200.5t-19.5 -255zM371 224 q48 -65 120.5 -101t179.5 -36q122 0 203 45.5t131 128t71.5 200t21.5 258.5q0 126 -13.5 230t-48.5 184z"/>
<glyph unicode="Ù" horiz-adv-x="1291" d="M141 514v890q0 22 7.5 28.5t25.5 6.5h60q29 0 29 -35v-896q0 -195 92 -305t287 -110q189 0 288 102.5t99 312.5v896q0 22 7.5 28.5t24.5 6.5h62q28 0 27 -35l-2 -890q0 -70 -6.5 -132.5t-29.5 -120.5q-58 -148 -182 -212t-288 -64q-169 0 -290.5 65.5t-173.5 208.5 q-21 58 -29 122t-8 133zM370 1704q-3 7 3 15l57 68q9 11 12 12t14 -3l269 -194q15 -11 4 -24l-33 -37q-10 -10 -21 -4l-296 156q-6 4 -9 11z"/>
<glyph unicode="Ú" horiz-adv-x="1291" d="M141 514v890q0 22 7.5 28.5t25.5 6.5h60q29 0 29 -35v-896q0 -195 92 -305t287 -110q189 0 288 102.5t99 312.5v896q0 22 7.5 28.5t24.5 6.5h62q28 0 27 -35l-2 -890q0 -70 -6.5 -132.5t-29.5 -120.5q-58 -148 -182 -212t-288 -64q-169 0 -290.5 65.5t-173.5 208.5 q-21 58 -29 122t-8 133zM567 1578q-11 11 6 22l270 194q10 6 14.5 5t12.5 -12l54 -70q11 -17 -6 -26l-295 -156q-12 -6 -24 4z"/>
<glyph unicode="Û" horiz-adv-x="1291" d="M141 514v890q0 22 7.5 28.5t25.5 6.5h60q29 0 29 -35v-896q0 -195 92 -305t287 -110q189 0 288 102.5t99 312.5v896q0 22 7.5 28.5t24.5 6.5h62q28 0 27 -35l-2 -890q0 -70 -6.5 -132.5t-29.5 -120.5q-58 -148 -182 -212t-288 -64q-169 0 -290.5 65.5t-173.5 208.5 q-21 58 -29 122t-8 133zM338 1564q-8 10 0 21l215 195q13 10 23 15t23 5h97q17 0 27.5 -4.5t20.5 -15.5l209 -191q15 -13 2 -25l-33 -31q-15 -9 -25 0l-250 171l-245 -171q-11 -7 -15.5 -8t-15.5 6z"/>
<glyph unicode="Ü" horiz-adv-x="1291" d="M141 514v890q0 22 7.5 28.5t25.5 6.5h60q29 0 29 -35v-896q0 -195 92 -305t287 -110q189 0 288 102.5t99 312.5v896q0 22 7.5 28.5t24.5 6.5h62q28 0 27 -35l-2 -890q0 -70 -6.5 -132.5t-29.5 -120.5q-58 -148 -182 -212t-288 -64q-169 0 -290.5 65.5t-173.5 208.5 q-21 58 -29 122t-8 133zM400 1641q0 31 12.5 51.5t56.5 20.5q45 0 57 -19.5t12 -52.5t-12 -54t-57 -21q-48 0 -58.5 22.5t-10.5 52.5zM760 1641q0 31 14 51.5t57 20.5t56.5 -19.5t13.5 -52.5t-13.5 -54t-56.5 -21q-48 0 -59.5 22.5t-11.5 52.5z"/>
<glyph unicode="Ý" horiz-adv-x="1048" d="M33 1431.5q2 7.5 13 7.5h86q17 0 25 -5t13 -17l354 -651l364 653q5 11 12 15.5t26 4.5h68q29 0 17 -24l-427 -768v-614q0 -19 -5.5 -26t-23.5 -7h-60q-17 0 -25 6.5t-8 26.5v614l-427 770q-4 7 -2 14.5zM452 1578q-11 11 6 22l269 194q11 6 15.5 5t13.5 -12l54 -70 q10 -17 -7 -26l-295 -156q-13 -6 -24 4z"/>
<glyph unicode="Þ" horiz-adv-x="1073" d="M141 26v1387q0 26 24 26h73q27 0 27 -26v-269h317q91 0 169 -25t135.5 -76t91 -128.5t33.5 -178.5q0 -77 -22.5 -152.5t-72.5 -136t-131 -100t-199 -39.5h-321v-282q0 -26 -24 -26h-74q-26 0 -26 26zM265 419h321q56 0 109.5 17.5t95.5 54.5t68.5 97.5t26.5 145.5 q0 153 -90 225t-234 72h-297v-612z"/>
<glyph unicode="ß" horiz-adv-x="1056" d="M106 11v1105q0 116 36 197t92 132t123.5 73.5t131.5 22.5q82 0 152.5 -21.5t121.5 -65t80 -111t29 -158.5q0 -29 -8.5 -68.5t-27 -81t-49.5 -79.5t-77 -63q83 -20 131.5 -62.5t74.5 -101t33.5 -132t7.5 -156.5q0 -100 -21.5 -183.5t-69.5 -144.5t-122.5 -94.5 t-181.5 -33.5q-25 0 -59 1t-71 12q-28 8 -24 31l9 43q4 13 9.5 18t31.5 1q19 -2 41.5 -3t38.5 -1q162 0 226.5 93t64.5 267q0 96 -14 164t-50 112.5t-94 65.5t-149 21q-25 0 -25 19v50q0 21 27 28q54 11 95 39.5t69.5 66t43.5 83.5t15 91q0 126 -71 186t-185 60 q-118 0 -191.5 -78.5t-73.5 -223.5v-1120q0 -27 -25 -26h-71q-24 0 -24 26z"/>
<glyph unicode="à" horiz-adv-x="1096" d="M95 271q0 185 92.5 272t296.5 87h336v97q0 65 -11.5 111t-43 75t-86 43t-136.5 14q-70 0 -154.5 -6.5t-160.5 -14.5q-31 -2 -33 15l-8 39q0 21 24 33q35 12 80 21t93 14.5t93 7.5t78 2q122 0 197 -22.5t117.5 -69.5t57.5 -117.5t15 -163.5v-534q0 -31 4.5 -47.5t14 -25 t27 -11.5t46.5 -5q24 0 23 -20v-44q0 -10 -6.5 -16.5t-25.5 -10.5q-106 -11 -152 15t-53 115h-2q-47 -29 -95 -53.5t-102 -44.5t-115 -31.5t-133 -11.5q-147 0 -212.5 72.5t-65.5 215.5zM222 278q0 -108 42 -147.5t153 -39.5q47 0 106 15.5t115 37t104 44.5t78 40v298h-351 q-57 0 -102.5 -11t-77.5 -39.5t-49.5 -76t-17.5 -121.5zM358 1468q-2 9 13 15l72 33q24 13 33 -6l152 -292q10 -19 -5 -27l-43 -12q-13 -5 -17.5 -6t-11.5 8l-186 271q-5 7 -7 16z"/>
<glyph unicode="á" horiz-adv-x="1096" d="M95 271q0 185 92.5 272t296.5 87h336v97q0 65 -11.5 111t-43 75t-86 43t-136.5 14q-70 0 -154.5 -6.5t-160.5 -14.5q-31 -2 -33 15l-8 39q0 21 24 33q35 12 80 21t93 14.5t93 7.5t78 2q122 0 197 -22.5t117.5 -69.5t57.5 -117.5t15 -163.5v-534q0 -31 4.5 -47.5t14 -25 t27 -11.5t46.5 -5q24 0 23 -20v-44q0 -10 -6.5 -16.5t-25.5 -10.5q-106 -11 -152 15t-53 115h-2q-47 -29 -95 -53.5t-102 -44.5t-115 -31.5t-133 -11.5q-147 0 -212.5 72.5t-65.5 215.5zM222 278q0 -108 42 -147.5t153 -39.5q47 0 106 15.5t115 37t104 44.5t78 40v298h-351 q-57 0 -102.5 -11t-77.5 -39.5t-49.5 -76t-17.5 -121.5zM518 1233l151 296q8 14 27 6l81 -35q17 -9 4 -26l-186 -278q-11 -11 -24 -5l-45 18q-13 7 -8 24z"/>
<glyph unicode="â" horiz-adv-x="1096" d="M95 271q0 185 92.5 272t296.5 87h336v97q0 65 -11.5 111t-43 75t-86 43t-136.5 14q-70 0 -154.5 -6.5t-160.5 -14.5q-31 -2 -33 15l-8 39q0 21 24 33q35 12 80 21t93 14.5t93 7.5t78 2q122 0 197 -22.5t117.5 -69.5t57.5 -117.5t15 -163.5v-534q0 -31 4.5 -47.5t14 -25 t27 -11.5t46.5 -5q24 0 23 -20v-44q0 -10 -6.5 -16.5t-25.5 -10.5q-106 -11 -152 15t-53 115h-2q-47 -29 -95 -53.5t-102 -44.5t-115 -31.5t-133 -11.5q-147 0 -212.5 72.5t-65.5 215.5zM222 278q0 -108 42 -147.5t153 -39.5q47 0 106 15.5t115 37t104 44.5t78 40v298h-351 q-57 0 -102.5 -11t-77.5 -39.5t-49.5 -76t-17.5 -121.5zM265 1218q-13 8 0 21l208 250q12 19 45 19h92q21 0 30 -3t18 -14l202 -250q14 -17 2 -25l-35 -29q-15 -10 -26 0l-239 226l-234 -224q-13 -12 -28 -2z"/>
<glyph unicode="ã" horiz-adv-x="1096" d="M95 271q0 185 92.5 272t296.5 87h336v97q0 65 -11.5 111t-43 75t-86 43t-136.5 14q-70 0 -154.5 -6.5t-160.5 -14.5q-31 -2 -33 15l-8 39q0 21 24 33q35 12 80 21t93 14.5t93 7.5t78 2q122 0 197 -22.5t117.5 -69.5t57.5 -117.5t15 -163.5v-534q0 -31 4.5 -47.5t14 -25 t27 -11.5t46.5 -5q24 0 23 -20v-44q0 -10 -6.5 -16.5t-25.5 -10.5q-106 -11 -152 15t-53 115h-2q-47 -29 -95 -53.5t-102 -44.5t-115 -31.5t-133 -11.5q-147 0 -212.5 72.5t-65.5 215.5zM214 1267.5q1 10.5 5 22.5q38 83 88.5 116t102.5 33q39 0 81.5 -18.5t84 -39t79 -39 t68.5 -18.5q39 0 63 23t45 60q6 10 12 15t21 -3l35 -12q13 -5 10.5 -15.5t-4.5 -15.5q-56 -156 -182 -156q-39 0 -81.5 18.5t-84 39t-80 39.5t-71.5 19q-24 0 -53.5 -19t-59.5 -64q-9 -13 -15.5 -16.5t-20.5 2.5l-31 14q-13 4 -12 14.5zM222 278q0 -108 42 -147.5t153 -39.5 q47 0 106 15.5t115 37t104 44.5t78 40v298h-351q-57 0 -102.5 -11t-77.5 -39.5t-49.5 -76t-17.5 -121.5z"/>
<glyph unicode="ä" horiz-adv-x="1096" d="M95 271q0 185 92.5 272t296.5 87h336v97q0 65 -11.5 111t-43 75t-86 43t-136.5 14q-70 0 -154.5 -6.5t-160.5 -14.5q-31 -2 -33 15l-8 39q0 21 24 33q35 12 80 21t93 14.5t93 7.5t78 2q122 0 197 -22.5t117.5 -69.5t57.5 -117.5t15 -163.5v-534q0 -31 4.5 -47.5t14 -25 t27 -11.5t46.5 -5q24 0 23 -20v-44q0 -10 -6.5 -16.5t-25.5 -10.5q-106 -11 -152 15t-53 115h-2q-47 -29 -95 -53.5t-102 -44.5t-115 -31.5t-133 -11.5q-147 0 -212.5 72.5t-65.5 215.5zM222 278q0 -108 42 -147.5t153 -39.5q47 0 106 15.5t115 37t104 44.5t78 40v298h-351 q-57 0 -102.5 -11t-77.5 -39.5t-49.5 -76t-17.5 -121.5zM296 1313q0 31 12.5 51.5t56.5 20.5q43 0 56.5 -19.5t13.5 -52.5q0 -30 -12.5 -53t-57.5 -23q-46 0 -57.5 23t-11.5 53zM675 1313q0 31 13.5 51.5t55.5 20.5q44 0 57 -19.5t13 -52.5q0 -30 -13 -53t-57 -23 q-48 0 -58.5 23t-10.5 53z"/>
<glyph unicode="å" horiz-adv-x="1096" d="M95 271q0 185 92.5 272t296.5 87h336v97q0 65 -11.5 111t-43 75t-86 43t-136.5 14q-70 0 -154.5 -6.5t-160.5 -14.5q-31 -2 -33 15l-8 39q0 21 24 33q35 12 80 21t93 14.5t93 7.5t78 2q122 0 197 -22.5t117.5 -69.5t57.5 -117.5t15 -163.5v-534q0 -31 4.5 -47.5t14 -25 t27 -11.5t46.5 -5q24 0 23 -20v-44q0 -10 -6.5 -16.5t-25.5 -10.5q-106 -11 -152 15t-53 115h-2q-47 -29 -95 -53.5t-102 -44.5t-115 -31.5t-133 -11.5q-147 0 -212.5 72.5t-65.5 215.5zM222 278q0 -108 42 -147.5t153 -39.5q47 0 106 15.5t115 37t104 44.5t78 40v298h-351 q-57 0 -102.5 -11t-77.5 -39.5t-49.5 -76t-17.5 -121.5zM365 1344q0 44 17.5 81.5t46.5 65t66 42.5t78 15q44 0 80.5 -16t65 -44.5t43.5 -65.5t15 -78t-15 -78t-43.5 -64.5t-65 -43.5t-80.5 -16q-41 0 -78 15t-66 42t-46.5 64.5t-17.5 80.5zM454 1344q0 -52 32 -88t87 -36 q50 0 84.5 36t34.5 88q0 50 -34.5 87.5t-84.5 37.5q-49 0 -84 -37.5t-35 -87.5z"/>
<glyph unicode="æ" horiz-adv-x="1740" d="M93 269q0 178 91.5 256t295.5 78h338v124q0 65 -11.5 111t-43.5 75t-86 43t-136 14q-70 0 -155.5 -6.5t-161.5 -14.5q-11 0 -19 1t-12 14l-9 39q-6 19 25 33q35 12 80 21t93 14.5t92 7.5t79 2q156 0 237.5 -39t112.5 -122q48 70 129.5 114.5t216.5 44.5q134 0 218.5 -39 t132 -104.5t65 -149.5t19.5 -176q0 -50 -14.5 -80.5t-67.5 -30.5h-655q0 -95 11.5 -170t44.5 -127.5t91 -80.5t155 -28q76 0 168.5 8.5t165.5 16.5q14 0 22 -1t13 -19l6 -33q4 -25 -17 -30q-33 -13 -79.5 -23t-96.5 -16.5t-100.5 -9.5t-89.5 -3q-145 0 -230 45.5t-127 123.5 l-76 -46q-46 -26 -92.5 -47.5t-100 -39t-116 -27t-139.5 -9.5q-141 0 -204 73.5t-63 212.5zM217 278q0 -108 42.5 -147.5t152.5 -39.5q48 0 110 17.5t124 42.5t115 51t86 43q-17 62 -23 120t-6 134h-352q-56 0 -101.5 -8.5t-78 -33.5t-51 -68t-18.5 -111zM947 601h607 q-2 70 -12.5 136t-42.5 118t-91.5 83.5t-158.5 31.5q-94 0 -151.5 -27t-90 -76t-45.5 -117t-15 -149z"/>
<glyph unicode="ç" horiz-adv-x="887" d="M98 536q0 106 14 205.5t57.5 174t124.5 119t216 44.5q28 0 69.5 -2t85 -7.5t84.5 -14.5t74 -21q17 -7 18.5 -18t1.5 -20l-10 -37q-2 -10 -12.5 -12.5t-25.5 0.5q-29 2 -65 6t-74.5 7.5t-76.5 5.5t-71 2q-85 0 -140 -21t-86.5 -70.5t-43.5 -132t-12 -206.5q0 -128 13 -214 t44.5 -136.5t85.5 -72.5t139 -22q21 0 58 2.5t79.5 5.5l85 6t77.5 9q26 0 27 -21l8 -28q2 -11 -3 -20.5t-22 -17.5q-50 -19 -127.5 -30.5t-154.5 -13.5l-32 -89q110 -4 148 -44.5t38 -96.5q0 -83 -58.5 -123t-153.5 -40q-26 0 -68.5 6.5t-77.5 17.5q-19 5 -13 21l6 27 q5 17 25 13q33 -5 66 -8t57 -3q47 0 82 17t35 67q0 43 -28 64t-110 21q-35 0 -22 37l43 115q-122 5 -195 48t-113.5 117t-53.5 171.5t-13 212.5z"/>
<glyph unicode="è" horiz-adv-x="1046" d="M100 536q0 94 11 190.5t53.5 174.5t128 128t235.5 50q137 0 220 -41.5t130.5 -107.5t64 -152t16.5 -175q0 -50 -18.5 -78t-70.5 -28h-644q4 -108 16 -185.5t43.5 -125t89 -69.5t153.5 -22q33 0 78 3.5t93 8.5t92 10t73 7q21 2 29 -18l6 -34q6 -24 -25 -37q-26 -9 -69 -19 t-93 -17t-101 -11.5t-93 -4.5q-145 0 -228 45.5t-125.5 121.5t-53.5 176.5t-11 209.5zM226 597h607q-2 67 -10.5 134.5t-39.5 120.5t-91 85.5t-164 32.5q-100 0 -157.5 -25t-89 -72.5t-41.5 -117t-14 -158.5zM308.5 1468q-2.5 9 12.5 15l72 33q25 13 32 -6l153 -292 q10 -19 -5 -27l-43 -12q-13 -5 -17.5 -6t-11.5 8l-186 271q-4 7 -6.5 16z"/>
<glyph unicode="é" horiz-adv-x="1046" d="M100 536q0 94 11 190.5t53.5 174.5t128 128t235.5 50q137 0 220 -41.5t130.5 -107.5t64 -152t16.5 -175q0 -50 -18.5 -78t-70.5 -28h-644q4 -108 16 -185.5t43.5 -125t89 -69.5t153.5 -22q33 0 78 3.5t93 8.5t92 10t73 7q21 2 29 -18l6 -34q6 -24 -25 -37q-26 -9 -69 -19 t-93 -17t-101 -11.5t-93 -4.5q-145 0 -228 45.5t-125.5 121.5t-53.5 176.5t-11 209.5zM226 597h607q-2 67 -10.5 134.5t-39.5 120.5t-91 85.5t-164 32.5q-100 0 -157.5 -25t-89 -72.5t-41.5 -117t-14 -158.5zM478 1233l150 296q8 14 27 6l81 -35q17 -9 4 -26l-187 -278 q-10 -11 -23 -5l-46 18q-12 7 -6 24z"/>
<glyph unicode="ê" horiz-adv-x="1046" d="M100 536q0 94 11 190.5t53.5 174.5t128 128t235.5 50q137 0 220 -41.5t130.5 -107.5t64 -152t16.5 -175q0 -50 -18.5 -78t-70.5 -28h-644q4 -108 16 -185.5t43.5 -125t89 -69.5t153.5 -22q33 0 78 3.5t93 8.5t92 10t73 7q21 2 29 -18l6 -34q6 -24 -25 -37q-26 -9 -69 -19 t-93 -17t-101 -11.5t-93 -4.5q-145 0 -228 45.5t-125.5 121.5t-53.5 176.5t-11 209.5zM226 597h607q-2 67 -10.5 134.5t-39.5 120.5t-91 85.5t-164 32.5q-100 0 -157.5 -25t-89 -72.5t-41.5 -117t-14 -158.5zM236 1218q-12 8 0 21l209 250q13 19 46 19h91q21 0 30 -3t18 -14 l201 -250q15 -17 2 -25l-34 -29q-15 -10 -26 0l-239 226l-234 -224q-13 -12 -29 -2z"/>
<glyph unicode="ë" horiz-adv-x="1046" d="M100 536q0 94 11 190.5t53.5 174.5t128 128t235.5 50q137 0 220 -41.5t130.5 -107.5t64 -152t16.5 -175q0 -50 -18.5 -78t-70.5 -28h-644q4 -108 16 -185.5t43.5 -125t89 -69.5t153.5 -22q33 0 78 3.5t93 8.5t92 10t73 7q21 2 29 -18l6 -34q6 -24 -25 -37q-26 -9 -69 -19 t-93 -17t-101 -11.5t-93 -4.5q-145 0 -228 45.5t-125.5 121.5t-53.5 176.5t-11 209.5zM226 597h607q-2 67 -10.5 134.5t-39.5 120.5t-91 85.5t-164 32.5q-100 0 -157.5 -25t-89 -72.5t-41.5 -117t-14 -158.5zM254 1313q0 31 13 51.5t56 20.5q44 0 57 -19.5t13 -52.5 q0 -30 -12 -53t-58 -23q-45 0 -57 23t-12 53zM634 1313q0 31 13 51.5t57 20.5q43 0 56 -19.5t13 -52.5q0 -30 -13 -53t-56 -23q-48 0 -59 23t-11 53z"/>
<glyph unicode="ì" horiz-adv-x="455" d="M-28 1468q-3 9 13 15l71 33q25 13 33 -6l152 -292q10 -19 -5 -27l-43 -12q-13 -5 -17 -6t-11 8l-186 271q-4 7 -7 16zM167 26v1005q0 17 6.5 21.5t21.5 4.5h70q21 0 21 -26v-1005q0 -26 -21 -26h-70q-29 0 -28 26z"/>
<glyph unicode="í" horiz-adv-x="455" d="M167 26v1005q0 17 6.5 21.5t21.5 4.5h70q21 0 21 -26v-1005q0 -26 -21 -26h-70q-29 0 -28 26zM187 1233l149 296q8 14 29 6l80 -35q17 -9 4 -26l-186 -278q-11 -11 -25 -5l-45 18q-13 7 -6 24z"/>
<glyph unicode="î" horiz-adv-x="568" d="M-13 1218q-12 8 0 21l208 250q13 19 46 19h91q21 0 30 -3t17 -14l203 -250q15 -17 2 -25l-35 -29q-15 -10 -25 0l-240 226l-234 -224q-13 -12 -29 -2zM224 26v1005q0 17 6 21.5t22 4.5h69q21 0 22 -26v-1005q0 -26 -22 -26h-69q-28 0 -28 26z"/>
<glyph unicode="ï" horiz-adv-x="474" d="M-21 1313q0 31 12.5 51.5t56.5 20.5q43 0 56.5 -19.5t13.5 -52.5q0 -30 -12.5 -53t-57.5 -23q-46 0 -57.5 23t-11.5 53zM187 26v1005q0 17 6 21.5t22 4.5h69q21 0 22 -26v-1005q0 -26 -22 -26h-69q-28 0 -28 26zM358 1313q0 31 13 51.5t56 20.5q44 0 57 -19.5t13 -52.5 q0 -30 -13 -53t-57 -23q-48 0 -58.5 23t-10.5 53z"/>
<glyph unicode="ð" horiz-adv-x="1063" d="M95 506q0 76 16.5 165t64.5 165t131.5 126.5t220.5 50.5q118 0 199 -41.5t122 -111.5l4 4q-2 54 -6 115t-14 118.5t-26.5 109.5t-42.5 91l-122 -119q-14 -19 -32 0l-37 33q-10 10 -9.5 16.5t12.5 18.5l118 120q-30 29 -86.5 43t-123.5 14q-45 0 -86.5 -4.5t-86.5 -10.5 q-17 -2 -23 2t-8 13l-7 45q-2 17 17 27q31 12 65 20t65.5 11.5t58.5 4.5t47 1q80 0 145 -22t112 -55l112 110q10 8 16.5 9t18.5 -9l36 -35q6 -9 7.5 -17t-9.5 -18l-111 -111q42 -54 65.5 -130t36.5 -164t17.5 -182.5t4.5 -185.5q0 -161 -15 -297t-63 -234.5t-139 -153.5 t-242 -55q-141 0 -224 49t-127.5 124.5t-58 168t-13.5 181.5zM222 491q0 -83 11.5 -154.5t45.5 -126t92.5 -86t154.5 -31.5q102 0 164 35t94 91.5t43 128t11 145.5q0 89 -13 165t-48 130.5t-95.5 84.5t-153.5 30q-89 0 -149 -29t-94.5 -83.5t-48.5 -130.5t-14 -169z"/>
<glyph unicode="ñ" horiz-adv-x="1038" d="M110 33v992q0 19 6 25.5t23 6.5h56q17 0 24 -5.5t7 -26.5v-95q21 14 63.5 39t98 49t118.5 42.5t126 18.5q99 0 158 -27t90.5 -78.5t41.5 -123t10 -160.5v-657q0 -33 -33 -33h-58q-17 0 -23 6.5t-6 26.5v634q0 91 -7.5 149t-28 93t-60 49.5t-101.5 14.5 q-44 0 -101.5 -16.5t-114 -39t-103 -45.5t-70.5 -37v-802q0 -33 -31 -33h-56q-17 0 -23 6.5t-6 26.5zM185.5 1267.5q1.5 10.5 5.5 22.5q37 83 88 116t103 33q39 0 81.5 -18.5t83.5 -39t79.5 -39t67.5 -18.5q40 0 63.5 23t45.5 60q7 10 12 15t20 -3l35 -12q13 -5 11 -15.5 t-4 -15.5q-57 -156 -183 -156q-39 0 -81 18.5t-83 39t-80.5 39.5t-72.5 19q-24 0 -52.5 -19t-59.5 -64q-8 -13 -15 -16.5t-22 2.5l-31 14q-13 4 -11.5 14.5z"/>
<glyph unicode="ò" horiz-adv-x="1056" d="M98 547q0 83 12 176t56.5 172.5t127.5 131.5t228 52t232 -44.5t132.5 -119t59 -170.5t13.5 -198q0 -100 -10.5 -201t-54 -181t-131.5 -131t-241 -51q-150 0 -235.5 50t-127 131t-51.5 181t-10 202zM219 532q0 -104 12 -185.5t44.5 -139.5t91 -87t155.5 -29t158.5 28 t96.5 85t48 138t13 190q0 106 -12 187.5t-47 138t-96.5 86t-160.5 29.5q-96 0 -155 -29.5t-91.5 -87t-44.5 -139t-12 -185.5zM319 1468q-2 9 13 15l72 33q24 13 33 -6l151 -292q11 -19 -4 -27l-43 -12q-13 -5 -18 -6t-11 8l-187 271q-4 7 -6 16z"/>
<glyph unicode="ó" horiz-adv-x="1056" d="M98 547q0 83 12 176t56.5 172.5t127.5 131.5t228 52t232 -44.5t132.5 -119t59 -170.5t13.5 -198q0 -100 -10.5 -201t-54 -181t-131.5 -131t-241 -51q-150 0 -235.5 50t-127 131t-51.5 181t-10 202zM219 532q0 -104 12 -185.5t44.5 -139.5t91 -87t155.5 -29t158.5 28 t96.5 85t48 138t13 190q0 106 -12 187.5t-47 138t-96.5 86t-160.5 29.5q-96 0 -155 -29.5t-91.5 -87t-44.5 -139t-12 -185.5zM480 1233l150 296q8 14 28 6l80 -35q17 -9 4 -26l-187 -278q-10 -11 -23 -5l-45 18q-13 7 -7 24z"/>
<glyph unicode="ô" horiz-adv-x="1056" d="M98 547q0 83 12 176t56.5 172.5t127.5 131.5t228 52t232 -44.5t132.5 -119t59 -170.5t13.5 -198q0 -100 -10.5 -201t-54 -181t-131.5 -131t-241 -51q-150 0 -235.5 50t-127 131t-51.5 181t-10 202zM219 532q0 -104 12 -185.5t44.5 -139.5t91 -87t155.5 -29t158.5 28 t96.5 85t48 138t13 190q0 106 -12 187.5t-47 138t-96.5 86t-160.5 29.5q-96 0 -155 -29.5t-91.5 -87t-44.5 -139t-12 -185.5zM234 1218q-12 8 0 21l209 250q13 19 46 19h91q21 0 30 -3t18 -14l201 -250q15 -17 2 -25l-34 -29q-15 -10 -26 0l-239 226l-234 -224 q-13 -12 -29 -2z"/>
<glyph unicode="õ" horiz-adv-x="1056" d="M98 547q0 83 12 176t56.5 172.5t127.5 131.5t228 52t232 -44.5t132.5 -119t59 -170.5t13.5 -198q0 -100 -10.5 -201t-54 -181t-131.5 -131t-241 -51q-150 0 -235.5 50t-127 131t-51.5 181t-10 202zM185.5 1267.5q1.5 10.5 5.5 22.5q37 83 88 116t103 33q39 0 81.5 -18.5 t83.5 -39t79.5 -39t67.5 -18.5q40 0 63.5 23t45.5 60q7 10 12 15t20 -3l35 -12q13 -5 11 -15.5t-4 -15.5q-57 -156 -183 -156q-39 0 -81 18.5t-83 39t-80.5 39.5t-72.5 19q-24 0 -52.5 -19t-59.5 -64q-8 -13 -15 -16.5t-22 2.5l-31 14q-13 4 -11.5 14.5zM219 532 q0 -104 12 -185.5t44.5 -139.5t91 -87t155.5 -29t158.5 28t96.5 85t48 138t13 190q0 106 -12 187.5t-47 138t-96.5 86t-160.5 29.5q-96 0 -155 -29.5t-91.5 -87t-44.5 -139t-12 -185.5z"/>
<glyph unicode="ö" horiz-adv-x="1056" d="M98 547q0 83 12 176t56.5 172.5t127.5 131.5t228 52t232 -44.5t132.5 -119t59 -170.5t13.5 -198q0 -100 -10.5 -201t-54 -181t-131.5 -131t-241 -51q-150 0 -235.5 50t-127 131t-51.5 181t-10 202zM219 532q0 -104 12 -185.5t44.5 -139.5t91 -87t155.5 -29t158.5 28 t96.5 85t48 138t13 190q0 106 -12 187.5t-47 138t-96.5 86t-160.5 29.5q-96 0 -155 -29.5t-91.5 -87t-44.5 -139t-12 -185.5zM265 1313q0 31 12.5 51.5t56.5 20.5q43 0 56.5 -19.5t13.5 -52.5q0 -30 -12.5 -53t-57.5 -23q-46 0 -57.5 23t-11.5 53zM644 1313q0 31 13.5 51.5 t56.5 20.5q44 0 56.5 -19.5t12.5 -52.5q0 -30 -12.5 -53t-56.5 -23q-47 0 -58.5 23t-11.5 53z"/>
<glyph unicode="÷" horiz-adv-x="1178" d="M180 677v63q0 21 21 22h778q22 0 22 -22v-63q0 -17 -22 -17h-778q-21 0 -21 17zM512 371q0 37 15.5 60t65.5 23q51 0 66.5 -23t15.5 -60t-14 -63t-68 -26q-55 0 -68 27t-13 62zM512 1046q0 35 15.5 58t65.5 23q51 0 66.5 -22t15.5 -59t-14 -63t-68 -26q-55 0 -68 26 t-13 63z"/>
<glyph unicode="ø" horiz-adv-x="1063" d="M98 547q0 83 12 176t56.5 172.5t127.5 131.5t228 52q103 0 174.5 -22.5t121.5 -66.5l68 91q11 21 28 11l37 -28q17 -10 6 -30l-80 -110q49 -76 65.5 -174.5t16.5 -202.5q0 -100 -10.5 -201t-54 -181t-131.5 -131t-241 -51q-96 0 -162.5 19t-114.5 56l-54 -75 q-7 -8 -12 -12t-16 3l-39 30q-15 11 -4 29l64 89q-30 41 -47 91t-26 105t-11 113t-2 116zM219 532q0 -95 8.5 -170.5t35.5 -131.5l486 667q-37 37 -91 56.5t-136 19.5q-96 0 -155 -29.5t-91.5 -87t-44.5 -139t-12 -185.5zM317 154q70 -63 205 -63q97 0 158.5 28t96.5 85 t48 138.5t13 189.5q0 89 -7.5 159.5t-31.5 124.5z"/>
<glyph unicode="ù" horiz-adv-x="1065" d="M120 369v656q0 33 32 32h59q17 0 22 -6.5t5 -25.5v-634q0 -91 8 -150t31 -94t62.5 -48.5t103.5 -13.5q44 0 101 16.5t113.5 39t103.5 45.5t70 36v803q0 33 31 32h56q17 0 23 -6.5t6 -25.5v-992q0 -19 -5.5 -26t-23.5 -7h-56q-17 0 -25 6.5t-8 26.5v97 q-21 -14 -62.5 -39.5t-96.5 -50.5t-118 -42t-127 -17q-100 0 -159 27t-92 77t-43.5 122.5t-10.5 161.5zM332 1468q-2 9 14 15l71 33q24 13 32 -6l152 -292q11 -19 -4 -27l-44 -12q-12 -5 -16.5 -6t-10.5 8l-188 271q-4 7 -6 16z"/>
<glyph unicode="ú" horiz-adv-x="1065" d="M120 369v656q0 33 32 32h59q17 0 22 -6.5t5 -25.5v-634q0 -91 8 -150t31 -94t62.5 -48.5t103.5 -13.5q44 0 101 16.5t113.5 39t103.5 45.5t70 36v803q0 33 31 32h56q17 0 23 -6.5t6 -25.5v-992q0 -19 -5.5 -26t-23.5 -7h-56q-17 0 -25 6.5t-8 26.5v97 q-21 -14 -62.5 -39.5t-96.5 -50.5t-118 -42t-127 -17q-100 0 -159 27t-92 77t-43.5 122.5t-10.5 161.5zM504 1233l149 296q8 14 29 6l80 -35q17 -9 4 -26l-186 -278q-11 -11 -25 -5l-45 18q-13 7 -6 24z"/>
<glyph unicode="û" horiz-adv-x="1065" d="M120 369v656q0 33 32 32h59q17 0 22 -6.5t5 -25.5v-634q0 -91 8 -150t31 -94t62.5 -48.5t103.5 -13.5q44 0 101 16.5t113.5 39t103.5 45.5t70 36v803q0 33 31 32h56q17 0 23 -6.5t6 -25.5v-992q0 -19 -5.5 -26t-23.5 -7h-56q-17 0 -25 6.5t-8 26.5v97 q-21 -14 -62.5 -39.5t-96.5 -50.5t-118 -42t-127 -17q-100 0 -159 27t-92 77t-43.5 122.5t-10.5 161.5zM245 1218q-13 8 0 21l209 250q12 19 45 19h91q22 0 31 -3t17 -14l203 -250q14 -17 2 -25l-35 -29q-15 -10 -27 0l-238 226l-235 -224q-12 -12 -28 -2z"/>
<glyph unicode="ü" horiz-adv-x="1065" d="M120 369v656q0 33 32 32h59q17 0 22 -6.5t5 -25.5v-634q0 -91 8 -150t31 -94t62.5 -48.5t103.5 -13.5q44 0 101 16.5t113.5 39t103.5 45.5t70 36v803q0 33 31 32h56q17 0 23 -6.5t6 -25.5v-992q0 -19 -5.5 -26t-23.5 -7h-56q-17 0 -25 6.5t-8 26.5v97 q-21 -14 -62.5 -39.5t-96.5 -50.5t-118 -42t-127 -17q-100 0 -159 27t-92 77t-43.5 122.5t-10.5 161.5zM284 1313q0 31 13.5 51.5t56.5 20.5q44 0 56.5 -19.5t12.5 -52.5q0 -30 -11.5 -53t-57.5 -23t-58 23t-12 53zM665 1313q0 31 12.5 51.5t56.5 20.5q43 0 56 -19.5 t13 -52.5q0 -30 -13 -53t-56 -23q-48 0 -58.5 23t-10.5 53z"/>
<glyph unicode="ý" horiz-adv-x="950" d="M39 1047.5q2 7.5 15 7.5h78q17 0 24 -24l289 -793l39 -118l38 125l263 793q5 10 8.5 14.5t14.5 4.5h85q12 0 13 -6.5t-3 -16.5l-478 -1390q-4 -13 -12.5 -19.5t-25.5 -6.5h-64q-24 0 -17 26l117 339l-382 1046q-4 11 -2 18.5zM414 1233l150 296q8 14 29 6l80 -35 q17 -9 4 -26l-186 -278q-11 -11 -25 -5l-45 18q-13 7 -7 24z"/>
<glyph unicode="þ" horiz-adv-x="1067" d="M135 -348v1761q0 26 21 26h72q24 0 24 -26v-477q2 0 5 -2q30 19 74 43t96.5 46.5t112 38t118.5 15.5q96 0 159.5 -34t101.5 -100t54.5 -167t16.5 -233q0 -139 -18.5 -244.5t-64 -176t-124.5 -106t-201 -35.5q-63 0 -146.5 12.5t-178.5 49.5l-5 -2v-395q0 -29 -24 -28h-58 q-35 0 -35 34zM254 143q98 -31 181 -42.5t160 -11.5q76 0 128 25t83.5 80.5t45.5 142t14 212.5t-14 207.5t-41.5 129.5t-69.5 65t-101 17q-43 0 -98 -15t-110 -36.5t-102.5 -45.5t-75.5 -40v-688z"/>
<glyph unicode="ÿ" horiz-adv-x="950" d="M39 1047.5q2 7.5 15 7.5h78q17 0 24 -24l289 -793l39 -118l38 125l263 793q5 10 8.5 14.5t14.5 4.5h85q12 0 13 -6.5t-3 -16.5l-478 -1390q-4 -13 -12.5 -19.5t-25.5 -6.5h-64q-24 0 -17 26l117 339l-382 1046q-4 11 -2 18.5zM213 1313q0 31 12.5 51.5t56.5 20.5 q43 0 56.5 -19.5t13.5 -52.5q0 -30 -12 -53t-58 -23t-57.5 23t-11.5 53zM593 1313q0 31 13 51.5t56 20.5q44 0 56.5 -19.5t12.5 -52.5q0 -30 -12.5 -53t-56.5 -23q-47 0 -58 23t-11 53z"/>
<glyph unicode="ı" horiz-adv-x="455" d="M167 26v1005q0 17 6.5 21.5t21.5 4.5h70q21 0 21 -26v-1005q0 -26 -21 -26h-70q-29 0 -28 26z"/>
<glyph unicode="Œ" horiz-adv-x="1694" d="M112 740q0 104 16.5 229t73.5 233.5t163 181t286 72.5q89 0 169 -17h746q24 0 23 -24v-67q0 -24 -25 -24h-648v-518h582q26 0 26 -25v-64q0 -25 -26 -25h-582v-576l662 -4q27 0 26 -23v-65q0 -24 -26 -24h-753q-79 -19 -174 -19q-185 0 -292 69.5t-161.5 177.5t-70 243.5 t-15.5 268.5zM241 719q0 -135 18.5 -249t64 -197.5t124.5 -131.5t203 -48q39 0 74 3.5t65 13.5v1218q-65 17 -139 18q-120 0 -199 -45.5t-125.5 -129t-66 -198.5t-19.5 -254z"/>
<glyph unicode="œ" horiz-adv-x="1783" d="M98 547q0 81 13 173t56.5 172.5t127.5 133.5t229 53q163 0 251.5 -56.5t131.5 -148.5h2q44 85 129 139.5t236 54.5q137 0 221.5 -41t131.5 -109.5t64.5 -156.5t17.5 -179q0 -46 -16.5 -70.5t-64.5 -24.5h-655q0 -96 11.5 -171t44 -127t91.5 -79t154 -27q76 0 168.5 8.5 t166.5 16.5q15 0 22.5 -3t11.5 -16q0 -11 3 -21t3 -20q0 -15 -19 -24q-30 -12 -77 -21t-98 -15.5t-100.5 -10t-88.5 -3.5q-156 0 -242 53.5t-125 144.5h-2q-44 -83 -131 -136t-242 -53q-150 0 -236.5 51t-128 132t-51.5 182t-10 199zM222 532q0 -102 11.5 -183.5t44.5 -138 t91 -88t155 -31.5q99 0 161 29t96.5 87t47 139t12.5 186q0 104 -12.5 184.5t-47 136.5t-96.5 85.5t-161 29.5q-96 0 -154.5 -31.5t-91.5 -87.5t-44.5 -136.5t-11.5 -180.5zM973 584h605q-2 70 -13 138t-42.5 121.5t-91 85.5t-159.5 32q-93 0 -150.5 -28t-89 -77.5 t-43.5 -119t-16 -152.5z"/>
<glyph unicode="Ÿ" horiz-adv-x="1048" d="M33 1431.5q2 7.5 13 7.5h86q17 0 25 -5t13 -17l354 -651l364 653q5 11 12 15.5t26 4.5h68q29 0 17 -24l-427 -768v-614q0 -19 -5.5 -26t-23.5 -7h-60q-17 0 -25 6.5t-8 26.5v614l-427 770q-4 7 -2 14.5zM273 1641q0 31 13.5 51.5t56.5 20.5q46 0 57.5 -19.5t11.5 -52.5 t-11.5 -54t-57.5 -21q-47 0 -58.5 22.5t-11.5 52.5zM634 1641q0 31 14 51.5t58 20.5q43 0 56 -19.5t13 -52.5t-13 -54t-56 -21q-48 0 -60 22.5t-12 52.5z"/>
<glyph unicode="ƒ" d="M85 -74l10 33q5 15 13 18.5t22 1.5q33 -7 65.5 -10.5t56.5 -3.5q96 0 133.5 67.5t55.5 174.5l95 537h-188q-27 0 -27 24v52q0 27 27 27h201l52 286q9 48 25 105.5t50 107.5t87 83.5t138 33.5q43 0 90 -8.5t84 -25.5q6 -4 10.5 -11t-0.5 -20l-10 -35q-11 -24 -39 -17 q-31 4 -66.5 8.5t-53.5 4.5q-52 0 -84.5 -17.5t-54 -49t-34 -75t-20.5 -94.5l-50 -276h201q29 0 29 -22v-57q0 -24 -26 -24h-222l-100 -574q-8 -48 -26.5 -102.5t-51 -100t-83.5 -75t-123 -29.5q-43 0 -91 8.5t-85 24.5q-19 9 -10 30z"/>
<glyph unicode="ˆ" horiz-adv-x="1063" d="M230 1218q-13 8 0 21l209 250q13 19 45 19h92q21 0 30 -3t17 -14l202 -250q15 -17 2 -25l-34 -29q-15 -10 -27 0l-238 226l-235 -224q-13 -12 -28 -2z"/>
<glyph unicode="ˇ" horiz-adv-x="984" d="M226 1448q-11 13 0 21l35 31q15 10 27 -2l236 -224l238 226q11 10 26 0l35 -28q12 -8 -3 -26l-205 -250q-9 -11 -18 -14t-30 -3h-85q-33 0 -45 19z"/>
<glyph unicode="˘" horiz-adv-x="1069" d="M248.5 1399.5q-5.5 15.5 5.5 27.5l32 25q17 13 33 -6q29 -39 55 -65t53 -43.5t57 -25t67 -7.5q65 0 113 33.5t109 109.5q15 15 33 6l32 -23q11 -8 4 -23.5t-11 -26.5q-50 -95 -125.5 -139t-158.5 -44q-85 0 -164 42.5t-124 135.5q-5 8 -10.5 23.5z"/>
<glyph unicode="˙" horiz-adv-x="878" d="M395 1328q0 31 14 51.5t57 20.5q44 0 57 -19.5t13 -52.5q0 -31 -13 -53t-57 -22q-47 0 -59 22.5t-12 52.5z"/>
<glyph unicode="˚" horiz-adv-x="1080" d="M384 1344q0 44 17.5 81.5t47 65t66 42.5t78.5 15q43 0 80 -16t65 -44.5t43.5 -65.5t15.5 -78t-15.5 -78t-43.5 -64.5t-65 -43.5t-80 -16q-42 0 -78.5 15t-66 42t-47 64.5t-17.5 80.5zM473 1344q0 -52 32.5 -88t87.5 -36q49 0 84 36t35 88q0 50 -35 87.5t-84 37.5 q-50 0 -85 -37.5t-35 -87.5z"/>
<glyph unicode="˛" horiz-adv-x="852" d="M296 -234q0 56 31 123.5t98 125.5h83v-4q-63 -70 -88 -127.5t-25 -102.5q3 -77 69 -91.5t168 8.5q10 4 13.5 1t5.5 -7l16 -44q4 -13 -16 -21q-31 -15 -70.5 -23t-72.5 -10q-108 -4 -160 45.5t-52 126.5z"/>
<glyph unicode="˜" horiz-adv-x="1065" d="M188 1267.5q1 10.5 5 22.5q37 83 88 116t103 33q39 0 81.5 -18.5t83.5 -39t79.5 -39t67.5 -18.5q40 0 63.5 23t46.5 60q6 10 11.5 15t20.5 -3l34 -12q13 -5 11 -15.5t-4 -15.5q-56 -156 -183 -156q-39 0 -81 18.5t-83 39t-80.5 39.5t-72.5 19q-24 0 -52.5 -19t-59.5 -64 q-8 -13 -15 -16.5t-22 2.5l-31 14q-12 4 -11 14.5z"/>
<glyph unicode="˝" horiz-adv-x="1063" d="M367 1233l147 296q9 14 29 6l82 -35q13 -9 5 -26l-189 -278q-9 -11 -24 -5l-44 18q-17 7 -6 24zM607 1233l149 296q8 14 27 6l81 -35q15 -9 6 -26l-188 -278q-9 -11 -24 -5l-43 18q-17 7 -8 24z"/>
<glyph unicode="Ω" horiz-adv-x="1399" d="M91 26v63q0 24 25 23h232v4q-70 49 -111.5 118.5t-65.5 152t-31.5 174.5t-7.5 186q0 133 27.5 260.5t92.5 228t174.5 160.5t275.5 60q167 0 276.5 -59t173.5 -158t89 -227t25 -265q0 -95 -8.5 -185.5t-34 -173t-68.5 -152t-113 -120.5q0 -3 2 -4h224q26 0 26 -23v-63 q0 -26 -26 -26h-417q-26 0 -26 24v78q0 24 26 33q87 28 143 85.5t89 137t46 176t13 204.5q0 102 -17.5 210.5t-65.5 197.5t-133 145.5t-222 56.5q-128 0 -214 -47.5t-137 -130t-72.5 -192.5t-21.5 -236q0 -236 61.5 -394.5t213.5 -210.5q17 -7 21.5 -12t4.5 -23v-78 q0 -24 -26 -24h-418q-25 0 -25 26z"/>
<glyph unicode="π" horiz-adv-x="1063" d="M116 26v1008q0 24 27 23h781q25 0 25 -23v-1008q0 -26 -27 -26h-71q-24 0 -24 26v927h-593v-927q0 -26 -25 -26h-70q-25 0 -23 26z"/>
<glyph unicode="Ё" horiz-adv-x="1032" d="M149 29v1380q0 15 7 22.5t26 7.5h727q20 0 26.5 -6t6.5 -22v-54q0 -17 -6 -24t-27 -7h-636v-523h572q19 0 25.5 -5t6.5 -23v-50q0 -17 -6.5 -25t-25.5 -8h-572v-580h651q19 0 26 -7t7 -24v-52q0 -17 -6.5 -23t-26.5 -6h-742q-19 0 -26 5.5t-7 23.5zM306 1641 q0 31 13 51.5t56 20.5q46 0 58 -19.5t12 -52.5t-12 -54t-58 -21q-47 0 -58 22.5t-11 52.5zM667 1641q0 31 13.5 51.5t57.5 20.5q43 0 56.5 -19.5t13.5 -52.5t-13.5 -54t-56.5 -21q-48 0 -59.5 22.5t-11.5 52.5z"/>
<glyph unicode="Ђ" horiz-adv-x="1502" d="M21 1348v67q0 24 25 24h1096q24 0 24 -24v-67q0 -24 -24 -24h-587v-445q106 54 212.5 88t211.5 34q106 0 185.5 -38.5t130.5 -103t76 -153.5t25 -194q0 -243 -100 -427.5t-330 -301.5q-11 -7 -20.5 -7t-15.5 17l-18 37q-9 22 10 33q187 104 268.5 262.5t81.5 392.5 q0 176 -86 273t-229 97q-91 0 -202 -37t-202 -89v-738q0 -24 -21 -24h-74q-27 0 -26 24v1300h-384q-27 0 -27 24z"/>
<glyph unicode="Ѓ" horiz-adv-x="978" d="M161 26v1387q0 26 26 26h737q25 0 25 -24v-67q0 -24 -27 -24h-636v-1298q0 -26 -23 -26h-76q-27 0 -26 26zM406 1578q-11 11 6 22l270 194q10 6 15 5t13 -12l54 -70q11 -17 -6 -26l-296 -156q-13 -6 -23 4z"/>
<glyph unicode="Є" horiz-adv-x="1125" d="M122 719q0 145 21.5 278.5t81 236t165 161.5t272.5 59q33 0 83 -2t104 -8.5t105 -16.5t88 -25q24 -8 17 -32l-6 -42q-3 -8 -8 -14.5t-22 -2.5q-72 7 -167.5 16t-188.5 9q-129 0 -209.5 -47.5t-125 -124t-61.5 -176.5t-19 -205h573q24 0 24 -23v-64q0 -26 -24 -25h-573 q2 -116 18 -218.5t61.5 -181t127.5 -124t210 -45.5q41 0 89 2t95.5 5t91 8t78.5 9q24 2 30 -20l6 -41q4 -25 -19 -34q-39 -15 -92 -24t-108 -14.5t-102 -7.5t-76 -2q-169 0 -274.5 59.5t-165 161.5t-80 234.5t-20.5 280.5z"/>
<glyph unicode="Ѕ" horiz-adv-x="1098" d="M98 1057q0 191 115 293t336 102q33 0 80.5 -3t101.5 -9.5t106.5 -17.5t92.5 -26q10 -4 12 -13t0 -20l-8 -35q0 -8 -6 -15.5t-23 -5.5q-82 11 -170 22t-190 11q-91 0 -154 -19.5t-101 -55.5t-54.5 -88t-16.5 -116q0 -76 21 -120t63.5 -71t105 -41.5t146.5 -29.5 q98 -17 179.5 -40t140.5 -66.5t92.5 -115t33.5 -188.5q0 -116 -37.5 -193.5t-102 -126t-151.5 -68.5t-186 -20q-57 0 -114.5 4t-111 11.5t-101.5 18.5t-79 24q-27 11 -18 35l6 42q2 16 22 12q50 -6 110 -12t117 -10t103 -7.5t68 -3.5q169 0 261 68.5t92 199.5q0 82 -16 136 t-53 90t-101.5 57t-157.5 38q-102 17 -184.5 38.5t-143 62t-93 104.5t-32.5 168z"/>
<glyph unicode="І" horiz-adv-x="507" d="M193 33v1371q0 22 8 28.5t25 6.5h60q29 0 29 -35v-1371q0 -19 -5.5 -26t-23.5 -7h-60q-17 0 -25 6.5t-8 26.5z"/>
<glyph unicode="Ї" horiz-adv-x="507" d="M6 1641q0 31 13.5 51.5t56.5 20.5q46 0 57.5 -19.5t11.5 -52.5t-11.5 -54t-57.5 -21q-47 0 -58.5 22.5t-11.5 52.5zM193 33v1371q0 22 8 28.5t25 6.5h60q29 0 29 -35v-1371q0 -19 -5.5 -26t-23.5 -7h-60q-17 0 -25 6.5t-8 26.5zM367 1641q0 31 14 51.5t58 20.5 q43 0 56 -19.5t13 -52.5t-13 -54t-56 -21q-48 0 -60 22.5t-12 52.5z"/>
<glyph unicode="Ј" horiz-adv-x="893" d="M29.5 41q-3.5 11 1.5 19l8 40q7 17 26 16q54 -9 107.5 -13.5t117.5 -4.5q85 0 139.5 16t86 48.5t44.5 79t13 108.5v1052q0 37 34 37h60q33 0 32 -37v-1068q0 -85 -20.5 -149.5t-67.5 -110t-122 -69.5t-183 -24q-87 0 -146.5 10.5t-109.5 29.5q-17 9 -20.5 20z"/>
<glyph unicode="Љ" horiz-adv-x="1866" d="M11 15v43q0 15 4 19t22 8q85 13 132.5 56t73.5 129t39.5 222t25.5 333l35 588q-1 26 26 26q165 0 329 -1t329 -1q25 0 23 -26v-580h367q124 0 203.5 -37.5t126.5 -98.5t63.5 -137t16.5 -150q0 -102 -33 -179t-91 -128t-136 -76t-169 -25h-445q-29 0 -29 24v1300h-466 l-33 -514q-11 -161 -19 -307.5t-43 -260.5t-107 -184.5t-204 -74.5q-27 -2 -34 6.5t-7 25.5zM1050 110h331q143 0 233 73.5t90 226.5q0 94 -24.5 154.5t-67 95t-97 49t-113.5 14.5h-352v-613z"/>
<glyph unicode="Њ" horiz-adv-x="1771" d="M156 26v1387q0 26 26 26h75q24 0 23 -26v-582h534v580q0 26 27 26h73q24 0 24 -26v-580h365q122 0 202 -37.5t126.5 -97.5t66 -136t19.5 -152q0 -102 -34 -178t-91 -127t-135.5 -77t-169.5 -26h-446q-27 0 -27 24v693h-534v-691q0 -26 -23 -26h-75q-26 0 -26 26zM938 112 h330q143 0 234 72.5t91 227.5q0 85 -26 144t-68.5 94.5t-95.5 51t-109 15.5h-356v-605z"/>
<glyph unicode="Ћ" horiz-adv-x="1488" d="M33 1348v67q0 24 25 24h1108q24 0 23 -26v-65q0 -24 -25 -24h-597v-443q33 17 85 40t112.5 44t126.5 34.5t130 13.5q110 0 180.5 -31t112 -86t56.5 -129.5t15 -156.5v-584q0 -26 -26 -26h-74q-21 0 -21 26v599q0 143 -66.5 207.5t-192.5 64.5q-50 0 -113 -14.5 t-123.5 -36t-115 -44.5t-86.5 -38v-738q0 -26 -24 -26h-72q-29 0 -28 26v1298h-385q-26 0 -25 24z"/>
<glyph unicode="Ќ" horiz-adv-x="1164" d="M152 29v1382q0 28 26 28h72q27 0 26 -28v-614h284q33 0 70 6.5t72.5 28t66 62t51.5 107.5l131 403q6 20 16 26.5t25 6.5h52q27 0 31 -10t-2 -29l-129 -404q-30 -99 -78 -162.5t-114 -82.5q86 -21 132 -85.5t80 -174.5l134 -448q4 -19 1 -30t-26 -11h-64q-15 0 -23.5 5.5 t-15.5 25.5l-132 440q-21 66 -47.5 108t-60.5 65t-72.5 30.5t-86.5 7.5h-295v-653q0 -29 -26 -29h-72q-26 0 -26 29zM491 1578q-11 11 6 22l269 194q11 6 15 5t14 -12l54 -70q11 -17 -6 -26l-296 -156q-13 -6 -23 4z"/>
<glyph unicode="Ў" horiz-adv-x="1106" d="M52 1427q0 10 18 10h91q13 0 18 -3t10 -15l371 -955h2l362 955q11 19 33 20h83q17 0 17 -10q0 -6 -2 -12q-111 -277 -217.5 -550.5t-216.5 -551.5q-35 -83 -64 -145t-63 -103t-78.5 -62.5t-107.5 -23.5q-32 0 -67.5 3t-66.5 14q-31 10 -25 33l10 43q6 25 34 21 q13 -2 26 -3t22 -1q47 0 80 7.5t57 27t44.5 52.5t41.5 81l31 66q-110 276 -220 547.5t-221 544.5q-2 2 -2 10zM268 1697.5q-5 15.5 5 26.5l33 26q17 13 32 -6q29 -40 55 -65.5t53 -43t57.5 -25.5t67.5 -8q65 0 112.5 34t109.5 110q15 15 32 6l33 -24q10 -9 3.5 -24 t-10.5 -26q-50 -95 -125.5 -138.5t-158.5 -43.5q-85 0 -164.5 42t-124.5 136q-5 8 -10 23.5z"/>
<glyph unicode="Џ" horiz-adv-x="1264" d="M161 26v1387q0 26 26 26h76q21 0 21 -26v-1297h708v1297q0 26 27 26h73q24 0 24 -26v-1387q0 -26 -24 -26h-378l-12 -290q-2 -27 -10 -35.5t-19 -8.5h-60q-13 0 -21 6.5t-8 31.5l-13 296h-384q-27 0 -26 26z"/>
<glyph unicode="А" horiz-adv-x="1154" d="M46 26l447 1381q4 17 10.5 24.5t24.5 7.5h91q17 0 24.5 -10t11.5 -22l452 -1386q8 -21 -11 -21h-89q-24 0 -30 21l-115 377h-580l-117 -367q-6 -19 -16 -25t-27 -6h-62q-24 0 -14 26zM317 506h510l-191 608q-19 65 -29 96t-14.5 47.5t-7.5 28.5t-9 40h-5 q-6 -29 -9.5 -40.5t-9 -28t-15 -46.5t-29.5 -95z"/>
<glyph unicode="Б" horiz-adv-x="1100" d="M147 26v1387q0 24 23 24h742q24 0 24 -24v-65q0 -26 -27 -26l-636 2v-493h346q122 0 202 -37.5t129 -97.5t69.5 -136t20.5 -152q0 -102 -33.5 -178t-91 -127t-135.5 -76t-170 -25l-434 -2q-29 0 -29 26zM273 116h317q144 0 235 71.5t91 224.5q0 85 -26 145t-68.5 96.5 t-95.5 53t-109 16.5h-344v-607z"/>
<glyph unicode="В" horiz-adv-x="1185" d="M156 33v1371q0 15 7 25t28 10h449q207 0 305.5 -100t98.5 -258q0 -39 -7.5 -84.5t-29 -91t-61 -86t-101.5 -65.5q72 -19 118 -61t73.5 -94t39.5 -108.5t12 -106.5q0 -89 -29.5 -159.5t-81 -120.5t-119.5 -77t-144 -27h-513q-30 0 -37.5 7.5t-7.5 25.5zM280 108h380 q87 0 144.5 24t91.5 64t47.5 93.5t13.5 110.5q0 56 -17.5 109t-54 94t-92 66t-133.5 25h-380v-586zM280 799h337q151 0 224 75t73 192q0 116 -73 188t-224 72h-337v-527z"/>
<glyph unicode="Г" horiz-adv-x="978" d="M161 26v1387q0 26 26 26h737q25 0 25 -24v-67q0 -24 -27 -24h-636v-1298q0 -26 -23 -26h-76q-27 0 -26 26z"/>
<glyph unicode="Д" horiz-adv-x="1330" d="M24 65q0 30 28 39l58 12q83 76 123 189.5t55 289.5l66 807q2 15 8.5 26t30.5 11h757q24 0 24 -26v-1297l73 -10q19 -4 23 -16t4 -25l-15 -345q-2 -26 -7 -34.5t-17 -8.5h-58q-13 0 -20 8.5t-9 34.5l-13 280h-970l-13 -280q-3 -26 -8 -34.5t-20 -8.5h-64q-12 0 -18.5 8.5 t-6.5 34.5zM267 112h783v1212h-581q-17 -176 -29.5 -352.5t-27.5 -354.5q-14 -180 -46 -307.5t-99 -197.5z"/>
<glyph unicode="Е" horiz-adv-x="1032" d="M149 29v1380q0 15 7 22.5t26 7.5h727q20 0 26.5 -6t6.5 -22v-54q0 -17 -6 -24t-27 -7h-636v-523h572q19 0 25.5 -5t6.5 -23v-50q0 -17 -6.5 -25t-25.5 -8h-572v-580h651q19 0 26 -7t7 -24v-52q0 -17 -6.5 -23t-26.5 -6h-742q-19 0 -26 5.5t-7 23.5z"/>
<glyph unicode="Ж" horiz-adv-x="1777" d="M57 10.5q-3 10.5 1 30.5l135 448q35 110 80.5 174t132.5 86q-67 19 -115 82.5t-78 162.5l-128 404q-7 19 -1.5 29t28.5 10h53q15 0 24.5 -6.5t17.5 -26.5l129 -403q21 -67 52 -107.5t67 -62t72.5 -28t69.5 -6.5h230v614q0 28 26 28h71q27 0 27 -28v-614h230 q33 0 69.5 6.5t72.5 28t66 62t53 107.5l130 403q6 20 15.5 26.5t25.5 6.5h52q25 0 30 -10t-2 -29l-127 -404q-31 -99 -79 -162.5t-115 -82.5q87 -21 132.5 -85.5t80.5 -174.5l134 -448q5 -19 1.5 -30t-27.5 -11h-63q-17 0 -26 5.5t-15 25.5l-130 440q-22 66 -49 108 t-59.5 65t-73 30.5t-86.5 7.5h-240v-653q0 -29 -27 -29h-71q-26 0 -26 29v653h-241q-48 0 -87 -7.5t-72.5 -30.5t-59.5 -64.5t-48 -108.5l-132 -440q-7 -19 -15.5 -25t-24.5 -6h-62q-25 0 -28 10.5z"/>
<glyph unicode="З" horiz-adv-x="1032" d="M8 74l9 38q2 11 8 17t23 3q87 -12 193.5 -23t185.5 -11q81 0 150.5 17t119.5 54.5t79.5 92.5t29.5 131q0 176 -93.5 242.5t-269.5 66.5h-48q-28 0 -28 29v50q0 33 28 33h37q73 0 135.5 16.5t111 50t76.5 84t28 118.5q0 89 -31 140t-79 77t-104.5 34t-106.5 8 q-26 0 -66 -3t-85.5 -8t-91 -10.5t-82.5 -11.5q-17 -4 -23 1t-10 16l-9 39q-4 13 -0.5 21t21.5 14q47 17 98 29.5t100 18.5t91 9.5t73 3.5q243 0 343.5 -93.5t100.5 -271.5q0 -110 -67 -201.5t-184 -126.5v-4q124 -30 196.5 -113.5t72.5 -244.5q0 -116 -39 -196 t-109.5 -130.5t-167 -74.5t-210.5 -24q-35 0 -84.5 3t-104.5 10.5t-107.5 18.5t-91.5 26q-24 9 -18 35z"/>
<glyph unicode="И" horiz-adv-x="1336" d="M154 24v1387q0 28 24 28h72q25 0 23 -28v-1200h7l172 267l594 937q9 11 14.5 17.5t22.5 6.5h75q24 0 23 -24q0 -350 1 -695t1 -694q0 -26 -28 -26h-70q-24 0 -24 26v1207h-6l-176 -280q-148 -234 -296 -463t-297 -466q-8 -12 -13.5 -18t-22.5 -6h-72q-24 0 -24 24z"/>
<glyph unicode="Й" horiz-adv-x="1336" d="M154 24v1387q0 28 24 28h72q25 0 23 -28v-1200h7l172 267l594 937q9 11 14.5 17.5t22.5 6.5h75q24 0 23 -24q0 -350 1 -695t1 -694q0 -26 -28 -26h-70q-24 0 -24 26v1207h-6l-176 -280q-148 -234 -296 -463t-297 -466q-8 -12 -13.5 -18t-22.5 -6h-72q-24 0 -24 24z M355 1697.5q-5 15.5 5 26.5l33 26q17 13 32 -6q29 -40 55 -65.5t53 -43t57.5 -25.5t67.5 -8q65 0 112.5 34t108.5 110q15 15 33 6l32 -24q11 -9 4.5 -24t-10.5 -26q-50 -95 -126 -138.5t-159 -43.5q-85 0 -164 42t-124 136q-5 8 -10 23.5z"/>
<glyph unicode="К" horiz-adv-x="1164" d="M152 29v1382q0 28 26 28h72q27 0 26 -28v-614h284q33 0 70 6.5t72.5 28t66 62t51.5 107.5l131 403q6 20 16 26.5t25 6.5h52q27 0 31 -10t-2 -29l-129 -404q-30 -99 -78 -162.5t-114 -82.5q86 -21 132 -85.5t80 -174.5l134 -448q4 -19 1 -30t-26 -11h-64q-15 0 -23.5 5.5 t-15.5 25.5l-132 440q-21 66 -47.5 108t-60.5 65t-72.5 30.5t-86.5 7.5h-295v-653q0 -29 -26 -29h-72q-26 0 -26 29z"/>
<glyph unicode="Л" horiz-adv-x="1256" d="M11 15v43q0 15 4 20t22 7q76 13 123 41t74 91t39.5 171.5t24.5 278.5l45 746q0 26 26 26h712q25 0 24 -26v-1389q0 -24 -24 -24h-72q-29 0 -27 24v1300h-524l-46 -721q-8 -137 -22.5 -249.5t-50 -194t-102.5 -128t-185 -48.5q-27 -2 -34 6.5t-7 25.5z"/>
<glyph unicode="М" horiz-adv-x="1568" d="M159 33v1380q0 26 21 26h72q19 0 25.5 -4t12.5 -22l381 -808l112 -251h5l115 256l380 799q8 17 18 23.5t31 6.5h56q24 0 23 -26v-1380q0 -19 -5.5 -26t-22.5 -7h-59q-17 0 -24.5 6.5t-7.5 26.5v1152l-7 2l-82 -191l-358 -746q-11 -24 -33 -24h-54q-24 0 -35 21l-369 766 l-74 172h-7v-1152q0 -19 -5 -26t-23 -7h-54q-17 0 -24.5 6.5t-7.5 26.5z"/>
<glyph unicode="Н" horiz-adv-x="1258" d="M156 33v1371q0 22 8 28.5t25 6.5h61q29 0 28 -35v-581h708v581q0 22 6.5 28.5t22.5 6.5h62q29 0 28 -35v-1371q0 -19 -5.5 -26t-22.5 -7h-62q-16 0 -22.5 6.5t-6.5 26.5v673h-708v-673q0 -19 -5.5 -26t-22.5 -7h-61q-17 0 -25 6.5t-8 26.5z"/>
<glyph unicode="О" horiz-adv-x="1358" d="M135 740q0 70 6 149t26 159.5t56 154t95 130.5t145 90t208 33q180 0 288.5 -62t166 -162.5t76 -230t18.5 -261.5q0 -133 -15.5 -267.5t-71.5 -243.5t-165.5 -178.5t-296.5 -69.5q-184 0 -291 69.5t-161 178.5t-69 243.5t-15 267.5zM261 719q0 -135 18.5 -250t65 -200 t125.5 -133.5t201 -48.5t203 45.5t131 128t71.5 200t21.5 258.5q0 145 -19.5 262t-67 200t-131 128.5t-209.5 45.5q-120 0 -199 -48t-125.5 -132.5t-66 -200.5t-19.5 -255z"/>
<glyph unicode="П" horiz-adv-x="1264" d="M159 26v1387q0 26 23 26h906q24 0 24 -26v-1387q0 -26 -24 -26h-75q-26 0 -25 26v1298h-708v-1298q0 -26 -21 -26h-77q-24 0 -23 26z"/>
<glyph unicode="Р" horiz-adv-x="1067" d="M156 33v1378q0 15 7 21.5t26 6.5h408q91 0 169.5 -25.5t135.5 -77t90 -127.5t33 -178q0 -78 -24 -154t-75.5 -137t-130 -99t-192.5 -38h-325v-570q0 -19 -6.5 -26t-24.5 -7h-60q-17 0 -24 6.5t-7 26.5zM278 708h323q27 0 76.5 9.5t98.5 43.5t85 97t36 169 q0 156 -91.5 228.5t-234.5 70.5h-293v-618z"/>
<glyph unicode="С" horiz-adv-x="1110" d="M135 704q0 147 20.5 283t79 239.5t162.5 165.5t274 62q33 0 81.5 -3t102.5 -9.5t106 -17.5t92 -26q10 -4 12.5 -13t0.5 -20l-9 -35q-2 -8 -6.5 -15.5t-21.5 -5.5q-82 11 -170 22t-192 11q-139 0 -220.5 -54.5t-123 -143.5t-52 -203.5t-10.5 -236.5q0 -110 13.5 -220.5 t57 -196.5t123 -139t212.5 -53q104 0 192 11.5t170 21.5q17 2 21.5 -5t6.5 -15l9 -36q2 -11 0 -20t-13 -13q-40 -15 -92 -26t-106 -17.5t-102.5 -9.5t-81.5 -3q-165 0 -269 58.5t-164 157.5t-81.5 229t-21.5 276z"/>
<glyph unicode="Т" horiz-adv-x="1009" d="M37 1359v52q0 15 6.5 21.5t26.5 6.5h874q20 0 26.5 -6t6.5 -22v-52q0 -17 -6.5 -25t-26.5 -8h-375l-2 -1293q0 -19 -6 -26t-23 -7h-60q-17 0 -25 6.5t-8 26.5v1293h-375q-19 0 -26 8t-7 25z"/>
<glyph unicode="У" horiz-adv-x="1106" d="M52 1427q0 10 18 10h91q13 0 18 -3t10 -15l371 -955h2l362 955q11 19 33 20h83q17 0 17 -10q0 -6 -2 -12q-111 -277 -217.5 -550.5t-216.5 -551.5q-35 -83 -64 -145t-63 -103t-78.5 -62.5t-107.5 -23.5q-32 0 -67.5 3t-66.5 14q-31 10 -25 33l10 43q6 25 34 21 q13 -2 26 -3t22 -1q47 0 80 7.5t57 27t44.5 52.5t41.5 81l31 66q-110 276 -220 547.5t-221 544.5q-2 2 -2 10z"/>
<glyph unicode="Ф" horiz-adv-x="1547" d="M120 727q0 118 30 228.5t99.5 198t183.5 145.5t284 68v46q0 26 23 26h76q25 0 25 -26v-46q176 -8 289.5 -64t178.5 -144t91.5 -200t26.5 -232q0 -130 -31 -243t-99 -200t-180 -141t-276 -65v-52q0 -26 -25 -26h-76q-24 0 -23 26v52q-183 7 -299 68t-182 153t-91 205 t-25 223zM241 723q0 -112 23.5 -207t79.5 -165.5t147 -114t226 -52.5v1077q-141 -8 -232.5 -55.5t-146 -122t-76 -167.5t-21.5 -193zM841 184q130 9 217.5 51.5t142 112t77.5 165t23 208.5q0 87 -16.5 179t-66.5 170t-140 131.5t-237 57.5v-1075z"/>
<glyph unicode="Х" horiz-adv-x="1098" d="M56 24l431 714l-400 675q-6 11 -4 18.5t12 7.5h83q21 0 29 -6t15 -18l329 -570l328 568q15 26 51 26h66q17 0 20 -9t-3 -17l-398 -675l431 -717q4 -8 1 -14.5t-16 -6.5h-78q-31 0 -46 24l-356 610l-356 -608q-11 -14 -18 -20t-32 -6h-78q-27 0 -11 24z"/>
<glyph unicode="Ц" horiz-adv-x="1278" d="M161 26v1387q0 26 26 26h76q21 0 21 -26v-1297h708v1297q0 26 27 26h73q24 0 24 -26v-1293l78 -10q19 -4 24.5 -14.5t3.5 -25.5l-17 -350q-2 -24 -9 -31.5t-17 -7.5h-56q-13 0 -20 7.5t-7 31.5l-11 280h-898q-27 0 -26 26z"/>
<glyph unicode="Ч" horiz-adv-x="1167" d="M85 1007v404q0 28 25 28h72q27 0 27 -26v-386q0 -163 78 -234.5t217 -71.5q95 0 190.5 14t193.5 44v634q0 11 4.5 18.5t21.5 7.5h72q26 0 25 -24v-1389q0 -26 -25 -26h-74q-25 0 -24 26v645q-43 -17 -94.5 -29t-105.5 -22t-108 -14.5t-102 -4.5q-122 0 -199.5 36 t-120 93.5t-58 130.5t-15.5 146z"/>
<glyph unicode="Ш" horiz-adv-x="1800" d="M161 26v1389q0 24 26 24h74q24 0 23 -24v-1299h557v1297q0 26 23 26h76q25 0 24 -26v-1297h554v1299q0 24 27 24h73q24 0 23 -24v-1389q0 -26 -23 -26h-1431q-27 0 -26 26z"/>
<glyph unicode="Щ" horiz-adv-x="1805" d="M161 29v1386q0 27 26 27h76q21 0 21 -27v-1299h557v1297q0 26 23 26h76q27 0 26 -26v-1297h552v1299q0 27 27 27h73q24 0 23 -27v-1295l78 -10q19 -4 25 -14.5t4 -25.5l-18 -350q-2 -24 -8.5 -31.5t-17.5 -7.5h-55q-12 0 -18.5 7.5t-8.5 31.5l-9 280h-1426q-27 0 -26 29z "/>
<glyph unicode="Ъ" horiz-adv-x="1444" d="M6 1348v65q0 24 25 24h540q25 0 24 -26v-580h364q124 0 203 -37.5t127.5 -98.5t66.5 -137t18 -150q0 -102 -33.5 -179t-91.5 -128t-135.5 -76t-169.5 -25h-447q-26 0 -26 24v1300h-438q-27 0 -27 24zM595 110h329q143 0 235 73.5t92 226.5q0 29 -7 52q-4 79 -34.5 128.5 t-73 79t-91.5 41.5t-94 12h-356v-613z"/>
<glyph unicode="Ы" horiz-adv-x="1510" d="M154 24v1387q0 26 28 26h72q27 0 26 -26v-578h362q122 0 202 -37.5t127.5 -98.5t66.5 -137t19 -152q0 -102 -33.5 -178t-91.5 -127t-135.5 -77t-168.5 -26h-446q-28 0 -28 24zM280 112h330q143 0 233.5 72.5t90.5 227.5q0 85 -26.5 145t-68.5 96.5t-96.5 53t-108.5 16.5 h-354v-611zM1231 26v1387q0 26 26 26h75q25 0 25 -26v-1387q0 -26 -25 -26h-75q-26 0 -26 26z"/>
<glyph unicode="Ь" horiz-adv-x="1117" d="M154 24v1387q0 26 28 26h72q27 0 26 -26v-578h362q122 0 202 -37.5t127.5 -98.5t66.5 -137t19 -152q0 -102 -33.5 -178t-91.5 -127t-135.5 -77t-168.5 -26h-446q-28 0 -28 24zM280 112h330q143 0 233.5 72.5t90.5 227.5q0 85 -26.5 145t-68.5 96.5t-95.5 53t-109.5 16.5 h-354v-611z"/>
<glyph unicode="Э" horiz-adv-x="1139" d="M102 65l8 41q7 21 31 20q35 -4 78.5 -9t90 -8t94.5 -5t91 -2q130 0 214 48.5t131.5 130.5t65.5 187t20 220h-572q-24 0 -24 26v65q0 21 24 22h572q-4 102 -18.5 197.5t-58 170.5t-123 121t-210.5 46q-93 0 -175 -9t-152 -16q-17 -4 -22.5 2.5t-10.5 14.5l-7 42 q-4 24 18 32q38 15 85.5 25t97.5 16.5t95.5 8.5t80.5 2q171 0 276 -57t162 -156t75 -230.5t18 -276.5q0 -148 -24 -283.5t-85.5 -240t-169 -166t-277.5 -61.5q-28 0 -76 2t-102 7.5t-107 14t-92 24.5q-26 10 -22 34z"/>
<glyph unicode="Ю" horiz-adv-x="1645" d="M159 26v1387q0 26 23 26h77q21 0 21 -26v-593h196q4 102 25 215t76 207t152.5 154t258.5 60q176 0 279 -62t158.5 -162.5t71.5 -229t16 -262.5q0 -133 -14 -267.5t-66 -243.5t-157.5 -178.5t-287.5 -69.5q-174 0 -276 63.5t-154 168t-67 234t-15 259.5h-196v-680 q0 -26 -21 -26h-77q-24 0 -23 26zM601 719q0 -135 15.5 -249t58 -197.5t118 -131.5t195.5 -48q118 0 195.5 44.5t124.5 126.5t65.5 198t18.5 257q0 145 -17.5 261t-62 197.5t-122.5 125t-202 43.5q-118 0 -192.5 -45.5t-118 -129t-60 -198.5t-16.5 -254z"/>
<glyph unicode="Я" horiz-adv-x="1158" d="M66 10.5q-3 10.5 1 30.5l115 402q29 87 65.5 144t102.5 88q-58 17 -99.5 52t-68 81.5t-38.5 101.5t-12 111q0 106 37.5 185t96.5 131.5t137.5 77t163.5 24.5h410q27 0 26 -24v-1389q0 -26 -26 -26h-74q-24 0 -24 29v605h-297q-46 0 -87 -8.5t-77 -31.5t-65.5 -63 t-48.5 -106l-113 -394q-7 -19 -15.5 -25t-23.5 -6h-59q-24 0 -27 10.5zM263 1027q0 -102 36.5 -157.5t88 -83.5t106.5 -33.5t94 -5.5h291v577h-293q-58 0 -116 -15t-103.5 -51t-74.5 -92t-29 -139z"/>
<glyph unicode="а" horiz-adv-x="1096" d="M95 271q0 185 92.5 272t296.5 87h336v97q0 65 -11.5 111t-43 75t-86 43t-136.5 14q-70 0 -154.5 -6.5t-160.5 -14.5q-31 -2 -33 15l-8 39q0 21 24 33q35 12 80 21t93 14.5t93 7.5t78 2q122 0 197 -22.5t117.5 -69.5t57.5 -117.5t15 -163.5v-534q0 -31 4.5 -47.5t14 -25 t27 -11.5t46.5 -5q24 0 23 -20v-44q0 -10 -6.5 -16.5t-25.5 -10.5q-106 -11 -152 15t-53 115h-2q-47 -29 -95 -53.5t-102 -44.5t-115 -31.5t-133 -11.5q-147 0 -212.5 72.5t-65.5 215.5zM222 278q0 -108 42 -147.5t153 -39.5q47 0 106 15.5t115 37t104 44.5t78 40v298h-351 q-57 0 -102.5 -11t-77.5 -39.5t-49.5 -76t-17.5 -121.5z"/>
<glyph unicode="б" horiz-adv-x="1063" d="M104 495q0 174 10 323.5t51.5 269t125.5 204t235 129.5q39 11 82 21t88.5 20t89 17.5t80.5 14.5q17 4 23 2t10 -17l10 -46q5 -19 -0.5 -27t-20.5 -12q-85 -17 -149 -30.5t-120 -25.5q-102 -27 -171 -65t-113.5 -94t-68 -133.5t-32.5 -181.5q0 -2 2 -2l2 -2 q50 70 137 110.5t198 40.5q124 0 201 -44.5t120.5 -114t59.5 -156t16 -170.5q0 -91 -14 -188t-61.5 -175t-135.5 -129t-237 -51q-141 0 -224 47.5t-126.5 122.5t-55.5 165t-12 177zM228 497q0 -83 9.5 -155.5t42.5 -129t91.5 -89t156.5 -32.5q100 0 163 34t96 91t45.5 133 t12.5 161q0 74 -11 144.5t-41.5 124.5t-89.5 88t-152 34q-104 0 -167 -39t-97.5 -98.5t-46.5 -131.5t-12 -135z"/>
<glyph unicode="в" horiz-adv-x="1026" d="M110 31v1000q0 27 33 26h433q171 0 248 -77t77 -197q0 -26 -5.5 -56.5t-19.5 -60.5t-41 -58t-73 -53q52 -17 85.5 -47t53 -67t27.5 -76.5t8 -71.5q0 -65 -25 -119t-69.5 -93.5t-105.5 -60t-135 -20.5h-449q-25 0 -33.5 7.5t-8.5 23.5zM230 106h339q70 0 117.5 17.5 t75.5 44.5t40 61t12 69q0 39 -12 74.5t-39 62.5t-71.5 44.5t-109.5 17.5h-352v-391zM230 599h317q35 0 76.5 9t77 28t58 54t22.5 87q0 72 -49.5 124t-173.5 52h-328v-354z"/>
<glyph unicode="г" horiz-adv-x="856" d="M116 31v998q0 29 29 28h654q31 0 30 -28v-47q0 -17 -6.5 -24t-25.5 -7h-565v-920q0 -31 -31 -31h-54q-33 0 -31 31z"/>
<glyph unicode="д" horiz-adv-x="1178" d="M21 56q-2 21 6 29t25 13l54 8q76 56 107.5 139t49.5 207l69 527q6 38 26.5 58t78.5 20h540q37 0 36 -36v-915l64 -6q26 -7 25 -30l-17 -311q-2 -26 -7 -32.5t-19 -6.5h-50q-13 0 -19 6.5t-6 30.5l-9 243h-823l-15 -238q-2 -25 -8.5 -33.5t-16.5 -8.5h-56q-13 0 -19 6.5 t-6 30.5zM257 106h640v845h-458q-13 -110 -26 -218t-29 -219q-11 -91 -22.5 -153.5t-26 -109t-34 -80.5t-44.5 -65z"/>
<glyph unicode="е" horiz-adv-x="1046" d="M100 536q0 94 11 190.5t53.5 174.5t128 128t235.5 50q137 0 220 -41.5t130.5 -107.5t64 -152t16.5 -175q0 -50 -18.5 -78t-70.5 -28h-644q4 -108 16 -185.5t43.5 -125t89 -69.5t153.5 -22q33 0 78 3.5t93 8.5t92 10t73 7q21 2 29 -18l6 -34q6 -24 -25 -37q-26 -9 -69 -19 t-93 -17t-101 -11.5t-93 -4.5q-145 0 -228 45.5t-125.5 121.5t-53.5 176.5t-11 209.5zM226 597h607q-2 67 -10.5 134.5t-39.5 120.5t-91 85.5t-164 32.5q-100 0 -157.5 -25t-89 -72.5t-41.5 -117t-14 -158.5z"/>
<glyph unicode="ж" horiz-adv-x="1454" d="M51.5 8.5q-3.5 8.5 0.5 26.5l97 290q15 48 31.5 86t38.5 65.5t50.5 46t66.5 28.5q-60 17 -97.5 72.5t-66.5 144.5l-85 255q-6 17 -3 25.5t26 8.5h57q27 0 34 -28l87 -256q19 -59 48 -95t60 -55.5t63 -24.5t63 -5h145v441q0 24 23 23h74q25 0 24 -23v-441h146q28 0 60.5 5 t64 24.5t59.5 55.5t48 95l87 256q8 29 34 28h57q24 0 27 -8.5t-4 -25.5l-84 -255q-31 -89 -67.5 -144t-97.5 -73q40 -10 68 -28.5t49.5 -46t36.5 -65.5t33 -86l97 -290q5 -17 1.5 -26t-25.5 -9h-63q-12 0 -21 4t-14 22l-93 278q-19 59 -44 95t-55.5 55t-67 26t-78.5 7h-154 v-463q0 -24 -24 -24h-74q-24 0 -23 24v463h-155q-43 0 -78.5 -7t-66.5 -26t-56 -55t-44 -95l-93 -278q-4 -16 -13 -21t-22 -5h-63q-21 0 -24.5 8.5z"/>
<glyph unicode="з" horiz-adv-x="882" d="M21 65l8 33q6 26 34 20q95 -17 162.5 -22t122.5 -5q141 0 226.5 46.5t85.5 168.5q0 113 -77 159.5t-199 46.5h-50q-27 0 -26 26v48q0 25 26 24h41q54 0 103.5 11t86 33.5t58 56t21.5 79.5q0 54 -18.5 89t-51.5 55.5t-77.5 28t-96.5 7.5q-57 0 -132 -6.5t-140 -12.5h-24.5 t-14.5 19l-4 41q-4 17 17 25q35 12 76 22t83.5 14.5t80 6.5t68.5 2q176 0 269.5 -69.5t93.5 -212.5q0 -67 -48 -136.5t-143 -91.5v-4q85 -17 146.5 -87t61.5 -172q0 -89 -34.5 -151t-94.5 -101t-139 -56t-168 -17q-29 0 -69 2t-83 7.5t-86.5 15t-76.5 25.5q-21 10 -18 32z "/>
<glyph unicode="и" horiz-adv-x="1075" d="M116 31v996q0 31 29 30h60q28 0 27 -30v-826l274 381l332 449l18.5 18.5t24.5 7.5h51q30 0 29 -28v-998q0 -31 -31 -31h-56q-32 0 -31 31v848l-236 -332l-383 -526q-7 -8 -15 -14.5t-25 -6.5h-41q-29 0 -27 31z"/>
<glyph unicode="й" horiz-adv-x="1075" d="M116 31v996q0 31 29 30h60q28 0 27 -30v-826l274 381l332 449l18.5 18.5t24.5 7.5h51q30 0 29 -28v-998q0 -31 -31 -31h-56q-32 0 -31 31v848l-236 -332l-383 -526q-7 -8 -15 -14.5t-25 -6.5h-41q-29 0 -27 31zM227 1399.5q-5 15.5 5 27.5l33 25q17 13 33 -6 q28 -39 53.5 -65t53 -43.5t58 -25t67.5 -7.5q65 0 112.5 33.5t109.5 109.5q14 15 31 6l33 -23q11 -8 4.5 -23.5t-10.5 -26.5q-50 -95 -126 -139t-158 -44q-85 0 -164.5 42.5t-125.5 135.5q-4 8 -9 23.5z"/>
<glyph unicode="к" horiz-adv-x="941" d="M116 24v1010q0 24 21 23h74q24 0 23 -23v-441h187q28 0 60.5 5t64.5 24.5t60 55.5t47 95l87 256q8 29 37 28h54q24 0 27.5 -8.5t-3.5 -25.5l-84 -255q-31 -89 -67.5 -144t-98.5 -73q39 -10 68 -28.5t50 -46t36.5 -65.5t33.5 -86l97 -290q5 -17 1.5 -26t-25.5 -9h-63 q-12 0 -21 4t-14 22l-91 278q-19 59 -44.5 95t-56.5 55t-67 26t-77 7h-198v-463q0 -24 -23 -24h-74q-21 0 -21 24z"/>
<glyph unicode="л" horiz-adv-x="1098" d="M11 6v46q0 15 5 18.5t21 5.5q65 7 104 26.5t63 57t36 98.5t21 152l47 551q5 57 30 76.5t79 19.5h525q31 0 31 -28v-1000q0 -29 -29 -29h-58q-33 0 -33 29v922h-436l-48 -586q-6 -77 -18.5 -145t-45 -121t-95.5 -84.5t-169 -31.5q-30 0 -30 23z"/>
<glyph unicode="м" horiz-adv-x="1258" d="M112 29v1000q0 29 31 28h62q17 0 24 -5.5t14 -15.5q54 -98 106.5 -196t104.5 -198l174 -336l182 343l209 385q10 24 42 23h53q31 0 30 -28v-1000q0 -29 -28 -29h-59q-13 0 -22.5 5.5t-9.5 23.5v791l-190 -356l-149 -275q-7 -9 -15.5 -15.5t-19.5 -6.5h-48q-31 0 -39 22 q-37 66 -72.5 132t-70.5 133q-48 91 -92.5 182t-96.5 182v-789q0 -29 -33 -29h-54q-33 0 -33 29z"/>
<glyph unicode="н" horiz-adv-x="1067" d="M116 29v1000q0 29 29 28h56q33 0 33 -28v-416h599v416q0 29 35 28h54q31 0 31 -28v-1000q0 -29 -31 -29h-54q-35 0 -35 29v479h-599v-479q0 -29 -33 -29h-56q-31 0 -29 29z"/>
<glyph unicode="о" horiz-adv-x="1056" d="M98 547q0 83 12 176t56.5 172.5t127.5 131.5t228 52t232 -44.5t132.5 -119t59 -170.5t13.5 -198q0 -100 -10.5 -201t-54 -181t-131.5 -131t-241 -51q-150 0 -235.5 50t-127 131t-51.5 181t-10 202zM219 532q0 -104 12 -185.5t44.5 -139.5t91 -87t155.5 -29t158.5 28 t96.5 85t48 138t13 190q0 106 -12 187.5t-47 138t-96.5 86t-160.5 29.5q-96 0 -155 -29.5t-91.5 -87t-44.5 -139t-12 -185.5z"/>
<glyph unicode="п" horiz-adv-x="1063" d="M116 26v1008q0 24 27 23h781q25 0 25 -23v-1008q0 -26 -27 -26h-71q-24 0 -24 26v927h-593v-927q0 -26 -25 -26h-70q-25 0 -23 26z"/>
<glyph unicode="р" horiz-adv-x="1080" d="M132 -348v1373q0 33 29 32h58q17 0 25 -6.5t8 -25.5v-95q21 14 63.5 39t96.5 49t116 42.5t125 18.5q95 0 159.5 -33t102.5 -99t53.5 -165.5t15.5 -232.5q0 -139 -18.5 -245.5t-64.5 -178t-125.5 -107t-197.5 -35.5q-63 0 -144.5 14t-179.5 57l-2 -4v-398q0 -21 -8 -27.5 t-25 -6.5h-58q-29 0 -29 34zM252 147q98 -30 179 -43t159 -13q81 0 132 24t81 77t42.5 142t12.5 219q0 129 -11.5 210.5t-36.5 128t-66.5 64t-105.5 17.5q-45 0 -100.5 -16.5t-110 -38t-101 -44.5t-74.5 -39v-688z"/>
<glyph unicode="с" horiz-adv-x="887" d="M98 536q0 106 14 205.5t57.5 174t124.5 119t216 44.5q28 0 69.5 -2t85 -7.5t84.5 -14.5t74 -21q17 -7 18.5 -18t1.5 -20l-10 -37q-2 -10 -12.5 -12.5t-25.5 0.5q-29 2 -65 6t-74.5 7.5t-76.5 5.5t-71 2q-85 0 -140 -21t-86.5 -70.5t-43.5 -132t-12 -206.5q0 -128 13 -214 t44.5 -136.5t85.5 -72.5t139 -22q21 0 58 2.5t79.5 5.5l85 6t77.5 9q26 0 27 -21l8 -28q2 -11 -3 -20.5t-22 -17.5q-52 -22 -138.5 -33t-169.5 -11q-135 0 -216 41t-124.5 115t-57.5 175t-14 220z"/>
<glyph unicode="т" horiz-adv-x="889" d="M26 982v47q0 29 34 28h775q17 0 23 -7.5t6 -20.5v-47q0 -31 -31 -31h-327v-922q0 -29 -33 -29h-52q-35 0 -34 29v922h-327q-35 0 -34 31z"/>
<glyph unicode="у" horiz-adv-x="950" d="M39 1047.5q2 7.5 15 7.5h78q17 0 24 -24l289 -793l39 -118l38 125l263 793q5 10 8.5 14.5t14.5 4.5h85q12 0 13 -6.5t-3 -16.5l-478 -1390q-4 -13 -12.5 -19.5t-25.5 -6.5h-64q-24 0 -17 26l117 339l-382 1046q-4 11 -2 18.5z"/>
<glyph unicode="ф" horiz-adv-x="1317" d="M98 534q0 98 21.5 193.5t79.5 172.5t155.5 125t246.5 52v336q0 26 24 26h67q13 0 19 -4t6 -22v-336q149 -4 246.5 -49.5t155.5 -120t79.5 -170t21.5 -196.5q0 -116 -27 -215.5t-87 -173.5t-156.5 -118.5t-232.5 -48.5v-343q0 -25 -21 -24h-71q-24 0 -24 26v341 q-137 2 -233.5 45.5t-156 116t-86.5 172.5t-27 215zM222 526q0 -213 91 -318.5t288 -116.5v875q-108 -2 -180.5 -34.5t-116 -90.5t-63 -138t-19.5 -177zM717 91q195 11 287 116.5t92 318.5q0 97 -19.5 177t-63 138t-117 90.5t-179.5 34.5v-875z"/>
<glyph unicode="х" horiz-adv-x="872" d="M22.5 8.5q-3.5 8.5 3.5 17.5l339 515l-324 490q-6 11 -3 18.5t16 7.5h87q11 0 15.5 -5.5t10.5 -15.5l263 -398l264 398q5 10 9.5 15.5t17.5 5.5h87q12 0 15.5 -7.5t-3.5 -18.5l-325 -490l340 -515q5 -8 1.5 -17t-16.5 -9h-86q-11 0 -15.5 6.5t-10.5 14.5l-278 420 l-276 -420q-7 -8 -11 -14.5t-15 -6.5h-89q-13 0 -16.5 8.5z"/>
<glyph unicode="ц" horiz-adv-x="1089" d="M116 31v998q0 29 29 28h56q31 0 31 -28v-921h588v921q0 29 33 28h56q31 0 31 -28v-917l71 -4q19 -2 24 -11.5t5 -26.5l-17 -296q-2 -26 -8 -33.5t-19 -7.5h-52q-12 0 -18 7.5t-8 31.5l-9 228h-764q-31 0 -29 31z"/>
<glyph unicode="ч" horiz-adv-x="984" d="M65 754v269q0 33 33 32h56q17 0 22.5 -6.5t5.5 -25.5v-213q0 -91 7.5 -150t28 -93.5t60 -48.5t101.5 -14q46 0 101.5 16t109.5 39t101 46t71 35v383q0 33 31 32h56q17 0 22.5 -6.5t5.5 -25.5v-988q0 -35 -28 -35h-56q-17 0 -25 6.5t-8 28.5v512q-21 -15 -63 -40t-94 -50 t-114 -42t-124 -17q-100 0 -159 27t-90 73.5t-41 111.5t-10 144z"/>
<glyph unicode="ш" horiz-adv-x="1508" d="M116 31v998q0 29 29 28h60q30 0 29 -28v-921h462v921q0 29 33 28h54q33 0 33 -28v-921h460v921q0 29 35 28h56q29 0 29 -28v-998q0 -31 -29 -31h-1222q-31 0 -29 31z"/>
<glyph unicode="щ" horiz-adv-x="1545" d="M116 31v998q0 29 29 28h60q30 0 29 -28v-921h462v921q0 29 33 28h54q33 0 33 -28v-921h462v921q0 29 35 28h57q26 0 26 -28v-919l71 -4q19 -4 24 -13.5t5 -25.5l-17 -297q-2 -27 -8 -34t-19 -7h-50q-12 0 -18 8.5t-8 32.5l-11 230h-1220q-31 0 -29 31z"/>
<glyph unicode="ъ" horiz-adv-x="1237" d="M8 979v50q0 29 31 28h419q33 0 33 -28v-401h347q98 0 163 -27.5t104 -70.5t56.5 -101t17.5 -116q0 -77 -27 -135t-75 -97.5t-114 -60t-145 -20.5h-412q-35 0 -35 31v920h-330q-19 0 -26 6.5t-7 21.5zM491 108h319q110 0 180.5 49.5t70.5 153.5q0 58 -19 98t-51 64 t-73 33.5t-83 9.5h-344v-408z"/>
<glyph unicode="ы" horiz-adv-x="1278" d="M116 31v998q0 29 33 28h50q33 0 33 -28v-401h350q97 0 162.5 -27.5t104.5 -70.5t56 -101t17 -116q0 -77 -27 -135t-74.5 -97.5t-114 -60t-144.5 -20.5h-413q-35 0 -33 31zM232 108h321q111 0 180.5 49.5t69.5 153.5q0 58 -19.5 98t-49.5 64t-71.5 33.5t-82.5 9.5h-348 v-408zM1044 29v998q0 31 33 30h58q29 0 29 -30v-998q0 -29 -29 -29h-58q-33 0 -33 29z"/>
<glyph unicode="ь" horiz-adv-x="976" d="M116 31v998q0 29 33 28h50q33 0 33 -28v-401h350q97 0 162.5 -27.5t104.5 -70.5t56 -101t17 -116q0 -77 -27 -135t-74.5 -97.5t-114 -60t-144.5 -20.5h-413q-35 0 -33 31zM232 108h321q111 0 180.5 49.5t69.5 153.5q0 58 -19.5 98t-49.5 64t-71.5 33.5t-82.5 9.5h-348 v-408z"/>
<glyph unicode="э" horiz-adv-x="905" d="M50 60l6 35q4 25 33 21q33 -5 71.5 -9.5t79 -8t77.5 -5.5t67 -2q78 0 133.5 22t91 70.5t52 126t18.5 189.5h-457q-17 0 -24 3.5t-7 21.5v54q0 26 31 25h457q-2 98 -18.5 168t-49.5 115.5t-87.5 66t-132.5 20.5q-62 0 -131 -8t-134 -16q-33 -5 -35 17l-6 43q-4 17 15 25 q66 26 152 36.5t150 10.5q136 0 216.5 -43.5t122.5 -117t54.5 -172.5t12.5 -210q0 -119 -16.5 -220t-62 -174.5t-128.5 -116t-214 -42.5q-35 0 -77.5 2t-86 7.5t-84.5 14t-72 22.5q-21 10 -17 29z"/>
<glyph unicode="ю" horiz-adv-x="1310" d="M116 29v1000q0 29 27 28h58q31 0 31 -28v-416h159q2 78 16 160t56.5 150.5t120.5 112t209 43.5q145 0 229.5 -46.5t126.5 -122t53.5 -171t11.5 -192.5q0 -95 -8 -196t-48 -182.5t-124.5 -133.5t-240.5 -52q-143 0 -223.5 46.5t-120 121.5t-49 168t-9.5 189h-159v-479 q0 -29 -31 -29h-58q-29 0 -27 29zM514 532q0 -102 8 -182.5t37 -138t83 -88t151 -30.5q100 0 158 29.5t89 86t39.5 138t8.5 185.5t-8.5 184.5t-39.5 136.5t-89 85.5t-158 29.5q-96 0 -150.5 -31.5t-83.5 -87.5t-37 -136.5t-8 -180.5z"/>
<glyph unicode="я" horiz-adv-x="1015" d="M62 8.5q-4 8.5 1 26.5l86 261q22 70 52.5 117t80.5 71q-54 13 -90 41t-56 64t-28 78.5t-8 84.5q0 78 28 135t77 95.5t114 57.5t137 19h408q39 0 39 -30v-996q0 -31 -39 -31h-48q-33 0 -33 31v421h-292q-39 -2 -73 -9.5t-61 -27t-50 -54.5t-40 -90l-83 -247 q-4 -16 -12.5 -21t-22.5 -5h-62q-21 0 -25 8.5zM219 749q0 -56 20 -92t54.5 -57.5t77.5 -30.5t93 -9h319v389h-305q-54 0 -102 -11.5t-82.5 -35t-54.5 -61.5t-20 -92z"/>
<glyph unicode="ё" horiz-adv-x="1046" d="M100 536q0 94 11 190.5t53.5 174.5t128 128t235.5 50q137 0 220 -41.5t130.5 -107.5t64 -152t16.5 -175q0 -50 -18.5 -78t-70.5 -28h-644q4 -108 16 -185.5t43.5 -125t89 -69.5t153.5 -22q33 0 78 3.5t93 8.5t92 10t73 7q21 2 29 -18l6 -34q6 -24 -25 -37q-26 -9 -69 -19 t-93 -17t-101 -11.5t-93 -4.5q-145 0 -228 45.5t-125.5 121.5t-53.5 176.5t-11 209.5zM226 597h607q-2 67 -10.5 134.5t-39.5 120.5t-91 85.5t-164 32.5q-100 0 -157.5 -25t-89 -72.5t-41.5 -117t-14 -158.5zM280 1320q0 30 13 51t57 21q43 0 56 -19.5t13 -52.5 q0 -31 -12 -53.5t-57 -22.5q-46 0 -58 23t-12 53zM660 1320q0 30 13 51t56 21q44 0 57 -19.5t13 -52.5q0 -31 -13 -53.5t-57 -22.5q-47 0 -58 23t-11 53z"/>
<glyph unicode="ђ" horiz-adv-x="1162" d="M41 1253v45q0 27 26 26h130v178q0 27 22 27h74q24 0 24 -27v-178h491q24 0 23 -23v-48q0 -24 -23 -24h-491v-317q104 49 195 73t174 24q184 2 287.5 -116t103.5 -355q0 -97 -23 -199.5t-75.5 -199t-135.5 -179t-205 -140.5q-17 -7 -26 -4.5t-17 17.5l-15 35q-13 21 10 32 q176 104 268.5 258.5t92.5 390.5q0 95 -22 162.5t-61 110t-91 61t-112 18.5q-85 0 -175 -28t-173 -65v-782q0 -26 -21 -26h-74q-25 0 -25 26v1203h-130q-27 0 -26 24z"/>
<glyph unicode="ѓ" horiz-adv-x="856" d="M116 31v998q0 29 29 28h654q31 0 30 -28v-47q0 -17 -6.5 -24t-25.5 -7h-565v-920q0 -31 -31 -31h-54q-33 0 -31 31zM358 1233l150 296q8 14 28 6l81 -35q17 -9 4 -26l-186 -278q-11 -11 -25 -5l-45 18q-13 7 -7 24z"/>
<glyph unicode="є" horiz-adv-x="902" d="M98 536q0 106 14 205.5t57.5 174t125.5 119t219 44.5q31 0 73.5 -2t86 -7.5t86.5 -15.5t75 -23q11 -4 14.5 -12t3.5 -18l-6 -37q-4 -17 -37 -17q-63 6 -146.5 14.5t-147.5 8.5q-153 0 -218.5 -85.5t-71.5 -289.5h458q30 0 30 -26v-55q0 -17 -6 -21t-24 -4h-458 q2 -111 19.5 -187t52 -123t89 -67.5t129.5 -20.5q29 0 68 2t79.5 5.5t80 6.5t70.5 7q31 5 33 -19l6 -33q2 -21 -18 -31q-30 -13 -72 -22t-86.5 -14.5t-89 -7.5t-79.5 -2q-135 0 -216 40t-124.5 114t-56.5 174.5t-13 224.5z"/>
<glyph unicode="ѕ" horiz-adv-x="897" d="M91 67l7 28q2 19 26 21q35 -5 79 -9.5t87.5 -8t81.5 -6.5t60 -3q129 0 190.5 41.5t61.5 145.5q0 56 -9.5 93t-35.5 60t-71.5 37t-118.5 25q-78 13 -143 29t-113 47.5t-75 83t-27 128.5q0 145 92.5 222.5t265.5 77.5q27 0 65.5 -2t82 -7.5t85 -13.5t72.5 -20q17 -7 18 -18 t1 -19l-9 -40q-2 -10 -13 -12.5t-26 0.5q-56 4 -127.5 12.5t-150.5 8.5q-136 0 -185 -43.5t-49 -141.5q0 -52 14 -82t43.5 -48.5t76 -28t111.5 -21.5q74 -13 139 -29t112 -48.5t74 -87.5t27 -142t-29 -147t-81.5 -96t-122 -52t-147.5 -16q-84 0 -174.5 10.5t-143.5 33.5 q-17 8 -20 17.5t-1 20.5z"/>
<glyph unicode="і" horiz-adv-x="450" d="M152 1318q0 32 14 54t60 22q45 0 59.5 -20.5t14.5 -55.5q0 -33 -13.5 -57t-60.5 -24q-50 0 -62 24t-12 57zM167 33v992q0 19 7.5 25.5t24.5 6.5h55q17 0 22.5 -6.5t5.5 -25.5v-992q0 -19 -5.5 -26t-22.5 -7h-55q-17 0 -24.5 6.5t-7.5 26.5z"/>
<glyph unicode="ї" horiz-adv-x="455" d="M-37 1313q0 31 13 51.5t57 20.5q43 0 56 -19.5t13 -52.5q0 -30 -12 -53t-57 -23q-46 0 -58 23t-12 53zM167 26v1005q0 17 6.5 21.5t21.5 4.5h70q21 0 21 -26v-1005q0 -26 -21 -26h-70q-29 0 -28 26zM343 1313q0 31 13 51.5t56 20.5q44 0 57 -19.5t13 -52.5q0 -30 -13 -53 t-57 -23q-47 0 -58 23t-11 53z"/>
<glyph unicode="ј" horiz-adv-x="503" d="M-74 -373q-2 17 6 22t20 8q79 8 126.5 24.5t73.5 41.5t34.5 61t8.5 86v1164q0 24 27 23h68q27 0 27 -23v-1173q0 -56 -10.5 -111.5t-47.5 -99t-107.5 -68.5t-192.5 -21q-5 0 -18 6t-13 25zM182 1340q0 33 14.5 54t60.5 21q45 0 59 -20t14 -55q0 -33 -13 -56t-60 -23 q-50 0 -62.5 24t-12.5 55z"/>
<glyph unicode="љ" horiz-adv-x="1649" d="M11 6v46q0 15 5 18.5t21 5.5q65 7 104 26.5t63 57t36 98.5t21 152q10 137 22.5 275t24.5 276q5 57 30 76.5t79 19.5h451q33 0 33 -28v-401h350q97 0 162.5 -27.5t104 -72t55 -102t16.5 -115.5q0 -152 -102 -231.5t-258 -79.5h-411q-37 0 -37 29v924h-364l-48 -588 q-6 -77 -18.5 -145t-45 -121t-94.5 -84.5t-165 -31.5q-22 0 -28.5 5.5t-6.5 17.5zM901 106h321q110 0 180 50.5t70 154.5q0 58 -19.5 98t-51 64t-71.5 33.5t-81 9.5h-348v-410z"/>
<glyph unicode="њ" horiz-adv-x="1549" d="M116 29v1000q0 29 29 28h60q28 0 27 -28v-406h460v406q0 29 37 28h50q33 0 33 -28v-401h350q97 0 162.5 -27.5t104 -70.5t55 -101t16.5 -116q0 -77 -27 -135t-75 -97.5t-114 -60t-144 -20.5h-411q-37 0 -37 31v487h-460v-489q0 -29 -27 -29h-60q-31 0 -29 29zM812 108 h321q110 0 180 49.5t70 153.5q0 58 -19.5 98t-51.5 64t-71.5 33.5t-80.5 9.5h-348v-408z"/>
<glyph unicode="ћ" horiz-adv-x="1117" d="M24 1247v51q0 27 26 26h122v178q0 17 8 20q9 4 27 4h58q27 0 25 -24v-178h511q25 0 24 -23v-54q0 -25 -24 -25h-511v-310q31 17 76.5 42t100.5 48t114.5 38t120.5 15q108 0 169 -31.5t90 -84.5t35.5 -126t6.5 -155q0 -159 1 -316.5t1 -317.5q0 -24 -26 -24h-61 q-19 0 -28 4q-8 2 -9 20q0 164 1.5 325t1.5 324q0 67 -7 119.5t-28.5 87t-61.5 52t-108 17.5q-43 0 -99 -16.5t-112 -38.5t-103.5 -44.5t-74.5 -35.5v-790q0 -24 -25 -24h-58q-17 0 -27 4q-8 2 -8 20v1198h-124q-25 0 -24 25z"/>
<glyph unicode="ќ" horiz-adv-x="941" d="M116 24v1010q0 24 21 23h74q24 0 23 -23v-441h187q28 0 60.5 5t64.5 24.5t60 55.5t47 95l87 256q8 29 37 28h54q24 0 27.5 -8.5t-3.5 -25.5l-84 -255q-31 -89 -67.5 -144t-98.5 -73q39 -10 68 -28.5t50 -46t36.5 -65.5t33.5 -86l97 -290q5 -17 1.5 -26t-25.5 -9h-63 q-12 0 -21 4t-14 22l-91 278q-19 59 -44.5 95t-56.5 55t-67 26t-77 7h-198v-463q0 -24 -23 -24h-74q-21 0 -21 24zM384 1233l150 296q9 14 28 6l80 -35q17 -9 5 -26l-187 -278q-11 -11 -23 -5l-46 18q-13 7 -7 24z"/>
<glyph unicode="ў" horiz-adv-x="950" d="M39 1047.5q2 7.5 15 7.5h78q17 0 24 -24l289 -793l39 -118l38 125l263 793q5 10 8.5 14.5t14.5 4.5h85q12 0 13 -6.5t-3 -16.5l-478 -1390q-4 -13 -12.5 -19.5t-25.5 -6.5h-64q-24 0 -17 26l117 339l-382 1046q-4 11 -2 18.5zM173.5 1428.5q-6.5 15.5 4.5 25.5l35 27 q17 13 32 -7q28 -39 54 -66t53 -44.5t58 -25.5t68 -8q65 0 113.5 34t107.5 110q14 17 32 7l33 -22q11 -11 4.5 -26.5t-10.5 -25.5q-50 -96 -126.5 -139.5t-158.5 -43.5q-85 0 -164 42.5t-125 135.5q-4 11 -10.5 26.5z"/>
<glyph unicode="џ" horiz-adv-x="1063" d="M116 31v998q0 29 31 28h58q30 0 29 -28v-923h593v923q0 29 33 28h58q31 0 31 -28v-998q0 -31 -31 -31h-323l-13 -250q-2 -25 -6.5 -31.5t-15.5 -6.5h-54q-15 0 -20.5 7.5t-5.5 30.5l-14 250h-319q-33 0 -31 31z"/>
<glyph unicode="Ґ" horiz-adv-x="1007" d="M161 26v1387q0 26 26 26h658l27 243q2 29 9 36.5t18 7.5h39q11 0 16 -7.5t5 -36.5v-329q0 -29 -21 -29h-652v-1298q0 -26 -23 -26h-76q-27 0 -26 26z"/>
<glyph unicode="ґ" horiz-adv-x="880" d="M143 31v998q0 29 31 28h562l28 226q2 24 6.5 28t12.5 4h40q17 0 18 -32v-297q0 -13 -4 -23t-21 -10h-555v-922q0 -31 -31 -31h-54q-33 0 -33 31z"/>
<glyph unicode="ә" horiz-adv-x="1044" d="M91 460q0 50 16.5 78.5t68.5 28.5h642q0 95 -12.5 170t-45.5 126t-90 78t-148 27q-77 0 -161.5 -8.5t-153.5 -17.5q-17 0 -25 3.5t-12 15.5l-5 35q-6 19 15 31q33 13 76.5 22.5t92.5 16.5t95.5 10t85.5 3q143 0 225.5 -45.5t124.5 -123t54.5 -176t12.5 -204.5 q0 -89 -15.5 -184.5t-62 -177t-132.5 -133.5t-227 -52q-139 0 -220 40t-124.5 107t-58 153t-16.5 177zM222 466q0 -70 6 -136.5t35.5 -118.5t87 -85t157.5 -33q87 0 145.5 27t93 76t51 118.5t20.5 151.5h-596z"/>
<glyph unicode="–" horiz-adv-x="1085" d="M58 524v56q0 24 27 23h922q27 0 27 -23v-56q0 -17 -25 -18h-926q-25 0 -25 18z"/>
<glyph unicode="—" horiz-adv-x="2170" d="M58 524v56q0 24 27 23h1993q26 0 26 -23v-56q0 -17 -24 -18h-1997q-25 0 -25 18z"/>
<glyph unicode="‘" horiz-adv-x="427" d="M110 1148q0 102 47.5 181.5t103.5 118.5q6 4 14.5 6t12.5 -2l27 -25q8 -11 -7 -27q-62 -60 -63 -141q0 -35 14 -72t34 -62q4 -7 4.5 -18t-13.5 -22l-73 -60q-13 -11 -25 -8.5t-21 10.5q-28 29 -41.5 59.5t-13.5 61.5z"/>
<glyph unicode="’" horiz-adv-x="427" d="M110 1053q-10 10 8 24q62 63 62 143q0 35 -13 70.5t-35 62.5q-4 8 -4 19t13 22l74 58q27 19 46 -2q31 -26 42.5 -58.5t11.5 -61.5q0 -101 -46.5 -181.5t-103.5 -117.5q-6 -4 -15 -7t-13 1z"/>
<glyph unicode="‚" horiz-adv-x="387" d="M95 -243q-8 9 7 24q35 30 49 68.5t14 74.5q0 33 -13 70t-34 62q-5 7 -5.5 18t13.5 21l73 61q25 17 48 -2q29 -27 41 -58.5t12 -60.5q0 -102 -46.5 -182.5t-104.5 -117.5q-4 -4 -13.5 -7.5t-13.5 1.5z"/>
<glyph unicode="“" horiz-adv-x="624" d="M89 1148q0 102 46.5 181.5t102.5 118.5q7 4 16 6t13 -2l26 -25q8 -11 -7 -27q-62 -60 -62 -141q0 -35 14 -72t33 -62q5 -7 5 -18t-13 -22l-74 -60q-13 -11 -25 -8.5t-21 10.5q-29 29 -41.5 59.5t-12.5 61.5zM332 1148q0 102 46.5 181.5t103.5 118.5q7 4 15.5 6t12.5 -2 l26 -25q9 -11 -6 -27q-63 -60 -64 -141q0 -35 13.5 -72t34.5 -62q4 -7 4 -18t-12 -22l-74 -60q-12 -11 -24.5 -8.5t-20.5 10.5q-31 29 -43 59.5t-12 61.5z"/>
<glyph unicode="”" horiz-adv-x="624" d="M89 1053q-11 10 6 24q63 63 64 143q0 35 -13.5 70.5t-35.5 62.5q-4 8 -4 19t14 22l73 58q26 19 45 -2q31 -26 43 -58.5t12 -61.5q0 -101 -47 -181.5t-103 -117.5q-6 -4 -14.5 -7t-12.5 1zM332 1053q-11 10 6 24q63 63 64 143q0 35 -13.5 70.5t-34.5 62.5q-4 8 -4 19 t13 22l74 58q26 19 45 -2q29 -26 41.5 -58.5t12.5 -61.5q0 -101 -46.5 -181.5t-102.5 -117.5q-6 -4 -15 -7t-14 1z"/>
<glyph unicode="„" horiz-adv-x="633" d="M98 -247q-11 11 6 23q62 63 63 143q0 35 -13 71t-34 62q-4 8 -4 19.5t12 21.5l73 59q27 19 46 -3q31 -26 43 -58t12 -60q0 -102 -46.5 -182.5t-103.5 -117.5q-7 -4 -15.5 -7.5t-12.5 0.5zM341 -247q-10 11 7 23q62 63 62 143q0 35 -13 71t-34 62q-5 8 -5 19.5t13 21.5 l74 59q27 19 46 -3q28 -26 41 -58t13 -60q0 -102 -46.5 -182.5t-103.5 -117.5q-6 -4 -15 -7.5t-13 0.5z"/>
<glyph unicode="†" horiz-adv-x="1013" d="M54 975v52q0 17 6.5 22.5t26.5 5.5h367v412q0 19 7.5 26t25.5 7h51q17 0 23 -6.5t6 -26.5v-412h365q19 0 25.5 -5.5t6.5 -22.5v-52q0 -17 -6.5 -24t-25.5 -7h-365v-1018q0 -19 -6 -25.5t-23 -6.5h-51q-17 0 -25 6.5t-8 25.5v1018h-367q-19 0 -26 6.5t-7 24.5z"/>
<glyph unicode="‡" horiz-adv-x="1013" d="M54 367v52q0 17 6.5 23.5t26.5 6.5h367v495h-367q-19 0 -26 6.5t-7 24.5v52q0 17 6.5 22.5t26.5 5.5h367v412q2 21 8.5 26t24.5 7h51q29 0 29 -33v-412h365q19 0 25.5 -5.5t6.5 -22.5v-52q0 -17 -6.5 -24t-25.5 -7h-365v-495h365q19 0 25.5 -6t6.5 -24v-52 q0 -17 -6.5 -23t-25.5 -6h-365v-412q0 -19 -6 -25.5t-23 -6.5h-62q-6 0 -12 4q-2 0 -6 4q0 3 -1 3t-1 2l-2 4v427h-367q-19 0 -26 6t-7 23z"/>
<glyph unicode="•" horiz-adv-x="580" d="M100 553q0 40 15 76t41 63t60 42t72 15q40 0 75 -15t60.5 -42t41 -63t15.5 -76q0 -39 -15.5 -73.5t-41 -60.5t-60.5 -41t-75 -15q-39 0 -72.5 15t-59.5 41t-41 60.5t-15 73.5z"/>
<glyph unicode="…" horiz-adv-x="1358" d="M104 72q0 39 16.5 64t68.5 25q54 0 69 -24t15 -65q0 -37 -15 -64t-69 -27q-57 0 -71 27t-14 64zM599 72q0 39 16.5 64t68.5 25q54 0 69 -24t15 -65q0 -37 -15 -64t-69 -27q-56 0 -70.5 27t-14.5 64zM1088 72q0 39 16 64t68 25q54 0 69.5 -24t15.5 -65q0 -37 -15.5 -64 t-69.5 -27q-56 0 -70 27t-14 64z"/>
<glyph unicode="‰" horiz-adv-x="742" d="M-766 1015q0 52 7 126.5t38 143t95 116t179 47.5q112 0 179 -38t100 -99.5t41.5 -139t8.5 -156.5q0 -66 -7 -146.5t-39.5 -149t-99 -115t-183.5 -46.5q-116 0 -180.5 43t-95.5 109.5t-37 148t-6 156.5zM-662 1001q0 -75 6.5 -138.5t28.5 -111t65.5 -75t114.5 -27.5 q74 0 117.5 28.5t67.5 77t31 111.5t7 135q0 80 -6 145.5t-29 113t-67.5 73.5t-120.5 26q-72 0 -114 -30.5t-65 -80.5t-29.5 -113.5t-6.5 -133.5zM-367 -26l595 1526q4 10 8.5 15t15.5 5h59q19 0 12 -22l-594 -1529q-7 -19 -25 -19h-56q-21 0 -15 24zM54 447q0 52 8 126 t38 142t94.5 116t178.5 48q112 0 179 -38t100.5 -100t42.5 -138.5t9 -155.5q0 -66 -8 -147t-40.5 -149t-98.5 -115t-184 -47q-115 0 -180 43.5t-95.5 110t-37 147.5t-6.5 157zM159 432q0 -74 6.5 -138t28 -111.5t65 -74.5t114.5 -27q74 0 117.5 28t67.5 76.5t31.5 111.5 t7.5 135q0 81 -6.5 145.5t-29.5 112.5t-67.5 74t-120.5 26q-72 0 -114 -30.5t-64.5 -80t-29 -114t-6.5 -133.5zM742 447q0 52 8 126t38 142t94.5 116t178.5 48q112 0 179 -38t100.5 -100t42.5 -138.5t9 -155.5q0 -66 -8 -147t-40.5 -149t-98.5 -115t-184 -47 q-115 0 -180 43.5t-95 110t-37 147.5t-7 157zM847 432q0 -74 6.5 -138t28 -111.5t65 -74.5t114.5 -27q74 0 117.5 28t67.5 76.5t31.5 111.5t7.5 135q0 81 -6.5 145.5t-29.5 112.5t-67.5 74t-120.5 26q-72 0 -114 -30.5t-64.5 -80t-29 -114t-6.5 -133.5z"/>
<glyph unicode="‹" horiz-adv-x="559" d="M85 368.5q-2 8.5 10 26.5l209 263q9 11 17.5 18.5t28.5 7.5h73q11 0 14.5 -6.5t-2.5 -15.5l-230 -289l238 -290q6 -9 3 -13.5t-7 -4.5h-87q-17 0 -25 4.5t-16 15.5l-218 267q-6 8 -8 16.5z"/>
<glyph unicode="›" horiz-adv-x="659" d="M143 78q0 5 4 9l246 300q-60 74 -119 147t-120 150q-2 4 -2 10q0 13 13 14h78q19 0 27 -8t16 -18l215 -272q13 -17 13 -26q0 -11 -10 -21l-220 -272q-6 -10 -15.5 -17t-27.5 -7h-87q-11 0 -11 11z"/>
<glyph unicode="⁄" horiz-adv-x="224" d="M-236 -26l594 1526q5 10 9 15t15 5h59q19 0 13 -22l-595 -1529q-6 -19 -24 -19h-57q-21 0 -14 24z"/>
<glyph unicode="€" d="M50 578v60q0 15 17 15h875q19 0 19 -19v-58q0 -13 -17 -14h-629q8 -96 32 -179t70.5 -146t123 -99t186.5 -36q87 0 184.5 8t167.5 16q17 2 22.5 -3t10.5 -17l6 -41q5 -25 -18 -32q-37 -15 -90 -25t-108 -15.5t-104 -7.5t-77 -2q-145 0 -244.5 45.5t-161 123.5t-92 183.5 t-39.5 226.5l-119 -2q-15 0 -15 18zM50 788v63q0 15 17 15h117q9 122 39.5 229.5t92 186.5t161 125.5t244.5 46.5q33 0 81.5 -2t101.5 -7.5t104 -15.5t90 -25q27 -10 20 -34l-6 -42q-4 -10 -9 -15.5t-22 -1.5q-70 7 -165.5 16t-186.5 9q-117 0 -194 -38.5t-123.5 -102.5 t-68.5 -150t-28 -179h629q17 0 17 -17v-61q0 -15 -17 -15h-879q-15 0 -15 15z"/>
<glyph unicode="№" horiz-adv-x="1922" d="M152 26v1389q0 24 24 24h74q17 0 23.5 -6t12.5 -18l393 -668l300 -517h5v1181q0 28 23 28h72q24 0 23 -28v-1387q0 -24 -23 -24h-70q-17 0 -23.5 5.5t-15.5 18.5l-403 693q-8 14 -30.5 53.5t-51.5 89t-61.5 106.5t-62 107t-52.5 89t-31 54h-5v-1190q0 -26 -23 -26h-72 q-26 0 -26 26zM1233 1098q0 52 9 113t39 114t89 88t161 35q101 0 162 -30t93.5 -80.5t43.5 -112t11 -127.5q0 -64 -8 -131.5t-39 -122t-93 -89t-170 -34.5q-106 0 -166 34.5t-89 89t-36 122t-7 131.5zM1259 545v48q0 26 26 26h502q27 0 26 -26v-38q0 -35 -24 -33h-506 q-25 0 -24 23zM1336 1085q0 -62 7 -112.5t29 -86t59.5 -54t99.5 -18.5q64 0 104.5 18.5t63 53t30 86t7.5 113.5q0 65 -7.5 115.5t-30 84t-63 52t-104.5 18.5q-61 0 -99 -18.5t-60 -54t-29 -86t-7 -111.5z"/>
<glyph unicode="™" horiz-adv-x="1358" d="M56 1381v30q0 15 7 21.5t26 6.5h433q19 0 25 -6t6 -22v-30q0 -17 -6 -25t-25 -8h-170v-538q0 -19 -5.5 -26t-23.5 -7h-30q-17 0 -24.5 6.5t-7.5 26.5v538h-172q-19 0 -26 7.5t-7 25.5zM599 1417q0 11 4 16.5t22 5.5h48q17 0 25 -6t14 -20l220 -449l216 449q6 13 14 19.5 t25 6.5h48q17 0 21.5 -5t4.5 -17v-607q0 -19 -7 -26t-25 -7h-31q-17 0 -22.5 6.5t-5.5 26.5v464l-197 -404q-8 -21 -31 -21h-26q-13 0 -19.5 5.5t-10.5 15.5l-196 404v-464q2 -19 -4.5 -26t-23.5 -7h-28q-17 0 -25 6.5t-8 26.5z"/>
<glyph unicode="∂" horiz-adv-x="1150" d="M106 462q0 113 35 203.5t93.5 153t136.5 96.5t163 34q87 0 190 -39.5t206 -143.5q4 139 -27 262.5t-101.5 218.5t-184 151t-274.5 63q-17 2 -27 6.5t-8 17.5l3 41q0 29 25 28q193 -2 329 -68.5t220.5 -174.5t123.5 -250.5t39 -298.5q0 -189 -37.5 -335.5t-106.5 -246 t-162 -150.5t-204 -51q-91 0 -170.5 31t-137.5 92t-91 151t-33 209zM232 466q0 -97 25 -168.5t67.5 -118.5t100 -69.5t120.5 -22.5q91 0 159.5 50t116 129.5t73.5 178t32 195.5q-106 108 -207.5 155.5t-171.5 47.5q-76 0 -134.5 -33t-99 -87t-61 -122t-20.5 -135z"/>
<glyph unicode="∏" horiz-adv-x="1264" d="M159 -137v1550q0 26 23 26h906q24 0 24 -26v-1550q0 -26 -24 -26h-75q-26 0 -25 26v1461h-708v-1461q0 -26 -21 -26h-77q-24 0 -23 26z"/>
<glyph unicode="∑" horiz-adv-x="952" d="M48 1353v64q0 21 22 22h814q24 0 23 -24v-67q0 -24 -26 -24h-697l359 -642q17 -25 14.5 -44t-14.5 -41l-346 -645h708q25 0 25 -24v-63q0 -26 -23 -26h-833q-24 0 -24 24v56q0 29 15 57l362 664l-367 665q-8 10 -10 23.5t-2 24.5z"/>
<glyph unicode="√" horiz-adv-x="1219" d="M70 762q-11 19 13 28l219 80q2 0 4 1t5 1q10 0 14 -12l319 -868h7q102 434 203 862.5t205 864.5q2 13 18 13h89q15 0 13 -13l-465 -1893q-2 -10 -15 -10h-94q-12 0 -17 12l-343 912l-125 -46q-21 -6 -31 12z"/>
<glyph unicode="∞" horiz-adv-x="1579" d="M100 590q0 67 24.5 125t68 100.5t101.5 67t125 24.5q54 0 105.5 -19.5t97 -52t86.5 -74.5t75 -88q11 -17 25 0q37 48 80.5 90.5t91 74.5t98.5 50.5t103 18.5q65 0 121.5 -22.5t96.5 -65t63 -101t23 -128.5t-25 -127t-68.5 -100.5t-101 -67.5t-124.5 -24q-52 0 -98.5 18.5 t-89 51t-84 75t-84.5 88.5q-15 12 -29 0q-89 -102 -177 -167.5t-196 -65.5q-62 0 -119 23t-99.5 64.5t-66 100.5t-23.5 131zM199 590q0 -45 17.5 -85.5t47 -71.5t69.5 -48.5t84 -17.5q41 0 83.5 17.5t81.5 46.5t73.5 67t63.5 78q4 8 4 12.5t-4 10.5q-27 37 -60.5 74 t-72.5 67.5t-81.5 50t-85.5 19.5q-44 0 -82.5 -18.5t-69.5 -49t-49.5 -69.5t-18.5 -83zM866 599q-8 -13 2 -23q31 -38 65.5 -75t72.5 -66t78.5 -47.5t83.5 -18.5q44 0 84 17.5t69 47.5t46.5 70.5t17.5 85.5q0 44 -16 84t-45.5 70.5t-67.5 48t-79 17.5q-44 0 -85.5 -18.5 t-81.5 -48t-76.5 -67.5t-67.5 -77z"/>
<glyph unicode="∫" horiz-adv-x="893" d="M-31.5 -293q-3.5 9 0.5 20l10 26q4 11 9.5 17t22.5 2q41 -8 75 -10.5t57 -2.5q81 0 133 77t76 272q11 76 17 169.5t10 211.5q5 97 5 211v238q0 102 3.5 193t14.5 161q28 209 109.5 301.5t207.5 92.5q37 0 84.5 -8t82.5 -23q19 -9 13 -31l-9 -31q-4 -17 -12 -17t-20 2 q-35 5 -73 9t-60 4q-46 0 -83 -20.5t-66 -67.5t-47.5 -122.5t-27.5 -186.5q-4 -52 -5 -134.5t-2 -176t-1 -189t-2 -172.5q-2 -90 -8.5 -199.5t-18.5 -204.5q-10 -96 -30 -179.5t-56.5 -145.5t-92 -96.5t-138.5 -34.5q-37 0 -82.5 8.5t-81.5 23.5q-11 4 -14.5 13z"/>
<glyph unicode="≈" horiz-adv-x="1178" d="M150 479q2 10 6 18q50 89 113 125t129 36q51 0 106.5 -21.5t109 -48t103 -48.5t93.5 -22q52 0 83 27.5t62 69.5q9 10 16.5 17.5t24.5 -2.5l33 -20q17 -11 16 -19.5t-5 -12.5q-89 -166 -241 -166q-50 0 -103.5 22t-107.5 48t-103.5 47.5t-93.5 21.5q-48 0 -81.5 -25 t-73.5 -74q-10 -13 -16.5 -17.5t-22.5 4.5l-32 19q-17 11 -15 21zM150 803q2 11 6 17q50 92 113 127t129 35q51 0 106.5 -22t109 -47t103 -46.5t93.5 -21.5q52 0 83 26t62 67q9 11 16.5 18.5t24.5 -3.5l33 -19q17 -11 16 -19t-5 -14q-89 -165 -241 -165q-50 0 -103.5 21.5 t-107.5 47.5t-103.5 47.5t-93.5 21.5q-48 0 -81.5 -24.5t-73.5 -74.5q-10 -11 -16.5 -16t-22.5 3l-32 21q-17 9 -15 20z"/>
<glyph unicode="≠" horiz-adv-x="1178" d="M184 501v63q0 21 25 22h238l178 255h-416q-25 0 -25 17v62q0 21 25 22h487l174 245q15 25 33 25h58q27 0 9 -25l-173 -245h189q21 0 21 -22v-62q0 -17 -21 -17h-261l-178 -255h439q21 0 21 -22v-63q0 -17 -21 -17h-510l-170 -243q-14 -25 -33 -24h-54q-10 0 -15 6.5 t3 17.5l168 243h-166q-25 0 -25 17z"/>
<glyph unicode="≤" horiz-adv-x="1178" d="M178 679v55q0 12 4.5 18t16.5 14l769 398q15 10 20.5 4t5.5 -18v-69q0 -17 -5 -22.5t-16 -12.5l-654 -336v-4l654 -319q13 -6 18 -14t5 -25v-72q0 -27 -23 -13l-772 384q-10 4 -16.5 11t-6.5 21zM180 35v60q0 19 21 21h778q11 0 17.5 -4t6.5 -17v-62q0 -17 -24 -18h-778 q-21 0 -21 20z"/>
<glyph unicode="≥" horiz-adv-x="1178" d="M176 33v60q0 21 23 23h778q19 0 19 -23v-60q0 -17 -19 -18h-778q-24 0 -23 18zM180 276v72q0 17 5.5 23t19.5 16l653 319v4l-653 336q-11 7 -17 12.5t-6 22.5v69q0 19 11 20q4 0 16 -6q193 -100 383.5 -199t384.5 -201q22 -10 22 -33v-52q0 -14 -6.5 -21t-17.5 -11 l-770 -384q-9 -4 -14 -4q-11 0 -11 17z"/>
<glyph unicode="◊" horiz-adv-x="1180" d="M102 699q-11 19 0 39l430 736q6 11 12.5 16.5t22.5 5.5h75q25 0 37 -24l400 -734q6 -11 4 -19.5t-6 -19.5l-398 -730q-12 -24 -37 -23h-73q-10 0 -19 4t-18 19zM219 714l386 -677l354 677q2 7 0 15l-358 665l-382 -665q-4 -6 0 -15z"/>
<glyph unicode="◼" horiz-adv-x="1052" d="M0 0v1053h1053v-1053h-1053z"/>
</font>
</defs>
</svg>
