<?xml version="1.0" encoding="UTF-8" standalone="no"?>
<!DOCTYPE svg PUBLIC "-//W3C//DTD SVG 1.1//EN" "http://www.w3.org/Graphics/SVG/1.1/DTD/svg11.dtd">
<svg xmlns="http://www.w3.org/2000/svg">
<metadata/>
<defs>
<font id="pf_square_sans_proregular" horiz-adv-x="1206">
<font-face units-per-em="2048" ascent="1536" descent="-512"/>
<missing-glyph horiz-adv-x="585"/>
<glyph unicode="ﬁ" horiz-adv-x="1093" d="M72 957v62q0 39 36 38h107v132q0 172 90.5 262t295.5 90q33 0 72 -2t80.5 -7.5t82.5 -15.5t76 -25q28 -10 22 -45l-10 -50q-6 -31 -56 -24q-70 8 -144.5 15t-124.5 7q-110 0 -166 -48t-56 -161v-128h553q35 0 34 -36v-984q0 -37 -34 -37h-89q-40 0 -40 37v883h-424v-883 q0 -37 -34 -37h-89q-39 0 -39 37v883h-107q-37 0 -36 37z"/>
<glyph unicode="ﬂ" horiz-adv-x="1056" d="M50 957v62q0 39 37 38h106v132q0 172 91 262t296 90q50 0 115 -5t128 -23l80 16q39 6 39 -38v-1454q0 -37 -35 -37h-89q-39 0 -39 37v1341q-56 6 -110 11t-91 5q-111 0 -166.5 -48t-55.5 -161v-128h261q37 0 36 -38v-62q0 -37 -36 -37h-261v-883q0 -37 -35 -37h-89 q-39 0 -39 37v883h-106q-37 0 -37 37z"/>
<glyph horiz-adv-x="2048"/>
<glyph horiz-adv-x="2048"/>
<glyph unicode="" horiz-adv-x="2048"/>
<glyph unicode=" " horiz-adv-x="585"/>
<glyph unicode="	" horiz-adv-x="585"/>
<glyph unicode=" " horiz-adv-x="585"/>
<glyph unicode="!" horiz-adv-x="485" d="M141 81q0 43 18.5 70t78.5 27q63 0 81.5 -27t18.5 -70q0 -44 -18 -74.5t-82 -30.5t-80.5 30.5t-16.5 74.5zM165 1402q0 37 34 37h97q30 0 29 -37l-25 -1007q-2 -35 -27 -35h-56q-30 0 -30 35z"/>
<glyph unicode="&quot;" horiz-adv-x="613" d="M128 1415q0 24 26 24h91q17 0 20.5 -9t3.5 -15l-22 -367q0 -19 -23 -19h-57q-16 0 -18 19zM346 1415q0 24 25 24h93q15 0 19 -9t4 -15l-21 -367q-2 -10 -6 -14.5t-17 -4.5h-56q-19 0 -20 19z"/>
<glyph unicode="#" d="M39 536l17 63q7 26 35 26h263l60 254h-262q-15 0 -22.5 2.5t-3.5 19.5l17 60q4 15 11 21t24 6h265l100 421q4 15 9.5 21.5t23.5 6.5h68q29 0 23 -33l-100 -416h236l102 421q7 28 31 28h71q11 0 20 -6.5t4 -21.5l-105 -421h275q35 0 28 -29l-15 -56q-7 -24 -31 -24h-282 l-63 -254h276q35 0 28 -28l-15 -59q-7 -21 -31 -22h-284l-120 -490q-6 -26 -23 -26h-74q-31 0 -24 33l117 481h-236l-120 -488q-7 -26 -24 -26h-76q-28 0 -21 33l117 481h-263q-33 0 -26 22zM478 625h236l63 254h-239z"/>
<glyph unicode="$" d="M136.5 77q-4.5 12 0.5 27l10 59q7 27 40 21q45 -4 99.5 -9t107.5 -9.5t101 -8t81 -3.5q163 0 245 58.5t82 169.5q0 72 -14.5 119.5t-47.5 78t-92 49t-146 33.5q-97 15 -182 37t-147.5 62t-98.5 106.5t-36 170.5q0 180 104.5 281.5t299.5 115.5v174q0 13 19 13h74 q17 0 17 -18v-167q35 -2 79.5 -5t90 -10t89 -16.5t80.5 -24.5q25 -8 29 -19.5t0 -25.5l-14 -60q-4 -10 -11.5 -18.5t-29.5 -4.5q-72 8 -169.5 17.5t-195.5 9.5q-85 0 -141 -16.5t-90 -47.5t-48 -74.5t-14 -97.5q0 -62 16.5 -100.5t53 -62t95.5 -37t142 -28.5 q95 -15 178.5 -36.5t145.5 -65t98 -116t36 -190.5q0 -104 -33 -179t-89 -123t-133.5 -74t-164.5 -32v-189q0 -15 -17 -16h-74q-19 0 -19 14v189q-48 2 -100 6t-103.5 12t-97 17.5t-77.5 22.5q-24 9 -28.5 21z"/>
<glyph unicode="%" horiz-adv-x="1779" d="M54 996q0 52 8 129.5t40.5 149t99.5 122.5t189 51t191 -41.5t105 -106.5t45.5 -145t9.5 -159q0 -66 -7.5 -150t-42 -156.5t-105.5 -123t-196 -50.5q-124 0 -191.5 47t-100 118t-39 155t-6.5 160zM195 982q0 -77 6 -139t26 -106.5t59 -69.5t105 -25q67 0 109.5 26t64 71.5 t29 107.5t7.5 135q0 80 -6.5 143.5t-28 108t-63 68.5t-112.5 24q-65 0 -104.5 -28t-58.5 -74.5t-26 -110t-7 -131.5zM538 -17l599 1508q7 15 14 22t21 7h69q29 0 18 -33l-597 -1511q-10 -27 -32 -26h-70q-33 0 -22 33zM1038 466q0 52 7.5 129.5t40 149t100 122.5t188.5 51 q122 0 191.5 -41.5t105.5 -106t45.5 -145t9.5 -159.5q0 -66 -7.5 -150t-42.5 -156.5t-105.5 -122.5t-196.5 -50q-124 0 -191 47t-100 117.5t-39 155t-6 159.5zM1179 452q0 -77 5 -138.5t26 -106t60 -70t104 -25.5q67 0 109.5 26.5t64.5 72.5t29.5 107t7.5 134q0 80 -6.5 144 t-28 108.5t-63 68.5t-113.5 24q-65 0 -104 -28.5t-59 -75t-26 -109t-6 -132.5z"/>
<glyph unicode="&amp;" horiz-adv-x="1499" d="M81 375q0 150 94 271.5t260 215.5q-52 76 -82 153t-30 131q0 65 22 122.5t62 100t97.5 67.5t131.5 25q67 0 124.5 -21t98 -58.5t63 -89t22.5 -109.5q0 -122 -79.5 -206t-213.5 -165q83 -126 184 -250.5t207 -231.5q98 97 167 228.5t92 294.5q4 17 10.5 22.5t26.5 5.5 l58 -2q21 -2 27 -14t6 -30q-6 -91 -35 -181t-70 -170t-88 -146.5t-92 -109.5q67 -61 144 -118.5t151 -98.5q13 -9 16.5 -15.5t-5.5 -24.5l-35 -62q-8 -11 -20 -16t-30 3q-33 15 -75.5 41t-88.5 59t-91.5 68.5t-82.5 70.5q-110 -77 -234 -118t-242 -41q-95 0 -181 22.5 t-150 72t-101.5 124t-37.5 180.5zM232 379q0 -74 24 -124t66.5 -82t99 -47.5t119.5 -15.5q91 0 187.5 32t193.5 94q-54 52 -112 118.5t-114 135t-103.5 135.5t-82.5 119q-126 -70 -202 -160.5t-76 -204.5zM484 1158q0 -50 24 -106t68 -118q91 48 152.5 103t61.5 137 q0 65 -45.5 107.5t-110.5 42.5q-39 0 -68.5 -16t-47 -41.5t-26 -54.5t-8.5 -54z"/>
<glyph unicode="'" horiz-adv-x="444" d="M145 1415q0 24 27 24h91q17 0 20 -9t3 -15l-21 -367q0 -19 -24 -19h-57q-17 0 -17 19z"/>
<glyph unicode="(" horiz-adv-x="626" d="M135 675q0 152 29 280t71.5 232.5t92 186.5t93.5 144q15 24 39 8l41 -24q13 -8 18 -15.5t-5 -19.5q-39 -58 -76.5 -135t-68.5 -175t-50 -218.5t-19 -263.5q0 -156 19 -288.5t50 -239t68.5 -188t76.5 -137.5q9 -11 4.5 -19t-17.5 -16l-39 -21q-26 -19 -41 4 q-44 60 -94.5 145t-93 196t-70.5 250.5t-28 313.5z"/>
<glyph unicode=")" horiz-adv-x="630" d="M136.5 -197q-4.5 8 4.5 19q39 56 77.5 137.5t68.5 188t49.5 238.5t19.5 289q0 143 -19.5 263.5t-49.5 218.5t-68.5 175t-77.5 135q-11 19 13 35l41 24q24 15 41 -8q42 -60 91.5 -143t92 -187.5t72.5 -232.5t30 -280q0 -174 -29 -313.5t-71.5 -250.5t-92 -196t-93.5 -145 q-17 -24 -43 -4l-39 21q-13 8 -17.5 16z"/>
<glyph unicode="*" horiz-adv-x="744" d="M102.5 1256q-4.5 8 5.5 22l20 31q9 15 16.5 17t22.5 -6l161 -83l6 180q0 13 6 17.5t23 4.5h47q17 0 22 -4t5 -20l6 -176l160 81q11 6 18 5t17 -16l22 -35q11 -15 -5 -25l-160 -103l158 -104q11 -6 13.5 -12.5t-8.5 -22.5l-20 -32q-13 -19 -35 -9l-160 89l-6 -181 q0 -12 -5 -16.5t-22 -4.5h-50q-14 0 -18 3.5t-6 17.5l-8 183l-165 -84q-21 -15 -33 9l-22 33q-10 20 10 31l153 102l-155 93q-9 7 -13.5 15z"/>
<glyph unicode="+" d="M180 667v75q0 17 6.5 23t22.5 6h325v314q0 15 5.5 23t22.5 8h89q26 0 26 -31v-314h317q17 0 25 -5.5t8 -23.5v-75q0 -27 -33 -27h-317v-332q0 -30 -26 -30h-89q-17 0 -22.5 7.5t-5.5 22.5v332h-325q-29 0 -29 27z"/>
<glyph unicode="," horiz-adv-x="422" d="M84 -250q3 9 11 18q40 35 56 73.5t16 80.5q0 39 -15 79t-40 69q-19 26 10 46l87 64q15 11 29 10t25 -12q33 -31 47.5 -66.5t14.5 -65.5q0 -131 -53 -211t-118 -121q-7 -4 -17.5 -9t-20.5 7l-27 23q-8 6 -5 15z"/>
<glyph unicode="-" horiz-adv-x="802" d="M76 667v67q0 16 7.5 22t22.5 6h590q15 0 23 -5t8 -23v-67q0 -27 -31 -27h-590q-31 0 -30 27z"/>
<glyph unicode="." horiz-adv-x="402" d="M100 85q0 43 18.5 71t78.5 28q63 0 82 -28t19 -71q0 -44 -18.5 -74t-82.5 -30q-65 0 -81 30t-16 74z"/>
<glyph unicode="/" horiz-adv-x="555" d="M24 -108l378 1585q6 28 35 27h71q21 0 16 -32l-377 -1584q-6 -27 -29 -27h-72q-29 0 -22 31z"/>
<glyph unicode="0" d="M100 740q0 54 4 129t19.5 154t48.5 157.5t88 139.5t139.5 98.5t205.5 37.5q180 0 284.5 -65t157.5 -168t67.5 -231t14.5 -252q0 -72 -4.5 -155.5t-20.5 -168t-49.5 -162.5t-91.5 -139t-146 -97.5t-212 -36.5q-122 0 -207 33.5t-141 92t-87 134.5t-47.5 161t-19.5 171.5 t-3 166.5zM271 719q0 -129 11 -236.5t46 -184t101 -119t176 -42.5q113 0 183 44.5t107 122.5t49.5 184.5t12.5 230.5q0 136 -10.5 245t-47.5 184.5t-106.5 116t-187.5 40.5q-110 0 -175 -46.5t-101 -127.5t-47 -187t-11 -225z"/>
<glyph unicode="1" d="M247 29v95q0 31 33 30h261v1083h-243q-17 0 -24 5t-7 22v51q0 11 3 22t20 16l205 68q41 17 85 18h91q29 0 33 -10t4 -27v-1248h284q33 0 33 -30v-95q0 -29 -33 -29h-712q-33 0 -33 29z"/>
<glyph unicode="2" d="M108 31v99q0 35 24 59q79 76 148 143q58 56 116 112.5t86 85.5q33 31 80.5 77t136.5 137q72 72 116.5 142.5t44.5 161.5q0 65 -9.5 112t-41.5 77.5t-94 44.5t-166 14q-97 0 -194.5 -10t-170.5 -20q-21 -5 -29 3.5t-12 20.5l-13 60q-4 15 0.5 26.5t28.5 21.5 q43 17 97.5 28t108.5 17.5t102.5 8.5t81.5 2q139 0 232 -26t149 -74.5t78.5 -118t22.5 -158.5q0 -74 -11 -129t-35 -104t-61.5 -95.5t-90.5 -101.5q-60 -63 -112 -115t-110 -106.5t-125 -118.5t-158 -151l4 -2h695q33 0 32 -30v-95q0 -29 -30 -29h-890q-31 0 -31 31z"/>
<glyph unicode="3" d="M103.5 61q-3.5 11 0.5 28l12 56q4 11 11.5 21t31.5 6q78 -11 173 -22t196 -11q72 0 137.5 12t117.5 49.5t83 108t31 188.5q0 98 -56 141.5t-164 60.5l-260 43q-42 6 -42 46v65q0 21 6 33.5t17 22.5l397 371v3h-641q-33 0 -32 32v94q0 28 30 28h823q19 0 28.5 -11t9.5 -22 v-86q-2 -31 -10.5 -49t-32.5 -43l-369 -345v-2l174 -30q137 -24 217.5 -102t80.5 -237q0 -156 -39.5 -258.5t-112 -161.5t-176 -83t-229.5 -24q-31 0 -80 3t-104.5 9.5t-110 17.5t-93.5 28q-21 9 -24.5 20z"/>
<glyph unicode="4" d="M39 419v87q0 32 21 61l717 842q13 17 25 22.5t36 5.5h88q29 0 29 -26v-866h174q31 0 31 -31v-95q0 -29 -31 -28h-174v-358q0 -33 -33 -33h-104q-30 0 -30 31l2 360h-718q-33 0 -33 28zM252 545h538v642l-5 2l-531 -640z"/>
<glyph unicode="5" d="M119 61q-3 11 1 28l10 56q5 11 12 21t32 6q76 -11 171.5 -22t195.5 -11q72 0 135.5 13t111 51t76.5 108.5t29 185.5q0 98 -59 141.5t-161 60.5l-476 78q-56 11 -48 70l87 560q5 19 13 24.5t27 5.5h694q29 0 29 -26v-96q0 -30 -33 -30h-589l-56 -367l443 -67 q137 -21 220.5 -101.5t83.5 -239.5q0 -156 -38 -257t-108.5 -161.5t-170.5 -84.5t-221 -24q-33 0 -81.5 3t-104.5 9.5t-109 17.5t-92 28q-21 9 -24 20z"/>
<glyph unicode="6" d="M98 667q0 91 6 185.5t24.5 182.5t56 163.5t99.5 133.5t151 90t214 32q28 0 72.5 -2t95.5 -8.5t102 -17.5t94 -28q25 -10 29 -21.5t0 -26.5l-13 -60q-4 -11 -12 -20t-29 -4q-72 10 -159 20t-185 10q-110 0 -180.5 -37t-110.5 -100t-57.5 -150t-22.5 -184q85 8 147 15 t113 10t94.5 5.5t93.5 2.5q204 0 301.5 -109t97.5 -345q0 -118 -41 -198t-111.5 -130t-164 -72.5t-200.5 -22.5q-186 0 -289 50t-150.5 141t-56.5 216.5t-9 278.5zM269 553q0 -58 4.5 -112t14.5 -101t29 -81q31 -57 98 -92t198 -35q58 0 116.5 10t107.5 39.5t79.5 81.5 t30.5 137q0 74 -11.5 129t-40.5 92t-79 56t-126 19q-58 0 -165.5 -6t-255.5 -23v-114z"/>
<glyph unicode="7" d="M89 1313v94q0 32 33 32h918q19 0 30 -12t11 -23v-78q0 -31 -7.5 -55t-18.5 -45l-620 -1230q-13 -27 -42 -15l-111 30q-33 12 -15 43l628 1231h-775q-31 0 -31 28z"/>
<glyph unicode="8" d="M76 382q0 143 60.5 240t184.5 140v4q-89 33 -144 109t-55 173q0 207 124.5 309t352.5 102q215 0 343.5 -95.5t128.5 -302.5q0 -43 -14.5 -87t-41.5 -84.5t-66.5 -73.5t-86.5 -50v-4q117 -37 187.5 -132.5t70.5 -242.5q0 -189 -141 -297.5t-386 -108.5q-247 0 -382 95.5 t-135 305.5zM254 400q0 -79 28.5 -130t75 -81t107.5 -43.5t128 -13.5q62 0 125 14.5t112 46t79.5 78t30.5 111.5q0 76 -28 128t-77.5 87t-114.5 57.5t-140 39.5q-56 -10 -114 -27.5t-105.5 -49t-77 -83.5t-29.5 -134zM300 1064q0 -56 23 -94t62.5 -64.5t94 -43.5t115.5 -31 q165 27 231.5 81.5t66.5 151.5q0 133 -83 189t-211 56q-168 0 -233.5 -63t-65.5 -182z"/>
<glyph unicode="9" d="M93 1031q0 116 40.5 196t111 131t163.5 73.5t199 22.5q183 0 286 -49.5t152 -141t60 -217.5t11 -278q0 -136 -16.5 -277t-73 -254t-165.5 -184.5t-299 -71.5q-29 0 -73 2t-93.5 8.5t-101 17t-95.5 28.5q-24 9 -28 21t1 27l12 58q5 13 13 21t27 6q74 -11 160.5 -21 t182.5 -10q110 0 180.5 37t111 99.5t58 148.5t21.5 183q-85 -8 -147 -14.5t-111.5 -9.5t-94 -4t-94.5 -1q-205 0 -301.5 108.5t-96.5 344.5zM267 1034q0 -73 10.5 -129t39.5 -93t78.5 -56.5t126.5 -19.5q58 0 165.5 8t254.5 24q0 57 -2 116.5t-6 115t-13 101t-24 73.5 q-31 59 -98.5 94t-197.5 35q-58 0 -117 -11.5t-107.5 -40.5t-79 -81t-30.5 -136z"/>
<glyph unicode=":" horiz-adv-x="422" d="M112 85q0 43 18.5 71t80.5 28t81 -28t19 -71q0 -44 -19 -74t-81 -30q-65 0 -82 30t-17 74zM112 855q0 44 18.5 72t80.5 28t81 -27t19 -73q0 -43 -19 -73t-81 -30q-65 0 -82 31t-17 72z"/>
<glyph unicode=";" horiz-adv-x="422" d="M73 -250q3 9 12 18q39 35 55 73.5t16 80.5q0 39 -15 79t-39 69q-19 26 8 46l87 64q15 11 29.5 10t25.5 -12q33 -31 48 -66.5t15 -65.5q0 -131 -53 -211t-119 -121q-6 -4 -16.5 -9t-22.5 7l-26 23q-8 6 -5 15zM112 855q0 44 18.5 72t80.5 28t81 -27t19 -73q0 -43 -19 -73 t-81 -30q-65 0 -82 31t-17 72z"/>
<glyph unicode="&lt;" d="M182 671v67q0 17 5.5 23.5t17.5 13.5l791 426q27 15 27 -18v-106q0 -17 -8 -24t-19 -13l-607 -330v-6l610 -333q12 -6 19 -13.5t7 -25.5v-113q0 -30 -24 -14l-794 427q-11 4 -18 11.5t-7 27.5z"/>
<glyph unicode="=" d="M180 493v78q0 29 31 28h785q31 0 31 -28v-78q0 -27 -31 -27h-785q-31 0 -31 27zM180 841v77q0 29 31 29h785q31 0 31 -29v-77q0 -27 -31 -27h-785q-13 0 -22 4.5t-9 22.5z"/>
<glyph unicode="&gt;" d="M182 219v113q0 17 6.5 25t20.5 14l609 333v6l-607 330q-11 6 -19 12.5t-8 24.5v106q0 33 27 18l792 -426q10 -7 16 -13t6 -24v-67q0 -19 -7 -27t-17 -12l-794 -427q-25 -15 -25 14z"/>
<glyph unicode="?" horiz-adv-x="763" d="M26 1372q-4 17 0.5 28t27.5 19q67 27 135 34.5t130 7.5q205 0 304.5 -86.5t99.5 -245.5q0 -56 -15.5 -98.5t-40.5 -76.5t-56 -60t-62 -47q-45 -35 -83.5 -67.5t-66.5 -70.5t-43 -84.5t-15 -106.5v-58t2 -62q0 -17 -4.5 -27.5t-21.5 -10.5h-83q-30 0 -37 33q-6 42 -7 81.5 t-1 66.5q0 74 21.5 132t58.5 108t85 92.5t100 85.5q47 37 78.5 69.5t31.5 89.5q0 102 -59.5 143.5t-191.5 41.5q-54 0 -117.5 -5.5t-117.5 -10.5q-21 -2 -29 7t-12 19zM184 85q0 43 20 71t80 28q63 0 81.5 -28t18.5 -71q0 -44 -18 -74t-82 -30q-67 0 -83.5 30t-16.5 74z"/>
<glyph unicode="@" horiz-adv-x="1764" d="M102 723q0 165 66 305t180 241t265 158.5t321 57.5q178 0 316 -55.5t233 -153t145 -231t50 -289.5q0 -110 -31.5 -193t-82.5 -139.5t-115 -84.5t-129 -28q-104 0 -163 34t-89 104q-64 -37 -138.5 -66t-163.5 -29q-115 0 -164 55t-49 160q0 137 70.5 200.5t221.5 63.5h208 v55q0 85 -38 116.5t-141 31.5q-41 0 -103.5 -3.5t-112.5 -9.5q-28 -4 -30 13l-9 43q-4 24 25 37q25 9 56 14t66 8.5t69.5 5.5t63.5 2q93 0 149.5 -19.5t85 -56t37 -87.5t8.5 -115v-323q0 -17 4 -39t19.5 -40.5t43.5 -31.5t78 -13q100 0 167 90t67 247q0 137 -43 251 t-124.5 195t-196.5 126.5t-260 45.5q-147 0 -277.5 -50t-227.5 -138t-153.5 -206t-56.5 -257q0 -145 51 -266t142.5 -206.5t217.5 -133t275 -47.5q33 0 105.5 8.5t153.5 31.5q10 5 17.5 4.5t12.5 -14.5l15 -46q9 -31 -18 -41q-74 -31 -147.5 -42.5t-148.5 -11.5 q-172 0 -317.5 55.5t-250.5 156t-165 240.5t-60 310zM679 576q0 -63 25 -87.5t91 -24.5q29 0 63.5 8t68.5 21t68 28t60 30v178h-224q-70 0 -111 -31t-41 -122z"/>
<glyph unicode="A" horiz-adv-x="1189" d="M35 35l454 1369q8 33 41 33h121q21 0 29 -9t12 -24l454 -1373q1 -6 1 -12q0 -19 -18 -19h-133q-17 0 -24.5 6.5t-12.5 22.5l-106 355h-530l-112 -349q-6 -21 -17.5 -28t-28.5 -7h-113q-21 0 -21 17q0 7 4 18zM373 538h433l-110 363l-103 352h-7l-102 -346z"/>
<glyph unicode="B" horiz-adv-x="1208" d="M156 37v1365q0 35 39 35h458q211 0 316.5 -102t105.5 -267q0 -34 -8 -77.5t-28 -87t-56 -83t-93 -64.5l3 -2q64 -19 107.5 -62t69.5 -93t37 -104t11 -100q0 -91 -31.5 -163.5t-85.5 -124t-124.5 -79.5t-151.5 -28h-524q-26 0 -35.5 8.5t-9.5 28.5zM323 154h348 q81 0 132.5 20.5t82 56.5t42.5 81.5t12 97.5q0 50 -15.5 97.5t-47.5 84t-83.5 58t-122.5 21.5h-348v-517zM323 823h342q47 0 89.5 18.5t74 48.5t50 72.5t18.5 92.5q0 99 -63 164.5t-202 65.5h-309v-462z"/>
<glyph unicode="C" horiz-adv-x="1167" d="M141 704q0 143 20.5 278.5t79.5 239.5t167 168t284 64q33 0 80.5 -2t102.5 -8.5t109 -17.5t97 -28q25 -10 29 -22q2 -6 2 -12t-2 -14l-14 -60q-4 -11 -11.5 -20t-29.5 -4q-72 10 -168.5 20t-194.5 10q-126 0 -199.5 -47.5t-112.5 -129t-50 -189t-11 -226.5 q0 -108 13.5 -210.5t53 -181t113.5 -125t193 -46.5q100 0 191.5 10t169.5 21q24 4 31.5 -6t11.5 -21l11 -56q4 -17 1 -28t-25 -20q-39 -17 -93 -28t-109.5 -17.5t-105.5 -9.5t-83 -3q-172 0 -279 59.5t-168 159.5t-82.5 230t-21.5 272z"/>
<glyph unicode="D" horiz-adv-x="1338" d="M165 37v1365q0 35 40 35h412q174 0 286 -55.5t177.5 -152t91.5 -227t26 -279.5q0 -150 -25 -281t-89.5 -230.5t-177.5 -155.5t-289 -56h-406q-27 0 -36.5 8.5t-9.5 28.5zM334 156h267q74 0 148 18.5t134.5 76t99 166.5t38.5 289q0 182 -34 295t-90 175.5t-129.5 84.5 t-150.5 22h-283v-1127z"/>
<glyph unicode="E" horiz-adv-x="1096" d="M161 35v1367q0 37 38 37h750q37 0 37 -35v-84q0 -37 -39 -37h-617v-458h554q37 0 36 -35v-84q0 -35 -36 -35h-554v-517h634q35 0 35 -36v-83q0 -21 -8.5 -28t-29.5 -7h-762q-39 0 -38 35z"/>
<glyph unicode="F" horiz-adv-x="1038" d="M167 37v1367q0 35 42 35h733q37 0 37 -35v-84q0 -37 -39 -37h-606v-458h536q37 0 37 -35v-84q0 -37 -39 -37h-532v-632q0 -37 -36 -37h-93q-40 0 -40 37z"/>
<glyph unicode="G" horiz-adv-x="1310" d="M143 706q0 143 22 277.5t81.5 238.5t168 168t281.5 64q31 0 80 -2t102.5 -8.5t108.5 -17.5t98 -28q22 -8 27.5 -19.5t1.5 -28.5l-16 -60q-2 -11 -9.5 -20t-29.5 -4q-74 10 -170 20t-193 10q-124 0 -197.5 -47.5t-112 -129t-51 -189t-12.5 -226.5q0 -110 15.5 -212.5 t58 -181t117 -126t196.5 -47.5q29 0 65.5 2t75.5 6t73.5 11t61.5 16v443h-198q-40 0 -39 36v85q0 35 36 35h333q25 0 33.5 -13.5t8.5 -23.5v-622q0 -30 -13.5 -47t-46.5 -28q-89 -26 -187.5 -40t-191.5 -14q-161 0 -272 51t-179.5 145t-97.5 228t-29 299z"/>
<glyph unicode="H" horiz-adv-x="1291" d="M156 37v1363q0 25 10 32t29 7h93q17 0 26 -7.5t9 -31.5v-559h645v559q0 25 10 32t29 7h93q17 0 26 -7.5t9 -31.5v-1363q0 -37 -35 -37h-93q-39 0 -39 37v647h-645v-647q0 -37 -35 -37h-93q-39 0 -39 37z"/>
<glyph unicode="I" horiz-adv-x="551" d="M187 37v1363q0 25 10 32t29 7h95q17 0 27 -7.5t10 -31.5v-1363q0 -37 -37 -37h-95q-39 0 -39 37z"/>
<glyph unicode="J" horiz-adv-x="907" d="M19 78l16 61q4 15 11.5 20.5t27.5 1.5q48 -6 114 -13t112 -7q76 0 124.5 14.5t77 42.5t39 69t10.5 96v1037q0 25 10 32t29 7h94q19 0 29 -7.5t10 -31.5v-1052q0 -174 -92.5 -270.5t-313.5 -96.5q-70 0 -134.5 9.5t-130.5 35.5q-27 11 -32 22q-3 7 -3 15q0 7 2 15z"/>
<glyph unicode="K" horiz-adv-x="1193" d="M152 37v1363q0 25 10 32t29 7h93q17 0 26 -7.5t9 -31.5v-758l4 -2l172 220l452 555q10 13 20 18.5t29 5.5h133q15 0 20.5 -10t-5.5 -20l-473 -580l487 -798q3 -6 3 -12q1 -4 -1 -9q-4 -10 -20 -10h-133q-19 0 -29 6.5t-21 24.5l-397 663l-241 -294v-363q0 -37 -35 -37 h-93q-39 0 -39 37z"/>
<glyph unicode="L" horiz-adv-x="1050" d="M163 35v1365q0 25 9.5 32t26.5 7h97q17 0 25.5 -7.5t8.5 -31.5v-1246h652q37 0 37 -36v-83q0 -35 -35 -35h-783q-39 0 -38 35z"/>
<glyph unicode="M" horiz-adv-x="1603" d="M161 37v1370q0 32 32 32h95q22 0 31 -7.5t17 -24.5l360 -749l105 -226h5l106 235l360 737q11 17 21 26t33 9h87q33 0 33 -32v-1370q0 -37 -37 -37h-94q-39 0 -39 37v1029h-6l-76 -167l-317 -647q-13 -28 -44 -28h-62q-19 0 -29.5 6t-16.5 20l-330 672l-67 144h-5v-1029 q0 -37 -35 -37h-91q-37 0 -36 37z"/>
<glyph unicode="N" horiz-adv-x="1365" d="M156 37v1370q0 32 35 32h89q24 0 33.5 -10t20.5 -25l588 -907l116 -182h6v1085q0 25 8.5 32t28.5 7h91q17 0 26 -7.5t9 -31.5v-1365q0 -35 -35 -35h-82q-25 0 -35.5 8.5t-20.5 26.5l-580 895l-126 205h-7v-1098q0 -37 -37 -37h-89q-39 0 -39 37z"/>
<glyph unicode="O" horiz-adv-x="1384" d="M135 740q0 67 6 146.5t26 159t58 154t98.5 131.5t150.5 91t214 34q184 0 296 -63t171 -163.5t77.5 -229t18.5 -260.5q0 -128 -15.5 -262.5t-73 -245t-170.5 -181t-306 -70.5q-128 0 -218.5 32.5t-150.5 87.5t-96.5 130t-56 160t-24.5 173.5t-5 175.5zM308 719 q0 -133 16.5 -240.5t58.5 -184.5t115 -119.5t188 -42.5q117 0 193 40.5t121.5 115.5t63 184.5t17.5 246.5q0 141 -18.5 251.5t-64 185.5t-121.5 114t-191 39q-108 0 -181 -41.5t-116 -118t-62 -185.5t-19 -245z"/>
<glyph unicode="P" horiz-adv-x="1117" d="M156 37v1367q0 35 39 35h412q96 0 178.5 -25.5t142.5 -78t93.5 -131.5t33.5 -183q0 -74 -21 -151t-71.5 -141t-136.5 -104.5t-216 -40.5h-285v-547q0 -37 -37 -37h-93q-39 0 -39 37zM325 734h282q83 0 137.5 23.5t86 64t44.5 92t13 105.5q0 136 -80.5 201t-212.5 65h-270 v-551z"/>
<glyph unicode="Q" horiz-adv-x="1390" d="M137 740q0 67 6 146.5t26 159t57 154t99 131.5t150.5 91t212.5 34q184 0 296 -63t172 -163.5t78.5 -229t18.5 -260.5q0 -98 -8 -197.5t-34 -191.5t-77 -169.5t-138 -127.5l280 -78q17 -5 20 -18v-9q0 -7 -2 -14l-41 -89q-11 -30 -35 -30q-9 0 -20 4l-460 163 q-13 -2 -24.5 -2h-25.5q-128 0 -218.5 32.5t-150.5 87.5t-96 130t-56 160t-25 173.5t-5 175.5zM311 719q0 -133 17.5 -240.5t60.5 -184.5t116 -119.5t183 -42.5t186.5 40.5t122 115.5t66 184.5t20.5 246.5q0 141 -18.5 251.5t-64 185.5t-121.5 114t-191 39 q-108 0 -180.5 -41.5t-116 -118t-62 -185.5t-18.5 -245z"/>
<glyph unicode="R" horiz-adv-x="1141" d="M145 37v1367q0 35 37 35h443q81 0 157 -22.5t134.5 -71.5t93 -127t34.5 -187q0 -60 -15.5 -122t-47.5 -116.5t-85 -97t-128 -65.5l298 -593q4 -8 4 -15q0 -6 -3 -11q-6 -11 -21 -11h-124q-17 0 -27.5 5.5t-20.5 23.5l-277 576h-284v-566q0 -39 -37 -39h-94q-37 0 -37 37z M313 756h267q48 0 98.5 9.5t93 38.5t69.5 84.5t27 145.5q0 76 -24 124.5t-64 75.5t-91 38t-105 11h-271v-527z"/>
<glyph unicode="S" horiz-adv-x="1141" d="M106 63q-2 6 -2 12.5t2 13.5l16 60q6 25 37 23q46 -7 100 -12.5t107 -10t99.5 -6.5t79.5 -2q163 0 246 61t83 171q0 74 -13.5 123t-48.5 80t-93.5 49.5t-145.5 34.5q-97 15 -182 38t-148 63t-99 107.5t-36 175.5q0 199 121 303.5t344 104.5q33 0 81 -2t102 -8.5 t108 -17.5t97 -28q25 -8 29 -20.5t0 -27.5l-13 -58q-4 -11 -12 -20t-29 -6q-72 10 -169.5 20t-193.5 10q-84 0 -142 -17.5t-91.5 -49t-47.5 -77t-14 -100.5q0 -64 16.5 -102.5t53 -62t95 -38t143.5 -29.5q93 -17 177 -38.5t145.5 -66t97.5 -119.5t36 -194q0 -118 -39 -198 t-107.5 -129t-158.5 -70.5t-190 -21.5q-46 0 -102 4t-112.5 11.5t-109.5 18.5t-88 26q-25 11 -29 22z"/>
<glyph unicode="T" horiz-adv-x="1044" d="M37 1320v84q0 35 37 35h899q37 0 36 -35v-84q0 -37 -39 -37h-365v-1246q0 -37 -34 -37h-93q-39 0 -39 37v1246h-363q-39 0 -39 37z"/>
<glyph unicode="U" horiz-adv-x="1317" d="M149 522v878q0 25 9 32t29 7h95q17 0 27 -7.5t10 -31.5v-886q0 -182 85 -278.5t256 -96.5q168 0 256.5 91t88.5 284v886q0 25 10 32t29 7h93q17 0 26 -7.5t9 -31.5l-2 -878q0 -70 -6 -132t-31 -123q-62 -151 -187.5 -216.5t-285.5 -65.5q-366 0 -469 278 q-25 58 -33.5 122t-8.5 137z"/>
<glyph unicode="V" horiz-adv-x="1210" d="M54 1404q-3 9 -3 15q0 18 23 18h110q20 0 29 -6.5t13 -23.5l217 -669l164 -519h8l164 519l213 669q9 30 44 30h108q21 0 21 -19q0 -7 -3 -16l-454 -1371q-8 -31 -43 -31h-114q-19 0 -28 6.5t-13 22.5z"/>
<glyph unicode="W" horiz-adv-x="1769" d="M43 1407q-1 6 -1 10q0 22 23 22h113q19 0 27 -6t12 -24q65 -230 121 -423q25 -83 48.5 -164.5t43 -151t34 -119.5t20.5 -69l63 -221h4l62 212q2 12 15.5 62.5t33.5 119t41.5 146.5t42 146t35 119.5t18.5 66.5l-78 271q-11 35 19 35h113q33 0 42 -30q64 -230 120 -423 q25 -83 49 -164.5t43.5 -151t33.5 -119.5t21 -69l60 -221h7l56 212q6 19 20.5 70.5t34 121t42 152t47.5 165.5q56 192 121 427q4 17 13 23.5t28 6.5h109q21 0 21 -20q0 -8 -4 -19l-397 -1367q-9 -33 -42 -33h-112q-21 0 -30 6.5t-13 24.5l-205 698l-34 124l-5 -2l-34 -128 l-203 -692q-8 -31 -39 -31h-119q-30 0 -37 31z"/>
<glyph unicode="X" horiz-adv-x="1133" d="M39 10q-1 3 -1 6q0 7 5 17l433 707l-400 664q-8 13 -4 24t19 11h126q25 0 31 -7.5t15 -20.5l169 -295l132 -230l135 237l167 286q13 28 50 28h118q16 2 20.5 -10t-1.5 -23l-400 -664l432 -709q6 -7 6 -13q-1 -4 -3 -8q-6 -10 -20 -10h-124q-19 0 -28 6.5t-19 24.5 l-191 323l-142 241l-129 -226l-203 -338q-10 -17 -17.5 -24t-32.5 -7h-124q-15 0 -19 10z"/>
<glyph unicode="Y" horiz-adv-x="1100" d="M37 1409q-2 5 -2 10t2 9q4 9 17 9h128q19 0 27 -6.5t15 -19.5l201 -380l120 -223h13l128 232l202 371q9 15 17.5 20.5t28.5 5.5h112q24 0 24 -16q0 -7 -4 -17l-432 -762v-605q0 -37 -35 -37h-91q-39 0 -39 37v605z"/>
<glyph unicode="Z" horiz-adv-x="1058" d="M78 35v75q0 37 17 66l690 1107h-626q-37 0 -37 37v84q0 35 34 35h788q35 0 35 -30v-87q0 -29 -18 -56l-683 -1112h671q37 0 37 -34v-83q0 -37 -35 -37h-839q-35 0 -34 35z"/>
<glyph unicode="[" horiz-adv-x="549" d="M91 -182v1659q0 32 37 31h280q31 0 31 -27v-81q0 -30 -35 -30h-157v-1448h159q33 0 33 -28v-81q0 -30 -33 -30h-276q-39 0 -39 35z"/>
<glyph unicode="\" horiz-adv-x="555" d="M24 1472q-6 33 15 32h71q29 0 35 -27l379 -1585q6 -31 -20 -31h-74q-24 0 -30 27z"/>
<glyph unicode="]" horiz-adv-x="546" d="M108 -106q0 29 33 28h165v1448h-163q-35 0 -35 30v81q0 28 31 27h284q39 0 39 -31v-1661q0 -33 -41 -33h-280q-33 0 -33 30v81z"/>
<glyph unicode="^" horiz-adv-x="1063" d="M38 866q1 4 8 15l386 530q11 15 21.5 20.5t35.5 5.5h91q31 0 41.5 -6.5t18.5 -19.5l371 -530q13 -25 2 -32l-40 -33q-21 -17 -35 -2l-404 489l-406 -478q-19 -19 -41 -2l-39 30q-11 9 -10 13z"/>
<glyph unicode="_" horiz-adv-x="1085" d="M-15 -209q0 31 30 31h1053q33 0 32 -31v-50q0 -26 -29 -25h-1056q-31 0 -30 23v52z"/>
<glyph unicode="`" horiz-adv-x="1080" d="M360.5 1488.5q-2.5 9.5 12.5 15.5l100 44q28 12 37 -7l152 -310q11 -25 -7 -30l-62 -29q-22 -8 -33 7l-193 293q-4 7 -6.5 16.5z"/>
<glyph unicode="a" horiz-adv-x="1115" d="M95 282q0 184 93.5 274.5t310.5 90.5h300v74q0 120 -55.5 165.5t-198.5 45.5q-31 0 -68.5 -1t-79 -5t-83 -7t-76.5 -7q-37 -7 -43 20l-13 56q-4 15 3.5 26t31.5 22q33 10 78.5 19t95.5 14.5t98.5 7.5t88.5 2q130 0 207 -28t117 -78.5t51 -122t11 -158.5v-479 q0 -33 3 -50.5t11 -26t22.5 -11.5t41.5 -5q37 -2 37 -29v-54q0 -15 -9 -25t-34 -14q-40 -6 -77 -6q-76 0 -111.5 28t-46.5 98h-4q-80 -48 -179.5 -91.5t-228.5 -43.5q-159 0 -226.5 76t-67.5 223zM263 288q0 -91 35.5 -123.5t131.5 -32.5q42 0 90.5 11t98.5 29.5t96.5 40 t83.5 44.5v253h-319q-99 0 -158 -45.5t-59 -176.5z"/>
<glyph unicode="b" horiz-adv-x="1104" d="M110 120v1369q0 25 8 32.5t29 7.5h91q25 0 32.5 -9.5t7.5 -30.5v-470l2 -6q97 37 173.5 51.5t134.5 14.5q126 0 208.5 -38t129.5 -109.5t65 -171.5t18 -224q0 -134 -20.5 -237.5t-71.5 -174t-137 -107t-216 -36.5q-50 0 -105 3t-109 9.5t-102.5 16t-84.5 23.5 q-37 13 -45 37.5t-8 49.5zM280 159q62 -11 135.5 -16.5t142.5 -5.5q62 0 114.5 12t88.5 52t55 114.5t19 200.5q0 113 -11.5 192.5t-39.5 128.5t-73.5 71t-113.5 22q-70 0 -152 -12.5t-165 -36.5v-722z"/>
<glyph unicode="c" horiz-adv-x="922" d="M98 536q0 104 14 201.5t60.5 174t132.5 122t229 45.5q33 0 76 -2t87.5 -7.5t88 -15.5t78.5 -25q16 -5 20 -19q2 -9 3 -17q0 -5 -1 -9l-9 -50q-5 -17 -20.5 -22t-36.5 -3q-66 7 -148 15t-140 8q-74 0 -124 -21t-79 -66.5t-42.5 -120.5t-13.5 -186q0 -119 13.5 -197 t43.5 -124.5t80 -66.5t122 -20q27 0 64.5 2.5t77.5 5.5t81.5 6t73.5 8q19 2 31 -2.5t17 -25.5l9 -46q1 -6 1 -11q0 -22 -25 -34q-61 -29 -153 -39.5t-175 -10.5q-143 0 -229 43.5t-132.5 119.5t-60.5 175.5t-14 214.5z"/>
<glyph unicode="d" horiz-adv-x="1106" d="M93 518q0 137 19.5 241.5t68.5 175t131.5 107.5t209.5 37q58 0 132.5 -13t163.5 -47l5 2v468q0 21 6 31.5t31 10.5h91q21 0 28 -9t7 -33v-1452q0 -37 -35 -37h-91q-17 0 -27 6.5t-10 30.5v81l-7 2q-24 -15 -64 -39.5t-88.5 -46t-105.5 -36.5t-111 -15q-101 0 -169.5 35.5 t-110 104t-58 168.5t-16.5 227zM265 514q0 -124 11.5 -198.5t36.5 -115.5t62 -54.5t87 -13.5q39 0 90 14.5t101.5 33.5t96 40t70.5 37v624q-89 26 -165.5 37.5t-146.5 11.5t-116 -21t-75 -70t-40.5 -128t-11.5 -197z"/>
<glyph unicode="e" horiz-adv-x="1061" d="M100 528q0 78 13 174.5t58.5 180t132.5 140t237 56.5q138 0 223 -41.5t131.5 -108.5t63 -154t20.5 -176v-14q0 -43 -16 -73q-19 -36 -79 -36h-613q2 -98 17.5 -164.5t50 -106.5t88 -56.5t128.5 -16.5q33 0 74.5 3.5t83 6.5t79 7.5t66.5 9.5q21 2 33 -2.5t16 -26.5l9 -47 q6 -31 -23 -44q-31 -13 -74.5 -24t-91.5 -18.5t-95.5 -11.5t-86.5 -4q-150 0 -238 46.5t-133.5 122.5t-59.5 174.5t-14 203.5zM271 613h532q0 56 -10 113t-38 102.5t-80 74.5t-139 29q-72 0 -120.5 -23t-79 -64.5t-45.5 -100t-20 -131.5z"/>
<glyph unicode="f" horiz-adv-x="785" d="M72 957v62q0 39 36 38h109v124q0 80 18.5 145.5t59.5 111t109 70.5t165 25q15 0 43 -2t63 -7.5t71.5 -14.5t69.5 -22q17 -6 21 -19q2 -8 2 -15q0 -6 -1 -11l-9 -50q-4 -17 -20 -23t-36 -2q-67 11 -113.5 14.5t-71.5 3.5q-110 0 -160.5 -47.5t-50.5 -160.5v-120h272 q37 0 37 -36v-64q0 -37 -37 -37h-272v-883q0 -37 -34 -37h-89q-39 0 -39 37v883h-107q-37 0 -36 37z"/>
<glyph unicode="g" horiz-adv-x="1108" d="M104 524q0 132 21.5 235t74 174.5t138 108.5t213.5 37q50 0 104.5 -4t106.5 -11t99.5 -16.5t87.5 -20.5q37 -10 45.5 -36.5t8.5 -50.5v-944q0 -87 -13 -159.5t-56.5 -126t-126 -83t-221.5 -29.5q-41 0 -89 2t-94.5 7.5t-91 15.5t-79.5 25q-21 9 -24 21t1 25l8 47 q5 19 17.5 24t36.5 1q70 -11 154.5 -15.5t152.5 -4.5q76 0 125 12t78 38t40.5 66t11.5 97v87q-99 -38 -174 -51.5t-133 -13.5q-126 0 -208 37.5t-129.5 109t-66 172t-18.5 224.5zM278 543q0 -116 13 -194t42.5 -127.5t75 -71.5t113.5 -22q60 0 145 13t166 37v723 q-62 8 -135 15.5t-143 7.5q-58 0 -109 -12.5t-89 -53t-58.5 -115t-20.5 -200.5z"/>
<glyph unicode="h" horiz-adv-x="1110" d="M120 37v1457q0 37 34 37h89q39 0 39 -37v-552l2 -2q27 17 69 41t93 45.5t109 37t116 15.5q106 0 168 -30t94.5 -83.5t42.5 -127.5t10 -161v-640q0 -37 -39 -37h-92q-37 0 -37 37l2 662q0 69 -8.5 114t-29 70.5t-54.5 36t-84 10.5q-39 0 -91 -15.5t-103.5 -35t-97.5 -40.5 t-70 -33v-769q0 -37 -39 -37h-89q-35 0 -34 37z"/>
<glyph unicode="i" horiz-adv-x="483" d="M149 1340q0 41 19 67t75 26q58 0 75.5 -25t17.5 -68q0 -42 -16 -70.5t-77 -28.5q-63 0 -78.5 30t-15.5 69zM161 37v984q0 24 9.5 30t28.5 6h89q35 0 35 -36v-984q0 -37 -35 -37h-89q-39 0 -38 37z"/>
<glyph unicode="j" horiz-adv-x="520" d="M-106 -356v8q0 15 6 21q9 8 24 12q76 15 127 29.5t81.5 38t43.5 64t13 105.5v1099q0 24 10 30t29 6h87q39 0 39 -36v-1095q0 -77 -13 -144.5t-56.5 -120t-124.5 -80.5q-72 -25 -185 -25q-16 0 -33 1q-11 0 -26.5 6.5t-17.5 30.5zM178 1340q0 41 18.5 67t74.5 26 q59 0 76.5 -25t17.5 -68q0 -42 -16.5 -70.5t-77.5 -28.5q-62 0 -77.5 30t-15.5 69z"/>
<glyph unicode="k" horiz-adv-x="967" d="M132 37v1457q0 37 38 37h89q39 0 39 -37v-972l4 -4l112 147l307 366q10 15 19 21.5t28 6.5h113q17 0 25 -12.5t-5 -27.5l-323 -389l366 -591q5 -8 5 -15q-1 -5 -3 -11q-6 -13 -24 -13h-112q-19 0 -29 7.5t-21 23.5l-289 473l-173 -211v-256q0 -37 -39 -37h-89 q-38 0 -38 37z"/>
<glyph unicode="l" horiz-adv-x="514" d="M154 167v1324q0 38 37 38h87q19 0 29 -6.5t10 -31.5v-1269q0 -57 24 -69t84 -12q35 0 37 -21l9 -70q2 -27 -22 -37q-26 -11 -57.5 -17.5t-59.5 -6.5q-54 0 -88.5 13t-54 35.5t-27.5 56.5t-8 73z"/>
<glyph unicode="m" horiz-adv-x="1757" d="M124 37v984q0 37 35 36h88q39 0 39 -36v-74v-3h2q33 20 73.5 43.5t87 44.5t96.5 34t102 13q119 0 185.5 -40t93.5 -117q85 58 184 107.5t210 49.5q101 0 163 -28t95 -79.5t43.5 -123t10.5 -158.5v-653q0 -37 -37 -37h-91q-37 0 -37 37v653q0 67 -7.5 113t-27 74t-52 40.5 t-82.5 12.5q-39 0 -85.5 -14.5t-94 -34t-91 -41.5t-72.5 -37q2 -12 3 -43t1 -74v-649q0 -37 -37 -37h-95q-33 0 -32 37l2 669q0 106 -33 165t-132 59q-37 0 -80.5 -12.5t-90.5 -31t-92.5 -40t-82.5 -40.5v-769q0 -37 -36 -37h-91q-35 0 -35 37z"/>
<glyph unicode="n" horiz-adv-x="1096" d="M116 37v984q0 37 33 36h89q20 0 30 -6.5t10 -29.5v-79l6 -2q27 17 68 41t92 45.5t107 37t116 15.5q106 0 168 -30t94 -83.5t42.5 -127.5t10.5 -161v-640q0 -37 -40 -37h-91q-37 0 -37 37l2 642q0 75 -8.5 123.5t-29 76.5t-54.5 39.5t-84 11.5q-39 0 -91 -15.5t-104 -35 t-97.5 -40.5t-69.5 -33v-769q0 -37 -40 -37h-89q-35 0 -33 37z"/>
<glyph unicode="o" horiz-adv-x="1091" d="M100 547q0 78 13 171.5t57.5 174t131.5 133.5t236 53q150 0 240 -46.5t138 -122t62 -171t14 -192.5q0 -95 -11 -195t-55.5 -182.5t-135.5 -134.5t-252 -52q-155 0 -243 52t-131.5 133.5t-53.5 182.5t-10 196zM267 532q0 -100 10.5 -174t41.5 -124t83 -74.5t136 -24.5 q90 0 145 23.5t86.5 72.5t42.5 124t11 177q0 100 -11 174.5t-42.5 123.5t-86.5 74.5t-145 25.5q-84 0 -136 -25.5t-83 -75.5t-41.5 -123.5t-10.5 -173.5z"/>
<glyph unicode="p" horiz-adv-x="1080" d="M120 -341v1362q0 37 36 36h89q37 0 37 -36v-79l6 -4l65 39t90 45.5t105 38t110 16.5q102 0 170.5 -36t108.5 -104.5t57 -168t17 -230.5q0 -134 -19 -238.5t-68.5 -175t-130.5 -107t-207 -36.5q-60 0 -136.5 12.5t-163.5 47.5l-2 -2v-380q0 -22 -7.5 -31.5t-31.5 -9.5h-89 q-25 0 -30.5 8.5t-5.5 32.5zM284 178q91 -26 167.5 -37t145.5 -11q70 0 116.5 21t74.5 69.5t40.5 127.5t12.5 197q0 124 -12.5 198.5t-37.5 116t-62 54t-87 12.5q-39 0 -90 -12.5t-100.5 -32t-94 -41.5t-73.5 -37v-625z"/>
<glyph unicode="q" horiz-adv-x="1108" d="M104 516q0 133 22.5 237.5t76.5 177t141.5 110.5t215.5 38q45 0 97.5 -3t105.5 -10t102 -16.5t86 -22.5q37 -10 44.5 -36.5t7.5 -50.5v-1281q0 -41 -35 -41h-2h-92q-24 0 -31.5 9.5t-7.5 31.5v384l-2 3q-97 -38 -173 -50.5t-134 -12.5q-126 0 -208 32.5t-129.5 98.5 t-66 167t-18.5 235zM278 526q0 -116 13 -191.5t42.5 -121.5t75 -65.5t113.5 -19.5q60 0 146 13t167 37v723q-64 11 -132.5 17t-138.5 6q-58 0 -110 -14.5t-91.5 -59t-62 -123t-22.5 -201.5z"/>
<glyph unicode="r" horiz-adv-x="711" d="M174 37v984q0 37 35 36h91q39 0 38 -36v-89l5 -6q22 17 60 38.5t83.5 42t93.5 36.5t89 25q9 2 15 2q7 0 11 -3q7 -6 11 -25l8 -91q1 -6 1 -12q0 -28 -29 -32q-44 -8 -96 -22.5t-100.5 -28t-90 -28t-61.5 -25.5v-766q0 -37 -36 -37h-93q-35 0 -35 37z"/>
<glyph unicode="s" horiz-adv-x="945" d="M95 78l9 46q4 21 16 25.5t32 2.5q32 -5 74.5 -9t85 -7.5t80.5 -5.5t66 -2q122 0 175 38.5t53 119.5q0 48 -8.5 80t-32.5 51.5t-65.5 30t-106.5 21.5q-74 10 -142 27.5t-120 50.5t-84 85t-32 136q0 152 102.5 231.5t278.5 79.5q33 0 73.5 -2t85 -7.5t88 -15.5t78.5 -23 q31 -14 22 -45l-9 -52q-4 -17 -18.5 -22t-37.5 -3q-67 7 -141 15t-144 8q-122 0 -165 -37t-43 -122q0 -42 10.5 -65.5t35.5 -39t68.5 -25t109.5 -20.5q72 -10 138.5 -26.5t118 -51.5t82 -91t30.5 -150q0 -91 -34 -152t-91.5 -99t-130 -54t-150.5 -16q-42 0 -87.5 2t-90 8.5 t-85 16t-69.5 23.5q-25 11 -25 38v7z"/>
<glyph unicode="t" horiz-adv-x="700" d="M52 957v62q0 39 37 38h122v235q0 19 9.5 27.5t26.5 12.5l87 25q7 2 13 2q24 0 24 -35v-267h242q24 0 30 -9.5t6 -26.5v-64q0 -19 -6.5 -28t-29.5 -9h-242v-657q0 -39 5.5 -63t23 -39.5t47 -20.5t79.5 -5q17 0 59.5 3t65.5 5q26 2 34.5 -3t13.5 -22l9 -51q2 -29 -20 -41 q-19 -10 -51 -18t-67.5 -13.5t-69.5 -8.5t-57 -3q-70 0 -115.5 16t-71.5 46.5t-36.5 73t-10.5 94.5v707h-120q-37 0 -37 37z"/>
<glyph unicode="u" horiz-adv-x="1110" d="M122 379v642q0 36 35 36h2h93q35 0 34 -36v-644q0 -76 9 -123t30 -76t55 -39.5t84 -10.5q40 0 91.5 15.5t104 34.5t98 41t71.5 35v767q0 36 35 36h2h89q37 0 37 -36v-984q0 -37 -37 -37h-89q-39 0 -39 37v75l-4 6q-27 -17 -69 -41.5t-91.5 -46.5t-106.5 -36.5t-115 -14.5 q-106 0 -169 30t-97 83t-43.5 127t-9.5 160z"/>
<glyph unicode="v" horiz-adv-x="1004" d="M40 1046q3 10 18 11h120q17 0 23 -7.5t12 -22.5l217 -608l34 -104q13 -42 25 -76t17 -46h4q2 8 14 46.5t27 79.5q17 48 37 106l213 604q7 17 12 22.5t20 5.5h120q20 0 20 -14q0 -7 -5 -18l-375 -996q-11 -29 -38 -29h-99q-17 0 -24 6.5t-11 19.5l-380 997q-2 7 -2 14 q0 5 1 9z"/>
<glyph unicode="w" horiz-adv-x="1493" d="M40 1046q3 10 18 11h118q17 0 25 -7.5t12 -22.5q39 -126 79 -250t79 -251l95 -307h5l98 299q25 72 50 147t50 151l-62 207q-4 13 -0.5 23.5t18.5 10.5h115q17 0 24 -7.5t11 -22.5l157 -486q24 -81 49.5 -162t49.5 -164h3h2l106 352l143 462q8 28 31 28h2h119q19 0 19 -15 q0 -7 -4 -17l-332 -996q-8 -29 -37 -29h-95q-17 0 -25 6.5t-12 19.5q-29 83 -57 166.5t-56 170.5q-19 62 -42 127t-44 133h-5l-85 -258l-111 -336q-8 -29 -35 -29h-95q-17 0 -24.5 6.5t-12.5 19.5l-343 997q-2 7 -2 14q0 5 1 9z"/>
<glyph unicode="x" horiz-adv-x="939" d="M24 10q-2 4 -2 10q0 7 4 15l345 503l-328 485q-8 13 -2.5 23.5t19.5 10.5h131q17 0 22.5 -7.5t16.5 -20.5l236 -358l236 358q8 13 14.5 20.5t23.5 7.5h132q15 0 21 -10.5t-3 -23.5l-330 -482l345 -506q6 -8 6 -15q-1 -4 -3 -9q-6 -11 -20 -11h-132q-17 0 -26 7.5 t-18 21.5l-248 381l-249 -381q-17 -29 -45 -29h-127q-14 0 -19 10z"/>
<glyph unicode="y" horiz-adv-x="1011" d="M53 1046q3 11 19 11h115q17 0 23.5 -7.5t11.5 -22.5l178 -497l116 -333q4 13 25 68.5t43 118.5q24 72 54 161l165 484q9 28 33 28h2h117q19 0 19 -15q0 -7 -4 -17l-497 -1377q-4 -15 -12.5 -22.5t-30.5 -7.5h-100q-31 0 -19 34l126 348l-383 1023q-2 7 -2 14q0 5 1 9z "/>
<glyph unicode="z" horiz-adv-x="939" d="M72 31v62q0 37 19 63l574 753h-526q-37 0 -37 38v78q0 32 35 32h2h675q17 0 28 -4.5t11 -25.5v-78q0 -35 -22 -61l-553 -734h545q39 0 39 -34v-83q0 -37 -37 -37h-721q-33 0 -32 31z"/>
<glyph unicode="{" horiz-adv-x="576" d="M52 628v45q0 19 24 26q77 24 92.5 80t15.5 133v410q0 39 8.5 75t29.5 65t56 46.5t87 17.5q17 0 48.5 -3t64.5 -7q15 -4 22.5 -11t7.5 -24v-50q0 -19 -8.5 -25t-23.5 -8l-64 -4q-45 -4 -58 -22.5t-13 -62.5v-400q0 -35 -4.5 -73.5t-17.5 -74.5t-36.5 -66t-63.5 -46l3 -5 q41 -21 63.5 -48t34.5 -58.5t15 -68.5t3 -78v-420q0 -43 14.5 -61t59.5 -22l64 -6q15 -2 23.5 -7t8.5 -22v-52q0 -29 -30 -33q-33 -6 -64.5 -8.5t-48.5 -2.5q-52 0 -87 17t-56 45.5t-29.5 64t-8.5 75.5v430q0 37 -2 70.5t-12.5 60.5t-31 47.5t-60.5 31.5q-26 6 -26 29z"/>
<glyph unicode="|" horiz-adv-x="514" d="M189 -215v1689q0 25 10 30.5t29 5.5h58q35 0 35 -36v-1689q0 -37 -35 -37h-58q-19 0 -29 7t-10 30z"/>
<glyph unicode="}" horiz-adv-x="576" d="M52 -147q0 17 9 22t24 7l62 6q46 4 60.5 22t14.5 61v420q0 41 3 78t15 68.5t35 58.5t63 48l3 5q-39 15 -63 45.5t-37 66.5t-17.5 74.5t-4.5 73.5v400q0 44 -13 62.5t-59 22.5l-62 4q-15 2 -24 7.5t-9 25.5v50q0 17 7.5 23t23.5 12q33 4 64 7t48 3q52 0 87 -17.5 t55.5 -46.5t29 -65t8.5 -75v-410q0 -77 16.5 -133t92.5 -80q25 -7 24 -26v-45q0 -22 -26 -29q-39 -11 -59.5 -31.5t-32 -47.5t-13.5 -61t-2 -70v-430q0 -40 -8.5 -75.5t-29 -64t-55.5 -45.5t-87 -17q-17 0 -48 2.5t-64 8.5q-31 4 -31 33v52z"/>
<glyph unicode="~" d="M170.5 583.5q3.5 11.5 5.5 15.5q46 100 117.5 134.5t131.5 34.5q52 0 106.5 -18.5t106.5 -41t99.5 -41t87.5 -18.5q49 0 79 19.5t57 58.5q7 9 18 18t28 -3l43 -25q20 -11 18 -21t-4 -17q-89 -173 -254 -173q-46 0 -98 19.5t-104.5 42t-101 42.5t-89.5 20q-42 0 -71 -15.5 t-77 -73.5q-6 -5 -12.5 -11t-26.5 4l-43 28q-20 10 -16.5 21.5z"/>
<glyph unicode="¡" horiz-adv-x="485" d="M143 953q0 43 18.5 73.5t81.5 30.5q64 0 81 -30.5t17 -73.5q0 -44 -18.5 -71t-79.5 -27q-63 0 -81.5 27t-18.5 71zM156 -369l26 1007q2 35 27 35h56q31 0 31 -35l21 -1007q0 -37 -35 -37h-95q-31 0 -31 37z"/>
<glyph unicode="¢" d="M209 536q0 100 11.5 195.5t53 170.5t119.5 123t210 54v274q0 24 8 30.5t23 6.5h50q26 0 26 -37v-276q63 -4 135.5 -14t129.5 -34q17 -6 20.5 -19.5t0.5 -25.5l-8 -50q-4 -17 -20.5 -22t-35.5 -3q-67 7 -148.5 15t-141.5 8q-74 0 -123.5 -21t-79 -66.5t-42.5 -120.5 t-13 -186q0 -119 13 -197t43.5 -124.5t80.5 -66.5t121 -20q27 0 64.5 2.5t78 5.5t81.5 6t74 8q19 2 31.5 -2.5t16.5 -25.5l8 -46q7 -30 -23 -45q-50 -25 -122 -34.5t-141 -13.5v-258q0 -38 -26 -38h-50q-15 0 -23 6.5t-8 31.5v256q-132 6 -210 52t-119.5 120.5t-53 172 t-11.5 208.5z"/>
<glyph unicode="£" d="M139 31v64q0 15 7.5 29.5t27.5 24.5q41 20 66 53.5t36.5 75t15.5 87t4 89.5q0 10 1 57t1 125h-101q-37 0 -36 37v71q0 33 34 33h103l-5 298q-3 87 26 156.5t81 118t125.5 75.5t162.5 27q33 0 74 -2t88 -8.5t94.5 -17.5t91.5 -28q37 -17 25 -50l-13 -59 q-2 -11 -10.5 -19.5t-28.5 -3.5q-74 8 -146.5 19t-168.5 11q-112 0 -175 -58.5t-61 -169.5l6 -289h394q37 0 37 -33v-71q0 -37 -37 -37h-394v-141q0 -46 -3 -96.5t-10.5 -97.5t-23 -85t-36.5 -60h84.5t162.5 -1t194.5 -1h180.5q37 0 37 -36v-87q0 -19 -8 -25t-31 -6h-837 q-35 0 -35 31z"/>
<glyph unicode="¥" d="M87 1428q4 9 17 9h130q19 0 26 -6.5t16 -19.5l321 -612h13l330 612q9 15 16.5 20.5t27.5 5.5h114q35 0 18 -33l-404 -714h330q21 0 22 -23v-70q0 -19 -20 -19h-879q-10 0 -16 3t-6 16v74q0 19 24 19h326l-404 719q-6 10 -2 19zM143 389v73q0 7 5.5 13.5t18.5 6.5h873 q24 0 24 -26v-69q0 -19 -20 -20h-358v-330q0 -37 -37 -37h-94q-37 0 -37 37v330h-353q-21 0 -22 22z"/>
<glyph unicode="§" horiz-adv-x="924" d="M78 -205l17 46q9 29 50 18q79 -21 151.5 -29t126.5 -8q41 0 86.5 8.5t84 31t63.5 65t25 108.5q0 50 -36 93.5t-75 66.5q-66 37 -142.5 67.5t-148.5 69.5q-33 17 -65.5 41.5t-60.5 56.5t-45.5 73.5t-17.5 93.5q0 67 29 148.5t93 144.5q-70 50 -94 108.5t-24 126.5 q0 84 35 144.5t92.5 101t129 60t145.5 19.5q39 0 82.5 -4t87 -11.5t82.5 -21t69 -32.5q22 -13 13 -41l-17 -48q-6 -17 -16 -20.5t-34 2.5q-30 6 -66 13t-72 10.5t-66 5.5t-48 2q-52 0 -97.5 -11t-81 -32t-56 -53t-20.5 -74q0 -33 14.5 -61t37.5 -51.5t50.5 -42.5t50.5 -31 q63 -35 130 -63t131 -63q76 -42 127 -103.5t51 -155.5q0 -81 -28 -152t-96 -143q120 -104 120 -228q0 -112 -45.5 -183t-111 -111t-140.5 -54t-134 -14q-39 0 -83.5 4t-88 14t-83 24t-68.5 32q-21 13 -13 42zM241 636q0 -70 43.5 -114t106.5 -77q52 -28 110.5 -50t113.5 -45 q37 45 57 85.5t20 92.5q0 76 -44.5 119t-102.5 74q-52 26 -107.5 47.5t-112.5 51.5q-39 -39 -61.5 -86.5t-22.5 -97.5z"/>
<glyph unicode="¨" horiz-adv-x="1080" d="M300 1324q0 37 17 63t74 26q56 0 72.5 -25t16.5 -64t-16.5 -67t-72.5 -28q-60 0 -75.5 29t-15.5 66zM699 1324q0 37 17.5 63t71.5 26q56 0 73.5 -25t17.5 -64t-17 -67t-74 -28q-59 0 -74 29t-15 66z"/>
<glyph unicode="©" horiz-adv-x="1723" d="M91 727q0 159 60 298t164 240.5t244 161.5t299 60q163 0 304 -60t243.5 -161.5t161.5 -240.5t59 -298t-61 -298t-165 -240.5t-244.5 -161.5t-297.5 -60q-159 0 -299 60t-244 161.5t-164 241t-60 297.5zM201 727q0 -137 51.5 -256t140.5 -208t208.5 -141t256.5 -52 q136 0 255.5 52t208.5 141t141.5 208t52.5 256t-52.5 256t-141.5 208t-208.5 141.5t-255.5 52.5q-137 0 -256.5 -52.5t-208.5 -141.5t-140.5 -208t-51.5 -256zM530 699q0 86 11.5 170t49 148t103.5 103.5t174 39.5q19 0 49 -1t63 -6t67 -11.5t60 -16.5q21 -11 18 -29l-9 -39 q-2 -4 -8 -10.5t-18 -2.5q-44 6 -104 11.5t-118 5.5q-78 0 -123.5 -29t-69.5 -79t-30.5 -115t-6.5 -139q0 -67 8.5 -130t33 -111t70 -76t118.5 -28q61 0 116.5 5.5t105.5 11.5q12 4 18 -2t8 -13l7 -35q2 -10 -0.5 -16.5t-15.5 -11.5q-25 -11 -56.5 -17.5t-66.5 -10.5 t-65.5 -6t-50.5 -2q-104 0 -170 36.5t-104.5 98.5t-51 141.5t-12.5 165.5z"/>
<glyph unicode="ª" horiz-adv-x="758" d="M58 721q0 124 68.5 184.5t219.5 60.5h190v37q0 70 -38 99t-142 29q-41 0 -91 -3t-95 -12q-17 -4 -28.5 -2t-15.5 21l-8 42q-5 26 31 39q46 15 117.5 23t128.5 8q94 0 149 -20t84.5 -53.5t38 -82.5t8.5 -107v-290q0 -24 2 -38t7.5 -20t16.5 -8.5t28 -4.5q27 0 27 -20v-45 q0 -22 -35 -28q-37 -6 -61 -6q-112 -2 -122 89h-2q-41 -35 -104 -66t-161 -31q-112 0 -162.5 53.5t-50.5 151.5zM195 725q0 -50 23 -69.5t80 -19.5q54 0 121.5 25t116.5 51v143h-206q-61 0 -98 -27t-37 -103z"/>
<glyph unicode="«" horiz-adv-x="913" d="M80.5 409q2.5 14 12.5 26l218 269q10 10 22.5 18.5t29.5 8.5h130q11 0 13 -7t-5 -16l-251 -306l239 -302q6 -9 5 -19.5t-16 -10.5h-118q-21 0 -31 10.5t-21 21.5l-213 269q-17 24 -14.5 38zM420.5 407.5q2.5 15.5 11.5 27.5l219 269q8 10 20.5 18.5t30.5 8.5h129 q11 0 13.5 -7t-3.5 -16l-253 -306l241 -302q4 -9 3 -18.5t-18 -9.5h-112q-21 0 -32.5 9.5t-22.5 20.5l-212 269q-17 21 -14.5 36.5z"/>
<glyph unicode="¬" d="M180 677v67q0 33 33 33h781q33 0 33 -30v-428q0 -33 -33 -33h-60q-31 0 -31 31v330h-692q-31 0 -31 30z"/>
<glyph unicode="®" horiz-adv-x="1125" d="M83 1098q0 100 38 187t102.5 151t151.5 101t187 37q102 0 190.5 -37t152 -101t100.5 -151t37 -187q0 -99 -38 -186t-103.5 -152.5t-152 -102t-186.5 -36.5t-187 36.5t-151.5 102t-102.5 152.5t-38 186zM163 1098q0 -83 31.5 -155.5t85.5 -126.5t127 -85.5t155 -31.5 t155 31.5t126.5 85.5t84.5 126.5t31 155.5t-31 155.5t-84.5 126t-126.5 85t-155 31.5q-83 0 -155.5 -31.5t-126.5 -85t-85.5 -126t-31.5 -155.5zM395 820v545q0 17 22 18h176q66 0 119.5 -39t53.5 -130q0 -50 -23.5 -96.5t-84.5 -71.5l119 -226q8 -19 -11 -19h-60 q-15 0 -24 13l-109 222h-97v-213q0 -22 -20 -22h-44q-17 0 -17 19zM476 1110h100q19 0 37.5 3t35 13.5t26 31.5t9.5 56q0 56 -32.5 75.5t-75.5 19.5h-100v-199z"/>
<glyph unicode="¯" horiz-adv-x="1080" d="M286 1270v83q0 17 8 22.5t23 5.5h547q15 0 23 -5.5t8 -22.5v-83q0 -27 -31 -26h-547q-31 0 -31 26z"/>
<glyph unicode="°" horiz-adv-x="758" d="M108 1168q0 58 23 110t62 91.5t92.5 62t112.5 22.5q58 0 110 -23.5t90 -63t59.5 -91.5t21.5 -108q0 -58 -21.5 -110.5t-59.5 -90t-90 -59.5t-110 -22q-137 0 -213.5 81t-76.5 201zM226 1164q0 -70 47.5 -117.5t117.5 -47.5t118.5 47.5t48.5 117.5q0 35 -13 66t-35.5 54 t-53.5 37.5t-65 14.5q-35 0 -64 -14.5t-52 -37.5t-36 -54.5t-13 -65.5z"/>
<glyph unicode="±" d="M180 673v76q0 17 6.5 22.5t22.5 5.5h325v315q0 15 5.5 23t22.5 8h89q26 0 26 -31v-315h317q17 0 25 -5.5t8 -22.5v-76q0 -26 -33 -26h-317v-332q0 -31 -26 -31h-89q-17 0 -22.5 8t-5.5 23v332h-325q-29 0 -29 26zM182 102v68q0 17 7.5 22t23.5 5h781q15 0 23 -5t8 -22 v-68q0 -27 -31 -26h-781q-31 0 -31 26z"/>
<glyph unicode="´" horiz-adv-x="1078" d="M538 1231l152 310q9 19 37 7l100 -44q15 -6 13 -15.5t-7 -16.5l-193 -287q-10 -15 -33 -6l-62 22q-17 6 -7 30z"/>
<glyph unicode="¶" horiz-adv-x="1013" d="M41 1005q0 211 111 324t297 113h485q37 0 36 -38v-78q0 -39 -36 -39h-55v-1457q0 -37 -36 -37h-75q-39 0 -39 37v1460h-219v-1460q0 -37 -37 -37h-73q-40 0 -40 37v828q-76 0 -135.5 31.5t-99.5 82.5t-62 113t-22 120z"/>
<glyph unicode="·" horiz-adv-x="422" d="M112 549q0 44 18.5 72t80.5 28t81 -27t19 -73q0 -43 -19 -73.5t-81 -30.5q-65 0 -82 31.5t-17 72.5z"/>
<glyph unicode="¸" horiz-adv-x="922" d="M330 -363l11 42q2 6 6.5 9.5t17.5 0.5q30 -4 64.5 -7t59.5 -3q45 0 79.5 13t34.5 65q0 42 -29 54.5t-110 16.5q-45 5 -27 48l52 145q0 2 4 8t13 6h54q8 0 9.5 -5.5t-0.5 -10.5l-43 -114q60 -3 98 -15t60 -31.5t30.5 -44.5t8.5 -52q0 -87 -60 -128.5t-166 -41.5 q-28 0 -73 5t-78 16q-20 9 -16 24z"/>
<glyph unicode="º" horiz-adv-x="752" d="M63 893q0 51 9 112t40 114t92 89t167 36q104 0 167 -30.5t97 -80.5t44.5 -113t10.5 -127q0 -63 -7.5 -131t-38.5 -122t-95.5 -89t-177.5 -35q-110 0 -172 35t-92.5 89t-37 121.5t-6.5 131.5zM197 881q0 -124 34 -183.5t140 -59.5q112 0 147 59.5t35 183.5 q0 60 -7.5 106.5t-27 76.5t-55.5 45.5t-92 15.5q-106 0 -140 -60t-34 -184z"/>
<glyph unicode="»" horiz-adv-x="913" d="M76 77.5q-2 7.5 5 15.5l251 307l-241 302q-4 8 -3 18.5t18 10.5h113q22 0 33 -10.5t21 -21.5l214 -269q17 -19 13.5 -35t-11.5 -26l-220 -271q-8 -11 -20.5 -19.5t-29.5 -8.5h-130q-11 0 -13 7.5zM414.5 77.5q-2.5 7.5 4.5 15.5l252 307l-239 302q-6 8 -5.5 18.5 t16.5 10.5h117q19 0 30 -10.5t23 -21.5l212 -269q17 -21 15 -36t-13 -25l-217 -271q-11 -11 -22.5 -19.5t-29.5 -8.5h-131q-10 0 -12.5 7.5z"/>
<glyph unicode="¿" horiz-adv-x="763" d="M24 -91q0 56 15 98.5t40 76.5t56.5 58.5t61.5 48.5q46 35 84 67t66 70.5t43.5 85t15.5 104.5v59t-2 63q0 37 28 37h82q17 0 24 -7.5t11 -25.5q6 -41 7.5 -80.5t1.5 -66.5q0 -74 -22 -132.5t-58.5 -108t-84 -93t-100.5 -85.5q-48 -37 -79.5 -69.5t-31.5 -89.5 q0 -101 60 -142.5t193 -41.5q54 0 117 5.5t117 9.5q21 2 29 -6.5t12 -19.5l11 -58q4 -17 0 -28t-29 -20q-67 -26 -134 -33.5t-131 -7.5q-204 0 -303.5 86.5t-99.5 245.5zM363 953q0 43 18.5 73.5t80.5 30.5q67 0 83.5 -30.5t16.5 -73.5q0 -44 -19 -72t-81 -28t-80.5 28 t-18.5 72z"/>
<glyph unicode="À" horiz-adv-x="1189" d="M35 35l454 1369q8 33 41 33h121q21 0 29 -9t12 -24l454 -1373q6 -31 -17 -31h-133q-17 0 -24.5 6.5t-12.5 22.5l-106 355h-530l-112 -349q-6 -21 -17.5 -28t-28.5 -7h-113q-31 0 -17 35zM251 1701q-8 8 3 20l69 85q19 25 35 11l278 -206q21 -15 8 -28l-45 -50 q-15 -15 -32 -7l-302 163q-6 4 -14 12zM373 538h433l-110 363l-103 352h-7l-102 -346z"/>
<glyph unicode="Á" horiz-adv-x="1189" d="M35 35l454 1369q8 33 41 33h121q21 0 29 -9t12 -24l454 -1373q6 -31 -17 -31h-133q-17 0 -24.5 6.5t-12.5 22.5l-106 355h-530l-112 -349q-6 -21 -17.5 -28t-28.5 -7h-113q-31 0 -17 35zM373 538h433l-110 363l-103 352h-7l-102 -346zM518 1583q-12 12 10 28l278 206 q14 13 35 -11l68 -85q11 -12 3.5 -20t-13.5 -12l-302 -163q-17 -8 -33 7z"/>
<glyph unicode="Â" horiz-adv-x="1189" d="M35 35l454 1369q8 33 41 33h121q21 0 29 -9t12 -24l454 -1373q6 -31 -17 -31h-133q-17 0 -24.5 6.5t-12.5 22.5l-106 355h-530l-112 -349q-6 -21 -17.5 -28t-28.5 -7h-113q-31 0 -17 35zM257 1561q-13 13 0 28l223 211q17 13 29.5 18t28.5 5h102q25 0 37.5 -5t26.5 -16 l216 -205q21 -19 2 -33l-41 -40q-17 -12 -34 -2l-259 182l-252 -184q-15 -11 -21.5 -12.5t-16.5 10.5zM373 538h433l-110 363l-103 352h-7l-102 -346z"/>
<glyph unicode="Ã" horiz-adv-x="1189" d="M35 35l454 1369q8 33 41 33h121q21 0 29 -9t12 -24l454 -1373q6 -31 -17 -31h-133q-17 0 -24.5 6.5t-12.5 22.5l-106 355h-530l-112 -349q-6 -21 -17.5 -28t-28.5 -7h-113q-31 0 -17 35zM217 1559q0 11 5 19q37 100 96 139t109 39q42 0 85 -17.5t85.5 -39t82 -39 t72.5 -17.5q37 0 59 19.5t47 61.5q4 8 11.5 15t25.5 -1l45 -14q15 -5 14 -17t-3 -18q-58 -187 -199 -187q-38 0 -81 18.5t-88 39t-86 39.5t-74 19q-17 0 -47 -13.5t-65 -69.5q-5 -11 -13 -14t-25 5l-43 17q-13 5 -13 16zM373 538h433l-110 363l-103 352h-7l-102 -346z"/>
<glyph unicode="Ä" horiz-adv-x="1189" d="M35 35l454 1369q8 33 41 33h121q21 0 29 -9t12 -24l454 -1373q6 -31 -17 -31h-133q-17 0 -24.5 6.5t-12.5 22.5l-106 355h-530l-112 -349q-6 -21 -17.5 -28t-28.5 -7h-113q-31 0 -17 35zM313 1645q0 37 16.5 63t72.5 26t72.5 -24t16.5 -65q0 -39 -16.5 -66t-72.5 -27 q-61 0 -75 28.5t-14 64.5zM373 538h433l-110 363l-103 352h-7l-102 -346zM686 1645q0 37 16.5 63t72.5 26t72.5 -24t16.5 -65q0 -39 -16.5 -66t-72.5 -27q-61 0 -75 28.5t-14 64.5z"/>
<glyph unicode="Å" horiz-adv-x="1189" d="M35 35l454 1369q8 33 41 33h121q21 0 29 -9t12 -24l454 -1373q6 -31 -17 -31h-133q-17 0 -24.5 6.5t-12.5 22.5l-106 355h-530l-112 -349q-6 -21 -17.5 -28t-28.5 -7h-113q-31 0 -17 35zM369 1678q0 46 18.5 85t47.5 66t68.5 43.5t82.5 16.5q46 0 84 -17.5t67 -45.5 t45.5 -67.5t16.5 -80.5q0 -43 -16.5 -81.5t-45.5 -66.5t-67 -45.5t-84 -17.5q-43 0 -82.5 16.5t-68.5 43.5t-47.5 66t-18.5 85zM373 538h433l-110 363l-103 352h-7l-102 -346zM482 1678q0 -48 28 -79t76 -31q46 0 76 31t30 79q0 43 -30 77t-76 34q-43 0 -73.5 -34t-30.5 -77 z"/>
<glyph unicode="Æ" horiz-adv-x="1910" d="M22 5.5q-7 5.5 4 25.5l844 1376q17 32 52 32h841q37 0 37 -35v-84q0 -37 -39 -37h-617v-458h554q37 0 36 -35v-84q0 -35 -36 -35h-554v-517h634q35 0 35 -36v-83q0 -21 -8.5 -28t-28.5 -7h-763q-28 0 -33 6.5t-5 22.5v355h-534l-215 -349q-15 -21 -28.5 -28t-30.5 -7 h-124q-14 0 -21 5.5zM536 538h439v736h-7z"/>
<glyph unicode="Ç" horiz-adv-x="1167" d="M141 704q0 143 20.5 278.5t79.5 239.5t167 168t284 64q33 0 80.5 -2t102.5 -8.5t109 -17.5t97 -28q25 -10 29 -21.5t0 -26.5l-14 -60q-4 -11 -11.5 -20t-29.5 -4q-72 10 -168.5 20t-194.5 10q-126 0 -199.5 -47.5t-112.5 -129t-50 -189t-11 -226.5q0 -108 13.5 -210.5 t53 -181t113.5 -125t193 -46.5q100 0 191.5 10t169.5 21q24 4 31.5 -6t11.5 -21l11 -56q4 -17 1 -28t-25 -20q-39 -17 -93 -28t-109.5 -17.5t-105.5 -9.5t-83 -3q-6 0 -13.5 1t-13.5 1l-29 -80q60 -3 98.5 -15t60 -31.5t30 -44.5t8.5 -52q0 -87 -59.5 -128.5t-166.5 -41.5 q-28 0 -72 5t-79 16q-19 9 -15 24l11 42q2 6 6 9.5t18 0.5q31 -4 65.5 -7t57.5 -3q45 0 80 13t35 65q0 42 -29.5 54.5t-108.5 16.5q-46 5 -29 48l39 113q-137 19 -223.5 84.5t-135.5 162t-67.5 217t-18.5 251.5z"/>
<glyph unicode="È" horiz-adv-x="1096" d="M161 35v1367q0 37 38 37h750q37 0 37 -35v-84q0 -37 -39 -37h-617v-458h554q37 0 36 -35v-84q0 -35 -36 -35h-554v-517h634q35 0 35 -36v-83q0 -21 -8.5 -28t-29.5 -7h-762q-39 0 -38 35zM251 1701q-8 8 3 20l69 85q19 25 35 11l278 -206q21 -15 8 -28l-45 -50 q-15 -15 -32 -7l-302 163q-6 4 -14 12z"/>
<glyph unicode="É" horiz-adv-x="1096" d="M161 35v1367q0 37 38 37h750q37 0 37 -35v-84q0 -37 -39 -37h-617v-458h554q37 0 36 -35v-84q0 -35 -36 -35h-554v-517h634q35 0 35 -36v-83q0 -21 -8.5 -28t-29.5 -7h-762q-39 0 -38 35zM476 1583q-13 12 8 28l278 206q15 13 35 -11l69 -85q11 -12 3.5 -20t-14.5 -12 l-302 -163q-17 -8 -31 7z"/>
<glyph unicode="Ê" horiz-adv-x="1096" d="M161 35v1367q0 37 38 37h750q37 0 37 -35v-84q0 -37 -39 -37h-617v-458h554q37 0 36 -35v-84q0 -35 -36 -35h-554v-517h634q35 0 35 -36v-83q0 -21 -8.5 -28t-29.5 -7h-762q-39 0 -38 35zM241 1561q-13 13 0 28l223 211q17 13 29.5 18t30.5 5h101q25 0 37.5 -5t25.5 -16 l217 -205q21 -19 2 -33l-41 -40q-17 -12 -35 -2l-258 182l-252 -184q-15 -11 -21.5 -12.5t-17.5 10.5z"/>
<glyph unicode="Ë" horiz-adv-x="1096" d="M161 35v1367q0 37 38 37h750q37 0 37 -35v-84q0 -37 -39 -37h-617v-458h554q37 0 36 -35v-84q0 -35 -36 -35h-554v-517h634q35 0 35 -36v-83q0 -21 -8.5 -28t-29.5 -7h-762q-39 0 -38 35zM298 1645q0 37 16 63t73 26q56 0 72.5 -24t16.5 -65q0 -39 -16.5 -66t-72.5 -27 q-61 0 -75 28.5t-14 64.5zM671 1645q0 37 16.5 63t72.5 26t72.5 -24t16.5 -65q0 -39 -16.5 -66t-72.5 -27q-60 0 -74.5 28.5t-14.5 64.5z"/>
<glyph unicode="Ì" horiz-adv-x="551" d="M-64 1701q-8 8 4 20l68 85q20 25 35 11l278 -206q21 -15 9 -28l-46 -50q-15 -15 -32 -7l-302 163q-6 4 -14 12zM187 37v1363q0 25 10 32t29 7h95q17 0 27 -7.5t10 -31.5v-1363q0 -37 -37 -37h-95q-39 0 -39 37z"/>
<glyph unicode="Í" horiz-adv-x="551" d="M187 37v1363q0 25 10 32t29 7h95q17 0 27 -7.5t10 -31.5v-1363q0 -37 -37 -37h-95q-39 0 -39 37zM209 1583q-13 12 8 28l278 206q15 13 35 -11l69 -85q11 -12 3.5 -20t-14.5 -12l-302 -163q-17 -8 -32 7z"/>
<glyph unicode="Î" horiz-adv-x="551" d="M-54 1561q-13 13 0 28l224 211q17 13 29 18t29 5h102q24 0 36.5 -5t26.5 -16l217 -205q21 -19 3 -33l-42 -40q-17 -12 -35 -2l-258 182l-252 -184q-14 -11 -21 -12.5t-18 10.5zM187 37v1363q0 25 10 32t29 7h95q17 0 27 -7.5t10 -31.5v-1363q0 -37 -37 -37h-95 q-39 0 -39 37z"/>
<glyph unicode="Ï" horiz-adv-x="551" d="M-6 1645q0 37 16 63t73 26q56 0 72.5 -24t16.5 -65q0 -39 -16.5 -66t-72.5 -27q-61 0 -75 28.5t-14 64.5zM187 37v1363q0 25 10 32t29 7h95q17 0 27 -7.5t10 -31.5v-1363q0 -37 -37 -37h-95q-39 0 -39 37zM367 1645q0 37 16.5 63t72.5 26t72.5 -24t16.5 -65 q0 -39 -16.5 -66t-72.5 -27q-61 0 -75 28.5t-14 64.5z"/>
<glyph unicode="Ð" horiz-adv-x="1338" d="M-2 688v83q0 17 7.5 22.5t23.5 5.5h136v603q0 35 40 35h412q174 0 286 -55.5t177.5 -152t91.5 -227t26 -279.5q0 -150 -25 -281t-89.5 -230.5t-177.5 -155.5t-289 -56h-406q-27 0 -36.5 8.5t-9.5 28.5v625h-136q-31 0 -31 26zM334 156h267q74 0 148 18.5t134.5 76 t99 166.5t38.5 289q0 182 -34 295t-90 175.5t-129.5 84.5t-150.5 22h-283v-484h242q14 0 21.5 -5.5t7.5 -22.5v-83q0 -27 -29 -26h-242v-506z"/>
<glyph unicode="Ñ" horiz-adv-x="1365" d="M156 37v1370q0 32 35 32h89q24 0 33.5 -10t20.5 -25l588 -907l116 -182h6v1085q0 25 8.5 32t28.5 7h91q17 0 26 -7.5t9 -31.5v-1365q0 -35 -35 -35h-82q-25 0 -35.5 8.5t-20.5 26.5l-580 895l-126 205h-7v-1098q0 -37 -37 -37h-89q-39 0 -39 37zM311 1556.5 q0 11.5 4 19.5q37 100 96.5 139t110.5 39q41 0 84 -17.5t85.5 -39t81.5 -39t72 -17.5q37 0 59 19.5t47 60.5q4 9 11.5 16t25.5 -1l46 -15q14 -4 13 -16t-3 -19q-58 -186 -199 -186q-37 0 -80.5 18.5t-88 39t-86 39t-74.5 18.5q-17 0 -47 -13t-65 -69q-4 -11 -12 -14t-25 5 l-44 17q-12 4 -12 15.5z"/>
<glyph unicode="Ò" horiz-adv-x="1384" d="M135 740q0 67 6 146.5t26 159t58 154t98.5 131.5t150.5 91t214 34q184 0 296 -63t171 -163.5t77.5 -229t18.5 -260.5q0 -128 -15.5 -262.5t-73 -245t-170.5 -181t-306 -70.5q-128 0 -218.5 32.5t-150.5 87.5t-96.5 130t-56 160t-24.5 173.5t-5 175.5zM308 719 q0 -133 16.5 -240.5t58.5 -184.5t115 -119.5t188 -42.5q117 0 193 40.5t121.5 115.5t63 184.5t17.5 246.5q0 141 -18.5 251.5t-64 185.5t-121.5 114t-191 39q-108 0 -181 -41.5t-116 -118t-62 -185.5t-19 -245zM485.5 1701q-7.5 8 3.5 20l69 85q19 25 35 11l277 -206 q21 -15 9 -28l-46 -50q-15 -15 -32 -7l-302 163q-6 4 -13.5 12z"/>
<glyph unicode="Ó" horiz-adv-x="1384" d="M135 740q0 67 6 146.5t26 159t58 154t98.5 131.5t150.5 91t214 34q184 0 296 -63t171 -163.5t77.5 -229t18.5 -260.5q0 -128 -15.5 -262.5t-73 -245t-170.5 -181t-306 -70.5q-128 0 -218.5 32.5t-150.5 87.5t-96.5 130t-56 160t-24.5 173.5t-5 175.5zM308 719 q0 -133 16.5 -240.5t58.5 -184.5t115 -119.5t188 -42.5q117 0 193 40.5t121.5 115.5t63 184.5t17.5 246.5q0 141 -18.5 251.5t-64 185.5t-121.5 114t-191 39q-108 0 -181 -41.5t-116 -118t-62 -185.5t-19 -245zM562 1583q-13 12 9 28l278 206q15 13 35 -11l69 -85 q11 -12 3.5 -20t-14.5 -12l-302 -163q-17 -8 -33 7z"/>
<glyph unicode="Ô" horiz-adv-x="1384" d="M135 740q0 67 6 146.5t26 159t58 154t98.5 131.5t150.5 91t214 34q184 0 296 -63t171 -163.5t77.5 -229t18.5 -260.5q0 -128 -15.5 -262.5t-73 -245t-170.5 -181t-306 -70.5q-128 0 -218.5 32.5t-150.5 87.5t-96.5 130t-56 160t-24.5 173.5t-5 175.5zM308 719 q0 -133 16.5 -240.5t58.5 -184.5t115 -119.5t188 -42.5q117 0 193 40.5t121.5 115.5t63 184.5t17.5 246.5q0 141 -18.5 251.5t-64 185.5t-121.5 114t-191 39q-108 0 -181 -41.5t-116 -118t-62 -185.5t-19 -245zM363 1561q-13 13 0 28l223 211q17 13 29.5 18t28.5 5h103 q25 0 37.5 -5t25.5 -16l217 -205q21 -19 2 -33l-41 -40q-17 -12 -35 -2l-259 182l-251 -184q-15 -11 -22 -12.5t-17 10.5z"/>
<glyph unicode="Õ" horiz-adv-x="1384" d="M135 740q0 67 6 146.5t26 159t58 154t98.5 131.5t150.5 91t214 34q184 0 296 -63t171 -163.5t77.5 -229t18.5 -260.5q0 -128 -15.5 -262.5t-73 -245t-170.5 -181t-306 -70.5q-128 0 -218.5 32.5t-150.5 87.5t-96.5 130t-56 160t-24.5 173.5t-5 175.5zM308 719 q0 -133 16.5 -240.5t58.5 -184.5t115 -119.5t188 -42.5q117 0 193 40.5t121.5 115.5t63 184.5t17.5 246.5q0 141 -18.5 251.5t-64 185.5t-121.5 114t-191 39q-108 0 -181 -41.5t-116 -118t-62 -185.5t-19 -245zM325 1578.5q0 10.5 5 18.5q37 100 97 139.5t109 39.5 q42 0 85.5 -17.5t85.5 -39t81 -39t72 -17.5q37 0 59.5 19.5t46.5 61.5q4 8 12 14.5t25 0.5l45 -15q15 -5 14 -17t-3 -18q-58 -187 -199 -187q-37 0 -80.5 18t-88 39t-86 39.5t-73.5 18.5q-17 0 -47.5 -13t-65.5 -70q-5 -11 -12 -14t-25 5l-44 19q-13 4 -13 14.5z"/>
<glyph unicode="Ö" horiz-adv-x="1384" d="M135 740q0 67 6 146.5t26 159t58 154t98.5 131.5t150.5 91t214 34q184 0 296 -63t171 -163.5t77.5 -229t18.5 -260.5q0 -128 -15.5 -262.5t-73 -245t-170.5 -181t-306 -70.5q-128 0 -218.5 32.5t-150.5 87.5t-96.5 130t-56 160t-24.5 173.5t-5 175.5zM308 719 q0 -133 16.5 -240.5t58.5 -184.5t115 -119.5t188 -42.5q117 0 193 40.5t121.5 115.5t63 184.5t17.5 246.5q0 141 -18.5 251.5t-64 185.5t-121.5 114t-191 39q-108 0 -181 -41.5t-116 -118t-62 -185.5t-19 -245zM425 1645q0 37 16.5 63t72.5 26t72.5 -24t16.5 -65 q0 -39 -16 -66t-73 -27q-60 0 -74.5 28.5t-14.5 64.5zM799 1645q0 37 16 63t73 26q56 0 72.5 -24t16.5 -65q0 -39 -16.5 -66t-72.5 -27q-60 0 -74.5 28.5t-14.5 64.5z"/>
<glyph unicode="Ø" horiz-adv-x="1384" d="M135 740q0 67 6 146.5t26 159t58 154t98.5 131.5t150.5 91t214 34q137 0 231 -34t158 -94l78 107q7 11 14.5 18.5t21.5 -3.5l50 -35q21 -13 6 -34l-101 -137q62 -103 83.5 -235t21.5 -269q0 -128 -15.5 -262.5t-73 -245t-170.5 -181t-306 -70.5q-131 0 -223 33.5 t-152 91.5l-70 -93q-7 -11 -15.5 -18.5t-20.5 3.5l-51 35q-13 8 -13 14.5t11 19.5l91 124q-72 115 -90 260.5t-18 288.5zM308 719q0 -111 11 -204.5t39 -166.5l617 841q-45 59 -116 89.5t-173 30.5q-108 0 -181 -41.5t-116 -118t-62 -185.5t-19 -245zM412 247 q44 -56 110 -85.5t164 -29.5q117 0 193 40.5t121.5 115.5t63 184.5t17.5 246.5q0 112 -12 204t-38 165z"/>
<glyph unicode="Ù" horiz-adv-x="1317" d="M149 522v878q0 25 9 32t29 7h95q17 0 27 -7.5t10 -31.5v-886q0 -182 85 -278.5t256 -96.5q168 0 256.5 91t88.5 284v886q0 25 10 32t29 7h93q17 0 26 -7.5t9 -31.5l-2 -878q0 -70 -6 -132t-31 -123q-62 -151 -187.5 -216.5t-285.5 -65.5q-366 0 -469 278 q-25 58 -33.5 122t-8.5 137zM381 1701q-8 8 3 20l70 85q19 25 35 11l277 -206q22 -15 9 -28l-46 -50q-15 -15 -33 -7l-301 163q-6 4 -14 12z"/>
<glyph unicode="Ú" horiz-adv-x="1317" d="M149 522v878q0 25 9 32t29 7h95q17 0 27 -7.5t10 -31.5v-886q0 -182 85 -278.5t256 -96.5q168 0 256.5 91t88.5 284v886q0 25 10 32t29 7h93q17 0 26 -7.5t9 -31.5l-2 -878q0 -70 -6 -132t-31 -123q-62 -151 -187.5 -216.5t-285.5 -65.5q-366 0 -469 278 q-25 58 -33.5 122t-8.5 137zM543 1583q-13 12 8 28l278 206q15 13 35 -11l70 -85q10 -12 3 -20t-15 -12l-301 -163q-17 -8 -33 7z"/>
<glyph unicode="Û" horiz-adv-x="1317" d="M149 522v878q0 25 9 32t29 7h95q17 0 27 -7.5t10 -31.5v-886q0 -182 85 -278.5t256 -96.5q168 0 256.5 91t88.5 284v886q0 25 10 32t29 7h93q17 0 26 -7.5t9 -31.5l-2 -878q0 -70 -6 -132t-31 -123q-62 -151 -187.5 -216.5t-285.5 -65.5q-366 0 -469 278 q-25 58 -33.5 122t-8.5 137zM334 1561q-13 13 0 28l224 211q17 13 29 18t30 5h102q24 0 36.5 -5t25.5 -16l218 -205q21 -19 2 -33l-42 -40q-17 -12 -35 -2l-257 182l-253 -184q-14 -11 -20.5 -12.5t-18.5 10.5z"/>
<glyph unicode="Ü" horiz-adv-x="1317" d="M149 522v878q0 25 9 32t29 7h95q17 0 27 -7.5t10 -31.5v-886q0 -182 85 -278.5t256 -96.5q168 0 256.5 91t88.5 284v886q0 25 10 32t29 7h93q17 0 26 -7.5t9 -31.5l-2 -878q0 -70 -6 -132t-31 -123q-62 -151 -187.5 -216.5t-285.5 -65.5q-366 0 -469 278 q-25 58 -33.5 122t-8.5 137zM379 1645q0 37 16.5 63t73.5 26q56 0 72.5 -24t16.5 -65q0 -39 -16 -66t-73 -27q-61 0 -75.5 28.5t-14.5 64.5zM754 1645q0 37 15.5 63t73.5 26q56 0 72.5 -24t16.5 -65q0 -39 -16.5 -66t-72.5 -27q-61 0 -75 28.5t-14 64.5z"/>
<glyph unicode="Ý" horiz-adv-x="1100" d="M37 1409q-4 10 0 19t17 9h128q19 0 27 -6.5t15 -19.5l201 -380l120 -223h13l128 232l202 371q9 15 17.5 20.5t28.5 5.5h112q35 0 20 -33l-432 -762v-605q0 -37 -35 -37h-91q-39 0 -39 37v605zM460 1583q-13 12 9 28l278 206q15 13 34 -11l70 -85q11 -12 3.5 -20 t-13.5 -12l-303 -163q-16 -8 -32 7z"/>
<glyph unicode="Þ" horiz-adv-x="1102" d="M141 37v1365q0 37 37 37h93q40 0 40 -37v-252h282q91 0 172.5 -26t142 -78t96.5 -130.5t36 -181.5q0 -75 -23 -151.5t-75 -141t-136.5 -104t-210.5 -39.5h-284v-261q0 -37 -38 -37h-93q-39 0 -39 37zM311 447h288q83 0 136 24t83.5 64.5t42 91t11.5 104.5 q0 137 -80 202.5t-212 65.5h-269v-552z"/>
<glyph unicode="ß" horiz-adv-x="1093" d="M116 26v1086q0 118 36.5 199t95 133t129 74.5t133.5 22.5q87 0 159.5 -22.5t126 -68.5t82.5 -114t29 -159q0 -29 -8.5 -65.5t-26 -76t-44.5 -74.5t-66 -60q79 -21 124.5 -64.5t68 -103.5t29 -132.5t6.5 -151.5q0 -215 -100 -339.5t-302 -124.5q-30 0 -71 3.5t-72 13.5 q-33 9 -26 37l11 63q2 15 10.5 22.5t41.5 3.5q17 -2 35.5 -2h35.5q146 0 204.5 87t58.5 243q0 95 -14 158t-47.5 101.5t-89 56.5t-135.5 23q-26 0 -26 25v66q0 33 34 40q42 9 78.5 34.5t63 60t41.5 75.5t15 85q0 104 -60.5 157.5t-163.5 53.5q-102 0 -167 -66.5t-65 -196.5 v-1100q0 -40 -39 -40h-92q-35 0 -33 37z"/>
<glyph unicode="à" horiz-adv-x="1115" d="M95 282q0 184 93.5 274.5t310.5 90.5h300v74q0 120 -55.5 165.5t-198.5 45.5q-31 0 -68.5 -1t-79 -5t-83 -7t-76.5 -7q-37 -7 -43 20l-13 56q-4 15 3.5 26t31.5 22q33 10 78.5 19t95.5 14.5t98.5 7.5t88.5 2q130 0 207 -28t117 -78.5t51 -122t11 -158.5v-479 q0 -33 3 -50.5t11 -26t22.5 -11.5t41.5 -5q37 -2 37 -29v-54q0 -15 -9 -25t-34 -14q-40 -6 -77 -6q-76 0 -111.5 28t-46.5 98h-4q-80 -48 -179.5 -91.5t-228.5 -43.5q-159 0 -226.5 76t-67.5 223zM263 288q0 -91 35.5 -123.5t131.5 -32.5q42 0 90.5 11t98.5 29.5t96.5 40 t83.5 44.5v253h-319q-99 0 -158 -45.5t-59 -176.5zM360.5 1488.5q-2.5 9.5 12.5 15.5l100 44q28 12 37 -7l152 -310q11 -25 -7 -30l-62 -29q-22 -8 -33 7l-193 293q-4 7 -6.5 16.5z"/>
<glyph unicode="á" horiz-adv-x="1115" d="M95 282q0 184 93.5 274.5t310.5 90.5h300v74q0 120 -55.5 165.5t-198.5 45.5q-31 0 -68.5 -1t-79 -5t-83 -7t-76.5 -7q-37 -7 -43 20l-13 56q-4 15 3.5 26t31.5 22q33 10 78.5 19t95.5 14.5t98.5 7.5t88.5 2q130 0 207 -28t117 -78.5t51 -122t11 -158.5v-479 q0 -33 3 -50.5t11 -26t22.5 -11.5t41.5 -5q37 -2 37 -29v-54q0 -15 -9 -25t-34 -14q-40 -6 -77 -6q-76 0 -111.5 28t-46.5 98h-4q-80 -48 -179.5 -91.5t-228.5 -43.5q-159 0 -226.5 76t-67.5 223zM263 288q0 -91 35.5 -123.5t131.5 -32.5q42 0 90.5 11t98.5 29.5t96.5 40 t83.5 44.5v253h-319q-99 0 -158 -45.5t-59 -176.5zM538 1231l152 310q9 19 37 7l100 -44q15 -6 13 -15.5t-7 -16.5l-193 -287q-10 -15 -33 -6l-62 22q-17 6 -7 30z"/>
<glyph unicode="â" horiz-adv-x="1115" d="M95 282q0 184 93.5 274.5t310.5 90.5h300v74q0 120 -55.5 165.5t-198.5 45.5q-31 0 -68.5 -1t-79 -5t-83 -7t-76.5 -7q-37 -7 -43 20l-13 56q-4 15 3.5 26t31.5 22q33 10 78.5 19t95.5 14.5t98.5 7.5t88.5 2q130 0 207 -28t117 -78.5t51 -122t11 -158.5v-479 q0 -33 3 -50.5t11 -26t22.5 -11.5t41.5 -5q37 -2 37 -29v-54q0 -15 -9 -25t-34 -14q-40 -6 -77 -6q-76 0 -111.5 28t-46.5 98h-4q-80 -48 -179.5 -91.5t-228.5 -43.5q-159 0 -226.5 76t-67.5 223zM250 1216q-15 10 0 28l204 258q10 15 22.5 19.5t35.5 4.5h103q31 0 42.5 -5 t19.5 -17l200 -257q17 -22 2 -35l-46 -35q-21 -17 -34 -3l-237 233l-228 -228q-11 -13 -19.5 -13t-18.5 11zM263 288q0 -91 35.5 -123.5t131.5 -32.5q42 0 90.5 11t98.5 29.5t96.5 40t83.5 44.5v253h-319q-99 0 -158 -45.5t-59 -176.5z"/>
<glyph unicode="ã" horiz-adv-x="1115" d="M95 282q0 184 93.5 274.5t310.5 90.5h300v74q0 120 -55.5 165.5t-198.5 45.5q-31 0 -68.5 -1t-79 -5t-83 -7t-76.5 -7q-37 -7 -43 20l-13 56q-4 15 3.5 26t31.5 22q33 10 78.5 19t95.5 14.5t98.5 7.5t88.5 2q130 0 207 -28t117 -78.5t51 -122t11 -158.5v-479 q0 -33 3 -50.5t11 -26t22.5 -11.5t41.5 -5q37 -2 37 -29v-54q0 -15 -9 -25t-34 -14q-40 -6 -77 -6q-76 0 -111.5 28t-46.5 98h-4q-80 -48 -179.5 -91.5t-228.5 -43.5q-159 0 -226.5 76t-67.5 223zM197.5 1252.5q-0.5 11.5 3.5 19.5q37 100 97 139t110 39q41 0 84.5 -17.5 t86 -39t81.5 -38.5t71 -17q37 0 60 19t47 60q5 9 12.5 15.5t23.5 0.5l46 -16q15 -4 14.5 -15.5t-2.5 -18.5q-60 -187 -201 -187q-37 0 -80.5 18.5t-88 39t-85 39t-73.5 18.5q-17 0 -48 -13t-66 -69q-4 -11 -11.5 -14t-24.5 5l-43 17q-13 4 -13.5 15.5zM263 288 q0 -91 35.5 -123.5t131.5 -32.5q42 0 90.5 11t98.5 29.5t96.5 40t83.5 44.5v253h-319q-99 0 -158 -45.5t-59 -176.5z"/>
<glyph unicode="ä" horiz-adv-x="1115" d="M95 282q0 184 93.5 274.5t310.5 90.5h300v74q0 120 -55.5 165.5t-198.5 45.5q-31 0 -68.5 -1t-79 -5t-83 -7t-76.5 -7q-37 -7 -43 20l-13 56q-4 15 3.5 26t31.5 22q33 10 78.5 19t95.5 14.5t98.5 7.5t88.5 2q130 0 207 -28t117 -78.5t51 -122t11 -158.5v-479 q0 -33 3 -50.5t11 -26t22.5 -11.5t41.5 -5q37 -2 37 -29v-54q0 -15 -9 -25t-34 -14q-40 -6 -77 -6q-76 0 -111.5 28t-46.5 98h-4q-80 -48 -179.5 -91.5t-228.5 -43.5q-159 0 -226.5 76t-67.5 223zM263 288q0 -91 35.5 -123.5t131.5 -32.5q42 0 90.5 11t98.5 29.5t96.5 40 t83.5 44.5v253h-319q-99 0 -158 -45.5t-59 -176.5zM300 1324q0 37 17 63t74 26q56 0 72.5 -25t16.5 -64t-16.5 -67t-72.5 -28q-60 0 -75.5 29t-15.5 66zM699 1324q0 37 17.5 63t71.5 26q56 0 73.5 -25t17.5 -64t-17 -67t-74 -28q-59 0 -74 29t-15 66z"/>
<glyph unicode="å" horiz-adv-x="1115" d="M95 282q0 184 93.5 274.5t310.5 90.5h300v74q0 120 -55.5 165.5t-198.5 45.5q-31 0 -68.5 -1t-79 -5t-83 -7t-76.5 -7q-37 -7 -43 20l-13 56q-4 15 3.5 26t31.5 22q33 10 78.5 19t95.5 14.5t98.5 7.5t88.5 2q130 0 207 -28t117 -78.5t51 -122t11 -158.5v-479 q0 -33 3 -50.5t11 -26t22.5 -11.5t41.5 -5q37 -2 37 -29v-54q0 -15 -9 -25t-34 -14q-40 -6 -77 -6q-76 0 -111.5 28t-46.5 98h-4q-80 -48 -179.5 -91.5t-228.5 -43.5q-159 0 -226.5 76t-67.5 223zM263 288q0 -91 35.5 -123.5t131.5 -32.5q42 0 90.5 11t98.5 29.5t96.5 40 t83.5 44.5v253h-319q-99 0 -158 -45.5t-59 -176.5zM358 1338q0 45 18.5 84t48 66.5t68.5 43.5t83 16q45 0 82.5 -17.5t67.5 -46t46 -67.5t16 -79q0 -44 -16 -82t-46 -66t-67.5 -45.5t-82.5 -17.5q-44 0 -83 16.5t-68.5 43.5t-48 66t-18.5 85zM471 1338q0 -48 28.5 -80 t76.5 -32q45 0 75.5 32t30.5 80q0 43 -30.5 76.5t-75.5 33.5q-44 0 -74.5 -33.5t-30.5 -76.5z"/>
<glyph unicode="æ" horiz-adv-x="1732" d="M95 282q0 170 93.5 251.5t310.5 81.5h300v106q0 120 -55.5 165.5t-198.5 45.5q-31 0 -68.5 -1t-79 -5t-83 -7t-76.5 -7q-41 -7 -43 20l-13 56q-2 15 4.5 26t30.5 22q33 10 78.5 19t95.5 14.5t98.5 7.5t88.5 2q141 0 220 -33t116 -89q50 54 129.5 88t200.5 34 q139 0 225.5 -41.5t136 -108.5t67.5 -154t22 -176q2 -52 -16 -87.5t-79 -35.5h-623q2 -98 14 -164.5t43.5 -106.5t83.5 -56.5t133 -16.5q33 0 77 3.5t89.5 6.5t86.5 7.5t70 9.5q21 2 33.5 -2.5t16.5 -26.5l8 -47q7 -31 -23 -44q-31 -13 -77.5 -24t-96.5 -18.5t-101 -11.5 t-90 -4q-149 0 -237.5 44.5t-134.5 119.5q-14 -13 -31.5 -25t-37.5 -22q-80 -46 -180.5 -80.5t-233.5 -34.5q-159 0 -226.5 76t-67.5 223zM263 288q0 -91 36 -123.5t131 -32.5q40 0 91.5 14.5t106 34.5t105 44.5t90.5 45.5q-15 57 -19.5 99t-4.5 106h-319q-99 0 -158 -39 t-59 -149zM977 613h536q-5 56 -13.5 113t-36.5 102.5t-80.5 74.5t-141.5 29q-80 0 -130 -23t-78 -64.5t-39.5 -100t-16.5 -131.5z"/>
<glyph unicode="ç" horiz-adv-x="922" d="M98 536q0 104 14 201.5t60.5 174t132.5 122t229 45.5q33 0 76 -2t87.5 -7.5t88 -15.5t78.5 -25q17 -6 20.5 -19.5t1.5 -25.5l-9 -50q-5 -17 -20.5 -22t-36.5 -3q-66 7 -148 15t-140 8q-74 0 -124 -21t-79 -66.5t-42.5 -120.5t-13.5 -186q0 -119 13.5 -197t43.5 -124.5 t80 -66.5t122 -20q27 0 64.5 2.5t77.5 5.5t81.5 6t73.5 8q19 2 31 -2.5t17 -25.5l9 -46q7 -30 -24 -45q-56 -27 -142 -37.5t-167 -12.5l-27 -78q60 -3 98 -15t60 -31.5t30.5 -44.5t8.5 -52q0 -87 -60 -128.5t-166 -41.5q-28 0 -73 5t-78 16q-20 9 -16 24l11 42q2 6 6.5 9.5 t17.5 0.5q30 -4 64.5 -7t59.5 -3q45 0 79.5 13t34.5 65q0 42 -29 54.5t-110 16.5q-45 5 -27 48l39 109q-124 9 -199.5 55.5t-114 120t-51.5 170t-13 205.5z"/>
<glyph unicode="è" horiz-adv-x="1061" d="M100 528q0 78 13 174.5t58.5 180t132.5 140t237 56.5q138 0 223 -41.5t131.5 -108.5t63 -154t20.5 -176q3 -52 -16 -87.5t-79 -35.5h-613q2 -98 17.5 -164.5t50 -106.5t88 -56.5t128.5 -16.5q33 0 74.5 3.5t83 6.5t79 7.5t66.5 9.5q21 2 33 -2.5t16 -26.5l9 -47 q6 -31 -23 -44q-31 -13 -74.5 -24t-91.5 -18.5t-95.5 -11.5t-86.5 -4q-150 0 -238 46.5t-133.5 122.5t-59.5 174.5t-14 203.5zM271 613h532q0 56 -10 113t-38 102.5t-80 74.5t-139 29q-72 0 -120.5 -23t-79 -64.5t-45.5 -100t-20 -131.5zM313 1488.5q-2 9.5 12 15.5l100 44 q29 12 37 -7l153 -310q10 -25 -8 -30l-62 -29q-21 -8 -33 7l-193 293q-4 7 -6 16.5z"/>
<glyph unicode="é" horiz-adv-x="1061" d="M100 528q0 78 13 174.5t58.5 180t132.5 140t237 56.5q138 0 223 -41.5t131.5 -108.5t63 -154t20.5 -176q3 -52 -16 -87.5t-79 -35.5h-613q2 -98 17.5 -164.5t50 -106.5t88 -56.5t128.5 -16.5q33 0 74.5 3.5t83 6.5t79 7.5t66.5 9.5q21 2 33 -2.5t16 -26.5l9 -47 q6 -31 -23 -44q-31 -13 -74.5 -24t-91.5 -18.5t-95.5 -11.5t-86.5 -4q-150 0 -238 46.5t-133.5 122.5t-59.5 174.5t-14 203.5zM271 613h532q0 56 -10 113t-38 102.5t-80 74.5t-139 29q-72 0 -120.5 -23t-79 -64.5t-45.5 -100t-20 -131.5zM514 1231l153 310q8 19 37 7l99 -44 q15 -6 13 -15.5t-6 -16.5l-193 -287q-11 -15 -33 -6l-62 22q-17 6 -8 30z"/>
<glyph unicode="ê" horiz-adv-x="1061" d="M100 528q0 78 13 174.5t58.5 180t132.5 140t237 56.5q138 0 223 -41.5t131.5 -108.5t63 -154t20.5 -176q3 -52 -16 -87.5t-79 -35.5h-613q2 -98 17.5 -164.5t50 -106.5t88 -56.5t128.5 -16.5q33 0 74.5 3.5t83 6.5t79 7.5t66.5 9.5q21 2 33 -2.5t16 -26.5l9 -47 q6 -31 -23 -44q-31 -13 -74.5 -24t-91.5 -18.5t-95.5 -11.5t-86.5 -4q-150 0 -238 46.5t-133.5 122.5t-59.5 174.5t-14 203.5zM234 1216q-15 10 0 28l205 258q10 15 22 19.5t36 4.5h102q31 0 42.5 -5t20.5 -17l200 -257q17 -22 2 -35l-46 -35q-21 -17 -35 -3l-236 233 l-228 -228q-11 -13 -20 -13t-19 11zM271 613h532q0 56 -10 113t-38 102.5t-80 74.5t-139 29q-72 0 -120.5 -23t-79 -64.5t-45.5 -100t-20 -131.5z"/>
<glyph unicode="ë" horiz-adv-x="1061" d="M100 528q0 78 13 174.5t58.5 180t132.5 140t237 56.5q138 0 223 -41.5t131.5 -108.5t63 -154t20.5 -176q3 -52 -16 -87.5t-79 -35.5h-613q2 -98 17.5 -164.5t50 -106.5t88 -56.5t128.5 -16.5q33 0 74.5 3.5t83 6.5t79 7.5t66.5 9.5q21 2 33 -2.5t16 -26.5l9 -47 q6 -31 -23 -44q-31 -13 -74.5 -24t-91.5 -18.5t-95.5 -11.5t-86.5 -4q-150 0 -238 46.5t-133.5 122.5t-59.5 174.5t-14 203.5zM261 1324q0 37 17.5 63t73.5 26t72.5 -25t16.5 -64t-16.5 -67t-72.5 -28q-60 0 -75.5 29t-15.5 66zM271 613h532q0 56 -10 113t-38 102.5 t-80 74.5t-139 29q-72 0 -120.5 -23t-79 -64.5t-45.5 -100t-20 -131.5zM660 1324q0 37 17 63t72 26q57 0 74.5 -25t17.5 -64t-17.5 -67t-74.5 -28q-58 0 -73.5 29t-15.5 66z"/>
<glyph unicode="ì" horiz-adv-x="483" d="M-21.5 1488.5q-2.5 9.5 13.5 15.5l99 44q29 12 37 -7l152 -310q10 -25 -7 -30l-62 -29q-21 -8 -33 7l-193 293q-4 7 -6.5 16.5zM161 37v984q0 24 9.5 30t28.5 6h89q35 0 35 -36v-984q0 -37 -35 -37h-89q-39 0 -38 37z"/>
<glyph unicode="í" horiz-adv-x="433" d="M161 37v984q0 24 9.5 30t28.5 6h89q35 0 35 -36v-984q0 -37 -35 -37h-89q-39 0 -38 37zM201 1231l153 310q9 19 37 7l100 -44q15 -6 12.5 -15.5t-6.5 -16.5l-193 -287q-10 -15 -33 -6l-62 22q-17 6 -8 30z"/>
<glyph unicode="î" horiz-adv-x="626" d="M0 1216q-15 10 0 28l205 258q10 15 21.5 19.5t36.5 4.5h102q30 0 42 -5t20 -17l201 -257q16 -22 2 -35l-46 -35q-21 -17 -35 -3l-236 233l-228 -228q-11 -13 -20 -13t-19 11zM234 37v984q0 24 10 30t29 6h90q35 0 35 -36v-984q0 -37 -35 -37h-90q-39 0 -39 37z"/>
<glyph unicode="ï" horiz-adv-x="557" d="M-11 1324q0 37 17.5 63t74.5 26q56 0 72.5 -25t16.5 -64t-16.5 -67t-72.5 -28q-61 0 -76.5 29t-15.5 66zM197 37v984q0 24 10 30t29 6h89q35 0 35 -36v-984q0 -37 -35 -37h-89q-39 0 -39 37zM389 1324q0 37 17 63t72 26q56 0 73.5 -25t17.5 -64t-17.5 -67t-73.5 -28 q-58 0 -73.5 29t-15.5 66z"/>
<glyph unicode="ð" horiz-adv-x="1091" d="M95 506q0 80 17.5 169t66.5 165t137 125.5t227 49.5q95 0 172.5 -33t117.5 -87l5 2q0 37 -3.5 84.5t-11 96.5t-21.5 94.5t-36 80.5l-111 -111q-19 -19 -36 0l-50 43q-15 13 -13 21t11 18l110 114q-37 26 -90 34.5t-111 8.5q-39 0 -79.5 -4.5t-77.5 -9.5q-26 -2 -31 21 l-10 62q-2 13 2 22t22 15q65 29 136.5 34t114.5 5q72 0 136.5 -18.5t107.5 -48.5l106 105q11 8 17 10t22 -10l52 -48q19 -15 -2 -37l-108 -109q44 -61 67.5 -142.5t35.5 -169.5t14 -174.5t2 -160.5q0 -161 -16.5 -297t-67.5 -234.5t-144 -153.5t-247 -55q-152 0 -237.5 53 t-129 131t-55 169t-11.5 170zM263 491q0 -72 8.5 -136.5t37.5 -113t83.5 -76.5t145.5 -28q90 0 145 29t85.5 78t40 113t9.5 136q0 78 -8.5 146.5t-38 118.5t-83.5 79t-143 29q-85 0 -139 -26t-86 -73.5t-44.5 -118t-12.5 -157.5z"/>
<glyph unicode="ñ" horiz-adv-x="1096" d="M116 37v984q0 37 33 36h89q20 0 30 -6.5t10 -29.5v-79l6 -2q27 17 68 41t92 45.5t107 37t116 15.5q106 0 168 -30t94 -83.5t42.5 -127.5t10.5 -161v-640q0 -37 -40 -37h-91q-37 0 -37 37l2 642q0 75 -8.5 123.5t-29 76.5t-54.5 39.5t-84 11.5q-39 0 -91 -15.5t-104 -35 t-97.5 -40.5t-69.5 -33v-769q0 -37 -40 -37h-89q-35 0 -33 37zM180 1252.5q0 11.5 4 19.5q38 100 97.5 139t109.5 39q41 0 84 -17.5t85.5 -39t82 -38.5t71.5 -17q38 0 60.5 19t45.5 60q5 9 13 15.5t25 0.5l45 -16q15 -4 14 -15.5t-3 -18.5q-59 -187 -200 -187 q-37 0 -80.5 18.5t-88 39t-85.5 39t-73 18.5q-17 0 -48 -13t-66 -69q-4 -11 -11.5 -14t-25.5 5l-43 17q-13 4 -13 15.5z"/>
<glyph unicode="ò" horiz-adv-x="1091" d="M100 547q0 78 13 171.5t57.5 174t131.5 133.5t236 53q150 0 240 -46.5t138 -122t62 -171t14 -192.5q0 -95 -11 -195t-55.5 -182.5t-135.5 -134.5t-252 -52q-155 0 -243 52t-131.5 133.5t-53.5 182.5t-10 196zM267 532q0 -100 10.5 -174t41.5 -124t83 -74.5t136 -24.5 q90 0 145 23.5t86.5 72.5t42.5 124t11 177q0 100 -11 174.5t-42.5 123.5t-86.5 74.5t-145 25.5q-84 0 -136 -25.5t-83 -75.5t-41.5 -123.5t-10.5 -173.5zM313 1488.5q-2 9.5 12 15.5l100 44q29 12 37 -7l153 -310q10 -25 -8 -30l-62 -29q-21 -8 -33 7l-193 293q-4 7 -6 16.5 z"/>
<glyph unicode="ó" horiz-adv-x="1091" d="M100 547q0 78 13 171.5t57.5 174t131.5 133.5t236 53q150 0 240 -46.5t138 -122t62 -171t14 -192.5q0 -95 -11 -195t-55.5 -182.5t-135.5 -134.5t-252 -52q-155 0 -243 52t-131.5 133.5t-53.5 182.5t-10 196zM267 532q0 -100 10.5 -174t41.5 -124t83 -74.5t136 -24.5 q90 0 145 23.5t86.5 72.5t42.5 124t11 177q0 100 -11 174.5t-42.5 123.5t-86.5 74.5t-145 25.5q-84 0 -136 -25.5t-83 -75.5t-41.5 -123.5t-10.5 -173.5zM495 1231l152 310q8 19 37 7l99 -44q15 -6 13.5 -15.5t-6.5 -16.5l-193 -287q-11 -15 -33 -6l-63 22q-17 6 -6 30z"/>
<glyph unicode="ô" horiz-adv-x="1091" d="M100 547q0 78 13 171.5t57.5 174t131.5 133.5t236 53q150 0 240 -46.5t138 -122t62 -171t14 -192.5q0 -95 -11 -195t-55.5 -182.5t-135.5 -134.5t-252 -52q-155 0 -243 52t-131.5 133.5t-53.5 182.5t-10 196zM236 1216q-14 10 0 28l205 258q11 15 23 19.5t35 4.5h102 q31 0 42.5 -5t21.5 -17l199 -257q17 -22 2 -35l-46 -35q-21 -17 -35 -3l-236 233l-228 -228q-10 -13 -19 -13t-20 11zM267 532q0 -100 10.5 -174t41.5 -124t83 -74.5t136 -24.5q90 0 145 23.5t86.5 72.5t42.5 124t11 177q0 100 -11 174.5t-42.5 123.5t-86.5 74.5t-145 25.5 q-84 0 -136 -25.5t-83 -75.5t-41.5 -123.5t-10.5 -173.5z"/>
<glyph unicode="õ" horiz-adv-x="1091" d="M100 547q0 78 13 171.5t57.5 174t131.5 133.5t236 53q150 0 240 -46.5t138 -122t62 -171t14 -192.5q0 -95 -11 -195t-55.5 -182.5t-135.5 -134.5t-252 -52q-155 0 -243 52t-131.5 133.5t-53.5 182.5t-10 196zM189 1252.5q0 11.5 4 19.5q37 100 97 139t110 39 q41 0 84.5 -17.5t86 -39t81 -38.5t71.5 -17q37 0 60 19t46 60q4 9 12 15.5t25 0.5l46 -16q14 -4 13 -15.5t-3 -18.5q-58 -187 -199 -187q-37 0 -80.5 18.5t-88 39t-86 39t-73.5 18.5q-17 0 -47.5 -13t-65.5 -69q-4 -11 -11.5 -14t-25.5 5l-44 17q-12 4 -12 15.5zM267 532 q0 -100 10.5 -174t41.5 -124t83 -74.5t136 -24.5q90 0 145 23.5t86.5 72.5t42.5 124t11 177q0 100 -11 174.5t-42.5 123.5t-86.5 74.5t-145 25.5q-84 0 -136 -25.5t-83 -75.5t-41.5 -123.5t-10.5 -173.5z"/>
<glyph unicode="ö" horiz-adv-x="1091" d="M100 547q0 78 13 171.5t57.5 174t131.5 133.5t236 53q150 0 240 -46.5t138 -122t62 -171t14 -192.5q0 -95 -11 -195t-55.5 -182.5t-135.5 -134.5t-252 -52q-155 0 -243 52t-131.5 133.5t-53.5 182.5t-10 196zM261 1324q0 37 17.5 63t73.5 26t72.5 -25t16.5 -64t-16.5 -67 t-72.5 -28q-60 0 -75.5 29t-15.5 66zM267 532q0 -100 10.5 -174t41.5 -124t83 -74.5t136 -24.5q90 0 145 23.5t86.5 72.5t42.5 124t11 177q0 100 -11 174.5t-42.5 123.5t-86.5 74.5t-145 25.5q-84 0 -136 -25.5t-83 -75.5t-41.5 -123.5t-10.5 -173.5zM660 1324q0 37 17 63 t72 26q57 0 74.5 -25t17.5 -64t-17.5 -67t-74.5 -28q-58 0 -73.5 29t-15.5 66z"/>
<glyph unicode="÷" d="M180 669v78q0 29 31 28h785q31 0 31 -28v-78q0 -27 -31 -27h-785q-13 0 -22 4.5t-9 22.5zM501 379q0 44 18.5 72.5t79.5 28.5q62 0 81 -27.5t19 -73.5q0 -43 -18.5 -73t-81.5 -30q-65 0 -81.5 31t-16.5 72zM501 1025q0 43 18.5 70.5t79.5 27.5q62 0 81 -27.5t19 -70.5 t-18.5 -74t-81.5 -31q-65 0 -81.5 31t-16.5 74z"/>
<glyph unicode="ø" horiz-adv-x="1091" d="M100 547q0 78 13 171.5t57.5 174t131.5 133.5t236 53q102 0 173.5 -21.5t121.5 -58.5l66 89q6 10 15.5 18t21.5 -1l48 -34q21 -15 4 -37l-81 -112q52 -76 68.5 -174.5t16.5 -200.5q0 -95 -11 -195t-55.5 -182.5t-135.5 -134.5t-252 -52q-89 0 -154 17t-113 48l-49 -67 q-7 -11 -15 -19t-23 3l-47 33q-13 10 -12 18t10 19l60 83q-33 41 -52 93t-29 107t-12 114t-2 115zM267 532q0 -85 7.5 -151t27.5 -116l436 603q-33 31 -82 46.5t-118 15.5q-84 0 -136 -25.5t-83 -75.5t-41.5 -123.5t-10.5 -173.5zM367 180q58 -45 171 -45q90 0 145 23.5 t86.5 72.5t42.5 124t11 177q0 74 -5.5 132.5t-20.5 106.5z"/>
<glyph unicode="ù" horiz-adv-x="1110" d="M122 379v642q0 37 37 36h93q35 0 34 -36v-644q0 -76 9 -123t30 -76t55 -39.5t84 -10.5q40 0 91.5 15.5t104 34.5t98 41t71.5 35v767q0 37 37 36h89q37 0 37 -36v-984q0 -37 -37 -37h-89q-39 0 -39 37v75l-4 6q-27 -17 -69 -41.5t-91.5 -46.5t-106.5 -36.5t-115 -14.5 q-106 0 -169 30t-97 83t-43.5 127t-9.5 160zM356 1488.5q-2 9.5 13 15.5l100 44q28 12 37 -7l152 -310q11 -25 -7 -30l-63 -29q-21 -8 -33 7l-192 293q-5 7 -7 16.5z"/>
<glyph unicode="ú" horiz-adv-x="1110" d="M122 379v642q0 37 37 36h93q35 0 34 -36v-644q0 -76 9 -123t30 -76t55 -39.5t84 -10.5q40 0 91.5 15.5t104 34.5t98 41t71.5 35v767q0 37 37 36h89q37 0 37 -36v-984q0 -37 -37 -37h-89q-39 0 -39 37v75l-4 6q-27 -17 -69 -41.5t-91.5 -46.5t-106.5 -36.5t-115 -14.5 q-106 0 -169 30t-97 83t-43.5 127t-9.5 160zM510 1231l152 310q9 19 37 7l100 -44q15 -6 13 -15.5t-6 -16.5l-193 -287q-11 -15 -33 -6l-64 22q-17 6 -6 30z"/>
<glyph unicode="û" horiz-adv-x="1110" d="M122 379v642q0 37 37 36h93q35 0 34 -36v-644q0 -76 9 -123t30 -76t55 -39.5t84 -10.5q40 0 91.5 15.5t104 34.5t98 41t71.5 35v767q0 37 37 36h89q37 0 37 -36v-984q0 -37 -37 -37h-89q-39 0 -39 37v75l-4 6q-27 -17 -69 -41.5t-91.5 -46.5t-106.5 -36.5t-115 -14.5 q-106 0 -169 30t-97 83t-43.5 127t-9.5 160zM245 1216q-15 10 0 28l204 258q11 15 23 19.5t36 4.5h102q30 0 42.5 -5t20.5 -17l199 -257q17 -22 2 -35l-45 -35q-21 -17 -34 -3l-237 233l-228 -228q-11 -13 -19.5 -13t-20.5 11z"/>
<glyph unicode="ü" horiz-adv-x="1110" d="M122 379v642q0 37 37 36h93q35 0 34 -36v-644q0 -76 9 -123t30 -76t55 -39.5t84 -10.5q40 0 91.5 15.5t104 34.5t98 41t71.5 35v767q0 37 37 36h89q37 0 37 -36v-984q0 -37 -37 -37h-89q-39 0 -39 37v75l-4 6q-27 -17 -69 -41.5t-91.5 -46.5t-106.5 -36.5t-115 -14.5 q-106 0 -169 30t-97 83t-43.5 127t-9.5 160zM284 1324q0 37 17.5 63t73.5 26t72.5 -25t16.5 -64t-16 -67t-73 -28q-60 0 -75.5 29t-15.5 66zM684 1324q0 37 17.5 63t71.5 26q56 0 73.5 -25t17.5 -64t-17.5 -67t-73.5 -28q-59 0 -74 29t-15 66z"/>
<glyph unicode="ý" horiz-adv-x="1011" d="M53 1046.5q3 10.5 19 10.5h115q17 0 23.5 -7.5t11.5 -22.5l178 -497l116 -333q4 13 25 68.5t43 118.5q24 72 54 161l165 484q9 29 35 28h117q27 0 15 -32l-497 -1377q-4 -15 -12.5 -22.5t-30.5 -7.5h-100q-31 0 -19 34l126 348l-383 1023q-4 13 -1 23.5zM449 1231 l152 310q9 19 37 7l100 -44q15 -6 13 -15.5t-7 -16.5l-193 -287q-10 -15 -33 -6l-62 22q-17 6 -7 30z"/>
<glyph unicode="þ" horiz-adv-x="1096" d="M135 -341v1743q0 37 37 37h89q37 0 37 -37v-460l6 -4q25 15 64.5 39t89.5 45.5t105.5 38t109.5 16.5q102 0 170.5 -36t108.5 -104.5t57.5 -168t17.5 -230.5q0 -134 -19.5 -238.5t-68.5 -175t-130.5 -107t-207.5 -36.5q-60 0 -136 12.5t-163 47.5l-2 -2v-380 q0 -22 -8 -31.5t-31 -9.5h-89q-25 0 -31 8.5t-6 32.5zM300 178q91 -26 167 -37t146 -11t116 21t74 69.5t40 127.5t12 197q0 124 -12 198.5t-37 116t-61.5 54t-86.5 12.5q-39 0 -90.5 -12.5t-101 -32t-94 -41.5t-72.5 -37v-625z"/>
<glyph unicode="ÿ" horiz-adv-x="1011" d="M53 1046.5q3 10.5 19 10.5h115q17 0 23.5 -7.5t11.5 -22.5l178 -497l116 -333q4 13 25 68.5t43 118.5q24 72 54 161l165 484q9 29 35 28h117q27 0 15 -32l-497 -1377q-4 -15 -12.5 -22.5t-30.5 -7.5h-100q-31 0 -19 34l126 348l-383 1023q-4 13 -1 23.5zM228 1324 q0 37 17.5 63t73.5 26t72.5 -25t16.5 -64t-16.5 -67t-72.5 -28q-60 0 -75.5 29t-15.5 66zM628 1324q0 37 17 63t72 26q56 0 73.5 -25t17.5 -64t-17.5 -67t-73.5 -28q-59 0 -74 29t-15 66z"/>
<glyph unicode="ı" horiz-adv-x="483" d="M161 37v984q0 24 9.5 30t28.5 6h89q35 0 35 -36v-984q0 -37 -35 -37h-89q-39 0 -38 37z"/>
<glyph unicode="Œ" horiz-adv-x="1703" d="M91 740q0 67 6.5 146.5t26 159t56.5 154t99 131.5t150.5 91t212.5 34q50 0 92.5 -4t79.5 -13h742q37 0 37 -35v-84q0 -37 -39 -37l-616 2v-460h553q38 0 38 -35v-84q0 -35 -38 -35h-553v-515l634 -2q35 0 35 -36v-83q0 -21 -9 -28t-28 -7h-747q-83 -19 -181 -19 q-126 0 -217 32.5t-151.5 87.5t-96.5 130t-55.5 160t-25 173.5t-5.5 175.5zM265 719q0 -133 17.5 -240.5t61 -184.5t116 -119.5t182.5 -42.5q75 0 126 15v1147q-28 7 -59.5 11t-66.5 4q-108 0 -180.5 -41.5t-116 -118t-62 -185.5t-18.5 -245z"/>
<glyph unicode="œ" horiz-adv-x="1803" d="M100 547q0 78 13 171.5t57.5 174t131.5 133.5t236 53q152 0 242 -47.5t138 -124.5q48 67 131.5 109.5t220.5 42.5q139 0 226 -41t135.5 -108t66 -154t21.5 -176q5 -52 -14 -87t-79 -35h-623q2 -100 14 -166t43.5 -106.5t83.5 -57t132 -16.5q33 0 77.5 4t89 7t86 7.5 t71.5 8.5q21 2 33 -2.5t16 -26.5l10 -45q6 -33 -27 -46q-30 -13 -76 -23.5t-95.5 -17.5t-100.5 -11t-90 -4q-150 0 -238 44.5t-133 120.5q-50 -64 -135 -104.5t-226 -40.5q-155 0 -243 52t-131.5 133.5t-53.5 182.5t-10 196zM267 532q0 -100 10.5 -174t41.5 -124t83 -74.5 t136 -24.5q90 0 145 23.5t86.5 72.5t42.5 124t11 177q0 100 -11 174.5t-42.5 123.5t-86.5 74.5t-145 25.5q-84 0 -136 -25.5t-83 -75.5t-41.5 -123.5t-10.5 -173.5zM1003 593h534q-2 56 -11.5 113.5t-37 103t-80.5 74t-140 28.5q-81 0 -130.5 -23t-78 -64.5t-40.5 -99.5 t-16 -132z"/>
<glyph unicode="Ÿ" horiz-adv-x="1100" d="M37 1409q-4 10 0 19t17 9h128q19 0 27 -6.5t15 -19.5l201 -380l120 -223h13l128 232l202 371q9 15 17.5 20.5t28.5 5.5h112q35 0 20 -33l-432 -762v-605q0 -37 -35 -37h-91q-39 0 -39 37v605zM271 1645q0 37 16.5 63t72.5 26q57 0 73 -24t16 -65q0 -39 -16 -66t-73 -27 q-60 0 -74.5 28.5t-14.5 64.5zM644 1645q0 37 16.5 63t73.5 26q56 0 72.5 -24t16.5 -65q0 -39 -16.5 -66t-72.5 -27q-61 0 -75.5 28.5t-14.5 64.5z"/>
<glyph unicode="ƒ" d="M98 -87l10 44q6 19 18.5 24.5t34.5 1.5q19 -4 51.5 -6.5t56.5 -2.5q50 0 80 18.5t49 51t30 80.5t19 106l81 499h-155q-39 0 -39 37v65q0 21 7 31t28 10h176l41 244q9 48 23 109.5t48.5 116t95.5 91t163 36.5q48 0 96.5 -8.5t85.5 -25.5q19 -12 9 -41l-13 -48 q-9 -19 -21 -25t-33 -1q-6 0 -21.5 2t-32 4t-30.5 3t-20 1q-56 0 -89 -16t-52.5 -47.5t-29 -76t-18.5 -98.5l-35 -220h178q42 0 42 -34v-72q0 -24 -8 -30.5t-29 -6.5h-205l-91 -582q-6 -47 -26 -101t-54.5 -101t-89 -77.5t-131.5 -30.5q-48 0 -100.5 9t-89.5 26 q-24 10 -10 41z"/>
<glyph unicode="ˆ" horiz-adv-x="1091" d="M226 1216q-15 10 0 28l204 258q11 15 22.5 19.5t36.5 4.5h101q31 0 42.5 -5t20.5 -17l200 -257q17 -22 2 -35l-45 -35q-21 -17 -35 -3l-237 233l-227 -228q-11 -13 -20 -13t-20 11z"/>
<glyph unicode="ˇ" horiz-adv-x="939" d="M167 1444q-14 17 0 28l46 38q11 11 19.5 11.5t19.5 -13.5l228 -228l237 233q12 14 35 -3l45 -33q15 -13 -2 -35l-200 -259q-9 -11 -21 -16t-42 -5h-102q-24 0 -36 4t-23 19z"/>
<glyph unicode="˘" horiz-adv-x="1108" d="M263 1394.5q-6 18.5 4 29.5l46 35q10 8 19 5t18 -12q33 -37 59 -65t54 -46.5t59 -27t71 -8.5q39 0 67 9.5t53 28t51 45.5t59 64q19 19 37 7l45 -30q13 -9 5.5 -28.5t-11.5 -28.5q-50 -104 -135 -154t-176 -50q-93 0 -179 48t-136 151q-4 9 -10 27.5z"/>
<glyph unicode="˙" horiz-adv-x="729" d="M278 1324q0 37 17.5 63t73.5 26t72.5 -25t16.5 -64t-16.5 -67t-72.5 -28q-61 0 -76 29t-15 66z"/>
<glyph unicode="˚" horiz-adv-x="1080" d="M379 1338q0 45 19 84t48.5 66.5t68 43.5t82.5 16q45 0 83.5 -17.5t67.5 -46t45.5 -67.5t16.5 -79q0 -44 -16.5 -82t-45.5 -66t-67.5 -45.5t-83.5 -17.5q-44 0 -82.5 16.5t-68 43.5t-48.5 66t-19 85zM493 1338q0 -48 28 -80t76 -32q45 0 76 32t31 80q0 43 -31 76.5 t-76 33.5q-44 0 -74 -33.5t-30 -76.5z"/>
<glyph unicode="˛" horiz-adv-x="1080" d="M419 -232q0 50 28.5 114t101.5 131h106v-5q-58 -69 -81 -124.5t-23 -98.5q0 -44 23 -64.5t57 -26t73.5 0t76.5 15.5q13 4 16.5 -1t5.5 -9l17 -52q5 -15 -14 -23q-33 -17 -76.5 -27t-71.5 -12q-117 -7 -178 44t-61 138z"/>
<glyph unicode="˜" horiz-adv-x="1096" d="M174 1252.5q0 11.5 4 19.5q37 100 96.5 139t109.5 39q41 0 84.5 -17.5t86 -39t81.5 -38.5t72 -17q37 0 59.5 19t46.5 60q4 9 11.5 15.5t25.5 0.5l46 -16q15 -4 13.5 -15.5t-3.5 -18.5q-58 -187 -199 -187q-37 0 -80.5 18.5t-88 39t-86 39t-74.5 18.5q-16 0 -46.5 -13 t-65.5 -69q-4 -11 -12 -14t-25 5l-43 17q-13 4 -13 15.5z"/>
<glyph unicode="˝" horiz-adv-x="1091" d="M336 1231l151 310q10 19 37 7l101 -44q13 -6 12 -15.5t-5 -16.5l-195 -287q-9 -15 -31 -6l-63 22q-19 6 -7 30zM610 1231l150 310q11 19 37 7l102 -44q13 -6 11.5 -15.5t-5.5 -16.5l-195 -287q-8 -15 -31 -6l-62 22q-19 6 -7 30z"/>
<glyph unicode="Ω" horiz-adv-x="1415" d="M87 37v83q0 35 37 34h187q-57 41 -92 106t-56.5 146t-29 168.5t-7.5 172.5q0 122 25 247.5t90 228.5t178 168t289 65t289 -62t177.5 -161.5t88.5 -227.5t24 -258q0 -87 -8.5 -172.5t-30.5 -164t-59 -145t-91 -111.5h178q39 0 39 -34v-83q0 -37 -37 -37h-431q-35 0 -35 35 v102q0 26 31 37q153 52 214 200t61 362q0 108 -17.5 211t-63 184t-125 129.5t-202.5 48.5q-115 0 -194 -42.5t-127 -118t-68.5 -180t-20.5 -228.5q0 -230 61.5 -374t198.5 -192q19 -7 26 -14.5t7 -22.5v-102q0 -35 -38 -35h-433q-35 0 -35 37z"/>
<glyph unicode="π" horiz-adv-x="1106" d="M120 37v984q0 37 36 36h795q19 0 28 -7.5t9 -30.5v-982q0 -37 -39 -37h-91q-35 0 -35 37v872h-541v-872q0 -37 -37 -37h-89q-37 0 -36 37z"/>
<glyph unicode="Ё" horiz-adv-x="1096" d="M161 35v1367q0 37 38 37h750q37 0 37 -35v-84q0 -37 -39 -37h-617v-458h554q37 0 36 -35v-84q0 -35 -36 -35h-554v-517h634q35 0 35 -36v-83q0 -21 -8.5 -28t-29.5 -7h-762q-39 0 -38 35zM293 1645q0 37 16 63t73 26q56 0 72.5 -24t16.5 -65q0 -39 -16 -66t-73 -27 q-61 0 -75 28.5t-14 64.5zM667 1645q0 37 16 63t73 26q56 0 72.5 -24t16.5 -65q0 -39 -16.5 -66t-72.5 -27q-61 0 -75 28.5t-14 64.5z"/>
<glyph unicode="Ђ" horiz-adv-x="1545" d="M37 1320v84q0 35 37 35h1084q37 0 36 -35v-84q0 -37 -39 -37h-550v-423q235 126 410 126q191 0 298.5 -124t107.5 -354q0 -154 -37.5 -297.5t-142.5 -270.5q-17 -22 -44 -47t-59.5 -50t-69.5 -48t-72 -36q-28 -10 -34.5 -6t-17.5 23l-24 48q-15 29 14 41 q180 111 250.5 273t70.5 386q0 169 -72.5 241.5t-186.5 72.5q-87 0 -188.5 -36t-202.5 -98v-667q0 -37 -34 -37h-93q-39 0 -39 37v1246h-363q-39 0 -39 37z"/>
<glyph unicode="Ѓ" horiz-adv-x="984" d="M165 37v1367q0 35 40 35h737q37 0 37 -35v-84q0 -37 -39 -37h-606v-1246q0 -37 -34 -37h-95q-40 0 -40 37zM400 1583q-13 12 8 28l278 206q15 13 35 -11l69 -85q10 -12 2.5 -20t-13.5 -12l-301 -163q-17 -8 -33 7z"/>
<glyph unicode="Є" horiz-adv-x="1141" d="M135 734q0 140 21.5 270.5t82.5 231t168 159.5t279 59q33 0 82.5 -3t106.5 -9.5t111 -18.5t93 -27q21 -8 24.5 -19.5t-1.5 -28.5l-10 -56q-4 -10 -11.5 -20.5t-32.5 -5.5q-78 10 -173.5 20t-195.5 10q-106 0 -174 -38t-109.5 -102t-59 -150t-21.5 -181h540q38 0 38 -35 v-84q0 -35 -38 -35h-542q2 -108 17.5 -205t55 -168.5t111.5 -114t189 -42.5q97 0 194 10t168 21q22 4 29.5 -4.5t12.5 -20.5l10 -60q5 -15 1.5 -26t-26.5 -22q-44 -17 -98.5 -28t-108.5 -17.5t-101.5 -8.5t-80.5 -2q-176 0 -284.5 63.5t-167 168t-79 240t-20.5 279.5z"/>
<glyph unicode="Ѕ" horiz-adv-x="1141" d="M106 63q-4 11 0 26l16 60q6 25 37 23q46 -7 100 -12.5t107 -10t99.5 -6.5t79.5 -2q163 0 246 61t83 171q0 74 -13.5 123t-48.5 80t-93.5 49.5t-145.5 34.5q-97 15 -182 38t-148 63t-99 107.5t-36 175.5q0 199 121 303.5t344 104.5q33 0 81 -2t102 -8.5t108 -17.5t97 -28 q25 -8 29 -20.5t0 -27.5l-13 -58q-4 -11 -12 -20t-29 -6q-72 10 -169.5 20t-193.5 10q-84 0 -142 -17.5t-91.5 -49t-47.5 -77t-14 -100.5q0 -64 16.5 -102.5t53 -62t95 -38t143.5 -29.5q93 -17 177 -38.5t145.5 -66t97.5 -119.5t36 -194q0 -118 -39 -198t-107.5 -129 t-158.5 -70.5t-190 -21.5q-46 0 -102 4t-112.5 11.5t-109.5 18.5t-88 26q-25 11 -29 22z"/>
<glyph unicode="І" horiz-adv-x="551" d="M187 37v1363q0 25 10 32t29 7h95q17 0 27 -7.5t10 -31.5v-1363q0 -37 -37 -37h-95q-39 0 -39 37z"/>
<glyph unicode="Ї" horiz-adv-x="551" d="M-2 1645q0 37 16.5 63t72.5 26t72.5 -24t16.5 -65q0 -39 -16.5 -66t-72.5 -27q-61 0 -75 28.5t-14 64.5zM187 37v1363q0 25 10 32t29 7h95q17 0 27 -7.5t10 -31.5v-1363q0 -37 -37 -37h-95q-39 0 -39 37zM371 1645q0 37 16.5 63t72.5 26t72.5 -24t16.5 -65 q0 -39 -16.5 -66t-72.5 -27q-60 0 -74.5 28.5t-14.5 64.5z"/>
<glyph unicode="Ј" horiz-adv-x="907" d="M19 78l16 61q4 15 11.5 20.5t27.5 1.5q48 -6 114 -13t112 -7q76 0 124.5 14.5t77 42.5t39 69t10.5 96v1037q0 25 10 32t29 7h94q19 0 29 -7.5t10 -31.5v-1052q0 -174 -92.5 -270.5t-313.5 -96.5q-70 0 -134.5 9.5t-130.5 35.5q-27 11 -32 22.5t-1 29.5z"/>
<glyph unicode="Љ" horiz-adv-x="1881" d="M11 83q0 17 5 22t25 11q59 10 99 27.5t67 48t42.5 80t26 128t17.5 189t18 264.5l35 547q0 25 9.5 32t28.5 7l656 -2q37 0 37 -37v-555h338q130 0 215 -39.5t134 -101.5t67.5 -137.5t18.5 -149.5q0 -104 -36 -182.5t-96.5 -130.5t-142 -78t-173.5 -26h-455q-40 0 -40 35 v1245h-410l-31 -477q-10 -161 -18.5 -308t-43.5 -261t-113 -181.5t-231 -69.5q-30 0 -38.5 8.5t-8.5 29.5zM1077 152h313q132 0 212 65t80 202q0 54 -11.5 104t-42.5 88t-84 60.5t-135 22.5h-332v-542z"/>
<glyph unicode="Њ" horiz-adv-x="1840" d="M156 37v1363q0 25 10 32t29 7h93q17 0 26 -7.5t9 -31.5v-559h522v559q0 37 39 37h93q37 0 36 -37v-559h329q137 0 222 -38.5t135.5 -99.5t69 -136.5t18.5 -149.5q0 -104 -36 -182.5t-97 -130.5t-142 -78t-172 -26h-456q-39 0 -39 35v649h-522v-647q0 -37 -35 -37h-93 q-39 0 -39 37zM1013 152h313q133 0 213.5 65t80.5 202q0 54 -12.5 103t-42.5 84.5t-83 56.5t-136 21h-333v-532z"/>
<glyph unicode="Ћ" horiz-adv-x="1493" d="M37 1320v84q0 35 37 35h1072q37 0 37 -35v-84q0 -37 -39 -37h-539v-428q27 17 74.5 41t105.5 44.5t121.5 36t127.5 15.5q117 0 187.5 -30t108 -83.5t50 -127.5t12.5 -161v-553q0 -37 -39 -37h-87q-37 0 -37 37v576q0 70 -15.5 112.5t-44.5 67.5t-70.5 35t-91.5 10 t-109.5 -16t-116 -38t-103 -44.5t-73.5 -35.5v-667q0 -37 -34 -37h-93q-39 0 -39 37v1246h-363q-39 0 -39 37z"/>
<glyph unicode="Ќ" horiz-adv-x="1193" d="M152 37v1363q0 25 10 32t29 7h93q17 0 26 -7.5t9 -31.5v-590h234q35 0 73.5 6.5t73 28t66 63t52.5 113.5l118 375q8 24 20 32.5t34 8.5h71q37 0 43 -14t-4 -40l-112 -368q-31 -106 -85 -176.5t-122 -94.5q91 -28 140 -102.5t80 -181.5l122 -406q8 -26 2.5 -40t-42.5 -14 h-82q-22 0 -34 8.5t-20 32.5l-116 391q-21 73 -50 115.5t-63 66.5t-73.5 32.5t-80.5 8.5h-245v-618q0 -37 -35 -37h-93q-39 0 -39 37zM441 1583q-13 12 8 28l278 206q15 13 35 -11l69 -85q11 -12 3.5 -20t-14.5 -12l-302 -163q-17 -8 -31 7z"/>
<glyph unicode="Ў" horiz-adv-x="1160" d="M58 1409q-4 10 0.5 19t17.5 9h129q19 0 26 -6.5t14 -19.5l169 -438l176 -469h7l184 488l161 421q9 15 17.5 20.5t28.5 5.5h106q35 0 20 -32l-441 -1101q-37 -80 -68.5 -141t-67.5 -101t-80.5 -60.5t-104.5 -22.5q-31 0 -64.5 2t-72.5 11q-45 8 -39 47l8 59q5 32 40 30 q58 -2 96 1.5t64 17.5t45.5 39t39.5 69l35 68zM271.5 1692.5q-6.5 18.5 4.5 28.5l45 35q11 9 20 6t17 -12q33 -37 59 -65t54 -46.5t59.5 -27.5t70.5 -9t67 10t53.5 28.5t51.5 45.5t58 64q19 19 37 6l46 -30q12 -9 5 -28.5t-12 -27.5q-49 -104 -134 -154.5t-176 -50.5 q-93 0 -179 48t-136 152q-4 9 -10.5 27.5z"/>
<glyph unicode="Џ" horiz-adv-x="1293" d="M159 39v1363q0 37 38 37h93q35 0 35 -37v-1246h645v1246q0 37 39 37h93q35 0 35 -37v-1363q0 -24 -8.5 -31.5t-26.5 -7.5h-358l-13 -284q-2 -29 -11.5 -37.5t-23.5 -8.5h-89q-17 0 -25.5 5.5t-10.5 34.5l-13 290h-361q-19 0 -28.5 7.5t-9.5 31.5z"/>
<glyph unicode="А" horiz-adv-x="1189" d="M35 35l454 1369q8 33 41 33h121q21 0 29 -9t12 -24l454 -1373q6 -31 -17 -31h-133q-17 0 -24.5 6.5t-12.5 22.5l-106 355h-530l-112 -349q-6 -21 -17.5 -28t-28.5 -7h-113q-31 0 -17 35zM373 538h433l-110 363l-103 352h-7l-102 -346z"/>
<glyph unicode="Б" horiz-adv-x="1152" d="M156 35v1367q0 33 28 35h767q37 0 37 -35v-84q0 -38 -39 -38h-624v-435h337q133 0 217.5 -39.5t133 -101.5t67 -137.5t18.5 -149.5q0 -104 -35.5 -182.5t-96.5 -130.5t-142.5 -78t-172.5 -26h-456q-39 0 -39 35zM325 152h313q133 0 213.5 65t80.5 202q0 54 -12.5 104 t-42.5 88t-83.5 60.5t-135.5 22.5h-333v-542z"/>
<glyph unicode="В" horiz-adv-x="1208" d="M156 37v1365q0 35 39 35h458q211 0 316.5 -102t105.5 -267q0 -34 -8 -77.5t-28 -87t-56 -83t-93 -64.5l3 -2q64 -19 107.5 -62t69.5 -93t37 -104t11 -100q0 -91 -31.5 -163.5t-85.5 -124t-124.5 -79.5t-151.5 -28h-524q-26 0 -35.5 8.5t-9.5 28.5zM323 154h348 q81 0 132.5 20.5t82 56.5t42.5 81.5t12 97.5q0 50 -15.5 97.5t-47.5 84t-83.5 58t-122.5 21.5h-348v-517zM323 823h342q47 0 89.5 18.5t74 48.5t50 72.5t18.5 92.5q0 99 -63 164.5t-202 65.5h-309v-462z"/>
<glyph unicode="Г" horiz-adv-x="984" d="M165 37v1367q0 35 40 35h737q37 0 37 -35v-84q0 -37 -39 -37h-606v-1246q0 -37 -34 -37h-95q-40 0 -40 37z"/>
<glyph unicode="Д" horiz-adv-x="1349" d="M24 98q-2 24 7.5 35.5t28.5 15.5l58 12q39 37 67 77t47.5 90.5t32.5 117t21 155.5l70 793q2 19 11.5 32t40.5 13h754q17 0 25.5 -7.5t8.5 -31.5v-1241l78 -10q24 -4 27.5 -20.5t3.5 -24.5l-22 -382q-3 -28 -9 -36.5t-19 -8.5h-87q-17 0 -22.5 8.5t-8.5 36.5l-12 278h-924 l-12 -278q-2 -28 -9.5 -36.5t-27.5 -8.5h-82q-17 0 -23 8.5t-8 36.5zM321 156h708v1127h-521l-54 -653q-9 -98 -19 -173t-25 -130.5t-36.5 -96.5t-52.5 -74z"/>
<glyph unicode="Е" horiz-adv-x="1096" d="M161 35v1367q0 37 38 37h750q37 0 37 -35v-84q0 -37 -39 -37h-617v-458h554q37 0 36 -35v-84q0 -35 -36 -35h-554v-517h634q35 0 35 -36v-83q0 -21 -8.5 -28t-29.5 -7h-762q-39 0 -38 35z"/>
<glyph unicode="Ж" horiz-adv-x="1829" d="M68 14.5q-5 14.5 4 39.5l121 406q31 106 79.5 181.5t139.5 102.5q-66 24 -121 94.5t-84 176.5l-114 368q-8 27 -3 40.5t42 13.5h75q21 0 33 -9t21 -32l116 -375q22 -72 53.5 -113.5t66.5 -63t72.5 -28t72.5 -6.5h189v590q0 25 10 32t29 7h94q16 0 25.5 -7.5t9.5 -31.5 v-590h188q35 0 73 6.5t72.5 28t66.5 63t53 113.5l118 375q8 24 20 32.5t34 8.5h74q37 0 42.5 -14t-4.5 -40l-112 -368q-31 -106 -85 -176.5t-122 -94.5q91 -28 140.5 -102.5t79.5 -181.5l122 -406q8 -26 2.5 -40t-42.5 -14h-84q-22 0 -34 8.5t-21 32.5l-115 391 q-21 73 -50.5 115.5t-63 66.5t-73 32.5t-80.5 8.5h-199v-618q0 -37 -35 -37h-94q-39 0 -39 37v618h-199q-42 0 -81 -8.5t-72.5 -32.5t-62.5 -67t-51 -115l-115 -391q-8 -24 -20.5 -32.5t-34.5 -8.5h-85q-37 0 -42 14.5z"/>
<glyph unicode="З" horiz-adv-x="1050" d="M8 61q-4 11 0 28l11 56q4 11 12 21t32 6q78 -11 178 -24t200 -13q193 0 276.5 73.5t83.5 203.5q0 146 -89 209t-252 63h-54q-24 0 -29.5 6t-5.5 27v76q0 19 5.5 28.5t29.5 9.5h54q63 0 118.5 11t98 38t66 71.5t23.5 112.5q0 83 -28 130t-70.5 71.5t-93 31t-96.5 6.5 q-24 0 -62.5 -3.5t-83 -8t-91 -10t-85.5 -9.5q-25 -4 -31.5 5.5t-12.5 20.5l-10 55q-4 17 -1 28t25 19q46 17 99 29.5t105 18.5t97.5 9.5t76.5 3.5q240 0 342.5 -95.5t102.5 -280.5q0 -56 -17.5 -107.5t-48 -92t-70.5 -72.5t-86 -47v-4q52 -13 97.5 -41.5t79.5 -72 t54.5 -104t20.5 -138.5q0 -104 -39 -183.5t-109.5 -133.5t-167 -81t-211.5 -27q-35 0 -90.5 3t-115 10.5t-117 18.5t-96.5 28q-21 9 -25 20z"/>
<glyph unicode="И" horiz-adv-x="1365" d="M156 35v1365q0 25 9 32t26 7h89q19 0 29 -7.5t10 -31.5v-1104h6l181 284l523 824q11 15 20.5 25t33.5 10h89q35 0 35 -32v-1370q0 -37 -39 -37h-89q-37 0 -37 37v1118h-6l-146 -237l-560 -883q-11 -17 -21.5 -26t-35.5 -9h-82q-35 0 -35 35z"/>
<glyph unicode="Й" horiz-adv-x="1365" d="M156 35v1365q0 25 9 32t26 7h89q19 0 29 -7.5t10 -31.5v-1104h6l181 284l523 824q11 15 20.5 25t33.5 10h89q35 0 35 -32v-1370q0 -37 -39 -37h-89q-37 0 -37 37v1118h-6l-146 -237l-560 -883q-11 -17 -21.5 -26t-35.5 -9h-82q-35 0 -35 35zM343 1692.5q-7 18.5 5 28.5 l45 35q11 9 19.5 6t17.5 -12q33 -37 58.5 -65t54 -46.5t60 -27.5t70.5 -9t67 10t53 28.5t51 45.5t59 64q19 19 37 6l46 -30q13 -9 5.5 -28.5t-12.5 -27.5q-49 -104 -134 -154.5t-176 -50.5q-93 0 -179 48t-136 152q-4 9 -11 27.5z"/>
<glyph unicode="К" horiz-adv-x="1193" d="M152 37v1363q0 25 10 32t29 7h93q17 0 26 -7.5t9 -31.5v-590h234q35 0 73.5 6.5t73 28t66 63t52.5 113.5l118 375q8 24 20 32.5t34 8.5h71q37 0 43 -14t-4 -40l-112 -368q-31 -106 -85 -176.5t-122 -94.5q91 -28 140 -102.5t80 -181.5l122 -406q8 -26 2.5 -40t-42.5 -14 h-82q-22 0 -34 8.5t-20 32.5l-116 391q-21 73 -50 115.5t-63 66.5t-73.5 32.5t-80.5 8.5h-245v-618q0 -37 -35 -37h-93q-39 0 -39 37z"/>
<glyph unicode="Л" horiz-adv-x="1272" d="M11 83q0 17 5 22t25 11q59 10 99 27.5t67 48t42.5 80t26 128t17.5 189t18 264.5l35 547q0 25 9.5 32t28.5 7h701q17 0 26 -7.5t9 -31.5v-1363q0 -37 -35 -37h-93q-39 0 -39 37v1246h-456l-31 -480q-10 -161 -18.5 -308t-43.5 -261t-113 -181.5t-231 -69.5 q-30 0 -38.5 8.5t-8.5 29.5z"/>
<glyph unicode="М" horiz-adv-x="1603" d="M161 37v1370q0 32 32 32h95q22 0 31 -7.5t17 -24.5l360 -749l105 -226h5l106 235l360 737q11 17 21 26t33 9h87q33 0 33 -32v-1370q0 -37 -37 -37h-94q-39 0 -39 37v1029h-6l-76 -167l-317 -647q-13 -28 -44 -28h-62q-19 0 -29.5 6t-16.5 20l-330 672l-67 144h-5v-1029 q0 -37 -35 -37h-91q-37 0 -36 37z"/>
<glyph unicode="Н" horiz-adv-x="1291" d="M156 37v1363q0 25 10 32t29 7h93q17 0 26 -7.5t9 -31.5v-559h645v559q0 25 10 32t29 7h93q17 0 26 -7.5t9 -31.5v-1363q0 -37 -35 -37h-93q-39 0 -39 37v647h-645v-647q0 -37 -35 -37h-93q-39 0 -39 37z"/>
<glyph unicode="О" horiz-adv-x="1384" d="M135 740q0 67 6 146.5t26 159t58 154t98.5 131.5t150.5 91t214 34q184 0 296 -63t171 -163.5t77.5 -229t18.5 -260.5q0 -128 -15.5 -262.5t-73 -245t-170.5 -181t-306 -70.5q-128 0 -218.5 32.5t-150.5 87.5t-96.5 130t-56 160t-24.5 173.5t-5 175.5zM308 719 q0 -133 16.5 -240.5t58.5 -184.5t115 -119.5t188 -42.5q117 0 193 40.5t121.5 115.5t63 184.5t17.5 246.5q0 141 -18.5 251.5t-64 185.5t-121.5 114t-191 39q-108 0 -181 -41.5t-116 -118t-62 -185.5t-19 -245z"/>
<glyph unicode="П" horiz-adv-x="1293" d="M159 37v1363q0 25 9.5 32t28.5 7h905q17 0 26 -7.5t9 -31.5v-1363q0 -37 -35 -37h-93q-39 0 -39 37v1246h-645v-1246q0 -37 -35 -37h-93q-39 0 -38 37z"/>
<glyph unicode="Р" horiz-adv-x="1117" d="M156 37v1367q0 35 39 35h412q96 0 178.5 -25.5t142.5 -78t93.5 -131.5t33.5 -183q0 -74 -21 -151t-71.5 -141t-136.5 -104.5t-216 -40.5h-285v-547q0 -37 -37 -37h-93q-39 0 -39 37zM325 734h282q83 0 137.5 23.5t86 64t44.5 92t13 105.5q0 136 -80.5 201t-212.5 65h-270 v-551z"/>
<glyph unicode="С" horiz-adv-x="1167" d="M141 704q0 143 20.5 278.5t79.5 239.5t167 168t284 64q33 0 80.5 -2t102.5 -8.5t109 -17.5t97 -28q25 -10 29 -21.5t0 -26.5l-14 -60q-4 -11 -11.5 -20t-29.5 -4q-72 10 -168.5 20t-194.5 10q-126 0 -199.5 -47.5t-112.5 -129t-50 -189t-11 -226.5q0 -108 13.5 -210.5 t53 -181t113.5 -125t193 -46.5q100 0 191.5 10t169.5 21q24 4 31.5 -6t11.5 -21l11 -56q4 -17 1 -28t-25 -20q-39 -17 -93 -28t-109.5 -17.5t-105.5 -9.5t-83 -3q-172 0 -279 59.5t-168 159.5t-82.5 230t-21.5 272z"/>
<glyph unicode="Т" horiz-adv-x="1044" d="M37 1320v84q0 35 37 35h899q37 0 36 -35v-84q0 -37 -39 -37h-365v-1246q0 -37 -34 -37h-93q-39 0 -39 37v1246h-363q-39 0 -39 37z"/>
<glyph unicode="У" horiz-adv-x="1160" d="M58 1409q-4 10 0.5 19t17.5 9h129q19 0 26 -6.5t14 -19.5l169 -438l176 -469h7l184 488l161 421q9 15 17.5 20.5t28.5 5.5h106q35 0 20 -32l-441 -1101q-37 -80 -68.5 -141t-67.5 -101t-80.5 -60.5t-104.5 -22.5q-31 0 -64.5 2t-72.5 11q-45 8 -39 47l8 59q5 32 40 30 q58 -2 96 1.5t64 17.5t45.5 39t39.5 69l35 68z"/>
<glyph unicode="Ф" horiz-adv-x="1599" d="M130 729q0 87 24 192.5t89 199t179 161.5t295 81v37q0 25 10.5 32t28.5 7h93q19 0 28 -7.5t11 -31.5v-37q189 -13 303 -78t176 -158t82 -198.5t20 -199.5q0 -117 -27 -227.5t-94.5 -199.5t-180 -149t-281.5 -72v-44q0 -37 -37 -37h-93q-37 0 -37 37v44q-185 8 -300 72 t-179 157.5t-87 204t-23 214.5zM298 723q0 -104 21.5 -191t70.5 -151t129 -104.5t200 -50.5v994q-118 -8 -199 -51.5t-130 -111t-70.5 -153.5t-21.5 -181zM886 226q116 6 195 45.5t127.5 104.5t70.5 153t22 192q0 85 -17.5 170.5t-64.5 156t-127.5 117.5t-205.5 53v-992z "/>
<glyph unicode="Х" horiz-adv-x="1133" d="M39 9.5q-4 9.5 4 23.5l433 707l-400 664q-8 13 -4 24t19 11h126q25 0 31 -7.5t15 -20.5l169 -295l132 -230l135 237l167 286q13 28 50 28h118q16 2 20.5 -10t-1.5 -23l-400 -664l432 -709q9 -11 3.5 -21t-20.5 -10h-124q-19 0 -28 6.5t-19 24.5l-191 323l-142 241 l-129 -226l-203 -338q-10 -17 -17.5 -24t-32.5 -7h-124q-15 0 -19 9.5z"/>
<glyph unicode="Ц" horiz-adv-x="1293" d="M159 39v1363q0 37 38 37h93q35 0 35 -37v-1246h645v1246q0 37 39 37h93q35 0 35 -37v-1241l92 -9q24 -5 27 -20.5t3 -25.5l-22 -382q-2 -28 -8.5 -36.5t-19.5 -8.5h-86q-17 0 -23 8.5t-8 36.5l-13 276h-882q-19 0 -28.5 7.5t-9.5 31.5z"/>
<glyph unicode="Ч" horiz-adv-x="1216" d="M95 982v418q0 25 8.5 32t28.5 7h96q17 0 27 -7.5t10 -31.5v-379q0 -54 9.5 -104.5t39 -88.5t81.5 -61t135 -23t180.5 10t182.5 36v614q0 13 6 24t31 11h93q39 0 38 -35v-1367q0 -37 -38 -37h-93q-37 0 -37 37v610q-40 -17 -93 -28.5t-107.5 -20t-105.5 -11.5t-88 -3 q-126 0 -204 35.5t-122.5 92t-61 128.5t-16.5 142z"/>
<glyph unicode="Ш" horiz-adv-x="1771" d="M159 41v1363q0 38 38 38h93q35 0 35 -38v-1245h481v1241q0 25 9.5 32t29.5 7h95q17 0 27 -7.5t10 -31.5v-1241h469v1245q0 38 39 38h93q35 0 35 -38v-1363q0 -41 -35 -41h-1381q-39 0 -38 41z"/>
<glyph unicode="Щ" horiz-adv-x="1771" d="M159 41v1363q0 38 38 38h93q35 0 35 -38v-1245h481v1241q0 25 9.5 32t29.5 7h95q17 0 27 -7.5t10 -31.5v-1244h469v1248q0 38 39 38h93q35 0 35 -38v-1243l91 -9q25 -5 27.5 -20.5t2.5 -25.5l-21 -382q-2 -28 -8.5 -36.5t-20.5 -8.5h-87q-17 0 -22 8.5t-7 36.5l-14 276 h-1357q-39 0 -38 41z"/>
<glyph unicode="Ъ" horiz-adv-x="1504" d="M11 1318v84q0 35 37 35h559q37 0 37 -37v-555h329q137 0 223.5 -39.5t135.5 -101.5t67 -137.5t18 -149.5q0 -104 -35.5 -182.5t-96.5 -130.5t-142.5 -78t-172.5 -26h-456q-39 0 -38 35v1245h-426q-39 0 -39 38zM644 152h313q133 0 213.5 65t80.5 202q0 54 -13.5 104 t-44.5 88t-83.5 60.5t-132.5 22.5h-333v-542z"/>
<glyph unicode="Ы" horiz-adv-x="1593" d="M152 35v1365q0 37 39 37h93q37 0 37 -37v-555h328q134 0 221 -39.5t137 -101.5t68.5 -137.5t18.5 -149.5q0 -104 -35.5 -182.5t-96.5 -130.5t-142.5 -78t-172.5 -26h-456q-39 0 -39 35zM321 152h313q132 0 212 65t80 202q0 54 -12.5 104t-42.5 88t-83.5 60.5t-134.5 22.5 h-332v-542zM1270 37v1363q0 25 10 32t29 7h95q17 0 27.5 -7.5t10.5 -31.5v-1363q0 -37 -38 -37h-95q-39 0 -39 37z"/>
<glyph unicode="Ь" horiz-adv-x="1158" d="M152 35v1365q0 37 39 37h93q37 0 37 -37v-555h328q134 0 220 -39.5t136 -101.5t69.5 -137.5t19.5 -149.5q0 -104 -35.5 -182.5t-96.5 -130.5t-142.5 -78t-172.5 -26h-456q-39 0 -39 35zM321 152h313q132 0 212 65t80 202q0 54 -11.5 104t-41.5 88t-83.5 60.5t-136.5 22.5 h-332v-542z"/>
<glyph unicode="Э" horiz-adv-x="1167" d="M121.5 61q-3.5 11 0.5 26l13 60q4 11 11.5 20t29.5 5q72 -11 168.5 -21t193.5 -10q118 0 194 42.5t120.5 114t63 168t20.5 205.5h-543q-37 0 -37 35v84q0 35 37 35h541q-4 95 -19.5 181t-52.5 150t-105.5 102t-178.5 38q-100 0 -181.5 -10t-160.5 -20q-24 -5 -31.5 4.5 t-11.5 21.5l-11 56q-4 17 -1 28.5t26 19.5q39 15 90 27t103 18.5t98.5 9.5t79.5 3q178 0 284 -59t161.5 -159.5t73 -231t17.5 -270.5q0 -144 -24 -279.5t-88 -240t-176 -168t-288 -63.5q-32 0 -80 2t-102 8.5t-108.5 17t-98.5 28.5q-24 11 -27.5 22z"/>
<glyph unicode="Ю" horiz-adv-x="1707" d="M159 37v1363q0 25 9.5 32t28.5 7h93q17 0 26 -7.5t9 -31.5v-559h179q6 99 26.5 208t77.5 200t157.5 149t265.5 58q185 0 293.5 -63t163.5 -163.5t70.5 -229t15.5 -260.5q0 -87 -4 -175.5t-21.5 -173.5t-52.5 -160t-94.5 -130t-150.5 -87.5t-220 -32.5q-180 0 -285.5 62.5 t-158.5 163.5t-68 227t-18 250h-176v-647q0 -37 -35 -37h-93q-39 0 -38 37zM675 719q0 -133 14.5 -240.5t53 -184.5t108 -119.5t180.5 -42.5t182.5 40.5t114 115.5t59.5 184.5t17 246.5q0 141 -15 251.5t-56 185.5t-114 114t-188 39q-108 0 -178 -41.5t-108.5 -118 t-54 -185.5t-15.5 -245z"/>
<glyph unicode="Я" horiz-adv-x="1182" d="M68 14.5q-5 14.5 4 39.5l106 378q24 77 61 141.5t99 101.5q-54 17 -92.5 52t-65 80.5t-39.5 98.5t-13 105q0 108 38.5 188.5t100 134.5t141 79.5t161.5 25.5h421q37 0 37 -35v-1367q0 -37 -37 -37h-93q-37 0 -37 39v586h-259q-39 -2 -76.5 -12t-71.5 -34t-63.5 -66 t-48.5 -109l-100 -363q-9 -24 -20.5 -32.5t-33.5 -8.5h-77q-37 0 -42 14.5zM304 1027q0 -85 29.5 -134.5t72.5 -76t94 -34t97 -7.5h263v508h-276q-39 0 -88 -12t-91 -41t-71.5 -78t-29.5 -125z"/>
<glyph unicode="а" horiz-adv-x="1115" d="M95 282q0 184 93.5 274.5t310.5 90.5h300v74q0 120 -55.5 165.5t-198.5 45.5q-31 0 -68.5 -1t-79 -5t-83 -7t-76.5 -7q-37 -7 -43 20l-13 56q-4 15 3.5 26t31.5 22q33 10 78.5 19t95.5 14.5t98.5 7.5t88.5 2q130 0 207 -28t117 -78.5t51 -122t11 -158.5v-479 q0 -33 3 -50.5t11 -26t22.5 -11.5t41.5 -5q37 -2 37 -29v-54q0 -15 -9 -25t-34 -14q-40 -6 -77 -6q-76 0 -111.5 28t-46.5 98h-4q-80 -48 -179.5 -91.5t-228.5 -43.5q-159 0 -226.5 76t-67.5 223zM263 288q0 -91 35.5 -123.5t131.5 -32.5q42 0 90.5 11t98.5 29.5t96.5 40 t83.5 44.5v253h-319q-99 0 -158 -45.5t-59 -176.5z"/>
<glyph unicode="б" horiz-adv-x="1091" d="M110 478q0 191 11 349.5t53.5 281t126 207t229.5 130.5q85 24 183.5 44t172.5 36q19 5 26.5 2.5t11.5 -20.5l18 -66q13 -42 -24 -50q-83 -17 -146.5 -32.5t-120.5 -29.5q-102 -26 -168 -60.5t-108.5 -86.5t-63.5 -124.5t-29 -172.5q2 0 4 -2q54 67 137 96t182 29 q111 0 187 -38.5t122.5 -107t66.5 -162.5t20 -200q0 -91 -16.5 -184t-65.5 -167t-138 -120.5t-236 -46.5q-137 0 -222 43.5t-132.5 114t-64 159.5t-16.5 178zM276 476q0 -63 8.5 -124.5t38 -110t83.5 -77.5t145 -29q93 0 149 30t85 79t37.5 113t8.5 134q0 72 -8.5 138.5 t-35.5 119t-77 83t-132 30.5q-102 0 -162 -36t-90 -92.5t-40 -124.5t-10 -133z"/>
<glyph unicode="в" horiz-adv-x="1054" d="M116 43v976q0 24 10.5 31t36.5 7h427q183 0 263.5 -76t80.5 -202q0 -24 -6 -53.5t-18.5 -59.5t-37.5 -58t-64 -50q45 -20 75.5 -51t48 -66t25 -70.5t7.5 -66.5q0 -70 -27.5 -125t-74 -95.5t-109.5 -62t-134 -21.5h-447q-33 0 -44.5 10.5t-11.5 32.5zM280 152h302 q65 0 106 16t65 40t34 51t10 52q0 64 -41.5 116.5t-140.5 52.5h-335v-328zM280 621h321q76 0 121.5 43.5t45.5 106.5q0 52 -40 95t-148 43h-300v-288z"/>
<glyph unicode="г" horiz-adv-x="913" d="M120 43v970q0 44 52 44h661q48 0 48 -44v-62q0 -44 -50 -44h-547v-864q0 -24 -9.5 -33.5t-36.5 -9.5h-66q-52 0 -52 43z"/>
<glyph unicode="д" horiz-adv-x="1214" d="M24 91q-2 25 7.5 33t28.5 13l58 8q70 37 97.5 113t49.5 200l76 501q9 52 38 75t87 23h535q30 0 43 -15t13 -39v-854l72 -8q21 -4 27 -17.5t4 -28.5l-23 -338q-2 -28 -8 -36.5t-19 -8.5h-81q-17 0 -22.5 8.5t-7.5 36.5l-9 243h-801l-17 -243q-2 -28 -9 -36.5t-20 -8.5h-83 q-17 0 -22 8.5t-7 36.5zM328 152h567v753h-411l-45 -343q-15 -110 -27 -178.5t-25.5 -111t-26 -67.5t-32.5 -53z"/>
<glyph unicode="е" horiz-adv-x="1061" d="M100 528q0 78 13 174.5t58.5 180t132.5 140t237 56.5q138 0 223 -41.5t131.5 -108.5t63 -154t20.5 -176q3 -52 -16 -87.5t-79 -35.5h-613q2 -98 17.5 -164.5t50 -106.5t88 -56.5t128.5 -16.5q33 0 74.5 3.5t83 6.5t79 7.5t66.5 9.5q21 2 33 -2.5t16 -26.5l9 -47 q6 -31 -23 -44q-31 -13 -74.5 -24t-91.5 -18.5t-95.5 -11.5t-86.5 -4q-150 0 -238 46.5t-133.5 122.5t-59.5 174.5t-14 203.5zM271 613h532q0 56 -10 113t-38 102.5t-80 74.5t-139 29q-72 0 -120.5 -23t-79 -64.5t-45.5 -100t-20 -131.5z"/>
<glyph unicode="ж" horiz-adv-x="1462" d="M47.5 12q-4.5 12 2.5 34l91 277q15 44 29 80t35 64t48 48.5t68 35.5q-56 17 -92 78t-66 150l-78 232q-9 25 -3.5 35.5t36.5 10.5h79q17 0 28 -6.5t18 -27.5l82 -240q19 -58 46 -94t56 -53t59 -23t61 -6h102v418q0 19 8 25.5t25 6.5h101q17 0 24 -6.5t7 -25.5v-418h102 q28 0 59.5 6t61 23t55.5 53t45 94l83 240q6 21 17.5 27.5t28.5 6.5h80q31 0 36.5 -10.5t-4.5 -35.5l-77 -232q-31 -89 -67 -149.5t-92 -78.5q41 -15 68 -35.5t47.5 -48.5t35 -64t29.5 -80l91 -277q6 -22 2 -34t-34 -12h-89q-17 0 -28 6.5t-17 28.5l-83 251 q-19 58 -46.5 94.5t-58 54t-65.5 22.5t-70 5h-110v-431q0 -31 -31 -31h-101q-33 0 -33 31v431h-111q-34 0 -68.5 -5t-65.5 -22.5t-58 -53t-46 -95.5l-83 -251q-6 -21 -17 -28t-28 -7h-89q-31 0 -35.5 12z"/>
<glyph unicode="з" horiz-adv-x="891" d="M11 85l8 43q4 21 17.5 26t30.5 0q72 -9 146.5 -15.5t134.5 -6.5q58 0 108 6.5t88 26t58.5 57t20.5 97.5q0 50 -18.5 85t-48.5 55.5t-70.5 30t-83.5 9.5h-72q-19 0 -26.5 5.5t-7.5 25.5v73q0 17 6 23t28 6h68q34 0 71 7.5t66 23.5t47.5 44.5t18.5 69.5q0 48 -17 77.5 t-46.5 46.5t-67.5 24t-79 7q-60 0 -129 -7t-138 -11q-26 -5 -37 1.5t-15 26.5l-9 52q-3 17 4 25t20 15q29 12 69.5 22t85 15.5t87 7.5t75.5 2q67 0 133 -11t119.5 -42.5t86 -86.5t32.5 -144q0 -70 -41.5 -132t-120.5 -87v-5q95 -30 141.5 -95.5t46.5 -147.5q0 -98 -35 -165 t-93 -107.5t-135.5 -57.5t-162.5 -17q-35 0 -81.5 2t-95.5 8.5t-93.5 17t-71.5 28.5q-29 15 -22 46z"/>
<glyph unicode="и" horiz-adv-x="1121" d="M120 43v968q0 27 9.5 36.5t33.5 9.5h71q27 0 37.5 -9.5t10.5 -36.5v-727l232 313l331 428q10 13 21 22.5t37 9.5h54q46 0 46 -42v-972q0 -43 -48 -43h-65q-49 0 -49 43v765l-194 -265l-386 -510q-11 -15 -24 -24t-38 -9h-36q-43 0 -43 43z"/>
<glyph unicode="й" horiz-adv-x="1121" d="M120 43v968q0 27 9.5 36.5t33.5 9.5h71q27 0 37.5 -9.5t10.5 -36.5v-727l232 313l331 428q10 13 21 22.5t37 9.5h54q46 0 46 -42v-972q0 -43 -48 -43h-65q-49 0 -49 43v765l-194 -265l-386 -510q-11 -15 -24 -24t-38 -9h-36q-43 0 -43 43zM234.5 1394.5 q-6.5 18.5 3.5 29.5l46 35q11 8 20 5t17 -12q33 -37 59 -65t54 -46.5t60 -27t70 -8.5q39 0 67.5 9.5t53.5 28t51 45.5t59 64q19 19 36 7l46 -30q12 -9 4.5 -28.5t-11.5 -28.5q-50 -104 -134.5 -154t-175.5 -50q-94 0 -179 48t-136 151q-4 9 -10.5 27.5z"/>
<glyph unicode="к" horiz-adv-x="986" d="M120 31v994q0 19 7.5 25.5t24.5 6.5h102q17 0 23.5 -6.5t6.5 -25.5v-418h146q29 0 60.5 6t60.5 23t55 53t45 94l83 240q6 21 17 27.5t28 6.5h81q30 0 35.5 -10.5t-2.5 -35.5l-79 -232q-31 -89 -66.5 -149.5t-92.5 -78.5q41 -15 69 -35.5t48.5 -48.5t34 -64t28.5 -80 l91 -277q7 -22 2.5 -34t-33.5 -12h-89q-17 0 -28.5 6.5t-17.5 28.5l-83 251q-19 58 -46.5 94.5t-57.5 54t-65 22.5t-69 5h-155v-431q0 -31 -30 -31h-102q-33 0 -32 31z"/>
<glyph unicode="л" horiz-adv-x="1102" d="M11 15v59q0 17 5 21.5t23 8.5q54 10 90 26.5t58 49.5t33.5 89t20.5 148l52 534q6 60 36.5 83t89.5 23h515q24 0 37 -9.5t13 -36.5v-968q0 -43 -46 -43h-72q-46 0 -46 43v864h-385l-46 -542q-6 -81 -19.5 -149.5t-47.5 -120.5t-95.5 -82t-168.5 -32q-30 0 -38.5 7.5 t-8.5 26.5z"/>
<glyph unicode="м" horiz-adv-x="1299" d="M120 43v972q0 42 43 42h71q25 0 36.5 -7.5t19.5 -24.5q57 -97 110.5 -196.5t107.5 -198.5q37 -67 74 -138t73 -138l157 290l209 379q8 15 22 24.5t36 9.5h61q41 0 41 -42v-972q0 -43 -46 -43h-69q-47 0 -47 43v661h-10l-125 -240l-153 -275q-19 -31 -52 -30h-54 q-24 0 -34.5 6.5t-17.5 21.5l-143 260l-142 259h-6v-663q0 -43 -48 -43h-69q-45 0 -45 43z"/>
<glyph unicode="н" horiz-adv-x="1115" d="M120 43v968q0 27 11.5 36.5t35.5 9.5h67q25 0 36.5 -9.5t11.5 -36.5v-377h551v377q0 27 14.5 36.5t38.5 9.5h63q24 0 35.5 -9.5t11.5 -36.5v-968q0 -43 -47 -43h-63q-52 0 -53 43v446h-551v-446q0 -43 -48 -43h-67q-47 0 -47 43z"/>
<glyph unicode="о" horiz-adv-x="1091" d="M100 547q0 78 13 171.5t57.5 174t131.5 133.5t236 53q150 0 240 -46.5t138 -122t62 -171t14 -192.5q0 -95 -11 -195t-55.5 -182.5t-135.5 -134.5t-252 -52q-155 0 -243 52t-131.5 133.5t-53.5 182.5t-10 196zM267 532q0 -100 10.5 -174t41.5 -124t83 -74.5t136 -24.5 q90 0 145 23.5t86.5 72.5t42.5 124t11 177q0 100 -11 174.5t-42.5 123.5t-86.5 74.5t-145 25.5q-84 0 -136 -25.5t-83 -75.5t-41.5 -123.5t-10.5 -173.5z"/>
<glyph unicode="п" horiz-adv-x="1106" d="M120 37v984q0 37 36 36h795q19 0 28 -7.5t9 -30.5v-982q0 -37 -39 -37h-91q-35 0 -35 37v872h-541v-872q0 -37 -37 -37h-89q-37 0 -36 37z"/>
<glyph unicode="р" horiz-adv-x="1080" d="M120 -341v1362q0 37 36 36h89q37 0 37 -36v-79l6 -4l65 39t90 45.5t105 38t110 16.5q102 0 170.5 -36t108.5 -104.5t57 -168t17 -230.5q0 -134 -19 -238.5t-68.5 -175t-130.5 -107t-207 -36.5q-60 0 -136.5 12.5t-163.5 47.5l-2 -2v-380q0 -22 -7.5 -31.5t-31.5 -9.5h-89 q-25 0 -30.5 8.5t-5.5 32.5zM284 178q91 -26 167.5 -37t145.5 -11q70 0 116.5 21t74.5 69.5t40.5 127.5t12.5 197q0 124 -12.5 198.5t-37.5 116t-62 54t-87 12.5q-39 0 -90 -12.5t-100.5 -32t-94 -41.5t-73.5 -37v-625z"/>
<glyph unicode="с" horiz-adv-x="922" d="M98 536q0 104 14 201.5t60.5 174t132.5 122t229 45.5q33 0 76 -2t87.5 -7.5t88 -15.5t78.5 -25q17 -6 20.5 -19.5t1.5 -25.5l-9 -50q-5 -17 -20.5 -22t-36.5 -3q-66 7 -148 15t-140 8q-74 0 -124 -21t-79 -66.5t-42.5 -120.5t-13.5 -186q0 -119 13.5 -197t43.5 -124.5 t80 -66.5t122 -20q27 0 64.5 2.5t77.5 5.5t81.5 6t73.5 8q19 2 31 -2.5t17 -25.5l9 -46q7 -30 -24 -45q-61 -29 -153 -39.5t-175 -10.5q-143 0 -229 43.5t-132.5 119.5t-60.5 175.5t-14 214.5z"/>
<glyph unicode="т" horiz-adv-x="913" d="M24 953v60q0 44 50 44h769q28 0 37.5 -10.5t9.5 -33.5v-60q0 -24 -10 -35t-39 -11h-300v-864q0 -43 -48 -43h-63q-52 0 -53 43v864h-301q-30 0 -41 11.5t-11 34.5z"/>
<glyph unicode="у" horiz-adv-x="1011" d="M53 1046.5q3 10.5 19 10.5h115q17 0 23.5 -7.5t11.5 -22.5l178 -497l116 -333q4 13 25 68.5t43 118.5q24 72 54 161l165 484q9 29 35 28h117q27 0 15 -32l-497 -1377q-4 -15 -12.5 -22.5t-30.5 -7.5h-100q-31 0 -19 34l126 348l-383 1023q-4 13 -1 23.5z"/>
<glyph unicode="ф" horiz-adv-x="1380" d="M98 514q0 93 20.5 192.5t77 179.5t156.5 132.5t261 56.5v327q0 37 36 37h82q19 0 29.5 -6t10.5 -31v-327q159 -4 259.5 -53t155.5 -125.5t76 -172.5t21 -196q0 -243 -128 -389.5t-384 -157.5v-331q0 -13 -6.5 -22.5t-24.5 -9.5h-91q-37 0 -36 36v327q-259 11 -387 150.5 t-128 382.5zM265 514q0 -369 348 -388v798q-104 0 -172 -33t-106.5 -90t-54 -131.5t-15.5 -155.5zM771 126q345 19 345 388q0 81 -15.5 155.5t-53.5 131.5t-105.5 90t-170.5 33v-798z"/>
<glyph unicode="х" horiz-adv-x="939" d="M24 10.5q-5 10.5 2 24.5l345 503l-328 485q-8 13 -2.5 23.5t19.5 10.5h131q17 0 22.5 -7.5t16.5 -20.5l236 -358l236 358q8 13 14.5 20.5t23.5 7.5h132q15 0 21 -10.5t-3 -23.5l-330 -482l345 -506q9 -13 3.5 -24t-20.5 -11h-132q-17 0 -26 7.5t-18 21.5l-248 381 l-249 -381q-17 -29 -45 -29h-127q-14 0 -19 10.5z"/>
<glyph unicode="ц" horiz-adv-x="1127" d="M120 46v967q0 44 47 44h69q46 0 46 -44v-861h517v861q0 44 50 44h63q49 0 49 -44l3 -857l78 -7q24 -2 28.5 -15.5t2.5 -29.5l-23 -332q-2 -29 -8 -37t-19 -8h-83q-17 0 -22.5 8t-8.5 37l-6 228h-736q-21 0 -34 9.5t-13 36.5z"/>
<glyph unicode="ч" horiz-adv-x="1026" d="M65 729v292q0 37 39 36h91q37 0 37 -36v-259q0 -70 9 -115.5t28 -71.5t53 -36.5t84 -10.5q39 0 88 11.5t96.5 28t89 34t64.5 30.5v389q0 37 39 36h89q35 0 35 -36v-982q0 -37 -35 -37h-89q-39 0 -39 37v456l-2 2q-26 -17 -66 -37.5t-87.5 -39t-100.5 -31t-109 -12.5 q-106 0 -168 30t-94 78.5t-42 111.5t-10 132z"/>
<glyph unicode="ш" horiz-adv-x="1486" d="M120 48v963q0 27 12.5 36.5t34.5 9.5h67q25 0 36.5 -9.5t11.5 -36.5v-859h387v859q0 27 11.5 36.5t38.5 9.5h62q25 0 37.5 -9.5t12.5 -36.5v-859h374v859q0 27 14 36.5t38 9.5h67q24 0 33.5 -9.5t9.5 -36.5v-963q0 -48 -43 -48h-1157q-47 0 -47 48z"/>
<glyph unicode="щ" horiz-adv-x="1531" d="M120 48v963q0 27 12.5 36.5t34.5 9.5h67q25 0 36.5 -9.5t11.5 -36.5v-859h387v859q0 27 11.5 36.5t38.5 9.5h62q25 0 37.5 -9.5t12.5 -36.5v-859h374v859q0 27 14 36.5t38 9.5h67q24 0 33.5 -9.5t9.5 -36.5v-857l79 -7q24 -2 28.5 -15.5t2.5 -29.5l-21 -336 q-2 -29 -8 -37.5t-19 -8.5h-83q-17 0 -22.5 8.5t-8.5 37.5l-8 234h-1140q-47 0 -47 48z"/>
<glyph unicode="ъ" horiz-adv-x="1232" d="M8 951v64q0 25 10.5 33.5t37.5 8.5h402q48 0 48 -44v-369h310q100 0 167 -27t108.5 -71.5t59 -103t17.5 -119.5q0 -78 -29 -138.5t-80.5 -102t-120 -62t-145.5 -20.5h-395q-55 0 -55 43v864h-285q-30 0 -40 9.5t-10 34.5zM506 152h289q95 0 153.5 42t58.5 129 q0 72 -40.5 121t-156.5 49h-304v-341z"/>
<glyph unicode="ы" horiz-adv-x="1349" d="M120 43v970q0 44 54 44h60q48 0 48 -44v-369h333q91 0 153.5 -27t101.5 -71.5t56.5 -103t17.5 -119.5q0 -78 -29 -138.5t-78 -102t-113 -62t-134 -20.5h-416q-54 0 -54 43zM282 152h311q82 0 136 42t54 129q0 72 -39.5 121t-136.5 49h-325v-341zM1066 43v968 q0 27 13 36.5t37 9.5h67q24 0 36 -9.5t12 -36.5v-968q0 -43 -48 -43h-67q-50 0 -50 43z"/>
<glyph unicode="ь" horiz-adv-x="1009" d="M120 43v970q0 44 54 44h60q48 0 48 -44v-369h333q91 0 153.5 -27t101.5 -71.5t56.5 -103t17.5 -119.5q0 -78 -29 -138.5t-78 -102t-113 -62t-134 -20.5h-416q-54 0 -54 43zM282 152h311q82 0 136 42t54 129q0 72 -39.5 121t-136.5 49h-325v-341z"/>
<glyph unicode="э" horiz-adv-x="941" d="M56 83l9 45q4 21 16 26t31 2q33 -4 74.5 -7.5t81.5 -6.5t78 -5t64 -2q67 0 115 16t78.5 57.5t46 107.5t19.5 168h-428q-27 0 -36.5 7.5t-9.5 34.5v60q0 25 10 32t36 7h426q-9 172 -66.5 241.5t-190.5 69.5q-58 0 -127.5 -8t-137.5 -14q-19 -2 -35.5 2t-20.5 22l-8 50 q-3 13 0.5 26t20.5 20q35 14 77.5 24t85.5 15.5t85.5 7.5t74.5 2q143 0 227 -45.5t126 -121t54.5 -174t12.5 -201.5q0 -124 -17.5 -225t-65.5 -175t-133.5 -114t-220.5 -40q-83 0 -175 10.5t-152 39.5q-31 15 -25 46z"/>
<glyph unicode="ю" horiz-adv-x="1373" d="M120 43v968q0 27 12.5 36.5t34.5 9.5h69q22 0 34 -9.5t12 -36.5v-377h143q2 67 19.5 144t62 144.5t125 112t211.5 44.5q149 0 236 -48.5t130.5 -126t54 -172t10.5 -185.5q0 -89 -7.5 -187.5t-47.5 -182.5t-128 -139t-248 -55q-143 0 -227 46.5t-125.5 119.5t-53.5 163 t-12 177h-143v-446q0 -43 -46 -43h-69q-47 0 -47 43zM593 532q0 -97 7 -171.5t33.5 -125.5t75.5 -75.5t134 -24.5q89 0 141 27t79 76.5t34.5 124t7.5 169.5q0 91 -7.5 165t-34.5 124.5t-79 79.5t-141 29q-85 0 -134 -29t-75.5 -81t-33.5 -125.5t-7 -162.5z"/>
<glyph unicode="я" horiz-adv-x="1071" d="M69 12q-4 12 3 34l82 250q17 56 42.5 103.5t72.5 73.5q-50 15 -80 43.5t-48.5 64.5t-25.5 75.5t-7 79.5q0 78 29.5 139t78.5 102.5t114 61.5t136 20h433q54 0 54 -44v-969q0 -44 -54 -44h-61q-47 0 -48 44v386h-299q-63 -6 -104 -41t-74 -132l-75 -224q-6 -21 -16.5 -28 t-28.5 -7h-89q-31 0 -35 12zM269 736q0 -72 44.5 -117.5t162.5 -45.5h314v334h-299q-96 0 -159 -42t-63 -129z"/>
<glyph unicode="ё" horiz-adv-x="1061" d="M100 528q0 78 13 174.5t58.5 180t132.5 140t237 56.5q138 0 223 -41.5t131.5 -108.5t63 -154t20.5 -176q3 -52 -16 -87.5t-79 -35.5h-613q2 -98 17.5 -164.5t50 -106.5t88 -56.5t128.5 -16.5q33 0 74.5 3.5t83 6.5t79 7.5t66.5 9.5q21 2 33 -2.5t16 -26.5l9 -47 q6 -31 -23 -44q-31 -13 -74.5 -24t-91.5 -18.5t-95.5 -11.5t-86.5 -4q-150 0 -238 46.5t-133.5 122.5t-59.5 174.5t-14 203.5zM271 613h532q0 56 -10 113t-38 102.5t-80 74.5t-139 29q-72 0 -120.5 -23t-79 -64.5t-45.5 -100t-20 -131.5zM282 1340q0 37 17.5 63t73.5 26 t72.5 -25t16.5 -64t-16 -67.5t-73 -28.5q-60 0 -75.5 29.5t-15.5 66.5zM682 1340q0 37 17.5 63t71.5 26q56 0 73.5 -25t17.5 -64t-17.5 -67.5t-73.5 -28.5q-59 0 -74 29.5t-15 66.5z"/>
<glyph unicode="ђ" horiz-adv-x="1193" d="M37 1222v56q0 40 37 40h108v176q0 37 35 37h89q40 0 40 -37v-176h447q24 0 30 -10t6 -28v-58q0 -19 -6.5 -28t-29.5 -9h-447v-278q93 50 182 74t168 26q87 0 161.5 -28t127.5 -89t82 -155.5t29 -224.5q0 -100 -25 -200.5t-77 -193t-134.5 -172t-194.5 -133.5 q-29 -12 -39.5 -7t-22.5 24l-23 46q-15 28 13 41q159 96 244 242.5t85 374.5q0 91 -20.5 153t-56 101t-82 55.5t-101.5 16.5q-78 0 -161.5 -27.5t-154.5 -66.5v-727q0 -37 -35 -37h-89q-40 0 -40 37v1148h-108q-37 0 -37 37z"/>
<glyph unicode="ѓ" horiz-adv-x="913" d="M120 43v970q0 44 52 44h661q48 0 48 -44v-62q0 -44 -50 -44h-547v-864q0 -24 -9.5 -33.5t-36.5 -9.5h-66q-52 0 -52 43zM387 1231l151 310q9 19 38 7l99 -44q15 -6 13 -15.5t-6 -16.5l-193 -287q-11 -15 -33 -6l-63 22q-17 6 -6 30z"/>
<glyph unicode="є" horiz-adv-x="952" d="M98 536q0 104 14 201.5t60.5 174t132.5 122t229 45.5q33 0 76 -2t87.5 -7.5t88 -15.5t78.5 -25q17 -6 20.5 -19.5t1.5 -25.5l-9 -50q-5 -17 -20.5 -22t-36.5 -3q-66 7 -148 15t-140 8q-67 0 -114 -16.5t-77 -53.5t-45.5 -95.5t-19.5 -145.5h426q26 0 35.5 -8t9.5 -31v-60 q0 -27 -10 -34.5t-35 -7.5h-429q3 -102 19 -168.5t46.5 -107.5t78 -57.5t115.5 -16.5q27 0 64.5 2.5t77.5 5.5t81.5 6t73.5 8q19 2 31 -2.5t17 -25.5l9 -46q7 -30 -24 -45q-61 -29 -153 -39.5t-175 -10.5q-143 0 -229 40t-132.5 114t-60.5 174.5t-14 224.5z"/>
<glyph unicode="ѕ" horiz-adv-x="945" d="M95 78l9 46q4 21 16 25.5t32 2.5q32 -5 74.5 -9t85 -7.5t80.5 -5.5t66 -2q122 0 175 38.5t53 119.5q0 48 -8.5 80t-32.5 51.5t-65.5 30t-106.5 21.5q-74 10 -142 27.5t-120 50.5t-84 85t-32 136q0 152 102.5 231.5t278.5 79.5q33 0 73.5 -2t85 -7.5t88 -15.5t78.5 -23 q31 -14 22 -45l-9 -52q-4 -17 -18.5 -22t-37.5 -3q-67 7 -141 15t-144 8q-122 0 -165 -37t-43 -122q0 -42 10.5 -65.5t35.5 -39t68.5 -25t109.5 -20.5q72 -10 138.5 -26.5t118 -51.5t82 -91t30.5 -150q0 -91 -34 -152t-91.5 -99t-130 -54t-150.5 -16q-42 0 -87.5 2t-90 8.5 t-85 16t-69.5 23.5q-29 13 -25 45z"/>
<glyph unicode="і" horiz-adv-x="483" d="M149 1340q0 41 19 67t75 26q58 0 75.5 -25t17.5 -68q0 -42 -16 -70.5t-77 -28.5q-63 0 -78.5 30t-15.5 69zM161 37v984q0 24 9.5 30t28.5 6h89q35 0 35 -36v-984q0 -37 -35 -37h-89q-39 0 -38 37z"/>
<glyph unicode="ї" horiz-adv-x="483" d="M-41 1324q0 37 17.5 63t73.5 26t72.5 -25t16.5 -64t-16.5 -67t-72.5 -28q-61 0 -76 29t-15 66zM161 37v984q0 24 9.5 30t28.5 6h89q35 0 35 -36v-984q0 -37 -35 -37h-89q-39 0 -38 37zM358 1324q0 37 17.5 63t71.5 26q57 0 74 -25t17 -64t-17 -67t-74 -28q-58 0 -73.5 29 t-15.5 66z"/>
<glyph unicode="ј" horiz-adv-x="520" d="M-106 -356q-2 21 6.5 29t23.5 12q76 15 127 29.5t81.5 38t43.5 64t13 105.5v1099q0 24 10 30t29 6h87q39 0 39 -36v-1095q0 -77 -13 -144.5t-56.5 -120t-125 -80.5t-217.5 -24q-11 0 -26.5 6.5t-17.5 30.5zM178 1340q0 41 18.5 67t74.5 26q59 0 76.5 -25t17.5 -68 q0 -42 -16.5 -70.5t-77.5 -28.5q-62 0 -77.5 30t-15.5 69z"/>
<glyph unicode="љ" horiz-adv-x="1653" d="M11 15v59q0 17 5 21.5t23 8.5q54 10 90 26.5t58 49.5t33.5 89t20.5 148l52 534q6 60 36.5 83t89.5 23h462q45 0 45 -44v-369h311q100 0 167.5 -27t108.5 -71.5t58.5 -103t17.5 -119.5q0 -78 -29 -138.5t-80 -102t-119.5 -62t-146.5 -20.5h-396q-54 0 -54 43v866l-329 -2 l-46 -542q-6 -81 -19.5 -149.5t-47.5 -120.5t-95.5 -82t-168.5 -32q-30 0 -38.5 7.5t-8.5 26.5zM926 152h290q95 0 154 42t59 129q0 72 -40.5 121t-157.5 49h-305v-341z"/>
<glyph unicode="њ" horiz-adv-x="1588" d="M120 43v968q0 27 12.5 36.5t37.5 9.5h66q25 0 35.5 -9.5t10.5 -36.5v-375h428v377q0 44 54 44h61q47 0 47 -44v-369h311q100 0 167 -27t108.5 -71.5t59 -103t17.5 -119.5q0 -78 -29 -138.5t-80.5 -102t-120 -62t-145.5 -20.5h-396q-54 0 -54 43v452h-428v-452 q0 -43 -46 -43h-66q-50 0 -50 43zM872 152h290q95 0 153.5 42t58.5 129q0 72 -40 121t-157 49h-305v-341z"/>
<glyph unicode="ћ" horiz-adv-x="1139" d="M2 1220v56q0 39 37 39h108v179q0 37 35 37h89q40 0 40 -37v-179h460q24 0 30.5 -9.5t6.5 -27.5v-58q0 -19 -6.5 -28t-30.5 -9h-460v-282v-2q0 -2 2 -2q26 17 68 40.5t93.5 45.5t108.5 37.5t116 15.5q106 0 168.5 -30.5t94.5 -84t41.5 -127t9.5 -160.5v-597q0 -37 -38 -37 h-91q-37 0 -37 37l2 618q0 70 -9 114.5t-29.5 70.5t-54 36t-83.5 10q-39 0 -91 -15.5t-104.5 -35t-98 -40t-68.5 -33.5v-725q0 -37 -40 -37h-89q-35 0 -35 37v1146h-108q-37 0 -37 37z"/>
<glyph unicode="ќ" horiz-adv-x="986" d="M120 31v994q0 19 7.5 25.5t24.5 6.5h102q17 0 23.5 -6.5t6.5 -25.5v-418h146q29 0 60.5 6t60.5 23t55 53t45 94l83 240q6 21 17 27.5t28 6.5h81q30 0 35.5 -10.5t-2.5 -35.5l-79 -232q-31 -89 -66.5 -149.5t-92.5 -78.5q41 -15 69 -35.5t48.5 -48.5t34 -64t28.5 -80 l91 -277q7 -22 2.5 -34t-33.5 -12h-89q-17 0 -28.5 6.5t-17.5 28.5l-83 251q-19 58 -46.5 94.5t-57.5 54t-65 22.5t-69 5h-155v-431q0 -31 -30 -31h-102q-33 0 -32 31zM398 1231l151 310q9 19 37 7l100 -44q15 -6 12.5 -15.5t-6.5 -16.5l-193 -287q-10 -15 -33 -6l-62 22 q-17 6 -6 30z"/>
<glyph unicode="ў" horiz-adv-x="1011" d="M53 1046.5q3 10.5 19 10.5h115q17 0 23.5 -7.5t11.5 -22.5l178 -497l116 -333q4 13 25 68.5t43 118.5q24 72 54 161l165 484q9 29 35 28h117q27 0 15 -32l-497 -1377q-4 -15 -12.5 -22.5t-30.5 -7.5h-100q-31 0 -19 34l126 348l-383 1023q-4 13 -1 23.5zM193.5 1429.5 q-6.5 18.5 3.5 29.5l46 35q17 12 37 -7q33 -37 59 -65t54 -46.5t59.5 -27t71.5 -8.5q76 0 121 35.5t109 111.5q19 19 36 7l45 -31q11 -11 4.5 -29.5t-10.5 -26.5q-50 -104 -134.5 -154t-176.5 -50q-93 0 -178.5 47.5t-134.5 151.5q-5 9 -11.5 27.5z"/>
<glyph unicode="џ" horiz-adv-x="1106" d="M120 46v967q0 44 47 44h67q48 0 48 -44v-861h541v861q0 44 51 44h66q48 0 48 -44v-967q0 -27 -12 -36.5t-36 -9.5h-302l-13 -243q-2 -28 -8.5 -36.5t-19.5 -8.5h-83q-17 0 -23.5 8.5t-6.5 36.5l-13 243h-304q-24 0 -35.5 9.5t-11.5 36.5z"/>
<glyph unicode="Ґ" horiz-adv-x="1038" d="M165 37v1367q0 35 40 35h646l35 235q4 30 11.5 37.5t20.5 7.5h59q13 0 19.5 -8.5t6.5 -36.5v-346q0 -17 -7.5 -31t-27.5 -14h-634v-1246q0 -37 -34 -37h-95q-40 0 -40 37z"/>
<glyph unicode="ґ" horiz-adv-x="911" d="M149 43v970q0 44 52 44h546l34 215q4 21 10 25t15 4h47q25 0 24 -29v-311q0 -19 -4.5 -35.5t-27.5 -16.5h-532v-866q0 -24 -10 -33.5t-36 -9.5h-66q-52 0 -52 43z"/>
<glyph unicode="ә" horiz-adv-x="1065" d="M89 460q-2 52 16.5 88t78.5 36h613q-2 98 -16.5 164t-46.5 106.5t-84.5 56t-127.5 15.5q-33 0 -75.5 -3l-85 -6t-83 -8.5t-67.5 -7.5q-21 -2 -33.5 2t-16.5 27l-9 47q-7 31 24 44t75.5 23.5t93 18.5t98.5 12t89 4q150 0 236.5 -46.5t131 -123t56.5 -175t12 -202.5 q0 -78 -14 -174.5t-61.5 -180.5t-135.5 -140t-239 -56q-141 0 -224 41t-127.5 108t-59 154t-18.5 176zM265 447q0 -56 7.5 -113.5t32.5 -103.5t75 -74t136 -28q79 0 129.5 23t83.5 64.5t48.5 99.5t19.5 132h-532z"/>
<glyph unicode="–" horiz-adv-x="1089" d="M65 518v62q0 33 33 33h894q33 0 33 -33v-62q0 -30 -31 -29h-899q-30 0 -30 29z"/>
<glyph unicode="—" horiz-adv-x="2170" d="M65 518v62q0 33 33 33h1975q33 0 33 -33v-62q0 -30 -31 -29h-1980q-30 0 -30 29z"/>
<glyph unicode="‘" horiz-adv-x="455" d="M118 1137q0 113 54 200t118 130q7 4 18 8t15 -1l31 -30q13 -13 -6 -29q-40 -35 -56 -74.5t-16 -81.5q0 -37 15 -77t39 -70q6 -9 6 -20t-17 -24l-85 -67q-28 -19 -54 4q-33 31 -47.5 65.5t-14.5 66.5z"/>
<glyph unicode="’" horiz-adv-x="455" d="M110 1031q-12 13 8 28q39 35 55 75t16 82q0 37 -15 76.5t-39 70.5q-7 9 -7 21t17 23l85 67q15 11 29 9t25 -11q33 -30 48.5 -65.5t15.5 -66.5q0 -116 -55 -203t-119 -130q-7 -4 -18 -7.5t-15 1.5z"/>
<glyph unicode="‚" horiz-adv-x="422" d="M87 -261q-9 11 8 29q40 35 56 73.5t16 80.5q0 39 -15 79t-40 69q-6 8 -6 20t16 26l87 64q15 11 29 10t25 -12q33 -31 47.5 -66.5t14.5 -65.5q0 -113 -54 -201t-119 -129q-7 -4 -17.5 -9t-16.5 3z"/>
<glyph unicode="“" horiz-adv-x="676" d="M91 1137q0 113 54 200t122 130q4 4 15 8t18 -1l30 -30q8 -13 -9 -29q-39 -35 -55 -74.5t-16 -81.5q0 -37 15 -77t39 -70q7 -9 8 -20t-16 -24l-87 -67q-15 -11 -28.5 -9t-24.5 13q-35 31 -50 65.5t-15 66.5zM365 1137q0 113 54 200t122 130q4 4 15 8t17 -1l30 -30 q9 -13 -8 -29q-40 -35 -55.5 -74.5t-15.5 -81.5q0 -37 14.5 -77t39.5 -70q6 -9 7 -20t-16 -24l-87 -67q-15 -11 -28 -9t-24 13q-35 31 -50 65.5t-15 66.5z"/>
<glyph unicode="”" horiz-adv-x="676" d="M91 1031q-8 13 9 28q39 35 55.5 75t16.5 82q0 37 -15.5 76.5t-38.5 70.5q-7 9 -7.5 21t15.5 23l87 67q15 11 29.5 9t24.5 -11q33 -30 48 -65.5t15 -66.5q0 -116 -54 -203t-120 -130q-7 -4 -17.5 -7.5t-16.5 1.5zM365 1031q-9 13 8 28q39 35 55.5 75t16.5 82 q0 37 -15.5 76.5t-38.5 70.5q-6 9 -6.5 21t15.5 23l87 67q14 11 28.5 9t25.5 -11q32 -30 47 -65.5t15 -66.5q0 -116 -54 -203t-119 -130q-6 -4 -17 -7.5t-18 1.5z"/>
<glyph unicode="„" horiz-adv-x="676" d="M91 -261q-8 13 9 29q39 35 55.5 74.5t16.5 81.5q0 37 -15.5 77t-38.5 71q-7 9 -7.5 20.5t15.5 23.5l87 66q15 11 29.5 9t24.5 -11q33 -31 48 -66.5t15 -65.5q0 -116 -54 -202.5t-120 -129.5q-7 -4 -17.5 -8t-16.5 2zM365 -261q-9 13 8 29q39 35 55.5 74.5t16.5 81.5 q0 37 -15.5 77t-38.5 71q-6 9 -6.5 20.5t15.5 23.5l87 66q14 11 28.5 9t25.5 -11q32 -31 47 -66.5t15 -65.5q0 -116 -54 -202.5t-119 -129.5q-6 -4 -17 -8t-18 2z"/>
<glyph unicode="†" horiz-adv-x="1048" d="M52 955v74q0 35 37 35h358v399q0 37 40 37h80q37 0 36 -37v-399h358q38 0 38 -35v-74q0 -37 -40 -37h-356v-985q0 -37 -36 -37h-80q-20 0 -30 6.5t-10 30.5v985h-356q-39 0 -39 37z"/>
<glyph unicode="‡" horiz-adv-x="1048" d="M52 369v74q0 37 39 37h356v438h-356q-39 0 -39 37v74q0 35 37 35h358v408q2 31 37 30h80q19 0 29 -6.5t10 -30.5v-401h358q38 0 38 -35v-74q0 -37 -40 -37h-356v-438h356q40 0 40 -37v-74q0 -35 -38 -35h-358v-408q-2 -31 -36 -30h-80q-38 0 -40 30v408h-358 q-37 0 -37 35z"/>
<glyph unicode="•" horiz-adv-x="613" d="M116 549q0 39 14.5 75t41.5 63t63 43.5t76 16.5q39 0 74.5 -16.5t63 -43.5t42.5 -63t15 -75q0 -83 -57.5 -139t-137.5 -56q-81 0 -138 56t-57 139z"/>
<glyph unicode="…" horiz-adv-x="1417" d="M95 85q0 43 18.5 71t81.5 28t80.5 -28t17.5 -71q0 -44 -17 -74t-81 -30q-67 0 -83.5 30t-16.5 74zM607 85q0 43 18.5 71t82.5 28q63 0 80.5 -28t17.5 -71q0 -44 -17.5 -74t-80.5 -30q-67 0 -84 30t-17 74zM1120 85q0 43 20 71t80 28q63 0 81.5 -28t18.5 -71 q0 -44 -18.5 -74t-81.5 -30q-67 0 -83.5 30t-16.5 74z"/>
<glyph unicode="‰" horiz-adv-x="2567" d="M54 996q0 52 8 129.5t40.5 149t99.5 122.5t189 51t191 -41.5t105 -106.5t45.5 -145t9.5 -159q0 -66 -7.5 -150t-42 -156.5t-105.5 -123t-196 -50.5q-124 0 -191.5 47t-100 118t-39 155t-6.5 160zM195 982q0 -77 6 -139t26 -106.5t59 -69.5t105 -25q67 0 109.5 26t64 71.5 t29 107.5t7.5 135q0 80 -6.5 143.5t-28 108t-63 68.5t-112.5 24q-65 0 -104.5 -28t-58.5 -74.5t-26 -110t-7 -131.5zM538 -17l599 1508q7 15 14 22t21 7h69q29 0 18 -33l-597 -1511q-10 -27 -32 -26h-70q-33 0 -22 33zM1038 466q0 52 7.5 129.5t40 149t100 122.5t188.5 51 q122 0 191.5 -41.5t105.5 -106t45.5 -145t9.5 -159.5q0 -66 -7.5 -150t-42.5 -156.5t-105.5 -122.5t-196.5 -50q-124 0 -191 47t-100 117.5t-39 155t-6 159.5zM1179 452q0 -77 5 -138.5t26 -106t60 -70t104 -25.5q67 0 109.5 26.5t64.5 72.5t29.5 107t7.5 134q0 80 -6.5 144 t-28 108.5t-63 68.5t-113.5 24q-65 0 -104 -28.5t-59 -75t-26 -109t-6 -132.5zM1825 466q0 52 8 129.5t40.5 149t99.5 122.5t189 51t191.5 -41.5t105 -106t45.5 -145t10 -159.5q0 -66 -8 -150t-42 -156.5t-104.5 -122.5t-197.5 -50q-124 0 -191 47t-99.5 117.5t-39.5 155 t-7 159.5zM1966 452q0 -77 6 -138.5t26.5 -106t59.5 -70t104 -25.5q67 0 109.5 26.5t64 72.5t29 107t7.5 134q0 80 -6 144t-28 108.5t-63.5 68.5t-112.5 24q-64 0 -103.5 -28.5t-59 -75t-26.5 -109t-7 -132.5z"/>
<glyph unicode="‹" horiz-adv-x="568" d="M77.5 394.5q-3.5 15.5 13.5 35.5l213 269q11 10 21.5 21t32.5 11h113q17 0 18.5 -10.5t-2.5 -18.5l-242 -302l252 -307q7 -8 4.5 -15.5t-12.5 -7.5h-131q-17 0 -29 8.5t-21 19.5l-219 271q-8 10 -11.5 25.5z"/>
<glyph unicode="›" horiz-adv-x="568" d="M76 77.5q-2 7.5 5 15.5l251 307l-241 302q-4 8 -3 18.5t18 10.5h113q22 0 33 -10.5t21 -21.5l214 -269q17 -19 13.5 -35t-11.5 -26l-220 -271q-8 -11 -20.5 -19.5t-29.5 -8.5h-130q-11 0 -13 7.5z"/>
<glyph unicode="⁄" horiz-adv-x="244" d="M-228 -17l599 1508q6 15 13 22t22 7h70q29 0 17 -33l-597 -1511q-10 -27 -33 -26h-70q-33 0 -21 33z"/>
<glyph unicode="€" d="M54 573v74q0 6 5.5 13t18.5 7h873q24 0 24 -27v-69q0 -17 -20 -18h-588q8 -84 29 -160t63 -131t109.5 -88t165.5 -33q99 0 192 10t168 21q24 4 31.5 -6t11.5 -21l11 -56q4 -17 1 -28t-24 -20q-40 -17 -94 -28t-109.5 -17.5t-105.5 -9.5t-82 -3q-148 0 -247.5 45.5 t-162.5 122.5t-95 181.5t-40 220.5l-113 -2q-21 0 -22 22zM54 781v74q0 19 24 19h111q10 118 41 223.5t94 184.5t162.5 125.5t247.5 46.5q32 0 80 -2t102 -8.5t108.5 -17.5t98.5 -28q24 -10 28 -21.5t-1 -26.5l-13 -60q-4 -11 -11.5 -20t-29.5 -4q-72 10 -168.5 20 t-193.5 10q-102 0 -170.5 -32.5t-110 -89t-62 -133.5t-26.5 -167h588q21 0 22 -23v-70q0 -19 -20 -19h-879q-10 0 -16 3t-6 16z"/>
<glyph unicode="№" horiz-adv-x="1985" d="M152 37v1370q0 32 35 32h89q24 0 33.5 -10t20.5 -25l378 -636l260 -445h7v1077q0 25 8.5 32t27.5 7h91q17 0 26 -7.5t9 -31.5v-1365q0 -35 -35 -35h-81q-25 0 -35.5 8.5t-21.5 26.5l-402 684l-239 414h-6v-1096q0 -37 -37 -37h-89q-39 0 -39 37zM1272 1096q0 52 9 113 t40.5 114t92 89t166.5 36q104 0 167 -30t97 -80.5t45 -113.5t11 -128q0 -62 -7.5 -129.5t-39.5 -122t-96 -89t-177 -34.5q-110 0 -172 34.5t-92.5 89t-37 122t-6.5 129.5zM1296 526v54q0 41 42 41h505q42 0 42 -41v-54q0 -39 -40 -39h-509q-25 0 -32.5 10.5t-7.5 28.5z M1407 1085q0 -124 33.5 -183t139.5 -59q113 0 148 59t35 183q0 61 -7.5 106.5t-27 76t-55.5 45.5t-93 15q-106 0 -139.5 -59.5t-33.5 -183.5z"/>
<glyph unicode="™" horiz-adv-x="1442" d="M65 1357v52q0 28 30 28h476q31 0 30 -28v-52q0 -33 -32 -33h-176v-525q0 -31 -30 -31h-57q-33 0 -33 31v525h-178q-30 0 -30 33zM647 799v616q0 24 28 24h65q17 0 25 -7.5t14 -18.5l215 -400h2l9 18q8 17 23.5 45.5t35 64.5t38.5 73q48 87 107 199q7 11 14.5 18.5 t25.5 7.5h62q27 0 27 -24v-616q0 -31 -25 -31h-66q-7 0 -17 5.5t-10 25.5l2 423l-4 2l-85 -167l-89 -164q-13 -25 -35 -25h-36q-13 0 -21 5.5t-14 16.5l-85 163l-87 169h-2l2 -423q0 -33 -30 -33h-57q-17 0 -24.5 6.5t-7.5 26.5z"/>
<glyph unicode="∂" horiz-adv-x="1150" d="M95 469q0 112 34 203.5t93.5 154.5t140 97.5t171.5 34.5q220 0 371 -158q11 104 -16 211.5t-94.5 198t-178 153.5t-268.5 80q-25 4 -40 8t-12 25l4 47q2 17 8.5 29.5t27.5 10.5q201 -13 341.5 -84t228.5 -181t127.5 -248.5t39.5 -288.5q0 -195 -40.5 -342t-112 -244.5 t-168.5 -147t-209 -49.5q-96 0 -177.5 31t-142 93t-94.5 153.5t-34 212.5zM267 473q0 -91 24 -157t63 -107.5t90 -61t107 -19.5q87 0 152 47t108.5 121.5t66.5 165.5t27 182q-104 98 -196 139.5t-162 41.5q-65 0 -117.5 -30.5t-88 -80t-55 -113.5t-19.5 -128z"/>
<glyph unicode="∏" horiz-adv-x="1293" d="M159 -137v1537q0 25 9.5 32t28.5 7h905q17 0 26 -7.5t9 -31.5v-1537q0 -37 -35 -37h-93q-39 0 -39 37v1420h-645v-1420q0 -37 -35 -37h-93q-39 0 -38 37z"/>
<glyph unicode="∑" horiz-adv-x="980" d="M50 1322v87q0 30 35 30h812q35 0 35 -35v-84q0 -37 -37 -37h-652l333 -604q17 -24 18 -43t-16 -48l-321 -607h661q37 0 37 -35v-83q0 -37 -35 -37h-829q-35 0 -35 35v76q0 17 3.5 31.5t14.5 33.5l340 634l-347 630q-17 26 -17 56z"/>
<glyph unicode="√" horiz-adv-x="1219" d="M74.5 795.5q6.5 7.5 23.5 12.5l238 78q13 4 20 -1.5t9 -10.5l295 -785q2 -11 7 0l373 1628q2 13 15 13h139q12 0 9 -13l-454 -1884q-2 -9 -13 -9h-126q-11 0 -15 11l-334 873q-7 11 -16 9l-104 -33q-31 -11 -39 12l-26 72q-8 20 -1.5 27.5z"/>
<glyph unicode="∞" horiz-adv-x="1579" d="M87 590q0 67 27 128t72.5 106.5t107.5 72.5t131 27q54 0 106.5 -19t98 -52t85 -74t68.5 -85q11 -15 27 0q76 98 163.5 164t211.5 66q67 0 126 -25t102 -69.5t67 -104.5t24 -135q0 -66 -26 -127t-71.5 -108t-107.5 -74t-133 -27q-52 0 -101.5 19.5t-94 51t-84 72 t-74.5 83.5q-13 15 -29 0q-39 -43 -78.5 -83.5t-84 -72t-97 -51t-115.5 -19.5q-67 0 -125.5 25t-102 69.5t-68.5 106t-25 135.5zM222 590q0 -86 59.5 -143.5t139.5 -57.5q85 0 158.5 54t119.5 130q6 13 3 26q-21 33 -51 68t-66 62t-76 44t-84 17q-39 0 -75.5 -16t-64.5 -43 t-45.5 -63t-17.5 -78zM890 599q-10 -11 3 -23q58 -75 124 -131t153 -56q39 0 76 16t64.5 43.5t43.5 64t16 77.5q0 87 -57.5 143.5t-135.5 56.5q-85 0 -155.5 -56.5t-131.5 -134.5z"/>
<glyph unicode="∫" horiz-adv-x="963" d="M-11 -257l9 35q6 38 48 31q26 -4 67.5 -9t62.5 -5q37 0 69.5 15.5t56 57t41 111t26.5 180.5q19 257 20 798q0 110 8.5 237.5t43.5 236t104.5 180t190.5 71.5q37 0 83.5 -7.5t85.5 -25.5q25 -10 17 -40l-8 -35q-5 -21 -15.5 -26t-32.5 0q-26 4 -67 7t-63 3 q-37 0 -69.5 -17t-56.5 -60.5t-41.5 -116t-25.5 -183.5q-5 -61 -6 -161t-1 -212t-1 -222t-5 -193q-4 -78 -9 -162t-16.5 -164t-32 -153t-59 -127t-95.5 -85.5t-142 -31.5q-37 0 -83.5 7.5t-86.5 24.5q-24 11 -17 41z"/>
<glyph unicode="≈" d="M160 475.5q3 11.5 5 15.5q46 99 117.5 134t131.5 35q52 0 107 -18.5t106.5 -41t99.5 -41t87 -18.5q50 0 79 19.5t58 58.5q6 9 17 17t28 -2l44 -27q19 -10 17 -19.5t-4 -16.5q-88 -173 -254 -173q-45 0 -97.5 19.5t-104.5 42t-101 42.5t-90 20t-70.5 -15.5t-76.5 -74.5 q-7 -4 -14 -11t-26 4l-43 29q-19 10 -16 21.5zM160 790q3 11 5 16q46 99 117.5 134t131.5 35q52 0 107 -18.5t106.5 -41t99.5 -41.5t87 -19q50 0 79 20t58 59q6 8 17 16.5t28 -1.5l44 -27q19 -10 17 -19.5t-4 -16.5q-88 -174 -254 -174q-45 0 -97.5 20t-104.5 42.5 t-101 41.5t-90 19t-70.5 -14.5t-76.5 -73.5q-7 -4 -14 -11t-26 4l-43 28q-19 11 -16 22z"/>
<glyph unicode="≠" d="M180 493v78q0 29 31 28h243l147 215h-390q-13 0 -22 4.5t-9 22.5v77q0 29 31 29h481l159 232q11 17 17 25t25 8h77q35 0 14 -33l-159 -232h171q31 0 31 -29v-77q0 -27 -31 -27h-262l-146 -215h408q31 0 31 -28v-78q0 -27 -31 -27h-499l-147 -216q-17 -31 -39 -31h-81 q-13 0 -18 7.5t5 23.5l148 216h-154q-31 0 -31 27z"/>
<glyph unicode="≤" d="M180 56v76q0 17 6.5 23t22.5 6h785q17 0 25 -6t8 -23v-76q0 -26 -33 -25h-785q-29 0 -29 25zM180 671v67q0 17 5.5 23.5t15.5 13.5l793 383q27 14 27 -18v-106q0 -17 -8 -24t-19 -14l-607 -286v-6l609 -290q13 -6 20 -13.5t7 -25.5v-112q0 -31 -24 -16l-794 385 q-11 4 -18 11.5t-7 27.5z"/>
<glyph unicode="≥" d="M180 56v76q0 17 7.5 23t25.5 6h786q14 0 21 -6t7 -23v-76q0 -26 -28 -25h-786q-33 0 -33 25zM180 263v112q0 17 6.5 25t20.5 14l609 290v6l-607 286q-11 7 -19 13t-8 25v106q0 32 27 18l792 -383q10 -7 16 -13t6 -24v-67q0 -19 -7 -27t-17 -12l-794 -385q-25 -15 -25 16z "/>
<glyph unicode="◊" horiz-adv-x="1180" d="M91 699q-10 19 0 39l419 725q6 10 13 16t22 6h120q24 0 37 -24l388 -723q6 -11 4 -19.5t-6 -19.5l-386 -718q-13 -24 -37 -24h-118q-11 0 -20 4t-17 20zM276 712l327 -571l306 571q3 7 0 15l-304 574l-329 -574q-5 -6 0 -15z"/>
<glyph unicode="◼" horiz-adv-x="1052" d="M0 0v1053h1053v-1053h-1053z"/>
</font>
</defs>
</svg>
