<?xml version="1.0" encoding="UTF-8" standalone="no"?>
<svg width="22px" height="22px" viewBox="0 0 22 22" version="1.1" xmlns="http://www.w3.org/2000/svg" xmlns:xlink="http://www.w3.org/1999/xlink">
    <!-- Generator: Sketch 41.1 (35376) - http://www.bohemiancoding.com/sketch -->
    <title>Combined Shape</title>
    <desc>Created with Sketch.</desc>
    <defs></defs>
    <g id="Page-1" stroke="none" stroke-width="1" fill="none" fill-rule="evenodd">
        <g id="PLANS" transform="translate(-453.000000, -2304.000000)" fill="#FEFA53">
            <g id="Galaxy" transform="translate(150.000000, 1829.000000)">
                <g id="Illustration" transform="translate(109.000000, 110.000000)">
                    <path d="M214.879517,379.813093 C214.882846,379.694451 214.884521,379.575396 214.884521,379.45595 C214.884521,372.55239 209.288081,366.95595 202.384521,366.95595 C195.480962,366.95595 189.884521,372.55239 189.884521,379.45595 C189.884521,379.575396 189.886197,379.694451 189.889525,379.813093 L196.561942,379.813093 C196.554807,379.694959 196.551188,379.575877 196.551188,379.45595 C196.551188,376.234289 199.16286,373.622616 202.384521,373.622616 C205.606182,373.622616 208.217855,376.234289 208.217855,379.45595 C208.217855,379.575877 208.214235,379.694959 208.207101,379.813093 L214.879517,379.813093 Z" id="Combined-Shape" transform="translate(202.384521, 373.384521) rotate(-45.000000) translate(-202.384521, -373.384521) "></path>
                </g>
            </g>
        </g>
    </g>
</svg>
