<svg xmlns="http://www.w3.org/2000/svg" xmlns:xlink="http://www.w3.org/1999/xlink" version="1.1" x="0px" y="0px" viewBox="0 0 90 112.5" enable-background="new 0 0 90 90" xml:space="preserve"><path fill="#fff" d="M69.248,22.822c-0.727-0.221-1.434-1.153-2.148-2.053c-1.924-2.423-4.115-3.858-8.455-4.67  c-1.197-0.226-2.42-0.527-3.623-0.956c-1.297-0.463-2.021-1.024-2.863-1.676c-1.859-1.438-5.035-3.168-11.385-3.155  c-5.232,0.01-8.938,2.312-11.166,4.547c-2.047,2.055-2.096,4.262-2.77,4.314c-4.925,0.379-10.196,1.854-12.385,6.539  c-1.485,3.179-4.435,4.521-4.266,10.105c0.221,7.268,5.874,10.862,12.326,12.463c5.316,1.318,11.933,2.963,19.7,9.123  c3.217,2.555,6.847,3.99,10.802,4.28c3.174,17.559,4.025,17.739,5.098,17.967l0.354,0.037c1.521,0,2.99-1.067,5.607-14.143  c0.445-2.248,0.855-3.498,1.203-5.508c4.42-1.295,8.377-4.029,10.986-7.321c2.623-3.31,3.063-8.628,3.381-11.782  c0.086-0.837,0.145-1.701,0.166-2.579C79.979,31.338,77.939,25.445,69.248,22.822z M14.895,30.49  c0.144,8.4,9.943,11.358,16.81,13.683c1.164,0.396,1.661-1.441,0.506-1.832c-5.446-1.844-11.737-4.242-14.728-9.502  c-4.602-8.091,5.97-11.67,11.742-8.955c2.019,0.95,5.188,5.861,12.299,6.787c1.211,0.158,1.708-1.599,0.505-1.832  c-5.005-0.973-15.873-7.527-10.879-11.968c2.203-1.957,5.256-3.855,9.624-4.024c3.896-0.15,8.223,1.379,9.832,2.627  c0.588,0.455,6.619,5.15,8.666,12.999c0.309,1.186,2.092,0.69,1.832-0.505c-0.777-3.576-2.297-6.908-4.525-9.742  c0.514,0.124,4.887,0.336,8.186,3.495c3.84,3.676,2.029,11.589-2.016,13.9c-4.455,2.55-8.635-0.985-10.637-4.812  c-0.064-0.121-2.848-7.918-10.47-10.468c-1.155-0.386-2.063,1.114-0.96,1.644c4.683,2.237,13.098,8.47,8.291,14.239  c-5.489,6.591-15.688,0.298-19.264-5.108c-0.672-1.018-2.321-0.066-1.643,0.96c3.134,4.735,9.999,9.482,16.06,8.755  c0.486-0.057,1.599,0.053,1.772,0.181c3.391,2.545,2.885,8.067-0.714,9.574c-6.127,2.566-12.314-2.347-22.06-4.765  C9.507,42.442,13.904,32.153,14.895,30.49z M74.279,50.143c-2.313,2.915-9.057,11.681-22.84,2.831  c-1.033-0.663-1.541,1.184-0.504,1.832c3.752,2.344,7.258,4.207,11.752,4.305c-0.326,1.871-0.691,3.886-1.098,5.94  c-1.344,6.705-2.316,9.749-2.902,11.123c-0.559-1.829-1.592-6.079-3.354-15.93l-0.184-1.022l-1.037-0.023  c-3.797-0.083-7.27-1.355-10.325-3.779c-1.144-0.905-2.262-1.702-3.363-2.438c2.915,0.376,5.694,0.063,7.935-2.69  c0.775-0.953,1.23-2.037,1.451-3.158c3.076,3.966,8.588,6.134,13.445,6.281c1.227,0.038,1.225-1.862,0-1.9  c-4.26-0.131-8.236-1.822-11.277-4.807c-1.621-1.589-2.783-3.622-2.559-5.859c0.199-1.978,2.893-2.45,5.904-2.609  c3.012-0.155,5.168,0.768,7.824-0.707c4.502-2.5,6.533-6.956,6.213-11.768c1.127,0.139,1.842,0.534,2.504,0.998  c0.955,0.668,1.881,1.834,1.871,1.913c-0.324,3.794-1.922,6.599-4.287,8.381c-0.973,0.732,0.332,2.039,1.342,1.347  c3.395-2.324,4.055-4.382,4.887-8.183c1.346,1.584,2.02,5.267,1.406,6.774c-2.725,6.685-13.465,10.187-19.291,5.281  c-0.932-0.781-2.283,0.554-1.346,1.347c6.08,5.115,15.973,2.785,20.693-3.163c-0.008,0.071-0.008,0.148-0.016,0.218  C76.836,43.521,76.441,47.415,74.279,50.143z"/></svg>
