<svg xmlns="http://www.w3.org/2000/svg" xmlns:xlink="http://www.w3.org/1999/xlink" viewBox="0 0 62 42">
<path fill="#fff" d="M46.5,42C38,42,31,32.58,31,21S38,0,46.5,0,62,9.42,62,21,55,42,46.5,42Zm0-39C39.61,3,34,11.07,34,21s5.61,18,12.5,18c6.06,0,11.13-6.25,12.26-14.5A8.5,8.5,0,1,1,59,22c0-.32,0-0.63,0-1C59,11.07,53.39,3,46.5,3Zm4,14A5.5,5.5,0,1,0,56,22.5,5.51,5.51,0,0,0,50.5,17Zm-35,25C7,42,0,32.58,0,21S7,0,15.5,0,31,9.42,31,21,24,42,15.5,42Zm0-39C8.61,3,3,11.07,3,21S8.61,39,15.5,39c6.06,0,11.13-6.25,12.26-14.5A8.5,8.5,0,1,1,28,22c0-.32,0-0.63,0-1C28,11.07,22.39,3,15.5,3Zm4,14A5.5,5.5,0,1,0,25,22.5,5.51,5.51,0,0,0,19.5,17Z"></path>
</svg>
