<svg xmlns="http://www.w3.org/2000/svg" xmlns:xlink="http://www.w3.org/1999/xlink" version="1.1" x="0px" y="0px" viewBox="0 0 91 113.75" style="enable-background:new 0 0 91 91;" xml:space="preserve"><g><path fill="#fff" d="M22,64.6c0.2,0.4,0.4,0.7,0.6,1.1c1.6,3,3.8,7.1,10.4,9.1c2.1,0.6,2.1,1.8,2.1,1.9c0,0.1,0,0.2,0,0.3v2.5   c0,0.9,0.8,1.7,1.7,1.7s1.7-0.8,1.7-1.7v-2.3c0.2-1.5-0.5-4.4-4.5-5.6c-5.3-1.6-7-4.7-8.4-7.4c-0.2-0.4-0.4-0.8-0.7-1.2   c-1.1-1.9-5.3-14.5-7.9-22.6c-0.1-0.3-0.6-2.1,0.8-2.7c2.2-1,3.5,0.5,3.8,0.9l6,11.6c0,0,0,0.1,0.1,0.1c0.2,0.3,1.2,1.7,2.7,2   c-0.3,0.7-0.6,1.2-1.1,1.3c-0.9,0.3-1.3,1.3-1,2.2c0.3,0.7,0.9,1.1,1.6,1.1c0.2,0,0.4,0,0.6-0.1c3.8-1.4,3.8-7,3.8-8.8c0,0,0,0,0,0   l0.9-35.4c0-1.7,1.4-3.2,3.2-3.2s3.2,1.4,3.2,3.2v23v1.7c0,0.9,0.8,1.7,1.7,1.7s1.7-0.8,1.7-1.7v-1.7c0-1.7,1.4-3.2,3.2-3.2   s3.2,1.4,3.2,3.2v1.2v0.5v1.2c0,0.9,0.8,1.7,1.7,1.7s1.7-0.8,1.7-1.7v-1.2v-0.5c0-1.7,1.4-3.2,3.2-3.2s3.2,1.4,3.2,3.2v3.7V41v1.1   c0,0.9,0.8,1.7,1.7,1.7s1.7-0.8,1.7-1.7V41v-0.6c0-1.7,1.4-3.2,3.2-3.2s3.2,1.4,3.2,3.2V44l-1.3,19.6c0,0,0,0.1,0,0.1   c0,0,0,4.8-2.9,6.5c-0.3,0.2-3.2,2-3.5,5L62.9,79c0,0.9,0.7,1.7,1.6,1.8c0,0,0.1,0,0.1,0c0.9,0,1.6-0.7,1.7-1.6l0.2-3.6   c0.1-1,1.4-2.1,1.9-2.4c4.4-2.5,4.6-8.6,4.6-9.3l1.3-19.6c0,0,0-0.1,0-0.1v-3.7c0-3.6-2.9-6.5-6.5-6.5c-1.3,0-2.4,0.4-3.4,1   c-0.8-2.7-3.3-4.7-6.3-4.7c-1.7,0-3.2,0.6-4.3,1.6c-1.2-1.7-3.2-2.9-5.4-2.9c-1.2,0-2.2,0.3-3.2,0.8V12.5c0-3.6-2.9-6.5-6.5-6.5   c-3.6,0-6.5,2.9-6.5,6.5l-0.9,35.9c-0.1,0.1-0.1,0.3-0.2,0.4c-0.1-0.1-0.1-0.2-0.2-0.2l-6-11.6c0-0.1-0.1-0.1-0.1-0.2   c-1-1.5-4-4-8.1-2.1c-3.4,1.5-3.2,5.1-2.6,6.8C14.4,43.4,20.4,61.9,22,64.6z"/></g></svg>
