<svg xmlns="http://www.w3.org/2000/svg" xmlns:xlink="http://www.w3.org/1999/xlink" version="1.1" x="0px" y="0px" viewBox="0 0 100 125" enable-background="new 0 0 100 100" xml:space="preserve"><path fill="#265cdc" d="M96.876,43.87c-3.32,2.007-7.01,3.49-11.018,4.455c-3.87-2.806-8.806-4.355-13.952-4.355c-7.37,0-13.992,3.126-17.822,8.042  c-2.257-1.253-4.828-1.917-7.497-1.917c-5.476,0-10.326,2.807-12.744,7.033c-0.034-0.005-0.068-0.011-0.103-0.015  c0.006-0.051,0.021-0.097,0.025-0.147c0.233-2.355-0.269-3.585-0.712-4.671c-0.531-1.298-1.028-2.533-0.046-6.312  c1.737-6.698,5.384-14.698,9.37-16.621l-0.015-0.031c0.574-0.256,1.802-0.014,3.104,0.25c1.438,0.291,3.073,0.628,4.861,0.548  c1.865-0.12,4.024-0.742,5.923-1.705c0.737-0.375,1.478-0.436,2.353-0.157c0.378,0.119,0.766,0.242,1.476,0.406  c0.392,0.09,0.761,0.103,1.214,0.029c1.371-0.224,3.078-0.501,3.883-1.816c0.456-0.748,0.512-1.674,0.163-2.751l-0.74-1.553  c0.675-0.863,0.817-2.03,0.373-3.046c-0.518-1.178-1.249-2.47-1.955-3.72c-0.432-0.763-0.857-1.515-1.219-2.215  c-1.676-3.253-5.204-4.924-8.789-4.159c-16.365,3.503-20.623,9.736-25.553,16.954c-0.523,0.765-1.055,1.544-1.612,2.335  c-1.519,2.155-2.854,3.577-4.267,5.081c-2.845,3.028-5.787,6.16-10.553,15.422l-0.63,1.222c-5.089,9.872-9.484,18.398-8.021,24.256  c0.582,2.332,2.994,4.638,6.975,6.667c11.969,6.103,34.51,8.077,54.436,0.046c0.461-0.188,0.968-0.021,1.229,0.403l5.478,8.915  l1.703-1.047l-5.478-8.915c-0.769-1.252-2.316-1.761-3.681-1.212c-21.652,8.727-43.425,4.797-52.78,0.028  c-3.352-1.709-5.518-3.666-5.943-5.37c-1.279-5.127,3.16-13.738,7.86-22.856l0.63-1.221c4.638-9.014,7.481-12.041,10.232-14.969  c1.398-1.488,2.845-3.027,4.443-5.298c0.563-0.8,1.101-1.587,1.629-2.359c4.882-7.146,8.737-12.791,24.32-16.127  c2.685-0.576,5.335,0.68,6.594,3.12c0.372,0.722,0.81,1.497,1.255,2.284c0.683,1.206,1.388,2.453,1.864,3.538  c0.151,0.346,0.107,0.724-0.117,1.011c-0.474,0.607-0.56,1.414-0.225,2.107l0.658,1.354c0.101,0.334,0.176,0.764,0.013,1.03  c-0.325,0.532-1.581,0.736-2.552,0.894c-0.138,0.022-0.249,0.02-0.388-0.013c-0.636-0.146-0.984-0.257-1.407-0.391  c-1.295-0.413-2.566-0.309-3.776,0.308c-1.666,0.845-3.543,1.389-5.123,1.491c-1.519,0.058-3.032-0.243-4.361-0.512  c-1.96-0.396-3.657-0.73-4.87,0.22c-5.782,3.348-9.145,14.747-9.862,17.418h-0.001c-0.005,0.017-0.008,0.032-0.013,0.049  c-0.042,0.158-0.076,0.288-0.098,0.374l0.003,0.001c-1.077,4.271-0.44,5.848,0.181,7.37c0.406,0.996,0.758,1.856,0.573,3.718  c-0.125,1.264-0.564,2.305-1.382,3.274c-0.435,0.517-0.85,1.031-1.262,1.543c-1.733,2.153-3.371,4.187-6.174,5.833l1.014,1.725  c3.117-1.832,4.948-4.105,6.719-6.304c0.402-0.5,0.808-1.004,1.232-1.508c0.224-0.266,0.415-0.542,0.598-0.821  c-0.018,0.08-0.044,0.157-0.061,0.237l1.959,0.4c1.072-5.246,6.189-9.054,12.168-9.054c2.266,0,4.446,0.543,6.369,1.577  c-0.713,1.176-1.291,2.427-1.683,3.752l1.918,0.566c2.093-7.077,9.789-12.02,18.715-12.02c4.041,0,7.927,1.04,11.178,2.937  c-1.74,0.304-3.534,0.517-5.382,0.634l0.127,1.996c7.581-0.479,14.338-2.483,20.082-5.955L96.876,43.87z"/></svg>
