<svg xmlns="http://www.w3.org/2000/svg" xmlns:xlink="http://www.w3.org/1999/xlink" version="1.1" x="0px" y="0px" viewBox="0 0 100 125" enable-background="new 0 0 100 100" xml:space="preserve"><g><path fill-rule="evenodd" clip-rule="evenodd" fill="#265cdc" d="M42.077,27.771c3.263,0.301,6.527,1.529,9.643,3.005l8.137,3.854   c0.356,0.169,0.343,0.56,0.341,0.954c-0.012,1.905-0.796,3.608-2.415,5.096c-0.29,0.268-0.598,0.51-0.954,0.34l-8.209-3.888   C48,32.93,44.892,30.586,42.077,27.771L42.077,27.771z M65.447,40.747c-0.177-0.354-0.567-0.342-0.962-0.322   c-2.075,0.105-3.668,1.093-5.029,2.507c-0.272,0.285-0.497,0.608-0.32,0.961c2.049,4.117,5.746,10.331,6.07,14.709   c0.179,2.437-0.701,4.312-2.642,5.736c-0.693-0.694-1.388-1.388-2.082-2.083c-1.161-1.161,0.611-2.934,1.772-1.772l0.743,0.742   c0.378-0.746,0.492-1.575,0.425-2.491c-0.138-1.863-0.918-3.908-1.745-5.681c-2.318-0.085-4.556,0.785-6.198,2.427   c-1.621,1.623-2.433,3.758-2.433,5.889c0,0.982,0.172,1.966,0.517,2.898c0.56,1.518,1.283,2.357,2.413,3.487L80.79,92.567   C82.411,94.188,84.546,95,86.679,95c2.131,0,4.267-0.812,5.889-2.433C94.188,90.944,95,88.811,95,86.679   c0-2.133-0.812-4.268-2.433-5.889L73.842,62.063c-0.416,2.387-1.399,4.579-2.995,6.538l17.018,16.949   c1.519,1.514-0.772,3.812-2.296,2.294L68.666,71.001c-0.324-0.323-1.136-1.14-1.067-1.63c3.452-2.943,4.977-6.733,4.641-11.278   C71.802,52.162,68.127,46.131,65.447,40.747L65.447,40.747z M60.678,21.497c-0.893,0-1.624-0.73-1.624-1.623v-9.048   c0-0.893,0.731-1.623,1.624-1.623s1.623,0.73,1.623,1.623v9.048C62.301,20.767,61.57,21.497,60.678,21.497L60.678,21.497z    M69.825,23.947c-0.772-0.446-1.04-1.444-0.595-2.217l4.524-7.836c0.445-0.772,1.443-1.04,2.217-0.594   c0.771,0.446,1.04,1.444,0.593,2.217l-4.522,7.835C71.595,24.127,70.598,24.394,69.825,23.947L69.825,23.947z M76.521,30.644   c0.445,0.772,1.443,1.04,2.217,0.594l7.836-4.523c0.771-0.445,1.039-1.445,0.593-2.218c-0.445-0.773-1.443-1.04-2.216-0.594   l-7.836,4.523C76.342,28.872,76.074,29.871,76.521,30.644L76.521,30.644z M78.971,39.79c0-0.894,0.729-1.623,1.624-1.623h9.047   c0.894,0,1.623,0.729,1.623,1.623c0,0.893-0.73,1.623-1.623,1.623h-9.047C79.7,41.413,78.971,40.683,78.971,39.79L78.971,39.79z    M76.521,48.937c0.445-0.773,1.443-1.04,2.217-0.595l7.836,4.524c0.772,0.446,1.04,1.444,0.593,2.217   c-0.444,0.772-1.444,1.04-2.216,0.595l-7.836-4.524C76.342,50.707,76.074,49.709,76.521,48.937L76.521,48.937z M51.531,23.947   c-0.772,0.445-1.771,0.178-2.217-0.595l-4.524-7.835c-0.445-0.773-0.18-1.771,0.595-2.217c0.771-0.445,1.771-0.178,2.217,0.594   l4.524,7.836C52.572,22.504,52.305,23.501,51.531,23.947L51.531,23.947z M19.199,7.42c-3.228-3.227-8.55-3.227-11.778,0   c-3.227,3.229-3.227,8.551,0,11.779l18.401,18.399c0.633-2.288,1.745-4.425,3.282-6.269L12.201,14.486   c-1.52-1.515,0.772-3.813,2.294-2.295l16.903,16.844c0.326,0.324,1.054,1.05,0.962,1.552c-3.413,2.84-5.364,7.098-5.364,11.537   c0,3.86,1.466,7.723,4.399,10.655l15.775,15.775c3.031,3.032,7.183,4.604,11.457,4.379c-2.974-2.973-6.681-5.768-7.277-10.203   L36.397,47.777c-1.552-1.552-2.328-3.602-2.328-5.653c0-2.467,1.229-5.131,3.349-6.478l2.087,2.086   c1.161,1.161-0.612,2.934-1.773,1.772l-0.837-0.837c-0.677,1.015-1.039,2.214-1.039,3.456c0,1.649,0.637,3.222,1.804,4.39   l0.409,0.409c0.184,0.013,0.366,0.018,0.549,0.018c2.133,0,4.266-0.811,5.889-2.433c1.622-1.621,2.433-3.758,2.433-5.889   c0-2.609-1.072-4.528-2.762-6.218L19.199,7.42z"/></g></svg>
