<svg xmlns="http://www.w3.org/2000/svg" xmlns:xlink="http://www.w3.org/1999/xlink" version="1.1" x="0px" y="0px" viewBox="0 0 100 125" style="enable-background:new 0 0 100 100;" xml:space="preserve"><g><path fill="#0084ff" d="M56.2,68.6l-0.5,1.9c-1.8,0.7-3.3,1.3-4.4,1.6s-2,0.4-2.8,0.4c-1.6,0-2.8-0.4-3.6-1.3c-0.8-0.8-1.2-1.9-1.2-3.1   c0-0.5,0-0.9,0.1-1.4c0.1-0.5,0.2-1.1,0.4-1.9L47.4,52c0.2-0.7,0.3-1.5,0.5-2.3c0.2-0.8,0.2-1.5,0.2-2.1c0-1.1-0.2-1.9-0.6-2.2   c-0.4-0.4-1.1-0.6-2.3-0.6c-0.4,0-1,0.1-1.8,0.2c-0.7,0.1-1.3,0.3-1.7,0.4l0.5-1.9c1.6-0.7,3-1.2,4.2-1.6c1.2-0.3,2.2-0.5,3-0.5   c1.6,0,2.8,0.4,3.6,1.2c0.7,0.8,1.1,1.8,1.1,3.2c0,0.4,0,0.9-0.1,1.5c-0.1,0.6-0.2,1.2-0.4,1.9L50.4,62c-0.2,0.8-0.4,1.6-0.5,2.3   c-0.1,0.8-0.2,1.4-0.2,1.9c0,1.1,0.3,1.9,0.8,2.4c0.5,0.4,1.3,0.6,2.5,0.6c0.4,0,0.9,0,1.6-0.2S55.8,68.8,56.2,68.6z M58.3,30.1   c0,1.1-0.4,2.1-1.1,3c-0.7,0.9-1.7,1.3-2.8,1.3c-1,0-1.9-0.4-2.7-1.2c-0.7-0.8-1.1-1.7-1.1-2.8c0-1.1,0.4-2.1,1.1-2.9   c0.7-0.8,1.6-1.2,2.7-1.2c1.1,0,2.1,0.4,2.8,1.2C58,28.2,58.3,29.1,58.3,30.1z"/></g></svg>
