<svg xmlns="http://www.w3.org/2000/svg" viewBox="0 0 64 64">
    <path fill="#0084ff" d="M 31.951172 0 C 20.949172 0 12 8.9491719 12 19.951172 C 12 27.105172 16.307187 33.560531 20.867188 40.394531 C 25.325187 47.073531 29.934078 53.979 30.955078 62.125 C 31.017078 62.625 31.443266 63 31.947266 63 C 32.451266 63 32.877453 62.625 32.939453 62.125 C 33.962453 53.98 38.57425 47.074484 43.03125 40.396484 C 47.59325 33.562484 51.902344 27.106172 51.902344 19.951172 C 51.902344 8.9491719 42.952172 0 31.951172 0 z M 31.951172 2 C 41.849172 2 49.902344 10.052172 49.902344 19.951172 C 49.902344 26.500172 45.757187 32.711109 41.367188 39.287109 C 37.655187 44.847109 33.843219 50.559562 31.949219 57.101562 C 30.056219 50.559562 26.24225 44.843203 22.53125 39.283203 C 18.14425 32.708203 14 26.499172 14 19.951172 C 14 10.052172 22.053172 2 31.951172 2 z M 5.0253906 7.5117188 C 4.6367031 7.5184219 4.2665781 7.7527187 4.1113281 8.1367188 C 3.9043281 8.6487188 4.1510625 9.2324531 4.6640625 9.4394531 L 8.3730469 10.9375 C 8.4950469 10.9865 8.6230469 11.009766 8.7480469 11.009766 C 9.1440469 11.009766 9.5187812 10.773766 9.6757812 10.384766 C 9.8827812 9.8727656 9.6340937 9.2890312 9.1210938 9.0820312 L 5.4121094 7.5839844 C 5.2853594 7.5327344 5.1549531 7.5094844 5.0253906 7.5117188 z M 58.976562 7.5117188 C 58.846828 7.5094844 58.715141 7.5327344 58.587891 7.5839844 L 54.878906 9.0820312 C 54.365906 9.2890313 54.117219 9.8727656 54.324219 10.384766 C 54.481219 10.773766 54.855953 11.009766 55.251953 11.009766 C 55.376953 11.009766 55.504953 10.9865 55.626953 10.9375 L 59.335938 9.4394531 C 59.848937 9.2324531 60.095672 8.6487188 59.888672 8.1367188 C 59.734172 7.7527187 59.365766 7.5184219 58.976562 7.5117188 z M 30.861328 10.029297 C 29.720328 10.159297 28.617078 10.484141 27.580078 10.994141 C 22.633078 13.428141 20.587531 19.431859 23.019531 24.380859 C 24.756531 27.913859 28.314766 29.966797 32.009766 29.966797 C 33.488766 29.966797 34.989297 29.636406 36.404297 28.941406 C 40.736297 26.811406 42.930141 21.898766 41.619141 17.259766 C 41.470141 16.726766 40.911719 16.419406 40.386719 16.566406 C 39.854719 16.716406 39.544312 17.269781 39.695312 17.800781 C 40.743313 21.510781 38.989438 25.440531 35.523438 27.144531 C 31.566437 29.089531 26.760453 27.455094 24.814453 23.496094 C 22.868453 19.538094 24.504891 14.733109 28.462891 12.787109 C 29.292891 12.378109 30.176891 12.119625 31.087891 12.015625 C 31.636891 11.952625 32.029797 11.456203 31.966797 10.908203 C 31.904797 10.359203 31.400328 9.9622969 30.861328 10.029297 z M 35.285156 10.599609 C 34.895531 10.608562 34.529203 10.844219 34.376953 11.230469 C 34.173953 11.744469 34.4245 12.326297 34.9375 12.529297 C 35.9135 12.915297 36.788062 13.477219 37.539062 14.199219 C 37.733063 14.386219 37.982422 14.478516 38.232422 14.478516 C 38.495422 14.478516 38.756125 14.375875 38.953125 14.171875 C 39.336125 13.773875 39.325734 13.140812 38.927734 12.757812 C 37.988734 11.854812 36.894781 11.151922 35.675781 10.669922 C 35.547531 10.619422 35.415031 10.596625 35.285156 10.599609 z M 32 14 C 28.691 14 26 16.691 26 20 C 26 23.309 28.691 26 32 26 C 35.309 26 38 23.309 38 20 C 38 16.691 35.309 14 32 14 z M 32 16 C 34.206 16 36 17.794 36 20 C 36 22.206 34.206 24 32 24 C 29.794 24 28 22.206 28 20 C 28 17.794 29.794 16 32 16 z M 1 18 C 0.447 18 0 18.448 0 19 C 0 19.552 0.447 20 1 20 L 7 20 C 7.553 20 8 19.552 8 19 C 8 18.448 7.553 18 7 18 L 1 18 z M 57 18 C 56.447 18 56 18.448 56 19 C 56 19.552 56.447 20 57 20 L 63 20 C 63.553 20 64 19.552 64 19 C 64 18.448 63.553 18 63 18 L 57 18 z M 8.7636719 26.990234 C 8.6339375 26.988047 8.5002969 27.011 8.3730469 27.0625 L 4.6640625 28.560547 C 4.1510625 28.767547 3.9043281 29.351281 4.1113281 29.863281 C 4.2683281 30.252281 4.6430625 30.488281 5.0390625 30.488281 C 5.1640625 30.488281 5.2901094 30.465016 5.4121094 30.416016 L 9.1210938 28.917969 C 9.6340937 28.710969 9.8827813 28.127234 9.6757812 27.615234 C 9.5212812 27.231234 9.152875 26.996797 8.7636719 26.990234 z M 55.238281 26.992188 C 54.849594 26.99875 54.479469 27.233188 54.324219 27.617188 C 54.117219 28.129188 54.365906 28.712922 54.878906 28.919922 L 58.587891 30.417969 C 58.709891 30.466969 58.835938 30.490234 58.960938 30.490234 C 59.356938 30.490234 59.731672 30.252281 59.888672 29.863281 C 60.095672 29.350281 59.848938 28.7695 59.335938 28.5625 L 55.626953 27.064453 C 55.500203 27.012953 55.367844 26.99 55.238281 26.992188 z"></path>
</svg>
