<svg xmlns="http://www.w3.org/2000/svg" xmlns:xlink="http://www.w3.org/1999/xlink" version="1.1" x="0px" y="0px" viewBox="0 0 60 75.05" enable-background="new 0 0 60 60.04" xml:space="preserve"><g><path fill="#ff7272" d="M39,12h2.07c0.18,1.46,0.76,2.79,1.62,3.9l-1.47,1.47c-0.39,0.39-0.39,1.02,0,1.41c0.2,0.2,0.45,0.29,0.71,0.29   s0.51-0.1,0.71-0.29l1.47-1.47c1.11,0.86,2.44,1.44,3.9,1.62V21c0,0.55,0.45,1,1,1s1-0.45,1-1v-2.07c1.46-0.18,2.79-0.76,3.9-1.62   l1.47,1.47c0.2,0.2,0.45,0.29,0.71,0.29s0.51-0.1,0.71-0.29c0.39-0.39,0.39-1.02,0-1.41l-1.47-1.47c0.86-1.11,1.44-2.44,1.62-3.9   H59c0.55,0,1-0.45,1-1s-0.45-1-1-1h-2.07c-0.18-1.46-0.76-2.79-1.62-3.9l1.47-1.47c0.39-0.39,0.39-1.02,0-1.41s-1.02-0.39-1.41,0   L53.9,4.69c-1.11-0.86-2.44-1.44-3.9-1.62V1c0-0.55-0.45-1-1-1s-1,0.45-1,1v2.07c-1.46,0.18-2.79,0.76-3.9,1.62l-1.47-1.47   c-0.39-0.39-1.02-0.39-1.41,0s-0.39,1.02,0,1.41l1.47,1.47c-0.86,1.11-1.44,2.44-1.62,3.9H39c-0.55,0-1,0.45-1,1S38.45,12,39,12z    M49,5c3.31,0,6,2.69,6,6s-2.69,6-6,6s-6-2.69-6-6S45.69,5,49,5z"/><path fill="#ff7272" d="M59,58H46.81c0.05-0.15,0.1-0.3,0.12-0.46c0.14-0.88-0.1-1.77-0.67-2.44c-0.57-0.67-1.41-1.06-2.29-1.06H23.42l-4.64-4.64   c5.11-0.79,11.94-2.49,16.37-6.13c0.55-0.45,0.85-1.15,0.82-1.86c-0.24-5-1.65-30.34-5.78-38.08C29.75,2.51,28.91,2,27.98,2   c-0.79,0-1.52,0.36-2,0.99c-3.42,4.47-14.6,20.93-14.97,45.07c0,0,0,0.01,0,0.01c0,0.03,0,0.06,0,0.09   c-0.01,0.5,0.18,0.97,0.53,1.33s0.82,0.55,1.32,0.55l0.11,0c0.71-0.04,1.76-0.12,3.04-0.26v4.27h-5.92   c-0.37-0.09-1.94-0.49-7.56-1.94L2.13,52l-0.8,0l-0.52,1.28L5.98,58H1c-0.55,0-1,0.45-1,1s0.45,1,1,1h8.23   c0.37,0.04,0.67,0.04,0.74,0.04h33.89c0.15,0,0.31-0.02,0.46-0.04H59c0.55,0,1-0.45,1-1S59.55,58,59,58z M33.88,41.72   c-5.42,4.46-14.97,5.81-19.49,6.2l19.39-9.7c0.1,1.61,0.16,2.77,0.18,3.27C33.97,41.59,33.94,41.67,33.88,41.72z M19.7,17.75   l10.97-6.36c0.2,0.92,0.38,1.89,0.56,2.89l-12.96,6.91C18.74,19.99,19.21,18.84,19.7,17.75z M17.25,23.97   c0.08-0.02,0.15-0.05,0.22-0.09l14.1-7.52c0.16,0.99,0.3,2,0.44,3.01l-15.83,7.91C16.53,26.15,16.88,25.04,17.25,23.97z    M15.46,29.89l16.82-8.41c0.15,1.2,0.28,2.4,0.41,3.59c-0.04,0.01-0.08,0.01-0.12,0.03L14.6,33.61   C14.86,32.34,15.15,31.1,15.46,29.89z M14.15,35.97c0.09-0.01,0.19-0.02,0.28-0.06l18.48-8.75c0.1,1.07,0.2,2.11,0.29,3.13   l-19.6,9.33C13.76,38.37,13.94,37.15,14.15,35.97z M13.35,41.92c0.03-0.01,0.06-0.01,0.08-0.02l19.94-9.5   c0.11,1.32,0.2,2.56,0.27,3.67c-0.03,0.01-0.06,0.01-0.09,0.02l-20.5,10.25C13.11,44.85,13.21,43.37,13.35,41.92z M27.57,4.2   C27.7,4.03,27.88,4,27.98,4c0.09,0,0.32,0.03,0.44,0.26c0.66,1.24,1.25,3,1.77,5.09l-8.99,5.21C23.76,9.47,26.25,5.92,27.57,4.2z    M18,51.45l2.59,2.59H18V51.45z M8.86,57.92l-3.25-2.97c4.21,1.08,4.23,1.08,4.36,1.08h34c0.29,0,0.57,0.13,0.76,0.35   c0.19,0.23,0.27,0.52,0.22,0.82c-0.06,0.39-0.42,0.7-0.85,0.79H9.34C9.15,57.98,8.97,57.95,8.86,57.92z"/></g></svg>
