<svg xmlns="http://www.w3.org/2000/svg" xmlns:xlink="http://www.w3.org/1999/xlink" version="1.1" x="0px" y="0px" viewBox="0 0 64 80" enable-background="new 0 0 64 64" xml:space="preserve"><g><polygon fill="#c1a16b" points="26.497,19.13 31.218,19.13 35.061,13.695 31.329,10.565 26.497,10.565 22.159,13.859  "/><polygon fill="#c1a16b" points="26.413,19.99 19.059,54.106 28.61,62.995 38.16,54.618 31.214,19.99  "/><polygon fill="#c1a16b" points="47.55,39.337 33.076,24.555 34.613,32.331 45.163,43.108 47.857,42.339  "/><path fill="#c1a16b" d="M21.419,11.912l3.518-2.288c0,0-6.86-3.518-8.795-8.619C16.142,1.006,18.43,9.449,21.419,11.912z"/><path fill="#c1a16b" d="M41.229,1.006c-1.935,5.101-8.794,8.619-8.794,8.619l3.518,2.288C38.941,9.449,41.229,1.006,41.229,1.006z"/></g></svg>
