<svg xmlns="http://www.w3.org/2000/svg" xmlns:xlink="http://www.w3.org/1999/xlink" version="1.1" id="&#1057;&#1083;&#1086;&#1081;_1" x="0px" y="0px" viewBox="0 0 64 64" style="enable-background:new 0 0 64 64;" xml:space="preserve">
<linearGradient id="SVGID_1__44018" gradientUnits="userSpaceOnUse" x1="32" y1="8.6667" x2="32" y2="55.269" spreadMethod="reflect">
	<stop offset="0" style="stop-color:#ff7272"/>
	<stop offset="1" style="stop-color:#C822FF"/>
</linearGradient>
<path style="fill:url(#SVGID_1__44018);" d="M32,54C25.958,54,7,41.137,7,23c0-7.168,5.832-13,13-13c5.397,0,10.037,3.307,12,8  c1.963-4.693,6.603-8,12-8c7.168,0,13,5.832,13,13C57,41.137,38.042,54,32,54z M20,12c-6.065,0-11,4.935-11,11  c0,17.425,18.551,29,23,29s23-11.575,23-29c0-6.065-4.935-11-11-11s-11,4.935-11,11h-2C31,16.935,26.065,12,20,12z"/>
<line style="fill:#7933FF;" x1="44" y1="14" x2="44" y2="14"/>
<linearGradient id="SVGID_2__44018" gradientUnits="userSpaceOnUse" x1="48" y1="13.5" x2="48" y2="22.0797" spreadMethod="reflect">
	<stop offset="0" style="stop-color:#ff7272"/>
	<stop offset="1" style="stop-color:#E6ABFF"/>
</linearGradient>
<path style="fill:url(#SVGID_2__44018);" d="M52,22h-2c0-3.309-2.691-6-6-6v-2C48.411,14,52,17.589,52,22z"/>
</svg>
