<svg xmlns:dc="http://purl.org/dc/elements/1.1/" xmlns:cc="http://creativecommons.org/ns#" xmlns:rdf="http://www.w3.org/1999/02/22-rdf-syntax-ns#" xmlns:svg="http://www.w3.org/2000/svg" xmlns="http://www.w3.org/2000/svg" xmlns:sodipodi="http://sodipodi.sourceforge.net/DTD/sodipodi-0.dtd" xmlns:inkscape="http://www.inkscape.org/namespaces/inkscape" version="1.1" x="0px" y="0px" viewBox="0 0 100 125"><g transform="translate(0,-952.36218)"><path fill="#ab81cd" style="text-indent:0;text-transform:none;direction:ltr;block-progression:tb;baseline-shift:baseline;color:#000000;enable-background:accumulate;" d="m 37,966.36218 c -1.6447,0 -3,1.3553 -3,3 l 0,7 -16,0 c -5.5227,0 -10,4.4773 -10,10 l 0,42.00002 c 0,5.5227 4.4773,10 10,10 l 64,0 c 5.5227,0 10,-4.4773 10,-10 l 0,-42.00002 c 0,-5.5227 -4.4773,-10 -10,-10 l -16,0 0,-7 c 0,-1.6447 -1.3553,-3 -3,-3 l -26,0 z m 0,2 26,0 c 0.5713,0 1,0.4287 1,1 l 0,7 -28,0 0,-7 c 0,-0.5713 0.4287,-1 1,-1 z m -19,10 64,0 c 4.4493,0 8,3.5507 8,8 l 0,10.4063 c -8.5918,5.00242 -20.1671,8.46542 -33.125,9.37502 -0.5808,-3.2761 -3.4371,-5.7813 -6.875,-5.7813 -3.4383,0 -6.326,2.5046 -6.9062,5.7813 C 30.138,1005.2339 18.590499,1001.7705 10,996.76848 l 0,-10.4063 c 0,-4.4493 3.5507,-8 8,-8 z m -8,20.6875 c 8.8121,4.89842 20.2656,8.20922 33.0312,9.09382 0.3887,3.4913 3.3771,6.2187 6.9688,6.2187 3.592,0 6.5805,-2.7269 6.9688,-6.2187 12.7656,-0.8846 24.2191,-4.1954 33.0312,-9.09382 l 0,29.31252 c 0,4.4493 -3.5507,8 -8,8 l -64,0 c -4.4493,0 -8,-3.5507 -8,-8 l 0,-29.31252 z m 40,3.31252 c 2.7733,0 5,2.2268 5,5 0,2.7733 -2.2267,5 -5,5 -2.7733,0 -5,-2.2267 -5,-5 0,-2.7732 2.2267,-5 5,-5 z"/></g></svg>
