<?xml version="1.0" standalone="no"?>
<!DOCTYPE svg PUBLIC "-//W3C//DTD SVG 1.1//EN" "http://www.w3.org/Graphics/SVG/1.1/DTD/svg11.dtd" >
<svg>
<metadata>
Created by FontForge 20120731 at Sat Oct 29 05:24:56 2016
 By www-data
(c) 2012 Microsoft Corporation. All Rights Reserved.
</metadata>
<defs>
<font id="SegoeUI-Light" horiz-adv-x="0" >
  <font-face 
    font-family="SegoeUI-Light"
    font-weight="300"
    font-stretch="normal"
    units-per-em="2048"
    panose-1="2 11 5 2 4 2 4 2 2 3"
    ascent="1638"
    descent="-410"
    x-height="1024"
    cap-height="1434"
    bbox="-252 -481 2357 1884"
    underline-thickness="119"
    underline-position="-119"
    unicode-range="U+000D-2122"
  />
<missing-glyph horiz-adv-x="1322" 
d="M166 0v1398h990v-1398h-990zM314 148h694v1102h-694v-1102z" />
    <glyph glyph-name=".notdef" horiz-adv-x="1322" 
d="M166 0v1398h990v-1398h-990zM314 148h694v1102h-694v-1102z" />
    <glyph glyph-name="glyph1" 
 />
    <glyph glyph-name="uni000D" unicode="&#xd;" horiz-adv-x="199" 
 />
    <glyph glyph-name="space" unicode=" " horiz-adv-x="561" 
 />
    <glyph glyph-name="exclam" unicode="!" horiz-adv-x="582" 
d="M332 403h-86l-10 1031h106zM291 -18q-34 0 -57 23.5t-23 57.5q0 35 23 57.5t57 22.5t58 -22.5t24 -57.5q0 -34 -24 -57.5t-58 -23.5z" />
    <glyph glyph-name="quotedbl" unicode="&#x22;" horiz-adv-x="686" 
d="M511 985h-86v449h86v-449zM263 985h-86v449h86v-449z" />
    <glyph glyph-name="numbersign" unicode="#" horiz-adv-x="1237" 
d="M1128 946h-272l-76 -346h285l-18 -78h-283l-86 -399h-80l86 399h-268l-86 -399h-80l86 399h-283l19 78h280l76 346h-293l19 78h290l88 410h80l-88 -410h269l88 410h80l-89 -410h275zM508 946l-76 -346h268l76 346h-268z" />
    <glyph glyph-name="dollar" unicode="$" horiz-adv-x="1055" 
d="M567 4v-213h-78v209q-188 0 -327 80v102q152 -98 327 -98v598q-197 113 -262 194.5t-65 194.5q0 136 88 237t239 124v182h78v-180q152 0 260 -43v-103q-103 60 -260 60v-607q184 -101 255 -185.5t71 -199.5q0 -140 -85.5 -235t-240.5 -117zM489 1346q-107 -17 -169 -88
t-62 -175q0 -88 46 -152.5t185 -144.5v560zM567 635v-549q114 20 172 87.5t58 164.5q0 92 -48.5 156t-181.5 141z" />
    <glyph glyph-name="percent" unicode="%" horiz-adv-x="1606" 
d="M414 729q-154 0 -243 101t-89 262q0 175 94.5 272.5t247.5 97.5q150 0 238 -97t88 -271q0 -156 -91.5 -260.5t-244.5 -104.5zM422 1380q-115 0 -181.5 -76.5t-66.5 -213.5q0 -129 64.5 -205t177.5 -76q114 0 178.5 78t64.5 209q0 141 -64 212.5t-173 71.5zM416 -33h-99
l863 1465h96zM1198 -25q-153 0 -242.5 101t-89.5 262q0 177 96 274t246 97t238 -98t88 -271q0 -156 -91.5 -260.5t-244.5 -104.5zM1206 627q-114 0 -181 -78t-67 -213q0 -129 64.5 -205t177.5 -76q115 0 179.5 77.5t64.5 209.5q0 141 -64 213t-174 72z" />
    <glyph glyph-name="ampersand" unicode="&#x26;" horiz-adv-x="1427" 
d="M1260 0l-193 188q-201 -213 -479 -213q-211 0 -329 108.5t-118 276.5q0 276 332 424q-162 187 -162 342q0 139 98.5 235.5t254.5 96.5q143 0 225 -81.5t82 -207.5q0 -137 -83 -233.5t-261 -177.5q150 -159 440 -434q125 186 133 434h96q-7 -267 -166 -498
q171 -168 273 -262zM563 823q174 77 242.5 154t68.5 180q0 99 -63 158t-156 59q-113 0 -180 -72.5t-67 -177.5q0 -128 155 -301zM1006 250q-332 321 -469 469q-299 -130 -299 -352q0 -135 95.5 -221.5t262.5 -86.5q229 0 410 191z" />
    <glyph glyph-name="quotesingle" unicode="'" horiz-adv-x="438" 
d="M263 985h-86v449h86v-449z" />
    <glyph glyph-name="parenleft" unicode="(" horiz-adv-x="578" 
d="M453 -326q-303 354 -303 871q0 540 307 889h98q-313 -360 -313 -887q0 -497 309 -873h-98z" />
    <glyph glyph-name="parenleft" unicode="&#xfd3e;" horiz-adv-x="578" 
d="M453 -326q-303 354 -303 871q0 540 307 889h98q-313 -360 -313 -887q0 -497 309 -873h-98z" />
    <glyph glyph-name="parenright" unicode=")" horiz-adv-x="578" 
d="M125 -326h-98q309 376 309 873q0 527 -313 887h98q307 -351 307 -889q0 -519 -303 -871z" />
    <glyph glyph-name="parenright" unicode="&#xfd3f;" horiz-adv-x="578" 
d="M125 -326h-98q309 376 309 873q0 527 -313 887h98q307 -351 307 -889q0 -519 -303 -871z" />
    <glyph glyph-name="asterisk" unicode="*" horiz-adv-x="831" 
d="M469 1051l199 -267l-76 -51l-174 277l-178 -277l-74 51l199 267l-295 75l26 86l289 -102l-16 324h94l-14 -324l286 102l27 -86z" />
    <glyph glyph-name="plus" unicode="+" horiz-adv-x="1331" 
d="M709 555v-412h-84v412h-412v84h412v412h84v-412h411v-84h-411z" />
    <glyph glyph-name="comma" unicode="," horiz-adv-x="455" 
d="M125 -248h-78l150 475h102z" />
    <glyph glyph-name="hyphen" unicode="-" horiz-adv-x="815" 
d="M145 555v90h547v-90h-547z" />
    <glyph glyph-name="hyphen" unicode="&#x2010;" horiz-adv-x="815" 
d="M145 555v90h547v-90h-547z" />
    <glyph glyph-name="period" unicode="." horiz-adv-x="455" 
d="M227 -18q-34 0 -57 23.5t-23 57.5q0 35 23 57.5t57 22.5t58 -22.5t24 -57.5q0 -34 -24 -57.5t-58 -23.5z" />
    <glyph glyph-name="slash" unicode="/" horiz-adv-x="750" 
d="M63 -238h-92l693 1672h96z" />
    <glyph glyph-name="zero" unicode="0" horiz-adv-x="1055" 
d="M516 -25q-198 0 -310 182t-112 529q0 383 117.5 577.5t335.5 194.5q414 0 414 -735q0 -366 -117 -557t-328 -191zM539 1374q-165 0 -257 -169t-92 -507q0 -308 88 -473.5t250 -165.5q159 0 247.5 168.5t88.5 481.5q0 665 -325 665z" />
    <glyph glyph-name="one" unicode="1" horiz-adv-x="730" 
d="M526 1466v-1466h-92v1321q-69 -66 -157.5 -114t-193.5 -85v84q63 21 117 47.5t103.5 58.5t96 70.5t94.5 83.5h32z" />
    <glyph glyph-name="two" unicode="2" horiz-adv-x="1055" 
d="M96 0v67q0 67 11 120.5t33.5 98.5t56 84.5t78 79t101 81t123.5 90.5q65 47 121.5 93t98.5 99t66.5 116.5t24.5 145.5q0 142 -78.5 220.5t-220.5 78.5q-96 0 -185 -42t-174 -117v108q82 63 177 99t198 36q86 0 156 -26t119.5 -74t76.5 -116t27 -152q0 -99 -28.5 -175.5
t-77.5 -139t-114.5 -115t-138.5 -104.5q-97 -69 -164 -122.5t-109 -104.5t-60.5 -105t-18.5 -125v-15h713v-84h-812z" />
    <glyph glyph-name="three" unicode="3" horiz-adv-x="1055" 
d="M115 51v105q164 -97 309 -97q173 0 271 88.5t98 231.5q0 159 -112.5 241t-320.5 82h-110v84h98q192 0 292.5 81.5t100.5 230.5q0 129 -73 202.5t-213 73.5q-135 0 -283 -94v98q162 80 297 80q170 0 269.5 -92t99.5 -244q0 -291 -279 -370v-4q150 -15 240 -111.5
t90 -243.5q0 -188 -130 -303t-337 -115q-160 0 -307 76z" />
    <glyph glyph-name="four" unicode="4" horiz-adv-x="1087" 
d="M826 1434v-976h224v-83h-224v-375h-92v375h-684v90q96 109 195 234.5t189.5 253.5t166.5 252t127 229h98zM156 458h578v812q-73 -126 -151.5 -244t-155 -222.5t-146.5 -192.5t-125 -153z" />
    <glyph glyph-name="five" unicode="5" horiz-adv-x="1055" 
d="M160 29v106q138 -76 274 -76q176 0 275 97t99 258q0 350 -399 350q-90 0 -206 -12l43 682h597v-84h-515l-33 -510q103 8 148 8q227 0 344 -111.5t117 -310.5q0 -201 -124 -326t-354 -125q-151 0 -266 54z" />
    <glyph glyph-name="six" unicode="6" horiz-adv-x="1055" 
d="M889 1423v-98q-102 49 -211 49q-107 0 -192 -52.5t-145 -147.5t-92 -226.5t-32 -290.5h4q105 240 359 240q88 0 160 -34t123.5 -94t79.5 -140.5t28 -173.5q0 -104 -31.5 -192t-88.5 -152t-135.5 -100t-172.5 -36q-99 0 -177 42.5t-132 125t-82.5 205t-28.5 281.5
q0 188 37 341t108.5 261.5t175 167.5t236.5 59q118 0 209 -35zM559 813q-71 0 -131.5 -29.5t-104.5 -78t-69 -110.5t-25 -126q0 -82 23 -156.5t65 -130.5t101.5 -89.5t132.5 -33.5q69 0 128.5 28.5t102.5 79t67.5 119.5t24.5 150q0 84 -21.5 153.5t-62.5 119t-99.5 77
t-131.5 27.5z" />
    <glyph glyph-name="seven" unicode="7" horiz-adv-x="1022" 
d="M293 0q31 185 84 357t123 337.5t153 328t175 327.5h-758v84h882v-34q-101 -185 -189 -356.5t-159.5 -340.5t-124.5 -341.5t-83 -361.5h-103z" />
    <glyph glyph-name="eight" unicode="8" horiz-adv-x="1055" 
d="M107 400q0 57 16.5 112.5t50 104.5t83.5 88t118 63q-50 24 -91 58t-70 75.5t-44.5 90t-15.5 100.5q0 79 28.5 146t78.5 116t119 76.5t149 27.5q81 0 150 -28t119 -77t78 -116t28 -145q0 -53 -15.5 -101t-43.5 -90t-68 -75.5t-89 -57.5q66 -24 115 -63t82 -88t49 -104.5
t16 -112.5q0 -100 -31 -178.5t-86.5 -133t-133 -83t-171.5 -28.5q-92 0 -169 28.5t-133 82.5t-87.5 132.5t-31.5 179.5zM202 390q0 -75 24 -136t66.5 -104.5t102 -67t131.5 -23.5q71 0 131 23.5t103.5 67t67.5 104.5t24 136q0 67 -23 127t-65.5 105t-103 71.5t-134.5 26.5
q-69 0 -128.5 -24.5t-103 -68t-68 -104.5t-24.5 -133zM252 1089q0 -60 21.5 -111.5t59 -89.5t88 -60t107.5 -22t108 22t88.5 60.5t59.5 90t22 110.5q0 61 -21.5 113t-59 90.5t-88 60t-109.5 21.5q-62 0 -112.5 -22.5t-87 -61t-56.5 -90.5t-20 -111z" />
    <glyph glyph-name="nine" unicode="9" horiz-adv-x="1055" 
d="M178 12v101q115 -54 211 -54q227 0 346 181.5t119 535.5h-4q-99 -231 -352 -231q-89 0 -161.5 33t-125 91.5t-81 139t-28.5 176.5q0 106 32.5 193t90.5 149t137.5 96.5t172.5 34.5q95 0 172 -40.5t131 -122t83 -203t29 -283.5q0 -200 -36.5 -355t-107.5 -261.5t-176 -162
t-243 -55.5q-107 0 -209 37zM522 1374q-70 0 -129.5 -28t-102.5 -77.5t-67 -117.5t-24 -147q0 -87 23.5 -156.5t65.5 -118t101 -74.5t131 -26q66 0 125 26.5t102.5 71t69 104t25.5 125.5q0 91 -23.5 168t-66 132.5t-101.5 86.5t-129 31z" />
    <glyph glyph-name="colon" unicode=":" horiz-adv-x="455" 
d="M227 881q-34 0 -57 24t-23 58t23 56.5t57 22.5t58 -22.5t24 -56.5t-24 -58t-58 -24zM227 -18q-34 0 -57 23.5t-23 57.5q0 35 23 57.5t57 22.5t58 -22.5t24 -57.5q0 -34 -24 -57.5t-58 -23.5z" />
    <glyph glyph-name="semicolon" unicode=";" horiz-adv-x="455" 
d="M236 881q-35 0 -57.5 24t-22.5 58t22.5 56.5t57.5 22.5q34 0 57.5 -22.5t23.5 -56.5t-23.5 -58t-57.5 -24zM125 -248h-78l150 475h102z" />
    <glyph glyph-name="less" unicode="&#x3c;" horiz-adv-x="1331" 
d="M250 580v18l833 467v-94l-677 -379v-4l677 -334v-96z" />
    <glyph glyph-name="equal" unicode="=" horiz-adv-x="1331" 
d="M213 750v84h907v-84h-907zM213 362v84h907v-84h-907z" />
    <glyph glyph-name="greater" unicode="&#x3e;" horiz-adv-x="1331" 
d="M250 158v96l678 334v4l-678 379v94l833 -467v-18z" />
    <glyph glyph-name="question" unicode="?" horiz-adv-x="881" 
d="M377 398q-10 25 -17.5 65.5t-7.5 80.5q0 47 12.5 85.5t35 72.5t54 66t69.5 65q32 29 63 60.5t55 67.5t38.5 78.5t14.5 93.5q0 55 -18.5 98.5t-51.5 74t-79.5 46.5t-102.5 16q-94 0 -173.5 -33t-149.5 -90v107q71 54 149.5 80t174.5 26q74 0 137.5 -21t110 -61.5t73 -99
t26.5 -133.5q0 -57 -16 -104t-41.5 -87t-58.5 -75t-67 -68q-53 -50 -86.5 -84.5t-52.5 -62.5t-26.5 -54.5t-7.5 -62.5q0 -46 8 -83.5t16 -63.5h-81zM412 -18q-34 0 -56.5 23.5t-22.5 57.5q0 35 22.5 57.5t56.5 22.5q35 0 58.5 -22.5t23.5 -57.5q0 -34 -23.5 -57.5
t-58.5 -23.5z" />
    <glyph glyph-name="at" unicode="@" horiz-adv-x="1933" 
d="M1153 426h-4q-90 -238 -293 -238q-140 0 -221.5 100.5t-81.5 268.5q0 227 114 378.5t300 151.5q78 0 137 -40t78 -93h4q4 61 10 119h88l-51 -584q0 -217 153 -217q124 0 204.5 125t80.5 322q0 299 -181 477t-507 178q-318 0 -518.5 -218t-200.5 -540q0 -327 191 -523.5
t520 -196.5q249 0 426 88v-93q-196 -79 -436 -79q-361 0 -579 223t-218 581q0 359 235.5 600.5t589.5 241.5q351 0 562.5 -206t211.5 -523q0 -237 -107.5 -389t-268.5 -152q-222 0 -238 238zM963 1004q-144 0 -229 -120t-85 -319q0 -135 57.5 -214t159.5 -79
q136 0 216.5 139t80.5 355q0 117 -53.5 177.5t-146.5 60.5z" />
    <glyph glyph-name="A" unicode="A" horiz-adv-x="1288" 
d="M1118 0l-164 446h-622l-164 -446h-109l541 1434h94l535 -1434h-111zM678 1200q-11 30 -18 59q-7 25 -15 50h-4q-17 -66 -33 -107l-241 -665h553z" />
    <glyph glyph-name="B" unicode="B" horiz-adv-x="1114" 
d="M184 0v1434h377q169 0 269 -91t100 -241q0 -125 -66.5 -216.5t-185.5 -129.5v-4q149 -14 235 -106.5t86 -235.5q0 -181 -117 -295.5t-313 -114.5h-385zM283 1343v-555h200q156 0 250 80t94 217q0 258 -305 258h-239zM283 698v-608h266q169 0 258.5 81t89.5 230
q0 297 -403 297h-211z" />
    <glyph glyph-name="C" unicode="C" horiz-adv-x="1272" 
d="M1137 47q-174 -72 -363 -72q-294 0 -479.5 197.5t-185.5 515.5q0 349 201 559.5t511 210.5q165 0 316 -53v-105q-151 68 -318 68q-270 0 -439 -183t-169 -487q0 -293 161.5 -462.5t409.5 -169.5q198 0 355 77v-96z" />
    <glyph glyph-name="D" unicode="D" horiz-adv-x="1380" 
d="M184 0v1434h359q357 0 543 -178t186 -519q0 -328 -199.5 -532.5t-550.5 -204.5h-338zM283 1343v-1253h225q319 0 490 165.5t171 477.5q0 610 -641 610h-245z" />
    <glyph glyph-name="E" unicode="E" horiz-adv-x="1024" 
d="M184 0v1434h670v-91h-571v-575h530v-90h-530v-588h604v-90h-703z" />
    <glyph glyph-name="F" unicode="F" horiz-adv-x="952" 
d="M283 1343v-585h530v-90h-530v-668h-99v1434h670v-91h-571z" />
    <glyph glyph-name="G" unicode="G" horiz-adv-x="1368" 
d="M1221 100q-222 -125 -457 -125q-293 0 -474 199t-181 522q0 326 195 544t521 218q189 0 367 -76v-108q-195 94 -381 94q-271 0 -435.5 -185t-164.5 -472q0 -302 154.5 -473.5t416.5 -171.5q194 0 340 84v473h-338v90h437v-613z" />
    <glyph glyph-name="H" unicode="H" horiz-adv-x="1386" 
d="M1104 0v688h-821v-688h-99v1434h99v-656h821v656h98v-1434h-98z" />
    <glyph glyph-name="I" unicode="I" horiz-adv-x="467" 
d="M184 0v1434h99v-1434h-99z" />
    <glyph glyph-name="J" unicode="J" horiz-adv-x="664" 
d="M487 494q0 -519 -360 -519q-56 0 -109 15v96q59 -20 111 -20q138 0 199 104.5t61 325.5v938h98v-940z" />
    <glyph glyph-name="K" unicode="K" horiz-adv-x="1079" 
d="M922 0l-611 686q-17 19 -24 33h-4v-719h-99v1434h99v-676h4q12 21 26 35l580 641h129l-629 -695l668 -739h-139z" />
    <glyph glyph-name="L" unicode="L" horiz-adv-x="938" 
d="M184 0v1434h99v-1344h575v-90h-674z" />
    <glyph glyph-name="M" unicode="M" horiz-adv-x="1706" 
d="M1427 0v1018q0 37 11 211h-4q-31 -81 -52 -125l-510 -1104h-32l-512 1098q-25 53 -47 135h-5q7 -96 7 -191v-1042h-99v1434h92l535 -1155q5 -10 11 -27t13 -34q10 -26 21 -58h6l11 32q1 4 34 95l527 1147h88v-1434h-95z" />
    <glyph glyph-name="N" unicode="N" horiz-adv-x="1452" 
d="M1198 0l-854 1159q-26 35 -46 70l-13 20h-4q2 -26 2 -63v-1186h-99v1434h76l848 -1149q28 -38 61 -92h5q-5 70 -5 120v1121h99v-1434h-70z" />
    <glyph glyph-name="O" unicode="O" horiz-adv-x="1559" 
d="M774 -25q-304 0 -484.5 202t-180.5 525q0 343 185.5 549.5t506.5 206.5q290 0 469.5 -198.5t179.5 -520.5q0 -356 -184 -560t-492 -204zM784 1368q-250 0 -411.5 -181t-161.5 -474q0 -296 153 -471.5t408 -175.5q266 0 421 173.5t155 483.5q0 304 -151.5 474.5
t-412.5 170.5z" />
    <glyph glyph-name="P" unicode="P" horiz-adv-x="1114" 
d="M283 575v-575h-99v1434h346q221 0 338 -102.5t117 -299.5q0 -200 -130.5 -328.5t-365.5 -128.5h-206zM283 1343v-677h204q194 0 295 92.5t101 261.5q0 323 -371 323h-229z" />
    <glyph glyph-name="Q" unicode="Q" horiz-adv-x="1544" 
d="M774 -25q-304 0 -484.5 202t-180.5 525q0 343 185.5 549.5t506.5 206.5q290 0 469.5 -198.5t179.5 -520.5q0 -356 -184 -560q-57 -64 -127 -107l348 -265h-167l-271 218q-122 -50 -275 -50zM784 1368q-250 0 -411.5 -181t-161.5 -474q0 -296 153 -471.5t408 -175.5
q266 0 421 173.5t155 483.5q0 304 -151.5 474.5t-412.5 170.5z" />
    <glyph glyph-name="R" unicode="R" horiz-adv-x="1137" 
d="M918 0l-191 420q-59 130 -118 174.5t-148 44.5h-178v-639h-99v1434h398q190 0 298.5 -102.5t108.5 -270.5q0 -155 -89 -259t-249 -134v-4q85 -34 166 -207l213 -457h-112zM283 1343v-614h247q164 0 260.5 86t96.5 236q0 137 -87 214.5t-249 77.5h-268z" />
    <glyph glyph-name="S" unicode="S" horiz-adv-x="1018" 
d="M139 51v113q154 -98 312 -98q168 0 255 69.5t87 194.5q0 110 -58.5 175.5t-253.5 178.5q-218 127 -276 212.5t-58 197.5q0 152 118 258t315 106q128 0 256 -43v-104q-126 57 -269 57q-146 0 -231.5 -74t-85.5 -188q0 -110 58.5 -175t252.5 -177q201 -114 267.5 -202.5
t66.5 -203.5q0 -165 -114.5 -269t-323.5 -104q-74 0 -170.5 23t-147.5 53z" />
    <glyph glyph-name="T" unicode="T" horiz-adv-x="1047" 
d="M573 1343v-1343h-98v1343h-414v91h926v-91h-414z" />
    <glyph glyph-name="U" unicode="U" horiz-adv-x="1327" 
d="M1161 573q0 -598 -510 -598q-485 0 -485 576v883h98v-869q0 -499 406 -499q393 0 393 485v883h98v-861z" />
    <glyph glyph-name="V" unicode="V" horiz-adv-x="1237" 
d="M639 0h-74l-524 1434h111l415 -1155q26 -72 37 -136h4q10 51 41 138l441 1153h106z" />
    <glyph glyph-name="W" unicode="W" horiz-adv-x="1833" 
d="M1362 0h-82l-319 1079q-24 83 -27 135h-4q-3 -44 -31 -133l-340 -1081h-82l-426 1434h111l327 -1149q22 -78 31 -127h4q6 37 35 127l354 1149h50l325 -1149q23 -80 31 -127h4q5 28 16 64l336 1212h107z" />
    <glyph glyph-name="X" unicode="X" horiz-adv-x="1153" 
d="M961 0l-330 547q-31 51 -53 100h-5q-27 -55 -57 -100l-336 -547h-119l453 723l-426 711h119l321 -539q25 -42 52 -96h4l53 96l319 539h115l-430 -709l440 -725h-120z" />
    <glyph glyph-name="Y" unicode="Y" horiz-adv-x="1106" 
d="M598 545v-545h-98v543l-439 891h111l334 -691q18 -36 45 -106h4q14 37 49 104l350 693h107z" />
    <glyph glyph-name="Z" unicode="Z" horiz-adv-x="1167" 
d="M215 90h858v-90h-1007v31l868 1312h-799v91h952v-27z" />
    <glyph glyph-name="bracketleft" unicode="[" horiz-adv-x="578" 
d="M209 -326v1760h317v-84h-225v-1592h225v-84h-317z" />
    <glyph glyph-name="backslash" unicode="\" horiz-adv-x="750" 
d="M668 -238l-697 1672h97l692 -1672h-92z" />
    <glyph glyph-name="bracketright" unicode="]" horiz-adv-x="578" 
d="M51 -326v84h225v1592h-225v84h318v-1760h-318z" />
    <glyph glyph-name="asciicircum" unicode="^" horiz-adv-x="1331" 
d="M975 702l-307 613h-4l-308 -613h-96l385 756h41l385 -756h-96z" />
    <glyph glyph-name="underscore" unicode="_" horiz-adv-x="850" 
d="M0 -268v90h850v-90h-850z" />
    <glyph glyph-name="grave" unicode="`" horiz-adv-x="508" 
d="M324 1188l-248 328h104l234 -328h-90z" />
    <glyph glyph-name="a" unicode="a" horiz-adv-x="1012" 
d="M776 0v205h-4q-49 -105 -142.5 -167.5t-207.5 -62.5q-146 0 -231 82t-85 207q0 268 355 324l315 47q0 330 -248 330q-169 0 -329 -136v111q57 45 154.5 77t183.5 32q158 0 244.5 -98t86.5 -285v-666h-92zM494 510q-161 -23 -226 -74.5t-65 -167.5q0 -91 60.5 -150
t168.5 -59q148 0 246 109.5t98 282.5v100z" />
    <glyph glyph-name="b" unicode="b" horiz-adv-x="1147" 
d="M260 182h-4v-182h-92v1516h92v-703h4q55 113 157.5 174.5t225.5 61.5q195 0 304.5 -134.5t109.5 -365.5q0 -257 -127 -415.5t-330 -158.5q-230 0 -340 207zM256 563v-129q0 -154 97 -264.5t255 -110.5q157 0 255 134.5t98 353.5q0 192 -90 305t-240 113q-179 0 -277 -120
t-98 -282z" />
    <glyph glyph-name="c" unicode="c" horiz-adv-x="909" 
d="M827 45q-114 -70 -272 -70q-209 0 -337 143.5t-128 375.5q0 244 144 399.5t370 155.5q117 0 227 -48v-104q-110 68 -241 68q-180 0 -292 -129.5t-112 -335.5q0 -199 102.5 -320t270.5 -121q154 0 268 82v-96z" />
    <glyph glyph-name="d" unicode="d" horiz-adv-x="1147" 
d="M891 0v186h-4q-50 -97 -148 -154t-221 -57q-189 0 -308.5 138t-119.5 381q0 248 130.5 401.5t338.5 153.5q230 0 328 -189h4v656h92v-1516h-92zM891 623q0 143 -90.5 242.5t-243.5 99.5q-161 0 -266 -123.5t-105 -339.5q0 -212 94.5 -327.5t243.5 -115.5q175 0 271 108.5
t96 264.5v191z" />
    <glyph glyph-name="e" unicode="e" horiz-adv-x="1034" 
d="M186 508q0 -211 97.5 -330t267.5 -119q172 0 336 127v-98q-159 -113 -355 -113q-198 0 -320 142t-122 401q0 224 127.5 377.5t331.5 153.5q191 0 293 -134t102 -366v-41h-758zM848 592q-6 177 -85 275t-218 98q-144 0 -238.5 -96.5t-116.5 -276.5h658z" />
    <glyph glyph-name="f" unicode="f" horiz-adv-x="565" 
d="M612 1419q-37 29 -112 29q-189 0 -189 -254v-170h271v-84h-271v-940h-92v940h-184v84h184v178q0 162 81.5 246t203.5 84q65 0 108 -19v-94z" />
    <glyph glyph-name="g" unicode="g" horiz-adv-x="1147" 
d="M983 76q0 -289 -126 -423t-392 -134q-148 0 -305 78v96q162 -90 307 -90q424 0 424 448v133h-4q-121 -209 -369 -209q-189 0 -308.5 137t-119.5 382t129 400t340 155q226 0 328 -187h4v162h92v-948zM891 631q0 136 -91.5 235t-238.5 99q-169 0 -272 -127t-103 -336
q0 -210 94.5 -326.5t249.5 -116.5q165 0 263 107t98 262v203z" />
    <glyph glyph-name="h" unicode="h" horiz-adv-x="1096" 
d="M860 0v614q0 182 -66 266.5t-206 84.5q-132 0 -232 -103t-100 -295v-567h-92v1516h92v-676h4q121 209 352 209q166 0 253 -107t87 -307v-635h-92z" />
    <glyph glyph-name="i" unicode="i" horiz-adv-x="420" 
d="M209 1282q-30 0 -53 22t-23 56q0 33 23.5 53.5t52.5 20.5q31 0 54.5 -20t23.5 -54q0 -32 -23 -55t-55 -23zM164 0v1024h92v-1024h-92z" />
    <glyph glyph-name="j" unicode="j" horiz-adv-x="420" 
d="M209 1282q-30 0 -53 22t-23 56q0 33 23.5 53.5t52.5 20.5q31 0 54.5 -20t23.5 -54q0 -32 -23 -55t-55 -23zM256 29q0 -510 -362 -510q-72 0 -146 35v96q80 -47 156 -47q260 0 260 409v1012h92v-995z" />
    <glyph glyph-name="k" unicode="k" horiz-adv-x="909" 
d="M750 0l-490 506h-4v-506h-92v1516h92v-977h4l465 485h119l-486 -496l525 -528h-133z" />
    <glyph glyph-name="l" unicode="l" horiz-adv-x="420" 
d="M164 0v1516h92v-1516h-92z" />
    <glyph glyph-name="m" unicode="m" horiz-adv-x="1683" 
d="M1448 0v616q0 193 -60.5 271t-191.5 78q-121 0 -209 -104t-88 -261v-600h-92v623q0 342 -260 342q-125 0 -208 -104.5t-83 -270.5v-590h-92v1024h92v-170h4q107 195 313 195q112 0 191.5 -64.5t107.5 -169.5q48 111 137.5 172.5t194.5 61.5q336 0 336 -416v-633h-92z" />
    <glyph glyph-name="n" unicode="n" horiz-adv-x="1096" 
d="M860 0v596q0 369 -266 369q-148 0 -243 -108.5t-95 -268.5v-588h-92v1024h92v-186h4q112 211 350 211q166 0 254 -110.5t88 -315.5v-623h-92z" />
    <glyph glyph-name="o" unicode="o" horiz-adv-x="1149" 
d="M575 -25q-224 0 -354.5 147.5t-130.5 383.5q0 255 136.5 399t359.5 144q219 0 346 -143t127 -396q0 -239 -129.5 -387t-354.5 -148zM582 965q-181 0 -288.5 -122t-107.5 -339q0 -201 105 -323t287 -122q185 0 285 120t100 333q0 219 -99.5 336t-281.5 117z" />
    <glyph glyph-name="p" unicode="p" horiz-adv-x="1147" 
d="M260 182h-4v-653h-92v1495h92v-211h4q55 113 157.5 174.5t225.5 61.5q195 0 304.5 -134.5t109.5 -365.5q0 -257 -125.5 -415.5t-331.5 -158.5q-230 0 -340 207zM256 563v-129q0 -154 97 -264.5t255 -110.5q157 0 255 134.5t98 353.5q0 192 -90 305t-240 113
q-179 0 -277 -120t-98 -282z" />
    <glyph glyph-name="q" unicode="q" horiz-adv-x="1147" 
d="M891 -471v659h-4q-114 -213 -371 -213q-192 0 -309 141t-117 380q0 255 133 404t338 149q229 0 326 -191h4v166h92v-1495h-92zM891 614q0 153 -89 252t-247 99q-159 0 -264 -122.5t-105 -342.5q0 -206 93.5 -323.5t242.5 -117.5q179 0 274 110t95 269v176z" />
    <glyph glyph-name="r" unicode="r" horiz-adv-x="676" 
d="M647 928q-46 33 -108 33q-121 0 -203 -125t-82 -355v-481h-90v1024h90v-227h4q35 117 111 182t176 65q57 0 102 -18v-98z" />
    <glyph glyph-name="s" unicode="s" horiz-adv-x="795" 
d="M111 45v111q52 -45 126 -71t128 -26q241 0 241 197q0 68 -53 116t-172 99q-147 64 -206.5 132.5t-59.5 166.5q0 125 95.5 202t235.5 77q132 0 226 -54v-104q-114 74 -236 74q-101 0 -163 -52.5t-62 -136.5q0 -73 39 -118.5t172 -104.5q160 -72 220 -133.5t60 -163.5
q0 -122 -91.5 -201.5t-252.5 -79.5q-148 0 -247 70z" />
    <glyph glyph-name="t" unicode="t" horiz-adv-x="608" 
d="M569 14q-72 -34 -135 -34q-227 0 -227 272v688h-184v84h184v266q22 8 46 16q24 7 46 15v-297h270v-84h-270v-676q0 -106 33.5 -153.5t113.5 -47.5q57 0 123 37v-86z" />
    <glyph glyph-name="u" unicode="u" horiz-adv-x="1096" 
d="M840 0v186h-4q-107 -211 -330 -211q-363 0 -363 457v592h93v-569q0 -208 68.5 -302t215.5 -94q143 0 231.5 105t88.5 280v580h92v-1024h-92z" />
    <glyph glyph-name="v" unicode="v" horiz-adv-x="928" 
d="M500 0h-84l-396 1024h103l305 -815q22 -59 31 -107h4q13 63 29 103l315 819h100z" />
    <glyph glyph-name="w" unicode="w" horiz-adv-x="1386" 
d="M1032 0h-86l-223 772q-9 32 -16 86h-5q-2 -23 -20 -84l-250 -774h-86l-309 1024h102l238 -817q9 -32 14 -86h8q2 29 19 86l260 817h63l232 -817q8 -29 14 -86h8q0 29 17 86l243 817h95z" />
    <glyph glyph-name="x" unicode="x" horiz-adv-x="862" 
d="M481 502l334 -502h-117l-270 432h-4l-36 -57q-7 -12 -17 -27l-226 -348h-112l342 500l-336 524h108l228 -367q44 -71 53 -88h4l51 84l238 371h108z" />
    <glyph glyph-name="y" unicode="y" horiz-adv-x="928" 
d="M414 -209q-56 -138 -124 -205t-175 -67q-45 0 -80 14v92q36 -14 84 -14q123 0 194 170l95 227l-388 1016h103l309 -834q10 -27 14 -41q4 -19 9 -34h4l24 69l330 840h100z" />
    <glyph glyph-name="z" unicode="z" horiz-adv-x="950" 
d="M207 84h661v-84h-811v35l680 905h-631v84h787v-25z" />
    <glyph glyph-name="braceleft" unicode="{" horiz-adv-x="578" 
d="M506 -326q-127 5 -191.5 72t-64.5 219v297q0 237 -156 260v64q156 22 156 243v314q0 152 64.5 219t191.5 72v-84q-88 -5 -124 -57t-36 -179v-293q0 -222 -145 -266v-4q145 -46 145 -281v-276q0 -127 36 -179t124 -57v-84z" />
    <glyph glyph-name="bar" unicode="|" horiz-adv-x="463" 
d="M184 -481v2048h95v-2048h-95z" />
    <glyph glyph-name="braceright" unicode="}" horiz-adv-x="578" 
d="M483 522q-155 -23 -155 -260v-297q0 -153 -64.5 -219.5t-191.5 -71.5v84q82 5 120.5 53t38.5 183v276q0 235 146 281v4q-146 45 -146 266v293q0 135 -38.5 183t-120.5 53v84q127 -5 191.5 -71.5t64.5 -219.5v-314q0 -221 155 -243v-64z" />
    <glyph glyph-name="asciitilde" unicode="~" horiz-adv-x="1331" 
d="M1087 711q-7 -114 -68.5 -178t-164.5 -64q-95 0 -201 84q-105 84 -176 84q-141 0 -153 -158h-78q6 113 68 177.5t165 64.5q95 0 195 -80q70 -55 105 -72.5t79 -17.5q133 0 152 160h77z" />
    <glyph glyph-name="glyph98" 
 />
    <glyph glyph-name="glyph99" 
 />
    <glyph glyph-name="glyph100" 
 />
    <glyph glyph-name="glyph101" 
 />
    <glyph glyph-name="glyph102" 
 />
    <glyph glyph-name="glyph103" 
 />
    <glyph glyph-name="glyph104" 
 />
    <glyph glyph-name="glyph105" 
 />
    <glyph glyph-name="glyph106" 
 />
    <glyph glyph-name="glyph107" 
 />
    <glyph glyph-name="glyph108" 
 />
    <glyph glyph-name="glyph109" 
 />
    <glyph glyph-name="glyph110" 
 />
    <glyph glyph-name="glyph111" 
 />
    <glyph glyph-name="glyph112" 
 />
    <glyph glyph-name="glyph113" 
 />
    <glyph glyph-name="glyph114" 
 />
    <glyph glyph-name="glyph115" 
 />
    <glyph glyph-name="glyph116" 
 />
    <glyph glyph-name="glyph117" 
 />
    <glyph glyph-name="glyph118" 
 />
    <glyph glyph-name="glyph119" 
 />
    <glyph glyph-name="glyph120" 
 />
    <glyph glyph-name="glyph121" 
 />
    <glyph glyph-name="glyph122" 
 />
    <glyph glyph-name="glyph123" 
 />
    <glyph glyph-name="glyph124" 
 />
    <glyph glyph-name="glyph125" 
 />
    <glyph glyph-name="glyph126" 
 />
    <glyph glyph-name="glyph127" 
 />
    <glyph glyph-name="glyph128" 
 />
    <glyph glyph-name="glyph129" 
 />
    <glyph glyph-name="dagger" unicode="&#x2020;" horiz-adv-x="756" 
d="M708 933l-272 30l-30 -734h-36l-30 734l-292 -30v110l312 -20l-30 410h116l-30 -410l292 20v-110z" />
    <glyph glyph-name="degree" unicode="&#xb0;" horiz-adv-x="791" 
d="M397 930q-104 0 -179 75t-75 179q0 102 73.5 176t176.5 74q105 0 179.5 -73.5t74.5 -176.5q0 -105 -73.5 -179.5t-176.5 -74.5zM397 1358q-71 0 -121.5 -51.5t-50.5 -122.5q0 -73 49.5 -125.5t118.5 -52.5q70 0 120 52.5t50 125.5q0 74 -48 124t-118 50z" />
    <glyph glyph-name="glyph132" 
 />
    <glyph glyph-name="glyph133" 
 />
    <glyph glyph-name="section" unicode="&#xa7;" horiz-adv-x="918" 
d="M618 403q95 -71 95 -200q0 -114 -89 -191.5t-231 -77.5q-107 0 -217 50v98q118 -64 219 -64q109 0 165 50.5t56 132.5q0 54 -30.5 102t-140.5 101q-177 84 -228 160.5t-51 172.5q0 172 162 256q-123 83 -123 219q0 125 82 202t227 77q110 0 195 -37v-96q-86 49 -197 49
q-211 0 -211 -188q0 -80 55.5 -132t212.5 -122q203 -94 203 -279q0 -162 -154 -283zM406 946q-144 -65 -144 -203q0 -98 59 -155.5t224 -130.5q69 51 100 100t31 129q0 77 -48 130t-222 130z" />
    <glyph glyph-name="bullet" unicode="&#x2022;" horiz-adv-x="811" 
d="M408 477q-101 0 -172.5 70t-71.5 166q0 97 71.5 169t172.5 72q99 0 169 -71t70 -170q0 -98 -70 -167t-169 -69z" />
    <glyph glyph-name="paragraph" unicode="&#xb6;" horiz-adv-x="971" 
d="M733 1348v-1348h-86v1348h-198v-1348h-87v903q-105 0 -177 76t-72 188q0 121 75.5 194t180.5 73h495v-86h-131z" />
    <glyph glyph-name="glyph137" 
 />
    <glyph glyph-name="uni00AD" unicode="&#xad;" horiz-adv-x="815" 
d="M145 555v90h547v-90h-547z" />
    <glyph glyph-name="registered" unicode="&#xae;" horiz-adv-x="1804" 
d="M897 255q-250 0 -425.5 175t-175.5 423q0 251 176.5 426t423.5 175q248 0 425 -175.5t177 -422.5q0 -250 -175.5 -425.5t-425.5 -175.5zM893 1386q-216 0 -370.5 -156.5t-154.5 -376.5q0 -218 153.5 -374t371.5 -156q220 0 376.5 156t156.5 374q0 220 -157 376.5
t-376 156.5zM1087 482l-92 197q-40 86 -77.5 115.5t-84.5 29.5h-77v-342h-82v772h211q128 0 197 -55.5t69 -147.5q0 -177 -202 -214v-3q68 -14 128 -140l102 -212h-92zM756 1191v-303h139q78 0 125 40t47 110q0 153 -191 153h-120z" />
    <glyph glyph-name="copyright" unicode="&#xa9;" horiz-adv-x="1804" 
d="M903 -25q-311 0 -529 216.5t-218 523.5q0 310 219.5 526.5t525.5 216.5q308 0 528 -217t220 -524q0 -308 -218.5 -525t-527.5 -217zM901 1382q-272 0 -468.5 -196t-196.5 -471q0 -273 195 -468.5t470 -195.5q277 0 472.5 196t195.5 468q0 275 -196.5 471t-471.5 196z
M1182 270q-123 -71 -250 -71q-209 0 -352.5 141t-143.5 350q0 246 145.5 390.5t366.5 144.5q127 0 230 -54v-86q-106 58 -246 58q-170 0 -287 -117.5t-117 -314.5q0 -192 121.5 -310t292.5 -118q130 0 240 67v-80z" />
    <glyph glyph-name="trademark" unicode="&#x2122;" horiz-adv-x="1585" 
d="M1294 772v533h-4l-227 -533h-68l-217 533h-4v-533h-82v662h115l223 -545h4l234 545h108v-662h-82zM373 1356v-584h-82v584h-221v78h526v-78h-223z" />
    <glyph glyph-name="acute" unicode="&#xb4;" horiz-adv-x="508" 
d="M227 1188h-90l234 328h104z" />
    <glyph glyph-name="dieresis" unicode="&#xa8;" horiz-adv-x="817" 
d="M575 1188q-27 0 -49 19.5t-22 52.5q0 31 21.5 50t47.5 19q29 0 52.5 -19.5t23.5 -49.5q0 -31 -21.5 -51.5t-52.5 -20.5zM242 1188q-28 0 -50 19.5t-22 52.5q0 31 22 50t48 19q29 0 52 -19.5t23 -49.5q0 -31 -21 -51.5t-52 -20.5z" />
    <glyph glyph-name="glyph144" 
 />
    <glyph glyph-name="glyph145" 
 />
    <glyph glyph-name="glyph146" 
 />
    <glyph glyph-name="glyph147" 
 />
    <glyph glyph-name="plusminus" unicode="&#xb1;" horiz-adv-x="1331" 
d="M709 633v-412h-84v412h-412v84h412v411h84v-411h411v-84h-411zM213 0v84h907v-84h-907z" />
    <glyph glyph-name="glyph149" 
 />
    <glyph glyph-name="glyph150" 
 />
    <glyph glyph-name="glyph151" 
 />
    <glyph glyph-name="uni00B5" unicode="&#xb5;" horiz-adv-x="1116" 
d="M860 0v186h-4q-105 -211 -330 -211q-176 0 -262 123h-8v-489h-92v1415h92v-569q0 -210 69.5 -303t215.5 -93q144 0 231.5 105.5t87.5 279.5v580h92v-1024h-92z" />
    <glyph glyph-name="glyph153" 
 />
    <glyph glyph-name="glyph154" 
 />
    <glyph glyph-name="glyph155" 
 />
    <glyph glyph-name="glyph156" 
 />
    <glyph glyph-name="glyph157" 
 />
    <glyph glyph-name="glyph158" 
 />
    <glyph glyph-name="glyph159" 
 />
    <glyph glyph-name="glyph160" 
 />
    <glyph glyph-name="glyph161" 
 />
    <glyph glyph-name="glyph162" 
 />
    <glyph glyph-name="glyph163" 
 />
    <glyph glyph-name="glyph164" 
 />
    <glyph glyph-name="logicalnot" unicode="&#xac;" horiz-adv-x="1331" 
d="M1034 147v408h-821v84h907v-492h-86z" />
    <glyph glyph-name="glyph166" 
 />
    <glyph glyph-name="glyph167" 
 />
    <glyph glyph-name="glyph168" 
 />
    <glyph glyph-name="glyph169" 
 />
    <glyph glyph-name="guillemotleft" unicode="&#xab;" horiz-adv-x="952" 
d="M717 201l-277 336l277 344h114l-282 -344l280 -336h-112zM399 201l-276 336l276 344h113l-281 -344l281 -336h-113z" />
    <glyph glyph-name="guillemotright" unicode="&#xbb;" horiz-adv-x="952" 
d="M553 201h-113l283 344l-283 336h113l278 -336zM238 201h-117l285 344l-285 336h115l276 -336z" />
    <glyph glyph-name="ellipsis" unicode="&#x2026;" horiz-adv-x="1364" 
d="M1139 -16q-34 0 -57 23.5t-23 58.5q0 34 23 56.5t57 22.5t58 -22.5t24 -56.5q0 -35 -24 -58.5t-58 -23.5zM678 -16q-34 0 -57 23.5t-23 58.5q0 34 23 56.5t57 22.5t58 -22.5t24 -56.5q0 -35 -24 -58.5t-58 -23.5zM221 -16q-34 0 -57 23.5t-23 58.5q0 34 23 56.5t57 22.5
t58 -22.5t24 -56.5q0 -35 -24 -58.5t-58 -23.5z" />
    <glyph glyph-name="glyph173" 
 />
    <glyph glyph-name="glyph174" 
 />
    <glyph glyph-name="glyph175" 
 />
    <glyph glyph-name="glyph176" 
 />
    <glyph glyph-name="glyph177" 
 />
    <glyph glyph-name="endash" unicode="&#x2013;" horiz-adv-x="1024" 
d="M0 555v90h1024v-90h-1024z" />
    <glyph glyph-name="emdash" unicode="&#x2014;" horiz-adv-x="2048" 
d="M0 555v90h2048v-90h-2048z" />
    <glyph glyph-name="quotedblleft" unicode="&#x201c;" horiz-adv-x="686" 
d="M465 985h-105l156 449h74zM219 985h-106l153 449h76z" />
    <glyph glyph-name="quotedblright" unicode="&#x201d;" horiz-adv-x="686" 
d="M436 985h-76l123 449h107zM186 985h-73l125 449h104z" />
    <glyph glyph-name="quoteleft" unicode="&#x2018;" horiz-adv-x="438" 
d="M219 985h-106l153 449h76z" />
    <glyph glyph-name="quoteright" unicode="&#x2019;" horiz-adv-x="438" 
d="M186 985h-73l125 449h104z" />
    <glyph glyph-name="glyph184" 
 />
    <glyph glyph-name="glyph185" 
 />
    <glyph glyph-name="glyph186" 
 />
    <glyph glyph-name="glyph187" 
 />
    <glyph glyph-name="slash.frac" 
 />
    <glyph glyph-name="Euro" unicode="&#x20ac;" horiz-adv-x="1055" 
d="M963 53q-130 -78 -275 -78q-178 0 -303 135t-162 390h-145v84h137q-4 48 -4 102q0 71 6 135h-139v84h149q44 264 178 408.5t324 144.5q128 0 234 -53v-102q-118 71 -242 71q-146 0 -254 -119.5t-145 -349.5h542v-84h-553q-4 -34 -4 -123q0 -58 4 -114h553v-84h-542
q33 -219 134 -330t244 -111q126 0 263 93v-99z" />
    <glyph glyph-name="guilsinglleft" unicode="&#x2039;" horiz-adv-x="635" 
d="M401 201l-278 336l278 344h113l-283 -344l281 -336h-111z" />
    <glyph glyph-name="guilsinglright" unicode="&#x203a;" horiz-adv-x="635" 
d="M238 201h-115l285 344l-283 336h113l276 -336z" />
    <glyph glyph-name="glyph192" 
 />
    <glyph glyph-name="glyph193" 
 />
    <glyph glyph-name="daggerdbl" unicode="&#x2021;" horiz-adv-x="756" 
d="M708 519l-292 30l30 -320h-116l30 320l-312 -30v110l292 -20l38 222l-38 222l-292 -20v110l312 -30l-30 320h116l-30 -320l292 30v-110l-272 20l-38 -222l38 -222l272 20v-110z" />
    <glyph glyph-name="glyph195" 
 />
    <glyph glyph-name="quotesinglbase" unicode="&#x201a;" horiz-adv-x="438" 
d="M152 -225h-74l125 444h104z" />
    <glyph glyph-name="quotedblbase" unicode="&#x201e;" horiz-adv-x="686" 
d="M401 -229h-75l123 448h106zM152 -229h-74l125 448h104z" />
    <glyph glyph-name="perthousand" unicode="&#x2030;" horiz-adv-x="2445" 
d="M414 729q-154 0 -243 101t-89 262q0 175 94.5 272.5t247.5 97.5q150 0 238 -97t88 -271q0 -156 -91.5 -260.5t-244.5 -104.5zM422 1380q-115 0 -181.5 -76.5t-66.5 -213.5q0 -129 64.5 -205t177.5 -76q114 0 178.5 78t64.5 209q0 141 -64 212.5t-173 71.5zM416 -33h-99
l863 1465h96zM2021 -25q-154 0 -242.5 101t-88.5 262q0 177 96 274t246 97t237.5 -98.5t87.5 -270.5q0 -156 -91.5 -260.5t-244.5 -104.5zM2030 627q-113 0 -180.5 -76.5t-67.5 -214.5q0 -128 64 -204.5t177 -76.5q115 0 179.5 77.5t64.5 209.5q0 142 -64 213.5t-173 71.5z
M1198 -25q-153 0 -242.5 101t-89.5 262q0 177 96 274t246 97t238 -98t88 -271q0 -156 -91.5 -260.5t-244.5 -104.5zM1206 627q-114 0 -181 -78t-67 -213q0 -129 64.5 -205t177.5 -76q115 0 179.5 77.5t64.5 209.5q0 141 -64 213t-174 72z" />
    <glyph glyph-name="glyph199" 
 />
    <glyph glyph-name="glyph200" 
 />
    <glyph glyph-name="glyph201" 
 />
    <glyph glyph-name="glyph202" 
 />
    <glyph glyph-name="glyph203" 
 />
    <glyph glyph-name="glyph204" 
 />
    <glyph glyph-name="glyph205" 
 />
    <glyph glyph-name="glyph206" 
 />
    <glyph glyph-name="glyph207" 
 />
    <glyph glyph-name="glyph208" 
 />
    <glyph glyph-name="glyph209" 
 />
    <glyph glyph-name="glyph210" 
 />
    <glyph glyph-name="glyph211" 
 />
    <glyph glyph-name="glyph212" 
 />
    <glyph glyph-name="glyph213" 
 />
    <glyph glyph-name="dotlessi" unicode="&#x131;" horiz-adv-x="420" 
d="M164 0v1024h92v-1024h-92z" />
    <glyph glyph-name="glyph215" 
 />
    <glyph glyph-name="glyph216" 
 />
    <glyph glyph-name="glyph217" 
 />
    <glyph glyph-name="glyph218" 
 />
    <glyph glyph-name="glyph219" 
 />
    <glyph glyph-name="glyph220" 
 />
    <glyph glyph-name="glyph221" 
 />
    <glyph glyph-name="glyph222" 
 />
    <glyph glyph-name="glyph223" 
 />
    <glyph glyph-name="glyph224" 
 />
    <glyph glyph-name="glyph225" 
 />
    <glyph glyph-name="glyph226" 
 />
    <glyph glyph-name="glyph227" 
 />
    <glyph glyph-name="glyph228" 
 />
    <glyph glyph-name="glyph229" 
 />
    <glyph glyph-name="glyph230" 
 />
    <glyph glyph-name="brokenbar" unicode="&#xa6;" horiz-adv-x="463" 
d="M184 715v852h95v-852h-95zM184 -481v852h95v-852h-95z" />
    <glyph glyph-name="glyph232" 
 />
    <glyph glyph-name="glyph233" 
 />
    <glyph glyph-name="glyph234" 
 />
    <glyph glyph-name="glyph235" 
 />
    <glyph glyph-name="glyph236" 
 />
    <glyph glyph-name="glyph237" 
 />
    <glyph glyph-name="glyph238" 
 />
    <glyph glyph-name="glyph239" 
 />
    <glyph glyph-name="one.frac" 
 />
    <glyph glyph-name="two.frac" 
 />
    <glyph glyph-name="three.frac" 
 />
    <glyph glyph-name="one_slash_two.frac" 
 />
    <glyph glyph-name="one_slash_four.frac" 
 />
    <glyph glyph-name="three_slash_four.frac" 
 />
    <glyph glyph-name="glyph246" 
 />
    <glyph glyph-name="glyph247" 
 />
    <glyph glyph-name="glyph248" 
 />
    <glyph glyph-name="glyph249" 
 />
    <glyph glyph-name="glyph250" 
 />
    <glyph glyph-name="glyph251" 
 />
    <glyph glyph-name="glyph252" 
 />
    <glyph glyph-name="glyph253" 
 />
    <glyph glyph-name="glyph254" 
 />
    <glyph glyph-name="glyph255" 
 />
    <glyph glyph-name="glyph256" 
 />
    <glyph glyph-name="glyph257" 
 />
    <glyph glyph-name="glyph258" 
 />
    <glyph glyph-name="glyph259" 
 />
    <glyph glyph-name="glyph260" 
 />
    <glyph glyph-name="glyph261" 
 />
    <glyph glyph-name="glyph262" 
 />
    <glyph glyph-name="glyph263" 
 />
    <glyph glyph-name="glyph264" 
 />
    <glyph glyph-name="glyph265" 
 />
    <glyph glyph-name="glyph266" 
 />
    <glyph glyph-name="glyph267" 
 />
    <glyph glyph-name="glyph268" 
 />
    <glyph glyph-name="glyph269" 
 />
    <glyph glyph-name="glyph270" 
 />
    <glyph glyph-name="glyph271" 
 />
    <glyph glyph-name="glyph272" 
 />
    <glyph glyph-name="glyph273" 
 />
    <glyph glyph-name="glyph274" 
 />
    <glyph glyph-name="glyph275" 
 />
    <glyph glyph-name="glyph276" 
 />
    <glyph glyph-name="glyph277" 
 />
    <glyph glyph-name="glyph278" 
 />
    <glyph glyph-name="glyph279" 
 />
    <glyph glyph-name="glyph280" 
 />
    <glyph glyph-name="glyph281" 
 />
    <glyph glyph-name="glyph282" 
 />
    <glyph glyph-name="glyph283" 
 />
    <glyph glyph-name="glyph284" 
 />
    <glyph glyph-name="glyph285" 
 />
    <glyph glyph-name="glyph286" 
 />
    <glyph glyph-name="glyph287" 
 />
    <glyph glyph-name="glyph288" 
 />
    <glyph glyph-name="glyph289" 
 />
    <glyph glyph-name="glyph290" 
 />
    <glyph glyph-name="glyph291" 
 />
    <glyph glyph-name="glyph292" 
 />
    <glyph glyph-name="glyph293" 
 />
    <glyph glyph-name="glyph294" 
 />
    <glyph glyph-name="glyph295" 
 />
    <glyph glyph-name="glyph296" 
 />
    <glyph glyph-name="glyph297" 
 />
    <glyph glyph-name="glyph298" 
 />
    <glyph glyph-name="glyph299" 
 />
    <glyph glyph-name="glyph300" 
 />
    <glyph glyph-name="glyph301" 
 />
    <glyph glyph-name="glyph302" 
 />
    <glyph glyph-name="glyph303" 
 />
    <glyph glyph-name="glyph304" 
 />
    <glyph glyph-name="glyph305" 
 />
    <glyph glyph-name="glyph306" 
 />
    <glyph glyph-name="glyph307" 
 />
    <glyph glyph-name="glyph308" 
 />
    <glyph glyph-name="glyph309" 
 />
    <glyph glyph-name="glyph310" 
 />
    <glyph glyph-name="n.superior" 
 />
    <glyph glyph-name="glyph312" 
 />
    <glyph glyph-name="glyph313" 
 />
    <glyph glyph-name="glyph314" 
 />
    <glyph glyph-name="glyph315" 
 />
    <glyph glyph-name="glyph316" 
 />
    <glyph glyph-name="glyph317" 
 />
    <glyph glyph-name="glyph318" 
 />
    <glyph glyph-name="glyph319" 
 />
    <glyph glyph-name="glyph320" 
 />
    <glyph glyph-name="glyph321" 
 />
    <glyph glyph-name="glyph322" 
 />
    <glyph glyph-name="glyph323" 
 />
    <glyph glyph-name="glyph324" 
 />
    <glyph glyph-name="glyph325" 
 />
    <glyph glyph-name="glyph326" 
 />
    <glyph glyph-name="glyph327" 
 />
    <glyph glyph-name="glyph328" 
 />
    <glyph glyph-name="glyph329" 
 />
    <glyph glyph-name="glyph330" 
 />
    <glyph glyph-name="glyph331" 
 />
    <glyph glyph-name="glyph332" 
 />
    <glyph glyph-name="glyph333" 
 />
    <glyph glyph-name="glyph334" 
 />
    <glyph glyph-name="glyph335" 
 />
    <glyph glyph-name="glyph336" 
 />
    <glyph glyph-name="glyph337" 
 />
    <glyph glyph-name="glyph338" 
 />
    <glyph glyph-name="glyph339" 
 />
    <glyph glyph-name="glyph340" 
 />
    <glyph glyph-name="glyph341" 
 />
    <glyph glyph-name="glyph342" 
 />
    <glyph glyph-name="glyph343" 
 />
    <glyph glyph-name="glyph344" 
 />
    <glyph glyph-name="glyph345" 
 />
    <glyph glyph-name="glyph346" 
 />
    <glyph glyph-name="glyph347" 
 />
    <glyph glyph-name="glyph348" 
 />
    <glyph glyph-name="glyph349" 
 />
    <glyph glyph-name="glyph350" 
 />
    <glyph glyph-name="glyph351" 
 />
    <glyph glyph-name="glyph352" 
 />
    <glyph glyph-name="glyph353" 
 />
    <glyph glyph-name="glyph354" 
 />
    <glyph glyph-name="glyph355" 
 />
    <glyph glyph-name="glyph356" 
 />
    <glyph glyph-name="glyph357" 
 />
    <glyph glyph-name="glyph358" 
 />
    <glyph glyph-name="glyph359" 
 />
    <glyph glyph-name="glyph360" 
 />
    <glyph glyph-name="glyph361" 
 />
    <glyph glyph-name="glyph362" 
 />
    <glyph glyph-name="glyph363" 
 />
    <glyph glyph-name="glyph364" 
 />
    <glyph glyph-name="glyph365" 
 />
    <glyph glyph-name="glyph366" 
 />
    <glyph glyph-name="glyph367" 
 />
    <glyph glyph-name="glyph368" 
 />
    <glyph glyph-name="glyph369" 
 />
    <glyph glyph-name="glyph370" 
 />
    <glyph glyph-name="glyph371" 
 />
    <glyph glyph-name="glyph372" 
 />
    <glyph glyph-name="glyph373" 
 />
    <glyph glyph-name="glyph374" 
 />
    <glyph glyph-name="glyph375" 
 />
    <glyph glyph-name="glyph376" 
 />
    <glyph glyph-name="glyph377" 
 />
    <glyph glyph-name="glyph378" 
 />
    <glyph glyph-name="glyph379" 
 />
    <glyph glyph-name="glyph380" 
 />
    <glyph glyph-name="glyph381" 
 />
    <glyph glyph-name="glyph382" 
 />
    <glyph glyph-name="glyph383" 
 />
    <glyph glyph-name="glyph384" 
 />
    <glyph glyph-name="glyph385" 
 />
    <glyph glyph-name="glyph386" 
 />
    <glyph glyph-name="glyph387" 
 />
    <glyph glyph-name="glyph388" 
 />
    <glyph glyph-name="glyph389" 
 />
    <glyph glyph-name="glyph390" 
 />
    <glyph glyph-name="glyph391" 
 />
    <glyph glyph-name="glyph392" 
 />
    <glyph glyph-name="glyph393" 
 />
    <glyph glyph-name="glyph394" 
 />
    <glyph glyph-name="glyph395" 
 />
    <glyph glyph-name="glyph396" 
 />
    <glyph glyph-name="glyph397" 
 />
    <glyph glyph-name="glyph398" 
 />
    <glyph glyph-name="glyph399" 
 />
    <glyph glyph-name="glyph400" 
 />
    <glyph glyph-name="glyph401" 
 />
    <glyph glyph-name="glyph402" 
 />
    <glyph glyph-name="glyph403" 
 />
    <glyph glyph-name="glyph404" 
 />
    <glyph glyph-name="glyph405" 
 />
    <glyph glyph-name="glyph406" 
 />
    <glyph glyph-name="glyph407" 
 />
    <glyph glyph-name="glyph408" 
 />
    <glyph glyph-name="glyph409" 
 />
    <glyph glyph-name="glyph410" 
 />
    <glyph glyph-name="glyph411" 
 />
    <glyph glyph-name="glyph412" 
 />
    <glyph glyph-name="glyph413" 
 />
    <glyph glyph-name="glyph414" 
 />
    <glyph glyph-name="glyph415" 
 />
    <glyph glyph-name="glyph416" 
 />
    <glyph glyph-name="glyph417" 
 />
    <glyph glyph-name="glyph418" 
 />
    <glyph glyph-name="glyph419" 
 />
    <glyph glyph-name="glyph420" 
 />
    <glyph glyph-name="glyph421" 
 />
    <glyph glyph-name="glyph422" 
 />
    <glyph glyph-name="glyph423" 
 />
    <glyph glyph-name="glyph424" 
 />
    <glyph glyph-name="glyph425" 
 />
    <glyph glyph-name="glyph426" 
 />
    <glyph glyph-name="glyph427" 
 />
    <glyph glyph-name="glyph428" 
 />
    <glyph glyph-name="glyph429" 
 />
    <glyph glyph-name="glyph430" 
 />
    <glyph glyph-name="glyph431" 
 />
    <glyph glyph-name="glyph432" 
 />
    <glyph glyph-name="glyph433" 
 />
    <glyph glyph-name="glyph434" 
 />
    <glyph glyph-name="glyph435" 
 />
    <glyph glyph-name="glyph436" 
 />
    <glyph glyph-name="glyph437" 
 />
    <glyph glyph-name="glyph438" 
 />
    <glyph glyph-name="glyph439" 
 />
    <glyph glyph-name="glyph440" 
 />
    <glyph glyph-name="glyph441" 
 />
    <glyph glyph-name="glyph442" 
 />
    <glyph glyph-name="glyph443" 
 />
    <glyph glyph-name="glyph444" 
 />
    <glyph glyph-name="glyph445" 
 />
    <glyph glyph-name="glyph446" 
 />
    <glyph glyph-name="glyph447" 
 />
    <glyph glyph-name="glyph448" 
 />
    <glyph glyph-name="glyph449" 
 />
    <glyph glyph-name="glyph450" 
 />
    <glyph glyph-name="glyph451" 
 />
    <glyph glyph-name="glyph452" 
 />
    <glyph glyph-name="glyph453" 
 />
    <glyph glyph-name="glyph454" 
 />
    <glyph glyph-name="glyph455" 
 />
    <glyph glyph-name="glyph456" 
 />
    <glyph glyph-name="glyph457" 
 />
    <glyph glyph-name="glyph458" 
 />
    <glyph glyph-name="glyph459" 
 />
    <glyph glyph-name="glyph460" 
 />
    <glyph glyph-name="glyph461" 
 />
    <glyph glyph-name="glyph462" 
 />
    <glyph glyph-name="glyph463" 
 />
    <glyph glyph-name="glyph464" 
 />
    <glyph glyph-name="glyph465" 
 />
    <glyph glyph-name="glyph466" 
 />
    <glyph glyph-name="glyph467" 
 />
    <glyph glyph-name="glyph468" 
 />
    <glyph glyph-name="glyph469" 
 />
    <glyph glyph-name="glyph470" 
 />
    <glyph glyph-name="glyph471" 
 />
    <glyph glyph-name="glyph472" 
 />
    <glyph glyph-name="glyph473" 
 />
    <glyph glyph-name="glyph474" 
 />
    <glyph glyph-name="afii10023" unicode="&#x401;" horiz-adv-x="1024" 
d="M184 0v1434h670v-91h-571v-575h530v-90h-530v-588h604v-90h-703zM714 1536q-27 0 -49 19.5t-22 52.5q0 31 21.5 50t47.5 19q29 0 52.5 -19.5t23.5 -49.5q0 -31 -21.5 -51.5t-52.5 -20.5zM381 1536q-28 0 -50 19.5t-22 52.5q0 31 22 50t48 19q29 0 52 -19.5t23 -49.5
q0 -31 -21 -51.5t-52 -20.5z" />
    <glyph glyph-name="afii10051" unicode="&#x402;" horiz-adv-x="1409" 
d="M1286 375q0 -80 -22.5 -152.5t-68.5 -127.5t-117.5 -87.5t-168.5 -32.5q-45 0 -87.5 8t-71.5 17v100q31 -12 74 -22t85 -10q72 0 123.5 25.5t84.5 68t48 97.5t15 114q0 74 -23.5 136t-69.5 106.5t-114.5 69t-159.5 24.5h-281v-709h-98v1343h-373v91h926v-91h-455v-544
h295q99 0 183.5 -25.5t145.5 -78t95.5 -132.5t34.5 -188z" />
    <glyph glyph-name="afii10052" unicode="&#x403;" horiz-adv-x="889" 
d="M283 1343v-1343h-99v1434h674v-91h-575zM524 1556h-90l234 328h104z" />
    <glyph glyph-name="afii10053" unicode="&#x404;" horiz-adv-x="1272" 
d="M774 -25q-148 0 -270.5 52t-210 145.5t-136 225t-48.5 290.5q0 186 57 329.5t154 241.5t226.5 148.5t274.5 50.5q111 0 186.5 -17t129.5 -36v-105q-62 28 -138.5 48t-179.5 20q-123 0 -229 -40.5t-186.5 -118t-130.5 -189.5t-60 -256h702v-92h-704q4 -156 53.5 -270
t129 -189t180.5 -111t208 -36q113 0 202.5 22.5t152.5 54.5v-96q-27 -11 -62.5 -23.5t-80 -23.5t-99.5 -18t-121 -7z" />
    <glyph glyph-name="afii10054" unicode="&#x405;" horiz-adv-x="1018" 
d="M139 51v113q154 -98 312 -98q168 0 255 69.5t87 194.5q0 110 -58.5 175.5t-253.5 178.5q-218 127 -276 212.5t-58 197.5q0 152 118 258t315 106q128 0 256 -43v-104q-126 57 -269 57q-146 0 -231.5 -74t-85.5 -188q0 -110 58.5 -175t252.5 -177q201 -114 267.5 -202.5
t66.5 -203.5q0 -165 -114.5 -269t-323.5 -104q-74 0 -170.5 23t-147.5 53z" />
    <glyph glyph-name="afii10056" unicode="&#x407;" horiz-adv-x="467" 
d="M184 0v1434h99v-1434h-99zM397 1536q-27 0 -49 19.5t-22 52.5q0 31 21.5 50t47.5 19q29 0 52.5 -19.5t23.5 -49.5q0 -31 -21.5 -51.5t-52.5 -20.5zM64 1536q-28 0 -50 19.5t-22 52.5q0 31 22 50t48 19q29 0 52 -19.5t23 -49.5q0 -31 -21 -51.5t-52 -20.5z" />
    <glyph glyph-name="afii10058" unicode="&#x409;" horiz-adv-x="1995" 
d="M1042 0v1341h-454q-17 -133 -37 -275t-41 -274t-40.5 -245t-35.5 -187q-17 -78 -41 -146.5t-60 -120t-86.5 -81.5t-119.5 -30q-32 0 -55 4t-41 10v100q40 -20 92 -20q45 0 79 23t59.5 66t45 104.5t36.5 138.5q11 48 23.5 115t27 148.5t29 174t29 190.5t28.5 199t26 199
h635v-637h325q85 0 158.5 -21.5t127.5 -67.5t85 -118.5t31 -175.5q0 -85 -28 -160t-82.5 -131.5t-135 -89.5t-184.5 -33h-396zM1765 406q0 81 -23 138t-68 93t-111 53t-152 17h-270v-617h276q92 0 158 24t108 66t62 100t20 126z" />
    <glyph glyph-name="afii10059" unicode="&#x40a;" horiz-adv-x="2056" 
d="M1929 414q0 -85 -28 -160t-82.5 -131.5t-134.5 -89.5t-185 -33h-395v707h-821v-707h-99v1434h99v-637h821v637h98v-637h326q84 0 157.5 -21.5t127.5 -67.5t85 -118.5t31 -175.5zM1827 406q0 81 -23 138t-68 93t-111 53t-152 17h-271v-617h277q92 0 158 24t108 66t62 100
t20 126z" />
    <glyph glyph-name="afii10060" unicode="&#x40b;" horiz-adv-x="1421" 
d="M1190 0v383q0 81 -17.5 145.5t-55.5 109t-99 68t-148 23.5h-297v-729h-98v1343h-414v91h926v-91h-414v-524h301q97 0 174 -24t130 -76t81.5 -134t28.5 -198v-387h-98z" />
    <glyph glyph-name="afii10061" unicode="&#x40c;" horiz-adv-x="1079" 
d="M922 0l-611 686q-17 19 -24 33h-4v-719h-99v1434h99v-676h4q12 21 26 35l580 641h129l-629 -695l668 -739h-139zM598 1556h-90l234 328h104z" />
    <glyph glyph-name="afii10062" unicode="&#x40e;" horiz-adv-x="1098" 
d="M631 377q-38 -89 -79 -163t-90 -127t-108.5 -82.5t-134.5 -29.5q-43 0 -80.5 8.5t-63.5 20.5v107q32 -19 72 -31t72 -12q58 0 101.5 22.5t80 64t68.5 100.5t66 132l-474 1047h111l358 -811q6 -12 13 -28t14.5 -34l15 -36t13.5 -33h4q12 34 26 64.5t23 53.5l344 824h104z
M575 1586q58 0 104.5 17t80 46t53 67t24.5 79h98q-10 -54 -37.5 -105.5t-72.5 -91.5t-108 -64t-143 -24t-140 24t-101 64t-65.5 91.5t-34.5 105.5h98q5 -41 22 -79t47 -67t73 -46t100 -17h2z" />
    <glyph glyph-name="afii10145" unicode="&#x40f;" horiz-adv-x="1386" 
d="M738 0v-384h-96v384h-458v1434h99v-1344h821v1344h98v-1434h-464z" />
    <glyph glyph-name="afii10017" unicode="&#x410;" horiz-adv-x="1288" 
d="M1118 0l-164 446h-622l-164 -446h-109l541 1434h94l535 -1434h-111zM678 1200q-11 30 -18 59q-7 25 -15 50h-4q-17 -66 -33 -107l-241 -665h553z" />
    <glyph glyph-name="afii10018" unicode="&#x411;" horiz-adv-x="1102" 
d="M1010 414q0 -85 -28 -160t-82.5 -131.5t-135 -89.5t-184.5 -33h-396v1434h721v-91h-622v-546h325q85 0 158.5 -21.5t127.5 -67.5t85 -118.5t31 -175.5zM907 406q0 81 -23 138t-68 93t-111 53t-152 17h-270v-617h276q92 0 158 24t108 66t62 100t20 126z" />
    <glyph glyph-name="afii10019" unicode="&#x412;" horiz-adv-x="1114" 
d="M184 0v1434h377q169 0 269 -91t100 -241q0 -125 -66.5 -216.5t-185.5 -129.5v-4q149 -14 235 -106.5t86 -235.5q0 -181 -117 -295.5t-313 -114.5h-385zM283 1343v-555h200q156 0 250 80t94 217q0 258 -305 258h-239zM283 698v-608h266q169 0 258.5 81t89.5 230
q0 297 -403 297h-211z" />
    <glyph glyph-name="afii10020" unicode="&#x413;" horiz-adv-x="889" 
d="M283 1343v-1343h-99v1434h674v-91h-575z" />
    <glyph glyph-name="afii10021" unicode="&#x414;" horiz-adv-x="1351" 
d="M1235 -384v384h-1115v-384h-100v474h116q74 144 141 312t118 344t82.5 352t34.5 336h618v-1344h201v-474h-96zM1032 1343h-428q-3 -84 -18 -182.5t-39 -206t-56 -220t-71 -224t-83.5 -218t-92.5 -202.5h788v1253z" />
    <glyph glyph-name="afii10022" unicode="&#x415;" horiz-adv-x="1024" 
d="M184 0v1434h670v-91h-571v-575h530v-90h-530v-588h604v-90h-703z" />
    <glyph glyph-name="afii10024" unicode="&#x416;" horiz-adv-x="1692" 
d="M1534 0l-610 686q-5 5 -12 13.5t-13 19.5h-4v-719h-98v719h-4q-7 -11 -13.5 -19.5t-11.5 -13.5l-610 -686h-140l668 739l-629 695h129l580 -641q5 -5 13.5 -15.5t13.5 -19.5h4v676h98v-676h4q5 9 13.5 19.5t13.5 15.5l579 641h129l-628 -695l667 -739h-139z" />
    <glyph glyph-name="afii10025" unicode="&#x417;" horiz-adv-x="1104" 
d="M991 393q0 -81 -31.5 -156.5t-94 -133.5t-155 -93t-214.5 -35q-119 0 -213 27.5t-160 69.5v106q41 -31 88 -53.5t96 -37t97.5 -21.5t93.5 -7q99 0 173.5 26t124 70t74.5 102t25 122q0 83 -30 144t-87 100.5t-139 59t-186 19.5h-129v84h98q95 0 171.5 21.5t130.5 62.5
t83 99.5t29 132.5q0 57 -19 107t-57 86.5t-95 57.5t-133 21q-92 0 -174 -28t-147 -76v98q33 18 68.5 34t76 28.5t86.5 20t99 7.5q94 0 167 -26t123 -71.5t75.5 -108t25.5 -134.5q0 -139 -76 -233t-219 -131v-4q89 -6 155.5 -39t110.5 -82.5t66 -110.5t22 -125z" />
    <glyph glyph-name="afii10026" unicode="&#x418;" horiz-adv-x="1452" 
d="M1169 0v1122v30.5v33.5t0.5 33.5t1.5 29.5h-4q-5 -8 -12.5 -20.5t-16 -25t-17 -24.5t-13.5 -20l-854 -1159h-70v1434h99v-1121q0 -24 -1 -58.5t-3 -61.5h4q11 18 29 45t32 47l848 1149h76v-1434h-99z" />
    <glyph glyph-name="afii10027" unicode="&#x419;" horiz-adv-x="1452" 
d="M1169 0v1122v30.5v33.5t0.5 33.5t1.5 29.5h-4q-5 -8 -12.5 -20.5t-16 -25t-17 -24.5t-13.5 -20l-854 -1159h-70v1434h99v-1121q0 -24 -1 -58.5t-3 -61.5h4q11 18 29 45t32 47l848 1149h76v-1434h-99zM724 1586q58 0 104.5 17t80 46t53 67t24.5 79h98
q-10 -54 -37.5 -105.5t-72.5 -91.5t-108 -64t-143 -24t-140 24t-101 64t-65.5 91.5t-34.5 105.5h98q5 -41 22 -79t47 -67t73 -46t100 -17h2z" />
    <glyph glyph-name="afii10028" unicode="&#x41a;" horiz-adv-x="1079" 
d="M922 0l-611 686q-17 19 -24 33h-4v-719h-99v1434h99v-676h4q12 21 26 35l580 641h129l-629 -695l668 -739h-139z" />
    <glyph glyph-name="afii10029" unicode="&#x41b;" horiz-adv-x="1325" 
d="M1042 0v1341h-454q-17 -133 -37 -275t-41 -274t-40.5 -245t-35.5 -187q-17 -78 -41 -146.5t-60 -120t-86.5 -81.5t-119.5 -30q-32 0 -55 4t-41 10v100q40 -20 92 -20q45 0 79 23t59.5 66t45 104.5t36.5 138.5q11 48 23.5 115t27 148.5t29 174t29 190.5t28.5 199t26 199
h635v-1434h-99z" />
    <glyph glyph-name="afii10030" unicode="&#x41c;" horiz-adv-x="1706" 
d="M1427 0v1018q0 37 11 211h-4q-31 -81 -52 -125l-510 -1104h-32l-512 1098q-25 53 -47 135h-5q7 -96 7 -191v-1042h-99v1434h92l535 -1155q5 -10 11 -27t13 -34q10 -26 21 -58h6l11 32q1 4 34 95l527 1147h88v-1434h-95z" />
    <glyph glyph-name="afii10031" unicode="&#x41d;" horiz-adv-x="1386" 
d="M1104 0v688h-821v-688h-99v1434h99v-656h821v656h98v-1434h-98z" />
    <glyph glyph-name="afii10032" unicode="&#x41e;" horiz-adv-x="1559" 
d="M774 -25q-304 0 -484.5 202t-180.5 525q0 343 185.5 549.5t506.5 206.5q290 0 469.5 -198.5t179.5 -520.5q0 -356 -184 -560t-492 -204zM784 1368q-250 0 -411.5 -181t-161.5 -474q0 -296 153 -471.5t408 -175.5q266 0 421 173.5t155 483.5q0 304 -151.5 474.5
t-412.5 170.5z" />
    <glyph glyph-name="afii10033" unicode="&#x41f;" horiz-adv-x="1386" 
d="M1104 0v1343h-821v-1343h-99v1434h1018v-1434h-98z" />
    <glyph glyph-name="afii10034" unicode="&#x420;" horiz-adv-x="1114" 
d="M283 575v-575h-99v1434h346q221 0 338 -102.5t117 -299.5q0 -200 -130.5 -328.5t-365.5 -128.5h-206zM283 1343v-677h204q194 0 295 92.5t101 261.5q0 323 -371 323h-229z" />
    <glyph glyph-name="afii10035" unicode="&#x421;" horiz-adv-x="1272" 
d="M1137 47q-174 -72 -363 -72q-294 0 -479.5 197.5t-185.5 515.5q0 349 201 559.5t511 210.5q165 0 316 -53v-105q-151 68 -318 68q-270 0 -439 -183t-169 -487q0 -293 161.5 -462.5t409.5 -169.5q198 0 355 77v-96z" />
    <glyph glyph-name="afii10036" unicode="&#x422;" horiz-adv-x="1047" 
d="M573 1343v-1343h-98v1343h-414v91h926v-91h-414z" />
    <glyph glyph-name="afii10037" unicode="&#x423;" horiz-adv-x="1098" 
d="M631 377q-38 -89 -79 -163t-90 -127t-108.5 -82.5t-134.5 -29.5q-43 0 -80.5 8.5t-63.5 20.5v107q32 -19 72 -31t72 -12q58 0 101.5 22.5t80 64t68.5 100.5t66 132l-474 1047h111l358 -811q6 -12 13 -28t14.5 -34l15 -36t13.5 -33h4q12 34 26 64.5t23 53.5l344 824h104z
" />
    <glyph glyph-name="afii10038" unicode="&#x424;" horiz-adv-x="1442" 
d="M1339 756q0 -114 -38 -216t-107 -178t-166.5 -120.5t-216.5 -44.5h-41v-217h-98v217h-41q-119 0 -216.5 43.5t-167 119.5t-107.5 178t-38 218q0 110 37.5 207.5t106.5 170.5t167 115.5t220 42.5h39v183h98v-183h39q121 0 219 -41.5t167 -113.5t106.5 -170t37.5 -211z
M1235 754q0 101 -31.5 184t-88 141.5t-134.5 90.5t-172 32h-39v-915h41q92 0 170 33t134.5 94t88 147.5t31.5 192.5zM672 1202h-39q-93 0 -171 -33t-135 -92t-88.5 -141.5t-31.5 -181.5q0 -108 31.5 -194t88 -147t134.5 -93.5t170 -32.5h41v915z" />
    <glyph glyph-name="afii10039" unicode="&#x425;" horiz-adv-x="1153" 
d="M961 0l-330 547q-31 51 -53 100h-5q-27 -55 -57 -100l-336 -547h-119l453 723l-426 711h119l321 -539q25 -42 52 -96h4l53 96l319 539h115l-430 -709l440 -725h-120z" />
    <glyph glyph-name="afii10040" unicode="&#x426;" horiz-adv-x="1436" 
d="M1288 -384v384h-1104v1434h99v-1344h821v1344h98v-1344h182v-474h-96z" />
    <glyph glyph-name="afii10041" unicode="&#x427;" horiz-adv-x="1255" 
d="M973 0v649q-113 -44 -225.5 -76t-227.5 -32q-94 0 -161 25.5t-110.5 72t-64 110.5t-20.5 142v543h98v-529q0 -131 67 -202.5t201 -71.5q103 0 216.5 29t226.5 75v699h98v-1434h-98z" />
    <glyph glyph-name="afii10042" unicode="&#x428;" horiz-adv-x="1776" 
d="M184 0v1434h99v-1344h553v1344h100v-1344h555v1344h100v-1434h-1407z" />
    <glyph glyph-name="afii10043" unicode="&#x429;" horiz-adv-x="1825" 
d="M1678 -384v384h-1494v1434h99v-1344h553v1344h100v-1344h555v1344h100v-1344h183v-474h-96z" />
    <glyph glyph-name="afii10044" unicode="&#x42a;" horiz-adv-x="1423" 
d="M1300 414q0 -85 -28 -160t-82.5 -131.5t-134.5 -89.5t-185 -33h-395v1343h-414v91h512v-637h326q84 0 157.5 -21.5t127.5 -67.5t85 -118.5t31 -175.5zM1198 406q0 81 -23 138t-68 93t-111 53t-152 17h-271v-617h277q92 0 158 24t108 66t62 100t20 126z" />
    <glyph glyph-name="afii10045" unicode="&#x42b;" horiz-adv-x="1544" 
d="M1262 0v1434h98v-1434h-98zM1010 414q0 -85 -28 -160t-82.5 -131.5t-135 -89.5t-184.5 -33h-396v1434h99v-637h325q85 0 158.5 -21.5t127.5 -67.5t85 -118.5t31 -175.5zM907 406q0 81 -23 138t-68 93t-111 53t-152 17h-270v-617h276q92 0 158 24t108 66t62 100t20 126z
" />
    <glyph glyph-name="afii10046" unicode="&#x42c;" horiz-adv-x="1135" 
d="M1010 414q0 -85 -28 -160t-82.5 -131.5t-135 -89.5t-184.5 -33h-396v1434h99v-637h325q85 0 158.5 -21.5t127.5 -67.5t85 -118.5t31 -175.5zM907 406q0 81 -23 138t-68 93t-111 53t-152 17h-270v-617h276q92 0 158 24t108 66t62 100t20 126z" />
    <glyph glyph-name="afii10047" unicode="&#x42d;" horiz-adv-x="1262" 
d="M1153 711q0 -159 -50.5 -294t-140.5 -233t-214.5 -153.5t-272.5 -55.5q-66 0 -119 7t-95 17.5t-75.5 22.5t-60.5 23v98q63 -32 153.5 -54.5t202.5 -22.5q107 0 208 36t180 111t128.5 189t53.5 270h-704v92h702q-9 130 -52.5 240.5t-120 191.5t-184.5 126.5t-246 45.5
q-103 0 -181 -20t-140 -48v97q27 9 61 19.5t74.5 20t88.5 15.5t104 6q145 0 272.5 -47t222.5 -141t150 -233.5t55 -325.5z" />
    <glyph glyph-name="afii10048" unicode="&#x42e;" horiz-adv-x="1989" 
d="M1880 739q0 -191 -49 -334t-135 -238.5t-203.5 -143.5t-255.5 -48q-155 0 -273.5 56.5t-199.5 155t-122.5 230.5t-41.5 283h-317v-700h-99v1434h99v-643h321q12 146 60 268.5t131 211t200 138t267 49.5q142 0 256 -53.5t194.5 -148.5t124 -227.5t43.5 -289.5zM1778 723
q0 160 -39.5 280.5t-110.5 201.5t-169.5 122t-215.5 41q-116 0 -215 -46t-171.5 -131t-113.5 -206.5t-41 -271.5q0 -149 38 -269t107.5 -204t167.5 -129t218 -45t220 41.5t172 124t112.5 205.5t40.5 286z" />
    <glyph glyph-name="afii10049" unicode="&#x42f;" horiz-adv-x="1137" 
d="M854 0v639h-209q-57 0 -98.5 -16t-73.5 -45.5t-57 -70.5t-49 -91l-189 -416h-112l211 453q22 46 44.5 80t46 59t47.5 42t48 28v4q-64 10 -123.5 38t-105.5 74.5t-74 112.5t-28 151q0 41 11 86t33.5 88.5t58 83t84.5 69.5t113 47.5t143 17.5h377v-1434h-98zM854 1343h-268
q-99 0 -166 -27.5t-108.5 -70.5t-59 -97t-17.5 -106q0 -87 32 -146.5t83.5 -96.5t118 -53.5t135.5 -16.5h250v614z" />
    <glyph glyph-name="afii10065" unicode="&#x430;" horiz-adv-x="1012" 
d="M776 0v205h-4q-49 -105 -142.5 -167.5t-207.5 -62.5q-146 0 -231 82t-85 207q0 268 355 324l315 47q0 330 -248 330q-169 0 -329 -136v111q57 45 154.5 77t183.5 32q158 0 244.5 -98t86.5 -285v-666h-92zM494 510q-161 -23 -226 -74.5t-65 -167.5q0 -91 60.5 -150
t168.5 -59q148 0 246 109.5t98 282.5v100z" />
    <glyph glyph-name="afii10066" unicode="&#x431;" horiz-adv-x="1126" 
d="M1036 489q0 -59 -10.5 -120t-33.5 -118.5t-58.5 -107.5t-85 -87.5t-114 -59t-144.5 -21.5q-112 0 -197.5 43.5t-143 125t-87 199.5t-29.5 267q0 174 21 303.5t59.5 221t91.5 149.5t117 90q40 20 87.5 34.5t97 26t98 20t90.5 15.5q35 7 75 19t68 31v-97
q-22 -14 -58.5 -26.5t-82.5 -20.5q-44 -7 -92.5 -15.5t-95 -19t-89 -24t-74.5 -31.5q-88 -52 -142 -175.5t-66 -328.5h4q22 43 58.5 82.5t84 69.5t105 47.5t122.5 17.5q111 0 191 -40.5t131.5 -110.5t76.5 -162.5t25 -196.5zM934 477q0 100 -21 180t-63.5 136.5t-106.5 87
t-149 30.5q-60 0 -113.5 -19.5t-99.5 -52.5t-82 -77t-61 -94q0 -17 -1 -46.5t-1 -58.5q0 -100 20.5 -191t64 -160.5t111.5 -111t164 -41.5q84 0 147.5 33.5t106 91t63.5 133.5t21 160z" />
    <glyph glyph-name="afii10067" unicode="&#x432;" horiz-adv-x="981" 
d="M889 293q0 -65 -22.5 -118.5t-63.5 -92.5t-97.5 -60.5t-123.5 -21.5h-418v1024h389q77 0 132.5 -19t91.5 -52t53.5 -78t17.5 -97q0 -47 -13.5 -87.5t-38 -73t-60 -54.5t-79.5 -31q57 -6 100.5 -26.5t72.5 -52t44 -72.5t15 -88zM752 764q0 35 -10.5 67t-35.5 56t-65 38.5
t-100 14.5h-285v-371h260q68 0 113.5 16.5t72.5 44t38.5 62.5t11.5 72zM793 285q0 41 -13.5 77.5t-44 63.5t-81 43t-124.5 16h-274v-401h307q57 0 100 14.5t72 41t43.5 63.5t14.5 82z" />
    <glyph glyph-name="afii10068" unicode="&#x433;" horiz-adv-x="694" 
d="M256 940v-940h-92v1024h500v-84h-408z" />
    <glyph glyph-name="afii10069" unicode="&#x434;" horiz-adv-x="1075" 
d="M946 -270v270h-817v-270h-84v354h90q67 97 118.5 209t86.5 233t54 247t22 251h456v-940h158v-354h-84zM780 940h-280q-8 -107 -27 -218t-51.5 -221t-78 -215.5t-105.5 -201.5h542v856z" />
    <glyph glyph-name="afii10070" unicode="&#x435;" horiz-adv-x="1034" 
d="M186 508q0 -211 97.5 -330t267.5 -119q172 0 336 127v-98q-159 -113 -355 -113q-198 0 -320 142t-122 401q0 224 127.5 377.5t331.5 153.5q191 0 293 -134t102 -366v-41h-758zM848 592q-6 177 -85 275t-218 98q-144 0 -238.5 -96.5t-116.5 -276.5h658z" />
    <glyph glyph-name="afii10072" unicode="&#x436;" horiz-adv-x="1362" 
d="M1212 0l-481 502h-4v-502h-92v502h-4l-481 -502h-130l512 524l-495 500h119l475 -489h4v489h92v-489h4l475 489h119l-496 -500l512 -524h-129z" />
    <glyph glyph-name="afii10073" unicode="&#x437;" horiz-adv-x="936" 
d="M844 285q0 -59 -22.5 -115t-73.5 -99.5t-134.5 -69.5t-205.5 -26q-41 0 -86 5t-88.5 14t-82 21.5t-65.5 27.5v96q35 -19 75.5 -34t83 -25t84.5 -15.5t81 -5.5q100 0 165.5 18t104 47.5t53.5 68.5t15 81q0 61 -23.5 102t-67 66t-106 35t-139.5 10h-140v84h127
q150 0 223.5 49t73.5 154q0 42 -16 77t-49 60.5t-84 39.5t-121 14q-84 0 -167.5 -22t-152.5 -54v90q29 12 66 24.5t79.5 22.5t89.5 16.5t97 6.5q97 0 164.5 -22.5t110 -59.5t61.5 -84.5t19 -96.5q0 -99 -55.5 -164t-157.5 -83v-4q63 -3 112 -23.5t83 -53.5t51.5 -77.5
t17.5 -95.5z" />
    <glyph glyph-name="afii10074" unicode="&#x438;" horiz-adv-x="1128" 
d="M872 0v856q-8 -11 -15.5 -22t-12.5 -17l-615 -817h-65v1024h92v-848q6 11 12 21t13 18l610 809h74v-1024h-93z" />
    <glyph glyph-name="afii10075" unicode="&#x439;" horiz-adv-x="1128" 
d="M872 0v856q-8 -11 -15.5 -22t-12.5 -17l-615 -817h-65v1024h92v-848q6 11 12 21t13 18l610 809h74v-1024h-93zM558 1266q58 0 104.5 17t80 46t53 67t24.5 79h98q-10 -54 -37.5 -105.5t-72.5 -91.5t-108 -64t-143 -24t-140 24t-101 64t-65.5 91.5t-34.5 105.5h98
q5 -41 22 -79t47 -67t73 -46t100 -17h2z" />
    <glyph glyph-name="afii10076" unicode="&#x43a;" horiz-adv-x="891" 
d="M741 0l-481 502h-4v-502h-92v1024h92v-489h4l475 489h119l-496 -500l512 -524h-129z" />
    <glyph glyph-name="afii10077" unicode="&#x43b;" horiz-adv-x="1026" 
d="M770 0v940h-299q-17 -228 -44.5 -405.5t-72 -299.5t-109.5 -185.5t-157 -63.5q-15 0 -30.5 2.5t-26.5 5.5v82q8 -3 26 -5.5t29 -2.5q67 0 117 62.5t86 184t60.5 300t39.5 409.5h473v-1024h-92z" />
    <glyph glyph-name="afii10078" unicode="&#x43c;" horiz-adv-x="1300" 
d="M1047 0v885l-27 -72q-11 -30 -23.5 -62t-21.5 -55l-277 -696h-75l-299 696q-10 21 -22 53t-23 62q-13 35 -27 74v-885h-88v1024h110l312 -709q11 -24 23.5 -56.5t23.5 -62.5q13 -35 26 -71q14 35 28 69q11 29 24 61t22 56l291 713h113v-1024h-90z" />
    <glyph glyph-name="afii10079" unicode="&#x43d;" horiz-adv-x="1116" 
d="M860 0v489h-604v-489h-92v1024h92v-451h604v451h92v-1024h-92z" />
    <glyph glyph-name="afii10080" unicode="&#x43e;" horiz-adv-x="1149" 
d="M575 -25q-224 0 -354.5 147.5t-130.5 383.5q0 255 136.5 399t359.5 144q219 0 346 -143t127 -396q0 -239 -129.5 -387t-354.5 -148zM582 965q-181 0 -288.5 -122t-107.5 -339q0 -201 105 -323t287 -122q185 0 285 120t100 333q0 219 -99.5 336t-281.5 117z" />
    <glyph glyph-name="afii10081" unicode="&#x43f;" horiz-adv-x="1116" 
d="M860 0v940h-604v-940h-92v1024h788v-1024h-92z" />
    <glyph glyph-name="afii10082" unicode="&#x440;" horiz-adv-x="1147" 
d="M260 182h-4v-653h-92v1495h92v-211h4q55 113 157.5 174.5t225.5 61.5q195 0 304.5 -134.5t109.5 -365.5q0 -257 -125.5 -415.5t-331.5 -158.5q-230 0 -340 207zM256 563v-129q0 -154 97 -264.5t255 -110.5q157 0 255 134.5t98 353.5q0 192 -90 305t-240 113
q-179 0 -277 -120t-98 -282z" />
    <glyph glyph-name="afii10083" unicode="&#x441;" horiz-adv-x="909" 
d="M827 45q-114 -70 -272 -70q-209 0 -337 143.5t-128 375.5q0 244 144 399.5t370 155.5q117 0 227 -48v-104q-110 68 -241 68q-180 0 -292 -129.5t-112 -335.5q0 -199 102.5 -320t270.5 -121q154 0 268 82v-96z" />
    <glyph glyph-name="afii10084" unicode="&#x442;" horiz-adv-x="756" 
d="M426 940v-940h-92v940h-307v84h706v-84h-307z" />
    <glyph glyph-name="afii10085" unicode="&#x443;" horiz-adv-x="928" 
d="M414 -209q-56 -138 -124 -205t-175 -67q-45 0 -80 14v92q36 -14 84 -14q123 0 194 170l95 227l-388 1016h103l309 -834q10 -27 14 -41q4 -19 9 -34h4l24 69l330 840h100z" />
    <glyph glyph-name="afii10086" unicode="&#x444;" horiz-adv-x="1321" 
d="M1235 506q0 -111 -37.5 -204t-103.5 -160t-156 -104.5t-195 -37.5h-36v-481h-93v481h-36q-105 0 -195 37.5t-156 104.5t-103.5 160t-37.5 204q0 118 35 214t99 163.5t153.5 104t199.5 36.5h41v434h93v-434h41q109 0 199 -36.5t154 -104t99 -163.5t35 -214zM1139 504
q0 109 -30 191t-83 136.5t-125.5 81.5t-157.5 27h-36v-856h28q88 0 162 28.5t128 82.5t84 132t30 177zM614 940h-39q-84 0 -156 -27t-124.5 -81.5t-82.5 -136.5t-30 -191q0 -99 30 -177t84 -132t128 -82.5t162 -28.5h28v856z" />
    <glyph glyph-name="afii10087" unicode="&#x445;" horiz-adv-x="862" 
d="M481 502l334 -502h-117l-270 432h-4l-36 -57q-7 -12 -17 -27l-226 -348h-112l342 500l-336 524h108l228 -367q44 -71 53 -88h4l51 84l238 371h108z" />
    <glyph glyph-name="afii10088" unicode="&#x446;" horiz-adv-x="1155" 
d="M1026 -373v373h-862v1024h92v-940h604v940h92v-940h158v-457h-84z" />
    <glyph glyph-name="afii10089" unicode="&#x447;" horiz-adv-x="1071" 
d="M815 0v446q-97 -52 -185 -80t-179 -28q-66 0 -122 19.5t-97.5 61.5t-65 109t-23.5 162v334h93v-326q0 -60 10.5 -110.5t36 -87t69 -57.5t109.5 -21q97 0 185 29t169 75v498h92v-1024h-92z" />
    <glyph glyph-name="afii10090" unicode="&#x448;" horiz-adv-x="1538" 
d="M164 0v1024h92v-940h467v940h92v-940h467v940h92v-1024h-1210z" />
    <glyph glyph-name="afii10091" unicode="&#x449;" horiz-adv-x="1577" 
d="M1448 -373v373h-1284v1024h92v-940h467v940h92v-940h467v940h92v-940h158v-457h-84z" />
    <glyph glyph-name="afii10092" unicode="&#x44a;" horiz-adv-x="1133" 
d="M1051 307q0 -78 -27 -136t-71 -96t-99.5 -56.5t-112.5 -18.5h-393v940h-321v84h413v-420h293q74 0 133 -20t100 -58.5t63 -93.5t22 -125zM954 307q0 45 -14.5 84t-44 67.5t-74.5 45t-106 16.5h-275v-436h277q64 0 109.5 17.5t73.5 48t41 71t13 86.5z" />
    <glyph glyph-name="afii10093" unicode="&#x44b;" horiz-adv-x="1346" 
d="M1090 0v1024h92v-1024h-92zM866 307q0 -78 -27 -136t-70.5 -96t-99 -56.5t-112.5 -18.5h-393v1024h92v-420h293q73 0 132 -20t100 -58.5t63 -93.5t22 -125zM770 307q0 45 -14.5 84t-44.5 67.5t-75 45t-106 16.5h-274v-436h276q65 0 110 17.5t73.5 48t41.5 71t13 86.5z
" />
    <glyph glyph-name="afii10094" unicode="&#x44c;" horiz-adv-x="948" 
d="M866 307q0 -78 -27 -136t-70.5 -96t-99 -56.5t-112.5 -18.5h-393v1024h92v-420h293q73 0 132 -20t100 -58.5t63 -93.5t22 -125zM770 307q0 45 -14.5 84t-44.5 67.5t-75 45t-106 16.5h-274v-436h276q65 0 110 17.5t73.5 48t41.5 71t13 86.5z" />
    <glyph glyph-name="afii10095" unicode="&#x44d;" horiz-adv-x="918" 
d="M827 510q0 -114 -34.5 -212t-97 -170t-150 -112.5t-193.5 -40.5q-96 0 -162 19.5t-104 44.5v98q42 -32 111.5 -55t158.5 -23q78 0 145 28t117 81t79.5 129.5t33.5 173.5h-504v80h504q-6 88 -32.5 164t-75 131.5t-119.5 87t-166 31.5q-81 0 -145.5 -19.5t-102.5 -44.5v90
q21 11 50.5 21.5t63.5 18.5t70.5 13t71.5 5q111 0 200 -37t151.5 -106.5t96 -169.5t33.5 -226z" />
    <glyph glyph-name="afii10096" unicode="&#x44e;" horiz-adv-x="1595" 
d="M1505 510q0 -107 -27 -204t-82.5 -170.5t-140.5 -117t-200 -43.5q-111 0 -195 41t-140.5 111.5t-86 164t-31.5 197.5h-346v-489h-92v1024h92v-451h348q9 126 51 216t105 148t142 85t163 27q100 0 181.5 -36t139 -104.5t88.5 -169t31 -229.5zM1409 512q0 114 -24.5 199.5
t-69.5 141.5t-109.5 84t-144.5 28q-82 0 -149 -31t-114.5 -90t-73.5 -144.5t-26 -195.5q0 -98 24 -180t70 -141t112.5 -91.5t152.5 -32.5q90 0 156.5 33.5t110 94t64.5 143.5t21 182z" />
    <glyph glyph-name="afii10097" unicode="&#x44f;" horiz-adv-x="987" 
d="M727 0v446h-170q-27 0 -57 -7.5t-60 -28t-58 -56t-52 -90.5l-115 -264h-113l129 285q29 66 73.5 113.5t101.5 70.5q-125 15 -185.5 86.5t-60.5 183.5q0 52 17.5 103t57.5 91.5t105 65.5t160 25h323v-1024h-96zM727 944h-221q-122 0 -183 -54.5t-61 -150.5q0 -57 17 -96.5
t48.5 -64.5t75.5 -36.5t97 -11.5h227v414z" />
    <glyph glyph-name="afii10071" unicode="&#x451;" horiz-adv-x="1034" 
d="M186 508q0 -211 97.5 -330t267.5 -119q172 0 336 127v-98q-159 -113 -355 -113q-198 0 -320 142t-122 401q0 224 127.5 377.5t331.5 153.5q191 0 293 -134t102 -366v-41h-758zM848 592q-6 177 -85 275t-218 98q-144 0 -238.5 -96.5t-116.5 -276.5h658zM702 1188
q-27 0 -49 19.5t-22 52.5q0 31 21.5 50t47.5 19q29 0 52.5 -19.5t23.5 -49.5q0 -31 -21.5 -51.5t-52.5 -20.5zM369 1188q-28 0 -50 19.5t-22 52.5q0 31 22 50t48 19q29 0 52 -19.5t23 -49.5q0 -31 -21 -51.5t-52 -20.5z" />
    <glyph glyph-name="afii10099" unicode="&#x452;" horiz-adv-x="1153" 
d="M1024 395q0 -195 -26 -346t-79.5 -253.5t-134.5 -156t-192 -53.5q-20 0 -48 5.5t-52 13.5v90q22 -8 52 -15.5t50 -7.5q94 0 158 50t103 143.5t56 226.5t17 299q0 148 -21.5 252.5t-63 170.5t-102.5 96t-139 30q-59 0 -117 -25t-104 -75t-74 -124.5t-28 -172.5v-543h-93
v1231h-135v84h135v201h93v-201h389v-84h-389v-420h4q24 42 55.5 81t72.5 68t92 46.5t113 17.5q107 0 184 -44t127 -125.5t73.5 -198t23.5 -261.5z" />
    <glyph glyph-name="afii10100" unicode="&#x453;" horiz-adv-x="694" 
d="M256 940v-940h-92v1024h500v-84h-408zM375 1188h-90l234 328h104z" />
    <glyph glyph-name="afii10101" unicode="&#x454;" horiz-adv-x="918" 
d="M720 -2.5q-69 -22.5 -165 -22.5q-106 0 -192 38t-146.5 106.5t-93.5 164t-33 210.5q0 126 39 228t107.5 175t162.5 112.5t205 39.5q69 0 127 -14.5t100 -33.5v-104q-42 26 -101.5 47t-139.5 21q-86 0 -157 -30.5t-123 -85.5t-83.5 -131t-38.5 -167h502v-80h-504
q4 -97 33.5 -173.5t79 -129.5t116 -81t144.5 -28q90 0 158 25t110 57v-96q-38 -25 -107 -47.5z" />
    <glyph glyph-name="afii10102" unicode="&#x455;" horiz-adv-x="795" 
d="M111 45v111q52 -45 126 -71t128 -26q241 0 241 197q0 68 -53 116t-172 99q-147 64 -206.5 132.5t-59.5 166.5q0 125 95.5 202t235.5 77q132 0 226 -54v-104q-114 74 -236 74q-101 0 -163 -52.5t-62 -136.5q0 -73 39 -118.5t172 -104.5q160 -72 220 -133.5t60 -163.5
q0 -122 -91.5 -201.5t-252.5 -79.5q-148 0 -247 70z" />
    <glyph glyph-name="afii10104" unicode="&#x457;" horiz-adv-x="420" 
d="M164 0v1024h92v-1024h-92zM377 1188q-27 0 -49 19.5t-22 52.5q0 31 21.5 50t47.5 19q29 0 52.5 -19.5t23.5 -49.5q0 -31 -21.5 -51.5t-52.5 -20.5zM44 1188q-28 0 -50 19.5t-22 52.5q0 31 22 50t48 19q29 0 52 -19.5t23 -49.5q0 -31 -21 -51.5t-52 -20.5z" />
    <glyph glyph-name="afii10106" unicode="&#x459;" horiz-adv-x="1583" 
d="M1473 307q0 -78 -27 -136t-71 -96t-99.5 -56.5t-112.5 -18.5h-393v940h-299q-17 -228 -44.5 -405.5t-72 -299.5t-109.5 -185.5t-157 -63.5q-15 0 -30.5 2.5t-26.5 5.5v82q8 -3 26 -5.5t29 -2.5q67 0 117 62.5t86 184t60.5 300t39.5 409.5h473v-420h293q74 0 133 -20
t100 -58.5t63 -93.5t22 -125zM1376 307q0 45 -14.5 84t-44.5 67.5t-75 45t-105 16.5h-275v-436h277q64 0 109.5 17.5t73.5 48t41 71t13 86.5z" />
    <glyph glyph-name="afii10107" unicode="&#x45a;" horiz-adv-x="1673" 
d="M1563 303q0 -78 -27 -135.5t-71 -94.5t-99.5 -55t-112.5 -18h-393v512h-604v-512h-92v1024h92v-428h604v428h92v-428h293q74 0 133 -19.5t100 -57t63 -92t22 -124.5zM1466 303q0 45 -14.5 83.5t-44 66.5t-74.5 43.5t-106 15.5h-275v-428h277q64 0 109.5 17t73.5 46.5
t41 69.5t13 86z" />
    <glyph glyph-name="afii10108" unicode="&#x45b;" horiz-adv-x="1118" 
d="M883 0v590q0 181 -66.5 265.5t-206.5 84.5q-29 0 -65 -7.5t-72.5 -25.5t-71.5 -48t-62 -74t-43.5 -104t-16.5 -138v-543h-93v1231h-135v84h135v201h93v-201h389v-84h-389v-416h4q24 44 58.5 82t78.5 66.5t97.5 44.5t117.5 16q86 0 150 -28.5t106 -82t63 -130t21 -173.5
v-610h-92z" />
    <glyph glyph-name="afii10109" unicode="&#x45c;" horiz-adv-x="891" 
d="M741 0l-481 502h-4v-502h-92v1024h92v-489h4l475 489h119l-496 -500l512 -524h-129zM515 1188h-90l234 328h104z" />
    <glyph glyph-name="afii10110" unicode="&#x45e;" horiz-adv-x="928" 
d="M414 -209q-56 -138 -124 -205t-175 -67q-45 0 -80 14v92q36 -14 84 -14q123 0 194 170l95 227l-388 1016h103l309 -834q10 -27 14 -41q4 -19 9 -34h4l24 69l330 840h100zM449 1266q58 0 104.5 17t80 46t53 67t24.5 79h98q-10 -54 -37.5 -105.5t-72.5 -91.5t-108 -64
t-143 -24t-140 24t-101 64t-65.5 91.5t-34.5 105.5h98q5 -41 22 -79t47 -67t73 -46t100 -17h2z" />
    <glyph glyph-name="afii10193" unicode="&#x45f;" horiz-adv-x="1116" 
d="M602 0v-373h-84v373h-354v1024h92v-940h604v940h92v-1024h-350z" />
    <glyph glyph-name="afii10050" unicode="&#x490;" horiz-adv-x="918" 
d="M283 1343v-1343h-99v1434h578v264h96v-355h-575z" />
    <glyph glyph-name="afii10098" unicode="&#x491;" horiz-adv-x="743" 
d="M256 940v-940h-92v1024h434v270h84v-354h-426z" />
    <glyph glyph-name="glyph565" 
 />
    <glyph glyph-name="afii61352" unicode="&#x2116;" horiz-adv-x="2320" 
d="M2202 1028q0 -84 -23.5 -160t-71 -134.5t-120.5 -93t-172 -34.5q-98 0 -171 34t-121 91.5t-72 133t-24 159.5q0 114 33.5 195t88.5 132.5t126.5 76t147.5 24.5q87 0 157 -28.5t119.5 -82.5t76 -133t26.5 -180zM1460 350v78h709v-78h-709zM1168 0l-832 1169q-5 8 -13.5 20
t-17 24.5t-16.5 25t-12 20.5h-4q1 -13 1.5 -29.5t0.5 -33.5v-33.5v-30.5v-1132h-91v1434h74l825 -1159q7 -10 15.5 -22.5l17 -25t16.5 -24t13 -20.5h4q-2 27 -3 61.5t-1 58.5v1131h90v-1434h-67zM2116 1030q0 88 -21 153.5t-60 108t-94 63.5t-122 21q-70 0 -126.5 -23.5
t-96.5 -68.5t-61.5 -110.5t-21.5 -149.5q0 -76 20 -138.5t58.5 -107.5t95 -69.5t128.5 -24.5q76 0 133 25t94 71t55.5 109.5t18.5 140.5z" />
    <glyph glyph-name="glyph567" 
 />
    <glyph glyph-name="four.frac" 
 />
    <glyph glyph-name="five.frac" 
 />
    <glyph glyph-name="seven.frac" 
 />
    <glyph glyph-name="eight.frac" 
 />
    <glyph glyph-name="glyph572" 
 />
    <glyph glyph-name="glyph573" 
 />
    <glyph glyph-name="glyph574" 
 />
    <glyph glyph-name="currency" unicode="&#xa4;" horiz-adv-x="1139" 
d="M946 293l-135 135q-105 -86 -242 -86q-140 0 -241 86l-135 -135l-60 61l137 131q-84 116 -84 240q0 140 84 240l-137 133l60 61l135 -135q113 84 241 84q137 0 240 -84l137 135l60 -61l-138 -133q84 -101 84 -240q0 -132 -84 -240l138 -131zM571 1024q-128 0 -214.5 -88
t-86.5 -209t89.5 -211t209.5 -90q122 0 210.5 89t88.5 212q0 126 -90 211.5t-207 85.5z" />
    <glyph glyph-name="glyph576" 
 />
    <glyph glyph-name="glyph577" 
 />
    <glyph glyph-name="glyph578" 
 />
    <glyph glyph-name="glyph579" 
 />
    <glyph glyph-name="glyph580" 
 />
    <glyph glyph-name="glyph581" 
 />
    <glyph glyph-name="glyph582" 
 />
    <glyph glyph-name="glyph583" 
 />
    <glyph glyph-name="glyph584" 
 />
    <glyph glyph-name="glyph585" 
 />
    <glyph glyph-name="glyph586" 
 />
    <glyph glyph-name="glyph587" 
 />
    <glyph glyph-name="glyph588" 
 />
    <glyph glyph-name="glyph589" 
 />
    <glyph glyph-name="glyph590" 
 />
    <glyph glyph-name="glyph591" 
 />
    <glyph glyph-name="glyph592" 
 />
    <glyph glyph-name="glyph593" 
 />
    <glyph glyph-name="glyph594" 
 />
    <glyph glyph-name="glyph595" 
 />
    <glyph glyph-name="glyph596" 
 />
    <glyph glyph-name="glyph597" 
 />
    <glyph glyph-name="glyph598" 
 />
    <glyph glyph-name="glyph599" 
 />
    <glyph glyph-name="glyph600" 
 />
    <glyph glyph-name="glyph601" 
 />
    <glyph glyph-name="glyph602" 
 />
    <glyph glyph-name="glyph603" 
 />
    <glyph glyph-name="glyph604" 
 />
    <glyph glyph-name="glyph605" 
 />
    <glyph glyph-name="glyph606" 
 />
    <glyph glyph-name="glyph607" 
 />
    <glyph glyph-name="glyph608" 
 />
    <glyph glyph-name="glyph609" 
 />
    <glyph glyph-name="glyph610" 
 />
    <glyph glyph-name="glyph611" 
 />
    <glyph glyph-name="glyph612" 
 />
    <glyph glyph-name="glyph613" 
 />
    <glyph glyph-name="glyph614" 
 />
    <glyph glyph-name="glyph615" 
 />
    <glyph glyph-name="glyph616" 
 />
    <glyph glyph-name="glyph617" 
 />
    <glyph glyph-name="glyph618" 
 />
    <glyph glyph-name="glyph619" 
 />
    <glyph glyph-name="glyph620" 
 />
    <glyph glyph-name="glyph621" 
 />
    <glyph glyph-name="glyph622" 
 />
    <glyph glyph-name="glyph623" 
 />
    <glyph glyph-name="glyph624" 
 />
    <glyph glyph-name="glyph625" 
 />
    <glyph glyph-name="glyph626" 
 />
    <glyph glyph-name="glyph627" 
 />
    <glyph glyph-name="glyph628" 
 />
    <glyph glyph-name="glyph629" 
 />
    <glyph glyph-name="glyph630" 
 />
    <glyph glyph-name="glyph631" 
 />
    <glyph glyph-name="glyph632" 
 />
    <glyph glyph-name="glyph633" 
 />
    <glyph glyph-name="glyph634" 
 />
    <glyph glyph-name="glyph635" 
 />
    <glyph glyph-name="glyph636" 
 />
    <glyph glyph-name="glyph637" 
 />
    <glyph glyph-name="glyph638" 
 />
    <glyph glyph-name="glyph639" 
 />
    <glyph glyph-name="glyph640" 
 />
    <glyph glyph-name="glyph641" 
 />
    <glyph glyph-name="glyph642" 
 />
    <glyph glyph-name="glyph643" 
 />
    <glyph glyph-name="glyph644" 
 />
    <glyph glyph-name="glyph645" 
 />
    <glyph glyph-name="glyph646" 
 />
    <glyph glyph-name="glyph647" 
 />
    <glyph glyph-name="glyph648" 
 />
    <glyph glyph-name="glyph649" 
 />
    <glyph glyph-name="glyph650" 
 />
    <glyph glyph-name="glyph651" 
 />
    <glyph glyph-name="glyph652" 
 />
    <glyph glyph-name="glyph653" 
 />
    <glyph glyph-name="glyph654" 
 />
    <glyph glyph-name="glyph655" 
 />
    <glyph glyph-name="glyph656" 
 />
    <glyph glyph-name="glyph657" 
 />
    <glyph glyph-name="glyph658" 
 />
    <glyph glyph-name="glyph659" 
 />
    <glyph glyph-name="glyph660" 
 />
    <glyph glyph-name="glyph661" 
 />
    <glyph glyph-name="glyph662" 
 />
    <glyph glyph-name="glyph663" 
 />
    <glyph glyph-name="glyph664" 
 />
    <glyph glyph-name="glyph665" 
 />
    <glyph glyph-name="glyph666" 
 />
    <glyph glyph-name="glyph667" 
 />
    <glyph glyph-name="glyph668" 
 />
    <glyph glyph-name="glyph669" 
 />
    <glyph glyph-name="glyph670" 
 />
    <glyph glyph-name="glyph671" 
 />
    <glyph glyph-name="glyph672" 
 />
    <glyph glyph-name="glyph673" 
 />
    <glyph glyph-name="glyph674" 
 />
    <glyph glyph-name="glyph675" 
 />
    <glyph glyph-name="glyph676" 
 />
    <glyph glyph-name="glyph677" 
 />
    <glyph glyph-name="glyph678" 
 />
    <glyph glyph-name="glyph679" 
 />
    <glyph glyph-name="glyph680" 
 />
    <glyph glyph-name="glyph681" 
 />
    <glyph glyph-name="glyph682" 
 />
    <glyph glyph-name="glyph683" 
 />
    <glyph glyph-name="glyph684" 
 />
    <glyph glyph-name="glyph685" 
 />
    <glyph glyph-name="glyph686" 
 />
    <glyph glyph-name="glyph687" 
 />
    <glyph glyph-name="glyph688" 
 />
    <glyph glyph-name="glyph689" 
 />
    <glyph glyph-name="glyph690" 
 />
    <glyph glyph-name="glyph691" 
 />
    <glyph glyph-name="glyph692" 
 />
    <glyph glyph-name="afii10055" unicode="&#x406;" horiz-adv-x="467" 
d="M184 0v1434h99v-1434h-99z" />
    <glyph glyph-name="afii10057" unicode="&#x408;" horiz-adv-x="664" 
d="M487 494q0 -519 -360 -519q-56 0 -109 15v96q59 -20 111 -20q138 0 199 104.5t61 325.5v938h98v-940z" />
    <glyph glyph-name="afii10103" unicode="&#x456;" horiz-adv-x="420" 
d="M209 1282q-30 0 -53 22t-23 56q0 33 23.5 53.5t52.5 20.5q31 0 54.5 -20t23.5 -54q0 -32 -23 -55t-55 -23zM164 0v1024h92v-1024h-92z" />
    <glyph glyph-name="afii10105" unicode="&#x458;" horiz-adv-x="420" 
d="M209 1282q-30 0 -53 22t-23 56q0 33 23.5 53.5t52.5 20.5q31 0 54.5 -20t23.5 -54q0 -32 -23 -55t-55 -23zM256 29q0 -510 -362 -510q-72 0 -146 35v96q80 -47 156 -47q260 0 260 409v1012h92v-995z" />
    <glyph glyph-name="glyph697" 
 />
    <glyph glyph-name="glyph698" 
 />
    <glyph glyph-name="glyph699" 
 />
    <glyph glyph-name="glyph700" 
 />
    <glyph glyph-name="glyph701" 
 />
    <glyph glyph-name="glyph702" 
 />
    <glyph glyph-name="glyph703" 
 />
    <glyph glyph-name="glyph704" 
 />
    <glyph glyph-name="glyph705" 
 />
    <glyph glyph-name="glyph706" 
 />
    <glyph glyph-name="glyph707" 
 />
    <glyph glyph-name="glyph708" 
 />
    <glyph glyph-name="glyph709" 
 />
    <glyph glyph-name="glyph710" 
 />
    <glyph glyph-name="glyph711" 
 />
    <glyph glyph-name="glyph712" 
 />
    <glyph glyph-name="glyph713" 
 />
    <glyph glyph-name="glyph714" 
 />
    <glyph glyph-name="glyph715" 
 />
    <glyph glyph-name="glyph716" 
 />
    <glyph glyph-name="glyph717" 
 />
    <glyph glyph-name="glyph718" 
 />
    <glyph glyph-name="glyph719" 
 />
    <glyph glyph-name="glyph720" 
 />
    <glyph glyph-name="glyph721" 
 />
    <glyph glyph-name="glyph722" 
 />
    <glyph glyph-name="glyph723" 
 />
    <glyph glyph-name="glyph724" 
 />
    <glyph glyph-name="glyph725" 
 />
    <glyph glyph-name="glyph726" 
 />
    <glyph glyph-name="glyph727" 
 />
    <glyph glyph-name="glyph728" 
 />
    <glyph glyph-name="glyph729" 
 />
    <glyph glyph-name="glyph730" 
 />
    <glyph glyph-name="glyph731" 
 />
    <glyph glyph-name="glyph732" 
 />
    <glyph glyph-name="glyph733" 
 />
    <glyph glyph-name="glyph734" 
 />
    <glyph glyph-name="glyph735" 
 />
    <glyph glyph-name="glyph736" 
 />
    <glyph glyph-name="glyph737" 
 />
    <glyph glyph-name="glyph738" 
 />
    <glyph glyph-name="glyph739" 
 />
    <glyph glyph-name="glyph740" 
 />
    <glyph glyph-name="glyph741" 
 />
    <glyph glyph-name="glyph742" 
 />
    <glyph glyph-name="glyph743" 
 />
    <glyph glyph-name="glyph744" 
 />
    <glyph glyph-name="glyph745" 
 />
    <glyph glyph-name="glyph746" 
 />
    <glyph glyph-name="glyph747" 
 />
    <glyph glyph-name="glyph748" 
 />
    <glyph glyph-name="glyph749" 
 />
    <glyph glyph-name="glyph750" 
 />
    <glyph glyph-name="glyph751" 
 />
    <glyph glyph-name="glyph752" 
 />
    <glyph glyph-name="glyph753" 
 />
    <glyph glyph-name="glyph754" 
 />
    <glyph glyph-name="glyph755" 
 />
    <glyph glyph-name="glyph756" 
 />
    <glyph glyph-name="glyph757" 
 />
    <glyph glyph-name="glyph758" 
 />
    <glyph glyph-name="glyph759" 
 />
    <glyph glyph-name="glyph760" 
 />
    <glyph glyph-name="glyph761" 
 />
    <glyph glyph-name="glyph762" 
 />
    <glyph glyph-name="glyph763" 
 />
    <glyph glyph-name="glyph764" 
 />
    <glyph glyph-name="glyph765" 
 />
    <glyph glyph-name="glyph766" 
 />
    <glyph glyph-name="glyph767" 
 />
    <glyph glyph-name="glyph768" 
 />
    <glyph glyph-name="glyph769" 
 />
    <glyph glyph-name="glyph770" 
 />
    <glyph glyph-name="glyph771" 
 />
    <glyph glyph-name="glyph772" 
 />
    <glyph glyph-name="glyph773" 
 />
    <glyph glyph-name="glyph774" 
 />
    <glyph glyph-name="glyph775" 
 />
    <glyph glyph-name="glyph776" 
 />
    <glyph glyph-name="glyph777" 
 />
    <glyph glyph-name="glyph778" 
 />
    <glyph glyph-name="glyph779" 
 />
    <glyph glyph-name="glyph780" 
 />
    <glyph glyph-name="glyph781" 
 />
    <glyph glyph-name="glyph782" 
 />
    <glyph glyph-name="glyph783" 
 />
    <glyph glyph-name="glyph784" 
 />
    <glyph glyph-name="glyph785" 
 />
    <glyph glyph-name="glyph786" 
 />
    <glyph glyph-name="glyph787" 
 />
    <glyph glyph-name="glyph788" 
 />
    <glyph glyph-name="glyph789" 
 />
    <glyph glyph-name="glyph790" 
 />
    <glyph glyph-name="glyph791" 
 />
    <glyph glyph-name="glyph792" 
 />
    <glyph glyph-name="glyph793" 
 />
    <glyph glyph-name="glyph794" 
 />
    <glyph glyph-name="glyph795" 
 />
    <glyph glyph-name="glyph796" 
 />
    <glyph glyph-name="glyph797" 
 />
    <glyph glyph-name="glyph798" 
 />
    <glyph glyph-name="glyph799" 
 />
    <glyph glyph-name="glyph800" 
 />
    <glyph glyph-name="glyph801" 
 />
    <glyph glyph-name="glyph802" 
 />
    <glyph glyph-name="glyph803" 
 />
    <glyph glyph-name="glyph804" 
 />
    <glyph glyph-name="glyph805" 
 />
    <glyph glyph-name="glyph806" 
 />
    <glyph glyph-name="glyph807" 
 />
    <glyph glyph-name="glyph808" 
 />
    <glyph glyph-name="glyph809" 
 />
    <glyph glyph-name="glyph810" 
 />
    <glyph glyph-name="glyph811" 
 />
    <glyph glyph-name="glyph812" 
 />
    <glyph glyph-name="glyph813" 
 />
    <glyph glyph-name="glyph814" 
 />
    <glyph glyph-name="glyph815" 
 />
    <glyph glyph-name="glyph816" 
 />
    <glyph glyph-name="glyph817" 
 />
    <glyph glyph-name="glyph818" 
 />
    <glyph glyph-name="glyph819" 
 />
    <glyph glyph-name="glyph820" 
 />
    <glyph glyph-name="glyph821" 
 />
    <glyph glyph-name="glyph822" 
 />
    <glyph glyph-name="glyph823" 
 />
    <glyph glyph-name="glyph824" 
 />
    <glyph glyph-name="glyph825" 
 />
    <glyph glyph-name="glyph826" 
 />
    <glyph glyph-name="glyph827" 
 />
    <glyph glyph-name="glyph828" 
 />
    <glyph glyph-name="glyph829" 
 />
    <glyph glyph-name="glyph830" 
 />
    <glyph glyph-name="glyph831" 
 />
    <glyph glyph-name="glyph832" 
 />
    <glyph glyph-name="glyph833" 
 />
    <glyph glyph-name="glyph834" 
 />
    <glyph glyph-name="glyph835" 
 />
    <glyph glyph-name="glyph836" 
 />
    <glyph glyph-name="glyph837" 
 />
    <glyph glyph-name="glyph838" 
 />
    <glyph glyph-name="glyph839" 
 />
    <glyph glyph-name="glyph840" 
 />
    <glyph glyph-name="glyph841" 
 />
    <glyph glyph-name="glyph842" 
 />
    <glyph glyph-name="glyph843" 
 />
    <glyph glyph-name="glyph844" 
 />
    <glyph glyph-name="glyph845" 
 />
    <glyph glyph-name="glyph846" 
 />
    <glyph glyph-name="glyph847" 
 />
    <glyph glyph-name="glyph848" 
 />
    <glyph glyph-name="glyph849" 
 />
    <glyph glyph-name="glyph850" 
 />
    <glyph glyph-name="glyph851" 
 />
    <glyph glyph-name="glyph852" 
 />
    <glyph glyph-name="glyph853" 
 />
    <glyph glyph-name="glyph854" 
 />
    <glyph glyph-name="glyph855" 
 />
    <glyph glyph-name="glyph856" 
 />
    <glyph glyph-name="glyph857" 
 />
    <glyph glyph-name="glyph858" 
 />
    <glyph glyph-name="glyph859" 
 />
    <glyph glyph-name="glyph860" 
 />
    <glyph glyph-name="glyph861" 
 />
    <glyph glyph-name="glyph862" 
 />
    <glyph glyph-name="glyph863" 
 />
    <glyph glyph-name="glyph864" 
 />
    <glyph glyph-name="glyph865" 
 />
    <glyph glyph-name="glyph866" 
 />
    <glyph glyph-name="glyph867" 
 />
    <glyph glyph-name="glyph868" 
 />
    <glyph glyph-name="glyph869" 
 />
    <glyph glyph-name="glyph870" 
 />
    <glyph glyph-name="glyph871" 
 />
    <glyph glyph-name="glyph872" 
 />
    <glyph glyph-name="glyph873" 
 />
    <glyph glyph-name="glyph874" 
 />
    <glyph glyph-name="glyph875" 
 />
    <glyph glyph-name="glyph876" 
 />
    <glyph glyph-name="glyph877" 
 />
    <glyph glyph-name="glyph878" 
 />
    <glyph glyph-name="glyph879" 
 />
    <glyph glyph-name="glyph880" 
 />
    <glyph glyph-name="glyph881" 
 />
    <glyph glyph-name="glyph882" 
 />
    <glyph glyph-name="glyph883" 
 />
    <glyph glyph-name="glyph884" 
 />
    <glyph glyph-name="glyph885" 
 />
    <glyph glyph-name="glyph886" 
 />
    <glyph glyph-name="glyph887" 
 />
    <glyph glyph-name="glyph888" 
 />
    <glyph glyph-name="glyph889" 
 />
    <glyph glyph-name="glyph890" 
 />
    <glyph glyph-name="glyph891" 
 />
    <glyph glyph-name="glyph892" 
 />
    <glyph glyph-name="glyph893" 
 />
    <glyph glyph-name="glyph894" 
 />
    <glyph glyph-name="glyph895" 
 />
    <glyph glyph-name="glyph896" 
 />
    <glyph glyph-name="glyph897" 
 />
    <glyph glyph-name="glyph898" 
 />
    <glyph glyph-name="glyph899" 
 />
    <glyph glyph-name="glyph900" 
 />
    <glyph glyph-name="glyph901" 
 />
    <glyph glyph-name="glyph902" 
 />
    <glyph glyph-name="glyph903" 
 />
    <glyph glyph-name="glyph904" 
 />
    <glyph glyph-name="glyph905" 
 />
    <glyph glyph-name="glyph906" 
 />
    <glyph glyph-name="glyph907" 
 />
    <glyph glyph-name="glyph908" 
 />
    <glyph glyph-name="glyph909" 
 />
    <glyph glyph-name="glyph910" 
 />
    <glyph glyph-name="glyph911" 
 />
    <glyph glyph-name="glyph912" 
 />
    <glyph glyph-name="glyph913" 
 />
    <glyph glyph-name="glyph914" 
 />
    <glyph glyph-name="glyph915" 
 />
    <glyph glyph-name="glyph916" 
 />
    <glyph glyph-name="glyph917" 
 />
    <glyph glyph-name="glyph918" 
 />
    <glyph glyph-name="glyph919" 
 />
    <glyph glyph-name="glyph920" 
 />
    <glyph glyph-name="glyph921" 
 />
    <glyph glyph-name="glyph922" 
 />
    <glyph glyph-name="glyph923" 
 />
    <glyph glyph-name="glyph924" 
 />
    <glyph glyph-name="glyph925" 
 />
    <glyph glyph-name="glyph926" 
 />
    <glyph glyph-name="glyph927" 
 />
    <glyph glyph-name="glyph928" 
 />
    <glyph glyph-name="glyph929" 
 />
    <glyph glyph-name="glyph930" 
 />
    <glyph glyph-name="glyph931" 
 />
    <glyph glyph-name="glyph932" 
 />
    <glyph glyph-name="glyph933" 
 />
    <glyph glyph-name="glyph934" 
 />
    <glyph glyph-name="glyph935" 
 />
    <glyph glyph-name="glyph936" 
 />
    <glyph glyph-name="glyph937" 
 />
    <glyph glyph-name="glyph938" 
 />
    <glyph glyph-name="glyph939" 
 />
    <glyph glyph-name="glyph940" 
 />
    <glyph glyph-name="glyph941" 
 />
    <glyph glyph-name="glyph942" 
 />
    <glyph glyph-name="glyph943" 
 />
    <glyph glyph-name="glyph944" 
 />
    <glyph glyph-name="glyph945" 
 />
    <glyph glyph-name="glyph946" 
 />
    <glyph glyph-name="glyph947" 
 />
    <glyph glyph-name="glyph948" 
 />
    <glyph glyph-name="glyph949" 
 />
    <glyph glyph-name="glyph950" 
 />
    <glyph glyph-name="glyph951" 
 />
    <glyph glyph-name="glyph952" 
 />
    <glyph glyph-name="glyph953" 
 />
    <glyph glyph-name="glyph954" 
 />
    <glyph glyph-name="glyph955" 
 />
    <glyph glyph-name="glyph956" 
 />
    <glyph glyph-name="glyph957" 
 />
    <glyph glyph-name="glyph958" 
 />
    <glyph glyph-name="glyph959" 
 />
    <glyph glyph-name="glyph960" 
 />
    <glyph glyph-name="glyph961" 
 />
    <glyph glyph-name="glyph962" 
 />
    <glyph glyph-name="glyph963" 
 />
    <glyph glyph-name="glyph964" 
 />
    <glyph glyph-name="glyph965" 
 />
    <glyph glyph-name="glyph966" 
 />
    <glyph glyph-name="glyph967" 
 />
    <glyph glyph-name="glyph968" 
 />
    <glyph glyph-name="glyph969" 
 />
    <glyph glyph-name="glyph970" 
 />
    <glyph glyph-name="glyph971" 
 />
    <glyph glyph-name="glyph972" 
 />
    <glyph glyph-name="glyph973" 
 />
    <glyph glyph-name="glyph974" 
 />
    <glyph glyph-name="glyph975" 
 />
    <glyph glyph-name="glyph976" 
 />
    <glyph glyph-name="glyph977" 
 />
    <glyph glyph-name="glyph978" 
 />
    <glyph glyph-name="glyph979" 
 />
    <glyph glyph-name="glyph980" 
 />
    <glyph glyph-name="glyph981" 
 />
    <glyph glyph-name="glyph982" 
 />
    <glyph glyph-name="glyph983" 
 />
    <glyph glyph-name="glyph984" 
 />
    <glyph glyph-name="glyph985" 
 />
    <glyph glyph-name="glyph986" 
 />
    <glyph glyph-name="glyph987" 
 />
    <glyph glyph-name="glyph988" 
 />
    <glyph glyph-name="glyph989" 
 />
    <glyph glyph-name="glyph990" 
 />
    <glyph glyph-name="glyph991" 
 />
    <glyph glyph-name="glyph992" 
 />
    <glyph glyph-name="glyph993" 
 />
    <glyph glyph-name="glyph994" 
 />
    <glyph glyph-name="glyph995" 
 />
    <glyph glyph-name="glyph996" 
 />
    <glyph glyph-name="glyph997" 
 />
    <glyph glyph-name="glyph998" 
 />
    <glyph glyph-name="glyph999" 
 />
    <glyph glyph-name="glyph1000" 
 />
    <glyph glyph-name="glyph1001" 
 />
    <glyph glyph-name="glyph1002" 
 />
    <glyph glyph-name="glyph1003" 
 />
    <glyph glyph-name="glyph1004" 
 />
    <glyph glyph-name="glyph1005" 
 />
    <glyph glyph-name="glyph1006" 
 />
    <glyph glyph-name="glyph1007" 
 />
    <glyph glyph-name="glyph1008" 
 />
    <glyph glyph-name="glyph1009" 
 />
    <glyph glyph-name="glyph1010" 
 />
    <glyph glyph-name="glyph1011" 
 />
    <glyph glyph-name="glyph1012" 
 />
    <glyph glyph-name="glyph1013" 
 />
    <glyph glyph-name="glyph1014" 
 />
    <glyph glyph-name="glyph1015" 
 />
    <glyph glyph-name="glyph1016" 
 />
    <glyph glyph-name="glyph1017" 
 />
    <glyph glyph-name="glyph1018" 
 />
    <glyph glyph-name="glyph1019" 
 />
    <glyph glyph-name="glyph1020" 
 />
    <glyph glyph-name="glyph1021" 
 />
    <glyph glyph-name="glyph1022" 
 />
    <glyph glyph-name="glyph1023" 
 />
    <glyph glyph-name="glyph1024" 
 />
    <glyph glyph-name="glyph1025" 
 />
    <glyph glyph-name="glyph1026" 
 />
    <glyph glyph-name="glyph1027" 
 />
    <glyph glyph-name="glyph1028" 
 />
    <glyph glyph-name="glyph1029" 
 />
    <glyph glyph-name="glyph1030" 
 />
    <glyph glyph-name="glyph1031" 
 />
    <glyph glyph-name="glyph1032" 
 />
    <glyph glyph-name="glyph1033" 
 />
    <glyph glyph-name="glyph1034" 
 />
    <glyph glyph-name="glyph1035" 
 />
    <glyph glyph-name="glyph1036" 
 />
    <glyph glyph-name="glyph1037" 
 />
    <glyph glyph-name="glyph1038" 
 />
    <glyph glyph-name="glyph1039" 
 />
    <glyph glyph-name="glyph1040" 
 />
    <glyph glyph-name="glyph1041" 
 />
    <glyph glyph-name="glyph1042" 
 />
    <glyph glyph-name="glyph1043" 
 />
    <glyph glyph-name="glyph1044" 
 />
    <glyph glyph-name="glyph1045" 
 />
    <glyph glyph-name="glyph1046" 
 />
    <glyph glyph-name="glyph1047" 
 />
    <glyph glyph-name="glyph1048" 
 />
    <glyph glyph-name="glyph1049" 
 />
    <glyph glyph-name="glyph1050" 
 />
    <glyph glyph-name="glyph1051" 
 />
    <glyph glyph-name="glyph1052" 
 />
    <glyph glyph-name="glyph1053" 
 />
    <glyph glyph-name="glyph1054" 
 />
    <glyph glyph-name="glyph1055" 
 />
    <glyph glyph-name="glyph1056" 
 />
    <glyph glyph-name="glyph1057" 
 />
    <glyph glyph-name="glyph1058" 
 />
    <glyph glyph-name="glyph1059" 
 />
    <glyph glyph-name="glyph1060" 
 />
    <glyph glyph-name="glyph1061" 
 />
    <glyph glyph-name="glyph1062" 
 />
    <glyph glyph-name="glyph1063" 
 />
    <glyph glyph-name="glyph1064" 
 />
    <glyph glyph-name="glyph1065" 
 />
    <glyph glyph-name="glyph1066" 
 />
    <glyph glyph-name="glyph1067" 
 />
    <glyph glyph-name="glyph1068" 
 />
    <glyph glyph-name="glyph1069" 
 />
    <glyph glyph-name="glyph1070" 
 />
    <glyph glyph-name="glyph1071" 
 />
    <glyph glyph-name="glyph1072" 
 />
    <glyph glyph-name="glyph1073" 
 />
    <glyph glyph-name="glyph1074" 
 />
    <glyph glyph-name="glyph1075" 
 />
    <glyph glyph-name="glyph1076" 
 />
    <glyph glyph-name="glyph1077" 
 />
    <glyph glyph-name="glyph1078" 
 />
    <glyph glyph-name="glyph1079" 
 />
    <glyph glyph-name="glyph1080" 
 />
    <glyph glyph-name="glyph1081" 
 />
    <glyph glyph-name="glyph1082" 
 />
    <glyph glyph-name="glyph1083" 
 />
    <glyph glyph-name="glyph1084" 
 />
    <glyph glyph-name="glyph1085" 
 />
    <glyph glyph-name="glyph1086" 
 />
    <glyph glyph-name="glyph1087" 
 />
    <glyph glyph-name="glyph1088" 
 />
    <glyph glyph-name="glyph1089" 
 />
    <glyph glyph-name="glyph1090" 
 />
    <glyph glyph-name="glyph1091" 
 />
    <glyph glyph-name="glyph1092" 
 />
    <glyph glyph-name="glyph1093" 
 />
    <glyph glyph-name="glyph1094" 
 />
    <glyph glyph-name="glyph1095" 
 />
    <glyph glyph-name="glyph1096" 
 />
    <glyph glyph-name="glyph1097" 
 />
    <glyph glyph-name="glyph1098" 
 />
    <glyph glyph-name="glyph1099" 
 />
    <glyph glyph-name="glyph1100" 
 />
    <glyph glyph-name="glyph1101" 
 />
    <glyph glyph-name="glyph1102" 
 />
    <glyph glyph-name="glyph1103" 
 />
    <glyph glyph-name="glyph1104" 
 />
    <glyph glyph-name="glyph1105" 
 />
    <glyph glyph-name="glyph1106" 
 />
    <glyph glyph-name="glyph1107" 
 />
    <glyph glyph-name="glyph1108" 
 />
    <glyph glyph-name="glyph1109" 
 />
    <glyph glyph-name="glyph1110" 
 />
    <glyph glyph-name="glyph1111" 
 />
    <glyph glyph-name="glyph1112" 
 />
    <glyph glyph-name="glyph1113" 
 />
    <glyph glyph-name="glyph1114" 
 />
    <glyph glyph-name="glyph1115" 
 />
    <glyph glyph-name="glyph1116" 
 />
    <glyph glyph-name="glyph1117" 
 />
    <glyph glyph-name="glyph1118" 
 />
    <glyph glyph-name="glyph1119" 
 />
    <glyph glyph-name="glyph1120" 
 />
    <glyph glyph-name="glyph1121" 
 />
    <glyph glyph-name="glyph1122" 
 />
    <glyph glyph-name="glyph1123" 
 />
    <glyph glyph-name="glyph1124" 
 />
    <glyph glyph-name="glyph1125" 
 />
    <glyph glyph-name="glyph1126" 
 />
    <glyph glyph-name="glyph1127" 
 />
    <glyph glyph-name="glyph1128" 
 />
    <glyph glyph-name="glyph1129" 
 />
    <glyph glyph-name="glyph1130" 
 />
    <glyph glyph-name="glyph1131" 
 />
    <glyph glyph-name="glyph1132" 
 />
    <glyph glyph-name="glyph1133" 
 />
    <glyph glyph-name="glyph1134" 
 />
    <glyph glyph-name="glyph1135" 
 />
    <glyph glyph-name="glyph1136" 
 />
    <glyph glyph-name="glyph1137" 
 />
    <glyph glyph-name="glyph1138" 
 />
    <glyph glyph-name="glyph1139" 
 />
    <glyph glyph-name="glyph1140" 
 />
    <glyph glyph-name="glyph1141" 
 />
    <glyph glyph-name="glyph1142" 
 />
    <glyph glyph-name="glyph1143" 
 />
    <glyph glyph-name="glyph1144" 
 />
    <glyph glyph-name="glyph1145" 
 />
    <glyph glyph-name="glyph1146" 
 />
    <glyph glyph-name="glyph1147" 
 />
    <glyph glyph-name="glyph1148" 
 />
    <glyph glyph-name="glyph1149" 
 />
    <glyph glyph-name="glyph1150" 
 />
    <glyph glyph-name="glyph1151" 
 />
    <glyph glyph-name="glyph1152" 
 />
    <glyph glyph-name="glyph1153" 
 />
    <glyph glyph-name="glyph1154" 
 />
    <glyph glyph-name="glyph1155" 
 />
    <glyph glyph-name="glyph1156" 
 />
    <glyph glyph-name="glyph1157" 
 />
    <glyph glyph-name="glyph1158" 
 />
    <glyph glyph-name="glyph1159" 
 />
    <glyph glyph-name="glyph1160" 
 />
    <glyph glyph-name="glyph1161" 
 />
    <glyph glyph-name="glyph1162" 
 />
    <glyph glyph-name="glyph1163" 
 />
    <glyph glyph-name="glyph1164" 
 />
    <glyph glyph-name="glyph1165" 
 />
    <glyph glyph-name="glyph1166" 
 />
    <glyph glyph-name="glyph1167" 
 />
    <glyph glyph-name="glyph1168" 
 />
    <glyph glyph-name="glyph1169" 
 />
    <glyph glyph-name="glyph1170" 
 />
    <glyph glyph-name="glyph1171" 
 />
    <glyph glyph-name="glyph1172" 
 />
    <glyph glyph-name="glyph1173" 
 />
    <glyph glyph-name="glyph1174" 
 />
    <glyph glyph-name="glyph1175" 
 />
    <glyph glyph-name="glyph1176" 
 />
    <glyph glyph-name="glyph1177" 
 />
    <glyph glyph-name="glyph1178" 
 />
    <glyph glyph-name="glyph1179" 
 />
    <glyph glyph-name="glyph1180" 
 />
    <glyph glyph-name="glyph1181" 
 />
    <glyph glyph-name="glyph1182" 
 />
    <glyph glyph-name="glyph1183" 
 />
    <glyph glyph-name="glyph1184" 
 />
    <glyph glyph-name="glyph1185" 
 />
    <glyph glyph-name="glyph1186" 
 />
    <glyph glyph-name="glyph1187" 
 />
    <glyph glyph-name="glyph1188" 
 />
    <glyph glyph-name="glyph1189" 
 />
    <glyph glyph-name="glyph1190" 
 />
    <glyph glyph-name="glyph1191" 
 />
    <glyph glyph-name="glyph1192" 
 />
    <glyph glyph-name="glyph1193" 
 />
    <glyph glyph-name="glyph1194" 
 />
    <glyph glyph-name="glyph1195" 
 />
    <glyph glyph-name="glyph1196" 
 />
    <glyph glyph-name="glyph1197" 
 />
    <glyph glyph-name="glyph1198" 
 />
    <glyph glyph-name="glyph1199" 
 />
    <glyph glyph-name="glyph1200" 
 />
    <glyph glyph-name="glyph1201" 
 />
    <glyph glyph-name="glyph1202" 
 />
    <glyph glyph-name="glyph1203" 
 />
    <glyph glyph-name="glyph1204" 
 />
    <glyph glyph-name="glyph1205" 
 />
    <glyph glyph-name="glyph1206" 
 />
    <glyph glyph-name="glyph1207" 
 />
    <glyph glyph-name="glyph1208" 
 />
    <glyph glyph-name="glyph1209" 
 />
    <glyph glyph-name="glyph1210" 
 />
    <glyph glyph-name="glyph1211" 
 />
    <glyph glyph-name="glyph1212" 
 />
    <glyph glyph-name="glyph1213" 
 />
    <glyph glyph-name="glyph1214" 
 />
    <glyph glyph-name="glyph1215" 
 />
    <glyph glyph-name="glyph1216" 
 />
    <glyph glyph-name="glyph1217" 
 />
    <glyph glyph-name="glyph1218" 
 />
    <glyph glyph-name="glyph1219" 
 />
    <glyph glyph-name="glyph1220" 
 />
    <glyph glyph-name="glyph1221" 
 />
    <glyph glyph-name="glyph1222" 
 />
    <glyph glyph-name="glyph1223" 
 />
    <glyph glyph-name="glyph1224" 
 />
    <glyph glyph-name="glyph1225" 
 />
    <glyph glyph-name="glyph1226" 
 />
    <glyph glyph-name="glyph1227" 
 />
    <glyph glyph-name="glyph1228" 
 />
    <glyph glyph-name="glyph1229" 
 />
    <glyph glyph-name="glyph1230" 
 />
    <glyph glyph-name="glyph1231" 
 />
    <glyph glyph-name="glyph1232" 
 />
    <glyph glyph-name="glyph1233" 
 />
    <glyph glyph-name="glyph1234" 
 />
    <glyph glyph-name="glyph1235" 
 />
    <glyph glyph-name="glyph1236" 
 />
    <glyph glyph-name="glyph1237" 
 />
    <glyph glyph-name="glyph1238" 
 />
    <glyph glyph-name="glyph1239" 
 />
    <glyph glyph-name="glyph1240" 
 />
    <glyph glyph-name="glyph1241" 
 />
    <glyph glyph-name="glyph1242" 
 />
    <glyph glyph-name="glyph1243" 
 />
    <glyph glyph-name="glyph1244" 
 />
    <glyph glyph-name="glyph1245" 
 />
    <glyph glyph-name="glyph1246" 
 />
    <glyph glyph-name="glyph1247" 
 />
    <glyph glyph-name="glyph1248" 
 />
    <glyph glyph-name="glyph1249" 
 />
    <glyph glyph-name="glyph1250" 
 />
    <glyph glyph-name="glyph1251" 
 />
    <glyph glyph-name="glyph1252" 
 />
    <glyph glyph-name="glyph1253" 
 />
    <glyph glyph-name="glyph1254" 
 />
    <glyph glyph-name="glyph1255" 
 />
    <glyph glyph-name="glyph1256" 
 />
    <glyph glyph-name="glyph1257" 
 />
    <glyph glyph-name="glyph1258" 
 />
    <glyph glyph-name="glyph1259" 
 />
    <glyph glyph-name="glyph1260" 
 />
    <glyph glyph-name="glyph1261" 
 />
    <glyph glyph-name="glyph1262" 
 />
    <glyph glyph-name="glyph1263" 
 />
    <glyph glyph-name="glyph1264" 
 />
    <glyph glyph-name="glyph1265" 
 />
    <glyph glyph-name="glyph1266" 
 />
    <glyph glyph-name="glyph1267" 
 />
    <glyph glyph-name="glyph1268" 
 />
    <glyph glyph-name="glyph1269" 
 />
    <glyph glyph-name="glyph1270" 
 />
    <glyph glyph-name="glyph1271" 
 />
    <glyph glyph-name="glyph1272" 
 />
    <glyph glyph-name="glyph1273" 
 />
    <glyph glyph-name="glyph1274" 
 />
    <glyph glyph-name="glyph1275" 
 />
    <glyph glyph-name="glyph1276" 
 />
    <glyph glyph-name="glyph1277" 
 />
    <glyph glyph-name="glyph1278" 
 />
    <glyph glyph-name="glyph1279" 
 />
    <glyph glyph-name="glyph1280" 
 />
    <glyph glyph-name="glyph1281" 
 />
    <glyph glyph-name="glyph1282" 
 />
    <glyph glyph-name="glyph1283" 
 />
    <glyph glyph-name="glyph1284" 
 />
    <glyph glyph-name="glyph1285" 
 />
    <glyph glyph-name="glyph1286" 
 />
    <glyph glyph-name="glyph1287" 
 />
    <glyph glyph-name="glyph1288" 
 />
    <glyph glyph-name="glyph1289" 
 />
    <glyph glyph-name="glyph1290" 
 />
    <glyph glyph-name="glyph1291" 
 />
    <glyph glyph-name="glyph1292" 
 />
    <glyph glyph-name="glyph1293" 
 />
    <glyph glyph-name="glyph1294" 
 />
    <glyph glyph-name="glyph1295" 
 />
    <glyph glyph-name="glyph1296" 
 />
    <glyph glyph-name="glyph1297" 
 />
    <glyph glyph-name="glyph1298" 
 />
    <glyph glyph-name="glyph1299" 
 />
    <glyph glyph-name="glyph1300" 
 />
    <glyph glyph-name="glyph1301" 
 />
    <glyph glyph-name="glyph1302" 
 />
    <glyph glyph-name="glyph1303" 
 />
    <glyph glyph-name="glyph1304" 
 />
    <glyph glyph-name="glyph1305" 
 />
    <glyph glyph-name="glyph1306" 
 />
    <glyph glyph-name="glyph1307" 
 />
    <glyph glyph-name="glyph1308" 
 />
    <glyph glyph-name="glyph1309" 
 />
    <glyph glyph-name="glyph1310" 
 />
    <glyph glyph-name="glyph1311" 
 />
    <glyph glyph-name="glyph1312" 
 />
    <glyph glyph-name="glyph1313" 
 />
    <glyph glyph-name="glyph1314" 
 />
    <glyph glyph-name="glyph1315" 
 />
    <glyph glyph-name="glyph1316" 
 />
    <glyph glyph-name="glyph1317" 
 />
    <glyph glyph-name="glyph1318" 
 />
    <glyph glyph-name="glyph1319" 
 />
    <glyph glyph-name="glyph1320" 
 />
    <glyph glyph-name="glyph1321" 
 />
    <glyph glyph-name="glyph1322" 
 />
    <glyph glyph-name="glyph1323" 
 />
    <glyph glyph-name="glyph1324" 
 />
    <glyph glyph-name="glyph1325" 
 />
    <glyph glyph-name="glyph1326" 
 />
    <glyph glyph-name="glyph1327" 
 />
    <glyph glyph-name="glyph1328" 
 />
    <glyph glyph-name="glyph1329" 
 />
    <glyph glyph-name="glyph1330" 
 />
    <glyph glyph-name="glyph1331" 
 />
    <glyph glyph-name="glyph1332" 
 />
    <glyph glyph-name="glyph1333" 
 />
    <glyph glyph-name="glyph1334" 
 />
    <glyph glyph-name="glyph1335" 
 />
    <glyph glyph-name="glyph1336" 
 />
    <glyph glyph-name="glyph1337" 
 />
    <glyph glyph-name="glyph1338" 
 />
    <glyph glyph-name="glyph1339" 
 />
    <glyph glyph-name="glyph1340" 
 />
    <glyph glyph-name="glyph1341" 
 />
    <glyph glyph-name="glyph1342" 
 />
    <glyph glyph-name="glyph1343" 
 />
    <glyph glyph-name="glyph1344" 
 />
    <glyph glyph-name="glyph1345" 
 />
    <glyph glyph-name="glyph1346" 
 />
    <glyph glyph-name="glyph1347" 
 />
    <glyph glyph-name="glyph1348" 
 />
    <glyph glyph-name="glyph1349" 
 />
    <glyph glyph-name="glyph1350" 
 />
    <glyph glyph-name="glyph1351" 
 />
    <glyph glyph-name="glyph1352" 
 />
    <glyph glyph-name="glyph1353" 
 />
    <glyph glyph-name="glyph1354" 
 />
    <glyph glyph-name="glyph1355" 
 />
    <glyph glyph-name="glyph1356" 
 />
    <glyph glyph-name="glyph1357" 
 />
    <glyph glyph-name="glyph1358" 
 />
    <glyph glyph-name="glyph1359" 
 />
    <glyph glyph-name="glyph1360" 
 />
    <glyph glyph-name="glyph1361" 
 />
    <glyph glyph-name="glyph1362" 
 />
    <glyph glyph-name="glyph1363" 
 />
    <glyph glyph-name="glyph1364" 
 />
    <glyph glyph-name="glyph1365" 
 />
    <glyph glyph-name="glyph1366" 
 />
    <glyph glyph-name="glyph1367" 
 />
    <glyph glyph-name="glyph1368" 
 />
    <glyph glyph-name="glyph1369" 
 />
    <glyph glyph-name="glyph1370" 
 />
    <glyph glyph-name="glyph1371" 
 />
    <glyph glyph-name="glyph1372" 
 />
    <glyph glyph-name="glyph1373" 
 />
    <glyph glyph-name="glyph1374" 
 />
    <glyph glyph-name="glyph1375" 
 />
    <glyph glyph-name="glyph1376" 
 />
    <glyph glyph-name="glyph1377" 
 />
    <glyph glyph-name="glyph1378" 
 />
    <glyph glyph-name="glyph1379" 
 />
    <glyph glyph-name="glyph1380" 
 />
    <glyph glyph-name="glyph1381" 
 />
    <glyph glyph-name="glyph1382" 
 />
    <glyph glyph-name="glyph1383" 
 />
    <glyph glyph-name="glyph1384" 
 />
    <glyph glyph-name="glyph1385" 
 />
    <glyph glyph-name="glyph1386" 
 />
    <glyph glyph-name="glyph1387" 
 />
    <glyph glyph-name="glyph1388" 
 />
    <glyph glyph-name="glyph1389" 
 />
    <glyph glyph-name="glyph1390" 
 />
    <glyph glyph-name="glyph1391" 
 />
    <glyph glyph-name="glyph1392" 
 />
    <glyph glyph-name="glyph1393" 
 />
    <glyph glyph-name="glyph1394" 
 />
    <glyph glyph-name="glyph1395" 
 />
    <glyph glyph-name="glyph1396" 
 />
    <glyph glyph-name="glyph1397" 
 />
    <glyph glyph-name="glyph1398" 
 />
    <glyph glyph-name="glyph1399" 
 />
    <glyph glyph-name="glyph1400" 
 />
    <glyph glyph-name="glyph1401" 
 />
    <glyph glyph-name="glyph1402" 
 />
    <glyph glyph-name="glyph1403" 
 />
    <glyph glyph-name="glyph1404" 
 />
    <glyph glyph-name="glyph1405" 
 />
    <glyph glyph-name="glyph1406" 
 />
    <glyph glyph-name="glyph1407" 
 />
    <glyph glyph-name="glyph1408" 
 />
    <glyph glyph-name="glyph1409" 
 />
    <glyph glyph-name="glyph1410" 
 />
    <glyph glyph-name="glyph1411" 
 />
    <glyph glyph-name="glyph1412" 
 />
    <glyph glyph-name="glyph1413" 
 />
    <glyph glyph-name="glyph1414" 
 />
    <glyph glyph-name="glyph1415" 
 />
    <glyph glyph-name="glyph1416" 
 />
    <glyph glyph-name="glyph1417" 
 />
    <glyph glyph-name="glyph1418" 
 />
    <glyph glyph-name="glyph1419" 
 />
    <glyph glyph-name="glyph1420" 
 />
    <glyph glyph-name="glyph1421" 
 />
    <glyph glyph-name="glyph1422" 
 />
    <glyph glyph-name="glyph1423" 
 />
    <glyph glyph-name="glyph1424" 
 />
    <glyph glyph-name="glyph1425" 
 />
    <glyph glyph-name="glyph1426" 
 />
    <glyph glyph-name="glyph1427" 
 />
    <glyph glyph-name="glyph1428" 
 />
    <glyph glyph-name="glyph1429" 
 />
    <glyph glyph-name="glyph1430" 
 />
    <glyph glyph-name="glyph1431" 
 />
    <glyph glyph-name="glyph1432" 
 />
    <glyph glyph-name="glyph1433" 
 />
    <glyph glyph-name="glyph1434" 
 />
    <glyph glyph-name="glyph1435" 
 />
    <glyph glyph-name="glyph1436" 
 />
    <glyph glyph-name="glyph1437" 
 />
    <glyph glyph-name="glyph1438" 
 />
    <glyph glyph-name="glyph1439" 
 />
    <glyph glyph-name="glyph1440" 
 />
    <glyph glyph-name="glyph1441" 
 />
    <glyph glyph-name="glyph1442" 
 />
    <glyph glyph-name="glyph1443" 
 />
    <glyph glyph-name="glyph1444" 
 />
    <glyph glyph-name="glyph1445" 
 />
    <glyph glyph-name="glyph1446" 
 />
    <glyph glyph-name="glyph1447" 
 />
    <glyph glyph-name="glyph1448" 
 />
    <glyph glyph-name="glyph1449" 
 />
    <glyph glyph-name="glyph1450" 
 />
    <glyph glyph-name="glyph1451" 
 />
    <glyph glyph-name="glyph1452" 
 />
    <glyph glyph-name="glyph1453" 
 />
    <glyph glyph-name="glyph1454" 
 />
    <glyph glyph-name="glyph1455" 
 />
    <glyph glyph-name="glyph1456" 
 />
    <glyph glyph-name="glyph1457" 
 />
    <glyph glyph-name="glyph1458" 
 />
    <glyph glyph-name="glyph1459" 
 />
    <glyph glyph-name="glyph1460" 
 />
    <glyph glyph-name="glyph1461" 
 />
    <glyph glyph-name="glyph1462" 
 />
    <glyph glyph-name="glyph1463" 
 />
    <glyph glyph-name="glyph1464" 
 />
    <glyph glyph-name="glyph1465" 
 />
    <glyph glyph-name="glyph1466" 
 />
    <glyph glyph-name="glyph1467" 
 />
    <glyph glyph-name="glyph1468" 
 />
    <glyph glyph-name="glyph1469" 
 />
    <glyph glyph-name="glyph1470" 
 />
    <glyph glyph-name="glyph1471" 
 />
    <glyph glyph-name="glyph1472" 
 />
    <glyph glyph-name="glyph1473" 
 />
    <glyph glyph-name="glyph1474" 
 />
    <glyph glyph-name="glyph1475" 
 />
    <glyph glyph-name="glyph1476" 
 />
    <glyph glyph-name="glyph1477" 
 />
    <glyph glyph-name="glyph1478" 
 />
    <glyph glyph-name="glyph1479" 
 />
    <glyph glyph-name="glyph1480" 
 />
    <glyph glyph-name="glyph1481" 
 />
    <glyph glyph-name="glyph1482" 
 />
    <glyph glyph-name="glyph1483" 
 />
    <glyph glyph-name="glyph1484" 
 />
    <glyph glyph-name="glyph1485" 
 />
    <glyph glyph-name="glyph1486" 
 />
    <glyph glyph-name="glyph1487" 
 />
    <glyph glyph-name="glyph1488" 
 />
    <glyph glyph-name="glyph1489" 
 />
    <glyph glyph-name="glyph1490" 
 />
    <glyph glyph-name="glyph1491" 
 />
    <glyph glyph-name="glyph1492" 
 />
    <glyph glyph-name="glyph1493" 
 />
    <glyph glyph-name="glyph1494" 
 />
    <glyph glyph-name="glyph1495" 
 />
    <glyph glyph-name="glyph1496" 
 />
    <glyph glyph-name="glyph1497" 
 />
    <glyph glyph-name="glyph1498" 
 />
    <glyph glyph-name="glyph1499" 
 />
    <glyph glyph-name="glyph1500" 
 />
    <glyph glyph-name="glyph1501" 
 />
    <glyph glyph-name="glyph1502" 
 />
    <glyph glyph-name="glyph1503" 
 />
    <glyph glyph-name="glyph1504" 
 />
    <glyph glyph-name="glyph1505" 
 />
    <glyph glyph-name="glyph1506" 
 />
    <glyph glyph-name="glyph1507" 
 />
    <glyph glyph-name="glyph1508" 
 />
    <glyph glyph-name="glyph1509" 
 />
    <glyph glyph-name="glyph1510" 
 />
    <glyph glyph-name="glyph1511" 
 />
    <glyph glyph-name="glyph1512" 
 />
    <glyph glyph-name="glyph1513" 
 />
    <glyph glyph-name="glyph1514" 
 />
    <glyph glyph-name="glyph1515" 
 />
    <glyph glyph-name="glyph1516" 
 />
    <glyph glyph-name="glyph1517" 
 />
    <glyph glyph-name="glyph1518" 
 />
    <glyph glyph-name="glyph1519" 
 />
    <glyph glyph-name="glyph1520" 
 />
    <glyph glyph-name="glyph1521" 
 />
    <glyph glyph-name="glyph1522" 
 />
    <glyph glyph-name="glyph1523" 
 />
    <glyph glyph-name="glyph1524" 
 />
    <glyph glyph-name="glyph1525" 
 />
    <glyph glyph-name="glyph1526" 
 />
    <glyph glyph-name="glyph1527" 
 />
    <glyph glyph-name="glyph1528" 
 />
    <glyph glyph-name="glyph1529" 
 />
    <glyph glyph-name="glyph1530" 
 />
    <glyph glyph-name="glyph1531" 
 />
    <glyph glyph-name="glyph1532" 
 />
    <glyph glyph-name="glyph1533" 
 />
    <glyph glyph-name="glyph1534" 
 />
    <glyph glyph-name="glyph1535" 
 />
    <glyph glyph-name="glyph1536" 
 />
    <glyph glyph-name="glyph1537" 
 />
    <glyph glyph-name="glyph1538" 
 />
    <glyph glyph-name="glyph1539" 
 />
    <glyph glyph-name="glyph1540" 
 />
    <glyph glyph-name="glyph1541" 
 />
    <glyph glyph-name="glyph1542" 
 />
    <glyph glyph-name="glyph1543" 
 />
    <glyph glyph-name="glyph1544" 
 />
    <glyph glyph-name="glyph1545" 
 />
    <glyph glyph-name="glyph1546" 
 />
    <glyph glyph-name="glyph1547" 
 />
    <glyph glyph-name="glyph1548" 
 />
    <glyph glyph-name="glyph1549" 
 />
    <glyph glyph-name="glyph1550" 
 />
    <glyph glyph-name="glyph1551" 
 />
    <glyph glyph-name="glyph1552" 
 />
    <glyph glyph-name="glyph1553" 
 />
    <glyph glyph-name="glyph1554" 
 />
    <glyph glyph-name="glyph1555" 
 />
    <glyph glyph-name="glyph1556" 
 />
    <glyph glyph-name="glyph1557" 
 />
    <glyph glyph-name="glyph1558" 
 />
    <glyph glyph-name="glyph1559" 
 />
    <glyph glyph-name="glyph1560" 
 />
    <glyph glyph-name="glyph1561" 
 />
    <glyph glyph-name="glyph1562" 
 />
    <glyph glyph-name="glyph1563" 
 />
    <glyph glyph-name="glyph1564" 
 />
    <glyph glyph-name="glyph1565" 
 />
    <glyph glyph-name="glyph1566" 
 />
    <glyph glyph-name="glyph1567" 
 />
    <glyph glyph-name="glyph1568" 
 />
    <glyph glyph-name="glyph1569" 
 />
    <glyph glyph-name="glyph1570" 
 />
    <glyph glyph-name="glyph1571" 
 />
    <glyph glyph-name="glyph1572" 
 />
    <glyph glyph-name="glyph1573" 
 />
    <glyph glyph-name="glyph1574" 
 />
    <glyph glyph-name="glyph1575" 
 />
    <glyph glyph-name="glyph1576" 
 />
    <glyph glyph-name="glyph1577" 
 />
    <glyph glyph-name="glyph1578" 
 />
    <glyph glyph-name="glyph1579" 
 />
    <glyph glyph-name="glyph1580" 
 />
    <glyph glyph-name="glyph1581" 
 />
    <glyph glyph-name="glyph1582" 
 />
    <glyph glyph-name="glyph1583" 
 />
    <glyph glyph-name="glyph1584" 
 />
    <glyph glyph-name="glyph1585" 
 />
    <glyph glyph-name="glyph1586" 
 />
    <glyph glyph-name="glyph1587" 
 />
    <glyph glyph-name="glyph1588" 
 />
    <glyph glyph-name="glyph1589" 
 />
    <glyph glyph-name="glyph1590" 
 />
    <glyph glyph-name="glyph1591" 
 />
    <glyph glyph-name="glyph1592" 
 />
    <glyph glyph-name="glyph1593" 
 />
    <glyph glyph-name="glyph1594" 
 />
    <glyph glyph-name="glyph1595" 
 />
    <glyph glyph-name="glyph1596" 
 />
    <glyph glyph-name="glyph1597" 
 />
    <glyph glyph-name="glyph1598" 
 />
    <glyph glyph-name="glyph1599" 
 />
    <glyph glyph-name="glyph1600" 
 />
    <glyph glyph-name="glyph1601" 
 />
    <glyph glyph-name="glyph1602" 
 />
    <glyph glyph-name="glyph1603" 
 />
    <glyph glyph-name="glyph1604" 
 />
    <glyph glyph-name="glyph1605" 
 />
    <glyph glyph-name="glyph1606" 
 />
    <glyph glyph-name="glyph1607" 
 />
    <glyph glyph-name="glyph1608" 
 />
    <glyph glyph-name="glyph1609" 
 />
    <glyph glyph-name="glyph1610" 
 />
    <glyph glyph-name="glyph1611" 
 />
    <glyph glyph-name="glyph1612" 
 />
    <glyph glyph-name="glyph1613" 
 />
    <glyph glyph-name="glyph1614" 
 />
    <glyph glyph-name="glyph1615" 
 />
    <glyph glyph-name="glyph1616" 
 />
    <glyph glyph-name="glyph1617" 
 />
    <glyph glyph-name="glyph1618" 
 />
    <glyph glyph-name="glyph1619" 
 />
    <glyph glyph-name="glyph1620" 
 />
    <glyph glyph-name="glyph1621" 
 />
    <glyph glyph-name="glyph1622" 
 />
    <glyph glyph-name="glyph1623" 
 />
    <glyph glyph-name="glyph1624" 
 />
    <glyph glyph-name="glyph1625" 
 />
    <glyph glyph-name="glyph1626" 
 />
    <glyph glyph-name="glyph1627" 
 />
    <glyph glyph-name="glyph1628" 
 />
    <glyph glyph-name="glyph1629" 
 />
    <glyph glyph-name="glyph1630" 
 />
    <glyph glyph-name="glyph1631" 
 />
    <glyph glyph-name="glyph1632" 
 />
    <glyph glyph-name="glyph1633" 
 />
    <glyph glyph-name="glyph1634" 
 />
    <glyph glyph-name="glyph1635" 
 />
    <glyph glyph-name="glyph1636" 
 />
    <glyph glyph-name="glyph1637" 
 />
    <glyph glyph-name="glyph1638" 
 />
    <glyph glyph-name="glyph1639" 
 />
    <glyph glyph-name="glyph1640" 
 />
    <glyph glyph-name="glyph1641" 
 />
    <glyph glyph-name="glyph1642" 
 />
    <glyph glyph-name="glyph1643" 
 />
    <glyph glyph-name="glyph1644" 
 />
    <glyph glyph-name="glyph1645" 
 />
    <glyph glyph-name="glyph1646" 
 />
    <glyph glyph-name="glyph1647" 
 />
    <glyph glyph-name="glyph1648" 
 />
    <glyph glyph-name="glyph1649" 
 />
    <glyph glyph-name="glyph1650" 
 />
    <glyph glyph-name="glyph1651" 
 />
    <glyph glyph-name="glyph1652" 
 />
    <glyph glyph-name="glyph1653" 
 />
    <glyph glyph-name="glyph1654" 
 />
    <glyph glyph-name="glyph1655" 
 />
    <glyph glyph-name="glyph1656" 
 />
    <glyph glyph-name="glyph1657" 
 />
    <glyph glyph-name="glyph1658" 
 />
    <glyph glyph-name="glyph1659" 
 />
    <glyph glyph-name="glyph1660" 
 />
    <glyph glyph-name="glyph1661" 
 />
    <glyph glyph-name="glyph1662" 
 />
    <glyph glyph-name="glyph1663" 
 />
    <glyph glyph-name="glyph1664" 
 />
    <glyph glyph-name="glyph1665" 
 />
    <glyph glyph-name="glyph1666" 
 />
    <glyph glyph-name="glyph1667" 
 />
    <glyph glyph-name="glyph1668" 
 />
    <glyph glyph-name="glyph1669" 
 />
    <glyph glyph-name="glyph1670" 
 />
    <glyph glyph-name="glyph1671" 
 />
    <glyph glyph-name="glyph1672" 
 />
    <glyph glyph-name="glyph1673" 
 />
    <glyph glyph-name="glyph1674" 
 />
    <glyph glyph-name="glyph1675" 
 />
    <glyph glyph-name="glyph1676" 
 />
    <glyph glyph-name="glyph1677" 
 />
    <glyph glyph-name="glyph1678" 
 />
    <glyph glyph-name="glyph1679" 
 />
    <glyph glyph-name="glyph1680" 
 />
    <glyph glyph-name="glyph1681" 
 />
    <glyph glyph-name="glyph1682" 
 />
    <glyph glyph-name="glyph1683" 
 />
    <glyph glyph-name="glyph1684" 
 />
    <glyph glyph-name="glyph1685" 
 />
    <glyph glyph-name="glyph1686" 
 />
    <glyph glyph-name="glyph1687" 
 />
    <glyph glyph-name="glyph1688" 
 />
    <glyph glyph-name="glyph1689" 
 />
    <glyph glyph-name="glyph1690" 
 />
    <glyph glyph-name="glyph1691" 
 />
    <glyph glyph-name="glyph1692" 
 />
    <glyph glyph-name="glyph1693" 
 />
    <glyph glyph-name="glyph1694" 
 />
    <glyph glyph-name="glyph1695" 
 />
    <glyph glyph-name="glyph1696" 
 />
    <glyph glyph-name="glyph1697" 
 />
    <glyph glyph-name="glyph1698" 
 />
    <glyph glyph-name="glyph1699" 
 />
    <glyph glyph-name="glyph1700" 
 />
    <glyph glyph-name="glyph1701" 
 />
    <glyph glyph-name="glyph1702" 
 />
    <glyph glyph-name="glyph1703" 
 />
    <glyph glyph-name="glyph1704" 
 />
    <glyph glyph-name="glyph1705" 
 />
    <glyph glyph-name="glyph1706" 
 />
    <glyph glyph-name="glyph1707" 
 />
    <glyph glyph-name="glyph1708" 
 />
    <glyph glyph-name="glyph1709" 
 />
    <glyph glyph-name="glyph1710" 
 />
    <glyph glyph-name="glyph1711" 
 />
    <glyph glyph-name="glyph1712" 
 />
    <glyph glyph-name="glyph1713" 
 />
    <glyph glyph-name="glyph1714" 
 />
    <glyph glyph-name="glyph1715" 
 />
    <glyph glyph-name="glyph1716" 
 />
    <glyph glyph-name="glyph1717" 
 />
    <glyph glyph-name="glyph1718" 
 />
    <glyph glyph-name="glyph1719" 
 />
    <glyph glyph-name="glyph1720" 
 />
    <glyph glyph-name="glyph1721" 
 />
    <glyph glyph-name="glyph1722" 
 />
    <glyph glyph-name="glyph1723" 
 />
    <glyph glyph-name="glyph1724" 
 />
    <glyph glyph-name="glyph1725" 
 />
    <glyph glyph-name="glyph1726" 
 />
    <glyph glyph-name="glyph1727" 
 />
    <glyph glyph-name="glyph1728" 
 />
    <glyph glyph-name="glyph1729" 
 />
    <glyph glyph-name="glyph1730" 
 />
    <glyph glyph-name="glyph1731" 
 />
    <glyph glyph-name="glyph1732" 
 />
    <glyph glyph-name="glyph1733" 
 />
    <glyph glyph-name="glyph1734" 
 />
    <glyph glyph-name="glyph1735" 
 />
    <glyph glyph-name="glyph1736" 
 />
    <glyph glyph-name="glyph1737" 
 />
    <glyph glyph-name="glyph1738" 
 />
    <glyph glyph-name="glyph1739" 
 />
    <glyph glyph-name="glyph1740" 
 />
    <glyph glyph-name="glyph1741" 
 />
    <glyph glyph-name="glyph1742" 
 />
    <glyph glyph-name="glyph1743" 
 />
    <glyph glyph-name="glyph1744" 
 />
    <glyph glyph-name="glyph1745" 
 />
    <glyph glyph-name="glyph1746" 
 />
    <glyph glyph-name="glyph1747" 
 />
    <glyph glyph-name="glyph1748" 
 />
    <glyph glyph-name="glyph1749" 
 />
    <glyph glyph-name="glyph1750" 
 />
    <glyph glyph-name="glyph1751" 
 />
    <glyph glyph-name="glyph1752" 
 />
    <glyph glyph-name="glyph1753" 
 />
    <glyph glyph-name="glyph1754" 
 />
    <glyph glyph-name="glyph1755" 
 />
    <glyph glyph-name="glyph1756" 
 />
    <glyph glyph-name="glyph1757" 
 />
    <glyph glyph-name="glyph1758" 
 />
    <glyph glyph-name="glyph1759" 
 />
    <glyph glyph-name="glyph1760" 
 />
    <glyph glyph-name="glyph1761" 
 />
    <glyph glyph-name="glyph1762" 
 />
    <glyph glyph-name="glyph1763" 
 />
    <glyph glyph-name="glyph1764" 
 />
    <glyph glyph-name="glyph1765" 
 />
    <glyph glyph-name="glyph1766" 
 />
    <glyph glyph-name="glyph1767" 
 />
    <glyph glyph-name="glyph1768" 
 />
    <glyph glyph-name="glyph1769" 
 />
    <glyph glyph-name="glyph1770" 
 />
    <glyph glyph-name="glyph1771" 
 />
    <glyph glyph-name="glyph1772" 
 />
    <glyph glyph-name="glyph1773" 
 />
    <glyph glyph-name="glyph1774" 
 />
    <glyph glyph-name="glyph1775" 
 />
    <glyph glyph-name="glyph1776" 
 />
    <glyph glyph-name="glyph1777" 
 />
    <glyph glyph-name="glyph1778" 
 />
    <glyph glyph-name="glyph1779" 
 />
    <glyph glyph-name="glyph1780" 
 />
    <glyph glyph-name="glyph1781" 
 />
    <glyph glyph-name="glyph1782" 
 />
    <glyph glyph-name="glyph1783" 
 />
    <glyph glyph-name="glyph1784" 
 />
    <glyph glyph-name="glyph1785" 
 />
    <glyph glyph-name="glyph1786" 
 />
    <glyph glyph-name="glyph1787" 
 />
    <glyph glyph-name="glyph1788" 
 />
    <glyph glyph-name="glyph1789" 
 />
    <glyph glyph-name="glyph1790" 
 />
    <glyph glyph-name="glyph1791" 
 />
    <glyph glyph-name="glyph1792" 
 />
    <glyph glyph-name="glyph1793" 
 />
    <glyph glyph-name="glyph1794" 
 />
    <glyph glyph-name="glyph1795" 
 />
    <glyph glyph-name="glyph1796" 
 />
    <glyph glyph-name="glyph1797" 
 />
    <glyph glyph-name="glyph1798" 
 />
    <glyph glyph-name="glyph1799" 
 />
    <glyph glyph-name="glyph1800" 
 />
    <glyph glyph-name="glyph1801" 
 />
    <glyph glyph-name="glyph1802" 
 />
    <glyph glyph-name="glyph1803" 
 />
    <glyph glyph-name="glyph1804" 
 />
    <glyph glyph-name="glyph1805" 
 />
    <glyph glyph-name="glyph1806" 
 />
    <glyph glyph-name="glyph1807" 
 />
    <glyph glyph-name="glyph1808" 
 />
    <glyph glyph-name="glyph1809" 
 />
    <glyph glyph-name="glyph1810" 
 />
    <glyph glyph-name="glyph1811" 
 />
    <glyph glyph-name="glyph1812" 
 />
    <glyph glyph-name="glyph1813" 
 />
    <glyph glyph-name="glyph1814" 
 />
    <glyph glyph-name="glyph1815" 
 />
    <glyph glyph-name="glyph1816" 
 />
    <glyph glyph-name="glyph1817" 
 />
    <glyph glyph-name="glyph1818" 
 />
    <glyph glyph-name="glyph1819" 
 />
    <glyph glyph-name="glyph1820" 
 />
    <glyph glyph-name="glyph1821" 
 />
    <glyph glyph-name="glyph1822" 
 />
    <glyph glyph-name="glyph1823" 
 />
    <glyph glyph-name="glyph1824" 
 />
    <glyph glyph-name="glyph1825" 
 />
    <glyph glyph-name="glyph1826" 
 />
    <glyph glyph-name="glyph1827" 
 />
    <glyph glyph-name="glyph1828" 
 />
    <glyph glyph-name="glyph1829" 
 />
    <glyph glyph-name="glyph1830" 
 />
    <glyph glyph-name="glyph1831" 
 />
    <glyph glyph-name="glyph1832" 
 />
    <glyph glyph-name="glyph1833" 
 />
    <glyph glyph-name="glyph1834" 
 />
    <glyph glyph-name="glyph1835" 
 />
    <glyph glyph-name="glyph1836" 
 />
    <glyph glyph-name="glyph1837" 
 />
    <glyph glyph-name="glyph1838" 
 />
    <glyph glyph-name="glyph1839" 
 />
    <glyph glyph-name="glyph1840" 
 />
    <glyph glyph-name="glyph1841" 
 />
    <glyph glyph-name="glyph1842" 
 />
    <glyph glyph-name="glyph1843" 
 />
    <glyph glyph-name="glyph1844" 
 />
    <glyph glyph-name="glyph1845" 
 />
    <glyph glyph-name="glyph1846" 
 />
    <glyph glyph-name="glyph1847" 
 />
    <glyph glyph-name="glyph1848" 
 />
    <glyph glyph-name="glyph1849" 
 />
    <glyph glyph-name="glyph1850" 
 />
    <glyph glyph-name="glyph1851" 
 />
    <glyph glyph-name="glyph1852" 
 />
    <glyph glyph-name="glyph1853" 
 />
    <glyph glyph-name="glyph1854" 
 />
    <glyph glyph-name="glyph1855" 
 />
    <glyph glyph-name="glyph1856" 
 />
    <glyph glyph-name="glyph1857" 
 />
    <glyph glyph-name="glyph1858" 
 />
    <glyph glyph-name="glyph1859" 
 />
    <glyph glyph-name="glyph1860" 
 />
    <glyph glyph-name="glyph1861" 
 />
    <glyph glyph-name="glyph1862" 
 />
    <glyph glyph-name="glyph1863" 
 />
    <glyph glyph-name="glyph1864" 
 />
    <glyph glyph-name="glyph1865" 
 />
    <glyph glyph-name="glyph1866" 
 />
    <glyph glyph-name="glyph1867" 
 />
    <glyph glyph-name="glyph1868" 
 />
    <glyph glyph-name="glyph1869" 
 />
    <glyph glyph-name="glyph1870" 
 />
    <glyph glyph-name="glyph1871" 
 />
    <glyph glyph-name="glyph1872" 
 />
    <glyph glyph-name="glyph1873" 
 />
    <glyph glyph-name="glyph1874" 
 />
    <glyph glyph-name="glyph1875" 
 />
    <glyph glyph-name="glyph1876" 
 />
    <glyph glyph-name="glyph1877" 
 />
    <glyph glyph-name="glyph1878" 
 />
    <glyph glyph-name="glyph1879" 
 />
    <glyph glyph-name="glyph1880" 
 />
    <glyph glyph-name="glyph1881" 
 />
    <glyph glyph-name="glyph1882" 
 />
    <glyph glyph-name="glyph1883" 
 />
    <glyph glyph-name="glyph1884" 
 />
    <glyph glyph-name="glyph1885" 
 />
    <glyph glyph-name="glyph1886" 
 />
    <glyph glyph-name="glyph1887" 
 />
    <glyph glyph-name="glyph1888" 
 />
    <glyph glyph-name="glyph1889" 
 />
    <glyph glyph-name="glyph1890" 
 />
    <glyph glyph-name="glyph1891" 
 />
    <glyph glyph-name="glyph1892" 
 />
    <glyph glyph-name="glyph1893" 
 />
    <glyph glyph-name="glyph1894" 
 />
    <glyph glyph-name="glyph1895" 
 />
    <glyph glyph-name="glyph1896" 
 />
    <glyph glyph-name="glyph1897" 
 />
    <glyph glyph-name="glyph1898" 
 />
    <glyph glyph-name="glyph1899" 
 />
    <glyph glyph-name="glyph1900" 
 />
    <glyph glyph-name="glyph1901" 
 />
    <glyph glyph-name="glyph1902" 
 />
    <glyph glyph-name="glyph1903" 
 />
    <glyph glyph-name="glyph1904" 
 />
    <glyph glyph-name="glyph1905" 
 />
    <glyph glyph-name="glyph1906" 
 />
    <glyph glyph-name="glyph1907" 
 />
    <glyph glyph-name="glyph1908" 
 />
    <glyph glyph-name="glyph1909" 
 />
    <glyph glyph-name="glyph1910" 
 />
    <glyph glyph-name="glyph1911" 
 />
    <glyph glyph-name="glyph1912" 
 />
    <glyph glyph-name="glyph1913" 
 />
    <glyph glyph-name="glyph1914" 
 />
    <glyph glyph-name="glyph1915" 
 />
    <glyph glyph-name="glyph1916" 
 />
    <glyph glyph-name="glyph1917" 
 />
    <glyph glyph-name="glyph1918" 
 />
    <glyph glyph-name="glyph1919" 
 />
    <glyph glyph-name="glyph1920" 
 />
    <glyph glyph-name="glyph1921" 
 />
    <glyph glyph-name="glyph1922" 
 />
    <glyph glyph-name="glyph1923" 
 />
    <glyph glyph-name="glyph1924" 
 />
    <glyph glyph-name="glyph1925" 
 />
    <glyph glyph-name="glyph1926" 
 />
    <glyph glyph-name="glyph1927" 
 />
    <glyph glyph-name="glyph1928" 
 />
    <glyph glyph-name="glyph1929" 
 />
    <glyph glyph-name="glyph1930" 
 />
    <glyph glyph-name="glyph1931" 
 />
    <glyph glyph-name="glyph1932" 
 />
    <glyph glyph-name="glyph1933" 
 />
    <glyph glyph-name="glyph1934" 
 />
    <glyph glyph-name="glyph1935" 
 />
    <glyph glyph-name="glyph1936" 
 />
    <glyph glyph-name="glyph1937" 
 />
    <glyph glyph-name="glyph1938" 
 />
    <glyph glyph-name="glyph1939" 
 />
    <glyph glyph-name="glyph1940" 
 />
    <glyph glyph-name="glyph1941" 
 />
    <glyph glyph-name="glyph1942" 
 />
    <glyph glyph-name="glyph1943" 
 />
    <glyph glyph-name="glyph1944" 
 />
    <glyph glyph-name="glyph1945" 
 />
    <glyph glyph-name="glyph1946" 
 />
    <glyph glyph-name="glyph1947" 
 />
    <glyph glyph-name="glyph1948" 
 />
    <glyph glyph-name="glyph1949" 
 />
    <glyph glyph-name="glyph1950" 
 />
    <glyph glyph-name="glyph1951" 
 />
    <glyph glyph-name="glyph1952" 
 />
    <glyph glyph-name="glyph1953" 
 />
    <glyph glyph-name="glyph1954" 
 />
    <glyph glyph-name="glyph1955" 
 />
    <glyph glyph-name="glyph1956" 
 />
    <glyph glyph-name="glyph1957" 
 />
    <glyph glyph-name="glyph1958" 
 />
    <glyph glyph-name="glyph1959" 
 />
    <glyph glyph-name="glyph1960" 
 />
    <glyph glyph-name="glyph1961" 
 />
    <glyph glyph-name="glyph1962" 
 />
    <glyph glyph-name="glyph1963" 
 />
    <glyph glyph-name="glyph1964" 
 />
    <glyph glyph-name="glyph1965" 
 />
    <glyph glyph-name="glyph1966" 
 />
    <glyph glyph-name="glyph1967" 
 />
    <glyph glyph-name="glyph1968" 
 />
    <glyph glyph-name="glyph1969" 
 />
    <glyph glyph-name="glyph1970" 
 />
    <glyph glyph-name="glyph1971" 
 />
    <glyph glyph-name="glyph1972" 
 />
    <glyph glyph-name="glyph1973" 
 />
    <glyph glyph-name="glyph1974" 
 />
    <glyph glyph-name="glyph1975" 
 />
    <glyph glyph-name="glyph1976" 
 />
    <glyph glyph-name="glyph1977" 
 />
    <glyph glyph-name="glyph1978" 
 />
    <glyph glyph-name="glyph1979" 
 />
    <glyph glyph-name="glyph1980" 
 />
    <glyph glyph-name="glyph1981" 
 />
    <glyph glyph-name="glyph1982" 
 />
    <glyph glyph-name="glyph1983" 
 />
    <glyph glyph-name="glyph1984" 
 />
    <glyph glyph-name="glyph1985" 
 />
    <glyph glyph-name="glyph1986" 
 />
    <glyph glyph-name="glyph1987" 
 />
    <glyph glyph-name="glyph1988" 
 />
    <glyph glyph-name="glyph1989" 
 />
    <glyph glyph-name="glyph1990" 
 />
    <glyph glyph-name="glyph1991" 
 />
    <glyph glyph-name="glyph1992" 
 />
    <glyph glyph-name="glyph1993" 
 />
    <glyph glyph-name="glyph1994" 
 />
    <glyph glyph-name="glyph1995" 
 />
    <glyph glyph-name="glyph1996" 
 />
    <glyph glyph-name="glyph1997" horiz-adv-x="1190" 
d="M604 1266q58 0 104.5 17t80 46t53 67t24.5 79h98q-10 -54 -37.5 -105.5t-72.5 -91.5t-108 -64t-143 -24t-140 24t-101 64t-65.5 91.5t-34.5 105.5h98q5 -41 22 -79t47 -67t73 -46t100 -17h2z" />
    <glyph glyph-name="glyph1998" 
 />
    <glyph glyph-name="glyph1999" 
 />
    <glyph glyph-name="glyph2000" 
 />
    <glyph glyph-name="glyph2001" 
 />
    <glyph glyph-name="glyph2002" 
 />
    <glyph glyph-name="glyph2003" 
 />
    <glyph glyph-name="glyph2004" 
 />
    <glyph glyph-name="glyph2005" 
 />
    <glyph glyph-name="glyph2006" 
 />
    <glyph glyph-name="glyph2007" 
 />
    <glyph glyph-name="glyph2008" 
 />
    <glyph glyph-name="glyph2009" 
 />
    <glyph glyph-name="glyph2010" 
 />
    <glyph glyph-name="glyph2011" 
 />
    <glyph glyph-name="glyph2012" 
 />
    <glyph glyph-name="glyph2013" 
 />
    <glyph glyph-name="glyph2014" 
 />
    <glyph glyph-name="glyph2015" 
 />
    <glyph glyph-name="glyph2016" 
 />
    <glyph glyph-name="glyph2017" 
 />
    <glyph glyph-name="glyph2018" 
 />
    <glyph glyph-name="glyph2019" 
 />
    <glyph glyph-name="glyph2020" 
 />
    <glyph glyph-name="glyph2021" 
 />
    <glyph glyph-name="glyph2022" 
 />
    <glyph glyph-name="glyph2023" 
 />
    <glyph glyph-name="glyph2024" 
 />
    <glyph glyph-name="glyph2025" 
 />
    <glyph glyph-name="glyph2026" 
 />
    <glyph glyph-name="glyph2027" 
 />
    <glyph glyph-name="glyph2028" 
 />
    <glyph glyph-name="glyph2029" 
 />
    <glyph glyph-name="glyph2030" 
 />
    <glyph glyph-name="glyph2031" 
 />
    <glyph glyph-name="glyph2032" 
 />
    <glyph glyph-name="glyph2033" 
 />
    <glyph glyph-name="glyph2034" 
 />
    <glyph glyph-name="glyph2035" 
 />
    <glyph glyph-name="glyph2036" 
 />
    <glyph glyph-name="glyph2037" 
 />
    <glyph glyph-name="glyph2038" 
 />
    <glyph glyph-name="glyph2039" 
 />
    <glyph glyph-name="glyph2040" 
 />
    <glyph glyph-name="glyph2041" 
 />
    <glyph glyph-name="glyph2042" 
 />
    <glyph glyph-name="glyph2043" 
 />
    <glyph glyph-name="glyph2044" 
 />
    <glyph glyph-name="glyph2045" 
 />
    <glyph glyph-name="glyph2046" 
 />
    <glyph glyph-name="glyph2047" 
 />
    <glyph glyph-name="glyph2048" 
 />
    <glyph glyph-name="glyph2049" 
 />
    <glyph glyph-name="glyph2050" 
 />
    <glyph glyph-name="glyph2051" 
 />
    <glyph glyph-name="glyph2052" 
 />
    <glyph glyph-name="glyph2053" 
 />
    <glyph glyph-name="glyph2054" 
 />
    <glyph glyph-name="glyph2055" 
 />
    <glyph glyph-name="glyph2056" 
 />
    <glyph glyph-name="glyph2057" 
 />
    <glyph glyph-name="glyph2058" 
 />
    <glyph glyph-name="glyph2059" 
 />
    <glyph glyph-name="glyph2060" 
 />
    <glyph glyph-name="glyph2061" 
 />
    <glyph glyph-name="glyph2062" 
 />
    <glyph glyph-name="glyph2063" 
 />
    <glyph glyph-name="glyph2064" 
 />
    <glyph glyph-name="glyph2065" 
 />
    <glyph glyph-name="glyph2066" 
 />
    <glyph glyph-name="glyph2067" 
 />
    <glyph glyph-name="glyph2068" 
 />
    <glyph glyph-name="glyph2069" 
 />
    <glyph glyph-name="glyph2070" 
 />
    <glyph glyph-name="glyph2071" 
 />
    <glyph glyph-name="glyph2072" 
 />
    <glyph glyph-name="glyph2073" 
 />
    <glyph glyph-name="glyph2074" 
 />
    <glyph glyph-name="glyph2075" 
 />
    <glyph glyph-name="glyph2076" 
 />
    <glyph glyph-name="glyph2077" 
 />
    <glyph glyph-name="glyph2078" 
 />
    <glyph glyph-name="glyph2079" 
 />
    <glyph glyph-name="glyph2080" 
 />
    <glyph glyph-name="glyph2081" 
 />
    <glyph glyph-name="glyph2082" 
 />
    <glyph glyph-name="glyph2083" 
 />
    <glyph glyph-name="glyph2084" 
 />
    <glyph glyph-name="glyph2085" 
 />
    <glyph glyph-name="glyph2086" 
 />
    <glyph glyph-name="glyph2087" 
 />
    <glyph glyph-name="glyph2088" 
 />
    <glyph glyph-name="glyph2089" 
 />
    <glyph glyph-name="glyph2090" 
 />
    <glyph glyph-name="glyph2091" 
 />
    <glyph glyph-name="glyph2092" 
 />
    <glyph glyph-name="glyph2093" 
 />
    <glyph glyph-name="glyph2094" 
 />
    <glyph glyph-name="glyph2095" 
 />
    <glyph glyph-name="glyph2096" 
 />
    <glyph glyph-name="glyph2097" 
 />
    <glyph glyph-name="glyph2098" 
 />
    <glyph glyph-name="glyph2099" 
 />
    <glyph glyph-name="glyph2100" 
 />
    <glyph glyph-name="glyph2101" 
 />
    <glyph glyph-name="glyph2102" 
 />
    <glyph glyph-name="glyph2103" 
 />
    <glyph glyph-name="glyph2104" 
 />
    <glyph glyph-name="glyph2105" 
 />
    <glyph glyph-name="glyph2106" 
 />
    <glyph glyph-name="glyph2107" 
 />
    <glyph glyph-name="glyph2108" 
 />
    <glyph glyph-name="glyph2109" 
 />
    <glyph glyph-name="glyph2110" 
 />
    <glyph glyph-name="glyph2111" 
 />
    <glyph glyph-name="glyph2112" 
 />
    <glyph glyph-name="glyph2113" 
 />
    <glyph glyph-name="glyph2114" 
 />
    <glyph glyph-name="glyph2115" 
 />
    <glyph glyph-name="glyph2116" 
 />
    <glyph glyph-name="glyph2117" 
 />
    <glyph glyph-name="glyph2118" 
 />
    <glyph glyph-name="glyph2119" 
 />
    <glyph glyph-name="glyph2120" 
 />
    <glyph glyph-name="glyph2121" 
 />
    <glyph glyph-name="glyph2122" 
 />
    <glyph glyph-name="glyph2123" 
 />
    <glyph glyph-name="glyph2124" 
 />
    <glyph glyph-name="glyph2125" 
 />
    <glyph glyph-name="glyph2126" 
 />
    <glyph glyph-name="glyph2127" 
 />
    <glyph glyph-name="glyph2128" 
 />
    <glyph glyph-name="glyph2129" 
 />
    <glyph glyph-name="glyph2130" 
 />
    <glyph glyph-name="glyph2131" 
 />
    <glyph glyph-name="glyph2132" 
 />
    <glyph glyph-name="glyph2133" 
 />
    <glyph glyph-name="glyph2134" 
 />
    <glyph glyph-name="glyph2135" 
 />
    <glyph glyph-name="glyph2136" 
 />
    <glyph glyph-name="glyph2137" 
 />
    <glyph glyph-name="glyph2138" 
 />
    <glyph glyph-name="glyph2139" 
 />
    <glyph glyph-name="glyph2140" 
 />
    <glyph glyph-name="glyph2141" 
 />
    <glyph glyph-name="glyph2142" 
 />
    <glyph glyph-name="glyph2143" 
 />
    <glyph glyph-name="glyph2144" 
 />
    <glyph glyph-name="glyph2145" 
 />
    <glyph glyph-name="glyph2146" 
 />
    <glyph glyph-name="glyph2147" 
 />
    <glyph glyph-name="glyph2148" 
 />
    <glyph glyph-name="glyph2149" 
 />
    <glyph glyph-name="glyph2150" 
 />
    <glyph glyph-name="glyph2151" 
 />
    <glyph glyph-name="glyph2152" 
 />
    <glyph glyph-name="glyph2153" 
 />
    <glyph glyph-name="glyph2154" 
 />
    <glyph glyph-name="glyph2155" 
 />
    <glyph glyph-name="glyph2156" 
 />
    <glyph glyph-name="glyph2157" 
 />
    <glyph glyph-name="glyph2158" 
 />
    <glyph glyph-name="glyph2159" 
 />
    <glyph glyph-name="glyph2160" 
 />
    <glyph glyph-name="glyph2161" 
 />
    <glyph glyph-name="glyph2162" 
 />
    <glyph glyph-name="glyph2163" 
 />
    <glyph glyph-name="glyph2164" 
 />
    <glyph glyph-name="glyph2165" 
 />
    <glyph glyph-name="glyph2166" 
 />
    <glyph glyph-name="glyph2167" 
 />
    <glyph glyph-name="glyph2168" 
 />
    <glyph glyph-name="glyph2169" 
 />
    <glyph glyph-name="glyph2170" 
 />
    <glyph glyph-name="glyph2171" 
 />
    <glyph glyph-name="glyph2172" 
 />
    <glyph glyph-name="glyph2173" 
 />
    <glyph glyph-name="glyph2174" 
 />
    <glyph glyph-name="glyph2175" 
 />
    <glyph glyph-name="glyph2176" 
 />
    <glyph glyph-name="glyph2177" 
 />
    <glyph glyph-name="glyph2178" 
 />
    <glyph glyph-name="glyph2179" 
 />
    <glyph glyph-name="glyph2180" 
 />
    <glyph glyph-name="glyph2181" 
 />
    <glyph glyph-name="glyph2182" 
 />
    <glyph glyph-name="glyph2183" 
 />
    <glyph glyph-name="glyph2184" 
 />
    <glyph glyph-name="glyph2185" 
 />
    <glyph glyph-name="glyph2186" 
 />
    <glyph glyph-name="glyph2187" 
 />
    <glyph glyph-name="glyph2188" 
 />
    <glyph glyph-name="zero.frac" 
 />
    <glyph glyph-name="six.frac" 
 />
    <glyph glyph-name="nine.frac" 
 />
    <glyph glyph-name="glyph2192" 
 />
    <glyph glyph-name="glyph2193" 
 />
    <glyph glyph-name="glyph2194" 
 />
    <glyph glyph-name="glyph2195" 
 />
    <glyph glyph-name="glyph2196" 
 />
    <glyph glyph-name="i.superior" 
 />
    <glyph glyph-name="two.superior" 
 />
    <glyph glyph-name="three.superior" 
 />
    <glyph glyph-name="one.superior" 
 />
    <glyph glyph-name="zero.superior" 
 />
    <glyph glyph-name="four.superior" 
 />
    <glyph glyph-name="five.superior" 
 />
    <glyph glyph-name="six.superior" 
 />
    <glyph glyph-name="seven.superior" 
 />
    <glyph glyph-name="eight.superior" 
 />
    <glyph glyph-name="nine.superior" 
 />
    <glyph glyph-name="glyph2208" 
 />
    <glyph glyph-name="glyph2209" 
 />
    <glyph glyph-name="glyph2210" 
 />
    <glyph glyph-name="glyph2211" 
 />
    <glyph glyph-name="glyph2212" 
 />
    <glyph glyph-name="zero.inferior" 
 />
    <glyph glyph-name="one.inferior" 
 />
    <glyph glyph-name="two.inferior" 
 />
    <glyph glyph-name="three.inferior" 
 />
    <glyph glyph-name="four.inferior" 
 />
    <glyph glyph-name="five.inferior" 
 />
    <glyph glyph-name="six.inferior" 
 />
    <glyph glyph-name="seven.inferior" 
 />
    <glyph glyph-name="eight.inferior" 
 />
    <glyph glyph-name="nine.inferior" 
 />
    <glyph glyph-name="glyph2223" 
 />
    <glyph glyph-name="glyph2224" 
 />
    <glyph glyph-name="glyph2225" 
 />
    <glyph glyph-name="glyph2226" 
 />
    <glyph glyph-name="glyph2227" 
 />
    <glyph glyph-name="glyph2228" 
 />
    <glyph glyph-name="glyph2229" 
 />
    <glyph glyph-name="glyph2230" 
 />
    <glyph glyph-name="glyph2231" 
 />
    <glyph glyph-name="glyph2232" 
 />
    <glyph glyph-name="glyph2233" 
 />
    <glyph glyph-name="glyph2234" 
 />
    <glyph glyph-name="glyph2235" 
 />
    <glyph glyph-name="glyph2236" 
 />
    <glyph glyph-name="glyph2237" 
 />
    <glyph glyph-name="glyph2238" 
 />
    <glyph glyph-name="glyph2239" 
 />
    <glyph glyph-name="glyph2240" 
 />
    <glyph glyph-name="glyph2241" 
 />
    <glyph glyph-name="glyph2242" 
 />
    <glyph glyph-name="glyph2243" 
 />
    <glyph glyph-name="glyph2244" 
 />
    <glyph glyph-name="glyph2245" 
 />
    <glyph glyph-name="glyph2246" 
 />
    <glyph glyph-name="glyph2247" 
 />
    <glyph glyph-name="glyph2248" 
 />
    <glyph glyph-name="glyph2249" 
 />
    <glyph glyph-name="glyph2250" 
 />
    <glyph glyph-name="glyph2251" 
 />
    <glyph glyph-name="glyph2252" 
 />
    <glyph glyph-name="glyph2253" 
 />
    <glyph glyph-name="glyph2254" 
 />
    <glyph glyph-name="glyph2255" 
 />
    <glyph glyph-name="glyph2256" 
 />
    <glyph glyph-name="glyph2257" 
 />
    <glyph glyph-name="glyph2258" 
 />
    <glyph glyph-name="glyph2259" 
 />
    <glyph glyph-name="glyph2260" 
 />
    <glyph glyph-name="glyph2261" 
 />
    <glyph glyph-name="glyph2262" 
 />
    <glyph glyph-name="glyph2263" 
 />
    <glyph glyph-name="glyph2264" 
 />
    <glyph glyph-name="glyph2265" 
 />
    <glyph glyph-name="glyph2266" 
 />
    <glyph glyph-name="glyph2267" 
 />
    <glyph glyph-name="glyph2268" 
 />
    <glyph glyph-name="glyph2269" 
 />
    <glyph glyph-name="glyph2270" 
 />
    <glyph glyph-name="glyph2271" 
 />
    <glyph glyph-name="glyph2272" 
 />
    <glyph glyph-name="glyph2273" 
 />
    <glyph glyph-name="glyph2274" 
 />
    <glyph glyph-name="glyph2275" 
 />
    <glyph glyph-name="glyph2276" 
 />
    <glyph glyph-name="glyph2277" 
 />
    <glyph glyph-name="glyph2278" 
 />
    <glyph glyph-name="glyph2279" 
 />
    <glyph glyph-name="glyph2280" 
 />
    <glyph glyph-name="glyph2281" 
 />
    <glyph glyph-name="glyph2282" 
 />
    <glyph glyph-name="glyph2283" 
 />
    <glyph glyph-name="glyph2284" 
 />
    <glyph glyph-name="glyph2285" 
 />
    <glyph glyph-name="glyph2286" 
 />
    <glyph glyph-name="glyph2287" 
 />
    <glyph glyph-name="glyph2288" 
 />
    <glyph glyph-name="glyph2289" 
 />
    <glyph glyph-name="glyph2290" 
 />
    <glyph glyph-name="glyph2291" 
 />
    <glyph glyph-name="glyph2292" 
 />
    <glyph glyph-name="glyph2293" 
 />
    <glyph glyph-name="glyph2294" 
 />
    <glyph glyph-name="glyph2295" 
 />
    <glyph glyph-name="glyph2296" 
 />
    <glyph glyph-name="glyph2297" 
 />
    <glyph glyph-name="glyph2298" 
 />
    <glyph glyph-name="glyph2299" 
 />
    <glyph glyph-name="glyph2300" 
 />
    <glyph glyph-name="glyph2301" 
 />
    <glyph glyph-name="glyph2302" 
 />
    <glyph glyph-name="glyph2303" 
 />
    <glyph glyph-name="glyph2304" 
 />
    <glyph glyph-name="glyph2305" 
 />
    <glyph glyph-name="glyph2306" 
 />
    <glyph glyph-name="glyph2307" 
 />
    <glyph glyph-name="glyph2308" 
 />
    <glyph glyph-name="glyph2309" 
 />
    <glyph glyph-name="glyph2310" 
 />
    <glyph glyph-name="glyph2311" 
 />
    <glyph glyph-name="glyph2312" 
 />
    <glyph glyph-name="glyph2313" 
 />
    <glyph glyph-name="glyph2314" 
 />
    <glyph glyph-name="glyph2315" 
 />
    <glyph glyph-name="glyph2316" 
 />
    <glyph glyph-name="glyph2317" 
 />
    <glyph glyph-name="glyph2318" 
 />
    <glyph glyph-name="glyph2319" 
 />
    <glyph glyph-name="glyph2320" 
 />
    <glyph glyph-name="glyph2321" 
 />
    <glyph glyph-name="glyph2322" 
 />
    <glyph glyph-name="glyph2323" 
 />
    <glyph glyph-name="glyph2324" 
 />
    <glyph glyph-name="glyph2325" 
 />
    <glyph glyph-name="glyph2326" 
 />
    <glyph glyph-name="glyph2327" 
 />
    <glyph glyph-name="glyph2328" 
 />
    <glyph glyph-name="glyph2329" 
 />
    <glyph glyph-name="glyph2330" 
 />
    <glyph glyph-name="glyph2331" 
 />
    <glyph glyph-name="glyph2332" 
 />
    <glyph glyph-name="glyph2333" 
 />
    <glyph glyph-name="glyph2334" 
 />
    <glyph glyph-name="glyph2335" 
 />
    <glyph glyph-name="glyph2336" 
 />
    <glyph glyph-name="glyph2337" 
 />
    <glyph glyph-name="glyph2338" 
 />
    <glyph glyph-name="glyph2339" 
 />
    <glyph glyph-name="glyph2340" 
 />
    <glyph glyph-name="glyph2341" 
 />
    <glyph glyph-name="glyph2342" 
 />
    <glyph glyph-name="glyph2343" 
 />
    <glyph glyph-name="glyph2344" 
 />
    <glyph glyph-name="glyph2345" 
 />
    <glyph glyph-name="glyph2346" 
 />
    <glyph glyph-name="glyph2347" 
 />
    <glyph glyph-name="glyph2348" 
 />
    <glyph glyph-name="glyph2349" 
 />
    <glyph glyph-name="glyph2350" 
 />
    <glyph glyph-name="glyph2351" 
 />
    <glyph glyph-name="glyph2352" 
 />
    <glyph glyph-name="glyph2353" 
 />
    <glyph glyph-name="glyph2354" 
 />
    <glyph glyph-name="glyph2355" 
 />
    <glyph glyph-name="glyph2356" 
 />
    <glyph glyph-name="glyph2357" 
 />
    <glyph glyph-name="glyph2358" 
 />
    <glyph glyph-name="glyph2359" 
 />
    <glyph glyph-name="glyph2360" 
 />
    <glyph glyph-name="glyph2361" 
 />
    <glyph glyph-name="glyph2362" 
 />
    <glyph glyph-name="glyph2363" 
 />
    <glyph glyph-name="glyph2364" 
 />
    <glyph glyph-name="glyph2365" 
 />
    <glyph glyph-name="glyph2366" 
 />
    <glyph glyph-name="glyph2367" 
 />
    <glyph glyph-name="glyph2368" 
 />
    <glyph glyph-name="glyph2369" 
 />
    <glyph glyph-name="glyph2370" 
 />
    <glyph glyph-name="glyph2371" 
 />
    <glyph glyph-name="glyph2372" 
 />
    <glyph glyph-name="glyph2373" 
 />
    <glyph glyph-name="glyph2374" 
 />
    <glyph glyph-name="glyph2375" 
 />
    <glyph glyph-name="glyph2376" 
 />
    <glyph glyph-name="glyph2377" 
 />
    <glyph glyph-name="glyph2378" 
 />
    <glyph glyph-name="glyph2379" 
 />
    <glyph glyph-name="glyph2380" 
 />
    <glyph glyph-name="glyph2381" 
 />
    <glyph glyph-name="glyph2382" 
 />
    <glyph glyph-name="zero.oldstyle" 
 />
    <glyph glyph-name="one.oldstyle" 
 />
    <glyph glyph-name="two.oldstyle" 
 />
    <glyph glyph-name="three.oldstyle" 
 />
    <glyph glyph-name="four.oldstyle" 
 />
    <glyph glyph-name="five.oldstyle" 
 />
    <glyph glyph-name="six.oldstyle" 
 />
    <glyph glyph-name="seven.oldstyle" 
 />
    <glyph glyph-name="eight.oldstyle" 
 />
    <glyph glyph-name="nine.oldstyle" 
 />
    <glyph glyph-name="zero.oldstyle.tnum" 
 />
    <glyph glyph-name="one.oldstyle.tnum" 
 />
    <glyph glyph-name="two.oldstyle.tnum" 
 />
    <glyph glyph-name="three.oldstyle.tnum" 
 />
    <glyph glyph-name="four.oldstyle.tnum" 
 />
    <glyph glyph-name="five.oldstyle.tnum" 
 />
    <glyph glyph-name="six.oldstyle.tnum" 
 />
    <glyph glyph-name="seven.oldstyle.tnum" 
 />
    <glyph glyph-name="eight.oldstyle.tnum" 
 />
    <glyph glyph-name="nine.oldstyle.tnum" 
 />
    <glyph glyph-name="zero.tnum" 
 />
    <glyph glyph-name="one.tnum" 
 />
    <glyph glyph-name="two.tnum" 
 />
    <glyph glyph-name="three.tnum" 
 />
    <glyph glyph-name="four.tnum" 
 />
    <glyph glyph-name="five.tnum" 
 />
    <glyph glyph-name="six.tnum" 
 />
    <glyph glyph-name="seven.tnum" 
 />
    <glyph glyph-name="eight.tnum" 
 />
    <glyph glyph-name="nine.tnum" 
 />
    <glyph glyph-name="zero.ss01" 
 />
    <glyph glyph-name="one.ss01" 
 />
    <glyph glyph-name="two.ss01" 
 />
    <glyph glyph-name="three.ss01" 
 />
    <glyph glyph-name="four.ss01" 
 />
    <glyph glyph-name="five.ss01" 
 />
    <glyph glyph-name="six.ss01" 
 />
    <glyph glyph-name="seven.ss01" 
 />
    <glyph glyph-name="eight.ss01" 
 />
    <glyph glyph-name="nine.ss01" 
 />
    <glyph glyph-name="glyph2423" 
 />
    <glyph glyph-name="glyph2424" 
 />
    <glyph glyph-name="glyph2425" 
 />
    <glyph glyph-name="glyph2426" 
 />
    <glyph glyph-name="glyph2427" 
 />
    <glyph glyph-name="glyph2428" 
 />
    <glyph glyph-name="glyph2429" 
 />
    <glyph glyph-name="glyph2430" 
 />
    <glyph glyph-name="glyph2431" 
 />
    <glyph glyph-name="glyph2432" 
 />
    <glyph glyph-name="A.c2sc" 
 />
    <glyph glyph-name="B.c2sc" 
 />
    <glyph glyph-name="C.c2sc" 
 />
    <glyph glyph-name="D.c2sc" 
 />
    <glyph glyph-name="E.c2sc" 
 />
    <glyph glyph-name="F.c2sc" 
 />
    <glyph glyph-name="G.c2sc" 
 />
    <glyph glyph-name="H.c2sc" 
 />
    <glyph glyph-name="I.c2sc" 
 />
    <glyph glyph-name="J.c2sc" 
 />
    <glyph glyph-name="K.c2sc" 
 />
    <glyph glyph-name="L.c2sc" 
 />
    <glyph glyph-name="M.c2sc" 
 />
    <glyph glyph-name="N.c2sc" 
 />
    <glyph glyph-name="O.c2sc" 
 />
    <glyph glyph-name="P.c2sc" 
 />
    <glyph glyph-name="Q.c2sc" 
 />
    <glyph glyph-name="R.c2sc" 
 />
    <glyph glyph-name="S.c2sc" 
 />
    <glyph glyph-name="T.c2sc" 
 />
    <glyph glyph-name="U.c2sc" 
 />
    <glyph glyph-name="V.c2sc" 
 />
    <glyph glyph-name="W.c2sc" 
 />
    <glyph glyph-name="X.c2sc" 
 />
    <glyph glyph-name="Y.c2sc" 
 />
    <glyph glyph-name="Z.c2sc" 
 />
    <glyph glyph-name="glyph2459" 
 />
    <glyph glyph-name="glyph2460" 
 />
    <glyph glyph-name="glyph2461" 
 />
    <glyph glyph-name="glyph2462" 
 />
    <glyph glyph-name="glyph2463" 
 />
    <glyph glyph-name="glyph2464" 
 />
    <glyph glyph-name="glyph2465" 
 />
    <glyph glyph-name="glyph2466" 
 />
    <glyph glyph-name="glyph2467" 
 />
    <glyph glyph-name="glyph2468" 
 />
    <glyph glyph-name="glyph2469" 
 />
    <glyph glyph-name="glyph2470" 
 />
    <glyph glyph-name="glyph2471" 
 />
    <glyph glyph-name="glyph2472" 
 />
    <glyph glyph-name="glyph2473" 
 />
    <glyph glyph-name="glyph2474" 
 />
    <glyph glyph-name="glyph2475" 
 />
    <glyph glyph-name="glyph2476" 
 />
    <glyph glyph-name="glyph2477" 
 />
    <glyph glyph-name="glyph2478" 
 />
    <glyph glyph-name="glyph2479" 
 />
    <glyph glyph-name="glyph2480" 
 />
    <glyph glyph-name="glyph2481" 
 />
    <glyph glyph-name="glyph2482" 
 />
    <glyph glyph-name="glyph2483" 
 />
    <glyph glyph-name="glyph2484" 
 />
    <glyph glyph-name="glyph2485" 
 />
    <glyph glyph-name="glyph2486" 
 />
    <glyph glyph-name="glyph2487" 
 />
    <glyph glyph-name="glyph2488" 
 />
    <glyph glyph-name="glyph2489" 
 />
    <glyph glyph-name="glyph2490" 
 />
    <glyph glyph-name="glyph2491" 
 />
    <glyph glyph-name="glyph2492" 
 />
    <glyph glyph-name="glyph2493" 
 />
    <glyph glyph-name="glyph2494" 
 />
    <glyph glyph-name="glyph2495" 
 />
    <glyph glyph-name="glyph2496" 
 />
    <glyph glyph-name="glyph2497" 
 />
    <glyph glyph-name="glyph2498" 
 />
    <glyph glyph-name="glyph2499" 
 />
    <glyph glyph-name="glyph2500" 
 />
    <glyph glyph-name="glyph2501" 
 />
    <glyph glyph-name="glyph2502" 
 />
    <glyph glyph-name="glyph2503" 
 />
    <glyph glyph-name="glyph2504" 
 />
    <glyph glyph-name="glyph2505" 
 />
    <glyph glyph-name="glyph2506" 
 />
    <glyph glyph-name="glyph2507" 
 />
    <glyph glyph-name="glyph2508" 
 />
    <glyph glyph-name="glyph2509" 
 />
    <glyph glyph-name="glyph2510" 
 />
    <glyph glyph-name="glyph2511" 
 />
    <glyph glyph-name="glyph2512" 
 />
    <glyph glyph-name="glyph2513" 
 />
    <glyph glyph-name="glyph2514" 
 />
    <glyph glyph-name="glyph2515" 
 />
    <glyph glyph-name="i.sc" 
 />
    <glyph glyph-name="glyph2517" 
 />
    <glyph glyph-name="glyph2518" 
 />
    <glyph glyph-name="glyph2519" 
 />
    <glyph glyph-name="glyph2520" 
 />
    <glyph glyph-name="glyph2521" 
 />
    <glyph glyph-name="glyph2522" 
 />
    <glyph glyph-name="glyph2523" 
 />
    <glyph glyph-name="glyph2524" 
 />
    <glyph glyph-name="glyph2525" 
 />
    <glyph glyph-name="glyph2526" 
 />
    <glyph glyph-name="glyph2527" 
 />
    <glyph glyph-name="glyph2528" 
 />
    <glyph glyph-name="glyph2529" 
 />
    <glyph glyph-name="glyph2530" 
 />
    <glyph glyph-name="glyph2531" 
 />
    <glyph glyph-name="glyph2532" 
 />
    <glyph glyph-name="glyph2533" 
 />
    <glyph glyph-name="glyph2534" 
 />
    <glyph glyph-name="glyph2535" 
 />
    <glyph glyph-name="glyph2536" 
 />
    <glyph glyph-name="glyph2537" 
 />
    <glyph glyph-name="glyph2538" 
 />
    <glyph glyph-name="glyph2539" 
 />
    <glyph glyph-name="glyph2540" 
 />
    <glyph glyph-name="glyph2541" 
 />
    <glyph glyph-name="glyph2542" 
 />
    <glyph glyph-name="glyph2543" 
 />
    <glyph glyph-name="glyph2544" 
 />
    <glyph glyph-name="glyph2545" 
 />
    <glyph glyph-name="glyph2546" 
 />
    <glyph glyph-name="glyph2547" 
 />
    <glyph glyph-name="glyph2548" 
 />
    <glyph glyph-name="glyph2549" 
 />
    <glyph glyph-name="glyph2550" 
 />
    <glyph glyph-name="glyph2551" 
 />
    <glyph glyph-name="glyph2552" 
 />
    <glyph glyph-name="glyph2553" 
 />
    <glyph glyph-name="glyph2554" 
 />
    <glyph glyph-name="glyph2555" 
 />
    <glyph glyph-name="glyph2556" 
 />
    <glyph glyph-name="glyph2557" 
 />
    <glyph glyph-name="glyph2558" 
 />
    <glyph glyph-name="glyph2559" 
 />
    <glyph glyph-name="glyph2560" 
 />
    <glyph glyph-name="glyph2561" 
 />
    <glyph glyph-name="glyph2562" 
 />
    <glyph glyph-name="glyph2563" 
 />
    <glyph glyph-name="glyph2564" 
 />
    <glyph glyph-name="glyph2565" 
 />
    <glyph glyph-name="glyph2566" 
 />
    <glyph glyph-name="glyph2567" 
 />
    <glyph glyph-name="glyph2568" 
 />
    <glyph glyph-name="glyph2569" 
 />
    <glyph glyph-name="glyph2570" 
 />
    <glyph glyph-name="glyph2571" 
 />
    <glyph glyph-name="glyph2572" 
 />
    <glyph glyph-name="glyph2573" 
 />
    <glyph glyph-name="glyph2574" 
 />
    <glyph glyph-name="glyph2575" 
 />
    <glyph glyph-name="glyph2576" 
 />
    <glyph glyph-name="glyph2577" 
 />
    <glyph glyph-name="glyph2578" 
 />
    <glyph glyph-name="glyph2579" 
 />
    <glyph glyph-name="glyph2580" 
 />
    <glyph glyph-name="glyph2581" 
 />
    <glyph glyph-name="glyph2582" 
 />
    <glyph glyph-name="glyph2583" 
 />
    <glyph glyph-name="glyph2584" 
 />
    <glyph glyph-name="glyph2585" 
 />
    <glyph glyph-name="glyph2586" 
 />
    <glyph glyph-name="glyph2587" 
 />
    <glyph glyph-name="glyph2588" 
 />
    <glyph glyph-name="glyph2589" 
 />
    <glyph glyph-name="glyph2590" 
 />
    <glyph glyph-name="glyph2591" 
 />
    <glyph glyph-name="glyph2592" 
 />
    <glyph glyph-name="glyph2593" 
 />
    <glyph glyph-name="glyph2594" 
 />
    <glyph glyph-name="afii10023.c2sc" 
 />
    <glyph glyph-name="afii10051.c2sc" 
 />
    <glyph glyph-name="afii10052.c2sc" 
 />
    <glyph glyph-name="afii10053.c2sc" 
 />
    <glyph glyph-name="afii10054.c2sc" 
 />
    <glyph glyph-name="afii10055.c2sc" 
 />
    <glyph glyph-name="afii10056.c2sc" 
 />
    <glyph glyph-name="afii10057.c2sc" 
 />
    <glyph glyph-name="afii10058.c2sc" 
 />
    <glyph glyph-name="afii10059.c2sc" 
 />
    <glyph glyph-name="afii10060.c2sc" 
 />
    <glyph glyph-name="afii10061.c2sc" 
 />
    <glyph glyph-name="afii10062.c2sc" 
 />
    <glyph glyph-name="afii10145.c2sc" 
 />
    <glyph glyph-name="afii10017.c2sc" 
 />
    <glyph glyph-name="afii10018.c2sc" 
 />
    <glyph glyph-name="afii10019.c2sc" 
 />
    <glyph glyph-name="afii10020.c2sc" 
 />
    <glyph glyph-name="afii10021.c2sc" 
 />
    <glyph glyph-name="afii10022.c2sc" 
 />
    <glyph glyph-name="afii10024.c2sc" 
 />
    <glyph glyph-name="afii10025.c2sc" 
 />
    <glyph glyph-name="afii10026.c2sc" 
 />
    <glyph glyph-name="afii10027.c2sc" 
 />
    <glyph glyph-name="afii10028.c2sc" 
 />
    <glyph glyph-name="afii10029.c2sc" 
 />
    <glyph glyph-name="afii10030.c2sc" 
 />
    <glyph glyph-name="afii10031.c2sc" 
 />
    <glyph glyph-name="afii10032.c2sc" 
 />
    <glyph glyph-name="afii10033.c2sc" 
 />
    <glyph glyph-name="afii10034.c2sc" 
 />
    <glyph glyph-name="afii10035.c2sc" 
 />
    <glyph glyph-name="afii10036.c2sc" 
 />
    <glyph glyph-name="afii10037.c2sc" 
 />
    <glyph glyph-name="afii10038.c2sc" 
 />
    <glyph glyph-name="afii10039.c2sc" 
 />
    <glyph glyph-name="afii10040.c2sc" 
 />
    <glyph glyph-name="afii10041.c2sc" 
 />
    <glyph glyph-name="afii10042.c2sc" 
 />
    <glyph glyph-name="afii10043.c2sc" 
 />
    <glyph glyph-name="afii10044.c2sc" 
 />
    <glyph glyph-name="afii10045.c2sc" 
 />
    <glyph glyph-name="afii10046.c2sc" 
 />
    <glyph glyph-name="afii10047.c2sc" 
 />
    <glyph glyph-name="afii10048.c2sc" 
 />
    <glyph glyph-name="afii10049.c2sc" 
 />
    <glyph glyph-name="afii10050.c2sc" 
 />
    <glyph glyph-name="f_i.dlig" 
 />
    <glyph glyph-name="f_l.dlig" 
 />
    <glyph glyph-name="f_f.dlig" 
 />
    <glyph glyph-name="f_f_i.dlig" 
 />
    <glyph glyph-name="f_f_l.dlig" 
 />
    <glyph glyph-name="ampersand.c2sc" 
 />
    <glyph glyph-name="glyph2648" 
 />
    <glyph glyph-name="glyph2649" 
 />
    <glyph glyph-name="glyph2650" 
 />
    <glyph glyph-name="glyph2651" 
 />
    <glyph glyph-name="glyph2652" 
 />
    <glyph glyph-name="glyph2653" 
 />
    <glyph glyph-name="glyph2654" 
 />
    <glyph glyph-name="glyph2655" 
 />
    <glyph glyph-name="glyph2656" 
 />
    <glyph glyph-name="glyph2657" 
 />
    <glyph glyph-name="glyph2658" 
 />
    <glyph glyph-name="glyph2659" 
 />
    <glyph glyph-name="glyph2660" 
 />
    <glyph glyph-name="glyph2661" 
 />
    <glyph glyph-name="glyph2662" 
 />
    <glyph glyph-name="glyph2663" 
 />
    <glyph glyph-name="glyph2664" 
 />
    <glyph glyph-name="glyph2665" 
 />
    <glyph glyph-name="glyph2666" 
 />
    <glyph glyph-name="glyph2667" 
 />
    <glyph glyph-name="glyph2668" 
 />
    <glyph glyph-name="glyph2669" 
 />
    <glyph glyph-name="glyph2670" 
 />
    <glyph glyph-name="glyph2671" 
 />
    <glyph glyph-name="glyph2672" 
 />
    <glyph glyph-name="glyph2673" 
 />
    <glyph glyph-name="glyph2674" 
 />
    <glyph glyph-name="glyph2675" 
 />
    <glyph glyph-name="glyph2676" 
 />
    <glyph glyph-name="glyph2677" 
 />
    <glyph glyph-name="glyph2678" 
 />
    <glyph glyph-name="glyph2679" 
 />
    <glyph glyph-name="glyph2680" 
 />
    <glyph glyph-name="glyph2681" 
 />
    <glyph glyph-name="glyph2682" 
 />
    <glyph glyph-name="glyph2683" 
 />
    <glyph glyph-name="glyph2684" 
 />
    <glyph glyph-name="glyph2685" 
 />
    <glyph glyph-name="glyph2686" 
 />
    <glyph glyph-name="glyph2687" 
 />
    <glyph glyph-name="glyph2688" 
 />
    <glyph glyph-name="glyph2689" 
 />
    <glyph glyph-name="glyph2690" 
 />
    <glyph glyph-name="glyph2691" 
 />
    <glyph glyph-name="glyph2692" 
 />
    <glyph glyph-name="glyph2693" 
 />
    <glyph glyph-name="glyph2694" 
 />
    <glyph glyph-name="glyph2695" 
 />
    <glyph glyph-name="I.ss01" 
 />
    <glyph glyph-name="Q.ss01" 
 />
    <glyph glyph-name="glyph2698" 
 />
    <glyph glyph-name="exclam.ss19" 
 />
    <glyph glyph-name="comma.ss19" 
 />
    <glyph glyph-name="semicolon.ss19" 
 />
    <glyph glyph-name="question.ss19" 
 />
    <glyph glyph-name="quotedblleft.ss19" 
 />
    <glyph glyph-name="quotedblright.ss19" 
 />
    <glyph glyph-name="quoteleft.ss19" 
 />
    <glyph glyph-name="quoteright.ss19" 
 />
    <glyph glyph-name="quotesinglbase.ss19" 
 />
    <glyph glyph-name="quotedblbase.ss19" 
 />
    <glyph glyph-name="glyph2709" 
 />
    <glyph glyph-name="glyph2710" 
 />
    <glyph glyph-name="glyph2711" 
 />
    <glyph glyph-name="glyph2712" 
 />
    <glyph glyph-name="glyph2713" 
 />
    <glyph glyph-name="glyph2714" 
 />
    <glyph glyph-name="glyph2715" 
 />
    <glyph glyph-name="glyph2716" 
 />
    <glyph glyph-name="glyph2717" 
 />
    <glyph glyph-name="glyph2718" 
 />
    <glyph glyph-name="glyph2719" 
 />
    <glyph glyph-name="glyph2720" 
 />
    <glyph glyph-name="glyph2721" 
 />
    <glyph glyph-name="glyph2722" 
 />
    <glyph glyph-name="glyph2723" 
 />
    <glyph glyph-name="glyph2724" 
 />
    <glyph glyph-name="glyph2725" 
 />
    <glyph glyph-name="glyph2726" 
 />
    <glyph glyph-name="glyph2727" 
 />
    <glyph glyph-name="glyph2728" 
 />
    <glyph glyph-name="glyph2729" 
 />
    <glyph glyph-name="glyph2730" 
 />
    <glyph glyph-name="glyph2731" 
 />
    <glyph glyph-name="glyph2732" 
 />
    <glyph glyph-name="glyph2733" 
 />
    <glyph glyph-name="glyph2734" 
 />
    <glyph glyph-name="glyph2735" 
 />
    <glyph glyph-name="glyph2736" 
 />
    <glyph glyph-name="glyph2737" 
 />
    <glyph glyph-name="glyph2738" 
 />
    <glyph glyph-name="glyph2739" 
 />
    <glyph glyph-name="glyph2740" 
 />
    <glyph glyph-name="glyph2741" 
 />
    <glyph glyph-name="glyph2742" 
 />
    <glyph glyph-name="glyph2743" 
 />
    <glyph glyph-name="glyph2744" 
 />
    <glyph glyph-name="glyph2745" 
 />
    <glyph glyph-name="glyph2746" 
 />
    <glyph glyph-name="glyph2747" 
 />
    <glyph glyph-name="glyph2748" 
 />
    <glyph glyph-name="glyph2749" 
 />
    <glyph glyph-name="glyph2750" 
 />
    <glyph glyph-name="glyph2751" 
 />
    <glyph glyph-name="glyph2752" 
 />
    <glyph glyph-name="glyph2753" 
 />
    <glyph glyph-name="glyph2754" 
 />
    <glyph glyph-name="glyph2755" 
 />
    <glyph glyph-name="glyph2756" 
 />
    <glyph glyph-name="glyph2757" 
 />
    <glyph glyph-name="glyph2758" 
 />
    <glyph glyph-name="glyph2759" 
 />
    <glyph glyph-name="glyph2760" 
 />
    <glyph glyph-name="glyph2761" 
 />
    <glyph glyph-name="glyph2762" 
 />
    <glyph glyph-name="glyph2763" 
 />
    <glyph glyph-name="glyph2764" 
 />
    <glyph glyph-name="glyph2765" 
 />
    <glyph glyph-name="glyph2766" 
 />
    <glyph glyph-name="glyph2767" 
 />
    <glyph glyph-name="glyph2768" 
 />
    <glyph glyph-name="glyph2769" 
 />
    <glyph glyph-name="glyph2770" 
 />
    <glyph glyph-name="glyph2771" 
 />
    <glyph glyph-name="glyph2772" 
 />
    <glyph glyph-name="glyph2773" 
 />
    <glyph glyph-name="glyph2774" 
 />
    <glyph glyph-name="glyph2775" 
 />
    <glyph glyph-name="glyph2776" 
 />
    <glyph glyph-name="glyph2777" 
 />
    <glyph glyph-name="glyph2778" 
 />
    <glyph glyph-name="glyph2779" 
 />
    <glyph glyph-name="glyph2780" 
 />
    <glyph glyph-name="glyph2781" 
 />
    <glyph glyph-name="glyph2782" 
 />
    <glyph glyph-name="glyph2783" 
 />
    <glyph glyph-name="glyph2784" 
 />
    <glyph glyph-name="glyph2785" 
 />
    <glyph glyph-name="glyph2786" 
 />
    <glyph glyph-name="glyph2787" 
 />
    <glyph glyph-name="glyph2788" 
 />
    <glyph glyph-name="glyph2789" 
 />
    <glyph glyph-name="glyph2790" 
 />
    <glyph glyph-name="glyph2791" 
 />
    <glyph glyph-name="glyph2792" 
 />
    <glyph glyph-name="glyph2793" 
 />
    <glyph glyph-name="glyph2794" 
 />
    <glyph glyph-name="glyph2795" 
 />
    <glyph glyph-name="glyph2796" 
 />
    <glyph glyph-name="glyph2797" 
 />
    <glyph glyph-name="glyph2798" 
 />
    <glyph glyph-name="glyph2799" 
 />
    <glyph glyph-name="glyph2800" 
 />
    <glyph glyph-name="glyph2801" 
 />
    <glyph glyph-name="glyph2802" 
 />
    <glyph glyph-name="glyph2803" 
 />
    <glyph glyph-name="glyph2804" 
 />
    <glyph glyph-name="glyph2805" 
 />
    <glyph glyph-name="glyph2806" 
 />
    <glyph glyph-name="glyph2807" 
 />
    <glyph glyph-name="glyph2808" 
 />
    <glyph glyph-name="glyph2809" 
 />
    <glyph glyph-name="glyph2810" 
 />
    <glyph glyph-name="glyph2811" 
 />
    <glyph glyph-name="glyph2812" 
 />
    <glyph glyph-name="glyph2813" 
 />
    <glyph glyph-name="glyph2814" 
 />
    <glyph glyph-name="glyph2815" 
 />
    <glyph glyph-name="glyph2816" 
 />
    <glyph glyph-name="glyph2817" 
 />
    <glyph glyph-name="glyph2818" 
 />
    <glyph glyph-name="glyph2819" 
 />
    <glyph glyph-name="glyph2820" 
 />
    <glyph glyph-name="glyph2821" 
 />
    <glyph glyph-name="glyph2822" 
 />
    <glyph glyph-name="glyph2823" 
 />
    <glyph glyph-name="glyph2824" 
 />
    <glyph glyph-name="glyph2825" 
 />
    <glyph glyph-name="glyph2826" 
 />
    <glyph glyph-name="glyph2827" 
 />
    <glyph glyph-name="glyph2828" 
 />
    <glyph glyph-name="glyph2829" 
 />
    <glyph glyph-name="glyph2830" 
 />
    <glyph glyph-name="glyph2831" 
 />
    <glyph glyph-name="glyph2832" 
 />
    <glyph glyph-name="glyph2833" 
 />
    <glyph glyph-name="glyph2834" 
 />
    <glyph glyph-name="glyph2835" 
 />
    <glyph glyph-name="glyph2836" 
 />
    <glyph glyph-name="glyph2837" 
 />
    <glyph glyph-name="glyph2838" 
 />
    <glyph glyph-name="glyph2839" 
 />
    <glyph glyph-name="glyph2840" 
 />
    <glyph glyph-name="glyph2841" 
 />
    <glyph glyph-name="glyph2842" 
 />
    <glyph glyph-name="glyph2843" 
 />
    <glyph glyph-name="glyph2844" 
 />
    <glyph glyph-name="glyph2845" 
 />
    <glyph glyph-name="glyph2846" 
 />
    <glyph glyph-name="glyph2847" 
 />
    <glyph glyph-name="glyph2848" 
 />
    <glyph glyph-name="glyph2849" 
 />
    <glyph glyph-name="glyph2850" 
 />
    <glyph glyph-name="glyph2851" 
 />
    <glyph glyph-name="glyph2852" 
 />
    <glyph glyph-name="glyph2853" 
 />
    <glyph glyph-name="glyph2854" 
 />
    <glyph glyph-name="glyph2855" 
 />
    <glyph glyph-name="glyph2856" 
 />
    <glyph glyph-name="glyph2857" 
 />
    <glyph glyph-name="glyph2858" 
 />
    <glyph glyph-name="glyph2859" 
 />
    <glyph glyph-name="glyph2860" 
 />
    <glyph glyph-name="glyph2861" 
 />
    <glyph glyph-name="glyph2862" 
 />
    <glyph glyph-name="glyph2863" 
 />
    <glyph glyph-name="glyph2864" 
 />
    <glyph glyph-name="glyph2865" 
 />
    <glyph glyph-name="glyph2866" 
 />
    <glyph glyph-name="glyph2867" 
 />
    <glyph glyph-name="glyph2868" 
 />
    <glyph glyph-name="glyph2869" 
 />
    <glyph glyph-name="glyph2870" 
 />
    <glyph glyph-name="glyph2871" 
 />
    <glyph glyph-name="glyph2872" 
 />
    <glyph glyph-name="glyph2873" 
 />
    <glyph glyph-name="glyph2874" 
 />
    <glyph glyph-name="glyph2875" 
 />
    <glyph glyph-name="glyph2876" 
 />
    <glyph glyph-name="glyph2877" 
 />
    <glyph glyph-name="glyph2878" 
 />
    <glyph glyph-name="glyph2879" 
 />
    <glyph glyph-name="glyph2880" 
 />
    <glyph glyph-name="glyph2881" 
 />
    <glyph glyph-name="glyph2882" 
 />
    <glyph glyph-name="glyph2883" 
 />
    <glyph glyph-name="glyph2884" 
 />
    <glyph glyph-name="glyph2885" 
 />
    <glyph glyph-name="glyph2886" 
 />
    <glyph glyph-name="glyph2887" 
 />
    <glyph glyph-name="glyph2888" 
 />
    <glyph glyph-name="glyph2889" 
 />
    <glyph glyph-name="glyph2890" 
 />
    <glyph glyph-name="glyph2891" 
 />
    <glyph glyph-name="glyph2892" 
 />
    <glyph glyph-name="glyph2893" 
 />
    <glyph glyph-name="glyph2894" 
 />
    <glyph glyph-name="glyph2895" 
 />
    <glyph glyph-name="glyph2896" 
 />
    <glyph glyph-name="glyph2897" 
 />
    <glyph glyph-name="glyph2898" 
 />
    <glyph glyph-name="glyph2899" 
 />
    <glyph glyph-name="glyph2900" 
 />
    <glyph glyph-name="glyph2901" 
 />
    <glyph glyph-name="glyph2902" 
 />
    <glyph glyph-name="glyph2903" 
 />
    <glyph glyph-name="glyph2904" 
 />
    <glyph glyph-name="glyph2905" 
 />
    <glyph glyph-name="glyph2906" 
 />
    <glyph glyph-name="glyph2907" 
 />
    <glyph glyph-name="glyph2908" 
 />
    <glyph glyph-name="glyph2909" 
 />
    <glyph glyph-name="glyph2910" 
 />
    <glyph glyph-name="glyph2911" 
 />
    <glyph glyph-name="glyph2912" 
 />
    <glyph glyph-name="glyph2913" 
 />
    <glyph glyph-name="glyph2914" 
 />
    <glyph glyph-name="glyph2915" 
 />
    <glyph glyph-name="glyph2916" 
 />
    <glyph glyph-name="glyph2917" 
 />
    <glyph glyph-name="glyph2918" 
 />
    <glyph glyph-name="glyph2919" 
 />
    <glyph glyph-name="glyph2920" 
 />
    <glyph glyph-name="glyph2921" 
 />
    <glyph glyph-name="glyph2922" 
 />
    <glyph glyph-name="glyph2923" 
 />
    <glyph glyph-name="glyph2924" 
 />
    <glyph glyph-name="glyph2925" 
 />
    <glyph glyph-name="glyph2926" 
 />
    <glyph glyph-name="glyph2927" 
 />
    <glyph glyph-name="glyph2928" 
 />
    <glyph glyph-name="glyph2929" 
 />
    <glyph glyph-name="glyph2930" 
 />
    <glyph glyph-name="glyph2931" 
 />
    <glyph glyph-name="glyph2932" 
 />
    <glyph glyph-name="glyph2933" 
 />
    <glyph glyph-name="glyph2934" 
 />
    <glyph glyph-name="glyph2935" 
 />
    <glyph glyph-name="glyph2936" 
 />
    <glyph glyph-name="glyph2937" 
 />
    <glyph glyph-name="glyph2938" 
 />
    <glyph glyph-name="glyph2939" 
 />
    <glyph glyph-name="glyph2940" 
 />
    <glyph glyph-name="glyph2941" 
 />
    <glyph glyph-name="glyph2942" 
 />
    <glyph glyph-name="glyph2943" 
 />
    <glyph glyph-name="glyph2944" 
 />
    <glyph glyph-name="glyph2945" 
 />
    <glyph glyph-name="glyph2946" 
 />
    <glyph glyph-name="glyph2947" 
 />
    <glyph glyph-name="glyph2948" 
 />
    <glyph glyph-name="glyph2949" 
 />
    <glyph glyph-name="glyph2950" 
 />
    <glyph glyph-name="glyph2951" 
 />
    <glyph glyph-name="glyph2952" 
 />
    <glyph glyph-name="glyph2953" 
 />
    <glyph glyph-name="glyph2954" 
 />
    <glyph glyph-name="glyph2955" 
 />
    <glyph glyph-name="glyph2956" 
 />
    <glyph glyph-name="glyph2957" 
 />
    <glyph glyph-name="glyph2958" 
 />
    <glyph glyph-name="glyph2959" 
 />
    <glyph glyph-name="glyph2960" 
 />
    <glyph glyph-name="glyph2961" 
 />
    <glyph glyph-name="glyph2962" 
 />
    <glyph glyph-name="glyph2963" 
 />
    <glyph glyph-name="glyph2964" 
 />
    <glyph glyph-name="glyph2965" 
 />
    <glyph glyph-name="glyph2966" 
 />
    <glyph glyph-name="glyph2967" 
 />
    <glyph glyph-name="glyph2968" 
 />
    <glyph glyph-name="glyph2969" 
 />
    <glyph glyph-name="glyph2970" 
 />
    <glyph glyph-name="glyph2971" 
 />
    <glyph glyph-name="glyph2972" 
 />
    <glyph glyph-name="glyph2973" 
 />
    <glyph glyph-name="glyph2974" 
 />
    <glyph glyph-name="glyph2975" 
 />
    <glyph glyph-name="glyph2976" 
 />
    <glyph glyph-name="glyph2977" 
 />
    <glyph glyph-name="glyph2978" 
 />
    <glyph glyph-name="glyph2979" 
 />
    <glyph glyph-name="glyph2980" 
 />
    <glyph glyph-name="glyph2981" 
 />
    <glyph glyph-name="glyph2982" 
 />
    <glyph glyph-name="glyph2983" 
 />
    <glyph glyph-name="glyph2984" 
 />
    <glyph glyph-name="glyph2985" 
 />
    <glyph glyph-name="glyph2986" 
 />
    <glyph glyph-name="glyph2987" 
 />
    <glyph glyph-name="glyph2988" 
 />
    <glyph glyph-name="glyph2989" 
 />
    <glyph glyph-name="glyph2990" 
 />
    <glyph glyph-name="glyph2991" 
 />
    <glyph glyph-name="glyph2992" 
 />
    <glyph glyph-name="glyph2993" 
 />
    <glyph glyph-name="glyph2994" 
 />
    <glyph glyph-name="glyph2995" 
 />
    <glyph glyph-name="glyph2996" 
 />
    <glyph glyph-name="glyph2997" 
 />
    <glyph glyph-name="glyph2998" 
 />
    <glyph glyph-name="glyph2999" 
 />
    <glyph glyph-name="glyph3000" 
 />
    <glyph glyph-name="glyph3001" 
 />
    <glyph glyph-name="glyph3002" 
 />
    <glyph glyph-name="glyph3003" 
 />
    <glyph glyph-name="glyph3004" 
 />
    <glyph glyph-name="glyph3005" 
 />
    <glyph glyph-name="glyph3006" 
 />
    <glyph glyph-name="glyph3007" 
 />
    <glyph glyph-name="glyph3008" 
 />
    <glyph glyph-name="glyph3009" 
 />
    <glyph glyph-name="glyph3010" 
 />
    <glyph glyph-name="glyph3011" 
 />
    <glyph glyph-name="glyph3012" 
 />
    <glyph glyph-name="glyph3013" 
 />
    <glyph glyph-name="glyph3014" 
 />
    <glyph glyph-name="glyph3015" 
 />
    <glyph glyph-name="glyph3016" 
 />
    <glyph glyph-name="glyph3017" 
 />
    <glyph glyph-name="glyph3018" 
 />
    <glyph glyph-name="glyph3019" 
 />
    <glyph glyph-name="glyph3020" 
 />
    <glyph glyph-name="glyph3021" 
 />
    <glyph glyph-name="glyph3022" 
 />
    <glyph glyph-name="glyph3023" 
 />
    <glyph glyph-name="glyph3024" 
 />
    <glyph glyph-name="glyph3025" 
 />
    <glyph glyph-name="glyph3026" 
 />
    <glyph glyph-name="glyph3027" 
 />
    <glyph glyph-name="glyph3028" 
 />
    <glyph glyph-name="glyph3029" 
 />
    <glyph glyph-name="glyph3030" 
 />
    <glyph glyph-name="glyph3031" 
 />
    <glyph glyph-name="glyph3032" 
 />
    <glyph glyph-name="glyph3033" 
 />
    <glyph glyph-name="glyph3034" 
 />
    <glyph glyph-name="glyph3035" 
 />
    <glyph glyph-name="glyph3036" 
 />
    <glyph glyph-name="glyph3037" 
 />
    <glyph glyph-name="glyph3038" 
 />
    <glyph glyph-name="glyph3039" 
 />
    <glyph glyph-name="glyph3040" 
 />
    <glyph glyph-name="glyph3041" 
 />
    <glyph glyph-name="glyph3042" 
 />
    <glyph glyph-name="glyph3043" 
 />
    <glyph glyph-name="glyph3044" 
 />
    <glyph glyph-name="glyph3045" 
 />
    <glyph glyph-name="glyph3046" 
 />
    <glyph glyph-name="glyph3047" 
 />
    <glyph glyph-name="glyph3048" 
 />
    <glyph glyph-name="glyph3049" 
 />
    <glyph glyph-name="glyph3050" 
 />
    <glyph glyph-name="glyph3051" 
 />
    <glyph glyph-name="glyph3052" 
 />
    <glyph glyph-name="glyph3053" 
 />
    <glyph glyph-name="glyph3054" 
 />
    <glyph glyph-name="glyph3055" 
 />
    <glyph glyph-name="glyph3056" 
 />
    <glyph glyph-name="glyph3057" 
 />
    <glyph glyph-name="glyph3058" 
 />
    <glyph glyph-name="glyph3059" 
 />
    <glyph glyph-name="glyph3060" 
 />
    <glyph glyph-name="glyph3061" 
 />
    <glyph glyph-name="glyph3062" 
 />
    <glyph glyph-name="glyph3063" 
 />
    <glyph glyph-name="glyph3064" 
 />
    <glyph glyph-name="glyph3065" 
 />
    <glyph glyph-name="glyph3066" 
 />
    <glyph glyph-name="glyph3067" 
 />
    <glyph glyph-name="glyph3068" 
 />
    <glyph glyph-name="glyph3069" 
 />
    <glyph glyph-name="glyph3070" 
 />
    <glyph glyph-name="glyph3071" 
 />
    <glyph glyph-name="glyph3072" 
 />
    <glyph glyph-name="glyph3073" 
 />
    <glyph glyph-name="glyph3074" 
 />
    <glyph glyph-name="glyph3075" 
 />
    <glyph glyph-name="glyph3076" 
 />
    <glyph glyph-name="glyph3077" 
 />
    <glyph glyph-name="glyph3078" 
 />
    <glyph glyph-name="glyph3079" 
 />
    <glyph glyph-name="glyph3080" 
 />
    <glyph glyph-name="glyph3081" 
 />
    <glyph glyph-name="glyph3082" 
 />
    <glyph glyph-name="glyph3083" 
 />
    <glyph glyph-name="glyph3084" 
 />
    <glyph glyph-name="glyph3085" 
 />
    <glyph glyph-name="glyph3086" 
 />
    <glyph glyph-name="glyph3087" 
 />
    <glyph glyph-name="glyph3088" 
 />
    <glyph glyph-name="glyph3089" 
 />
    <glyph glyph-name="glyph3090" 
 />
    <glyph glyph-name="glyph3091" 
 />
    <glyph glyph-name="glyph3092" 
 />
    <glyph glyph-name="glyph3093" 
 />
    <glyph glyph-name="glyph3094" 
 />
    <glyph glyph-name="glyph3095" 
 />
    <glyph glyph-name="glyph3096" 
 />
    <glyph glyph-name="glyph3097" 
 />
    <glyph glyph-name="glyph3098" 
 />
    <glyph glyph-name="glyph3099" 
 />
    <glyph glyph-name="glyph3100" 
 />
    <glyph glyph-name="glyph3101" 
 />
    <glyph glyph-name="glyph3102" 
 />
    <glyph glyph-name="glyph3103" 
 />
    <glyph glyph-name="glyph3104" 
 />
    <glyph glyph-name="glyph3105" 
 />
    <glyph glyph-name="glyph3106" 
 />
    <glyph glyph-name="glyph3107" 
 />
    <glyph glyph-name="glyph3108" 
 />
    <glyph glyph-name="glyph3109" 
 />
    <glyph glyph-name="glyph3110" 
 />
    <glyph glyph-name="glyph3111" 
 />
    <glyph glyph-name="glyph3112" 
 />
    <glyph glyph-name="glyph3113" 
 />
    <glyph glyph-name="glyph3114" 
 />
    <glyph glyph-name="glyph3115" 
 />
    <glyph glyph-name="glyph3116" 
 />
    <glyph glyph-name="glyph3117" 
 />
    <glyph glyph-name="glyph3118" 
 />
    <glyph glyph-name="glyph3119" 
 />
    <glyph glyph-name="glyph3120" 
 />
    <glyph glyph-name="glyph3121" 
 />
    <glyph glyph-name="glyph3122" 
 />
    <glyph glyph-name="glyph3123" 
 />
    <glyph glyph-name="glyph3124" 
 />
    <glyph glyph-name="glyph3125" 
 />
    <glyph glyph-name="glyph3126" 
 />
    <glyph glyph-name="glyph3127" 
 />
    <glyph glyph-name="glyph3128" 
 />
    <glyph glyph-name="glyph3129" 
 />
    <glyph glyph-name="glyph3130" 
 />
    <glyph glyph-name="glyph3131" 
 />
    <glyph glyph-name="glyph3132" 
 />
    <glyph glyph-name="glyph3133" 
 />
    <glyph glyph-name="glyph3134" 
 />
    <glyph glyph-name="glyph3135" 
 />
    <glyph glyph-name="glyph3136" 
 />
    <glyph glyph-name="glyph3137" 
 />
    <glyph glyph-name="glyph3138" 
 />
    <glyph glyph-name="glyph3139" 
 />
    <glyph glyph-name="glyph3140" 
 />
    <glyph glyph-name="glyph3141" 
 />
    <glyph glyph-name="glyph3142" 
 />
    <glyph glyph-name="glyph3143" 
 />
    <glyph glyph-name="glyph3144" 
 />
    <glyph glyph-name="glyph3145" 
 />
    <glyph glyph-name="glyph3146" 
 />
    <glyph glyph-name="glyph3147" 
 />
    <glyph glyph-name="glyph3148" 
 />
    <glyph glyph-name="glyph3149" 
 />
    <glyph glyph-name="glyph3150" 
 />
    <glyph glyph-name="glyph3151" 
 />
    <glyph glyph-name="glyph3152" 
 />
    <glyph glyph-name="glyph3153" 
 />
    <glyph glyph-name="glyph3154" 
 />
    <glyph glyph-name="glyph3155" 
 />
    <glyph glyph-name="glyph3156" 
 />
    <glyph glyph-name="glyph3157" 
 />
    <glyph glyph-name="glyph3158" 
 />
    <glyph glyph-name="glyph3159" 
 />
    <glyph glyph-name="glyph3160" 
 />
    <glyph glyph-name="glyph3161" 
 />
    <glyph glyph-name="glyph3162" 
 />
    <glyph glyph-name="glyph3163" 
 />
    <glyph glyph-name="glyph3164" 
 />
    <glyph glyph-name="glyph3165" 
 />
    <glyph glyph-name="glyph3166" 
 />
    <glyph glyph-name="glyph3167" 
 />
    <glyph glyph-name="glyph3168" 
 />
    <glyph glyph-name="glyph3169" 
 />
    <glyph glyph-name="glyph3170" 
 />
    <glyph glyph-name="glyph3171" 
 />
    <glyph glyph-name="glyph3172" 
 />
    <glyph glyph-name="glyph3173" 
 />
    <glyph glyph-name="glyph3174" 
 />
    <glyph glyph-name="glyph3175" 
 />
    <glyph glyph-name="glyph3176" 
 />
    <glyph glyph-name="glyph3177" 
 />
    <glyph glyph-name="glyph3178" 
 />
    <glyph glyph-name="glyph3179" 
 />
    <glyph glyph-name="glyph3180" 
 />
    <glyph glyph-name="glyph3181" 
 />
    <glyph glyph-name="glyph3182" 
 />
    <glyph glyph-name="glyph3183" 
 />
    <glyph glyph-name="glyph3184" 
 />
    <glyph glyph-name="glyph3185" 
 />
    <glyph glyph-name="glyph3186" 
 />
    <glyph glyph-name="glyph3187" 
 />
    <glyph glyph-name="glyph3188" 
 />
    <glyph glyph-name="glyph3189" 
 />
    <glyph glyph-name="glyph3190" 
 />
    <glyph glyph-name="glyph3191" 
 />
    <glyph glyph-name="glyph3192" 
 />
    <glyph glyph-name="glyph3193" 
 />
    <glyph glyph-name="glyph3194" 
 />
    <glyph glyph-name="glyph3195" 
 />
    <glyph glyph-name="glyph3196" 
 />
    <glyph glyph-name="glyph3197" 
 />
    <glyph glyph-name="glyph3198" 
 />
    <glyph glyph-name="glyph3199" 
 />
    <glyph glyph-name="glyph3200" 
 />
    <glyph glyph-name="glyph3201" 
 />
    <glyph glyph-name="glyph3202" 
 />
    <glyph glyph-name="glyph3203" 
 />
    <glyph glyph-name="glyph3204" 
 />
    <glyph glyph-name="glyph3205" 
 />
    <glyph glyph-name="glyph3206" 
 />
    <glyph glyph-name="glyph3207" 
 />
    <glyph glyph-name="glyph3208" 
 />
    <glyph glyph-name="glyph3209" 
 />
    <glyph glyph-name="glyph3210" 
 />
    <glyph glyph-name="glyph3211" 
 />
    <glyph glyph-name="glyph3212" 
 />
    <glyph glyph-name="glyph3213" 
 />
    <glyph glyph-name="glyph3214" 
 />
    <glyph glyph-name="glyph3215" 
 />
    <glyph glyph-name="glyph3216" 
 />
    <glyph glyph-name="glyph3217" 
 />
    <glyph glyph-name="glyph3218" 
 />
    <glyph glyph-name="glyph3219" 
 />
    <glyph glyph-name="glyph3220" 
 />
    <glyph glyph-name="glyph3221" 
 />
    <glyph glyph-name="glyph3222" 
 />
    <glyph glyph-name="glyph3223" 
 />
    <glyph glyph-name="glyph3224" 
 />
    <glyph glyph-name="glyph3225" 
 />
    <glyph glyph-name="glyph3226" 
 />
    <glyph glyph-name="glyph3227" 
 />
    <glyph glyph-name="glyph3228" 
 />
    <glyph glyph-name="glyph3229" 
 />
    <glyph glyph-name="glyph3230" 
 />
    <glyph glyph-name="glyph3231" 
 />
    <glyph glyph-name="glyph3232" 
 />
    <glyph glyph-name="glyph3233" 
 />
    <glyph glyph-name="glyph3234" 
 />
    <glyph glyph-name="glyph3235" 
 />
    <glyph glyph-name="glyph3236" 
 />
    <glyph glyph-name="glyph3237" 
 />
    <glyph glyph-name="glyph3238" 
 />
    <glyph glyph-name="glyph3239" 
 />
    <glyph glyph-name="glyph3240" 
 />
    <glyph glyph-name="glyph3241" 
 />
    <glyph glyph-name="glyph3242" 
 />
    <glyph glyph-name="glyph3243" 
 />
    <glyph glyph-name="glyph3244" 
 />
    <glyph glyph-name="glyph3245" 
 />
    <glyph glyph-name="glyph3246" 
 />
    <glyph glyph-name="glyph3247" 
 />
    <glyph glyph-name="glyph3248" 
 />
    <glyph glyph-name="glyph3249" 
 />
    <glyph glyph-name="glyph3250" 
 />
    <glyph glyph-name="glyph3251" 
 />
    <glyph glyph-name="glyph3252" 
 />
    <glyph glyph-name="glyph3253" 
 />
    <glyph glyph-name="glyph3254" 
 />
    <glyph glyph-name="glyph3255" 
 />
    <glyph glyph-name="glyph3256" 
 />
    <glyph glyph-name="glyph3257" 
 />
    <glyph glyph-name="glyph3258" 
 />
    <glyph glyph-name="glyph3259" 
 />
    <glyph glyph-name="glyph3260" 
 />
    <glyph glyph-name="glyph3261" 
 />
    <glyph glyph-name="glyph3262" 
 />
    <glyph glyph-name="glyph3263" 
 />
    <glyph glyph-name="glyph3264" 
 />
    <glyph glyph-name="glyph3265" 
 />
    <glyph glyph-name="glyph3266" 
 />
    <glyph glyph-name="glyph3267" 
 />
    <glyph glyph-name="glyph3268" 
 />
    <glyph glyph-name="glyph3269" 
 />
    <glyph glyph-name="glyph3270" 
 />
    <glyph glyph-name="glyph3271" 
 />
    <glyph glyph-name="glyph3272" 
 />
    <glyph glyph-name="glyph3273" 
 />
    <glyph glyph-name="glyph3274" 
 />
    <glyph glyph-name="glyph3275" 
 />
    <glyph glyph-name="glyph3276" 
 />
    <glyph glyph-name="glyph3277" 
 />
    <glyph glyph-name="glyph3278" 
 />
    <glyph glyph-name="glyph3279" 
 />
    <glyph glyph-name="glyph3280" 
 />
    <glyph glyph-name="glyph3281" 
 />
    <glyph glyph-name="glyph3282" 
 />
    <glyph glyph-name="glyph3283" 
 />
    <glyph glyph-name="glyph3284" 
 />
    <glyph glyph-name="glyph3285" 
 />
    <glyph glyph-name="glyph3286" 
 />
    <glyph glyph-name="glyph3287" 
 />
    <glyph glyph-name="glyph3288" 
 />
    <glyph glyph-name="glyph3289" 
 />
    <glyph glyph-name="glyph3290" 
 />
    <glyph glyph-name="glyph3291" 
 />
    <glyph glyph-name="glyph3292" 
 />
    <glyph glyph-name="glyph3293" 
 />
    <glyph glyph-name="glyph3294" 
 />
    <glyph glyph-name="glyph3295" 
 />
    <glyph glyph-name="glyph3296" 
 />
    <glyph glyph-name="glyph3297" 
 />
    <glyph glyph-name="glyph3298" 
 />
    <glyph glyph-name="glyph3299" 
 />
    <glyph glyph-name="glyph3300" 
 />
    <glyph glyph-name="glyph3301" 
 />
    <glyph glyph-name="glyph3302" 
 />
    <glyph glyph-name="glyph3303" 
 />
    <glyph glyph-name="glyph3304" 
 />
    <glyph glyph-name="glyph3305" 
 />
    <glyph glyph-name="glyph3306" 
 />
    <glyph glyph-name="glyph3307" 
 />
    <glyph glyph-name="glyph3308" 
 />
    <glyph glyph-name="glyph3309" 
 />
    <glyph glyph-name="glyph3310" 
 />
    <glyph glyph-name="glyph3311" 
 />
    <glyph glyph-name="glyph3312" 
 />
    <glyph glyph-name="glyph3313" 
 />
    <glyph glyph-name="glyph3314" 
 />
    <glyph glyph-name="glyph3315" 
 />
    <glyph glyph-name="glyph3316" 
 />
    <glyph glyph-name="glyph3317" 
 />
    <glyph glyph-name="glyph3318" 
 />
    <glyph glyph-name="glyph3319" 
 />
    <glyph glyph-name="glyph3320" 
 />
    <glyph glyph-name="glyph3321" 
 />
    <glyph glyph-name="glyph3322" 
 />
    <glyph glyph-name="glyph3323" 
 />
    <glyph glyph-name="glyph3324" 
 />
    <glyph glyph-name="glyph3325" 
 />
    <glyph glyph-name="glyph3326" 
 />
    <glyph glyph-name="glyph3327" 
 />
    <glyph glyph-name="glyph3328" 
 />
    <glyph glyph-name="glyph3329" 
 />
    <glyph glyph-name="glyph3330" 
 />
    <glyph glyph-name="glyph3331" 
 />
    <glyph glyph-name="glyph3332" 
 />
    <glyph glyph-name="glyph3333" 
 />
    <glyph glyph-name="glyph3334" 
 />
    <glyph glyph-name="glyph3335" 
 />
    <glyph glyph-name="glyph3336" 
 />
    <glyph glyph-name="glyph3337" 
 />
    <glyph glyph-name="glyph3338" 
 />
    <glyph glyph-name="glyph3339" 
 />
    <glyph glyph-name="glyph3340" 
 />
    <glyph glyph-name="glyph3341" 
 />
    <glyph glyph-name="glyph3342" 
 />
    <glyph glyph-name="glyph3343" 
 />
    <glyph glyph-name="glyph3344" 
 />
    <glyph glyph-name="glyph3345" 
 />
    <glyph glyph-name="glyph3346" 
 />
    <glyph glyph-name="glyph3347" 
 />
    <glyph glyph-name="glyph3348" 
 />
    <glyph glyph-name="glyph3349" 
 />
    <glyph glyph-name="glyph3350" 
 />
    <glyph glyph-name="glyph3351" 
 />
    <glyph glyph-name="glyph3352" 
 />
    <glyph glyph-name="glyph3353" 
 />
    <glyph glyph-name="glyph3354" 
 />
    <glyph glyph-name="glyph3355" 
 />
    <glyph glyph-name="glyph3356" 
 />
    <glyph glyph-name="glyph3357" 
 />
    <glyph glyph-name="glyph3358" 
 />
    <glyph glyph-name="glyph3359" 
 />
    <glyph glyph-name="glyph3360" 
 />
    <glyph glyph-name="glyph3361" 
 />
    <glyph glyph-name="glyph3362" 
 />
    <glyph glyph-name="glyph3363" 
 />
    <glyph glyph-name="glyph3364" 
 />
    <glyph glyph-name="glyph3365" 
 />
    <glyph glyph-name="glyph3366" 
 />
    <glyph glyph-name="glyph3367" 
 />
    <glyph glyph-name="glyph3368" 
 />
    <glyph glyph-name="glyph3369" 
 />
    <glyph glyph-name="glyph3370" 
 />
    <glyph glyph-name="glyph3371" 
 />
    <glyph glyph-name="glyph3372" 
 />
    <glyph glyph-name="glyph3373" 
 />
    <glyph glyph-name="glyph3374" 
 />
    <glyph glyph-name="glyph3375" 
 />
    <glyph glyph-name="glyph3376" 
 />
    <glyph glyph-name="glyph3377" 
 />
    <glyph glyph-name="glyph3378" 
 />
    <glyph glyph-name="glyph3379" 
 />
    <glyph glyph-name="glyph3380" 
 />
    <glyph glyph-name="glyph3381" 
 />
    <glyph glyph-name="glyph3382" 
 />
    <glyph glyph-name="glyph3383" 
 />
    <glyph glyph-name="glyph3384" 
 />
    <glyph glyph-name="glyph3385" 
 />
    <glyph glyph-name="glyph3386" 
 />
    <glyph glyph-name="glyph3387" 
 />
    <glyph glyph-name="glyph3388" 
 />
    <glyph glyph-name="glyph3389" 
 />
    <glyph glyph-name="glyph3390" 
 />
    <glyph glyph-name="glyph3391" 
 />
    <glyph glyph-name="glyph3392" 
 />
    <glyph glyph-name="glyph3393" 
 />
    <glyph glyph-name="glyph3394" 
 />
    <glyph glyph-name="glyph3395" 
 />
    <glyph glyph-name="glyph3396" 
 />
    <glyph glyph-name="glyph3397" 
 />
    <glyph glyph-name="glyph3398" 
 />
    <glyph glyph-name="glyph3399" 
 />
    <glyph glyph-name="glyph3400" 
 />
    <glyph glyph-name="glyph3401" 
 />
    <glyph glyph-name="glyph3402" 
 />
    <glyph glyph-name="glyph3403" 
 />
    <glyph glyph-name="glyph3404" 
 />
    <glyph glyph-name="glyph3405" 
 />
    <glyph glyph-name="glyph3406" 
 />
    <glyph glyph-name="glyph3407" 
 />
    <glyph glyph-name="glyph3408" 
 />
    <glyph glyph-name="glyph3409" 
 />
    <glyph glyph-name="glyph3410" 
 />
    <glyph glyph-name="glyph3411" 
 />
    <glyph glyph-name="glyph3412" 
 />
    <glyph glyph-name="glyph3413" 
 />
    <glyph glyph-name="glyph3414" 
 />
    <glyph glyph-name="glyph3415" 
 />
    <glyph glyph-name="glyph3416" 
 />
    <glyph glyph-name="glyph3417" 
 />
    <glyph glyph-name="glyph3418" 
 />
    <glyph glyph-name="glyph3419" 
 />
    <glyph glyph-name="glyph3420" 
 />
    <glyph glyph-name="glyph3421" 
 />
    <glyph glyph-name="glyph3422" 
 />
    <glyph glyph-name="glyph3423" 
 />
    <glyph glyph-name="glyph3424" 
 />
    <glyph glyph-name="glyph3425" 
 />
    <glyph glyph-name="glyph3426" 
 />
    <glyph glyph-name="glyph3427" 
 />
    <glyph glyph-name="glyph3428" 
 />
    <glyph glyph-name="glyph3429" 
 />
    <glyph glyph-name="glyph3430" 
 />
    <glyph glyph-name="glyph3431" 
 />
    <glyph glyph-name="glyph3432" 
 />
    <glyph glyph-name="glyph3433" 
 />
    <glyph glyph-name="glyph3434" 
 />
    <glyph glyph-name="glyph3435" 
 />
    <glyph glyph-name="glyph3436" 
 />
    <glyph glyph-name="glyph3437" 
 />
    <glyph glyph-name="glyph3438" 
 />
    <glyph glyph-name="glyph3439" 
 />
    <glyph glyph-name="glyph3440" 
 />
    <glyph glyph-name="glyph3441" 
 />
    <glyph glyph-name="glyph3442" 
 />
    <glyph glyph-name="glyph3443" 
 />
    <glyph glyph-name="glyph3444" 
 />
    <glyph glyph-name="glyph3445" 
 />
    <glyph glyph-name="glyph3446" 
 />
    <glyph glyph-name="glyph3447" 
 />
    <glyph glyph-name="glyph3448" 
 />
    <glyph glyph-name="glyph3449" 
 />
    <glyph glyph-name="glyph3450" 
 />
    <glyph glyph-name="glyph3451" 
 />
    <glyph glyph-name="glyph3452" 
 />
    <glyph glyph-name="glyph3453" 
 />
    <glyph glyph-name="glyph3454" 
 />
    <glyph glyph-name="glyph3455" 
 />
    <glyph glyph-name="glyph3456" 
 />
    <glyph glyph-name="glyph3457" 
 />
    <glyph glyph-name="glyph3458" 
 />
    <glyph glyph-name="glyph3459" 
 />
    <glyph glyph-name="glyph3460" 
 />
    <glyph glyph-name="glyph3461" 
 />
    <glyph glyph-name="glyph3462" 
 />
    <glyph glyph-name="glyph3463" 
 />
    <glyph glyph-name="glyph3464" 
 />
    <glyph glyph-name="glyph3465" 
 />
    <glyph glyph-name="glyph3466" 
 />
    <glyph glyph-name="glyph3467" 
 />
    <glyph glyph-name="glyph3468" 
 />
    <glyph glyph-name="glyph3469" 
 />
    <glyph glyph-name="glyph3470" 
 />
    <glyph glyph-name="glyph3471" 
 />
    <glyph glyph-name="glyph3472" 
 />
    <glyph glyph-name="glyph3473" 
 />
    <glyph glyph-name="glyph3474" 
 />
    <glyph glyph-name="glyph3475" 
 />
    <glyph glyph-name="glyph3476" 
 />
    <glyph glyph-name="glyph3477" 
 />
    <glyph glyph-name="glyph3478" 
 />
    <glyph glyph-name="glyph3479" 
 />
    <glyph glyph-name="glyph3480" 
 />
    <glyph glyph-name="glyph3481" 
 />
    <glyph glyph-name="glyph3482" 
 />
    <glyph glyph-name="glyph3483" 
 />
    <glyph glyph-name="glyph3484" 
 />
    <glyph glyph-name="glyph3485" 
 />
    <glyph glyph-name="glyph3486" 
 />
    <glyph glyph-name="glyph3487" 
 />
    <glyph glyph-name="glyph3488" 
 />
    <glyph glyph-name="glyph3489" 
 />
    <glyph glyph-name="glyph3490" 
 />
    <glyph glyph-name="glyph3491" 
 />
    <glyph glyph-name="glyph3492" 
 />
    <glyph glyph-name="glyph3493" 
 />
    <glyph glyph-name="glyph3494" 
 />
    <glyph glyph-name="glyph3495" 
 />
    <glyph glyph-name="glyph3496" 
 />
    <glyph glyph-name="glyph3497" 
 />
    <glyph glyph-name="glyph3498" 
 />
    <glyph glyph-name="glyph3499" 
 />
    <glyph glyph-name="glyph3500" 
 />
    <glyph glyph-name="glyph3501" 
 />
    <glyph glyph-name="glyph3502" 
 />
    <glyph glyph-name="glyph3503" 
 />
    <glyph glyph-name="glyph3504" 
 />
    <glyph glyph-name="glyph3505" 
 />
    <glyph glyph-name="glyph3506" 
 />
    <glyph glyph-name="glyph3507" 
 />
    <glyph glyph-name="glyph3508" 
 />
    <glyph glyph-name="glyph3509" 
 />
    <glyph glyph-name="glyph3510" 
 />
    <glyph glyph-name="glyph3511" 
 />
    <glyph glyph-name="glyph3512" 
 />
    <glyph glyph-name="glyph3513" 
 />
    <glyph glyph-name="glyph3514" 
 />
    <glyph glyph-name="glyph3515" 
 />
    <glyph glyph-name="glyph3516" 
 />
    <glyph glyph-name="glyph3517" 
 />
    <glyph glyph-name="glyph3518" 
 />
    <glyph glyph-name="glyph3519" 
 />
    <glyph glyph-name="glyph3520" 
 />
    <glyph glyph-name="glyph3521" 
 />
    <glyph glyph-name="glyph3522" 
 />
    <glyph glyph-name="glyph3523" 
 />
    <glyph glyph-name="glyph3524" 
 />
    <glyph glyph-name="glyph3525" 
 />
    <glyph glyph-name="glyph3526" 
 />
    <glyph glyph-name="glyph3527" 
 />
    <glyph glyph-name="glyph3528" 
 />
    <glyph glyph-name="glyph3529" 
 />
    <glyph glyph-name="glyph3530" 
 />
    <glyph glyph-name="glyph3531" 
 />
    <glyph glyph-name="glyph3532" 
 />
    <glyph glyph-name="glyph3533" 
 />
    <glyph glyph-name="glyph3534" 
 />
    <glyph glyph-name="glyph3535" 
 />
    <glyph glyph-name="glyph3536" 
 />
    <glyph glyph-name="glyph3537" 
 />
    <glyph glyph-name="glyph3538" 
 />
    <glyph glyph-name="glyph3539" 
 />
    <glyph glyph-name="glyph3540" 
 />
    <glyph glyph-name="glyph3541" 
 />
    <glyph glyph-name="glyph3542" 
 />
    <glyph glyph-name="glyph3543" 
 />
    <glyph glyph-name="glyph3544" 
 />
    <glyph glyph-name="glyph3545" 
 />
    <glyph glyph-name="glyph3546" 
 />
    <glyph glyph-name="glyph3547" 
 />
    <glyph glyph-name="glyph3548" 
 />
    <glyph glyph-name="glyph3549" 
 />
    <glyph glyph-name="glyph3550" 
 />
    <glyph glyph-name="glyph3551" 
 />
    <glyph glyph-name="glyph3552" 
 />
    <glyph glyph-name="glyph3553" 
 />
    <glyph glyph-name="glyph3554" 
 />
    <glyph glyph-name="glyph3555" 
 />
    <glyph glyph-name="glyph3556" 
 />
    <glyph glyph-name="glyph3557" 
 />
    <glyph glyph-name="glyph3558" 
 />
    <glyph glyph-name="glyph3559" 
 />
    <glyph glyph-name="glyph3560" 
 />
    <glyph glyph-name="glyph3561" 
 />
    <glyph glyph-name="glyph3562" 
 />
    <glyph glyph-name="glyph3563" 
 />
    <glyph glyph-name="glyph3564" 
 />
    <glyph glyph-name="glyph3565" 
 />
    <glyph glyph-name="glyph3566" 
 />
    <glyph glyph-name="glyph3567" 
 />
    <glyph glyph-name="glyph3568" 
 />
    <glyph glyph-name="glyph3569" 
 />
    <glyph glyph-name="glyph3570" 
 />
    <glyph glyph-name="glyph3571" 
 />
    <glyph glyph-name="glyph3572" 
 />
    <glyph glyph-name="glyph3573" 
 />
    <glyph glyph-name="glyph3574" 
 />
    <glyph glyph-name="glyph3575" 
 />
    <glyph glyph-name="glyph3576" 
 />
    <glyph glyph-name="glyph3577" 
 />
    <glyph glyph-name="glyph3578" 
 />
    <glyph glyph-name="glyph3579" 
 />
    <glyph glyph-name="glyph3580" 
 />
    <glyph glyph-name="glyph3581" 
 />
    <glyph glyph-name="glyph3582" 
 />
    <glyph glyph-name="glyph3583" 
 />
    <glyph glyph-name="glyph3584" 
 />
    <glyph glyph-name="glyph3585" 
 />
    <glyph glyph-name="glyph3586" 
 />
    <glyph glyph-name="glyph3587" 
 />
    <glyph glyph-name="glyph3588" 
 />
    <glyph glyph-name="glyph3589" 
 />
    <glyph glyph-name="glyph3590" 
 />
    <glyph glyph-name="glyph3591" 
 />
    <glyph glyph-name="glyph3592" 
 />
    <glyph glyph-name="glyph3593" 
 />
    <glyph glyph-name="glyph3594" 
 />
    <glyph glyph-name="glyph3595" 
 />
    <glyph glyph-name="glyph3596" 
 />
    <glyph glyph-name="glyph3597" 
 />
    <glyph glyph-name="glyph3598" 
 />
    <glyph glyph-name="glyph3599" 
 />
    <glyph glyph-name="glyph3600" 
 />
    <glyph glyph-name="glyph3601" 
 />
    <glyph glyph-name="glyph3602" 
 />
    <glyph glyph-name="glyph3603" 
 />
    <glyph glyph-name="glyph3604" 
 />
    <glyph glyph-name="glyph3605" 
 />
    <glyph glyph-name="glyph3606" 
 />
    <glyph glyph-name="glyph3607" 
 />
    <glyph glyph-name="glyph3608" 
 />
    <glyph glyph-name="glyph3609" 
 />
    <glyph glyph-name="glyph3610" 
 />
    <glyph glyph-name="glyph3611" 
 />
    <glyph glyph-name="glyph3612" 
 />
    <glyph glyph-name="glyph3613" 
 />
    <glyph glyph-name="glyph3614" 
 />
    <glyph glyph-name="glyph3615" 
 />
    <glyph glyph-name="glyph3616" 
 />
    <glyph glyph-name="glyph3617" 
 />
    <glyph glyph-name="glyph3618" 
 />
    <glyph glyph-name="glyph3619" 
 />
    <glyph glyph-name="glyph3620" 
 />
    <glyph glyph-name="glyph3621" 
 />
    <glyph glyph-name="glyph3622" 
 />
    <glyph glyph-name="glyph3623" 
 />
    <glyph glyph-name="glyph3624" 
 />
    <glyph glyph-name="glyph3625" 
 />
    <glyph glyph-name="glyph3626" 
 />
    <glyph glyph-name="glyph3627" 
 />
    <glyph glyph-name="glyph3628" 
 />
    <glyph glyph-name="glyph3629" 
 />
    <glyph glyph-name="glyph3630" 
 />
    <glyph glyph-name="glyph3631" 
 />
    <glyph glyph-name="glyph3632" 
 />
    <glyph glyph-name="glyph3633" 
 />
    <glyph glyph-name="glyph3634" 
 />
    <glyph glyph-name="glyph3635" 
 />
    <glyph glyph-name="glyph3636" 
 />
    <glyph glyph-name="glyph3637" 
 />
    <glyph glyph-name="glyph3638" 
 />
    <glyph glyph-name="glyph3639" 
 />
    <glyph glyph-name="glyph3640" 
 />
    <glyph glyph-name="glyph3641" 
 />
    <glyph glyph-name="glyph3642" 
 />
    <glyph glyph-name="glyph3643" 
 />
    <glyph glyph-name="glyph3644" 
 />
    <glyph glyph-name="glyph3645" 
 />
    <glyph glyph-name="glyph3646" 
 />
    <glyph glyph-name="glyph3647" 
 />
    <glyph glyph-name="glyph3648" 
 />
    <glyph glyph-name="glyph3649" 
 />
    <glyph glyph-name="glyph3650" 
 />
    <glyph glyph-name="glyph3651" 
 />
    <glyph glyph-name="glyph3652" 
 />
    <glyph glyph-name="glyph3653" 
 />
    <glyph glyph-name="glyph3654" 
 />
    <glyph glyph-name="glyph3655" 
 />
    <glyph glyph-name="glyph3656" 
 />
    <glyph glyph-name="glyph3657" 
 />
    <glyph glyph-name="glyph3658" 
 />
    <glyph glyph-name="glyph3659" 
 />
    <glyph glyph-name="glyph3660" 
 />
    <glyph glyph-name="glyph3661" 
 />
    <glyph glyph-name="glyph3662" 
 />
    <glyph glyph-name="glyph3663" 
 />
    <glyph glyph-name="glyph3664" 
 />
    <glyph glyph-name="glyph3665" 
 />
    <glyph glyph-name="glyph3666" 
 />
    <glyph glyph-name="glyph3667" 
 />
    <glyph glyph-name="glyph3668" 
 />
    <glyph glyph-name="glyph3669" 
 />
    <glyph glyph-name="glyph3670" 
 />
    <glyph glyph-name="glyph3671" 
 />
    <glyph glyph-name="glyph3672" 
 />
    <glyph glyph-name="glyph3673" 
 />
    <glyph glyph-name="glyph3674" 
 />
    <glyph glyph-name="glyph3675" 
 />
    <glyph glyph-name="glyph3676" 
 />
    <glyph glyph-name="glyph3677" 
 />
    <glyph glyph-name="glyph3678" 
 />
    <glyph glyph-name="glyph3679" 
 />
    <glyph glyph-name="glyph3680" 
 />
    <glyph glyph-name="glyph3681" 
 />
    <glyph glyph-name="glyph3682" 
 />
    <glyph glyph-name="glyph3683" 
 />
    <glyph glyph-name="glyph3684" 
 />
    <glyph glyph-name="glyph3685" 
 />
    <glyph glyph-name="glyph3686" 
 />
    <glyph glyph-name="glyph3687" 
 />
    <glyph glyph-name="glyph3688" 
 />
    <glyph glyph-name="glyph3689" 
 />
    <glyph glyph-name="glyph3690" 
 />
    <glyph glyph-name="glyph3691" 
 />
    <glyph glyph-name="glyph3692" 
 />
    <glyph glyph-name="glyph3693" 
 />
    <glyph glyph-name="glyph3694" 
 />
    <glyph glyph-name="glyph3695" 
 />
    <glyph glyph-name="glyph3696" 
 />
    <glyph glyph-name="glyph3697" 
 />
    <glyph glyph-name="glyph3698" 
 />
    <glyph glyph-name="glyph3699" 
 />
    <glyph glyph-name="glyph3700" 
 />
    <glyph glyph-name="glyph3701" 
 />
    <glyph glyph-name="glyph3702" 
 />
    <glyph glyph-name="glyph3703" 
 />
    <glyph glyph-name="glyph3704" 
 />
    <glyph glyph-name="glyph3705" 
 />
    <glyph glyph-name="glyph3706" 
 />
    <glyph glyph-name="glyph3707" 
 />
    <glyph glyph-name="glyph3708" 
 />
    <glyph glyph-name="glyph3709" 
 />
    <glyph glyph-name="glyph3710" 
 />
    <glyph glyph-name="glyph3711" 
 />
    <glyph glyph-name="glyph3712" 
 />
    <glyph glyph-name="glyph3713" 
 />
    <glyph glyph-name="glyph3714" 
 />
    <glyph glyph-name="glyph3715" 
 />
    <glyph glyph-name="glyph3716" 
 />
    <glyph glyph-name="glyph3717" 
 />
    <glyph glyph-name="glyph3718" 
 />
    <glyph glyph-name="glyph3719" 
 />
    <glyph glyph-name="glyph3720" 
 />
    <glyph glyph-name="glyph3721" 
 />
    <glyph glyph-name="glyph3722" 
 />
    <glyph glyph-name="glyph3723" 
 />
    <glyph glyph-name="glyph3724" 
 />
    <glyph glyph-name="glyph3725" 
 />
    <glyph glyph-name="glyph3726" 
 />
    <glyph glyph-name="glyph3727" 
 />
    <glyph glyph-name="glyph3728" 
 />
    <glyph glyph-name="glyph3729" 
 />
    <glyph glyph-name="glyph3730" 
 />
    <glyph glyph-name="glyph3731" 
 />
    <glyph glyph-name="glyph3732" 
 />
    <glyph glyph-name="glyph3733" 
 />
    <glyph glyph-name="glyph3734" 
 />
    <glyph glyph-name="glyph3735" 
 />
    <glyph glyph-name="glyph3736" 
 />
    <glyph glyph-name="glyph3737" 
 />
    <glyph glyph-name="glyph3738" 
 />
    <glyph glyph-name="glyph3739" 
 />
    <glyph glyph-name="glyph3740" 
 />
    <glyph glyph-name="glyph3741" 
 />
    <glyph glyph-name="glyph3742" 
 />
    <glyph glyph-name="glyph3743" 
 />
    <glyph glyph-name="glyph3744" 
 />
    <glyph glyph-name="glyph3745" 
 />
    <glyph glyph-name="glyph3746" 
 />
    <glyph glyph-name="glyph3747" 
 />
    <glyph glyph-name="glyph3748" 
 />
    <glyph glyph-name="glyph3749" 
 />
    <glyph glyph-name="glyph3750" 
 />
    <glyph glyph-name="glyph3751" 
 />
    <glyph glyph-name="glyph3752" 
 />
    <glyph glyph-name="glyph3753" 
 />
    <glyph glyph-name="glyph3754" 
 />
    <glyph glyph-name="glyph3755" 
 />
    <glyph glyph-name="glyph3756" 
 />
    <glyph glyph-name="glyph3757" 
 />
    <glyph glyph-name="glyph3758" 
 />
    <glyph glyph-name="glyph3759" 
 />
    <glyph glyph-name="glyph3760" 
 />
    <glyph glyph-name="glyph3761" 
 />
    <glyph glyph-name="glyph3762" 
 />
    <glyph glyph-name="glyph3763" 
 />
    <glyph glyph-name="glyph3764" 
 />
    <glyph glyph-name="glyph3765" 
 />
    <glyph glyph-name="glyph3766" 
 />
    <glyph glyph-name="glyph3767" 
 />
    <glyph glyph-name="glyph3768" 
 />
    <glyph glyph-name="glyph3769" 
 />
    <glyph glyph-name="glyph3770" 
 />
    <glyph glyph-name="glyph3771" 
 />
    <glyph glyph-name="glyph3772" 
 />
    <glyph glyph-name="glyph3773" 
 />
    <glyph glyph-name="glyph3774" 
 />
    <glyph glyph-name="glyph3775" 
 />
    <glyph glyph-name="glyph3776" 
 />
    <glyph glyph-name="glyph3777" 
 />
    <glyph glyph-name="glyph3778" 
 />
    <glyph glyph-name="glyph3779" 
 />
    <glyph glyph-name="glyph3780" 
 />
    <glyph glyph-name="glyph3781" 
 />
    <glyph glyph-name="glyph3782" 
 />
    <glyph glyph-name="glyph3783" 
 />
    <glyph glyph-name="glyph3784" 
 />
    <glyph glyph-name="glyph3785" 
 />
    <glyph glyph-name="glyph3786" 
 />
    <glyph glyph-name="glyph3787" 
 />
    <glyph glyph-name="glyph3788" 
 />
    <glyph glyph-name="glyph3789" 
 />
    <glyph glyph-name="glyph3790" 
 />
    <glyph glyph-name="glyph3791" 
 />
    <glyph glyph-name="glyph3792" 
 />
    <glyph glyph-name="glyph3793" 
 />
    <glyph glyph-name="glyph3794" 
 />
    <glyph glyph-name="glyph3795" 
 />
    <glyph glyph-name="glyph3796" 
 />
    <glyph glyph-name="glyph3797" 
 />
    <glyph glyph-name="glyph3798" 
 />
    <glyph glyph-name="glyph3799" 
 />
    <glyph glyph-name="glyph3800" 
 />
    <glyph glyph-name="glyph3801" 
 />
    <glyph glyph-name="glyph3802" 
 />
    <glyph glyph-name="glyph3803" 
 />
    <glyph glyph-name="glyph3804" 
 />
    <glyph glyph-name="glyph3805" 
 />
    <glyph glyph-name="glyph3806" 
 />
    <glyph glyph-name="glyph3807" 
 />
    <glyph glyph-name="glyph3808" 
 />
    <glyph glyph-name="glyph3809" 
 />
    <glyph glyph-name="glyph3810" 
 />
    </font>
</defs>
</svg>
